<svg width="452" height="339" viewBox="0 0 452 339" fill="none" xmlns="http://www.w3.org/2000/svg">
<path d="M108.273 244.635C110.151 246.104 111.033 248.238 111.409 250.635C111.617 251.956 112.825 252.137 113.733 252.37C114.519 252.571 115.244 252.596 115.88 253.246C116.089 253.383 116.329 253.465 116.578 253.486C116.827 253.506 117.078 253.464 117.306 253.364C118.408 252.691 119.588 252.201 120.605 251.305C124.186 248.154 126.811 244.257 129.268 240.282C131.774 236.225 134.398 232.211 136.318 227.811C136.915 226.442 136.939 226.453 135.436 225.389C134.215 227.713 133.075 230.073 131.756 232.327C130.71 234.114 129.444 235.773 128.17 237.644C128.008 237.344 127.939 237.004 127.969 236.664C128 236.325 128.13 236.003 128.343 235.737C130.991 232.064 133.284 228.148 135.193 224.041L134.153 223.363C134.068 223.437 133.879 223.6 133.555 223.88V222.354L130.76 221.799C129.927 222.188 129.531 223.663 128.161 223.845C128.206 225.337 126.902 226.079 126.246 227.17C125.424 228.401 124.524 229.579 123.552 230.696C122.672 230.579 122.013 230.456 121.349 230.409C119.016 230.245 119.072 230.319 117.62 231.601C116.006 233.025 114.9 235.017 112.817 235.922C112.742 235.963 112.676 236.021 112.626 236.091C112.576 236.161 112.542 236.241 112.528 236.326C112.463 237.825 111.624 238.369 110.216 238.733C109.036 239.038 108.701 240.283 108.645 241.508C108.599 242.441 108.427 243.375 108.273 244.635Z" fill="#171C22"/>
<path d="M316.528 70.5685C314.858 71.4047 314.858 71.4047 313.959 69.6543C312.816 69.2622 311.436 70.0498 310.403 69.0017C309.256 69.3468 308.092 69.6297 306.914 69.8492C305.01 70.1108 304.025 71.5844 302.95 72.8251C302.219 73.6675 301.455 74.5122 300.787 75.4275C300.008 76.497 299.074 77.4547 298.291 78.5226C297.581 79.4904 296.974 80.5345 296.344 81.5594C296.132 81.8274 296.003 82.1504 295.97 82.49C296.003 82.8459 295.951 83.2048 295.816 83.536C295.681 83.8673 295.469 84.161 295.196 84.3923C294.109 85.4896 294.193 87.0993 293.816 88.4677C293.464 89.7446 293.667 91.2006 293.779 92.5651C293.822 93.086 293.892 94.1973 295.037 93.3775C295.119 93.321 295.519 93.7465 295.794 93.9075C296.086 94.077 296.585 94.4019 296.685 94.3115C297.896 93.2493 298.191 94.0086 298.744 95.059C299.558 96.6054 300.055 96.4912 302.24 96.1008C303.57 95.863 304.98 95.8183 305.759 94.6674C307.864 91.5464 310.021 88.4468 310.313 84.459C310.43 82.8595 310.878 81.1911 312.195 80.0418C313.331 79.0514 314.085 77.6349 315.636 77.0829C316.103 76.9168 316.447 76.3592 316.81 75.9479C317.585 75.1077 318.016 74.0067 318.017 72.8635C318.038 71.5855 317.027 71.2962 316.528 70.5685Z" fill="#171C22"/>
<path d="M138.021 174.871C139.384 173.508 140.529 172.173 141.863 171.066C145.69 167.891 147.506 163.4 149.795 159.219C150.823 157.341 150.53 155.233 150.484 153.201C150.477 152.849 149.989 152.507 149.705 152.136C149.316 152.907 148.952 153.627 148.419 154.679V150.919C147.619 150.523 146.828 150.306 146.288 149.815C146.008 149.583 145.672 149.43 145.313 149.371C144.955 149.312 144.587 149.35 144.248 149.48C143.534 149.66 142.923 150.257 142.204 150.713C142.626 152.687 141.848 154.339 140.886 156.061C140.026 155.828 139.008 156.439 138.146 155.552C137.989 155.46 137.813 155.407 137.631 155.399C137.449 155.391 137.269 155.428 137.105 155.506C134.992 156.777 132.399 157.452 131.331 160.062C131.139 160.531 130.926 161.14 130.54 161.349C129.959 161.665 130.484 162.648 129.483 162.686C128.661 162.718 129.186 163.556 129.039 164.012C128.821 164.564 128.643 165.132 128.507 165.711C128.455 166.257 128.449 166.806 128.488 167.353C130.516 169.185 132.066 171.484 133.004 174.051L138.021 174.871Z" fill="#171C22"/>
<path d="M367.401 46.4684C366.9 45.7854 366.508 45.2147 366.074 44.678C365.895 44.4876 365.681 44.3319 365.445 44.2186C364.798 43.8559 364.335 44.8808 363.611 44.4344C363.045 44.0572 362.404 43.8093 361.732 43.7084C361.195 43.6564 360.398 44.3045 360.108 44.0966C359.465 43.6333 359.081 43.4932 358.521 44.1203C358.418 44.2333 358.037 44.1486 357.799 44.0915C356.047 43.6677 356.047 43.6627 355.106 45.369L354.665 44.0971C354.4 44.6984 354.178 45.3172 353.998 45.9492C353.875 46.6472 353.805 47.3537 353.791 48.0623C353.832 48.8037 353.693 49.544 353.384 50.2195L353.118 47.5719L352.836 47.5595C352.763 48.0258 352.715 48.4956 352.69 48.9669C352.675 51.3484 352.787 53.7355 352.652 56.1096C352.456 58.1225 352.958 60.1415 354.073 61.8285C354.516 61.4042 354.936 60.7618 355.442 61.7873C355.994 62.9083 356.878 62.8235 358.021 62.3099C358.212 63.5286 358.297 64.9654 360.316 64.5061V61.4551L360.72 61.3748C361.04 62.4156 361.359 63.4563 361.688 64.5281C362.592 63.9241 363.329 63.2817 363.183 62.011C363.142 61.6551 363.558 61.2652 363.692 60.8669C364.273 59.1357 364.263 59.1318 365.701 59.0905C365.975 59.0826 366.251 59.0905 366.525 59.0905H367.28C367.977 58.3933 368.604 57.7238 369.277 57.1029C370.707 55.7802 371.163 54.0304 371.391 52.2111C371.504 51.3071 371.31 50.3669 371.438 49.4697C371.579 48.4804 371.069 47.7482 370.62 47.0521C369.721 45.6605 369.232 45.6204 367.401 46.4684Z" fill="#171C22"/>
<path d="M206.79 68.2667C207.965 69.0639 209.096 69.8634 210.274 70.5832C210.387 70.6527 210.799 70.238 211.241 69.9289C211.455 70.3781 211.703 70.8108 211.982 71.2233C212.346 71.6351 212.731 72.0279 213.136 72.4002C213.911 73.1991 214.661 74.0885 215.805 72.8754C215.892 72.7833 216.159 72.8754 216.34 72.8556C217.628 72.7161 218.855 73.037 220.15 72.0008C221.193 71.1663 222.523 70.5883 223.502 69.5651C224.482 68.6626 225.327 67.6245 226.013 66.4824C226.998 64.6089 227.968 62.7568 227.618 60.5578C227.421 59.9289 227.15 59.3259 226.809 58.7617L225.101 60.1623C224.652 58.6753 224.745 56.9464 223.365 55.6361L221.652 56.9159V54.909C219.844 54.5994 218.198 53.9779 216.384 54.0869C215.423 54.1047 214.501 54.4677 213.785 55.1096C212.938 55.9198 211.902 56.4994 211.212 57.539C210.59 58.4781 209.734 59.2634 209.079 60.2313C208.006 61.8212 207.64 63.6812 206.853 65.3728C206.477 66.179 206.79 67.3062 206.79 68.2667Z" fill="#171C22"/>
<path d="M323.429 120.919V126.828C322.881 125.335 322.977 123.826 322.929 122.325C322.911 121.721 323.196 120.969 322.465 120.609C321.723 120.202 320.922 119.911 320.092 119.746C319.809 119.705 319.277 120.368 319.117 120.805C319.017 121.344 319.004 121.896 319.078 122.44C318.622 122.249 318.35 122.029 318.106 122.056C317.603 122.113 316.912 122.578 316.656 122.389C315.224 121.337 313.656 122.028 312.176 121.946C311.792 121.944 311.413 122.029 311.066 122.194C310.719 122.359 310.414 122.6 310.173 122.899C309.382 124.237 307.796 124.646 306.962 126.22C306.97 127.089 306.682 127.935 306.147 128.619C305.232 129.791 304.452 131.247 304.734 132.964C304.809 133.831 304.816 134.703 304.757 135.571C306.634 136.685 308.588 137.767 310.46 138.976C312.418 140.24 314.202 139.39 315.869 138.517C317.085 137.879 318.719 137.58 319.13 135.88C321.851 134.656 322.334 131.789 323.786 129.622C324.763 128.166 324.733 126.471 325.01 124.933C325.236 123.66 324.339 122.184 323.937 120.798L323.429 120.919Z" fill="#171C22"/>
<path d="M270.138 150.72L273.91 146.948C273.965 145.926 273.948 144.901 273.861 143.881C273.807 143.485 273.24 143.09 272.815 142.857C272.655 142.769 272.242 143.14 271.941 143.309C271.541 142.518 271.307 141.445 269.955 141.707C269.695 141.78 269.417 141.753 269.176 141.633C268.501 141.088 267.768 140.531 266.907 140.771C265.362 141.201 263.642 141.452 262.438 142.518C260.058 144.625 257.796 146.915 256.612 149.959C255.871 151.766 255.307 153.64 254.927 155.556C254.832 156.048 254.878 156.558 255.06 157.026C255.241 157.494 255.551 157.901 255.954 158.2C257.519 159.296 259.025 160.479 260.623 161.521C261.2 161.9 261.88 162.09 262.57 162.066C266.573 161.719 269.425 159.836 270.607 155.316C270.779 154.657 271.193 153.972 271.104 153.356C270.879 152.445 270.555 151.561 270.138 150.72Z" fill="#171C22"/>
<path d="M263.272 250.223L263.599 248.567C263.606 250.758 265.919 251.578 266.424 253.441C266.476 253.593 266.561 253.732 266.673 253.847C266.785 253.962 266.921 254.052 267.071 254.108C267.222 254.165 267.383 254.188 267.543 254.175C267.703 254.163 267.859 254.115 267.998 254.035C268.663 253.433 269.117 253.872 269.492 254.116C269.909 254.419 270.411 254.581 270.927 254.58C271.442 254.579 271.944 254.413 272.359 254.108C275.297 252.389 278.331 250.81 280.065 247.659C282.155 246.529 282.764 244.234 284.062 242.489C284.693 241.641 284.894 240.471 285.334 239.333C284.567 238.215 283.452 238.511 282.104 239.183C282.234 238.548 282.198 237.963 282.466 237.601C282.833 237.106 282.44 236.91 282.231 236.823C281.281 236.427 280.3 236.135 279.519 235.385C279.328 235.202 278.788 235.274 278.452 235.376C277.853 235.557 277.34 235.941 276.674 235.399C276.486 235.246 275.872 235.551 275.488 235.72C272.172 237.177 269.172 239.002 267.209 242.234C266.826 242.721 266.388 243.162 265.903 243.548C264.625 244.734 264.386 246.464 263.397 247.743C262.738 248.596 262.882 249.344 263.272 250.223Z" fill="#171C22"/>
<path d="M96.0946 121.814L95.8687 120.238C95.6675 120.382 95.4901 120.441 95.4443 120.553C94.7381 122.28 93.8584 123.935 93.4437 125.781C93.1827 126.944 92.8505 128.056 93.9748 128.961C94.7398 129.576 93.9635 131.346 95.685 131.247C96.4969 132.551 97.7976 132.421 99.0428 132.331C99.26 133.176 99.5345 134.005 99.8643 134.812C100.277 135.667 101.597 135.908 103.012 135.505C103.335 135.412 103.648 135.099 103.944 135.125C106.235 135.324 106.231 135.341 107.196 133.534C107.725 132.659 108.205 131.755 108.633 130.827C108.827 130.289 109.136 129.799 109.537 129.39C109.938 128.981 110.422 128.664 110.956 128.459C111.779 128.113 112.5 127.563 113.051 126.86C113.601 126.158 113.963 125.326 114.101 124.444C114.371 122.833 113.616 121.354 112.177 120.192C111.464 121.123 110.754 122.052 109.757 123.352C109.757 122.021 109.772 121.126 109.753 120.231C109.734 119.336 109.64 119.523 108.227 118.888C107.223 118.436 105.765 118.985 105.186 117.589C104.193 117.551 103.2 117.514 102.206 117.476C100.371 117.404 98.7434 117.604 97.888 119.643C97.5512 120.453 96.7376 121.063 96.0946 121.814Z" fill="#171C22"/>
<path d="M367.621 135.198C368.44 135.058 369.19 134.653 369.756 134.045C370.323 133.437 370.674 132.66 370.755 131.833C371.009 130.1 371.595 128.403 371.455 126.571C371.279 124.193 371.282 121.805 371.464 119.427C371.55 118.276 370.812 117.425 370.829 116.35C370.833 116.067 370.444 115.529 370.26 115.54C368.843 115.621 368.17 114.085 366.682 114.076C365.698 114.071 364.719 113.147 363.613 112.571C362.524 113.659 360.208 112.313 359.326 114.714C359.904 116.4 358.464 117.881 357.977 119.61C357.909 119.851 357.656 120.066 357.654 120.295C357.631 123.015 357.639 125.736 357.639 128.692L358.745 127.712C358.597 128.351 358.625 128.842 358.406 129.007C358.173 129.185 357.684 128.987 357.355 129.097C357.205 129.147 357.126 129.542 357.109 129.786C357.101 129.899 357.344 130.145 357.433 130.125C358.1 129.995 358.757 129.813 359.477 129.632C359.969 130.697 360.494 131.833 360.886 132.683L362.533 132.56C361.747 133.351 362.649 133.637 362.976 134.123C363.282 134.622 363.562 135.136 363.815 135.663C365.548 135.475 366.194 134.358 366.657 132.878L367.621 135.198Z" fill="#171C22"/>
<path d="M164.885 261.852C166.311 261.812 167.658 261.427 168.347 263.006C169.51 261.474 169.647 260.386 168.463 259.168C167.646 258.327 167.107 257.278 166.064 256.552C165.151 255.916 164.816 254.509 164.03 253.614C163.426 252.926 162.519 252.502 161.747 251.96L160.833 252.856L162.127 253.775L161.984 254.105L160.022 253.796C159.835 254.079 159.617 254.8 159.149 255.044C156.34 256.506 154.548 258.947 152.842 261.453C152.281 262.275 152.088 263.339 151.638 264.248C150.526 266.497 150.239 266.912 150.577 268.956C150.821 270.433 151.092 272.007 152.252 273.213C152.762 273.679 153.103 274.301 153.223 274.982C153.284 276.516 154.127 276.762 155.367 276.682C155.721 276.664 156.076 276.702 156.417 276.795C158.581 277.377 158.804 277.317 159.883 275.659C161.48 273.203 162.244 270.397 163.173 267.668C163.83 265.739 164.33 263.757 164.885 261.852Z" fill="#171C22"/>
<path d="M199.908 231.636C201.437 230.767 202.987 230.008 204.234 228.75C206.558 226.403 209.053 224.204 211.196 221.704C213.45 219.075 215.837 216.484 217.197 213.402C217.053 212.185 215.468 213.477 215.437 212.042C215.429 211.632 214.424 211.236 213.866 210.847C212.482 209.882 211.711 209.717 210.702 210.791C209.77 211.722 208.56 212.324 207.256 212.506C205.244 212.932 203.857 214.476 202.136 215.425C200.295 216.442 198.983 218.081 197.487 219.499C196.713 220.233 195.751 220.798 195.085 221.613C194.377 222.426 193.858 223.386 193.563 224.423C193.419 225.037 193.88 225.962 194.349 226.507C194.927 227.181 195.201 228.154 196.213 228.48C196.799 228.668 196.716 229.323 196.83 229.861C196.961 230.483 197.134 231.234 198.208 230.457C198.961 229.915 199.594 230.686 199.908 231.636Z" fill="#171C22"/>
<path d="M89.0282 215.707C92.1668 214.415 93.516 212.011 94.8573 209.675C96.0498 207.622 97.0954 205.487 97.9863 203.286C98.8609 201.09 100.385 199.01 99.705 196.247C97.7196 197.63 97.8835 200.275 95.976 202.043C96.3252 199.246 97.7761 197.085 98.5004 194.137L96.6924 195.13C96.6066 194.65 96.5167 194.147 96.4275 193.646L93.8109 193.149C93.555 193.559 93.2183 194.166 92.8182 194.727C91.2588 196.912 91.2498 196.901 88.4186 197.908C88.1022 198.034 87.8006 198.194 87.5191 198.386C85.3263 199.772 83.3296 201.333 82.1228 203.742C81.5578 204.823 81.2087 206.003 81.0951 207.217C81.0592 207.472 80.94 207.708 80.7561 207.888C80.6689 207.963 80.6027 208.06 80.5642 208.169C80.5257 208.277 80.5162 208.394 80.5365 208.508C80.5568 208.621 80.6062 208.728 80.68 208.816C80.7537 208.905 80.8492 208.973 80.9572 209.013C82.1945 209.712 82.7302 211.085 83.8285 211.907C84.0286 212.08 84.1891 212.294 84.2992 212.535C84.4094 212.776 84.4666 213.037 84.467 213.302C84.5834 214.09 86.1286 215.11 86.8479 214.945C87.2925 214.842 87.5824 214.024 88.1881 214.628C88.4911 214.969 88.7717 215.329 89.0282 215.707V215.707Z" fill="#171C22"/>
<path d="M178.218 151.523L179.898 151.801L179.22 153.065L183.293 157.139C183.547 157.117 183.803 157.119 184.057 157.145C187.146 157.717 189.203 155.963 190.919 153.849C192.279 152.185 193.419 150.352 194.309 148.396C194.869 147.156 195.369 146.015 194.969 144.332C194.031 146.392 193.197 148.226 192.362 150.06L191.915 149.917C191.951 149.562 192.022 149.211 192.128 148.871C192.686 147.544 193.322 146.247 193.848 144.908C194.081 144.316 194.582 143.578 193.308 143.303C192.912 143.218 192.686 142.37 192.385 141.868C192.122 141.428 191.867 140.983 191.659 140.625C190.372 140.507 190.359 141.633 189.556 142.094L190.178 139.744L188.665 138.544C188.318 138.889 187.857 139.439 187.429 138.425C186.966 137.328 186.282 136.899 185.169 137.621C185.068 137.687 184.859 137.734 184.792 137.682C183.507 136.624 182.75 137.679 182.155 138.489C180.735 140.425 180.065 142.749 179.217 144.96C179.018 145.48 178.582 146.699 180.047 146.757C180.129 146.76 180.193 147.216 180.265 147.46C179.96 147.534 179.491 147.77 179.376 147.654C179.295 147.532 179.175 147.441 179.036 147.395C178.897 147.35 178.747 147.353 178.609 147.404C178.472 147.455 178.356 147.551 178.281 147.676C178.205 147.802 178.174 147.949 178.193 148.094C178.687 149.259 177.543 150.38 178.218 151.523Z" fill="#171C22"/>
<path d="M188.191 92.7521L187.052 93.8911C186.962 93.112 186.887 92.469 186.806 91.7684C185.673 91.5311 184.504 91.2317 183.317 91.0565C182.591 90.9508 181.853 90.9532 181.128 91.0639C180.582 91.1481 181.011 92.1645 179.994 92.2538C179.337 92.3103 178.832 93.4284 178.364 94.2053C177.983 94.8375 178.552 96.2031 177.11 96.1212C177.06 97.015 177.01 97.9092 176.96 98.8038C176.955 98.8902 176.936 98.9761 176.923 99.0626L172.83 103.155C172.381 103.124 171.932 103.129 171.484 103.169C170.801 103.278 170.064 103.955 170.415 104.376C171.194 105.31 169.794 105.958 170.351 106.718C172.482 107.357 173.153 107.427 174.885 107.124C174.452 108.062 174.074 108.881 173.599 109.908C173.876 110.174 174.24 110.821 174.6 110.819C176.869 110.802 179.258 111.377 181.28 109.766C181.873 109.39 182.422 108.949 182.919 108.453C183.891 107.235 184.762 105.935 185.649 104.651C186.087 104.017 186.46 103.339 186.881 102.693C187.531 101.691 187.338 100.25 188.531 99.5332C188.351 98.3202 189.035 97.4015 189.472 96.3551C189.633 96.0359 189.728 95.6874 189.751 95.3306C189.773 94.9737 189.723 94.616 189.603 94.2791C189.483 93.9423 189.296 93.6332 189.054 93.3707C188.811 93.1082 188.517 92.8978 188.191 92.7521V92.7521Z" fill="#171C22"/>
<path d="M273.19 51.9269C272.116 51.9269 271.382 51.9269 270.647 51.9269C269.664 51.9269 268.602 51.7636 268.376 53.1834C268.322 53.2888 268.241 53.3785 268.142 53.4439C268.043 53.5094 267.929 53.5485 267.811 53.5575C266.647 53.3852 266.342 54.4846 265.633 54.97C263.701 56.2836 263.417 58.4447 262.933 60.4448C262.658 61.5844 263.027 62.4026 264.324 63.1794C265.781 64.0518 267.601 64.5919 268.603 66.1739C269.485 66.1909 270.208 67.5712 271.239 66.4666C271.447 66.3106 271.706 66.2363 271.965 66.2575C275.441 66.3242 277.615 64.3286 279.433 61.6681C280.355 60.3183 281.51 59.112 281.871 57.4515C282.014 56.7666 282.109 56.0723 282.153 55.374C282.169 55.148 282.035 54.7525 281.876 54.696C280.477 54.1959 279.46 53.0038 278.104 52.5184C276.533 51.9474 274.852 51.745 273.19 51.9269V51.9269Z" fill="#171C22"/>
<path d="M277.605 185.521C277.203 186.155 276.906 186.621 276.331 187.526C276.202 186.566 276.152 186.24 276.115 185.91C275.994 184.819 275.996 184.82 274.617 184.68C274.444 184.662 274.178 184.685 274.117 184.588C273.864 184.148 273.465 183.81 272.99 183.632C272.514 183.455 271.992 183.449 271.512 183.616C270.356 183.9 269.266 184.41 268.307 185.117C264.895 187.992 262.888 191.847 261.329 195.937C261.063 196.635 261.291 197.519 261.291 198.307L262.342 198.191C262.274 199.178 262.497 199.909 263.652 200.144C263.859 200.219 264.046 200.343 264.195 200.506C264.344 200.669 264.45 200.866 264.506 201.08C264.622 202.269 265.844 201.69 266.27 202.308C266.951 201.225 268.122 202.534 268.888 201.763C269.622 201.021 270.625 200.449 271.11 199.579C272.228 197.682 273.138 195.67 273.824 193.577C273.929 193.112 274.126 192.672 274.404 192.284C274.681 191.895 275.034 191.567 275.441 191.317C276.761 190.599 277.82 189.481 278.466 188.124C279.011 186.94 279.034 186.951 277.605 185.521Z" fill="#171C22"/>
<path d="M225.986 153.488C226.022 153.157 226.015 152.822 225.964 152.493C225.907 152.267 225.512 152.109 225.479 151.889C225.442 151.651 225.722 151.376 225.725 151.115C225.725 150.884 225.402 150.6 225.466 150.429C225.607 150.104 225.828 149.821 226.11 149.606C226.374 149.477 226.658 149.394 226.949 149.36C226.777 149.957 226.638 150.438 226.497 150.919C227.469 150.326 228.55 149.854 228.074 148.424L226.788 148.977C226.631 147.257 228.224 148.153 228.839 147.338C227.94 147.445 227.341 146.825 226.437 146.946C226.018 147.002 225.472 146.111 224.83 145.503L221.77 148C221.657 147.302 221.574 146.806 221.475 146.201L217.427 145.419C216.723 146.319 216.173 147.138 215.502 147.844C214.921 148.454 214.121 148.861 213.56 149.486C211.978 151.25 211.261 153.48 210.611 155.685C210.378 156.473 210.122 157.719 211.628 157.932C211.622 159.38 213.149 159.597 213.838 160.515C214.701 161.664 216.228 161.862 217.876 161.197C220.344 160.2 221.966 158.273 223.542 156.394C224.334 155.456 225.22 154.569 225.986 153.488Z" fill="#171C22"/>
<path d="M180.598 189.205L179.234 189.67C179.133 187.353 181.528 186.704 181.861 184.57C181.454 184.704 181.063 184.883 180.695 185.103C180.2 185.542 179.727 186.007 179.279 186.495C179.334 185.66 179.684 184.872 180.266 184.271C178.818 182.52 178.818 182.52 177.108 182.515C176.168 183.574 175.366 184.969 174.161 185.705C172.831 186.517 172.439 187.905 171.458 188.9C170.562 189.94 169.827 191.108 169.277 192.366C168.89 193.038 168.709 193.81 168.758 194.584C168.899 195.47 169.276 196.771 169.902 197.023C170.933 197.438 170.702 198.166 171.027 198.792C171.471 199.648 172.079 200.48 173.195 200.664C173.845 200.771 174.621 201.268 175.098 201.053C176.297 200.564 177.39 199.848 178.319 198.945C179.923 197.19 181.412 195.334 182.778 193.388C183.126 192.905 182.966 192.057 183.069 191.102L182.033 191.937C182.237 190.533 181.01 190.051 180.598 189.205Z" fill="#171C22"/>
<path d="M195.078 290.216L196.547 289.41C197.169 291.646 197.319 291.763 199.146 290.957L197.855 293.957L199.315 294.805L202.103 292.016C202.699 293.358 201.059 293.978 201.221 295.274C202.69 295.479 203.546 294.478 204.393 293.557C204.855 293.054 205.106 292.352 205.583 291.868C207.69 289.704 209.633 287.387 211.396 284.935C211.571 284.723 211.765 284.527 211.974 284.35C213.048 283.327 214.171 282.338 214.25 280.671C213.18 280.015 212.612 281.026 211.883 281.65C211.142 280.425 212.855 280.261 212.779 279.359C212.713 278.27 210.642 279.659 211.168 277.879H208.186C207.332 278.481 206.467 279.075 205.619 279.692C204.77 280.309 204.206 281.201 203.163 281.706C202.151 282.195 201.48 283.353 200.589 284.139C200.008 284.65 199.64 285.353 198.712 285.583C198.04 285.753 197.682 286.77 196.662 286.637C196.379 286.6 195.866 287.113 195.722 287.477C195.445 288.374 195.23 289.289 195.078 290.216V290.216Z" fill="#171C22"/>
<path d="M214.002 106.013C213.055 106.076 212.4 105.585 211.534 106.211L212.642 106.592C212.317 107.696 211.955 108.796 211.69 109.912C211.621 110.199 211.772 110.765 211.972 110.85C213.078 111.316 213.411 112.504 214.272 113.156C214.71 113.423 215.208 113.574 215.721 113.595C215.97 113.623 216.264 113.245 216.512 113.272C216.84 113.375 217.147 113.538 217.416 113.752C217.888 112.082 217.865 112.014 219.725 111.379C220.839 111 221.07 109.904 221.86 109.216C222.036 109.593 222.208 109.956 222.399 110.365C222.676 110.073 223.144 109.809 223.143 109.547C223.128 106.266 223.131 106.191 224.629 104.226C225.477 105.709 223.856 106.567 223.768 108.018C224.169 107.956 224.768 108.003 224.838 107.831C225.542 106.121 226.614 104.506 225.516 102.453C225.174 101.815 225.113 101.481 224.347 101.469C223.839 101.409 223.356 101.219 222.944 100.917C221.853 100.227 220.802 99.4756 219.636 98.6818L219.184 99.3598C218.263 100 217.303 98.2744 217.15 100.074C217.106 100.586 215.963 99.3671 215.963 100.704C215.963 101.222 215.012 101.74 214.535 102.217C214.705 102.66 214.868 103.082 215.029 103.503C214.894 103.598 214.759 103.692 214.623 103.786C214.384 103.331 214.143 102.875 213.842 102.302C213.35 103.139 213.064 103.623 212.69 104.258C213.094 104.8 213.548 105.406 214.002 106.013Z" fill="#171C22"/>
<path d="M306.578 188.278L308.273 186.141L308.973 187.57C309.944 187.07 310.764 186.32 311.351 185.399C312.694 183.507 313.73 181.42 315.089 179.526C315.925 178.361 315.975 176.898 315.645 175.384C314.39 175.129 314.119 176.604 313.072 176.977V174.295L307.441 173.504C305.739 175.008 304.406 176.883 303.546 178.985C303.058 180.155 302.051 181.034 301.745 182.375C301.624 182.904 302.302 183.618 301.468 184.01C301.541 184.23 301.627 184.446 301.724 184.657C303.087 184.166 303.545 186.143 304.857 185.826C304.942 185.805 305.175 186.312 305.305 186.589C305.415 186.908 305.544 187.221 305.691 187.525C305.957 187.809 306.255 188.061 306.578 188.278Z" fill="#171C22"/>
<path d="M245.576 221.588L244.486 224.108L243.977 222.768C243.854 222.843 243.652 222.896 243.626 222.994C243.387 223.922 242.912 224.772 242.247 225.462C241.852 225.919 241.523 226.428 241.267 226.976C241.058 227.44 240.738 227.846 240.335 228.157C239.932 228.469 239.458 228.676 238.956 228.761C238.78 228.403 238.598 228.033 238.514 227.862L237.003 228.992C237.003 229.335 236.967 229.483 237.008 229.51C237.507 229.834 238.017 230.14 238.483 230.425C238.348 231.177 238.226 231.859 238.044 232.879L239.971 231.942C240.331 232.667 240.693 233.395 241.082 234.179L242.414 234.331V235.555C243.798 236.592 244.93 236.452 246.13 235.358C247.437 234.167 248.91 233.159 250.243 231.742L248.548 230.622C248.869 229.494 249.425 228.447 250.18 227.55C250.966 226.58 251.395 225.321 251.96 224.229C251.153 223.234 250.515 223.971 249.775 224.281C249.744 224.003 249.615 223.707 249.703 223.508C250.255 222.265 250.017 221.652 248.846 221.597C247.747 221.548 246.644 221.588 245.576 221.588Z" fill="#171C22"/>
<path d="M323.962 232.478L322.653 234.415C322.531 234.034 322.362 233.789 322.401 233.584C322.589 232.59 322.833 231.607 323.087 230.483H321.485C321.347 230.772 321.178 231.123 320.841 231.822V229.571C320.575 229.511 320.318 229.416 320.076 229.289C319.649 228.971 318.972 228.248 318.902 228.305C318.202 228.882 317.337 228.531 316.658 228.793C315.647 229.182 314.686 229.858 314.699 231.149C314.702 231.535 315.214 231.964 315.137 232.288C315.074 232.552 314.368 232.611 314.156 232.91C314.068 233.069 314.022 233.247 314.02 233.428C314.019 233.609 314.063 233.788 314.148 233.948C314.861 234.517 314.704 235.255 314.656 235.946C314.593 236.301 314.67 236.668 314.872 236.967C315.074 237.267 315.384 237.476 315.738 237.55C316.556 237.782 316.747 238.306 316.919 239.088C316.996 239.623 317.276 240.108 317.702 240.441C318.127 240.774 318.665 240.93 319.203 240.875C319.649 240.847 320.098 240.876 320.537 240.961C321.631 241.201 323.01 240.938 323.352 240.134C324.185 238.176 325.39 236.324 325.166 234.018C325.079 233.119 324.536 232.864 323.962 232.478Z" fill="#171C22"/>
<path d="M235.639 182.929L233.361 183.596C232.988 182.709 232.878 181.857 233.664 181.064C232.699 180.186 232.057 181.51 231.11 181.366L230.837 179.892C230.096 179.101 229.424 180.563 228.532 179.872C227.615 179.165 227.384 180.69 226.606 180.866C226.134 181.054 225.73 181.381 225.447 181.803C224.413 183.072 224.252 184.866 222.859 185.973C222.525 186.239 222.704 187.148 222.629 187.957C224.173 187.199 224.267 189.648 225.754 189.068C226.211 189.808 225.78 191.151 227.453 191.311L228.301 189.865C228.635 190.566 228.797 190.905 228.965 191.255C229.902 191.476 230.331 190.669 230.639 190.155C231.627 188.483 233.025 187.091 234.7 186.109C235.756 185.479 236.334 184.453 235.639 182.929Z" fill="#171C22"/>
<path d="M249.04 109.756L252.535 112.495H254.848C255.749 111.193 256.042 109.479 257.37 108.404C257.509 106.59 258.764 105.466 259.853 104.201C260.2 103.799 260.125 103.033 260.272 102.284C259.877 102.171 259.481 102.181 259.275 101.988C257.161 100.011 255.17 101.123 253.485 102.471C252.05 103.68 250.811 105.104 249.812 106.692C249.237 107.57 249.252 108.837 249.04 109.756Z" fill="#171C22"/>
</svg>
