<svg width="512" height="512" viewBox="0 0 512 512" fill="none" xmlns="http://www.w3.org/2000/svg">
<path d="M150.166 480.985C148.834 480.211 146.572 481.346 146.681 479.367C146.69 479.207 144.707 479.158 143.898 478.771C141.376 477.522 138.663 476.499 135.816 475.722C134.857 475.383 134.028 474.873 133.403 474.236C130.402 471.625 127.314 469.094 123.133 467.49C122.549 467.265 123.765 465.276 121.557 466.631C121.262 466.812 120.203 466.17 119.469 466.127C118.52 466.086 117.592 465.899 116.744 465.58C115.897 465.26 115.147 464.814 114.544 464.269C113.939 463.669 113.477 462.997 113.18 462.282C112.556 460.604 111.809 458.953 110.944 457.335C107.867 452.625 105.933 447.602 103.408 442.743C102.505 441.001 101.897 439.184 101.06 437.423C100.222 435.661 99.0371 433.988 98.45 432.199C97.4807 429.559 96.2454 426.976 94.7547 424.472C93.4212 422.064 92.5509 419.515 91.4392 417.038C89.1636 411.967 87.1999 406.8 84.4389 401.88C82.9084 399.153 83.0949 396.36 82.2403 393.639C82.1894 393.475 82.4217 393.263 82.5208 393.073C79.5772 393.241 80.5636 391.195 80.0338 390.282C77.9331 386.637 76.4652 382.799 74.5341 379.092C73.9586 377.989 74.0056 377.975 75.1512 376.337C74.427 376.047 73.1157 375.805 73.0714 375.466C72.6199 372.046 69.3487 369.169 69.671 365.6C69.7088 365.187 69.0264 364.745 68.7054 364.305C68.3062 363.759 67.5533 363.177 67.612 362.651C68.0322 358.901 64.8119 355.961 63.6649 352.565C62.9747 350.524 62.8821 348.361 61.1454 346.48C60.5451 345.832 61.2288 344.532 61.388 342.901C58.9806 341.527 57.638 339.051 57.775 336.13C57.7867 335.862 57.9211 335.523 57.7554 335.336C54.0328 331.166 54.8131 325.84 51.3619 321.586C51.1009 321.26 51.8525 320.481 52.1787 319.821C49.4542 318.383 48.6256 316.109 47.9237 313.647C47.0348 310.859 45.9287 308.111 44.6107 305.417C42.8619 301.765 41.4439 298.031 40.3662 294.239C40.0491 293.026 39.3223 291.874 38.8931 290.674C38.5277 289.659 38.9635 288.437 37.9444 287.617C36.1033 286.134 38.2994 283.896 36.0525 282.551C36.3617 280.293 34.1331 278.493 33.9413 276.372C33.7416 274.178 32.2307 272.181 32.0206 270.151C31.6722 266.794 30.1077 263.678 29.3288 260.429C28.6333 257.522 28.5354 254.388 26.4582 251.686C26.1267 246.584 22.8125 241.998 21.8483 236.984C21.3968 234.642 20.1964 232.381 19.5466 230.027C19.1214 228.805 18.8307 227.56 18.6775 226.303C18.6554 225.901 18.9072 225.345 18.6371 225.12C16.3237 223.185 16.3811 220.864 16.4776 218.525C14.7266 217.674 15.6948 216.343 15.3999 215.23C14.9273 214.159 14.5862 213.059 14.3808 211.942C14.3377 205.734 12.9286 199.597 13.0982 193.356C13.2391 188.119 11.3236 182.841 12.2579 177.601C13.3109 171.701 13.0995 165.631 16.4411 159.989C17.8804 157.312 19.7208 154.763 21.9279 152.39C24.1736 150.198 26.658 148.146 29.3562 146.255C32.1422 144.168 35.7829 142.825 39.7086 142.435C41.3687 142.228 42.9895 141.874 44.5364 141.382C47.1167 140.738 49.7627 140.249 52.4488 139.92C55.9033 139.497 59.3954 139.264 62.8964 139.224C66.9857 139.013 70.5687 140.529 74.4753 140.925C74.9594 140.975 75.2791 141.922 75.4356 142.132C76.5278 142.075 77.5521 141.794 78.2684 142.029C79.9398 142.631 81.5529 143.319 83.0962 144.086C84.445 144.628 85.7178 145.267 86.8959 145.996C88.1106 146.847 88.8792 148.059 90.1279 148.871C91.2383 149.594 93.0259 149.786 94.0045 150.565C95.6003 151.836 95.8991 153.787 97.8993 154.962C98.6392 155.396 98.7853 156.368 99.5056 156.842C101.511 158.164 102.347 160.028 103.838 161.533C105.193 162.902 104.645 164.768 106.937 165.927C108.736 166.837 109.546 168.773 110.944 170.183C112.561 171.537 114.074 172.957 115.474 174.439C118.345 178.189 122.812 181.136 125.13 185.151C125.39 185.607 125.796 186.274 126.292 186.363C129.831 187 130.307 189.799 132.714 191.206C132.427 192.472 133.561 192.383 134.695 192.413C134.937 192.42 135.175 192.467 135.389 192.551C135.604 192.634 135.791 192.753 135.936 192.897C137.259 195.162 139.943 196.31 142.46 197.715C144.351 198.774 145.542 200.499 147.157 201.854C148.409 203.003 149.834 204.042 151.406 204.949C152.931 205.747 152.807 207.658 155.135 207.792C154.638 209.952 158.042 210.01 158.739 211.446C159.505 213.024 162.131 213.138 162.875 214.954C163.431 216.313 165.754 217.275 167.289 218.413L172.306 222.137L173.431 221.394C173.413 222.049 175.819 221.831 174.495 223.11C174.157 223.437 174.585 224.576 175.147 224.966C177.235 226.428 178.529 228.534 181.201 229.467C183.101 230.133 183.324 231.446 184.32 232.466C186.173 234.367 188.853 235.83 191.216 237.454C191.435 237.604 192.104 237.551 192.14 237.67C193.511 242.074 199.867 243.102 202.852 246.392C204.277 247.963 205.61 249.584 207.018 251.216C208.181 250.002 209.316 250.164 210.459 251.099C210.621 250.852 210.928 250.615 210.888 250.407C210.571 248.77 210.84 246.792 209.671 245.59C208.04 243.914 209.323 242.089 208.057 240.398C206.883 238.826 206.992 236.713 206.576 234.834C206.396 233.051 206.007 231.283 205.413 229.551C203.421 225.386 203.51 220.888 201.26 216.743C200.197 214.783 200.468 212.434 200.034 210.272C199.978 209.012 199.578 207.773 198.859 206.63C197.87 205.509 198.481 204.16 197.74 203.36C196.799 202.344 197.021 201.404 196.76 200.407C196.081 197.814 195.408 195.209 194.424 192.669C192.735 188.317 190.786 184.012 190.276 179.457L188.572 176.219C186.505 174.595 187.29 172.357 186.391 170.454C185.6 168.781 183.817 167.033 185.322 165.029C185.405 164.899 185.45 164.757 185.455 164.613C185.46 164.469 185.424 164.326 185.349 164.192C182.661 160.129 180.855 155.776 180 151.295C179.977 151.112 180.302 150.797 180.223 150.744C177.47 148.918 179.208 146.004 177.241 144.001C177.657 139.819 174.565 135.983 175.036 131.787C174.978 131.288 174.79 130.803 174.483 130.358C173.506 128.301 172.479 126.261 172.879 124.001C173.025 122.846 172.676 121.686 171.882 120.686C171.199 119.698 172.132 118.499 171.148 117.279C169.843 115.667 170.576 113.596 169.843 111.678C168.385 107.891 168.088 103.857 167.347 99.9234C166.664 96.561 165.746 93.2271 164.595 89.9356C163.898 87.854 163.909 85.6419 163.152 83.5294C162.369 81.3444 162.402 79.0192 161.081 76.9164C160.936 76.5371 160.892 76.1406 160.951 75.7489C161.027 73.9433 160.704 72.1407 159.994 70.4126C159.226 68.7827 160.46 66.7641 158.775 65.1459C158.775 61.3891 158.802 57.6323 158.768 53.8755C158.689 51.0508 159.28 48.2378 160.515 45.5648C161.711 43.0161 162.167 40.1859 163.054 37.4873C164.253 33.4687 165.94 29.5389 168.094 25.7458C169.017 24.2137 169.125 22.523 170.032 21.1117C172.511 17.2572 175.998 14.0508 181.97 12.8137C184.104 12.2823 186.341 12.0121 188.593 12.0138C191.847 12.1476 195.108 12.146 198.361 12.0089C202.507 11.9161 206.625 12.5473 210.382 13.8515C219.593 16.761 228.318 20.4289 233.869 27.0487C236.678 27.3573 236.279 29.5065 237.618 30.6672C238.956 31.8279 240.103 33.1134 241.314 34.3544C242.267 35.3313 241.878 36.3237 241.246 37.3722C243.094 37.8558 244.019 38.9053 245.145 40.0563C246.937 41.8854 246.271 44.1778 248.29 46.0165C249.968 47.5438 250.239 49.9407 251.913 51.6962C250.401 53.4305 254.414 54.1772 253.264 55.8467C255.482 56.9871 253.163 59.2969 254.829 60.1181C256.377 61.0142 257.657 62.1394 258.586 63.4222C260.329 65.3509 260.316 68.0186 262.965 69.6591C262.16 70.1021 261.839 70.4967 262.774 71.1506C262.919 71.2473 261.78 72.1768 262.973 72.8104C265.078 73.9745 266.575 75.6425 267.211 77.5315C267.901 79.3267 269.494 80.8047 269.775 82.833C269.947 84.0672 269.943 85.8315 271.159 86.7398C272.54 87.7718 272.532 89.0486 273.341 90.1416C274.238 91.3555 275.298 92.5307 275.049 94.0677C275.092 94.3185 275.205 94.5598 275.381 94.7764C275.557 94.9929 275.793 95.1798 276.072 95.3251C276.485 95.574 276.805 95.898 277 96.2656C277.195 96.6332 277.258 97.032 277.183 97.423C277.16 98.5015 276.488 99.876 279.04 100.074C279.254 100.091 279.145 101.306 279.463 101.878C280.996 104.633 282.915 107.276 283.681 110.244C283.712 110.494 283.842 110.731 284.056 110.926C286.313 112.391 286.526 114.422 287.318 116.391C287.785 117.559 287.601 119.247 289.759 120.101C291.145 120.65 289.686 121.388 289.169 121.981C292.255 123.01 290.243 126.057 292.973 127.284C293.375 127.466 293.321 128.221 293.449 128.716C293.577 129.21 293.428 129.973 293.82 130.18C295.146 130.875 294.922 131.802 295.179 132.769C295.405 133.613 297.528 134.539 297.295 135.018C296.697 136.234 298.077 136.725 298.261 137.577C298.475 138.585 298.678 139.596 298.884 140.606C298.935 140.859 298.856 141.199 299.05 141.353C301.774 143.54 301.368 146.907 304.839 148.944L301.119 150.737C301.358 150.982 301.474 151.229 301.697 151.308C302.907 151.73 304.201 152.038 305.344 152.539C305.866 152.769 306.567 153.567 306.417 153.74C304.69 155.726 306.886 155.947 308.699 156.449V159.967C310.687 160.096 311.601 161.089 310.734 162.054C310.469 162.275 310.284 162.541 310.194 162.829C310.104 163.116 310.113 163.416 310.219 163.701C310.326 163.985 310.528 164.246 310.805 164.457C311.083 164.669 311.428 164.826 311.808 164.914C312.57 165.078 313.224 165.442 313.65 165.939C314.076 166.435 314.243 167.029 314.12 167.61C314.108 168.086 314.251 168.797 314.684 169.008C317.005 170.16 317.019 172.026 317.888 173.691C318.41 174.688 317.881 176.012 319.585 176.839C320.788 177.42 321.426 178.642 322.334 179.568C323.294 180.628 324.328 181.651 325.432 182.632C326.441 183.463 325.909 183.924 325.224 184.64C324.981 184.895 325.909 185.661 325.999 186.22C326.086 187.169 326.099 188.121 326.038 189.072L329.184 188.176C328.816 189.324 327.313 190.154 329.033 191.018C329.766 191.387 331.011 191.938 329.406 192.701C329.786 192.863 330.253 193.221 330.531 193.153C330.909 193.067 331.261 192.927 331.565 192.739C331.87 192.552 332.121 192.321 332.304 192.061C332.487 191.801 332.599 191.517 332.632 191.224C332.666 190.932 332.62 190.638 332.498 190.359C332.368 190.017 331.744 189.796 331.499 189.458C331.358 189.265 331.522 188.951 331.558 188.617L333.542 188.086C333.203 187.685 332.489 187.07 332.615 186.953C333.746 185.906 332.125 184.517 332.684 184.045C334.142 182.806 333.54 181.521 333.597 180.273C333.608 178.865 333.959 177.469 334.633 176.152C335.106 175.072 335.2 173.919 334.907 172.804C334.546 170.831 333.905 168.6 335.813 166.715C334.362 165.328 335.943 163.942 335.926 162.556C335.912 160.641 335.013 158.66 336.566 156.742C337.813 155.202 335.864 153.05 337.984 151.55C337.608 149.183 338.909 146.912 338.94 144.638C338.999 140.33 340.327 136.16 341.47 132.058C342.778 127.299 344.7 122.644 347.211 118.158C350.479 112.001 354.711 106.149 359.821 100.724C363.214 97.2847 365.244 92.8634 371.09 90.9183C371.414 90.81 371.392 90.217 371.665 89.9162C373.983 87.4768 377.259 85.6271 381.048 84.6195C382.336 84.3162 383.569 83.8968 384.72 83.3708C386.06 82.5753 387.702 82.1097 389.417 82.0389C391.105 81.9012 392.772 81.6522 394.4 81.2951C396.07 81.0581 398.026 81.8542 399.408 80.501C399.538 80.3714 400.103 80.501 400.464 80.4807C404.657 80.2166 408.857 79.9912 413.042 79.6566C414.721 79.5221 416.376 78.8915 418.022 78.9292C420.777 78.9921 423.503 79.5096 426.265 79.6488C428.969 79.7833 431.731 79.4689 434.397 79.7359C437.251 79.9908 440.044 80.535 442.699 81.3531C445.478 82.2507 448.742 82.2546 451.133 83.7287C453.396 85.1235 456.52 85.5994 458.453 87.028C460.411 88.4789 464.155 88.9925 464.013 91.8352C464.002 92.0684 464.557 92.4069 464.946 92.5462C468.905 93.9535 469.895 96.9472 471.47 99.5259C472.32 101.066 472.689 102.729 472.549 104.389C472.468 105.878 474.768 105.028 474.829 106.071C474.767 106.855 474.855 107.642 475.09 108.408C476.188 110.401 476.839 112.513 477.018 114.661C477.002 115.042 477.124 115.419 477.371 115.752C479.646 118.301 479.402 121.317 480.258 124.127C480.633 125.355 481.721 126.825 481.172 127.761C480.389 129.103 481.125 130.12 481.423 131.165C482.372 134.484 482.089 137.985 484.308 141.141C484.983 142.098 484.147 143.691 484.911 144.548C485.768 145.515 484.885 146.366 485.483 147.357C486.599 148.827 487.079 150.515 486.857 152.194C486.495 153.686 488.161 155.021 487.975 156.687C487.808 158.152 488.674 159.67 488.926 161.178C489.178 162.687 488.424 164.331 490.012 165.688C490.192 165.842 490.012 166.21 490.039 166.477C490.397 171.196 490.232 175.977 491.236 180.62C493.152 189.502 491.67 198.393 492.191 207.269C492.265 208.537 492.18 208.539 494.13 210.395C494.271 208.557 494.391 207.072 494.533 205.172C495.316 205.443 496.452 205.632 496.471 205.869C496.645 207.743 496.649 209.623 496.483 211.497C496.417 212.138 495.553 212.733 495.073 213.324C493.496 212.83 495.772 210.422 492.547 211.009C493.531 212.396 493.259 214.028 495.168 215.286C496.734 216.317 494.218 218.112 495.117 219.606C495.143 219.65 494.8 219.776 494.765 219.886C494.264 221.481 492.792 222.91 492.436 224.366C492.099 225.744 493.693 227.37 494.351 228.912C494.4 229.341 494.35 229.773 494.204 230.19L492.144 229.383C493.203 232.769 494.933 236.076 490.989 239.012C493.935 241.413 490.989 243.772 490.646 246.177C490.57 246.717 488.899 247.135 487.702 247.741L490.939 248.107C489.958 249.824 489.636 251.708 490.01 253.552C490.038 254.062 489.918 254.571 489.658 255.044C488.983 256.437 488.727 257.923 488.909 259.397C488.851 260.157 488.679 260.909 488.395 261.64C488.306 262.399 488.116 263.15 487.826 263.881C487.268 264.913 489.823 266.002 487.847 266.81C486.125 267.513 487.41 268.877 486.318 269.579C485.984 269.795 485.354 269.76 483.738 270.019L487.131 270.685C486.627 271.015 487 270.768 487.384 270.518C488.942 272.144 486.553 273.503 486.881 274.897C487.303 276.692 485.112 277.345 484.225 278.878L486.81 279.669C486.592 282.016 487.332 284.441 485.132 286.701C483.925 287.937 484.479 290.108 486.015 293.299C485.443 292.92 484.817 292.589 484.147 292.312C483.581 292.245 483.005 292.237 482.436 292.288L485.643 295.814C484.499 296.96 483.33 298.069 484.554 299.648C484.79 299.955 484.41 300.665 484.05 301.054C483.643 301.401 483.423 301.848 483.433 302.308C483.443 302.768 483.681 303.209 484.103 303.546C484.397 303.822 484.683 304.502 484.578 304.553C481.647 305.975 485.823 307.358 484.593 308.749C483.874 309.563 483.217 310.406 482.766 310.959C483.471 311.578 484.081 312.061 484.61 312.588C485.727 313.701 483.104 314.598 484.432 316.031C485.278 316.943 484.796 318.642 484.584 319.963C483.833 324.606 486.221 329.098 485.703 333.721C487.316 336.057 486.571 338.583 486.828 341.033C487.065 342.546 487.417 344.047 487.882 345.531C488.24 346.905 487.542 348.251 488.632 349.743C489.546 350.991 488.561 352.928 489.087 354.431C489.428 355.407 490.827 356.153 488.983 357.015C490.488 357.741 490.004 358.875 490.044 359.895C490.26 362.43 490.904 364.936 491.961 367.353C492.42 368.358 492.472 369.441 492.111 370.469C491.622 371.473 494.338 372.182 492.298 373.074C493.079 374.492 493.431 376.019 493.329 377.549C493.29 378.954 493.611 380.352 494.274 381.668C495.287 384.386 496.026 387.156 496.486 389.955C496.6 391.487 496.919 393.007 497.439 394.492C497.827 395.362 497.942 396.287 497.774 397.195C497.606 398.103 497.16 398.971 496.471 399.732C495.917 400.276 495.671 400.958 495.784 401.634L498.257 400.158C499.823 401.931 497.647 402.719 496.336 403.925C497.336 404.746 496.999 406.236 499.184 406.621C499.59 406.692 499.716 408.006 499.761 408.748C499.872 410.521 499.249 412.014 496.134 412.414C498.463 412.986 499.458 413.754 498.304 415.273C498.182 415.434 499.161 416.302 500 416.531C498.043 418.186 499.727 420.877 496.643 422.506L499.496 422.084C499.242 424.089 499.706 426.524 498.496 428.348C497.146 430.379 498.716 432.848 495.915 434.614L492.176 434.841C492.176 434.974 492.167 435.105 492.163 435.238L495.436 435.691C495.273 437.405 494.613 439.072 493.501 440.579C490.781 445.066 487.33 449.289 483.224 453.153C481.169 455.156 478.809 456.881 476.594 458.739C474.507 460.495 472.617 462.398 470.416 464.073C464.805 468.342 459.037 472.48 451.531 474.948C448.161 477.85 443.293 478.924 438.914 480.558C431.804 483.054 424.488 485.213 417.01 487.021C413.058 488.052 409.105 489.097 405.087 489.968C401.068 490.838 396.75 491.032 392.935 492.528C392.264 492.699 391.546 492.743 390.847 492.654C387.898 492.458 384.937 492.912 382.334 493.957C381.696 494.137 381.025 494.244 380.343 494.274C378.326 494.564 376.28 493.853 374.175 494.973C372.85 495.679 370.35 494.635 368.731 495.866C368.554 496 368.031 495.894 367.67 495.882C360.185 495.651 352.833 497.207 345.309 496.739C342.868 496.411 340.35 496.635 338.082 497.38C337.283 497.699 336.363 497.81 335.468 497.695C334.574 497.579 333.759 497.245 333.152 496.744C331.95 497.857 330.266 497.471 328.746 497.482C324.402 497.516 320.053 497.397 315.717 497.534C313.508 497.605 311.141 496.83 309.063 498.26C307.971 499.008 306.975 496.481 305.427 497.873C302.503 497.511 299.737 498.484 296.79 498.357C292.462 498.163 287.88 497.679 283.825 498.481C279.691 499.3 275.735 498.914 271.72 499.073C267.388 499.245 263.033 499.045 258.693 499.149C257.17 499.237 255.676 499.506 254.268 499.945C252.875 500.332 251.596 498.508 250.268 499.918C248.758 499.488 247.247 498.689 245.737 499.918C244.409 498.629 243.085 500.111 241.75 499.918C240.415 499.724 239.125 500.001 237.672 499.399C236.284 498.819 234.19 499.034 232.43 499.131C226.058 499.484 219.82 498.495 213.833 497.344C207.937 496.334 202.118 495.092 196.4 493.622C195.547 493.434 194.649 493.388 193.769 493.486C187.389 493.947 181.397 492.02 175.122 491.829C174.534 491.81 174.007 491.265 173.391 491.07C172.314 490.731 171.191 490.472 170.086 490.183C169.015 489.83 167.899 489.557 166.754 489.369C165.739 489.272 167.462 487.424 165.189 488.22C164.406 488.493 163.055 488.113 162.096 487.806C160.729 487.317 159.406 486.763 158.136 486.147C155.379 484.922 152.629 483.689 149.888 482.447C148.709 481.917 149.287 481.457 150.166 480.985ZM75.4853 364.541C74.8329 362.085 74.0121 360.589 74.1805 359.157C74.317 357.48 73.8619 355.804 72.8599 354.296C71.602 351.989 70.5622 349.619 69.748 347.205C68.2109 343.379 66.8278 339.518 65.3795 335.673C64.1047 332.287 61.8565 329.066 62.1174 325.41C60.2515 323.261 61.6777 320.367 58.9637 318.291C57.959 317.523 58.3113 315.857 57.7045 314.697C57.3783 314.065 60.2489 313.55 57.7985 313.178C55.3937 312.813 58.2552 312.149 57.514 311.727C54.9331 310.276 54.5482 308.052 54.1111 305.947C53.5657 303.321 51.7363 301.028 51.0148 298.402C50.6315 296.172 49.7495 294.004 48.4051 291.989C47.5154 290.627 47.0224 289.142 46.9581 287.629C46.4362 283.45 44.522 279.504 43.1937 275.483C41.7414 271.078 40.845 266.595 39.3106 262.212C40.3701 261.076 37.4212 259.981 39.2493 258.838C38.4689 257.755 37.7782 256.637 37.1811 255.491C36.6514 254.289 37.1263 253.048 36.4791 251.689C34.9775 248.095 33.7499 244.441 32.8022 240.745C32.0389 238.292 31.4634 235.803 30.5918 233.372C29.6432 230.729 27.8948 228.181 27.4864 225.507C26.7504 220.684 25.0659 215.987 24.2974 211.216C23.5902 206.823 22.3898 202.399 22.9626 197.887C23.1763 195.342 23.1863 192.791 22.9926 190.245C22.9565 189.23 22.7371 188.223 22.3402 187.252C21.6851 185.333 21.6324 183.328 22.1862 181.391C23.0004 178.152 23.3892 171.81 22.4041 168.261C21.8822 169.045 20.8109 169.877 20.9375 170.594C21.4986 173.795 19.8936 176.792 19.6875 179.921C19.0664 189.361 21.0523 198.728 20.8475 208.149C20.7478 208.675 20.7815 209.209 20.9466 209.726C22.9443 213.422 22.9678 217.407 24.0573 221.236C24.2752 222.003 24.1069 222.755 25.1077 223.348C26.3512 224.083 23.0604 224.809 24.8937 225.527C27.5033 226.552 25.2147 228.857 27.2606 230.108C27.7277 230.393 26.9449 231.776 26.7909 232.658C26.7267 232.921 26.7949 233.192 26.9827 233.421C28.4637 234.719 28.4793 234.709 27.3676 236.257C28.1309 237.04 30.2265 237.523 28.4441 238.88C29.9785 240.419 28.7494 242.794 31.3068 244.055C31.4577 244.198 31.5667 244.362 31.6269 244.538C31.6871 244.713 31.6972 244.896 31.6565 245.075C30.2212 245.729 31.3186 246.224 31.6461 246.882C32.0558 247.702 31.8066 248.72 32.2724 249.506C34.0576 252.114 34.9599 255.005 34.9016 257.93C34.9133 258.952 35.3105 259.952 36.0485 260.816C36.6422 261.732 37.5269 262.562 37.1472 263.704C36.7349 264.945 38.5616 266.207 37.1329 267.459C39.338 269.172 38.6334 271.594 39.7425 273.495C42.3286 277.926 41.547 282.979 44.7347 287.248C44.6264 289.842 46.2013 292.192 46.7258 294.648C47.2178 296.954 49.0066 299.086 48.3255 301.628C48.0398 302.692 48.9584 304.091 49.7948 305.131C50.7199 306.279 49.5729 307.614 51.1126 308.812C52.21 309.666 51.4219 312.093 52.5336 312.644C54.7831 313.76 51.4467 315.087 53.3047 315.864C54.1946 319.983 58.2317 323.237 59.055 327.375C61.4715 328.245 60.7135 330.083 61.3646 331.492C62.0718 333.028 63.2605 334.443 63.2291 336.159C63.2174 336.797 63.7015 337.435 63.7263 338.079C63.755 338.802 63.2331 339.585 63.4653 340.244C63.8842 341.444 66.546 342.215 64.6566 343.857C65.5608 344.978 66.5629 346.064 67.3354 347.232C67.9199 348.116 67.9017 349.294 68.6937 350.012C70.3482 351.511 68.8607 353.486 70.129 354.8C71.6948 356.414 69.8302 358.222 71.4586 359.601C73.545 360.55 73.0635 362.652 75.4853 364.541ZM152.469 294.854C152.371 296.165 151.985 297.014 152.319 297.659C153.517 299.967 154.937 302.214 156.326 304.465C156.676 305.032 157.356 305.491 157.665 306.065C158.469 307.56 158.325 309.389 160.164 310.514C161.86 311.547 159.561 314.19 163.119 314.375C164.106 317.954 167.181 320.952 168.389 324.395C169.141 326.542 171.411 328.095 171.753 330.199C172.33 333.746 176.45 336.389 176.189 340.116C176.176 340.295 176.748 340.461 176.908 340.689C178.083 342.333 179.898 343.934 180.195 345.67C180.553 347.763 183.207 349.181 182.701 351.385C182.687 351.442 183.164 351.561 183.41 351.651C183.94 350.729 184.454 349.841 184.994 348.891L182.805 348.293C182.797 347.128 182.674 345.964 182.437 344.811C182.1 343.67 180.519 342.296 180.99 341.553C181.838 340.21 179.842 339.649 180.259 338.424C180.533 337.62 179.346 336.161 178.254 335.564C176.389 334.548 178.656 332.789 177.535 332.575C174.602 332.018 176.902 330.528 176.169 329.652C175.376 328.698 174.65 327.715 173.994 326.705C173.262 325.593 172.643 324.44 171.953 323.312C171.332 322.297 170.601 321.314 170.062 320.276C169.461 319.115 169.119 317.885 168.482 316.741C167.849 315.724 167.146 314.732 166.376 313.769C165.658 312.784 164.9 311.813 164.214 310.815C163.454 309.711 162.708 308.598 162.048 307.461C161.456 306.437 161.135 305.319 160.429 304.344C159.708 303.343 158.602 302.507 157.806 301.525C156.944 300.461 156.309 299.3 155.469 298.227C154.698 297.244 153.783 296.319 152.472 294.854H152.469ZM445.49 460.05C449.975 456.74 453.994 453.905 456.7 450.184C460.493 445.1 462.616 439.424 462.896 433.618C462.935 432.688 463.957 431.544 463.502 430.89C462.622 429.628 462.605 428.753 463.927 427.779C464.004 427.662 464.039 427.532 464.029 427.402C464.019 427.272 463.965 427.146 463.871 427.036C462.185 426.136 462.776 424.812 462.928 423.722C463.371 420.553 461.632 417.645 461.35 414.563C460.677 415.583 460.287 416.694 460.203 417.828C460.081 418.768 459.887 419.701 459.621 420.624C459.565 421.827 459.655 423.033 459.594 424.234C459.682 425.269 459.533 426.307 459.154 427.305C458.632 428.235 459.242 429.103 458.666 430.101C457.668 431.832 459.179 433.862 457.727 435.84C456.486 437.531 458.575 440.15 455.318 441.508C455.741 441.739 456.064 442.057 456.247 442.422C456.429 442.788 456.463 443.185 456.345 443.565C456.015 444.866 450.922 450.755 449.129 451.694C447.784 452.399 447.946 454.161 445.773 454.22C445.678 455.261 445.563 456.3 445.497 457.342C445.456 458 445.49 458.662 445.49 460.05ZM344.846 159.846C342.106 159.985 342.073 161.22 342.312 162.592C342.565 164.042 342.462 167.08 341.738 168.178C341.288 168.862 341.085 169.253 341.79 169.871C343.786 171.612 340.791 171.178 340.15 171.863L342.532 172.689C341.311 174.489 340.402 176.396 339.828 178.366C339.555 179.761 340.947 180.905 340.134 182.178C339.977 182.356 339.786 182.515 339.567 182.651L338.289 181.878C336.964 183.683 339.698 183.265 339.92 183.625V187.364L338.04 187.833L340.561 190.217L337.923 191.752C339.602 193.608 339.289 195.36 338.619 197.144C338.518 197.416 338.407 197.93 338.512 197.963C341.042 198.758 339.556 200.79 340.759 202.307C343.575 199.398 341.652 196.361 342.586 193.081C342.885 192.924 343.73 192.479 344.482 192.081C343.21 189.894 342.934 189.791 343.685 188.638C344.529 187.341 342.823 186.403 343.362 185.183C343.885 183.848 344.25 182.481 344.451 181.099C344.507 180.809 343.916 180.475 343.743 180.132C343.522 179.798 343.442 179.423 343.512 179.055C344.075 177.758 344.757 176.49 345.397 175.211C343.43 173.793 345.284 172.476 345.534 171.103C345.612 170.671 345.09 170.186 344.881 169.715C344.723 169.36 344.389 168.748 344.539 168.666C346.217 167.779 344.865 166.151 345.753 165.429C347.356 164.125 345.561 162.946 345.941 162.084C347.506 158.538 346.134 154.975 346.677 151.458C346.842 150.388 347.104 149.33 347.341 148.174C346.941 148.188 346.222 148.058 346.005 148.246C344.841 149.251 346.51 150.936 344.542 151.846C344.823 152.271 345.072 152.707 345.288 153.152C345.386 153.587 345.387 154.281 345.035 154.486C342.228 156.114 343.505 157.911 344.846 159.846ZM205.133 195.648L204.392 195.712C204.468 196.744 204.455 197.777 204.353 198.807C204.034 200.027 203.625 201.233 203.129 202.419L205.276 201.043C205.807 203.284 206.153 205.39 206.829 207.436C207.916 210.73 209.08 214.006 209.841 217.355C210.24 219.109 211.324 220.78 210.984 222.623C213.302 223.908 211.34 226.009 212.886 227.699C214.191 229.122 213.677 231.415 214.2 233.287C214.764 235.307 215.635 237.282 215.252 239.381C217.059 240.532 215.5 242.424 216.477 243.388C218.051 244.941 216.973 246.469 217.436 247.95C217.624 248.55 217.972 249.123 218.21 249.718C218.848 250.87 219.291 252.077 219.526 253.31C219.632 256.023 221.25 258.45 221.868 261.063C222.12 262.127 223.488 263.046 224.747 264.488C224.906 263.498 225.17 263.059 224.995 262.762C223.435 259.855 222.425 256.802 221.994 253.689C221.088 248.762 218.161 244.114 218.512 239.05C216.414 237.414 217.83 235.149 216.512 233.226C215.338 231.503 216.181 229.04 215.09 227.253C214.075 225.594 214.623 223.948 213.922 222.386C211.147 216.196 209.839 209.73 207.659 203.428C206.765 200.847 205.972 198.245 205.133 195.648ZM487.844 185.623C487.844 183.757 487.379 181.805 487.975 180.051C488.571 178.296 485.365 176.721 487.837 175.064C485.661 173.651 487.17 171.793 486.768 170.165C486.366 168.537 485.962 166.909 485.689 165.269C485.263 162.705 485.588 159.949 484.384 157.617C483.418 155.747 484.277 153.888 483.379 152.297C482.291 150.368 482.45 148.488 482.433 146.559C482.303 145.429 481.982 144.315 481.476 143.245C480.903 141.966 480.168 140.73 479.281 139.554C482.151 138.586 477.129 136.615 480.177 135.669C479.894 135.1 479.544 134.55 479.133 134.025C478.679 133.541 477.613 133.199 478.905 132.589L477.643 131.192L473.468 133.177C474.498 133.966 475.687 134.634 476.991 135.157C478.871 135.627 477.466 135.936 477.114 136.339C478.94 137.177 477.299 138.217 477.47 139.127C477.635 140.007 477.249 140.862 477.515 141.69C477.956 143.069 477.423 144.891 480.312 145.305L478.064 146.093C480.1 147.212 478.977 148.342 478.217 149.54L481.568 149.914C481.229 150.795 480.908 151.494 480.702 152.212C480.492 152.647 480.467 153.12 480.63 153.566C482.301 155.764 483.286 158.212 483.511 160.73C483.511 161.937 482.981 163.334 483.617 164.309C485.19 166.732 484.783 169.061 484.029 171.479C483.947 171.74 483.977 172.206 484.186 172.303C485.869 173.077 485.698 174.287 485.689 175.482C485.672 177.761 485.639 180.042 485.714 182.32C485.734 182.97 486.57 183.856 486.229 184.216C485.01 185.5 487.268 185.265 487.844 185.623ZM348.599 301.795C349.251 299.925 348.104 297.836 349.919 296.172C349.528 292.787 352.603 289.822 352.091 286.42C353.873 285.163 352.522 283.35 353.425 282.025C355.304 279.265 354.783 276.102 356.378 273.31C356.538 273.029 355.902 272.497 355.635 272.082C355.177 272.355 354.562 272.565 354.289 272.913C352.184 275.622 351.275 278.667 349.837 281.565C348.405 284.081 347.39 286.717 346.815 289.415C346.23 293.477 346.661 297.618 346.661 301.796L348.599 301.795ZM168.823 447.609C169.725 449.907 170.177 452.144 171.475 454.066C172.815 456.049 173.786 458.275 176.256 459.49L174.519 462.392C177.269 460.882 178.996 461.015 180.495 462.458C181.148 463.08 182.453 463.561 182.575 464.199C182.955 466.128 184.519 465.079 186.098 465.211C182.355 462.406 180.627 458.997 178.447 455.853C176.266 452.708 172.991 450.329 170.181 447.622C170.052 447.497 169.5 447.609 168.823 447.609ZM472.093 410.273C471.261 408.69 470.583 407.951 470.52 407.178C470.439 404.859 470.115 402.549 469.55 400.269C468.868 397.938 468.07 395.611 467.485 393.289C466.607 389.807 464.354 386.465 465.006 382.781C465.018 382.712 464.547 382.596 464.172 382.453C463.223 386.302 464.955 389.901 465.492 393.582C465.802 396.022 466.353 398.443 467.14 400.824C467.358 401.447 466.714 402.236 466.392 403.162C466.982 403.5 467.508 403.894 467.958 404.335C468.127 404.528 467.271 405.205 467.436 405.411C467.892 405.966 468.936 406.313 469.196 406.88C469.405 407.337 468.811 407.996 468.474 408.804L472.093 410.273ZM366.311 218.29L365.389 218.257C364.158 221.882 363.288 225.602 361.594 229.105C359.821 232.626 358.419 236.243 357.401 239.925C359.851 239.08 361.377 238.167 361.885 236.481C362.659 233.92 364.434 231.532 364.301 228.812C366.388 227.353 364.469 225.36 365.641 223.604C366.635 222.119 366.144 220.086 366.311 218.294V218.29Z" fill="#E24444"/>
</svg>
