<svg width="53" height="121" viewBox="0 0 53 121" fill="none" xmlns="http://www.w3.org/2000/svg">
<path d="M26.7189 119.219L23.1828 9.73423C23.1572 7.70644 23.922 5.7469 25.3128 4.27644C26.7037 2.80598 28.6098 1.94186 30.6217 1.86966C32.6336 1.79746 34.5909 2.52293 36.0733 3.89028C37.5557 5.25763 38.445 7.15781 38.5501 9.18276C38.5579 9.48777 38.5473 9.79304 38.5183 10.0969L29.2578 119.27C29.245 119.439 29.1991 119.603 29.1226 119.754C29.0462 119.906 28.9408 120.04 28.8125 120.15C28.6842 120.259 28.5356 120.342 28.3754 120.394C28.2151 120.446 28.0464 120.465 27.879 120.45C27.5786 120.4 27.3028 120.253 27.0934 120.031C26.884 119.809 26.7525 119.524 26.7189 119.219V119.219Z" fill="#171C22"/>
<path d="M41.0625 45.8565C41.0276 47.9206 40.8756 49.9995 40.6944 52.0342C40.6039 53.0516 40.4767 54.0615 40.3787 55.1158L40.0265 58.1899C39.7648 60.2468 39.4665 62.2963 39.1317 64.3384C38.7969 66.3805 38.4255 68.4153 37.9444 70.428C37.9129 70.5369 37.8419 70.6301 37.7454 70.6889C37.649 70.7477 37.5342 70.7678 37.424 70.7452C37.3229 70.7262 37.2328 70.6692 37.1719 70.5858C37.111 70.5023 37.0839 70.3986 37.096 70.2956C37.1309 68.2315 37.2463 66.1452 37.4274 64.1105C37.572 62.0685 37.8046 59.9674 38.0588 57.9474L38.4477 54.8806C38.6114 53.878 38.7385 52.868 38.9096 51.8285C39.2445 49.7864 39.5793 47.7442 40.0604 45.7315C40.0905 45.5961 40.1715 45.4775 40.2862 45.4005C40.401 45.3236 40.5407 45.2942 40.6761 45.3185C40.7373 45.3268 40.796 45.3475 40.8489 45.3793C40.9018 45.4112 40.9477 45.4536 40.9838 45.5038C41.0199 45.5541 41.0455 45.6113 41.059 45.6719C41.0726 45.7325 41.0737 45.7953 41.0625 45.8565V45.8565Z" fill="#171C22"/>
<path d="M36.6549 79.1057C36.7612 79.8993 36.7909 80.7017 36.7435 81.5015C36.6974 82.2977 36.6588 83.057 36.5396 83.8385C36.4204 84.6199 36.3012 85.4014 36.1089 86.1681C35.9186 86.9533 35.6744 87.7244 35.3782 88.4758C35.3589 88.5322 35.3277 88.5836 35.2868 88.6267C35.2458 88.6697 35.1961 88.7033 35.141 88.725C35.086 88.7468 35.0269 88.7563 34.9679 88.7527C34.9089 88.7492 34.8515 88.7328 34.7995 88.7046C34.6706 88.6346 34.572 88.5191 34.5223 88.3803C34.4097 87.5821 34.3557 86.7764 34.3606 85.9698C34.3673 84.3929 34.5433 82.8209 34.8856 81.2811C35.0453 80.4897 35.2777 79.7146 35.5797 78.9661C35.6463 78.8323 35.7587 78.7271 35.896 78.6702C36.0334 78.6132 36.1865 78.6082 36.3269 78.6562C36.4142 78.6979 36.4898 78.7608 36.547 78.8393C36.6043 78.9177 36.6413 79.0092 36.6549 79.1057V79.1057Z" fill="#171C22"/>
<path d="M19.7215 25.9908C20.0942 28.8657 20.3937 31.7258 20.6566 34.5786C20.7918 35.9866 20.8756 37.4609 21.0034 38.9058L21.277 43.2182C21.4229 46.0858 21.5687 48.9534 21.6706 51.8504C21.7359 54.7402 21.8086 57.593 21.7568 60.4976C21.7543 60.5552 21.7402 60.6118 21.7153 60.6638C21.6904 60.7158 21.6553 60.7622 21.612 60.8002C21.5688 60.8381 21.5184 60.8668 21.4638 60.8846C21.4093 60.9023 21.3517 60.9086 21.2947 60.9032C21.1952 60.8998 21.0996 60.8632 21.023 60.7992C20.9464 60.7352 20.8931 60.6474 20.8713 60.5495C20.4621 57.6673 20.1551 54.844 19.8996 51.9543C19.6441 49.0647 19.4177 46.2192 19.1987 43.3369L18.969 38.995C18.9144 37.5649 18.8232 36.1274 18.7759 34.6605C18.6741 31.7634 18.6014 28.9105 18.6532 26.006C18.6574 25.9354 18.6765 25.8665 18.7094 25.8039C18.7422 25.7413 18.788 25.6865 18.8436 25.6431C18.8992 25.5998 18.9633 25.569 19.0316 25.5527C19.1 25.5364 19.171 25.535 19.2398 25.5487C19.352 25.5723 19.4559 25.6258 19.5406 25.7035C19.6253 25.7812 19.6877 25.8804 19.7215 25.9908V25.9908Z" fill="#171C22"/>
<path d="M29.0592 22.8835C29.2241 23.6561 29.3078 24.4442 29.3089 25.235C29.3434 26.009 29.2973 26.8052 29.2586 27.5645C29.2126 28.3607 29.1008 29.1053 28.9816 29.8867C28.8586 30.682 28.663 31.4644 28.3972 32.2238C28.3777 32.2814 28.3468 32.3342 28.3062 32.3792C28.2656 32.4242 28.2162 32.4603 28.1612 32.4852C28.1062 32.5101 28.0467 32.5234 27.9865 32.5241C27.9262 32.5248 27.8665 32.513 27.8111 32.4895C27.74 32.4659 27.6766 32.4233 27.6278 32.3662C27.5789 32.3091 27.5465 32.2396 27.5339 32.1652C27.3793 31.3838 27.2715 30.5937 27.2111 29.799C27.1766 29.0249 27.1861 28.2214 27.1882 27.4547C27.2269 26.6954 27.3095 25.9066 27.3921 25.1178C27.4993 24.3333 27.6802 23.5606 27.9326 22.8102C27.9846 22.6698 28.0882 22.5548 28.2218 22.4889C28.3554 22.4229 28.509 22.4112 28.6506 22.4561V22.4561C28.8353 22.5418 28.9811 22.6943 29.0592 22.8835V22.8835Z" fill="#ECECEC"/>
<path d="M32.5142 33.1287C32.597 34.9864 32.6066 36.8293 32.5431 38.6576C32.5479 39.579 32.4796 40.4858 32.4404 41.4368L32.2646 44.2013C32.1279 46.0148 31.9839 47.8652 31.7741 49.664C31.5643 51.4628 31.3397 53.3353 30.9763 55.1416C30.9543 55.2529 30.8915 55.3518 30.8005 55.4188C30.7094 55.4858 30.5968 55.5158 30.485 55.503V55.503C30.3886 55.4875 30.3013 55.437 30.2395 55.361C30.1777 55.2849 30.1457 55.1887 30.1496 55.0903C30.0303 53.2253 30.0206 51.3823 30.0476 49.5467C30.0745 47.7111 30.1381 45.8829 30.2455 44.0251L30.4214 41.2606C30.4897 40.3539 30.558 39.4471 30.6703 38.5109C30.8306 36.6709 31.0847 34.8402 31.4316 33.0259C31.4437 32.9574 31.4694 32.8919 31.5073 32.8336C31.5452 32.7753 31.5944 32.7253 31.652 32.6867C31.7096 32.6481 31.7743 32.6216 31.8423 32.6089C31.9102 32.5962 31.98 32.5976 32.0473 32.6129C32.1731 32.6296 32.2889 32.6905 32.3743 32.7848C32.4597 32.8792 32.5092 33.0009 32.5142 33.1287V33.1287Z" fill="#ECECEC"/>
</svg>
