<svg width="4590" height="3512" viewBox="0 0 4590 3512" fill="none" xmlns="http://www.w3.org/2000/svg">
<path d="M4279.16 1130.18C4286.72 1096.38 4293.59 1061.67 4299.55 1027.64C4299.3 1024.81 4299.85 1021.96 4301.15 1019.42C4269.37 975.292 4234.95 933.119 4198.06 893.137C4207.45 849.976 4216.16 806.586 4223.72 762.74C4223.72 762.74 3605.18 -106.192 2660.64 383.424C2637.66 382.19 2614.94 377.968 2593.06 370.864C2570.27 364.056 2548.18 355.11 2527.08 344.145C2527.08 344.145 2220.79 -60.5193 1279.92 7.76216C624.727 1543.75 212.596 1581.2 212.596 1581.2C298.235 1584.75 383.598 1593.21 468.259 1606.55C327.141 1739.69 249.708 1747 249.708 1747C291.632 1748.82 332.18 1751.56 371.584 1755.22C410.987 1758.87 447.87 1762.75 484.296 1767.78C344.551 1890.41 265.286 1902.29 265.286 1902.29C349.591 1905.94 428.627 1912.56 503.081 1921.7C1298.25 2017.84 1553 2388.02 1561.24 2401.27C1616.72 2426.85 1675.98 2443.35 1736.73 2450.14C1750.47 2442.6 1763.99 2435.52 1777.5 2428.9C2660.18 1997.74 3346.76 3064.21 3346.76 3064.21C3346.76 3064.21 4165.76 2297.59 4363 1288.67C4365.98 1272.91 4368.96 1257.38 4371.71 1241.85C4371.94 1242.54 4339.41 1197.32 4279.16 1130.18Z" fill="#ECECEC"/>
<path d="M4299.54 1027.64C4293.59 1062.12 4286.71 1096.15 4279.15 1130.18C4311.79 1165.89 4342.38 1203.4 4370.79 1242.53C4368.04 1258.06 4365.06 1273.59 4362.08 1289.35C4165.98 2298.27 3346.99 3065.58 3346.99 3065.58C3346.99 3065.58 2659.72 1999.11 1777.73 2430.27C1764.21 2436.89 1750.7 2443.97 1736.95 2451.5C1676.2 2444.72 1616.95 2428.21 1561.47 2402.63V2402.63C1553.22 2390.07 1298.48 2019.89 503.307 1923.06C428.853 1913.93 349.818 1907.31 265.513 1903.65C265.513 1903.65 344.778 1891.78 484.522 1769.15C448.097 1764.12 410.526 1760.01 371.81 1756.59C331.574 1799.77 288.975 1840.71 244.208 1879.22C113.627 1990.2 39.8601 2007.33 39.8601 2007.33C165.172 2012.81 282.007 2023.09 390.137 2037.25C1058.62 2123.8 1405 2350.11 1514.28 2434.83C1540.62 2455.39 1553.22 2467.49 1553.22 2467.49C1613.43 2495.49 1677.8 2513.54 1743.83 2520.93C2706 2116.26 3329.35 3246.45 3329.35 3246.45C3329.35 3246.45 4228.75 2462.92 4477.09 1409.47C4488.31 1363.8 4497.93 1316.07 4506.18 1268.8C4443.99 1182.95 4374.88 1102.3 4299.54 1027.64V1027.64Z" fill="#62C370"/>
<path d="M4505.95 1268.35C4497.71 1315.62 4488.08 1362.66 4476.86 1409.02C4228.53 2462.47 3329.12 3246 3329.12 3246C3329.12 3246 2704.63 2115.81 1743.6 2520.48C1677.57 2513.09 1613.2 2495.05 1552.99 2467.04C1552.99 2467.04 1540.39 2454.94 1514.05 2434.38C1404.77 2349.66 1058.39 2123.35 389.909 2036.8C281.779 2022.64 164.943 2012.36 39.6317 2006.88C-31.8442 2041.37 -1.60439 2227.03 90.0313 2232.05C1177.29 2279.32 1569.26 2719.61 1569.26 2719.61C1649.67 2761.86 1802.47 2783.56 1802.47 2783.56C2764.65 2378.89 3288.34 3511.36 3288.34 3511.36C3288.34 3511.36 4391.64 2670.06 4588.2 1547.41C4598.05 1493.74 4567.12 1356.73 4505.95 1268.35Z" fill="#171C22"/>
<path d="M2582.98 446.686C2541.74 600.833 2491.35 752.012 2436.59 901.591C2409.1 976.495 2380.69 1050.94 2350 1124.48C2319.3 1198.01 2288.6 1271.77 2255.61 1344.39C2190.83 1490.34 2118.73 1632.94 2039.58 1771.67C1960.84 1911.05 1871.14 2044 1771.32 2169.25C1769.5 2171.33 1767 2172.68 1764.26 2173.06C1761.53 2173.44 1758.75 2172.82 1756.44 2171.32C1754.12 2169.82 1752.43 2167.53 1751.67 2164.89C1750.91 2162.24 1751.14 2159.41 1752.3 2156.92C1826.07 2015.79 1898.92 1875.8 1968.33 1733.99C2004.3 1663.88 2037.06 1591.94 2072.34 1521.38L2173.14 1306.94C2190.09 1271.32 2205.9 1235.01 2222.17 1198.92C2238.43 1162.84 2255.15 1127.22 2271.19 1091.14L2319.3 982.661C2335.56 946.351 2351.6 910.269 2367.18 873.959L2556.64 437.552C2557.35 435.898 2558.38 434.4 2559.67 433.143C2560.96 431.886 2562.49 430.895 2564.17 430.227C2565.84 429.559 2567.63 429.227 2569.44 429.25C2571.25 429.272 2573.03 429.649 2574.69 430.358L2574.96 430.472C2578.02 431.779 2580.5 434.131 2581.97 437.104C2583.44 440.076 2583.8 443.475 2582.98 446.686V446.686Z" fill="#171C22"/>
<path d="M4176.52 989.513C4169.5 987.452 4161.95 988.24 4155.52 991.705C4149.08 995.17 4144.28 1001.03 4142.16 1008.01V1010.29C4101.66 1151.79 4053.48 1291 3997.83 1427.29C3971.72 1495.8 3938.96 1562.25 3909.63 1629.62C3880.31 1696.99 3846.17 1762.53 3810.67 1826.93C3742.18 1957.27 3667.17 2084.09 3585.93 2206.93C3514 2316.09 3437.71 2423.65 3356.84 2524.36C3341.49 2509.97 3326.37 2496.04 3311.02 2482.11C3283.07 2457.45 3253.98 2433.93 3224.2 2411.32C3164.8 2366.17 3102.42 2325.04 3037.49 2288.23C2906.89 2212.98 2764.92 2159.3 2617.11 2129.29C2468.66 2099.91 2316.03 2098.21 2166.95 2124.26C2023.76 2150.9 1885.52 2199.35 1757.11 2267.91C1747.49 2266.76 1737.41 2265.17 1727.56 2263.34C1713.58 2260.83 1699.61 2257.86 1685.86 2254.43C1662.29 2248.27 1639.3 2240.09 1617.14 2230C1589.57 2189.96 1559.34 2151.81 1526.65 2115.81C1491.54 2076.94 1454.3 2040.04 1415.08 2005.28C1337.21 1935.73 1252.83 1873.79 1163.08 1820.31C1140.17 1806.61 1117.27 1795.19 1094.36 1782.4L1059.99 1763.9L1024.71 1747.46L953.695 1714.8L880.845 1686.94L844.649 1673.01C832.278 1668.67 819.678 1665.25 807.537 1661.37L733.083 1638.53C683.141 1624.37 632.054 1614.55 581.884 1602.45C575.23 1601.09 568.307 1602.32 562.538 1605.9C556.768 1609.47 552.589 1615.11 550.859 1621.65C549.129 1628.2 549.98 1635.16 553.236 1641.1C556.492 1647.04 561.906 1651.51 568.367 1653.6H570.658C619.225 1667.07 668.479 1678.49 716.359 1693.79L787.835 1718C799.518 1722.11 810.744 1725.76 823.344 1730.33L858.165 1744.72L926.892 1773.72L994.244 1806.83L1027.92 1823.73L1060.45 1842.46C1081.99 1855.02 1104.21 1866.67 1125.05 1880.37C1209.82 1932.94 1289.43 1993.34 1362.85 2060.78C1399.46 2094.31 1434.19 2129.83 1466.85 2167.2C1498.78 2203.64 1528.03 2242.33 1554.37 2282.98V2282.98C1558.29 2289.06 1563.74 2294.02 1570.17 2297.36C1600.02 2312.71 1631.43 2324.81 1663.87 2333.45C1679.68 2337.56 1695.49 2341.44 1711.29 2344.64C1727.1 2347.83 1742.45 2350.35 1760.09 2352.4C1767.99 2353.2 1775.95 2351.69 1783 2348.06V2348.06C1907.1 2281.29 2041.02 2234.51 2179.78 2209.44C2248.92 2198.25 2318.9 2192.98 2388.94 2193.69C2458.87 2195.46 2528.53 2203.1 2597.18 2216.52C2735.01 2245.75 2867.56 2295.72 2990.3 2364.73C3051.93 2399.34 3111.17 2438.02 3167.61 2480.51C3223.68 2521.99 3276.38 2567.81 3325.23 2617.53L3327.06 2619.36C3328.17 2620.55 3329.4 2621.62 3330.72 2622.56C3339.58 2629.75 3350.93 2633.17 3362.31 2632.06C3373.68 2630.94 3384.15 2625.4 3391.43 2616.62C3486.52 2500.15 3574.57 2378.14 3655.11 2251.23C3735.75 2124.87 3809.9 1994.78 3877.56 1860.96C3912.61 1794.73 3942.85 1726.22 3975.15 1658.63L4018.68 1554.95C4033.57 1520.69 4046.86 1486.44 4059.69 1450.58C4112.86 1310.6 4157.46 1167.54 4193.24 1022.17C4194.89 1015.63 4194.11 1008.72 4191.03 1002.71C4187.96 996.707 4182.8 992.018 4176.52 989.513V989.513Z" fill="#171C22"/>
<path d="M4269.99 1175.86C4268.64 1175.36 4267.2 1175.14 4265.75 1175.2C4264.31 1175.26 4262.89 1175.61 4261.58 1176.22C4260.27 1176.83 4259.1 1177.69 4258.12 1178.75C4257.15 1179.81 4256.4 1181.06 4255.9 1182.41V1182.71L4217.88 1294.61L4199.32 1350.56L4178.24 1405.37L4135.86 1515.21L4088.67 1622.77L4065.76 1676.44L4040.1 1729.19C4022.69 1764.13 4006.2 1799.52 3988.1 1834.24C3950.76 1902.75 3915.25 1972.63 3873.56 2039.77C3794.89 2174.87 3709.48 2305.96 3617.66 2432.56L3547.56 2526.64C3523.28 2557.24 3499.45 2588.3 3474.71 2617.99C3435.54 2666.4 3395.22 2714.59 3353.75 2760.26C3302.7 2702.09 3247.5 2647.67 3188.58 2597.44C3117.65 2536.3 3041.62 2481.29 2961.32 2433.01C2881.24 2384.67 2796.22 2344.94 2707.72 2314.49L2640.83 2293.02C2617.92 2287.31 2595.01 2282.52 2572.1 2277.04L2537.97 2269.5L2503.37 2264.93L2434.65 2256.26C2432.86 2255.96 2431.02 2256.01 2429.26 2256.42C2427.49 2256.82 2425.82 2257.57 2424.34 2258.62C2422.86 2259.67 2421.6 2261 2420.64 2262.54C2419.68 2264.07 2419.03 2265.78 2418.72 2267.56C2418.42 2269.35 2418.48 2271.17 2418.89 2272.93C2419.29 2274.7 2420.04 2276.36 2421.1 2277.84C2422.15 2279.31 2423.48 2280.56 2425.02 2281.52C2426.56 2282.48 2428.27 2283.13 2430.06 2283.43L2496.5 2298.28L2529.49 2305.58L2561.79 2315.63C2583.32 2322.48 2604.86 2328.65 2626.16 2335.96L2688.93 2361.08C2771.63 2396.01 2850.7 2438.92 2925.01 2489.19C2999.51 2539.23 3070.12 2594.81 3136.23 2655.44C3168.99 2686.04 3201.06 2717.33 3231.53 2750.21C3262 2783.1 3292.01 2816.9 3317.9 2850.24C3319.07 2851.79 3320.38 2853.24 3321.79 2854.58C3329.74 2862.45 3340.49 2866.87 3351.69 2866.87C3362.89 2866.87 3373.64 2862.45 3381.59 2854.58C3492.81 2739.04 3595.77 2615.88 3689.71 2485.99C3784.69 2357.58 3871.24 2223.17 3948.81 2083.61C3988.21 2015.1 4023.04 1942.03 4057.86 1870.32C4074.58 1834.01 4089.7 1797.01 4105.51 1760.47L4128.42 1705.44C4135.75 1686.94 4142.16 1667.99 4149.03 1649.26L4189.58 1536.68L4223.03 1422.49C4228.53 1403.31 4234.48 1384.36 4239.52 1365.17L4252.35 1306.71C4261.06 1267.89 4268.62 1228.84 4276.87 1190.02C4277.82 1187.23 4277.63 1184.18 4276.35 1181.53C4275.06 1178.88 4272.78 1176.84 4269.99 1175.86V1175.86Z" fill="#171C22"/>
<path d="M523.01 1760.47C578.113 1757.56 633.371 1760.16 687.954 1768.24C742.262 1775.68 795.887 1787.44 848.316 1803.41C901.314 1818.9 952.71 1839.39 1001.81 1864.61C1051.53 1889.93 1097.36 1922.23 1137.88 1960.52C1140.09 1962.74 1141.32 1965.74 1141.32 1968.86C1141.32 1971.98 1140.09 1974.97 1137.88 1977.19C1136.46 1978.52 1134.75 1979.5 1132.88 1980.06C1131.01 1980.61 1129.04 1980.73 1127.12 1980.39C1072.14 1969.66 1021.51 1954.13 970.65 1939.05C919.792 1923.98 870.538 1906.63 820.596 1889.96L669.856 1840.86C619.456 1824.19 568.369 1807.97 517.282 1787.88C514.216 1786.73 511.641 1784.57 509.993 1781.75C508.344 1778.93 507.724 1775.63 508.236 1772.4C508.748 1769.18 510.361 1766.23 512.803 1764.06C515.244 1761.88 518.364 1760.62 521.635 1760.47H523.01Z" fill="#171C22"/>
<path d="M680.166 1331.15C657.257 1353.98 636.41 1376.82 614.188 1398.06C898.488 1441.22 1416 1591.48 1633.18 1970.8C1647.38 1945.45 1661.81 1918.96 1676.7 1892.01C1426.08 1503.56 906.735 1371.34 680.166 1331.15Z" fill="#4D6A6D"/>
<path d="M1600.19 506.064C1609.81 480.487 1619.2 455.595 1628.37 430.931C1509.41 401.078 1387.93 382.272 1265.49 374.753C1254.49 399.189 1242.58 424.537 1230.67 450.571C1355.34 457.266 1479.07 475.848 1600.19 506.064V506.064Z" fill="#4D6A6D"/>
<path d="M1703.51 452.165C1694.57 476.829 1685.18 501.72 1675.56 527.069C1876.47 588.956 2072.34 694.461 2198.34 869.618C2210.94 843.128 2223.31 816.409 2235.91 789.69C2095.71 614.762 1897.78 512.225 1703.51 452.165Z" fill="#4D6A6D"/>
<path d="M2043.25 381.605C2052.64 353.516 2061.34 326.341 2069.82 300.079C1840.73 195.715 1554.14 163.059 1359.64 151.641C1350.25 174.477 1339.48 201.196 1327.34 229.513C1663.19 237.278 1891.36 305.331 2043.25 381.605Z" fill="#4D6A6D"/>
<path d="M2141.07 335.7C2132.36 362.647 2123.2 390.736 2113.35 419.511C2265.92 510.857 2319.53 602.203 2320.67 603.573L2356.87 521.59C2300.16 443.979 2226.33 380.382 2141.07 335.7V335.7Z" fill="#4D6A6D"/>
<path d="M1618.97 1137.72C1630.88 1113.51 1641.88 1089.54 1653.56 1065.56C1437.3 936.988 1189.89 882.865 1018.76 858.43C1004.55 882.636 990.122 907.072 975.46 931.278C1166.29 955.485 1412.79 1014.18 1618.97 1137.72Z" fill="#4D6A6D"/>
<path d="M1036.63 1147.31C985.77 1134.75 938.12 1124.47 895.967 1117.85L858.855 1111.91C842.055 1135.83 825.102 1159.35 807.997 1182.48C863.208 1190.24 924.832 1201.43 989.894 1216.73C1005.47 1192.98 1021.05 1170.14 1036.63 1147.31Z" fill="#4D6A6D"/>
<path d="M1528.48 1444.18C1541.54 1421.35 1554.6 1397.14 1567.2 1373.62C1429.08 1280.6 1276.63 1210.71 1115.89 1166.72C1100.77 1189.56 1085.42 1212.39 1070.07 1235.23C1233.59 1278.66 1388.57 1349.3 1528.48 1444.18V1444.18Z" fill="#4D6A6D"/>
<path d="M1591.02 1492.37C1664.61 1552.02 1727.24 1623.96 1776.13 1704.97L1818.74 1625.27C1766.71 1548.31 1703.39 1479.56 1630.88 1421.34C1617.6 1444.94 1604.31 1468.62 1591.02 1492.37Z" fill="#4D6A6D"/>
<path d="M1353 749.038C1364.46 724.374 1375.91 699.939 1386.45 675.732C1305.42 657.056 1223.33 643.253 1140.64 634.398C1128.04 659.061 1114.98 683.725 1101.92 708.617C1186.38 716.812 1270.25 730.313 1353 749.038V749.038Z" fill="#4D6A6D"/>
<path d="M1611.41 744.245C1561.7 725.062 1511.76 708.62 1462.96 695.146C1452.27 719.353 1441.27 743.788 1429.97 768.451C1479 781.925 1528.25 797.911 1576.82 816.408C1588.73 792.43 1600.19 768.223 1611.41 744.245Z" fill="#4D6A6D"/>
<path d="M1683.35 774.16C1672.12 796.997 1660.44 822.117 1648.98 846.324C1809.35 918.031 1955.05 1022.39 2051.49 1172.66C2064.55 1145.94 2077.84 1119.45 2091.13 1092.5C1984.37 944.749 1837.07 843.812 1683.35 774.16Z" fill="#4D6A6D"/>
<path d="M2910.12 759.084C2996.2 750.61 3083.02 753.605 3168.3 767.99C3174.49 742.641 3180.45 717.749 3185.94 693.086C3092.39 676.296 2996.96 672.377 2902.33 681.439C2824.45 689.086 2747.63 705.167 2673.24 729.396C2662.93 760.454 2652.4 791.968 2641.4 823.94C2727.51 789.959 2817.96 768.129 2910.12 759.084V759.084Z" fill="#4D6A6D"/>
<path d="M3262.23 710.442C3256.73 734.878 3250.77 759.541 3244.59 784.89C3478.49 842.895 3705.52 986.994 3923.15 1216.04C3933.23 1188.18 3942.62 1160.78 3951.79 1133.83C3705.52 883.772 3468.18 762.281 3262.23 710.442Z" fill="#4D6A6D"/>
<path d="M2749.76 1033.13C2835.83 1024.65 2922.66 1027.65 3007.94 1042.03C3014.13 1016.69 3020.08 991.794 3025.58 967.13C2932.02 950.341 2836.59 946.422 2741.97 955.484C2664.08 963.131 2587.27 979.211 2512.88 1003.44C2502.57 1034.5 2492.03 1066.01 2481.04 1097.98C2567.14 1064 2657.59 1042.17 2749.76 1033.13V1033.13Z" fill="#4D6A6D"/>
<path d="M3101.86 984.487C3141.97 994.55 3181.51 1006.75 3220.3 1021.03L3201.75 1095.7C3163.35 1081.1 3124.1 1068.83 3084.22 1058.93C3090.41 1033.59 3096.37 1008.92 3101.86 984.487Z" fill="#4D6A6D"/>
<path d="M3791.42 1407.88C3782.26 1434.83 3772.87 1462.23 3762.79 1490.09C3606.09 1324.98 3444.74 1204.26 3278.72 1127.9L3312.86 1059.62C3492.16 1145.96 3654.3 1263.95 3791.42 1407.88V1407.88Z" fill="#4D6A6D"/>
<path d="M2497.76 1626.88C2583.84 1618.41 2670.66 1621.4 2755.94 1635.79C2762.13 1610.44 2768.09 1585.55 2773.58 1560.88C2680.03 1544.09 2584.6 1540.18 2489.97 1549.24C2412.09 1556.88 2335.27 1572.96 2260.88 1597.19C2250.57 1628.25 2240.04 1659.77 2229.04 1691.74C2315.15 1657.76 2405.6 1635.93 2497.76 1626.88V1626.88Z" fill="#4D6A6D"/>
<path d="M2849.87 1578.24C2844.37 1602.68 2838.41 1627.34 2832.23 1652.69C3066.13 1710.69 3293.16 1854.79 3510.79 2083.84C3520.87 2055.98 3530.26 2028.58 3539.43 2001.63C3293.16 1751.57 3055.82 1630.08 2849.87 1578.24Z" fill="#4D6A6D"/>
<path d="M2360.31 1900.92C2446.38 1892.44 2533.21 1895.44 2618.49 1909.82C2624.68 1884.47 2630.63 1859.58 2636.13 1834.92C2542.57 1818.13 2447.14 1814.21 2352.52 1823.27C2274.63 1830.92 2197.82 1847 2123.43 1871.23C2113.12 1902.29 2102.58 1933.8 2091.58 1965.77C2177.69 1931.79 2268.14 1909.96 2360.31 1900.92V1900.92Z" fill="#4D6A6D"/>
<path d="M2712.41 1852.27C2828.05 1882 2938.83 1928.06 3041.39 1989.07L3007.02 2057.8C2910.01 1998.97 2804.78 1954.8 2694.77 1926.72C2700.96 1901.37 2706.92 1876.71 2712.41 1852.27Z" fill="#4D6A6D"/>
<path d="M3401.97 2275.66C3392.81 2302.61 3383.42 2330.02 3373.34 2357.88C3287.07 2265.81 3191.57 2182.79 3088.35 2110.1L3126.61 2043.42C3225.79 2111.67 3318.02 2189.46 3401.97 2275.66V2275.66Z" fill="#4D6A6D"/>
<path d="M3040.24 512.682C3266.12 495.326 3486.96 553.788 3700.25 686.24C3707.12 659.293 3713.3 633.259 3719.26 607.91C3450.77 448.054 3209.08 420.879 3029.93 435.266C2934.19 443.117 2839.9 463.543 2749.53 496.011C2739.9 526.612 2729.82 558.812 2719.06 592.382C2820.94 548.23 2929.48 521.295 3040.24 512.682V512.682Z" fill="#4D6A6D"/>
<path d="M3789.13 651.98C3782.72 677.557 3776.3 704.048 3769.2 731.452C3856.12 792.798 3937.53 861.568 4012.49 936.981C4020.97 907.522 4028.76 878.519 4035.4 850.887C3959.36 777.467 3876.95 710.905 3789.13 651.98Z" fill="#4D6A6D"/>
<path d="M2405.89 1295.29C2473.56 1271 2543.47 1253.41 2614.59 1242.76L2586.41 1326.8C2513.91 1340.62 2443.15 1362.37 2375.42 1391.66C2386.19 1358.09 2396.27 1325.89 2405.89 1295.29Z" fill="#4D6A6D"/>
<path d="M3375.63 1407.19C3369.67 1432.54 3363.49 1458.57 3356.61 1485.52C3143.33 1353.07 2922.49 1294.6 2696.61 1311.96C2692.03 1312.42 2687.21 1312.65 2682.63 1313.33L2709.44 1232.95C2886.06 1222.67 3118.59 1254.18 3375.63 1407.19Z" fill="#4D6A6D"/>
<path d="M3445.5 1451.26C3439.08 1476.84 3432.67 1503.33 3425.57 1530.74C3512.49 1592.08 3593.89 1660.85 3668.86 1736.27C3677.34 1706.81 3685.12 1677.8 3691.77 1650.17C3615.73 1576.75 3533.32 1510.19 3445.5 1451.26V1451.26Z" fill="#4D6A6D"/>
</svg>
