<svg width="497" height="500" viewBox="0 0 497 500" fill="none" xmlns="http://www.w3.org/2000/svg">
<path d="M263.925 413.525C263.925 413.525 220.885 446.141 220.885 483.906C220.885 488.075 218.179 492.122 212.646 495.31C201.701 501.563 184.116 501.563 173.295 495.31C167.884 492.122 165.178 488.075 165.178 483.906C165.178 483.661 163.703 463.062 169.851 442.83C151.57 442.497 133.527 438.624 116.727 431.427C51.0604 403.225 18.5958 332.231 44.2969 272.64L282.125 374.656L263.925 413.525Z" fill="#171C22"/>
<path d="M140.83 426.647C142.072 427.842 143.432 428.91 144.888 429.835C146.25 430.809 147.689 431.67 149.192 432.41C150.668 433.145 152.266 433.881 153.865 434.494C155.463 435.113 157.108 435.605 158.784 435.965C159.272 436.054 159.776 435.95 160.189 435.676C160.602 435.401 160.892 434.977 160.997 434.494C161.04 434.189 161.019 433.879 160.934 433.584C160.849 433.288 160.703 433.013 160.505 432.777C159.263 431.582 157.904 430.514 156.447 429.589C155.086 428.615 153.646 427.754 152.143 427.014C150.668 426.279 149.069 425.543 147.593 424.93C145.995 424.311 144.35 423.819 142.675 423.459C142.439 423.408 142.196 423.406 141.96 423.453C141.724 423.501 141.501 423.597 141.305 423.736C141.108 423.874 140.942 424.052 140.818 424.257C140.694 424.463 140.614 424.692 140.584 424.93C140.489 425.216 140.461 425.519 140.504 425.817C140.546 426.115 140.658 426.399 140.83 426.647V426.647Z" fill="#4E535A"/>
<path d="M68.3995 382.505C72.8827 386.302 77.562 389.862 82.4183 393.172C87.2142 396.605 92.1331 399.793 97.0519 402.859C101.971 405.924 107.013 408.99 112.177 411.687C117.342 414.507 122.507 417.205 127.795 419.657C128.215 419.855 128.695 419.887 129.138 419.749C129.581 419.61 129.956 419.311 130.189 418.91C130.421 418.508 130.493 418.035 130.391 417.583C130.29 417.131 130.021 416.733 129.639 416.469C124.844 413.159 119.925 410.093 115.006 407.028L100.249 397.832L85.4925 388.635C80.4507 385.693 75.6548 382.505 70.49 379.684C70.2984 379.564 70.0839 379.484 69.8599 379.449C69.6359 379.414 69.4071 379.426 69.1879 379.484C68.9687 379.541 68.7637 379.643 68.5858 379.783C68.4078 379.923 68.2607 380.098 68.1535 380.298C67.9787 380.65 67.9089 381.046 67.9525 381.437C67.9961 381.828 68.1512 382.199 68.3995 382.505V382.505Z" fill="#4E535A"/>
<path d="M217.687 446.389C215.509 449.219 213.691 452.308 212.277 455.585C210.779 458.819 209.585 462.185 208.71 465.639C207.828 469.097 207.252 472.626 206.989 476.184C206.762 479.7 206.844 483.228 207.235 486.729C207.265 486.967 207.345 487.196 207.469 487.402C207.593 487.607 207.759 487.785 207.955 487.923C208.152 488.062 208.375 488.158 208.611 488.206C208.847 488.253 209.09 488.252 209.325 488.2C209.692 488.134 210.03 487.958 210.294 487.695C210.557 487.432 210.734 487.095 210.801 486.729C211.293 483.418 211.785 480.108 212.4 476.797C212.907 473.531 213.605 470.296 214.49 467.111C215.351 463.923 216.212 460.735 217.195 457.547C218.179 454.359 219.409 451.293 220.639 448.105C220.712 447.888 220.742 447.658 220.726 447.429C220.711 447.2 220.649 446.977 220.547 446.772C220.444 446.566 220.301 446.384 220.127 446.234C219.953 446.084 219.751 445.97 219.532 445.898C219.21 445.795 218.865 445.787 218.538 445.874C218.211 445.961 217.916 446.14 217.687 446.389V446.389Z" fill="#4E535A"/>
<path d="M193.585 462.817C192.731 464.697 192.111 466.673 191.74 468.703C191.366 470.729 191.12 472.777 191.002 474.834C190.898 476.88 190.98 478.933 191.248 480.964C191.51 483.005 191.962 485.017 192.601 486.973C192.681 487.199 192.805 487.407 192.966 487.584C193.127 487.762 193.322 487.907 193.539 488.009C193.756 488.112 193.991 488.171 194.232 488.182C194.472 488.194 194.712 488.158 194.938 488.076C195.244 487.945 195.516 487.743 195.729 487.488C195.943 487.232 196.093 486.929 196.167 486.605V486.605C196.413 484.643 196.536 482.681 196.659 480.719C196.782 478.757 196.782 476.918 196.905 474.956C196.905 472.994 197.028 471.155 197.028 469.193C197.028 467.232 197.028 465.27 196.905 463.308C196.881 463.074 196.811 462.848 196.699 462.641C196.587 462.434 196.436 462.252 196.253 462.104C196.07 461.956 195.86 461.845 195.634 461.778C195.409 461.711 195.172 461.689 194.938 461.714C194.382 461.932 193.909 462.318 193.585 462.817V462.817Z" fill="#4E535A"/>
<path d="M175.754 458.037C174.898 460.085 174.279 462.224 173.909 464.413C173.441 466.592 173.154 468.807 173.048 471.034C172.925 473.28 172.925 475.531 173.048 477.778C173.148 480.031 173.562 482.259 174.278 484.399C174.442 484.858 174.773 485.24 175.206 485.467C175.639 485.694 176.142 485.751 176.615 485.625C176.932 485.51 177.213 485.314 177.429 485.055C177.645 484.797 177.789 484.486 177.844 484.154V484.154C178.213 482.069 178.336 479.862 178.582 477.778C178.705 475.693 178.951 473.609 179.074 471.524C179.197 469.44 179.32 467.355 179.32 465.148C179.402 462.981 179.361 460.812 179.197 458.65V458.65C179.173 458.416 179.103 458.189 178.991 457.983C178.879 457.776 178.728 457.594 178.545 457.446C178.362 457.298 178.152 457.187 177.926 457.12C177.7 457.053 177.464 457.031 177.23 457.056C176.909 457.03 176.589 457.113 176.321 457.291C176.053 457.469 175.854 457.732 175.754 458.037V458.037Z" fill="#4E535A"/>
<path d="M46.8794 345.721C52.2901 349.89 57.7009 353.937 63.2347 357.983C68.7684 362.029 74.3021 365.83 79.9588 369.631C91.1492 377.234 102.709 384.59 114.391 391.702C120.171 395.258 126.073 398.691 131.976 402.002C138.002 405.312 143.904 408.623 149.93 411.689C152.881 413.283 155.955 414.754 159.03 416.348C162.104 417.942 165.055 419.413 168.13 420.885C174.278 423.827 180.427 426.648 186.698 429.345C187.139 429.517 187.63 429.511 188.067 429.328C188.503 429.145 188.85 428.799 189.035 428.364C189.2 427.97 189.217 427.529 189.081 427.123C188.945 426.717 188.667 426.374 188.297 426.157C185.346 424.563 182.271 422.969 179.32 421.498C176.369 420.026 173.294 418.31 170.343 416.716L165.916 414.386L161.489 411.934C158.538 410.34 155.464 408.746 152.635 407.029C140.83 400.408 129.148 393.664 117.588 386.675C106.029 379.686 94.4695 372.574 83.0331 365.34C77.2534 361.784 71.5967 357.983 66.063 354.427C60.5293 350.871 54.7496 346.947 49.0929 343.269C48.6992 343.017 48.2226 342.927 47.7637 343.018C47.3048 343.11 46.8995 343.376 46.6334 343.759C46.1416 344.127 46.2645 345.108 46.8794 345.721Z" fill="#4E535A"/>
<path d="M85.4925 350.502C95.3302 357.369 105.291 363.99 115.498 370.243C125.704 376.619 136.034 382.628 146.364 388.513C156.816 394.399 167.392 400.039 178.09 405.434C188.789 410.829 199.487 415.979 210.555 420.761C210.981 420.943 211.46 420.956 211.895 420.796C212.33 420.637 212.686 420.317 212.891 419.903C213.064 419.477 213.071 419.003 212.912 418.572C212.753 418.141 212.439 417.785 212.031 417.573L180.55 400.652C170.097 395.012 159.645 389.249 149.192 383.363C138.862 377.478 128.41 371.592 118.08 365.707L87.2141 347.559C87.0225 347.439 86.8081 347.359 86.584 347.324C86.36 347.289 86.1312 347.301 85.912 347.359C85.6928 347.416 85.4878 347.518 85.3099 347.658C85.1319 347.798 84.9848 347.973 84.8776 348.173V348.173C84.7057 348.574 84.6729 349.021 84.7842 349.443C84.8956 349.865 85.1448 350.237 85.4925 350.502Z" fill="#4E535A"/>
<path d="M43.3132 321.563C45.2417 323.609 47.2951 325.533 49.4618 327.326C51.5523 329.043 53.7658 330.759 56.1022 332.353C58.4387 333.947 60.7752 335.419 63.1117 336.89C65.4481 338.362 68.0305 339.588 70.49 340.814C70.9496 340.974 71.452 340.964 71.9041 340.783C72.3563 340.603 72.7277 340.265 72.9494 339.833C73.08 339.505 73.1147 339.146 73.0494 338.799C72.9841 338.452 72.8215 338.13 72.5805 337.871V337.871C70.6053 335.944 68.5107 334.142 66.3089 332.476C64.0954 330.759 61.8819 329.165 59.6684 327.571C57.4549 325.977 55.1185 324.506 52.782 323.035C50.4456 321.563 47.9861 320.214 45.5266 318.988C45.3271 318.873 45.1057 318.801 44.8766 318.776C44.6475 318.751 44.4158 318.774 44.196 318.843C43.9763 318.913 43.7734 319.027 43.6003 319.178C43.4271 319.33 43.2874 319.516 43.1902 319.724C42.9728 319.989 42.8646 320.326 42.8874 320.668C42.9102 321.009 43.0624 321.329 43.3132 321.563V321.563Z" fill="#4E535A"/>
<path d="M2.60938 204.835C6.17557 196.988 -13.377 155.053 19.2106 107.969C20.5869 105.648 22.1936 103.471 24.0065 101.47L24.1295 101.225H24.2525C29.3331 95.5871 35.7029 91.2547 42.8212 88.5955L43.1901 88.4729C50.5684 85.5301 53.3968 83.5683 56.2252 78.6637C56.5941 77.8054 57.086 77.0697 57.4549 76.334L57.8238 75.5983C62.562 67.3433 69.3997 60.4801 77.6471 55.701C85.8945 50.9219 95.2601 48.3958 104.799 48.3776H105.414C106.064 48.2549 106.731 48.2549 107.381 48.3776C107.75 48.3776 108.242 48.5002 108.611 48.5002C109.395 48.5212 110.176 48.6032 110.948 48.7455C119.567 49.011 128.074 46.7516 135.419 42.2468H135.542C137.018 41.3885 138.616 40.5302 140.215 39.7945L140.338 39.6719C149.355 35.8842 157.387 30.0973 163.826 22.751C164.317 22.1379 164.932 21.4022 165.424 20.7891C165.547 20.5439 165.793 20.4213 165.916 20.176C174.81 10.4974 186.547 3.87322 199.448 1.25222C212.348 -1.36879 225.749 0.1478 237.732 5.58479C238.213 5.71386 238.67 5.92098 239.084 6.19787C239.33 6.32048 239.453 6.4431 239.699 6.56572C240.929 7.17879 242.036 7.79187 243.142 8.40495C250.165 11.9574 258.211 12.9548 265.892 11.2251C267.164 10.7285 268.482 10.3589 269.827 10.1216H269.95C270.674 9.89991 271.414 9.73591 272.164 9.63111C274.439 9.23919 276.742 9.03414 279.05 9.01803C289.614 9.03437 299.774 13.0689 307.457 20.2987C308.202 20.8574 308.864 21.5178 309.424 22.2605C314.343 28.7591 322.459 32.1924 333.404 29.8627C333.848 29.7664 334.302 29.7252 334.757 29.7401C337.486 29.3485 340.239 29.1436 342.996 29.127C353.412 29.1395 363.629 31.9756 372.553 37.332C381.478 42.6883 388.773 50.3633 393.66 59.5356C393.783 59.7809 394.029 60.1487 394.152 60.394C399.194 70.6937 404.728 76.8244 413.336 82.0969C414.073 82.4648 414.688 82.8326 415.303 83.2004C415.918 83.5683 416.533 83.9361 417.271 84.304C417.85 84.6001 418.388 84.9711 418.869 85.4075C444.428 101.337 462.807 126.518 470.149 155.666C470.385 156.3 470.55 156.958 470.641 157.628C470.641 157.873 470.764 158.119 470.764 158.364V158.486C472.977 169.767 479.495 179.454 485.52 187.546C486.012 188.159 486.504 188.772 486.996 189.508L487.119 189.631C487.892 190.704 488.551 191.855 489.086 193.064C495.863 204.732 498.178 218.451 495.604 231.688C495.499 232.556 495.335 233.417 495.112 234.263V234.385C494.978 235.154 494.729 235.898 494.374 236.593V236.715C494.113 237.392 493.907 238.089 493.759 238.8C493.347 240.442 493.181 242.136 493.267 243.827C488.594 266.633 485.397 281.347 489.578 300.23C494.128 320.462 479.249 341.674 456.499 344.862C454.9 344.985 453.424 345.107 451.949 345.23H451.826C450.952 345.232 450.083 345.356 449.243 345.598C439.406 347.437 431.29 352.219 428.215 359.944L427.969 360.557C427.723 361.17 427.6 361.66 427.354 362.273C427.032 363.425 426.578 364.536 426.002 365.584C422.12 374.286 415.867 381.726 407.954 387.058C400.04 392.391 390.785 395.402 381.24 395.748C380.672 395.849 380.095 395.89 379.518 395.87C378.289 395.87 377.182 395.748 375.952 395.748C368.347 395.629 360.944 398.191 355.047 402.982L354.801 403.227C349.676 408.396 343.242 412.083 336.183 413.896C329.124 415.71 321.704 415.582 314.712 413.527C314.22 413.404 313.728 413.282 313.359 413.159L312.991 413.036C312.868 413.036 312.868 413.036 312.745 412.914C304.997 409.358 298.111 412.546 290.61 416.96C290.364 417.083 289.995 417.205 289.749 417.328C288.995 417.745 288.214 418.114 287.412 418.431C260.482 430.938 211.293 418.186 189.65 388.636L189.404 388.391C188.319 387.293 187.331 386.103 186.452 384.835C180.919 379.194 175.631 377.723 171.327 376.129C165.438 374.633 160.103 371.484 155.955 367.055C154.114 365.473 152.645 363.505 151.651 361.293C151.651 361.26 151.638 361.229 151.615 361.206C151.592 361.183 151.561 361.17 151.528 361.17C148.331 354.058 141.814 353.936 135.296 354.181C133.82 354.303 132.222 354.426 130.746 354.426C121.263 354.421 112.048 351.293 104.531 345.528C97.015 339.763 91.6189 331.684 89.1816 322.546C89.1816 322.423 89.0587 322.301 89.0587 322.178C88.9357 321.565 88.8127 321.075 88.6897 320.462C88.6897 320.339 88.6897 320.216 88.5668 320.216C86.5992 312.982 80.6966 311.756 76.8844 311.388H76.7615C65.078 310.381 53.8904 306.219 44.4007 299.349C34.911 292.48 27.4778 283.162 22.8998 272.396C22.5545 271.917 22.3041 271.376 22.1619 270.802C21.4241 268.84 20.6863 266.756 20.0714 264.672C17.953 258.67 15.1906 252.915 11.8323 247.505C10.2644 245.817 8.82569 244.013 7.52826 242.11V241.865C4.17841 236.832 1.94147 231.145 0.966143 225.183C-0.00918114 219.222 0.29945 213.121 1.87154 207.287C2.02618 206.445 2.27363 205.623 2.60938 204.835Z" fill="#E24444"/>
<path d="M285.076 309.306C285.937 307.957 286.552 306.485 287.289 305.137C287.904 303.665 288.519 302.317 289.011 300.845C290.115 297.968 291.019 295.018 291.716 292.017C293.186 286.07 294.051 279.99 294.299 273.87C294.606 267.607 294.359 261.329 293.561 255.11C292.711 248.556 290.931 242.157 288.273 236.104C287.274 233.93 285.852 231.975 284.09 230.352C282.328 228.729 280.261 227.471 278.008 226.65C275.755 225.829 273.361 225.462 270.965 225.569C268.569 225.676 266.218 226.257 264.048 227.276C261.665 228.386 259.545 229.987 257.828 231.974C256.111 233.961 254.836 236.288 254.087 238.802L253.595 240.641C252.316 245.606 251.331 250.642 250.644 255.723C250.029 260.75 249.537 265.9 249.045 271.172C248.612 276.474 248.489 281.796 248.676 287.112C248.799 289.81 248.922 292.507 249.168 295.327C249.439 298.173 249.89 300.999 250.521 303.788L250.767 304.646C251.361 307.031 252.422 309.275 253.888 311.251C255.354 313.226 257.196 314.894 259.31 316.158C261.423 317.422 263.765 318.258 266.203 318.618C268.641 318.979 271.126 318.856 273.517 318.257C278.363 316.832 282.492 313.635 285.076 309.306Z" fill="#ECECEC"/>
<path d="M455.392 275.218C456.253 273.869 456.868 272.398 457.606 271.049C458.22 269.577 458.835 268.229 459.327 266.757C460.414 263.874 461.318 260.925 462.033 257.929C463.502 251.982 464.368 245.902 464.615 239.782C464.983 233.519 464.736 227.236 463.877 221.022C463.043 214.465 461.262 208.064 458.589 202.016C457.025 198.65 454.463 195.841 451.25 193.969C448.037 192.098 444.326 191.252 440.616 191.545C436.906 191.839 433.376 193.259 430.499 195.613C427.623 197.967 425.538 201.143 424.526 204.714L424.034 206.553C422.755 211.518 421.77 216.554 421.083 221.635C420.345 226.662 419.853 231.812 419.484 237.084C419.054 242.345 418.931 247.627 419.115 252.902C419.115 255.599 419.361 258.297 419.607 261.117C419.878 263.963 420.33 266.789 420.96 269.577L421.206 270.436C421.793 272.812 422.845 275.05 424.3 277.02C425.756 278.991 427.587 280.656 429.688 281.92C431.79 283.184 434.121 284.023 436.548 284.387C438.975 284.752 441.451 284.636 443.833 284.046C448.685 282.704 452.828 279.54 455.392 275.218V275.218Z" fill="#ECECEC"/>
<path d="M260.359 293.609V292.873C260.359 292.628 260.482 292.26 260.482 292.015C260.605 291.402 260.727 290.911 260.85 290.298C260.973 289.808 261.219 289.317 261.342 288.827C261.465 288.459 261.711 287.968 261.834 287.601C261.964 287.196 262.173 286.821 262.449 286.497C262.818 285.884 263.187 285.271 263.556 284.78L264.663 283.309C265.892 281.715 265.646 280.612 264.54 278.772C263.763 277.571 263.104 276.298 262.572 274.971L262.203 273.868C262.08 273.5 261.957 273.132 261.834 272.642C261.551 271.642 261.386 270.614 261.342 269.576C261.24 268.385 261.323 267.186 261.588 266.02C261.711 265.407 261.834 265.039 261.957 264.549C262.066 264.081 262.231 263.628 262.449 263.2C263.453 260.984 264.825 258.953 266.507 257.192C266.876 256.824 267.122 256.456 267.368 256.211C268.844 254.617 268.106 253.759 267.491 252.655L267.122 251.919C266.999 251.674 266.63 251.061 266.384 250.571C266.138 250.08 265.892 249.59 265.646 248.977C265.054 247.538 264.761 245.995 264.786 244.44C264.554 243.06 264.876 241.644 265.681 240.497C266.486 239.351 267.71 238.565 269.09 238.309C269.458 238.309 269.827 238.187 270.073 238.187H270.688C275.73 238.677 282.248 243.582 285.322 251.797C285.467 252.073 285.59 252.36 285.691 252.655V252.778C285.691 252.9 285.691 252.9 285.814 253.023C285.937 253.268 285.937 253.513 286.06 253.759C286.495 255.227 286.622 256.769 286.432 258.288C286.241 259.807 285.738 261.271 284.953 262.587L284.83 262.832L284.584 263.323L284.338 263.691C283.9 264.578 283.407 265.438 282.862 266.265V266.265C282.43 266.904 282.209 267.661 282.231 268.431C282.253 269.201 282.517 269.945 282.985 270.557L283.723 271.783C283.969 272.274 284.215 272.642 284.584 273.255L285.076 274.113L285.568 275.094L285.814 275.584L286.06 276.197C286.183 276.565 286.306 277.056 286.429 277.546C286.57 278.067 286.653 278.601 286.675 279.14C286.675 279.385 286.798 279.631 286.798 279.998V280.979C286.818 281.595 286.777 282.211 286.675 282.819C286.552 283.432 286.429 283.922 286.306 284.535C286.198 285.043 286.033 285.536 285.814 286.007C285.66 286.478 285.454 286.93 285.199 287.355C284.863 288.091 284.45 288.789 283.969 289.44L283.354 290.298L282.739 291.034C282.002 291.892 281.264 292.628 280.526 293.364L279.173 294.59C278.067 295.571 277.206 296.306 277.944 298.636C278.083 298.946 278.166 299.278 278.189 299.617L278.435 300.353L278.681 301.088C278.804 301.579 278.927 302.192 279.05 302.805C279.378 304.511 279.337 306.267 278.927 307.955C278.707 309.203 278.06 310.338 277.096 311.165C276.132 311.991 274.911 312.46 273.64 312.492H272.656C272.449 312.463 272.243 312.422 272.041 312.369L271.672 312.246C266.999 310.53 261.219 303.295 260.482 294.958V294.712C260.419 294.347 260.378 293.979 260.359 293.609V293.609Z" fill="#62C370"/>
<path d="M203.792 190.855C203.557 190.799 203.337 190.697 203.142 190.556C202.947 190.414 202.782 190.236 202.656 190.031C202.531 189.826 202.447 189.598 202.41 189.361C202.372 189.124 202.382 188.881 202.439 188.648V188.648C203.818 183.02 206.236 177.697 209.571 172.953C211.329 170.605 213.261 168.392 215.351 166.332V166.332L214.613 166.087C213.336 165.606 212.019 165.237 210.678 164.983C208.103 164.369 205.453 164.121 202.808 164.247C200.235 164.249 197.688 164.749 195.306 165.719C194.077 166.209 192.847 166.7 191.617 167.313C190.978 167.591 190.361 167.919 189.773 168.294C189.184 168.668 188.568 168.996 187.928 169.275L187.682 169.397C187.257 169.621 186.762 169.669 186.301 169.531C185.841 169.394 185.454 169.081 185.223 168.661C185.048 168.351 184.978 167.993 185.022 167.64C185.066 167.287 185.223 166.958 185.469 166.7C185.961 166.087 186.575 165.596 187.067 164.983C187.58 164.39 188.158 163.855 188.789 163.389L190.756 161.918C191.426 161.464 192.124 161.054 192.847 160.691C194.332 159.939 195.9 159.363 197.52 158.975C198.381 158.73 199.119 158.73 199.979 158.484C200.792 158.342 201.614 158.26 202.439 158.239C205.749 158.159 209.044 158.7 212.154 159.833C212.891 160.201 213.629 160.446 214.367 160.814C215.105 161.182 215.843 161.55 216.458 161.918C217.224 162.408 217.963 162.94 218.671 163.512C219.77 162.665 220.92 161.887 222.114 161.182C227.158 158.213 232.699 156.177 238.47 155.174C241.318 154.706 244.193 154.419 247.078 154.315C249.963 154.312 252.843 154.558 255.686 155.051C256.137 155.158 256.529 155.435 256.781 155.823C257.033 156.211 257.125 156.681 257.038 157.136C256.951 157.524 256.732 157.87 256.418 158.115C256.104 158.361 255.716 158.491 255.317 158.484H255.194C252.562 158.464 249.932 158.628 247.324 158.975C244.71 159.287 242.122 159.779 239.576 160.446C234.506 161.659 229.653 163.644 225.189 166.332C220.793 169.007 216.884 172.407 213.629 176.386C210.348 180.511 207.619 185.046 205.513 189.874V189.874C205.636 190.732 204.652 191.1 203.792 190.855Z" fill="#9E2F2F"/>
<path d="M356.891 61.2518H356.768C354.885 60.5103 352.955 59.8959 350.989 59.4125C349.009 58.8745 346.996 58.4649 344.963 58.1864C341.011 57.5733 336.987 57.5733 333.035 58.1864C329.129 58.7967 325.349 60.0392 321.844 61.8648C318.279 63.8262 314.939 66.1698 311.884 68.8539C311.724 69.0374 311.529 69.1872 311.311 69.2945C311.092 69.4019 310.854 69.4646 310.611 69.4789C310.367 69.4932 310.124 69.459 309.894 69.3781C309.664 69.2972 309.453 69.1714 309.273 69.0079C309.092 68.8445 308.947 68.6468 308.844 68.4264C308.742 68.206 308.684 67.9674 308.675 67.7246C308.667 67.4818 308.707 67.2396 308.793 67.0125C308.879 66.7853 309.01 66.5776 309.178 66.4016C313.135 60.7121 318.763 56.3855 325.288 54.0174C331.861 51.5764 339.025 51.1914 345.824 52.9139C348.052 53.4229 350.232 54.1202 352.342 54.9984C354.475 55.858 356.498 56.9695 358.367 58.309C358.725 58.6025 358.951 59.0252 358.997 59.4846C359.043 59.944 358.905 60.403 358.613 60.7613C358.386 60.9739 358.111 61.1294 357.812 61.2147C357.512 61.3 357.197 61.3127 356.891 61.2518V61.2518Z" fill="#9E2F2F"/>
<path d="M117.342 88.84C121.001 86.1167 125.126 84.0808 129.516 82.8318C131.765 82.2164 134.074 81.8464 136.403 81.7283C138.746 81.606 141.095 81.7293 143.412 82.0962C148.025 82.8399 152.451 84.4635 156.447 86.8782C158.416 88.0029 160.269 89.317 161.981 90.8019C163.731 92.2821 165.337 93.9243 166.777 95.7065C167.069 96.0648 167.207 96.5238 167.161 96.9832C167.115 97.4426 166.888 97.8652 166.531 98.1588C166.212 98.3976 165.823 98.5266 165.424 98.5266C165.025 98.5266 164.637 98.3976 164.318 98.1588L164.195 98.0362C162.593 96.7809 160.908 95.6339 159.153 94.603C157.459 93.5036 155.692 92.5204 153.865 91.6602C150.29 89.9267 146.477 88.7285 142.552 88.1043C138.634 87.5319 134.651 87.5733 130.746 88.2269C126.765 89.0666 122.888 90.3413 119.187 92.028V92.028C118.97 92.1269 118.735 92.1798 118.497 92.1834C118.259 92.187 118.022 92.1413 117.803 92.0491C117.583 91.9569 117.385 91.8202 117.221 91.6477C117.057 91.4753 116.931 91.2707 116.85 91.0471C116.703 90.6722 116.671 90.2619 116.759 89.8687C116.846 89.4755 117.049 89.1174 117.342 88.84V88.84Z" fill="#9E2F2F"/>
<path d="M255.194 371.346C256.835 372.681 258.56 373.91 260.359 375.025C262.052 376.124 263.819 377.107 265.646 377.967C269.216 379.74 273.028 380.979 276.96 381.646C280.871 382.259 284.854 382.259 288.765 381.646C292.757 380.905 296.64 379.669 300.324 377.967V377.967C300.541 377.869 300.776 377.816 301.014 377.812C301.253 377.809 301.489 377.854 301.709 377.946C301.928 378.039 302.126 378.175 302.29 378.348C302.454 378.52 302.58 378.725 302.661 378.948C302.839 379.31 302.874 379.724 302.761 380.11C302.647 380.496 302.392 380.825 302.046 381.033C296.504 385.22 289.81 387.616 282.862 387.899C273.503 388.099 264.413 384.772 257.407 378.581C255.663 377.087 254.096 375.4 252.734 373.553C252.496 373.258 252.365 372.89 252.365 372.511C252.365 372.132 252.496 371.764 252.734 371.469C253.06 371.155 253.488 370.969 253.941 370.947C254.393 370.924 254.838 371.066 255.194 371.346V371.346Z" fill="#9E2F2F"/>
<path d="M161.12 284.782C161.267 283.991 161.473 283.212 161.735 282.452L162.596 280.245C162.958 279.484 163.369 278.747 163.826 278.038C164.668 276.592 165.657 275.236 166.777 273.991C167.392 273.378 168.007 272.888 168.622 272.275C169.216 271.708 169.876 271.214 170.589 270.803C173.292 268.942 176.346 267.649 179.566 267.002C180.336 266.829 181.116 266.707 181.902 266.635C182.718 266.533 183.54 266.492 184.362 266.512C185.968 266.512 187.571 266.635 189.158 266.88C189.391 266.914 189.614 266.998 189.812 267.125C190.01 267.252 190.179 267.42 190.306 267.617C190.434 267.814 190.519 268.037 190.554 268.269C190.589 268.501 190.574 268.738 190.511 268.964C190.446 269.298 190.283 269.605 190.042 269.846C189.801 270.086 189.493 270.249 189.158 270.313H188.912C187.682 270.558 186.207 270.803 184.854 271.171C183.501 271.539 182.271 271.907 180.919 272.275C178.442 273.162 176.087 274.357 173.909 275.831C171.74 277.259 169.828 279.042 168.253 281.103C167.431 282.148 166.691 283.255 166.039 284.414C165.664 285 165.335 285.615 165.055 286.253C164.686 286.866 164.44 287.479 164.072 288.092L163.949 288.337C163.758 288.716 163.436 289.013 163.044 289.175C162.651 289.336 162.213 289.352 161.81 289.218C161.407 289.084 161.065 288.809 160.849 288.445C160.632 288.081 160.553 287.651 160.628 287.234C160.84 286.427 161.004 285.608 161.12 284.782V284.782Z" fill="#9E2F2F"/>
<path d="M383.699 122.559H383.453C383.092 122.555 382.738 122.449 382.434 122.254C382.129 122.059 381.886 121.782 381.732 121.456C381.559 121.016 381.565 120.527 381.749 120.092C381.933 119.657 382.28 119.31 382.716 119.126C383.453 118.881 384.191 118.513 384.929 118.268C385.687 117.991 386.469 117.786 387.266 117.655L389.725 117.287C390.541 117.185 391.363 117.144 392.184 117.164C393.838 117.139 395.488 117.304 397.103 117.655C397.904 117.826 398.686 118.072 399.44 118.39C400.238 118.622 401.018 118.909 401.776 119.249C404.766 120.616 407.444 122.577 409.646 125.012C410.138 125.625 410.753 126.238 411.245 126.851C411.765 127.455 412.219 128.112 412.598 128.813C413.466 130.154 414.167 131.595 414.688 133.104C414.871 133.529 414.884 134.007 414.724 134.44C414.564 134.874 414.243 135.229 413.828 135.434C413.465 135.611 413.05 135.647 412.663 135.533C412.275 135.42 411.945 135.166 411.737 134.821L411.614 134.698C410.777 133.66 409.874 132.677 408.909 131.755C407.925 130.897 406.941 129.794 405.957 128.935C403.976 127.208 401.735 125.801 399.317 124.766C396.955 123.647 394.418 122.942 391.816 122.682C390.463 122.559 389.11 122.437 387.757 122.437C387.058 122.416 386.359 122.457 385.667 122.559C385.013 122.498 384.354 122.498 383.699 122.559V122.559Z" fill="#9E2F2F"/>
<path d="M282.616 30.9666H282.37C281.51 31.0892 280.403 31.2118 279.419 31.3344C278.424 31.4798 277.438 31.6846 276.468 31.9475C274.642 32.4181 272.87 33.0755 271.18 33.9093C270.744 34.1087 270.332 34.3555 269.95 34.645L268.844 35.3807L267.737 36.239C267.517 36.3355 267.342 36.5105 267.245 36.7295L266.753 37.22L265.646 38.3235C266.921 38.794 268.155 39.3682 269.335 40.0401C270.058 40.4028 270.757 40.8124 271.426 41.2663C272.132 41.6867 272.791 42.1799 273.394 42.7377C274.661 43.7562 275.815 44.9072 276.837 46.1709C277.085 46.4855 277.215 46.876 277.207 47.2759C277.198 47.6758 277.051 48.0604 276.79 48.3641C276.529 48.6678 276.17 48.8719 275.775 48.9415C275.38 49.0111 274.973 48.9419 274.623 48.7458V48.7458L274.377 48.6232C273.23 47.8969 272.039 47.2418 270.811 46.6614C269.581 46.0483 268.352 45.4352 267.122 44.9447C264.668 43.9909 262.108 43.3323 259.498 42.9829C256.915 42.615 254.286 42.7399 251.75 43.3507C250.462 43.6051 249.189 43.9326 247.938 44.3317C247.323 44.5769 246.586 44.8221 245.971 45.0674C245.356 45.3126 244.618 45.5578 244.003 45.8031L243.757 45.9257C243.532 46.0133 243.291 46.0541 243.049 46.0455C242.807 46.037 242.569 45.9793 242.351 45.876C242.132 45.7726 241.937 45.6259 241.777 45.4447C241.617 45.2635 241.496 45.0516 241.421 44.8221C241.31 44.482 241.297 44.1177 241.384 43.7708C241.471 43.4239 241.654 43.1084 241.913 42.8603L243.757 41.3889C244.384 40.8981 245.041 40.4476 245.725 40.0401L247.938 38.9366C248.688 38.5772 249.47 38.2898 250.275 38.0783C251.844 37.5945 253.447 37.2257 255.071 36.9747C255.932 36.8521 256.792 36.9747 257.53 36.8521C258.352 36.8286 259.174 36.8696 259.99 36.9747L260.481 37.0974C260.481 37.0648 260.494 37.0336 260.517 37.0106C260.541 36.9877 260.572 36.9747 260.604 36.9747C261.099 35.847 261.717 34.7777 262.449 33.7867C263.21 32.7603 264.075 31.8152 265.031 30.9666C265.988 30.1186 267.066 29.4162 268.229 28.8821C270.476 27.693 272.947 26.9831 275.484 26.7976C276.715 26.7159 277.951 26.757 279.173 26.9203C280.438 27.0304 281.68 27.3194 282.862 27.7786C283.285 27.9431 283.625 28.2672 283.809 28.6804C283.994 29.0937 284.007 29.5627 283.846 29.9856C283.773 30.2588 283.615 30.5016 283.393 30.6781C283.172 30.8547 282.9 30.9558 282.616 30.9666V30.9666Z" fill="#9E2F2F"/>
<path d="M91.3952 160.203C91.5252 159.606 91.7318 159.029 92.01 158.486C92.5008 157.33 93.1642 156.256 93.9776 155.298C94.7384 154.272 95.6038 153.326 96.56 152.478C97.517 151.63 98.5944 150.927 99.7572 150.393C102.004 149.204 104.475 148.494 107.013 148.309C108.242 148.166 109.485 148.207 110.702 148.432C111.956 148.601 113.191 148.888 114.391 149.29C114.677 149.4 114.929 149.582 115.123 149.819C115.317 150.055 115.446 150.338 115.498 150.639C115.535 150.865 115.527 151.096 115.472 151.319C115.418 151.541 115.318 151.751 115.181 151.934C115.043 152.118 114.869 152.271 114.67 152.386C114.471 152.5 114.25 152.573 114.022 152.6H113.776C112.915 152.723 111.808 152.846 110.825 152.968C109.841 153.214 108.857 153.336 107.873 153.581C106.048 154.052 104.276 154.709 102.586 155.543C102.15 155.743 101.737 155.989 101.356 156.279L100.249 157.015L99.1424 157.873C98.9227 157.969 98.7472 158.144 98.6505 158.363L98.1586 158.854C97.4408 159.488 96.7823 160.186 96.1911 160.938C95.5762 161.674 95.0843 162.532 94.3465 163.391L94.1005 163.636C93.8974 163.882 93.6239 164.061 93.3164 164.149C93.0089 164.236 92.6819 164.229 92.3789 164.126C92.1447 164.07 91.9239 163.968 91.7292 163.827C91.5344 163.686 91.3695 163.507 91.2439 163.302C91.1183 163.097 91.0344 162.87 90.997 162.632C90.9597 162.395 90.9696 162.153 91.0262 161.919C91.0772 161.334 91.2012 160.757 91.3952 160.203V160.203Z" fill="#9E2F2F"/>
<path d="M45.4036 271.171C45.6834 269.944 46.0958 268.752 46.6333 267.615C46.7339 267.409 46.8753 267.227 47.0489 267.078C47.2226 266.928 47.4248 266.816 47.6433 266.747C47.8618 266.678 48.0921 266.655 48.3201 266.677C48.5481 266.7 48.7692 266.769 48.9698 266.879C49.2458 267.02 49.4811 267.23 49.6533 267.487C49.8254 267.745 49.9288 268.042 49.9535 268.35V271.538C49.9744 272.523 50.0565 273.506 50.1995 274.481C50.4611 276.321 50.9144 278.13 51.5522 279.876C51.6947 280.293 51.8589 280.702 52.0441 281.102C52.29 281.47 52.413 281.961 52.6589 282.329L53.3968 283.555C53.5197 283.8 53.6427 283.923 53.7657 284.168L54.1346 284.781L55.9791 286.988C56.594 287.724 57.4548 288.337 58.1927 289.072L58.4386 289.318C58.6051 289.492 58.7345 289.699 58.8188 289.924C58.9031 290.15 58.9407 290.391 58.9292 290.631C58.9177 290.872 58.8574 291.108 58.7519 291.325C58.6465 291.541 58.4981 291.735 58.3156 291.893C58.0771 292.126 57.7757 292.285 57.4482 292.35C57.1207 292.415 56.7812 292.384 56.4711 292.26C55.8562 292.015 55.3643 291.893 54.7494 291.647C54.1796 291.436 53.6417 291.147 53.1508 290.789C52.0685 290.194 51.0751 289.451 50.1995 288.582C49.2164 287.749 48.3844 286.754 47.7401 285.639C46.9972 284.587 46.4169 283.43 46.0185 282.206C45.1139 279.819 44.6959 277.276 44.7887 274.726C44.9338 273.532 45.1391 272.345 45.4036 271.171V271.171Z" fill="#9E2F2F"/>
<path d="M322.582 204.22L323.689 202.749C324.498 201.798 325.404 200.935 326.394 200.174C327.411 199.378 328.527 198.719 329.715 198.212C330.908 197.733 332.143 197.363 333.404 197.109C335.883 196.597 338.444 196.639 340.905 197.231C342.126 197.486 343.32 197.856 344.471 198.335C345.602 198.827 346.675 199.444 347.669 200.174C348.04 200.453 348.287 200.866 348.356 201.325C348.425 201.784 348.311 202.251 348.038 202.626C347.846 202.863 347.602 203.053 347.325 203.181C347.047 203.308 346.744 203.37 346.439 203.362H346.193C345.332 203.239 344.225 202.994 343.242 202.872C342.264 202.729 341.278 202.647 340.29 202.626C338.397 202.504 336.495 202.628 334.634 202.994C334.169 203.059 333.714 203.183 333.281 203.362C332.912 203.485 332.42 203.607 331.928 203.73L330.698 204.22C330.453 204.343 330.207 204.343 330.084 204.466L329.469 204.833C328.608 205.324 327.747 205.814 327.009 206.305C326.149 206.795 325.411 207.531 324.55 208.021L324.304 208.144C324.102 208.265 323.878 208.345 323.646 208.38C323.413 208.415 323.175 208.403 322.947 208.346C322.718 208.289 322.503 208.188 322.314 208.048C322.125 207.908 321.965 207.732 321.845 207.531C321.664 207.258 321.568 206.938 321.568 206.611C321.568 206.284 321.664 205.965 321.845 205.692C321.962 205.147 322.215 204.641 322.582 204.22V204.22Z" fill="#9E2F2F"/>
<path d="M228.386 382.873C228.577 382.752 228.792 382.672 229.016 382.637C229.24 382.603 229.469 382.615 229.688 382.672C229.907 382.73 230.112 382.832 230.29 382.972C230.468 383.112 230.615 383.287 230.722 383.486V383.486L230.845 383.731C231.337 384.467 231.829 385.448 232.321 386.306C232.824 387.171 233.4 387.992 234.043 388.759C235.193 390.254 236.514 391.612 237.978 392.805C238.316 393.128 238.687 393.416 239.084 393.663L240.191 394.399L241.421 395.012C241.667 395.135 241.79 395.257 242.036 395.257L242.651 395.502C243.524 395.903 244.429 396.231 245.356 396.483C246.34 396.851 247.324 396.974 248.307 397.342L248.676 397.464C248.906 397.539 249.119 397.66 249.301 397.819C249.482 397.978 249.63 398.173 249.733 398.391C249.837 398.609 249.895 398.846 249.903 399.087C249.912 399.329 249.871 399.569 249.783 399.794C249.676 400.094 249.497 400.362 249.261 400.576C249.025 400.79 248.74 400.943 248.43 401.02C247.815 401.143 247.201 401.143 246.586 401.265C245.976 401.367 245.359 401.408 244.741 401.388C243.498 401.345 242.263 401.181 241.052 400.897C239.801 400.632 238.599 400.177 237.486 399.549C234.065 397.814 231.302 395.017 229.616 391.579C229.039 390.488 228.585 389.336 228.263 388.145C227.939 386.942 227.733 385.71 227.648 384.467C227.64 384.163 227.702 383.86 227.83 383.584C227.958 383.307 228.148 383.064 228.386 382.873Z" fill="#9E2F2F"/>
<path d="M169.482 335.052C169.612 334.456 169.819 333.879 170.097 333.335C170.588 332.18 171.251 331.105 172.065 330.147C172.825 329.121 173.691 328.176 174.647 327.327C175.604 326.479 176.681 325.777 177.844 325.243C180.092 324.054 182.562 323.344 185.1 323.158C186.329 323.015 187.572 323.057 188.789 323.281H189.158C189.158 321.687 189.158 320.093 189.281 318.499C189.884 313.913 191.3 309.471 193.462 305.379C194.575 303.386 195.807 301.462 197.151 299.616C198.512 297.769 200.08 296.082 201.824 294.589C202.183 294.298 202.644 294.16 203.104 294.206C203.565 294.252 203.989 294.478 204.283 294.834C204.511 295.129 204.645 295.486 204.667 295.857C204.689 296.229 204.598 296.599 204.406 296.919L204.283 297.041C203.078 298.693 201.969 300.412 200.963 302.191C199.939 303.926 199.035 305.729 198.258 307.586C196.691 311.221 195.656 315.061 195.183 318.989C194.771 322.88 194.978 326.812 195.798 330.638C196.811 334.584 198.254 338.408 200.102 342.041V342.041C200.305 342.481 200.328 342.983 200.167 343.44C200.007 343.897 199.675 344.275 199.241 344.493C198.868 344.657 198.452 344.697 198.054 344.609C197.656 344.521 197.297 344.308 197.028 344.003C194.105 340.496 191.892 336.456 190.51 332.109C190.012 330.631 189.642 329.113 189.404 327.572C189.158 327.572 188.912 327.695 188.666 327.695C187.671 327.84 186.685 328.045 185.715 328.308C183.889 328.779 182.117 329.436 180.427 330.27C179.991 330.469 179.579 330.716 179.197 331.006L178.09 331.741L176.984 332.6C176.764 332.696 176.588 332.871 176.492 333.09L176 333.581C175.282 334.215 174.623 334.912 174.032 335.665C173.417 336.401 172.925 337.259 172.188 338.117L171.942 338.363C171.739 338.609 171.465 338.788 171.158 338.875C170.85 338.963 170.523 338.955 170.22 338.853C169.986 338.797 169.765 338.695 169.57 338.554C169.376 338.412 169.211 338.234 169.085 338.029C168.959 337.824 168.876 337.596 168.838 337.359C168.801 337.122 168.811 336.879 168.867 336.646C169.178 336.161 169.387 335.619 169.482 335.052V335.052Z" fill="#9E2F2F"/>
<path d="M276.099 261.727C275.357 262.241 274.694 262.861 274.131 263.567C273.525 264.31 273.028 265.135 272.656 266.019C271.803 267.857 271.545 269.914 271.918 271.904C272.258 273.787 273.061 275.557 274.254 277.054C274.817 277.76 275.48 278.38 276.222 278.894C276.928 279.459 277.715 279.914 278.558 280.242C278.775 280.341 279.01 280.394 279.248 280.398C279.487 280.401 279.723 280.356 279.943 280.263C280.162 280.171 280.36 280.035 280.524 279.862C280.688 279.69 280.814 279.485 280.895 279.261C281.016 279.035 281.079 278.782 281.079 278.526C281.079 278.269 281.016 278.016 280.895 277.79L280.649 277.3C280.403 276.809 279.911 276.196 279.665 275.583C279.33 275.036 279.042 274.462 278.804 273.866C278.308 272.852 277.936 271.782 277.698 270.678C277.451 269.63 277.451 268.539 277.698 267.49C277.821 266.877 277.944 266.264 278.067 265.774C278.233 265.108 278.438 264.453 278.681 263.812L278.804 263.444C278.86 263.218 278.869 262.983 278.83 262.754C278.791 262.525 278.706 262.306 278.579 262.111C278.453 261.915 278.287 261.748 278.093 261.619C277.899 261.49 277.681 261.401 277.452 261.36C277.213 261.31 276.966 261.317 276.731 261.381C276.496 261.445 276.279 261.564 276.099 261.727V261.727Z" fill="#ECECEC"/>
<path d="M273.763 250.449C273.766 251.08 273.891 251.704 274.131 252.288C274.377 252.779 274.623 253.269 274.869 253.882C275.126 254.379 275.458 254.834 275.853 255.231C276.253 255.771 276.754 256.229 277.329 256.58L277.575 256.825C278.034 257.142 278.599 257.268 279.15 257.176C279.701 257.085 280.195 256.783 280.526 256.334C280.656 256.199 280.741 256.028 280.772 255.844C281.058 255.015 281.1 254.122 280.895 253.269C280.738 252.451 280.447 251.664 280.034 250.939C279.638 250.22 279.093 249.593 278.435 249.1C277.748 248.491 276.889 248.106 275.976 247.997C275.742 247.94 275.499 247.93 275.261 247.967C275.023 248.005 274.795 248.088 274.589 248.214C274.383 248.339 274.205 248.503 274.063 248.697C273.921 248.892 273.819 249.112 273.763 249.345V249.345V250.449V250.449Z" fill="#ECECEC"/>
<path d="M433.626 259.52V258.785C433.606 258.493 433.648 258.201 433.749 257.926C433.872 257.313 433.995 256.7 434.118 256.21C434.241 255.719 434.487 255.229 434.61 254.738C434.733 254.371 434.979 253.88 435.102 253.512C435.259 253.12 435.465 252.749 435.716 252.409C436.085 251.796 436.454 251.183 436.823 250.692L437.93 249.221C439.16 247.627 438.914 246.523 437.807 244.684C437.031 243.483 436.372 242.21 435.839 240.883L435.471 239.779C435.348 239.411 435.225 239.044 435.102 238.553C434.818 237.554 434.653 236.525 434.61 235.488C434.508 234.297 434.591 233.098 434.856 231.932L435.225 230.461C435.334 229.993 435.499 229.54 435.716 229.112C436.72 226.895 438.092 224.864 439.775 223.104L440.635 222.123V222C442.111 220.406 441.373 219.548 440.758 218.444L440.389 217.709C440.266 217.463 439.898 216.85 439.652 216.36C439.361 215.808 439.114 215.234 438.914 214.643C438.34 213.194 438.008 211.662 437.93 210.106C437.749 208.678 438.137 207.236 439.011 206.089C439.884 204.943 441.174 204.184 442.603 203.976H443.833C448.874 204.466 455.392 209.371 458.466 217.586C458.612 217.862 458.735 218.149 458.835 218.444V218.567C458.835 218.689 458.835 218.689 458.958 218.812C459.081 219.057 459.081 219.303 459.204 219.548C459.64 221.016 459.766 222.558 459.576 224.077C459.385 225.596 458.882 227.06 458.097 228.376L457.974 228.621L457.728 229.112L457.483 229.48C457.044 230.367 456.551 231.227 456.007 232.055V232.055C455.574 232.693 455.353 233.45 455.375 234.22C455.397 234.99 455.661 235.734 456.13 236.346L456.868 237.572C457.114 238.063 457.36 238.431 457.728 239.044L458.22 239.902L458.712 240.883L458.958 241.373L459.204 241.986C459.327 242.477 459.45 242.845 459.573 243.335C459.715 243.856 459.797 244.39 459.819 244.929C459.819 245.174 459.942 245.42 459.942 245.788V246.768C459.962 247.384 459.921 248 459.819 248.608C459.696 249.221 459.573 249.711 459.45 250.324C459.342 250.832 459.177 251.325 458.958 251.796C458.805 252.267 458.599 252.719 458.343 253.144C458.007 253.88 457.595 254.579 457.114 255.229L456.499 256.087L455.884 256.823C455.244 257.687 454.501 258.469 453.67 259.153C453.178 259.643 452.687 260.011 452.318 260.379C451.211 261.36 450.35 262.095 451.088 264.548C451.227 264.858 451.31 265.19 451.334 265.529L451.58 266.264L451.826 267C451.949 267.49 452.072 268.104 452.195 268.717C452.523 270.422 452.481 272.178 452.072 273.866C451.851 275.115 451.204 276.249 450.24 277.076C449.276 277.903 448.055 278.372 446.784 278.403H445.8C445.593 278.374 445.388 278.334 445.185 278.281L444.816 278.158C440.143 276.441 434.364 269.207 433.749 260.869V260.624C433.623 260.271 433.581 259.893 433.626 259.52Z" fill="#62C370"/>
<path d="M449.366 227.641C448.624 228.155 447.961 228.774 447.399 229.48C446.465 230.611 445.793 231.934 445.432 233.355C445.071 234.775 445.028 236.257 445.308 237.695C445.649 239.578 446.451 241.347 447.645 242.845C448.207 243.551 448.87 244.171 449.612 244.684C450.318 245.25 451.106 245.705 451.949 246.033C452.166 246.132 452.4 246.185 452.639 246.189C452.877 246.192 453.113 246.146 453.333 246.054C453.553 245.962 453.751 245.825 453.915 245.653C454.079 245.48 454.205 245.276 454.285 245.052C454.406 244.826 454.47 244.573 454.47 244.317C454.47 244.06 454.406 243.807 454.285 243.581L454.039 243.09C453.793 242.6 453.424 241.987 453.056 241.374C452.72 240.827 452.432 240.253 452.195 239.657C451.698 238.643 451.327 237.572 451.088 236.469C450.842 235.421 450.842 234.33 451.088 233.281C451.211 232.668 451.334 232.055 451.457 231.565C451.623 230.899 451.828 230.244 452.072 229.603L452.195 229.235C452.256 228.784 452.153 228.326 451.905 227.943C451.657 227.561 451.28 227.28 450.842 227.15C450.312 227.162 449.798 227.333 449.366 227.641V227.641Z" fill="#ECECEC"/>
<path d="M446.907 216.361C446.911 216.992 447.036 217.616 447.276 218.2C447.522 218.691 447.768 219.304 448.014 219.794C448.27 220.291 448.602 220.746 448.997 221.143C449.398 221.683 449.899 222.141 450.473 222.492L450.842 222.737C451.301 223.054 451.866 223.18 452.417 223.088C452.968 222.997 453.462 222.695 453.793 222.246C453.923 222.111 454.009 221.94 454.039 221.756C454.325 220.927 454.368 220.034 454.162 219.181C454.006 218.363 453.715 217.576 453.302 216.851C452.906 216.132 452.361 215.505 451.703 215.012C451.015 214.403 450.157 214.018 449.243 213.909C449.009 213.852 448.766 213.842 448.528 213.88C448.29 213.917 448.062 214 447.856 214.126C447.651 214.251 447.472 214.415 447.33 214.61C447.188 214.804 447.086 215.024 447.03 215.257V215.625L446.907 216.361Z" fill="#ECECEC"/>
<path d="M353.817 358.228H354.186C355.463 358.284 356.735 358.406 357.998 358.596C359.228 358.718 360.458 358.841 361.688 358.841C364.063 358.964 366.444 358.964 368.82 358.841C371.188 358.713 373.537 358.344 375.829 357.737C376.321 357.615 376.936 357.492 377.428 357.37C376.444 356.74 375.536 355.999 374.723 355.162C373.612 354.178 372.622 353.067 371.771 351.852C371.319 351.268 370.908 350.653 370.541 350.013C370.1 349.358 369.729 348.66 369.435 347.928C369.314 347.648 369.253 347.345 369.256 347.04C369.26 346.735 369.328 346.434 369.455 346.157C369.583 345.88 369.767 345.632 369.997 345.43C370.226 345.228 370.495 345.077 370.787 344.985C371.261 344.828 371.77 344.814 372.252 344.945C372.733 345.076 373.165 345.346 373.493 345.721L373.616 345.844C373.914 346.314 374.243 346.765 374.6 347.192C374.943 347.698 375.357 348.152 375.829 348.541C376.671 349.422 377.576 350.241 378.535 350.994C380.425 352.469 382.543 353.629 384.806 354.427C387.07 355.161 389.435 355.533 391.816 355.53C394.149 355.574 396.474 355.243 398.702 354.549C399.565 354.293 400.367 353.868 401.064 353.3C401.761 352.731 402.337 352.031 402.76 351.239C403.625 349.26 404.125 347.141 404.236 344.985L403.867 343.269C403.867 342.533 403.99 341.797 403.99 340.939C404.157 339.366 404.445 337.809 404.851 336.28C405.777 333.206 407.279 330.335 409.278 327.819C411.135 325.518 413.193 323.384 415.426 321.443C415.928 320.958 416.462 320.508 417.025 320.094L417.763 319.359C417.982 319.262 418.158 319.087 418.255 318.868C418.814 318.296 419.272 317.632 419.607 316.906C420.222 315.245 420.222 313.418 419.607 311.757C418.878 310.033 417.633 308.577 416.041 307.588C414.154 306.56 412.042 306.013 409.893 305.994C407.488 305.976 405.091 306.265 402.76 306.852C397.806 308.239 393.053 310.258 388.618 312.86C388.044 313.148 387.38 313.207 386.764 313.025C386.147 312.842 385.623 312.433 385.298 311.879C385.014 311.369 384.931 310.771 385.068 310.203C385.205 309.635 385.55 309.14 386.036 308.814C388.905 306.717 391.949 304.871 395.136 303.296L394.89 303.051C394.398 302.315 393.66 301.579 393.045 300.844C391.816 299.372 390.34 297.901 388.987 296.552C387.512 295.081 386.036 293.732 384.437 292.261C383.577 291.525 382.839 290.789 382.101 290.054C381.262 289.34 380.481 288.561 379.764 287.724L379.641 287.601C379.246 287.07 379.064 286.41 379.132 285.752C379.2 285.093 379.514 284.485 380.01 284.045C380.303 283.818 380.641 283.657 381.002 283.572C381.363 283.487 381.738 283.482 382.101 283.555C383.208 283.923 384.437 284.291 385.544 284.781C386.645 285.238 387.714 285.771 388.741 286.375C390.85 287.641 392.792 289.165 394.521 290.912C396.342 292.666 397.878 294.693 399.071 296.92C399.317 297.533 399.686 298.024 399.932 298.637C400.192 299.23 400.397 299.846 400.547 300.476L400.67 300.966L400.916 300.844C403.774 299.889 406.756 299.352 409.77 299.25C413.091 299.135 416.389 299.851 419.361 301.334C422.555 302.962 425.077 305.651 426.494 308.936C427.963 312.318 428.095 316.129 426.863 319.604C426.27 321.407 425.259 323.046 423.911 324.386L422.928 325.367L422.19 325.98C421.668 326.396 421.175 326.846 420.714 327.329C418.839 328.975 417.111 330.78 415.549 332.724C414.17 334.435 413.126 336.39 412.475 338.487C412.152 339.565 411.946 340.675 411.86 341.797C411.762 342.364 411.721 342.939 411.737 343.514L411.614 345.598C411.397 348.847 410.518 352.018 409.032 354.917C408.07 356.487 406.818 357.86 405.343 358.964C403.874 359.982 402.256 360.768 400.547 361.293C397.549 362.13 394.425 362.42 391.324 362.152C388.898 362.011 386.5 361.558 384.191 360.803L383.945 361.048C383.331 361.538 382.716 361.906 382.101 362.397C380.885 363.258 379.562 363.958 378.166 364.481C372.576 366.862 366.365 367.378 360.458 365.953C359.025 365.633 357.626 365.181 356.277 364.604C354.967 363.983 353.694 363.287 352.465 362.519C352.198 362.351 351.967 362.131 351.786 361.873C351.604 361.615 351.476 361.324 351.407 361.017C351.339 360.709 351.332 360.391 351.386 360.081C351.441 359.771 351.557 359.474 351.727 359.209C352.285 358.645 353.026 358.297 353.817 358.228V358.228Z" fill="#171C22"/>
<path d="M386.651 331.251C387.697 328.66 389.277 326.316 391.289 324.373C393.302 322.43 395.702 320.93 398.333 319.971C398.834 319.809 399.361 319.747 399.886 319.789C400.41 319.831 400.921 319.976 401.39 320.215C401.858 320.454 402.275 320.783 402.615 321.183C402.956 321.583 403.214 322.046 403.375 322.546C403.555 323.166 403.593 323.818 403.486 324.454C403.38 325.091 403.132 325.696 402.76 326.224C400.178 329.535 400.178 330.148 400.301 331.129C400.403 332.727 400.32 334.331 400.055 335.911C399.794 337.377 399.125 338.74 398.125 339.845C397.125 340.951 395.834 341.754 394.398 342.164C393.793 342.306 393.175 342.388 392.553 342.409C391.634 342.418 390.722 342.237 389.876 341.878C389.03 341.52 388.267 340.991 387.635 340.325C386.651 339.344 384.683 336.401 386.651 331.251Z" fill="#171C22"/>
<path d="M131.484 48.7436C127.229 49.0693 122.959 49.1511 118.695 48.9888C117.219 48.8662 114.268 48.7436 112.669 48.4984C119.705 48.2336 126.577 46.3001 132.714 42.8581C139.969 42.1224 148.577 41.1414 155.832 40.0379C164.219 38.6887 172.677 37.829 181.165 37.463C185.516 37.3202 189.872 37.4841 194.2 37.9534C198.642 38.4382 203.016 39.4255 207.235 40.8962C209.342 41.7527 211.395 42.7354 213.383 43.839L214.859 44.6973L216.212 45.5556C217.072 46.1687 218.056 46.7818 218.917 47.3948C222.452 49.8343 225.859 52.4535 229.124 55.2422C232.444 58.0624 235.518 60.8826 238.592 63.9479C241.544 67.0133 244.495 70.0787 247.324 73.1441C249.99 76.1295 252.911 78.8782 256.055 81.3594C259 83.7357 262.326 85.601 265.892 86.8771C273.025 89.5746 281.018 90.0651 289.134 89.8198L292.208 89.6972C293.315 89.6972 294.422 89.5746 295.528 89.5746C297.793 89.5504 300.055 89.7144 302.292 90.0651C306.986 90.6305 311.51 92.1657 315.575 94.5725C319.64 96.9793 323.158 100.205 325.903 104.043C328.495 107.699 330.719 111.6 332.543 115.692C336.109 123.662 338.569 131.632 341.643 139.111C344.717 146.591 348.406 153.703 353.694 159.343C355.047 160.692 356.4 162.04 357.875 163.267L360.335 165.106C361.195 165.719 362.056 166.455 362.917 167.068C366.311 169.88 369.477 172.955 372.386 176.264C375.275 179.594 377.752 183.257 379.764 187.177C381.755 191.129 383.322 195.28 384.437 199.561C385.421 203.833 386.038 208.181 386.282 212.558C386.446 216.851 386.364 221.149 386.036 225.433C385.306 233.836 384.074 242.189 382.347 250.446C382.225 251.041 381.874 251.564 381.369 251.902C380.864 252.24 380.245 252.367 379.647 252.254C379.049 252.141 378.52 251.798 378.174 251.299C377.827 250.8 377.692 250.186 377.797 249.588C378.412 245.419 379.026 241.373 379.518 237.204C380.01 233.035 380.379 228.989 380.625 224.942C381.174 216.912 380.469 208.846 378.535 201.032C377.541 197.237 376.096 193.573 374.231 190.119C372.346 186.687 370.077 183.478 367.467 180.555C364.799 177.609 361.877 174.901 358.736 172.463C357.998 171.85 357.137 171.237 356.4 170.623L353.817 168.784C351.968 167.47 350.276 165.948 348.775 164.247C345.697 161.02 343.014 157.439 340.782 153.58C338.635 149.81 336.705 145.921 335.002 141.931C331.682 134.084 329.1 126.114 325.78 118.757C324.243 115.197 322.304 111.824 320 108.703C317.887 105.712 315.161 103.203 312.002 101.343C308.843 99.4827 305.324 98.3133 301.677 97.9125C299.801 97.6679 297.912 97.545 296.02 97.5446H293.069L289.872 97.6672C285.521 97.8101 281.165 97.6462 276.837 97.1768C272.352 96.7054 267.936 95.7179 263.679 94.234C259.346 92.6264 255.314 90.3053 251.75 87.3675C248.427 84.5637 245.304 81.5318 242.405 78.294C236.971 72.1192 231.181 66.2647 225.066 60.7599C221.991 58.0624 218.794 55.6101 215.474 53.1578C214.613 52.5447 213.752 51.9316 213.014 51.4412L211.785 50.5828L210.555 49.8472C208.963 48.8592 207.274 48.0374 205.513 47.3948C198.381 44.5747 190.265 43.9616 182.148 44.0842C173.879 44.3627 165.63 45.0585 157.431 46.1687C148.331 47.027 139.969 48.2531 131.484 48.7436Z" fill="#9E2F2F"/>
</svg>
