<svg width="150" height="238" viewBox="0 0 150 238" fill="none" xmlns="http://www.w3.org/2000/svg">
<path d="M12.1914 218.559C12.4332 216.315 12.272 216.235 12.5943 213.992C12.9166 211.749 12.9971 211.749 13.2388 209.426C13.4806 207.102 14.0445 207.182 14.3668 204.939C14.528 203.417 14.1251 201.815 14.2862 200.293C14.4474 198.77 15.0919 197.328 15.2531 195.806C15.4142 194.284 15.1725 192.682 15.3336 191.16C15.4948 189.637 16.2199 188.195 16.3811 186.673C16.5422 185.151 16.9451 183.629 17.1062 182.107C17.2673 180.585 16.9451 178.982 17.1868 177.46C17.4285 175.698 17.7507 174.015 17.9119 172.253C18.073 170.49 18.2342 168.808 18.4759 167.045C18.7176 165.283 18.7176 163.6 18.9593 161.838C19.0399 160.796 19.8456 159.915 20.893 159.835C23.3101 159.915 23.3101 159.915 25.6466 159.995C27.9831 160.075 28.0637 159.995 30.4002 160.075C32.7367 160.156 32.8173 160.476 35.1538 160.556C37.4903 160.636 37.5709 160.716 39.9074 160.796C42.244 160.877 42.3245 160.476 44.6611 160.556C46.9976 160.636 47.0781 160.316 49.4147 160.396C51.7512 160.476 51.8318 160.556 54.1683 160.636C56.5048 160.716 56.5854 160.636 58.9219 160.636C61.2584 160.636 61.339 160.957 63.6755 161.037C65.4481 161.117 67.2206 161.037 68.9931 161.117C70.7657 161.197 72.3771 161.197 74.1496 161.277C74.1496 159.755 74.4719 158.393 74.4719 156.871C74.4719 155.349 74.3913 153.827 74.3913 152.304C74.3913 150.782 74.3913 149.26 74.3913 147.738C74.3913 146.216 74.3107 144.694 74.3107 143.171C74.3107 141.649 74.3913 140.127 74.3913 138.605C74.3913 137.083 74.5524 135.561 74.5524 134.038C74.5524 132.516 73.9079 130.994 73.9079 129.472C73.9079 127.95 74.5524 126.428 74.4719 124.905C74.3913 123.383 74.3107 121.861 74.2302 120.339C74.1496 118.817 74.3913 117.295 74.3913 115.772C74.3913 114.25 73.7467 112.728 73.7467 111.286C73.7467 109.844 73.8273 108.242 73.8273 106.8C73.8273 105.358 73.8273 103.755 73.8273 102.313C73.9079 101.272 74.7136 100.551 75.6804 100.471C77.2112 100.631 78.8226 101.112 80.3535 101.192C81.8843 101.272 83.4957 101.112 85.1071 101.272C86.7185 101.432 88.2493 101.592 89.7801 101.753C91.3109 101.913 92.9223 102.073 94.4532 102.233C95.984 102.393 97.5954 102.073 99.2068 102.233C100.818 102.393 102.268 102.954 103.88 103.114C105.491 103.275 107.022 102.954 108.633 103.114C110.245 103.275 111.776 103.275 113.306 103.435C114.837 103.595 116.449 104.076 117.98 104.236C119.51 104.396 121.122 104.396 122.733 104.476C124.345 104.557 125.875 104.957 127.406 105.117C128.937 105.278 130.548 104.957 132.16 105.117C133.932 105.278 135.705 105.678 137.477 105.838C139.25 105.999 141.022 105.999 142.795 106.159C144.568 106.319 146.34 106.72 148.113 106.88C149.885 107.04 149.966 109.684 148.113 109.524C146.501 109.443 144.97 109.443 143.359 109.363C141.748 109.283 140.217 108.803 138.686 108.722C137.155 108.642 135.544 108.883 133.932 108.722C132.321 108.562 130.79 108.562 129.179 108.482C127.567 108.402 126.037 107.841 124.506 107.681C122.975 107.521 121.363 107.761 119.752 107.681C118.141 107.601 116.61 107.521 114.998 107.441C113.387 107.36 111.856 107.12 110.325 106.96C108.795 106.8 107.183 106.399 105.652 106.239C104.122 106.079 102.51 105.838 100.979 105.758C99.4485 105.678 97.7565 106.159 96.2257 105.999C94.6949 105.838 93.0835 105.438 91.5527 105.278C89.9413 105.117 88.4104 104.637 86.799 104.476C85.1876 104.316 83.5763 104.476 82.0454 104.316C80.5146 104.156 79.0643 104.476 77.5335 104.316C77.5335 105.838 76.9695 107.12 76.9695 108.642C76.9695 110.164 77.3724 111.687 77.3724 113.209C77.3724 114.731 77.2918 116.253 77.2918 117.775C77.2918 119.297 77.6141 120.82 77.6141 122.342C77.6141 123.864 77.8558 125.386 77.8558 126.908C77.8558 128.43 77.5335 129.953 77.5335 131.475C77.5335 132.997 78.0169 134.439 78.0169 135.961C78.0169 137.483 78.0975 139.005 78.1781 140.528C78.2586 142.05 78.2587 143.572 78.2587 145.094C78.2587 146.616 77.7752 148.138 77.7752 149.661C77.7752 151.183 78.1781 152.705 78.1781 154.147C78.1781 155.589 78.1781 157.191 78.1781 158.633C78.1781 160.075 78.3392 161.678 78.3392 163.12C78.1781 164.161 77.2918 164.882 76.325 164.882C74.7136 164.802 73.1828 164.482 71.5714 164.482C69.96 164.482 68.3486 164.882 66.7372 164.882C65.1258 164.882 63.5144 164.642 61.9836 164.642C60.4527 164.642 58.8413 164.161 57.2299 164.081C55.6185 164.001 54.0071 164.321 52.4763 164.241C50.9455 164.161 49.2535 164.081 47.7227 164.001C46.1919 163.921 44.4999 164.001 42.9691 163.921C41.4383 163.841 39.7463 164.321 38.1349 164.321C36.5235 164.321 34.9927 163.841 33.3813 163.761C31.6088 163.681 29.7556 164.001 27.9831 164.001C26.2106 164.001 24.5186 163.761 22.7461 163.681C22.5849 165.283 22.4238 166.805 22.2627 168.407C22.1015 170.01 21.3764 171.612 21.2153 173.214C21.0541 174.816 20.8124 176.419 20.6513 178.101C20.4901 179.783 20.893 181.386 20.7318 182.988C20.5707 184.59 20.329 186.193 20.0873 187.875C19.8456 189.557 19.765 191.079 19.6039 192.762C19.4427 194.444 18.8787 195.966 18.7176 197.569C18.5564 199.171 18.073 200.773 17.8313 202.376C17.5896 203.978 17.509 205.58 17.2673 207.262C17.0256 208.945 17.5896 210.547 17.4285 212.23C17.2673 213.912 16.8645 215.434 16.7033 217.036C16.5422 218.799 16.3811 220.561 16.2199 222.244C16.0588 223.926 15.7365 225.689 15.4948 227.451C15.2531 229.214 15.0919 230.976 14.7697 232.659C14.3668 234.501 11.5469 234.02 11.6275 232.178C11.708 230.656 11.3857 229.134 11.4663 227.611C11.5469 226.089 11.9497 224.567 12.1109 223.045C12.272 221.523 12.0303 220.081 12.1914 218.559Z" fill="#222831"/>
<path d="M92.8421 123.223C92.8421 121.3 93.0032 119.298 93.1644 117.375C93.3255 116.413 94.0506 115.692 95.0175 115.612C95.9037 115.692 96.7094 116.413 96.79 117.375C97.0317 119.298 96.5483 121.3 96.7094 123.303C96.79 124.265 97.354 125.226 97.4346 126.187C97.4346 126.668 97.6763 127.149 97.6763 127.629C97.5957 128.35 97.354 129.071 96.9511 129.632C96.3066 130.513 95.0175 130.674 94.1312 129.953C93.9701 129.873 93.8895 129.712 93.8089 129.632C93.4866 128.991 93.3255 128.27 93.4061 127.549C93.4061 127.069 93.4061 126.668 93.4061 126.187C93.3255 125.226 92.8421 124.184 92.8421 123.223Z" fill="#222831"/>
<path d="M94.5333 147.337C94.5333 146.616 94.3721 145.815 94.3721 145.094C94.3721 144.693 94.775 144.373 94.775 143.972C94.775 143.812 94.9361 143.652 94.9361 143.492C95.0167 142.931 94.6944 142.771 94.6139 143.091C94.6139 143.011 94.8556 142.931 94.8556 142.771C94.775 141.97 94.775 141.088 94.9361 140.287C95.1778 139.726 95.7418 138.925 96.3864 138.925C97.1115 138.925 97.5144 139.646 97.7561 140.287C97.8366 140.768 97.8366 141.168 97.7561 141.649C97.7561 141.729 97.7561 141.889 97.7561 141.97C97.6755 141.649 97.7561 141.809 97.7561 142.29C97.7561 142.45 97.8366 142.611 97.8366 142.771C97.8366 142.851 97.9978 142.931 97.9978 143.091C97.9978 143.171 97.9172 143.251 97.9172 143.412C97.9172 143.572 97.8366 143.732 97.8366 143.892C97.8366 144.293 97.7561 144.613 97.7561 145.014C97.8366 145.735 98.4006 146.456 98.4812 147.177C98.4812 147.578 98.4812 147.898 98.4006 148.299C98.3201 149.1 97.8366 149.821 97.1921 150.221C96.6281 150.462 95.9835 150.382 95.5807 150.061C94.8556 149.58 94.0499 149.18 93.9693 148.299C94.0499 148.058 94.4527 147.658 94.5333 147.337Z" fill="#222831"/>
<path d="M92.1974 168.007C92.278 166.004 92.8419 164.081 93.8088 162.319C94.1311 161.838 94.5339 160.957 95.1785 161.117C95.7425 161.277 95.9036 162.238 95.823 162.799C95.7425 163.841 96.1453 164.722 96.0647 165.603C96.0647 165.844 95.4202 165.683 95.4202 165.603C95.4202 165.763 95.9036 165.924 95.9036 166.084C95.9036 166.244 95.6619 166.404 95.6619 166.645C95.6619 167.125 95.9036 167.526 95.9036 168.007C95.9036 168.407 95.823 168.888 95.9036 169.288C95.9036 169.449 95.9842 169.609 95.9842 169.849C95.9842 169.929 95.9842 170.25 95.9842 170.25C96.0647 170.65 95.6619 171.211 95.7425 171.612C95.823 171.852 96.1453 171.932 96.1453 172.173C96.0647 171.852 95.9842 172.012 96.0647 172.573C95.9842 173.134 95.9036 173.134 95.9842 172.813C95.9842 173.054 96.387 173.454 96.2259 173.615C95.823 174.576 94.6145 175.057 93.6476 174.576C93.4865 174.496 93.2448 174.416 93.1642 174.256C92.6002 173.855 92.1974 173.214 91.9557 172.573C91.7945 172.012 92.3585 171.452 92.3585 170.891C92.278 169.849 92.1974 168.888 92.1974 168.007Z" fill="#222831"/>
<path d="M35.7178 181.786C35.7178 181.786 35.1538 181.706 35.1538 181.786C35.1538 181.866 35.7178 181.946 35.7178 181.786Z" fill="#222831"/>
<path d="M34.8312 185.792C34.8312 185.231 35.3146 184.67 35.3952 184.109C35.4757 183.629 35.6369 183.228 35.7174 182.828C35.798 182.507 35.3952 182.107 35.3952 181.786C35.3952 181.706 35.4757 181.546 35.5563 181.466C35.6369 180.905 36.1203 180.424 36.2009 179.944C36.2814 179.062 36.4426 178.181 36.6843 177.3C36.926 176.659 37.1677 176.258 37.8928 176.258C38.5374 176.258 39.2625 176.579 39.3431 177.22C39.5042 179.062 39.4236 180.985 39.2625 182.828C39.2625 183.789 39.1819 184.83 38.9402 185.792C38.8597 186.032 39.0208 186.273 38.9402 186.513C38.9402 186.593 39.0208 187.074 39.0208 187.234C38.8597 187.634 38.4568 188.035 38.2957 188.436C38.1345 188.996 37.5705 189.397 37.0066 189.317C36.362 189.317 35.4757 189.237 35.3952 188.596C35.3146 188.275 35.3146 187.955 35.3146 187.634C35.3146 187.234 35.798 187.394 35.7174 186.833C35.7174 186.593 34.9117 186.673 34.9117 186.753C34.9117 186.994 35.6369 186.753 35.5563 186.192C35.4757 186.112 34.8312 185.712 34.8312 185.792Z" fill="#222831"/>
<path d="M34.1063 205.5C34.1869 204.779 33.9451 204.058 33.9451 203.417C34.0257 202.696 34.5091 202.055 34.5897 201.414C34.5897 200.693 35.1537 200.132 35.8788 200.052C36.5234 199.972 37.4902 200.292 37.6514 201.013C37.6514 201.174 37.5708 201.414 37.5708 201.574C37.5708 201.734 37.4097 201.895 37.4097 202.055C37.4097 202.215 37.4097 202.375 37.4097 202.215C37.4902 202.455 37.8125 202.536 37.8125 202.856C37.8125 202.936 37.5708 202.936 37.5708 203.016C37.5708 203.177 37.9736 203.257 37.9736 203.337C38.0542 204.058 37.9736 204.779 38.0542 205.5C38.0542 206.221 37.9736 206.862 37.8931 207.583C37.8931 207.983 37.8931 208.464 37.8125 208.865C37.5708 209.345 37.4902 209.345 37.7319 209.105C37.7319 209.185 37.6514 209.345 37.6514 209.345C37.7319 209.505 37.7319 209.746 37.7319 209.906C37.2485 211.348 34.912 211.428 34.4286 209.986C34.348 209.826 34.2674 209.586 34.1869 209.425C34.1869 209.345 34.5897 209.185 34.5897 209.105C34.7508 209.345 34.912 209.185 34.7508 208.704C34.5897 208.304 33.9451 207.983 33.8646 207.583C33.784 206.862 33.9451 206.221 34.1063 205.5Z" fill="#222831"/>
<path d="M31.5282 233.86C31.6087 232.819 32.0116 231.857 32.1727 230.816C32.495 228.973 32.9784 227.211 33.3007 225.368C33.3813 224.727 33.9453 224.246 34.5898 224.327C35.2344 224.407 35.7178 224.967 35.6372 225.608C35.6372 225.608 35.6372 225.608 35.6372 225.689C35.5566 227.531 35.3149 229.374 35.1538 231.216C35.0732 232.098 35.3955 233.059 35.3149 233.94C35.1538 234.982 34.751 236.023 34.187 236.985C33.3813 238.186 31.8504 238.186 31.367 236.904C31.0447 236.023 31.4476 234.822 31.5282 233.86Z" fill="#222831"/>
<path d="M1.15342 59.3722C1.95912 58.7313 2.68424 58.9716 3.65108 59.0517C4.53735 59.1318 5.34304 58.9716 6.22931 59.0517C7.92127 59.212 9.61324 59.4523 11.3052 59.5324C12.9972 59.6125 14.6891 59.5324 16.3005 59.6926C17.9119 59.8529 19.6039 60.1733 21.2959 60.3335C22.9878 60.4938 24.5992 60.5739 26.2912 60.654C27.9831 60.7341 29.6751 60.7341 31.2865 60.8943C32.9785 61.0546 34.751 60.8142 36.443 60.8943C37.2487 60.9745 37.9738 61.4551 38.6989 61.5353C38.6989 61.4551 38.7795 61.4551 38.7795 61.375C38.8601 59.7728 38.7795 58.2506 38.8601 56.6483C38.9406 55.046 38.8601 53.5239 38.9406 51.9216C39.0212 50.3193 39.2629 48.7972 39.3435 47.1949C39.424 45.5926 39.3435 44.0704 39.3435 42.4682C39.3435 40.8659 39.8269 39.3437 39.9075 37.7414C39.988 36.1392 39.8269 34.617 39.9075 33.0147C39.988 31.4125 40.3103 29.8903 40.3909 28.288C40.4715 26.6857 39.9075 25.0835 39.988 23.5613C40.0686 22.1193 40.0686 20.6772 40.1492 19.2352C40.2297 17.7931 40.2297 16.3511 40.3103 14.909C40.3909 13.467 40.9549 12.0249 41.0354 10.5829C41.116 9.14081 41.1966 7.69876 41.1966 6.25671C41.1966 4.81466 40.8743 3.37261 40.8743 1.93057C41.0354 0.889085 42.0023 0.0879472 43.0497 0.168061C44.6611 0.168061 46.2725 0.488516 47.8839 0.488516C49.4953 0.488516 51.1067 0.488516 52.7181 0.488516C54.3295 0.488516 55.9408 -0.0722805 57.5522 0.00783335C59.1636 0.0879472 60.775 0.408403 62.3864 0.408403C63.9978 0.408403 65.6092 0.248175 67.2206 0.248175C68.832 0.248175 70.4434 0.648744 72.0548 0.728858C73.6662 0.808972 75.2776 0.889085 76.889 0.889085C78.5004 0.889085 80.1118 0.56863 81.7232 0.648744C83.3346 0.728858 84.946 1.20954 86.5574 1.28965C88.1688 1.36977 89.7801 0.808972 91.3915 0.808972C93.0029 0.808972 94.6143 1.53 96.2257 1.53C97.8371 1.53 99.4485 0.969199 101.06 0.969199C102.671 0.969199 104.283 1.04931 105.894 1.12943C107.425 1.12943 108.875 1.20954 110.406 1.20954C111.937 1.20954 113.387 1.93057 114.837 2.01068C116.288 2.09079 117.818 1.69022 119.349 1.77034C120.88 1.85045 122.33 2.17091 123.781 2.25102C125.634 2.33113 125.634 5.21523 123.781 5.21523C122.169 5.21523 120.558 4.73455 118.946 4.73455C117.335 4.73455 115.724 4.81466 114.112 4.81466C112.501 4.81466 110.889 4.89478 109.278 4.89478C107.667 4.89478 106.055 4.65444 104.444 4.65444C102.832 4.65444 101.221 4.65444 99.6097 4.65444C97.9983 4.65444 96.3869 4.73455 94.7755 4.65444C93.1641 4.57432 91.5527 4.89478 89.9413 4.89478C88.3299 4.89478 86.7185 4.65444 85.1071 4.65444C83.4957 4.65444 81.8843 4.73455 80.2729 4.73455C78.6615 4.73455 77.0501 4.97489 75.4387 4.89478C73.8273 4.81466 72.2159 4.49421 70.6045 4.41409C68.9931 4.33398 67.3818 4.01353 65.7704 3.93341C64.159 3.8533 62.5476 4.49421 60.9362 4.41409C59.1636 4.41409 57.3911 4.01353 55.6186 4.01353C53.846 4.01353 52.0735 3.77318 50.301 3.69307C48.5284 3.61296 46.7559 3.8533 44.9834 3.77318C44.9028 5.45557 45.1445 7.05785 45.0639 8.74024C44.9834 10.4226 44.3388 12.0249 44.2582 13.6272C44.1777 15.2295 44.3388 16.9119 44.2582 18.5942C44.1777 20.2766 44.0971 21.8789 44.0165 23.5613C43.936 25.2437 44.2582 26.846 44.1777 28.5284C44.0971 30.2107 44.2582 31.813 44.1777 33.4954C44.0971 35.1778 43.936 36.7801 43.8554 38.4625C43.7748 40.1449 43.7748 41.7471 43.6942 43.4295C43.6137 45.1119 43.2108 46.7142 43.1302 48.3165C43.0497 49.9188 43.0497 51.6011 42.9691 53.2835C42.8885 54.9659 43.2914 56.5682 43.2108 58.2506C43.1303 59.933 42.7274 61.5353 42.6468 63.2176C42.5663 64.9 42.5663 66.5023 42.4857 68.1847C42.4051 69.8671 42.244 71.4694 42.244 73.1518C42.244 74.8342 42.4857 76.4364 42.4051 78.1188C42.3246 79.8813 41.9217 81.6438 41.8411 83.4063C41.7606 85.1688 41.5189 86.9313 41.4383 88.6938C41.3577 90.5365 41.68 92.3791 41.5994 94.2217C41.5189 96.0643 41.5994 97.9069 41.3577 99.7495C41.116 101.993 37.6515 102.073 37.5709 99.6694C37.4904 98.0672 37.5709 96.4649 37.6515 94.7825C37.7321 93.1001 37.7321 91.4978 37.8127 89.8956C37.8932 88.3734 37.7321 86.7711 37.7321 85.2489C37.7321 83.7268 38.2155 82.1245 38.2961 80.6023C38.3766 78.8398 37.8932 77.0773 37.9738 75.3148C38.0544 73.5523 38.2961 71.7898 38.3766 70.0273C38.4572 68.2648 38.7795 66.5023 38.8601 64.7398L38.5378 64.6597C37.6515 64.6597 36.8458 65.0603 35.9595 65.0603C34.2676 64.9802 32.5756 64.8199 30.8837 64.7398C29.1917 64.6597 27.5803 64.5796 25.8883 64.4995C24.1964 64.4193 22.585 64.179 20.893 64.0989C19.201 64.0188 17.5091 64.0989 15.8977 64.0188C14.2863 63.9387 12.5943 63.6983 10.9024 63.6182C9.21039 63.5381 7.51842 62.8972 5.82646 62.8171C4.21507 62.737 1.79797 63.6182 0.589424 62.4165C-0.296844 61.375 0.347725 59.933 1.15342 59.3722Z" fill="#222831"/>
<path d="M60.5334 30.9319C60.6945 29.4097 60.5334 27.8074 60.6945 26.2853C61.0974 23.2409 61.5808 20.1966 62.0642 17.2324C62.3059 15.6301 65.3676 16.0307 65.287 17.633C65.1259 20.6773 64.6425 23.6415 64.4007 26.6858C64.2396 28.1279 64.2396 29.6501 64.159 31.0921C63.9979 32.6143 64.159 34.6171 63.2728 35.979C62.5476 37.1808 60.5334 36.7001 60.05 35.4183C59.5666 33.9762 60.3723 32.3739 60.5334 30.9319Z" fill="#222831"/>
<path d="M57.552 60.2534C57.6325 58.7313 57.9548 57.2892 58.0354 55.7671C58.2771 52.8029 58.1965 49.8386 58.6799 46.9545C58.9216 45.3523 61.9833 45.9131 62.0639 47.3551C62.225 50.2392 62.0639 53.1233 61.9833 56.0074C61.9027 57.4495 61.5804 58.8915 61.5804 60.3336C61.5804 61.7756 61.8222 63.458 61.4193 64.8199C61.1776 65.7012 60.2108 66.1819 59.3245 65.9415C58.7605 65.7813 58.2771 65.3006 58.116 64.6597C57.7131 63.2177 57.552 61.6955 57.552 60.2534Z" fill="#222831"/>
<path d="M56.7467 89.8156C56.9078 87.4923 56.9078 85.0888 57.069 82.7655C57.069 81.9644 57.7135 81.3235 58.5192 81.3235C59.2444 81.3235 59.8083 81.9644 59.8083 82.7655V82.8457C59.8083 85.169 59.8889 87.4923 59.8889 89.8957C59.8889 92.2991 59.7278 94.5423 59.4861 96.8656C59.4055 97.8269 59.0832 99.0287 57.9552 99.0287C56.9078 99.0287 56.3438 97.8269 56.3438 96.8656C56.4244 94.4622 56.5856 92.1389 56.7467 89.8156Z" fill="#222831"/>
</svg>
