<svg width="241" height="307" viewBox="0 0 241 307" fill="none" xmlns="http://www.w3.org/2000/svg">
<path d="M214.296 61.1449C213.903 60.54 213.302 60.0976 212.606 59.8996C211.91 59.7016 211.166 59.7614 210.51 60.068C190.556 72.2343 171.324 85.5386 152.912 99.9144C142.636 107.722 132.63 116.068 122.895 124.415C125.059 115.53 127.222 106.107 129.115 96.6836C129.246 95.9709 129.093 95.2354 128.69 94.6325C128.286 94.0296 127.663 93.6066 126.952 93.4528C126.309 93.4095 125.664 93.5012 125.059 93.722C109.585 102.373 95.159 112.761 82.0624 124.684C69.0672 136.367 57.1233 149.159 46.3674 162.915C35.442 176.649 25.9297 191.442 17.9736 207.069C13.9066 215.082 10.3832 223.357 7.4274 231.838C5.79162 236.144 4.43672 240.551 3.37115 245.031C2.28948 249.338 1.20781 253.915 0.396562 258.492C-1.49635 270.877 3.64156 285.954 10.402 293.223C14.6557 297.482 19.7116 300.863 25.2799 303.173C30.8482 305.483 36.8196 306.676 42.852 306.685C59.3987 306.045 75.6206 301.915 90.4453 294.569C104.043 287.744 116.606 279.043 127.763 268.723C138.515 258.747 148.046 247.541 156.157 235.338C164.509 223.117 170.896 209.673 175.086 195.492V194.146C175.027 193.759 174.884 193.39 174.667 193.064C174.45 192.738 174.164 192.462 173.83 192.257C173.495 192.052 173.12 191.922 172.729 191.877C172.339 191.831 171.944 191.87 171.57 191.992C160.754 194.415 151.019 197.107 141.284 199.53L150.207 185.799C162.376 166.684 174.004 147.03 184.821 126.838C195.986 106.261 205.919 85.0439 214.567 63.2988C214.628 62.5699 214.536 61.8363 214.296 61.1449Z" fill="#70878A"/>
<path d="M227.276 99.3758C227.006 97.9526 227.006 96.4914 227.276 95.0681C227.542 93.9546 228.102 92.9321 228.899 92.1066C229.675 91.2457 230.589 90.518 231.603 89.9527C232.89 89.427 234.268 89.1528 235.659 89.145C236.875 89.1902 238.041 89.6387 238.972 90.4191C239.903 91.1996 240.545 92.2673 240.797 93.4527C241.068 94.876 241.068 96.3372 240.797 97.7605C240.531 98.874 239.971 99.8965 239.175 100.722C238.398 101.583 237.484 102.311 236.47 102.876C235.225 103.529 233.816 103.809 232.414 103.684C231.184 103.689 229.991 103.259 229.05 102.47C228.109 101.681 227.48 100.584 227.276 99.3758Z" fill="#70878A"/>
<path d="M111.267 70.8373C110.997 69.414 110.997 67.9528 111.267 66.5296C111.533 65.416 112.094 64.3935 112.89 63.568C113.667 62.7071 114.58 61.9795 115.594 61.4141C116.882 60.8885 118.259 60.6142 119.65 60.6064C120.867 60.6517 122.033 61.1001 122.963 61.8806C123.894 62.661 124.537 63.7287 124.788 64.9142C125.059 66.3374 125.059 67.7986 124.788 69.2219C124.522 70.3354 123.962 71.3579 123.166 72.1834C122.389 73.0443 121.476 73.772 120.462 74.3373C119.174 74.863 117.797 75.1372 116.405 75.145C115.189 75.0998 114.023 74.6513 113.092 73.8709C112.161 73.0904 111.519 72.0227 111.267 70.8373Z" fill="#70878A"/>
<path d="M216.73 10.2601C216.459 8.83687 216.459 7.37568 216.73 5.95241C216.996 4.83885 217.556 3.81635 218.352 2.99086C219.129 2.13 220.043 1.40231 221.057 0.837001C222.302 0.184086 223.711 -0.0964053 225.113 0.0293046C226.329 0.0745184 227.495 0.52296 228.426 1.30341C229.357 2.08387 229.999 3.15159 230.251 4.33702C230.521 5.76028 230.521 7.22148 230.251 8.64474C229.985 9.7583 229.425 10.7808 228.628 11.6063C227.852 12.4672 226.938 13.1948 225.924 13.7601C224.678 14.4131 223.27 14.6936 221.868 14.5678C220.667 14.4735 219.526 14.0075 218.604 13.235C217.683 12.4624 217.028 11.4222 216.73 10.2601Z" fill="#70878A"/>
<path d="M195.096 166.953C195.684 164.301 196.688 161.757 198.071 159.415C200.464 154.842 203.778 150.81 207.806 147.569C209.822 145.794 212.103 144.341 214.566 143.261C215.045 143.057 215.559 142.95 216.08 142.948C216.6 142.946 217.116 143.049 217.595 143.25C218.075 143.451 218.509 143.747 218.871 144.119C219.234 144.491 219.517 144.931 219.704 145.415C219.927 146.11 220.019 146.84 219.975 147.569C219.387 150.221 218.383 152.765 217 155.107C215.648 157.261 214.296 159.415 212.673 161.569C211.008 163.496 209.201 165.296 207.265 166.953C205.249 168.729 202.968 170.182 200.505 171.261C200.061 171.459 199.583 171.567 199.097 171.58C198.611 171.592 198.128 171.508 197.675 171.333C197.222 171.157 196.809 170.894 196.459 170.558C196.109 170.222 195.83 169.821 195.637 169.377C195.307 169.078 195.078 168.684 194.981 168.25C194.884 167.817 194.924 167.364 195.096 166.953Z" fill="#70878A"/>
<path d="M147.503 65.1835C148.668 61.9234 150.116 58.7704 151.83 55.7604C155.376 50.0341 159.648 44.7859 164.54 40.1449C167.1 37.7844 169.911 35.7081 172.923 33.9526C173.328 33.7097 173.778 33.5517 174.247 33.4881C174.715 33.4244 175.192 33.4566 175.647 33.5826C176.103 33.7086 176.528 33.9258 176.896 34.2208C177.265 34.5159 177.569 34.8827 177.79 35.2988C178.031 35.7002 178.18 36.1496 178.227 36.6149C178.273 37.0802 178.217 37.5501 178.06 37.9911C176.896 41.2512 175.448 44.4042 173.734 47.4142C171.998 50.3632 170.008 53.1558 167.785 55.7604C165.651 58.376 163.299 60.8077 160.754 63.0297C158.193 65.3902 155.382 67.4666 152.371 69.222C151.966 69.4649 151.515 69.6229 151.047 69.6866C150.578 69.7502 150.102 69.718 149.646 69.592C149.191 69.466 148.766 69.2488 148.397 68.9538C148.029 68.6587 147.725 68.2919 147.503 67.8759C147.232 66.9987 147.232 66.0607 147.503 65.1835Z" fill="#70878A"/>
<path d="M80.9809 149.723C81.1968 147.555 81.8401 145.45 82.8738 143.53C83.6951 141.675 84.7887 139.951 86.1188 138.415C87.4226 136.847 88.8712 135.405 90.4455 134.107C92.1884 132.701 94.2187 131.69 96.3946 131.146C97.4341 130.87 98.5397 130.994 99.4917 131.493C100.444 131.992 101.172 132.829 101.533 133.838C101.753 134.346 101.846 134.901 101.803 135.453C101.587 137.621 100.944 139.725 99.91 141.646C99.0887 143.501 97.9951 145.225 96.6651 146.761C95.3612 148.328 93.9126 149.771 92.3384 151.069C90.5954 152.475 88.5651 153.486 86.3892 154.03C85.3497 154.306 84.2441 154.182 83.2922 153.683C82.3403 153.184 81.6117 152.347 81.2513 151.338C81.0309 150.829 80.938 150.275 80.9809 149.723Z" fill="#222831"/>
<path d="M115.324 247.723C115.54 245.555 116.183 243.451 117.217 241.531C119.035 237.887 121.617 234.674 124.788 232.108C126.531 230.701 128.562 229.69 130.737 229.146C131.777 228.839 132.897 228.949 133.856 229.452C134.816 229.955 135.541 230.811 135.875 231.838C136.096 232.347 136.189 232.901 136.146 233.454C135.93 235.622 135.287 237.726 134.253 239.646C133.431 241.502 132.338 243.226 131.008 244.762C129.704 246.329 128.255 247.771 126.681 249.069C124.938 250.476 122.908 251.486 120.732 252.031C119.692 252.306 118.587 252.182 117.635 251.684C116.683 251.185 115.954 250.348 115.594 249.338C115.374 248.83 115.281 248.275 115.324 247.723Z" fill="#222831"/>
<path d="M78.006 194.415C79.4387 191.077 81.2535 187.915 83.4144 184.992C85.5183 182.093 87.7749 179.307 90.1748 176.646C92.4941 174.02 95.0265 171.588 97.7465 169.376C100.533 167.003 103.625 165.011 106.941 163.453C107.365 163.232 107.83 163.098 108.307 163.06C108.785 163.021 109.265 163.079 109.719 163.23C110.174 163.381 110.593 163.622 110.952 163.938C111.311 164.253 111.602 164.638 111.808 165.069C112.075 165.517 112.216 166.028 112.216 166.549C112.216 167.07 112.075 167.582 111.808 168.03C110.375 171.368 108.561 174.53 106.4 177.453C102.349 183.276 97.5284 188.529 92.0677 193.069C89.2815 195.442 86.1894 197.434 82.8735 198.992C82.4492 199.213 81.9844 199.347 81.507 199.385C81.0295 199.424 80.5492 199.366 80.0948 199.215C79.6403 199.064 79.2211 198.823 78.8622 198.508C78.5033 198.192 78.2121 197.807 78.006 197.376C77.8052 196.908 77.7017 196.405 77.7017 195.896C77.7017 195.387 77.8052 194.883 78.006 194.415Z" fill="#222831"/>
<path d="M32.3056 280.838C32.3056 280.838 23.1114 266.031 20.6777 257.415C20.5213 256.929 20.4646 256.416 20.5111 255.907C20.5575 255.398 20.7061 254.904 20.9481 254.454L25.8156 242.877C26.1856 242.029 26.2801 241.088 26.086 240.184L25.0043 234.8C24.7835 233.693 24.9758 232.544 25.5452 231.569C27.4381 228.338 32.576 220.53 39.066 217.03C39.5593 216.732 40.1139 216.548 40.6885 216.492L52.8572 215.684C53.3981 215.684 53.9389 215.415 54.4797 215.415L63.4035 211.377C64.2546 211.008 65.2001 210.914 66.1077 211.107C73.8738 212.65 81.1211 216.125 87.1737 221.21C93.2263 226.294 97.8869 232.822 100.721 240.184C100.992 241.061 100.992 242 100.721 242.877L97.7464 254.454C97.514 255.216 97.0964 255.91 96.5303 256.474C95.9643 257.037 95.2674 257.453 94.5014 257.684C93.9413 257.79 93.409 258.009 92.9376 258.328C92.4663 258.647 92.0659 259.06 91.7615 259.54C91.4571 260.019 91.2552 260.556 91.1683 261.117C91.0814 261.678 91.1114 262.251 91.2564 262.8V263.069L93.6902 272.223C93.9584 273.224 93.861 274.288 93.4154 275.225C92.9697 276.162 92.2047 276.911 91.2564 277.338C85.5777 279.492 74.4906 283.531 66.1077 283.531C65.5647 283.503 65.0215 283.583 64.5105 283.768C63.9995 283.953 63.5311 284.239 63.1331 284.608L55.291 290.8C54.7031 291.197 54.0414 291.473 53.3448 291.612C52.6482 291.75 51.9308 291.749 51.2347 291.608C46.3672 289.723 36.3618 285.954 32.3056 280.838Z" fill="#222831"/>
<path d="M36.0917 263.069C35.821 261.646 35.821 260.185 36.0917 258.761C36.3576 257.648 36.9178 256.625 37.7142 255.8C38.4907 254.939 39.4043 254.211 40.4183 253.646C41.664 252.993 43.0726 252.713 44.4746 252.838C45.6907 252.884 46.8568 253.332 47.7877 254.112C48.7185 254.893 49.3608 255.961 49.6125 257.146C49.8832 258.569 49.8832 260.031 49.6125 261.454C49.3466 262.567 48.7864 263.59 47.99 264.415C47.1465 265.368 46.1049 266.126 44.9375 266.638C43.77 267.149 42.5048 267.401 41.2296 267.377C40.0109 267.341 38.8402 266.895 37.9075 266.113C36.9749 265.332 36.335 264.259 36.0917 263.069Z" fill="#70878A"/>
<path d="M74.7614 248.53C74.4903 247.653 74.4903 246.715 74.7614 245.838C74.9821 245.19 75.2533 244.56 75.5727 243.953C76.0438 243.427 76.5906 242.974 77.1952 242.607C78.0585 242.273 78.9735 242.091 79.8994 242.069C80.7201 242.143 81.4979 242.467 82.127 242.997C82.756 243.527 83.2057 244.237 83.4148 245.03C83.6859 245.908 83.6859 246.846 83.4148 247.723C83.1941 248.371 82.9229 249.001 82.6035 249.607C82.1324 250.133 81.5856 250.587 80.981 250.953C80.1177 251.287 79.2028 251.47 78.2769 251.492C77.4736 251.369 76.7202 251.027 76.0998 250.505C75.4794 249.982 75.0162 249.299 74.7614 248.53Z" fill="#70878A"/>
<path d="M134.523 160.222C134.253 158.799 134.253 157.338 134.523 155.915C134.789 154.801 135.349 153.779 136.146 152.953C136.922 152.092 137.836 151.364 138.85 150.799C140.096 150.146 141.504 149.866 142.906 149.991C144.122 150.037 145.288 150.485 146.219 151.266C147.15 152.046 147.792 153.114 148.044 154.299C148.315 155.722 148.315 157.184 148.044 158.607C147.778 159.72 147.218 160.743 146.422 161.568C145.645 162.429 144.732 163.157 143.717 163.722C142.472 164.375 141.063 164.656 139.661 164.53C138.431 164.535 137.238 164.105 136.297 163.316C135.356 162.527 134.727 161.43 134.523 160.222Z" fill="#222831"/>
</svg>
