<svg width="321" height="500" viewBox="0 0 321 500" fill="none" xmlns="http://www.w3.org/2000/svg">
<path d="M122 440.5L56.5 418C55.4548 419.348 53.977 421.689 52.8572 423.186L118.705 445.798C119.601 444.15 121.253 441.923 122 440.5Z" fill="#62C370"/>
<path d="M118.779 445.723L52.9319 423.111C50.9909 425.732 49.0498 428.427 47.1833 431.123L114.225 454.108C115.719 451.338 117.286 448.493 118.779 445.723Z" fill="#171C22"/>
<path d="M128 428.5C123.371 427.003 118.107 425.357 113.031 423.635C94.0678 417.346 78.2405 411.73 65.1755 406.714C63.9064 408.361 60.3228 413.003 56.0674 418.693L121.5 441C124.636 435.16 127.104 430.297 128 428.5Z" fill="#171C22"/>
<path d="M111.219 459.5C112.265 457.778 113.31 455.906 114.355 454.035L47 430.5C44.6856 433.719 42.9083 437.413 41.1912 440.183L109 464C109.747 462.802 110.324 460.923 111.219 459.5Z" fill="#62C370"/>
<path d="M89.3367 481.88L90.3072 481.281C90.3819 481.206 90.4565 481.206 90.5312 481.131L92.099 480.233C95.0102 478.552 97.7377 476.57 100.237 474.318C102.093 472.68 104.303 471.288 105.771 469.293C106.816 467.795 108.002 465.889 109.271 463.793L41.224 440.126L41 440.5C37.6404 445.891 33.9636 451.433 31.4999 456.001C27.3191 463.638 32.5973 470.275 38.0473 472.671C41.4815 474.243 45.7369 476.04 50.739 477.987C58.1456 480.758 65.7596 482.936 73.5094 484.501C78.9254 485.681 84.5864 484.744 89.3367 481.88Z" fill="#171C22"/>
<path d="M317.74 132.083C316.173 111.643 307.139 95.0218 287.878 85.5131C279.964 81.9941 269.736 77.7264 256.671 72.71C256.671 72.71 220.388 -36.678 97.5767 12.8873C86.3035 17.4545 77.3447 30.3324 71.5961 47.1038C41.2107 62.3028 16.7978 83.9408 7.83899 96.669L7.76433 96.7439C7.15623 97.5097 6.6307 98.3379 6.19653 99.2147C6.04722 99.4393 5.89791 99.7388 5.74859 99.9634C4.22356 103.026 3.31053 106.358 3.06094 109.772C1.64245 133.281 0 171.541 0 225.524C0 282.202 1.79177 324.43 3.28491 349.961C4.62874 369.353 7.09242 380.209 24.0396 389.194C25.8313 390.092 27.8471 391.066 30.0121 392.039C30.4601 392.264 30.8334 392.413 31.2813 392.638C37.9258 395.708 46.2127 399.302 56.4407 403.345C48.1092 412.993 40.5456 423.282 33.8196 434.117C28.8176 442.128 24.1142 450.364 20.456 457.178C14.2595 468.558 21.3519 478.142 29.4895 481.736C34.6409 484.132 40.9867 486.827 48.4524 489.672C58.0441 493.269 67.8726 496.196 77.8673 498.432C79.5097 498.806 81.0029 499.106 82.4214 499.406C92.6494 501.202 99.9658 498.657 105.938 495.362L107.431 494.539L107.805 494.314L110.194 492.966C114.519 490.442 118.594 487.509 122.363 484.206C125.141 481.745 127.667 479.011 129.903 476.045C132.367 472.601 135.353 468.109 138.787 462.419C151.031 442.128 152.002 436.139 152.002 436.139C171.338 441.979 185.523 445.797 195.9 448.268C199.418 448.929 203 449.18 206.576 449.017V449.092C247.563 448.343 298.852 405.591 311.32 387.846C312.812 386.155 313.977 384.2 314.754 382.081C316.098 378.487 316.695 374.22 317.068 369.952C318.786 346.143 320.652 305.188 320.652 241.846C320.577 188.312 319.233 153.721 317.74 132.083ZM121.168 441.155C120.422 442.652 119.601 444.15 118.779 445.722C117.286 448.418 115.718 451.338 114.151 454.108C113.105 455.98 112.06 457.777 111.015 459.574C110.194 460.996 109.373 462.269 108.626 463.467C107.282 465.488 106.162 467.211 105.117 468.708C103.608 470.67 101.935 472.498 100.115 474.174C97.5972 476.401 94.8722 478.382 91.9775 480.089L90.4097 480.987C90.335 481.062 90.2604 481.062 90.1857 481.137L89.2152 481.736C84.4859 484.58 78.8647 485.542 73.4625 484.431C65.7127 482.867 58.0988 480.688 50.6921 477.917C45.6901 475.971 41.4347 474.174 38.0004 472.601C32.5505 470.205 27.7724 463.766 31.9532 456.129C34.4169 451.562 37.5525 446.097 40.9121 440.706L41.136 440.331C42.8531 437.636 45.0182 434.491 47.2579 431.197C49.1243 428.577 51.0654 425.806 53.0065 423.186C54.1264 421.688 55.1716 420.266 56.2168 418.843C60.4722 413.153 64.1304 408.436 65.3249 406.864C78.3899 411.88 94.1425 417.496 113.18 423.785C118.257 425.432 123.109 427.079 127.738 428.577C126.693 430.224 124.304 435.165 121.168 441.155ZM202.5 401.5C201.604 412.731 199.709 422.444 180 419C166.562 415.781 145.148 410.431 112 399.5C79.3002 388.644 58.3342 380.089 45.0452 373.949C44.7466 373.8 44.3733 373.65 44 373.5C42.2082 372.676 40.6404 371.928 39.1473 371.179C25.2611 363.767 23.069 355.127 22.0238 339.254C20.7547 318.29 20 278.921 20 232.5C20 188.251 21.3055 151.242 22.5 132C23.7692 116.052 37.9713 111.157 53.5 115.5C66.8636 119.094 86.1542 123.997 112.881 132.832C145.432 143.614 166.211 153.01 179.5 159C195.327 166.862 202.231 179.229 203.5 196C204.695 213.745 204 247.775 204 291.5C203.925 343.386 203.844 381.958 202.5 401.5Z" fill="#E24444"/>
<path d="M148.866 434.568C147.299 433.969 145.656 433.37 144.014 432.846C142.371 432.322 140.803 431.723 139.161 431.199C138.734 431.059 138.27 431.08 137.857 431.26C137.444 431.439 137.111 431.764 136.921 432.172L136.847 432.397C136.399 433.445 135.801 434.643 135.204 435.766C134.607 436.889 134.084 438.012 133.487 439.136C132.293 441.382 131.098 443.628 129.904 445.799L126.245 452.388L122.512 458.977L118.705 465.565C117.436 467.737 116.167 469.908 114.823 472.079C112.21 476.422 109.522 480.689 106.909 485.107C106.727 485.436 106.679 485.823 106.777 486.187C106.874 486.55 107.109 486.861 107.432 487.054C107.716 487.229 108.054 487.296 108.384 487.241C108.713 487.186 109.011 487.013 109.224 486.754C112.617 482.881 115.807 478.832 118.78 474.625C121.766 470.432 124.528 466.089 127.141 461.672C128.41 459.426 129.754 457.255 130.949 454.934C132.143 452.687 133.412 450.366 134.458 448.045C135.577 445.724 136.697 443.403 137.668 441.007C138.19 439.809 138.638 438.611 139.161 437.413C139.46 436.665 139.684 435.991 139.982 435.242L143.192 435.841C144.91 436.141 146.552 436.44 148.269 436.74C148.565 436.772 148.861 436.688 149.098 436.507C149.334 436.326 149.492 436.061 149.538 435.766C149.602 435.518 149.567 435.255 149.442 435.032C149.317 434.809 149.111 434.643 148.866 434.568V434.568Z" fill="#171C22"/>
<path d="M105.042 27.8613C95.1131 27.8613 86.7515 43.0603 86.7515 61.1045C86.7515 79.1487 95.1131 94.3477 105.042 94.3477C114.972 94.3477 123.333 79.1487 123.333 61.1045C123.333 43.0603 114.972 27.8613 105.042 27.8613Z" fill="#62C370"/>
<path d="M105.043 22.3975C91.7538 22.3975 81.3765 39.3934 81.3765 61.0314C81.3765 82.6694 91.7538 99.6654 105.043 99.6654C118.332 99.6654 128.784 82.6694 128.784 61.0314C128.784 39.3934 118.332 22.3975 105.043 22.3975ZM105.043 94.2746C95.1134 94.2746 86.7518 79.0756 86.7518 61.0314C86.7518 42.9873 95.1134 27.7882 105.043 27.7882C114.972 27.7882 123.334 42.9873 123.334 61.0314C123.334 79.0756 114.972 94.2746 105.043 94.2746Z" fill="#171C22"/>
<path d="M110.717 58.3352C101.907 50.249 88.3196 49.4254 80.63 49.7249C79.6573 51.7908 78.9787 53.9835 78.6142 56.2388C78.3282 58.349 78.3031 60.4865 78.5396 62.6029C78.9005 65.4484 79.8136 68.1955 81.2272 70.6891C82.2585 72.53 83.5399 74.2183 85.0347 75.7055C104.595 70.8388 110.717 58.3352 110.717 58.3352ZM81.0032 62.3034C80.406 57.7362 82.1231 53.768 84.8107 53.3936C87.4984 53.0193 90.1114 56.4634 90.7087 61.0306C91.3059 65.5978 89.5888 69.566 86.9011 69.9403C84.2135 70.3147 81.6005 66.9455 81.0032 62.3034V62.3034Z" fill="#ECECEC"/>
<path d="M86.9006 70.015C89.5882 69.6406 91.2307 65.6724 90.7081 61.1052C90.1108 56.538 87.4978 53.0939 84.8102 53.4683C82.1225 53.8426 80.4801 57.8109 81.0027 62.378C81.5999 66.8704 84.2129 70.3145 86.9006 70.015Z" fill="#354A4C"/>
<path d="M115.868 59.8333C115.868 59.459 115.793 59.0846 115.793 58.7102C115.719 58.3359 115.719 57.9615 115.644 57.5872C115.569 57.2128 115.569 56.8384 115.495 56.4641C115.42 56.0897 115.345 55.7154 115.271 55.4159C112.956 42.9871 104.968 34.0774 93.0229 35.6497C84.6613 36.7727 77.9421 42.5379 74.8812 50.2497C74.1346 52.2712 76.0011 54.5174 78.6887 56.2395C78.9943 53.9708 79.6756 51.7692 80.7045 49.7256C87.0503 49.501 97.353 49.9502 105.715 54.742C108.477 56.539 108.999 61.1061 106.386 64.101L105.64 64.8497L105.341 65.1492C101.384 68.8928 94.9639 73.3103 85.1839 75.7062C83.6891 74.219 82.4076 72.5307 81.3764 70.6898C79.5099 73.3852 78.2408 75.7811 79.3606 76.8293C81.7991 79.7472 84.93 82.0034 88.4654 83.3902C92.0009 84.7771 95.8273 85.25 99.5927 84.7657C111.538 83.1185 116.838 72.4118 115.868 59.8333Z" fill="#171C22"/>
<path d="M179.55 157.767C166.336 151.852 145.432 143.541 112.807 132.759C86.0793 123.924 67.1911 118.309 53.8274 114.715C38.2988 110.373 23.0687 115.838 21.7996 131.861C20.6051 151.103 19.2612 188.389 19.2612 232.639C19.2612 279.059 20.7544 318.292 21.9489 339.182C22.9941 355.054 25.0845 363.964 38.9707 371.376C40.4638 372.125 42.1063 372.874 43.8234 373.698C44.1967 373.847 44.4953 373.997 44.8686 374.147C58.1576 380.286 79.2108 388.747 111.911 399.603C145.058 410.534 166.336 416.524 179.774 419.669C199.483 423.038 202.395 412.556 203.291 401.325C204.709 381.784 206.277 343.674 206.277 291.713C206.277 247.913 205.157 213.696 203.963 195.951C202.694 179.18 195.303 165.628 179.55 157.767Z" fill="#171C22"/>
<path d="M219.94 439.658C221.006 437.459 221.736 435.112 222.105 432.695C222.567 430.224 222.841 427.721 222.926 425.208C223.225 420.117 223.523 414.951 223.747 409.784C224.195 399.527 224.569 389.269 224.793 378.937C225.39 358.347 225.614 337.832 225.614 317.243V301.819L225.539 286.395C225.464 276.138 225.315 265.806 225.166 255.548C224.793 234.958 224.195 214.443 223.001 193.928L222.777 190.11L222.628 188.163L222.478 186.291L222.254 184.42L222.03 182.698C221.956 182.099 221.881 181.5 221.732 180.826L221.358 179.029C220.375 174.222 218.769 169.566 216.58 165.178C214.338 160.84 211.442 156.875 207.995 153.423C204.506 149.999 200.561 147.076 196.274 144.737L194.706 143.839C194.154 143.545 193.58 143.294 192.989 143.09L189.48 141.518C187.165 140.47 184.776 139.496 182.462 138.523C177.759 136.576 172.981 134.63 168.203 132.758C158.646 129.014 149.09 125.421 139.385 121.976C120.123 115.013 100.638 108.499 81.0777 102.285C71.2977 99.1404 61.5176 96.0707 51.6629 93.1507L44.2718 90.9794L40.6136 89.9312C39.4191 89.6317 38.1499 89.3322 36.9554 89.1076C32.0759 88.1342 27.0529 88.1342 22.1733 89.1076V89.1076C22.025 89.1404 21.8717 89.1432 21.7222 89.1158C21.5728 89.0885 21.4303 89.0315 21.3032 88.9483C21.176 88.865 21.0666 88.7572 20.9815 88.631C20.8963 88.5049 20.8371 88.3629 20.8073 88.2136C20.7776 88.0642 20.7778 87.9104 20.808 87.7611C20.8382 87.6118 20.8978 87.4701 20.9833 87.3442C21.0687 87.2183 21.1784 87.1107 21.3058 87.0278C21.4333 86.9449 21.5759 86.8884 21.7254 86.8614C26.8945 85.6774 32.2421 85.4995 37.478 86.3373C38.8219 86.5619 40.091 86.7866 41.3602 87.086L45.0931 88.0594L52.5588 90.0809C62.4881 92.7763 72.3429 95.6215 82.1976 98.6163C92.0523 101.536 101.832 104.681 111.612 107.826C121.393 110.97 131.173 114.19 140.878 117.559C150.583 120.928 160.289 124.372 169.92 128.116C174.698 129.988 179.55 131.86 184.328 133.806C186.717 134.78 189.106 135.753 191.496 136.801L195.079 138.373C195.676 138.673 196.274 138.897 196.871 139.197L198.663 140.17C203.424 142.701 207.798 145.903 211.653 149.679C215.508 153.474 218.757 157.843 221.284 162.632C223.747 167.434 225.554 172.546 226.659 177.831L227.032 179.778C227.182 180.451 227.256 181.125 227.331 181.724L227.63 183.671L227.854 185.692L228.077 187.714L228.227 189.661L228.451 193.554C229.645 214.144 230.243 234.808 230.541 255.398C230.69 265.731 230.765 275.988 230.765 286.32C230.765 296.653 230.765 306.91 230.616 317.243C230.392 337.832 229.869 358.497 229.048 379.087C228.6 389.419 228.077 399.677 227.406 410.009C227.032 415.175 226.734 420.266 226.286 425.433C226.059 428.072 225.685 430.697 225.166 433.294C224.654 435.96 223.748 438.534 222.478 440.931C222.286 441.254 221.976 441.49 221.614 441.588C221.251 441.686 220.865 441.638 220.537 441.455C220.375 441.383 220.229 441.277 220.11 441.145C219.991 441.013 219.9 440.858 219.844 440.689C219.788 440.52 219.767 440.341 219.784 440.163C219.8 439.986 219.853 439.814 219.94 439.658V439.658Z" fill="#171C22"/>
<path d="M116.987 10.4173C122.073 11.8551 126.785 14.3842 130.799 17.8296C134.734 21.2136 138.222 25.0884 141.176 29.3599C144.096 33.5857 146.668 38.0428 148.866 42.6871C151.044 47.3183 152.963 52.0675 154.615 56.9128C157.842 66.5525 160.264 76.4447 161.856 86.4872C163.488 96.4851 164.263 106.605 164.171 116.736C164.171 116.89 164.14 117.042 164.079 117.183C164.018 117.325 163.929 117.452 163.817 117.557C163.705 117.663 163.572 117.744 163.428 117.796C163.283 117.847 163.129 117.869 162.976 117.859C162.693 117.856 162.421 117.747 162.213 117.553C162.006 117.359 161.879 117.094 161.856 116.81V116.81C160.737 106.852 159.243 97.0442 157.228 87.3108C156.182 82.4441 155.063 77.6523 153.793 72.8605C152.524 68.0687 151.106 63.3518 149.463 58.7097C147.895 54.0677 146.029 49.5005 144.013 45.0081C141.995 40.5613 139.675 36.2586 137.07 32.1302C134.481 28.064 131.452 24.2975 128.037 20.8994C127.589 20.4501 127.141 20.0758 126.693 19.7014L125.349 18.5035L123.931 17.4552L123.184 16.9311L122.437 16.4819L120.944 15.5086L119.376 14.685L118.63 14.2357L117.809 13.8614L116.166 13.1127H116.092C115.736 12.9931 115.441 12.7368 115.273 12.3999C115.105 12.0631 115.077 11.6732 115.196 11.3157C115.248 11.1343 115.337 10.9656 115.457 10.8204C115.578 10.6752 115.727 10.5567 115.895 10.4722C116.063 10.3878 116.247 10.3393 116.435 10.3298C116.624 10.3204 116.811 10.3502 116.987 10.4173V10.4173Z" fill="#171C22"/>
<path d="M61.4425 88.6595C61.0083 85.7609 60.8334 82.8293 60.9199 79.8995C60.9801 76.9912 61.2294 74.09 61.6665 71.2143C62.0942 68.3299 62.7178 65.4781 63.5329 62.6789C64.3561 59.8537 65.4047 57.0995 66.6685 54.443C66.7342 54.3027 66.8276 54.1772 66.9431 54.0742C67.0586 53.9713 67.1938 53.8929 67.3404 53.8439C67.487 53.7949 67.642 53.7762 67.796 53.7891C67.95 53.802 68.0998 53.8462 68.2363 53.9189C68.442 54.0241 68.6141 54.1852 68.7329 54.3838C68.8517 54.5823 68.9125 54.8104 68.9082 55.042C68.7589 57.962 68.3856 60.7322 68.087 63.5774C67.7884 66.4225 67.4151 69.1928 67.0418 71.963C66.6685 74.7333 66.2952 77.5784 65.8473 80.3487C65.3993 83.119 64.9514 85.9641 64.2795 88.8092C64.1882 89.1796 63.9602 89.5015 63.6415 89.71C63.3228 89.9184 62.9372 89.9979 62.5624 89.9323C62.2765 89.845 62.0204 89.6797 61.8227 89.455C61.6249 89.2303 61.4933 88.9549 61.4425 88.6595V88.6595Z" fill="#171C22"/>
<path d="M250.027 76.6782C249.961 76.5379 249.868 76.4124 249.752 76.3094C249.637 76.2065 249.501 76.1281 249.355 76.0791C249.208 76.0301 249.053 76.0114 248.899 76.0243C248.745 76.0372 248.595 76.0814 248.459 76.1541C243.532 78.4751 238.679 80.9459 233.826 83.4915V79.8228C233.751 77.5018 233.677 75.1807 233.527 72.8597C233.378 70.5387 233.154 68.2177 232.856 65.8966C232.559 63.5488 232.11 61.2228 231.512 58.9335V58.9335C231.429 58.6235 231.286 58.3328 231.091 58.0783C230.896 57.8238 230.653 57.6104 230.375 57.4504C230.098 57.2904 229.792 57.187 229.474 57.146C229.157 57.1049 228.834 57.1272 228.525 57.2115H228.451C228.302 57.2863 228.152 57.2863 228.003 57.3612L227.928 57.4361L221.06 61.1797L214.266 64.9982C212.026 66.271 209.787 67.6187 207.472 68.8915C205.158 70.1643 202.993 71.512 200.753 72.8597C200.562 72.959 200.386 73.0851 200.23 73.2341L200.156 73.3089C199.798 73.6461 199.544 74.0796 199.425 74.5575C199.305 75.0355 199.326 75.5378 199.484 76.0043C199.857 78.1008 200.23 80.1972 200.604 82.3685C200.977 84.6146 201.35 86.8608 201.724 89.1818C202.097 91.428 202.396 93.749 202.694 95.9952L203.291 100.263L198.513 103.033C195.303 104.98 192.018 106.852 188.808 108.873C182.387 112.766 175.892 116.81 169.696 121.077C169.535 121.172 169.395 121.299 169.285 121.45C169.175 121.6 169.097 121.772 169.055 121.954C169.013 122.136 169.008 122.325 169.041 122.509C169.075 122.693 169.145 122.868 169.248 123.024C169.447 123.318 169.744 123.532 170.086 123.628C170.427 123.724 170.791 123.695 171.114 123.548C177.983 120.329 184.702 116.81 191.272 113.216C194.631 111.419 197.916 109.547 201.201 107.75L211.056 102.135C217.551 98.3162 224.046 94.4977 230.467 90.5295C236.887 86.5613 243.308 82.5182 249.504 78.2505C249.759 78.0896 249.951 77.8449 250.046 77.5582C250.141 77.2714 250.134 76.9604 250.027 76.6782V76.6782ZM228.302 86.4115C221.657 89.9305 215.013 93.5993 208.443 97.3429L206.651 98.3911V95.6957C206.576 93.3746 206.502 90.9787 206.278 88.6577C206.128 86.3367 205.904 84.0156 205.606 81.6197C205.382 79.8977 205.158 78.2505 204.934 76.5284C206.726 75.5551 208.443 74.5818 210.16 73.6084C212.4 72.3356 214.714 71.0628 216.954 69.7151L223.673 65.7469L227.63 63.351C227.928 64.3992 228.152 65.5223 228.376 66.6453C228.824 68.8166 229.197 71.0628 229.571 73.3089C229.944 75.5551 230.243 77.8013 230.541 80.0474L231.213 84.8392L228.302 86.4115Z" fill="#171C22"/>
<path d="M263.241 246.638V235.782C263.241 218.187 275.111 206.507 282.801 206.507C283.623 206.478 284.441 206.638 285.192 206.976C285.942 207.313 286.606 207.819 287.131 208.454C288.475 210.251 289.446 213.171 289.446 216.914V231.29L295.866 227.097V216.914C295.866 211.523 294.821 207.256 292.506 204.261C291.408 202.786 289.975 201.596 288.326 200.789C286.677 199.981 284.86 199.58 283.025 199.619C277.052 199.619 270.483 203.512 265.406 210.026C259.881 217.064 256.97 226.273 256.97 235.857V250.831L263.241 246.638Z" fill="#171C22"/>
<path d="M295.941 233.459L256.223 257.269C250.997 260.413 249.131 263.109 249.131 270.895V272.917C249.803 272.243 251.221 271.644 252.341 270.97C255.28 269.304 258.322 267.828 261.449 266.553C262.718 266.029 263.838 265.654 264.585 265.355C265.406 265.13 265.854 264.98 265.854 264.98C266.011 264.94 266.174 264.931 266.335 264.954C266.495 264.977 266.649 265.032 266.788 265.116C266.927 265.2 267.048 265.31 267.144 265.441C267.24 265.572 267.309 265.721 267.347 265.879C267.397 266.076 267.395 266.283 267.343 266.479C267.291 266.676 267.189 266.856 267.049 267.002C267.049 267.002 266.675 267.376 266.078 267.9C265.481 268.425 264.585 269.248 263.465 270.072C260.803 272.147 258.01 274.048 255.103 275.762C253.168 276.935 251.174 278.01 249.131 278.982V289.464C249.803 288.79 251.221 288.191 252.341 287.517C255.28 285.85 258.322 284.375 261.449 283.099C262.718 282.575 263.838 282.201 264.585 281.902C265.406 281.677 265.854 281.527 265.854 281.527C266.011 281.486 266.174 281.477 266.335 281.501C266.495 281.524 266.649 281.579 266.788 281.663C266.927 281.746 267.048 281.857 267.144 281.988C267.24 282.119 267.309 282.268 267.347 282.426C267.392 282.635 267.388 282.852 267.336 283.059C267.284 283.267 267.186 283.46 267.049 283.624C267.049 283.624 266.675 283.998 266.078 284.522C265.481 285.046 264.585 285.795 263.465 286.693C260.803 288.768 258.01 290.669 255.103 292.384C253.168 293.557 251.174 294.631 249.131 295.603V306.085C249.803 305.411 251.221 304.812 252.341 304.139C255.28 302.472 258.322 300.996 261.449 299.721C262.718 299.197 263.838 298.823 264.585 298.523C265.406 298.299 265.854 298.149 265.854 298.149C266.011 298.108 266.174 298.099 266.335 298.122C266.495 298.146 266.649 298.201 266.788 298.284C266.927 298.368 267.048 298.478 267.144 298.609C267.24 298.74 267.309 298.889 267.347 299.047C267.392 299.257 267.388 299.473 267.336 299.681C267.284 299.889 267.186 300.082 267.049 300.245C267.049 300.245 266.675 300.62 266.078 301.144C265.481 301.668 264.585 302.416 263.465 303.315C260.803 305.39 258.01 307.291 255.103 309.005C253.168 310.178 251.174 311.253 249.131 312.225V317.765C249.131 323.68 251.445 324.878 257.418 321.284L298.703 296.502C303.033 293.207 303.481 290.063 303.481 285.271V238.626C303.481 234.807 301.689 230.015 295.941 233.459Z" fill="#171C22"/>
</svg>
