<svg width="1117" height="1209" viewBox="0 0 1117 1209" fill="none" xmlns="http://www.w3.org/2000/svg">
<path d="M677.852 555.105C675.869 552.237 671.903 551.575 669.038 553.34L621.002 582.681C616.595 584.887 613.289 576.063 618.137 572.974L632.46 564.15C635.545 562.164 636.426 558.193 634.663 555.105C632.901 552.016 628.934 550.913 625.849 552.899L615.713 559.076C610.204 562.385 607.12 556.87 606.899 549.59V549.149C606.899 547.163 606.679 545.178 606.679 543.192C606.679 542.089 606.459 540.986 606.459 540.104C606.018 531.941 608.221 525.323 615.493 521.132L633.782 510.101C637.748 507.454 639.071 502.159 636.426 498.188C634.002 494.438 628.934 493.114 624.968 495.321L612.188 503.042C607.56 505.91 602.713 504.586 601.611 498.188C601.17 495.982 600.95 493.776 600.509 491.791C599.407 483.628 601.611 477.672 606.899 474.363L654.054 445.905C657.139 444.14 658.241 440.169 656.258 437.08C654.495 433.992 650.529 432.889 647.444 434.874L610.866 456.935C607.12 459.141 603.374 453.185 606.899 450.979L622.985 441.272C626.951 438.625 628.273 433.33 625.629 429.359C623.205 425.609 618.137 424.285 614.171 426.491L598.746 435.757C590.373 440.831 584.203 437.301 580.898 430.462C580.016 428.477 578.915 426.491 577.813 424.506C576.931 422.962 576.05 421.417 575.169 419.873C574.508 418.77 573.847 417.667 572.965 416.343L572.745 416.123C568.778 409.725 570.101 403.107 575.169 400.239L585.305 394.062C588.39 392.518 589.712 388.547 587.949 385.238C586.407 382.149 582.44 380.826 579.135 382.59C578.915 382.811 578.694 382.811 578.474 383.032L568.338 389.209C561.948 393.621 552.252 382.811 559.303 378.62L594.78 357.221C598.746 354.573 600.068 349.279 597.424 345.308C595 341.558 589.932 340.234 585.966 342.44L552.473 362.515C541.455 369.133 525.369 369.575 517.216 363.839L516.996 363.618L513.25 361.192C511.047 359.647 508.623 358.103 506.419 356.779C505.978 356.559 505.538 356.118 505.097 355.897C497.164 350.823 493.859 345.087 493.639 339.352C493.639 337.145 493.859 334.939 494.52 332.954C494.741 332.292 494.961 331.41 495.402 330.748C496.503 328.321 497.825 326.115 499.148 324.13C499.588 323.468 500.249 322.585 500.69 321.924C501.792 320.379 503.114 319.056 504.436 317.511C506.64 315.305 508.843 313.099 511.047 311.114C513.47 309.128 515.894 307.143 518.538 305.157C520.301 303.834 521.844 302.51 523.607 301.407C525.369 300.084 527.132 298.98 528.675 297.877C532.2 295.671 535.505 293.465 538.59 291.48C539.031 291.259 539.472 290.818 540.133 290.377L540.574 289.936L541.455 289.053C541.675 288.833 541.896 288.612 542.116 288.391L542.777 287.73L543.658 286.626L544.099 285.965L544.981 284.641L545.421 283.979L546.303 282.435L546.523 281.994C546.743 281.332 547.184 280.891 547.404 280.229L547.625 280.008C548.066 279.346 548.286 278.464 548.506 277.802C551.811 271.184 558.422 262.58 564.151 259.051L579.355 249.785C583.322 247.138 584.644 241.843 582 237.872C579.576 234.122 574.508 232.798 570.541 235.005L564.151 238.975C559.744 241.623 556.88 236.328 557.32 230.151C557.32 228.828 557.541 227.504 557.541 226.18C558.422 215.371 557.981 204.34 556.659 193.751C556.659 193.53 556.659 193.53 556.659 193.31C556.659 182.941 559.964 171.911 567.016 167.719L587.068 155.586C590.153 153.821 591.034 149.85 589.271 146.762C587.508 143.673 583.542 142.791 580.457 144.556L578.254 145.879C576.05 147.203 573.847 147.424 572.745 143.232C572.524 142.57 572.304 141.908 571.863 141.467C569.44 137.496 564.151 136.173 560.185 138.599L555.778 141.467C550.93 144.335 546.082 141.247 543.879 135.07C530.217 104.847 509.724 82.5652 477.112 83.0064H475.129H473.807C471.604 83.227 469.4 83.4477 467.197 83.6683C336.969 103.082 368.479 211.841 368.479 211.841C368.479 211.841 403.956 307.805 359.225 334.057L356.58 335.16C354.597 336.042 352.834 336.925 350.851 338.028L350.19 338.469C344.02 341.999 338.071 346.411 332.783 351.485C324.409 359.647 317.138 368.913 311.408 379.061C305.9 388.767 301.493 398.915 297.967 409.504C294.441 419.873 291.577 430.462 289.373 441.272C288.933 443.919 288.272 446.566 287.831 449.214C287.39 451.861 286.949 454.508 286.509 457.156C285.627 462.45 284.966 467.745 284.305 473.26C283.204 483.849 282.322 494.438 281.881 504.807C281.661 509.881 281.441 514.955 281.22 520.028C281.22 522.455 281.22 525.102 281 527.529V534.809C281 537.236 281 539.662 281 542.089C281 544.516 281 546.722 281.22 549.149C281.22 553.781 281.441 558.414 281.661 562.606C281.881 571.43 282.542 579.813 282.983 587.314C283.424 595.035 284.085 601.874 284.746 608.051C285.407 614.228 285.848 619.522 286.288 623.934C287.39 632.759 287.831 637.832 287.831 637.832C288.051 640.039 288.712 642.245 289.373 644.23C290.255 657.246 293.119 676.88 300.391 689.896C303.255 694.97 309.866 696.735 315.154 693.867C316.256 693.205 317.358 692.322 318.239 691.219C318.68 692.322 319.341 693.425 319.782 694.308C322.646 699.382 329.257 701.147 334.545 698.279C335.427 697.838 336.308 697.176 336.969 696.293C340.274 703.132 344.902 709.309 350.19 714.604C352.173 731.811 360.767 819.171 346.885 974.699C344.902 996.539 361.208 1007.35 383.023 1009.33C384.124 1009.33 385.446 1009.55 386.548 1009.55C392.057 1009.55 397.566 1008.89 402.854 1007.79H403.074C405.278 1007.35 407.261 1006.47 409.465 1005.58C431.94 997.642 448.246 989.921 459.484 982.862C459.264 985.729 459.044 988.377 458.823 991.245C458.823 991.686 458.823 992.127 458.823 992.568C458.603 994.995 458.383 997.422 458.162 999.848C458.162 1000.51 458.162 1001.17 457.942 1002.05C457.722 1004.26 457.501 1006.69 457.281 1008.89L457.061 1011.1C456.84 1014.19 456.62 1017.06 456.179 1020.14C455.959 1022.79 455.959 1025.22 456.179 1027.87C457.281 1036.69 462.569 1044.63 470.722 1048.82C471.604 1049.48 472.705 1049.93 473.807 1050.37C477.112 1051.91 480.638 1053.01 484.384 1053.68C487.028 1054.12 489.672 1054.56 492.317 1054.78C493.418 1054.78 494.741 1055 495.842 1055C496.944 1055 498.707 1055 500.249 1055C504.216 1054.78 508.402 1054.12 512.369 1053.24H512.589C514.792 1052.79 516.776 1051.91 518.979 1051.03C588.83 1026.1 599.848 1004.04 580.677 993.009C558.642 980.435 538.811 996.76 541.014 951.535C542.116 926.827 542.997 904.325 543.218 884.03C543.218 882.485 543.218 880.941 543.218 879.397C543.658 873.44 546.964 868.146 552.032 865.057L567.016 856.013C570.101 854.248 570.982 850.277 569.219 847.188C567.456 844.1 563.49 843.217 560.405 844.982L550.269 850.939C546.082 853.365 543.438 851.159 543.438 846.968C543.438 845.203 543.438 843.659 543.438 842.114C544.099 835.717 549.388 830.422 556.88 826.01L579.135 812.553C583.322 810.126 584.423 804.611 582 800.64C581.779 800.199 581.559 799.537 581.339 799.537C578.915 797.331 579.355 794.022 582.881 791.816L590.814 787.183C593.899 785.418 594.78 781.447 593.017 778.359C591.254 775.27 587.288 774.167 584.203 776.153L555.778 793.14C546.082 799.537 542.557 794.904 541.896 785.86C541.235 775.05 540.794 761.593 540.353 747.695C542.777 747.253 544.981 745.93 546.523 744.165L546.303 744.827C543.438 749.901 545.201 756.519 550.269 759.607C555.337 762.475 561.948 760.71 565.033 755.637C565.914 754.092 566.795 752.327 567.456 750.563C570.101 755.857 576.491 758.284 581.779 755.637C583.762 754.754 585.305 753.21 586.407 751.224C592.797 739.753 595.882 723.207 596.983 710.633C597.204 709.971 597.424 709.088 597.644 708.427C597.865 707.765 597.865 707.324 597.865 706.662C597.865 706 598.085 706 598.085 705.779C598.085 705.779 598.967 700.705 600.068 692.322C600.729 690.116 600.95 687.69 601.17 685.263C601.17 678.203 608.882 670.924 613.51 668.276L637.308 653.937C641.274 651.731 642.816 646.436 640.613 642.465C638.409 638.494 633.121 636.95 629.155 639.156C628.934 639.377 628.714 639.377 628.494 639.597L612.849 649.304C608.442 651.51 603.594 643.348 605.797 635.847C605.797 634.744 605.577 633.42 605.797 632.317C606.018 628.346 606.018 624.375 606.238 620.405V620.184C606.899 609.815 613.069 604.3 618.137 599.888L674.988 565.915C678.954 562.164 679.835 558.193 677.852 555.105C678.073 555.105 678.073 555.326 677.852 555.105ZM452.874 845.203C451.111 842.114 447.145 841.011 444.06 842.997L442.958 843.659C438.331 846.527 434.144 844.541 434.585 837.261C434.585 834.834 434.585 832.628 434.585 830.202C434.805 824.686 437.89 819.833 442.738 817.406L453.976 810.347C457.942 807.92 459.264 802.626 456.84 798.434C454.416 794.463 449.128 793.14 444.941 795.566L439.432 799.317C436.788 801.081 434.805 799.317 434.585 793.581C434.364 784.977 434.364 777.035 434.144 769.535C434.585 768.873 434.585 767.99 434.585 767.108C434.144 749.901 461.908 772.844 463.23 786.301C463.671 793.581 464.112 802.184 464.552 812.112C464.552 813.435 464.552 814.98 464.773 816.524C465.214 828.216 465.434 841.673 465.434 856.674L448.467 867.043C444.06 869.249 440.755 860.425 445.602 857.336L450.891 853.807C453.755 852.262 454.637 848.291 452.874 845.203ZM347.987 605.624C347.987 604.962 347.987 604.08 347.987 603.418C347.987 601.212 347.766 598.564 347.766 596.138L348.207 605.403L347.987 605.624ZM432.381 905.208C432.381 903.002 432.602 900.796 432.602 898.59C432.822 893.295 435.466 888.442 440.093 886.015L465.213 871.014C465.213 873.441 465.213 875.867 465.213 878.514V879.617C465.213 884.691 465.213 889.986 464.993 895.501V896.604C464.773 902.119 464.773 907.635 464.552 913.591C464.552 914.032 464.552 914.253 464.552 914.694C464.332 920.65 464.112 926.607 463.891 932.784C463.891 933.225 463.891 933.446 463.891 933.887C463.671 936.975 463.671 940.064 463.451 943.152V943.373C444.941 937.637 430.618 944.035 432.381 905.208Z" fill="#B39370"/>
<path d="M429.737 743.282C421.804 736.223 415.635 727.399 411.889 717.471C409.905 712.397 408.583 707.323 407.482 702.029C406.6 696.734 406.38 691.44 406.38 686.145C406.6 675.556 409.024 664.967 413.431 655.26C417.838 645.554 424.449 637.171 432.822 630.552C433.924 629.67 435.687 629.891 436.788 630.994C437.449 631.876 437.449 633.42 436.788 634.303C431.28 641.803 426.873 650.186 423.788 659.011C420.923 667.835 419.381 676.88 419.381 686.145C419.16 690.778 419.601 695.411 420.262 699.823C420.923 704.456 421.804 708.868 422.906 713.28C425.55 722.104 429.517 730.708 434.585 738.429C435.687 739.973 435.026 742.179 433.483 743.062C432.381 744.385 430.839 744.165 429.737 743.282Z" fill="#5E3F26"/>
<path d="M340.715 428.477C344.241 441.272 346.665 454.288 348.207 467.304C349.089 473.702 349.75 480.32 350.411 486.938C351.072 493.556 351.513 500.174 351.953 506.572C352.614 519.808 353.055 532.824 352.835 546.061C352.614 559.297 351.953 572.313 350.411 585.549C350.19 587.094 348.868 588.197 347.326 587.976C346.004 587.755 345.122 586.873 344.902 585.549C344.021 579.152 343.58 572.533 343.139 565.915C342.698 559.297 342.258 552.899 341.817 546.502L339.173 507.454L334.105 429.801C333.884 428.036 335.427 426.271 337.19 426.271C338.732 426.051 340.275 427.154 340.715 428.477Z" fill="#5E3F26"/>
<path d="M546.302 171.029C548.286 178.75 548.947 185.81 542.777 186.913C536.607 188.016 533.963 182.501 531.98 174.559C529.996 166.837 529.115 160.219 535.505 158.675C541.895 157.131 544.54 163.308 546.302 171.029Z" fill="#171C22"/>
<path d="M555.778 234.343C554.676 236.108 553.354 237.652 551.591 238.756C550.049 239.859 548.506 240.741 546.743 241.403C544.981 242.065 543.218 242.506 541.455 242.726C539.472 242.947 537.268 242.726 535.285 242.285C533.522 241.844 532.421 239.859 532.861 237.873C532.861 237.652 533.082 237.432 533.082 237.211C534.183 235.446 535.506 233.902 537.048 232.579C538.59 231.475 540.133 230.372 541.675 229.711C543.438 228.828 545.201 228.387 546.964 228.166C548.947 227.946 550.93 227.946 552.913 228.387C555.117 229.049 556.439 231.255 555.998 233.461C555.998 233.682 555.998 233.902 555.778 234.343Z" fill="#171C22"/>
<path d="M522.946 477.452C529.556 493.776 534.624 510.763 538.15 528.191C540.133 536.795 541.455 545.398 542.998 554.223L544.761 567.239C545.201 571.651 545.642 576.063 546.083 580.475C546.523 584.887 546.744 589.299 546.964 593.711C547.184 598.123 547.625 602.536 547.625 606.948C547.625 615.772 548.066 624.596 547.405 633.421C546.964 651.069 544.981 668.497 541.896 685.925C541.676 687.469 540.133 688.352 538.591 688.131C537.269 687.91 536.387 686.807 536.387 685.484C536.608 668.056 537.048 650.848 536.387 633.641C535.726 616.434 534.845 599.226 533.082 582.019C532.641 577.607 532.201 573.416 531.76 569.003L530.217 556.208C529.116 547.605 527.794 539.221 526.471 530.618C523.607 513.631 520.302 496.644 516.335 480.099V479.878C515.674 478.113 516.776 476.128 518.539 475.466C520.522 474.584 522.505 475.466 522.946 477.452Z" fill="#5E3F26"/>
<path d="M525.149 743.944C521.403 740.856 519.64 735.782 520.963 730.928C521.183 730.267 521.403 729.825 521.624 729.164L522.285 727.619C522.505 726.957 522.946 726.075 523.166 725.413C523.827 723.869 524.268 722.325 524.929 720.78C526.031 717.471 527.132 714.383 528.014 710.853C528.895 707.323 529.997 704.014 531.539 700.485C531.98 699.602 533.082 698.94 533.963 699.382C534.624 699.602 535.065 700.264 535.065 700.926C535.506 704.676 535.726 708.427 535.285 712.177C535.065 715.927 534.184 719.677 533.082 723.428C532.421 725.413 531.76 727.178 530.878 728.943C530.438 729.825 529.997 730.708 529.336 731.59L528.675 732.473L528.234 733.134C527.132 735.561 527.132 738.208 528.234 740.635V740.856C528.675 741.959 528.234 743.282 526.912 743.944C526.471 744.606 525.59 744.606 525.149 743.944Z" fill="#5E3F26"/>
<path d="M572.965 741.959C572.965 738.43 573.406 734.679 573.847 731.15C574.287 727.62 575.169 724.09 575.83 720.781C576.711 717.251 577.593 713.942 578.474 710.633C579.576 707.324 580.678 703.795 582 700.485C582.44 699.603 583.542 699.162 584.424 699.382C585.085 699.603 585.525 700.265 585.525 700.927C585.966 704.677 585.966 708.207 585.525 711.957C585.305 715.487 584.644 719.016 583.983 722.546C583.322 726.076 582.44 729.605 581.118 732.915C580.017 736.444 578.694 739.753 576.932 742.842C576.271 743.945 574.728 744.386 573.847 743.504C573.406 743.504 572.965 742.842 572.965 741.959Z" fill="#5E3F26"/>
<path d="M553.574 733.576C553.354 730.708 553.574 727.84 554.015 724.752C554.235 721.884 554.896 719.016 555.337 716.368C555.998 713.501 556.659 710.853 557.541 708.206C558.422 705.338 559.524 702.691 560.625 700.044C561.066 699.161 562.168 698.72 563.27 699.161C563.71 699.382 564.151 700.044 564.371 700.485C564.812 703.353 565.033 706.441 564.812 709.53C564.592 712.397 564.371 715.265 563.71 718.133C563.27 721.001 562.388 723.869 561.507 726.516C560.625 729.384 559.303 732.032 557.981 734.679C557.32 735.782 555.778 736.002 554.676 735.341C554.015 734.679 553.574 734.238 553.574 733.576Z" fill="#5E3F26"/>
<path d="M330.579 686.806C325.511 679.747 322.426 671.584 321.104 663.201C319.561 654.598 319.782 645.994 321.544 637.611C323.307 629.007 327.053 620.845 332.342 614.006C337.63 607.167 344.241 601.652 352.173 598.122C353.495 597.461 355.258 598.122 355.919 599.446C356.36 600.549 356.14 601.652 355.258 602.535C349.97 607.609 345.342 613.565 341.596 619.963C338.071 626.14 335.647 632.978 334.325 640.038C331.681 654.598 332.562 669.378 336.749 683.497V683.718C337.189 685.483 336.308 687.468 334.325 687.909C333.003 688.13 331.46 687.689 330.579 686.806Z" fill="#5E3F26"/>
<path d="M477.357 146.535C477.475 145.506 477.784 144.508 478.267 143.59C478.444 143.197 478.734 142.864 479.102 142.636C479.469 142.407 479.896 142.293 480.329 142.307C481.266 142.475 481.954 143.568 482.446 144.663C483.31 146.61 483.862 148.68 484.083 150.798C484.317 152.447 484.196 154.126 483.727 155.725C482.653 158.882 479.735 159.304 478.158 156.548C476.744 154.071 476.915 149.369 477.357 146.535Z" fill="#171C22"/>
<path fill-rule="evenodd" clip-rule="evenodd" d="M561.016 69.423C558.556 64.4626 551.117 63.7434 550.371 63.6806C560.47 55.6773 562.351 43.5333 557.468 37.1805C553.395 31.8835 545.577 31.8617 544.163 31.8809C544.222 24.5124 540.749 17.6721 534.849 14.2131C526.745 9.4637 515.147 11.7287 508.239 20.3968C507.967 17.0024 506.741 13.7528 504.702 11.0195C502.663 8.28619 499.892 6.17953 496.708 4.9404C489.172 2.15206 480.307 4.99231 475.42 12.0067C474.313 8.83765 472.265 6.07864 469.547 4.09567C466.829 2.1127 463.57 0.999505 460.202 0.903768C456.835 0.80803 453.517 1.73427 450.69 3.55962C447.863 5.38497 445.66 8.02314 444.374 11.1241C442.531 7.49044 439.632 4.49396 436.054 2.52549C432.477 0.557017 428.386 -0.292083 424.317 0.0889242C420.247 0.469932 416.387 2.06336 413.241 4.66141C410.094 7.25946 407.806 10.7415 406.676 14.6535C405.489 13.8371 396.571 7.93388 385.389 11.1225C382.072 12.1156 378.99 13.7611 376.323 15.9616C373.657 18.1622 371.461 20.873 369.865 23.9338C369.321 23.5494 361.774 18.4123 353.456 21.7257C346.683 24.4194 342.297 31.5678 342.812 39.3885C335.717 38.4993 329.076 42.4867 326.845 48.6646C325.972 51.248 325.841 54.0232 326.468 56.6767C327.095 59.3302 328.455 61.7562 330.394 63.6806C319.568 63.9443 312.05 73.0269 313.097 81.3484C313.897 87.7021 319.656 93.3458 327.289 94.5985C326.779 94.8698 320.689 98.2367 320.193 104.312C319.697 110.386 325 116.861 333.057 118.005C325.413 121.496 322.211 129.515 324.631 135.229C327.083 141.027 334.372 142.228 334.831 142.297C328.476 146.242 327.289 153.836 330.396 157.755C332.526 160.441 336.73 161.468 340.87 160.444L340.895 160.51C334.656 164.675 333.613 172.543 337.049 176.746C339.548 179.804 344.409 180.921 349.023 179.397C345.844 182.95 344.97 187.874 346.806 191.764C349.092 196.607 355.282 199.211 361.184 197.299L361.406 197.752C360.02 199.818 357.919 203.697 359.224 207.222C360.436 210.495 364.321 212.945 367.478 213.508C366.124 214.697 365.122 216.231 364.579 217.945C364.037 219.659 363.974 221.488 364.399 223.235C365.576 227.573 370.025 230.665 375.044 230.301C375.535 236.82 378.29 239.504 379.479 240.46C382.581 242.952 387.164 242.967 396.332 242.999C399.49 243.011 402.325 242.889 403.432 242.801C409.398 242.33 446.915 236.419 463.744 211.641C484.444 181.168 462.651 138.565 478.602 131.477C479.396 131.124 482.993 129.525 485.917 131.035C494.195 135.306 486.693 159.063 494.787 162.836C497.289 164.002 500.116 162.717 500.331 162.615C509.894 158.103 500.458 135.469 510.532 127.279C519.26 120.185 535.45 129.907 544.349 121.426C546.014 119.936 547.177 117.969 547.676 115.795C548.774 110.373 544.596 105.699 543.716 104.754C549.137 107.204 555.201 104.209 556.581 99.4534C557.83 95.1394 555.067 89.9127 549.928 88.4114C559.955 84.2456 563.697 74.8289 561.016 69.423Z" fill="#171C22"/>
<path d="M506.156 53.2009C506.023 53.1347 505.997 52.8877 506.097 52.4405C506.297 51.8065 506.646 51.229 507.115 50.7558C507.856 49.9973 508.755 49.4096 509.749 49.0342C511.038 48.548 512.406 48.2994 513.785 48.3007C514.583 48.2941 515.38 48.3606 516.166 48.4992C517.007 48.6412 517.835 48.8492 518.643 49.1213C520.495 49.7332 522.2 50.7183 523.652 52.0152C524.469 52.7547 525.177 53.6055 525.754 54.5423C526.368 55.5633 526.802 56.6818 527.035 57.8489C527.28 59.0592 527.312 60.303 527.128 61.524C527.069 61.8372 527.011 62.152 526.93 62.4643L526.797 62.9148C526.814 62.852 526.803 62.8981 526.806 62.8838C526.806 62.8838 526.795 62.8914 526.796 62.8997C526.798 62.9081 526.784 62.909 526.821 62.9165C527.348 62.945 527.88 63.0078 528.405 63.0714C530.618 63.3011 532.719 64.1571 534.459 65.5382C535.31 66.2821 535.994 67.1973 536.464 68.2235C536.882 69.1877 537.096 70.2272 537.094 71.2773C537.066 73.0112 536.56 74.7041 535.632 76.1716C534.923 77.2882 534.031 78.2788 532.993 79.1023C532.262 79.694 531.479 80.2187 530.653 80.6698C529.313 81.389 528.492 81.6201 528.318 81.3899C528.144 81.1596 528.646 80.4537 529.621 79.3702C530.103 78.8268 530.695 78.182 531.302 77.4192C531.97 76.6074 532.528 75.7112 532.96 74.754C533.429 73.7051 533.627 72.5566 533.539 71.4121C533.482 70.864 533.319 70.3322 533.058 69.8463C532.769 69.3543 532.387 68.9231 531.933 68.5769C530.72 67.7888 529.321 67.3302 527.875 67.2464C527.455 67.212 527.034 67.1719 526.593 67.1626C526.147 67.13 525.629 67.1518 525.14 67.1551C524.65 67.1585 524.15 67.1626 523.619 67.2037L517.546 67.5688L519.292 65.776L521.081 63.9397C521.353 63.6763 521.612 63.3993 521.856 63.1099L522.294 62.389L522.511 62.0289C522.574 61.9045 522.625 61.7744 522.664 61.6404L522.748 61.3657C522.796 61.1924 522.828 61.0124 522.868 60.8357C522.986 60.107 522.983 59.3637 522.859 58.636C522.742 57.931 522.511 57.2497 522.174 56.6189C521.822 55.9837 521.385 55.3982 520.877 54.878C519.858 53.8584 518.658 53.0372 517.336 52.4565C516.714 52.1764 516.074 51.9392 515.419 51.7464C514.827 51.5654 514.221 51.4322 513.607 51.3478C512.551 51.1948 511.478 51.1962 510.421 51.352C509.636 51.4743 508.874 51.7172 508.163 52.0721C507.696 52.3185 507.249 52.6018 506.827 52.9195C506.527 53.1556 506.29 53.2678 506.156 53.2009Z" fill="#A2A2A2"/>
<path d="M360.856 145.409C360.878 145.515 360.722 145.649 360.383 145.811C359.882 146.026 359.352 146.167 358.81 146.23C356.713 146.485 354.588 146.107 352.709 145.147C351.325 144.471 350.095 143.52 349.094 142.353C347.91 140.95 347.072 139.29 346.646 137.507C346.143 135.474 346.162 133.346 346.702 131.322C346.995 130.166 347.489 129.07 348.161 128.084C348.539 127.564 348.97 127.084 349.447 126.652C349.697 126.433 349.959 126.229 350.231 126.038L350.335 125.966L350.388 125.93C350.311 125.983 350.368 125.942 350.352 125.953L350.366 125.94L350.392 125.918C350.421 125.891 350.455 125.872 350.493 125.86C350.5 125.858 350.507 125.857 350.514 125.858C350.521 125.859 350.528 125.861 350.534 125.864C350.536 125.865 350.539 125.867 350.54 125.869C350.542 125.87 350.544 125.873 350.545 125.875C350.557 125.885 350.518 125.863 350.508 125.858L350.351 125.775L350.287 125.74C350.377 125.849 350.034 125.467 349.866 125.269C349.656 125.039 349.457 124.799 349.27 124.55C348.478 123.551 347.794 122.471 347.232 121.328L346.818 120.443L346.464 119.522C346.237 118.893 346.053 118.25 345.912 117.596C345.764 116.93 345.66 116.255 345.601 115.576C345.549 114.882 345.547 114.186 345.596 113.493C345.621 112.993 345.682 112.496 345.778 112.005C345.863 111.503 345.984 111.007 346.14 110.522C346.446 109.562 346.866 108.641 347.391 107.78C347.658 107.362 347.948 106.97 348.232 106.572C348.55 106.206 348.858 105.831 349.19 105.483C349.86 104.808 350.594 104.198 351.382 103.664C352.162 103.141 352.995 102.701 353.867 102.35C354.734 101.997 355.64 101.748 356.566 101.61C357.027 101.529 357.494 101.487 357.962 101.485H358.138C358.188 101.485 358.147 101.485 358.156 101.485C358.164 101.485 358.164 101.485 358.168 101.492L358.205 101.504C358.273 101.525 358.338 101.553 358.401 101.587C358.485 101.64 358.465 101.6 358.459 101.564L358.435 101.439C358.422 101.355 358.401 101.273 358.373 101.193L358.141 100.518C358.057 100.258 357.973 100.006 357.902 99.7451C357.268 97.7223 357.075 95.5882 357.336 93.4852C357.59 91.5633 358.357 89.7446 359.557 88.2183C360.621 86.8603 362.113 85.8994 363.793 85.4911C365.126 85.2099 366.511 85.3154 367.785 85.7951C368.712 86.1398 369.535 86.7159 370.174 87.4681C370.57 87.9244 370.845 88.4709 370.977 89.059C371.03 89.4651 370.996 89.6745 370.893 89.7088C370.791 89.7431 370.612 89.605 370.389 89.3429C370.063 88.986 369.696 88.6682 369.296 88.3958C368.68 87.9891 367.986 87.7132 367.258 87.5853C366.313 87.4173 365.341 87.4946 364.435 87.8097C363.381 88.2355 362.489 88.9823 361.887 89.9432C361.146 91.1225 360.718 92.4697 360.644 93.8586C360.576 95.4888 360.84 97.1157 361.421 98.6415C361.491 98.8517 361.578 99.0602 361.655 99.2745L361.955 100.003C362.272 100.757 362.712 101.685 363.186 102.589L364.676 105.405C364.928 105.879 365.18 106.353 365.433 106.828L365.623 107.186L365.764 107.471L366.047 108.047L363.25 106.975L361.713 106.389L360.386 105.97C359.951 105.847 359.468 105.651 359.067 105.583C358.878 105.56 358.687 105.547 358.496 105.545L358.12 105.562C357.823 105.57 357.528 105.605 357.238 105.669C356.628 105.778 356.034 105.959 355.467 106.208C354.874 106.466 354.308 106.783 353.779 107.155C353.239 107.538 352.736 107.97 352.276 108.444C352.052 108.688 351.848 108.947 351.627 109.198L351.069 110.019C350.735 110.583 350.467 111.182 350.27 111.805C350.073 112.45 349.954 113.115 349.917 113.788C349.883 114.273 349.883 114.759 349.917 115.243C349.959 115.73 350.032 116.214 350.135 116.691C350.235 117.172 350.366 117.645 350.528 118.108L350.78 118.8L351.086 119.47C351.297 119.915 351.532 120.348 351.789 120.768C352.044 121.187 352.321 121.592 352.619 121.981C352.759 122.18 352.911 122.371 353.073 122.553L353.309 122.831L353.467 123.017C353.568 123.127 353.666 123.214 353.773 123.31L355.019 124.442L355.327 124.723L355.709 124.996L356.473 125.538L356.012 126.244L355.767 126.64L355.647 126.836C355.62 126.903 355.492 126.959 355.74 127.054L356.701 127.57L357.177 127.825L357.414 127.953C359.156 128.479 355.044 127.237 355.467 127.366V127.36V127.348L355.462 127.325C355.443 127.281 355.436 127.232 355.44 127.184C355.452 127.142 355.423 127.16 355.406 127.16C355.356 127.196 355.31 127.237 355.269 127.282L355.179 127.385C355.144 127.426 355.127 127.439 355.076 127.504L354.803 127.845C354.527 128.21 354.253 128.574 353.98 128.933C353.709 128.784 353.728 128.871 353.635 128.872L353.425 128.921L353.005 129.019C352.869 129.039 352.737 129.079 352.613 129.138L352.41 129.263C352.259 129.358 352.113 129.46 351.973 129.57C351.694 129.803 351.438 130.06 351.207 130.34C350.76 130.95 350.418 131.629 350.193 132.349C349.716 133.799 349.599 135.343 349.85 136.848C350.063 138.197 350.572 139.484 351.34 140.616C352.025 141.597 352.888 142.442 353.885 143.107C355.363 144.094 357.046 144.735 358.808 144.982C359.437 145.081 359.939 145.127 360.286 145.177C360.634 145.228 360.834 145.302 360.856 145.409Z" fill="#A2A2A2"/>
<path d="M347.956 70.3781C347.851 70.4133 347.714 70.3262 347.544 70.1018C347.31 69.7682 347.151 69.388 347.078 68.9873C346.939 68.3397 346.929 67.6711 347.049 67.0196C347.202 66.1333 347.528 65.2853 348.007 64.5226C348.603 63.5621 349.394 62.7352 350.328 62.0943C350.871 61.7218 351.46 61.4204 352.081 61.1976C352.728 60.9592 353.4 60.7932 354.084 60.7027C355.551 60.5175 357.04 60.6132 358.471 60.9849C358.824 61.0686 359.251 61.2051 359.535 61.2897C359.595 61.3071 359.656 61.3189 359.718 61.3248C359.784 61.3248 359.843 61.35 359.856 61.3248L359.821 61.1699C359.821 61.1188 359.786 61.1456 359.869 60.7981C360.18 59.5506 360.699 58.364 361.406 57.288C361.766 56.7328 362.175 56.2109 362.629 55.7289C363.088 55.2285 363.595 54.7739 364.142 54.3716C364.704 53.9531 365.305 53.5905 365.937 53.2889C366.255 53.1331 366.595 53.0126 366.928 52.8778C367.269 52.7706 367.616 52.6626 367.965 52.5755C368.268 52.5152 368.571 52.449 368.873 52.4013L369.782 52.3067L370.685 52.2883L371.575 52.3435C372.158 52.4068 372.735 52.5103 373.303 52.6533C373.86 52.7972 374.405 52.9814 374.935 53.2043C375.459 53.4208 375.966 53.6787 376.449 53.9755C376.692 54.1154 376.927 54.2697 377.152 54.4377C377.368 54.5935 377.668 54.8087 377.657 54.817C377.707 54.8604 377.755 54.9062 377.801 54.9544L377.817 54.9904L377.862 55.0908C378.018 54.9728 377.579 55.5154 379.024 53.6942C380.031 52.533 381.216 51.5369 382.534 50.7425C383.675 50.0393 384.903 49.4865 386.187 49.098C387.276 48.7706 388.401 48.5738 389.537 48.5119L390.285 48.4775L390.995 48.5144C391.423 48.5258 391.85 48.5737 392.271 48.6576C392.938 48.7629 393.591 48.9421 394.218 49.1918C394.613 49.3442 394.985 49.5508 395.322 49.8056C395.554 49.9847 395.65 50.1304 395.613 50.2401C395.576 50.3498 395.405 50.421 395.124 50.4587C394.842 50.4964 394.456 50.4738 393.958 50.498C393.459 50.5223 392.865 50.5098 392.18 50.5943C391.813 50.6164 391.448 50.6637 391.087 50.7358L390.499 50.8288L389.885 50.9829C388.972 51.2053 388.083 51.5137 387.229 51.9039C386.249 52.3555 385.323 52.9153 384.468 53.5727C383.518 54.2839 382.677 55.128 381.969 56.0789C381.777 56.3196 381.603 56.574 381.449 56.84L381.323 57.036L381.258 57.1373C381.194 57.2267 381.137 57.3217 381.09 57.4212C380.928 57.746 380.784 58.1136 380.627 58.462C379.988 59.8687 379.422 61.3659 378.826 62.8161C378.254 62.019 377.677 61.2143 377.094 60.4021C376.793 59.999 376.491 59.5949 376.186 59.1896C376.111 59.0925 376.032 58.9778 375.959 58.8957L375.752 58.7065L375.332 58.3272C375.159 58.152 374.965 57.9987 374.754 57.8708C374.609 57.7679 374.457 57.675 374.299 57.5928C373.985 57.4116 373.657 57.2559 373.317 57.1272C372.975 56.9915 372.623 56.8796 372.265 56.7923C371.904 56.7098 371.539 56.6497 371.172 56.6123L370.616 56.5838L370.062 56.5989L369.514 56.6592L368.975 56.7638L368.37 56.938C368.178 57.0217 367.979 57.0845 367.791 57.1767C367.41 57.3559 367.046 57.5704 366.705 57.8172C366.358 58.0616 366.036 58.3398 365.744 58.6479C365.446 58.9489 365.176 59.2759 364.936 59.625C364.463 60.3013 364.101 61.0488 363.865 61.839L363.841 61.911C363.833 61.9403 363.824 62.0165 363.815 62.0676L363.763 62.4075L363.659 63.0832L363.633 63.2507L363.639 63.4676L363.651 63.8997L363.675 64.7588C363.727 65.8897 363.778 67.0062 363.829 68.1081C362.606 67.3545 361.242 66.4493 360.017 65.7108C359.716 65.5433 359.405 65.3474 359.12 65.2084L358.295 64.8324C357.942 64.6851 357.739 64.603 357.455 64.5092C356.47 64.1604 355.43 63.987 354.385 63.9968C353.92 64.0048 353.458 64.0609 353.005 64.1642C352.595 64.2494 352.197 64.3847 351.82 64.567C351.119 64.9089 350.485 65.3741 349.95 65.9402C349.5 66.4127 349.128 66.952 348.845 67.5387C348.626 67.9863 348.463 68.4595 348.362 68.9471C348.273 69.3549 348.223 69.7007 348.185 69.9385C348.146 70.1763 348.061 70.343 347.956 70.3781Z" fill="#A2A2A2"/>
<path d="M384.778 121.642C384.547 121.799 383.927 121.465 383.192 120.496C382.201 119.067 381.606 117.402 381.47 115.671C381.353 114.452 381.424 113.223 381.68 112.025C381.979 110.609 382.537 109.26 383.327 108.045C384.226 106.7 385.378 105.54 386.719 104.63C388.155 103.667 389.765 102.992 391.46 102.641C391.927 102.542 392.4 102.471 392.876 102.428C392.991 102.409 393.108 102.4 393.224 102.401C393.267 102.398 393.311 102.398 393.354 102.401C393.375 102.418 393.399 102.432 393.423 102.444C393.437 102.444 393.448 102.444 393.46 102.423C393.47 102.43 393.46 102.364 393.46 102.309L393.455 102.225L393.408 101.796C393.249 100.533 393.304 99.2524 393.57 98.0073C393.792 96.9192 394.162 95.8666 394.672 94.879C395.112 94.0407 395.657 93.2616 396.295 92.5604C396.562 92.2532 396.855 91.9696 397.171 91.713C397.438 91.472 397.726 91.2551 398.032 91.0649C398.503 90.7465 399.014 90.4907 399.552 90.3038C399.891 90.1792 400.25 90.1137 400.612 90.1104C400.864 90.1104 401.021 90.174 401.075 90.2912C401.129 90.4084 401.082 90.5759 400.955 90.7836C400.769 91.0461 400.569 91.2977 400.355 91.5372C400.103 91.8495 399.784 92.1937 399.471 92.6383C399.294 92.8626 399.131 93.0984 398.985 93.3442C398.804 93.6056 398.643 93.8795 398.503 94.1639C398.162 94.7987 397.88 95.4636 397.662 96.1501C397.422 96.9316 397.27 97.7374 397.209 98.5524C397.131 99.4311 397.186 100.316 397.371 101.179L397.401 101.347C397.412 101.431 397.436 101.513 397.471 101.59L397.754 102.351L398.041 103.124L398.113 103.32L398.233 103.548L398.479 104.011L400.413 107.659L397.912 107.208L396.562 106.966L395.251 106.757C394.887 106.696 394.516 106.677 394.147 106.699C393.864 106.689 393.58 106.697 393.298 106.721C392.975 106.753 392.654 106.804 392.337 106.872C391.171 107.114 390.056 107.554 389.039 108.173C388.107 108.754 387.279 109.486 386.589 110.339C385.423 111.886 384.711 113.724 384.531 115.65C384.401 117.042 384.469 118.445 384.731 119.817C384.918 120.828 385.041 121.469 384.778 121.642Z" fill="#A2A2A2"/>
<path d="M440.527 40.2106C440.294 40.0549 440.375 39.3582 441.006 38.3174C441.968 36.8694 443.298 35.7011 444.861 34.9312C445.954 34.3701 447.127 33.9782 448.338 33.769C449.77 33.5192 451.234 33.5336 452.66 33.8117C454.249 34.1426 455.758 34.776 457.106 35.6773C458.536 36.647 459.764 37.8843 460.721 39.3205C460.987 39.715 461.228 40.1249 461.445 40.548C461.505 40.6475 461.557 40.7516 461.6 40.8595C461.618 40.8985 461.635 40.9385 461.648 40.9793C461.64 41.0063 461.635 41.0346 461.634 41.063C461.634 41.0764 461.645 41.0848 461.668 41.0898C461.664 41.1007 461.723 41.0705 461.774 41.0471L461.852 41.0103L462.235 40.8076C463.352 40.1904 464.566 39.7644 465.826 39.5474C466.923 39.3478 468.042 39.299 469.152 39.4026C470.097 39.4972 471.026 39.7116 471.916 40.0406C472.302 40.1731 472.676 40.3387 473.033 40.5355C473.357 40.6928 473.667 40.8786 473.958 41.0906C474.43 41.4075 474.859 41.7844 475.233 42.2118C475.476 42.4794 475.67 42.7864 475.808 43.1195C475.901 43.3582 475.901 43.5223 475.808 43.6161C475.714 43.7098 475.545 43.7283 475.303 43.6881C474.99 43.6138 474.681 43.5218 474.378 43.4126C473.993 43.2945 473.554 43.1296 473.023 43.0056C472.747 42.9244 472.466 42.8617 472.182 42.8181C471.871 42.749 471.556 42.702 471.239 42.6774C470.52 42.5978 469.796 42.5849 469.075 42.6389C468.257 42.7073 467.45 42.8665 466.667 43.1137C465.82 43.3694 465.015 43.749 464.279 44.2399L464.135 44.3303C464.06 44.3717 463.993 44.4239 463.934 44.4852L463.33 45.0295L462.715 45.5821L462.56 45.722L462.392 45.9179L462.051 46.3173L459.384 49.4632C459.216 48.6443 459.046 47.8173 458.874 46.9822L458.597 45.6424C458.5 45.2143 458.403 44.7847 458.305 44.3538C458.225 43.994 458.106 43.6443 457.948 43.3113C457.852 43.046 457.74 42.7867 457.612 42.5351C457.461 42.2484 457.295 41.9702 457.114 41.7019C456.455 40.7145 455.63 39.8473 454.676 39.138C453.787 38.4919 452.795 37.9991 451.742 37.6802C449.866 37.1767 447.887 37.2016 446.025 37.7522C444.679 38.1494 443.396 38.7331 442.214 39.4863C441.335 40.0373 440.786 40.3881 440.527 40.2106Z" fill="#A2A2A2"/>
<path d="M334.329 1208.21C334.329 1208.21 -49.3152 1164.82 5.32848 980.208C59.9722 795.6 984.829 821.208 984.829 821.208L1116.33 1028.71L334.329 1208.21Z" fill="#171C22"/>
<path d="M171.955 1087.31L159.493 944.867L254.527 936.553L256.883 963.479L193.8 968.998L196.407 998.802L252.527 993.892L254.882 1020.82L198.763 1025.73L203.906 1084.51L171.955 1087.31Z" fill="#ECECEC"/>
<path d="M381.537 1014.29C382.281 1022.79 381.735 1030.71 379.901 1038.05C378.054 1045.25 375.032 1051.59 370.833 1057.07C366.622 1062.41 361.359 1066.73 355.045 1070.05C348.867 1073.35 341.75 1075.35 333.694 1076.06C325.775 1076.75 318.418 1076.01 311.624 1073.85C304.967 1071.67 299.101 1068.31 294.027 1063.79C288.941 1059.12 284.795 1053.41 281.589 1046.65C278.371 1039.75 276.391 1032.05 275.648 1023.56C274.904 1015.06 275.524 1007.21 277.507 999.991C279.627 992.764 282.792 986.481 287.003 981.141C291.35 975.79 296.613 971.464 302.79 968.162C309.105 964.848 316.085 962.856 323.732 962.187C331.515 961.506 338.735 962.255 345.392 964.434C352.186 966.602 358.12 969.949 363.194 974.476C368.268 979.002 372.408 984.647 375.614 991.408C378.82 998.17 380.794 1005.8 381.537 1014.29ZM350.405 1017.02C349.578 1007.56 347.019 1000.33 342.728 995.321C338.562 990.162 332.997 987.888 326.034 988.497C319.07 989.106 313.916 992.318 310.572 998.134C307.217 1003.81 305.952 1011.38 306.78 1020.83C307.607 1030.29 310.178 1037.66 314.493 1042.94C318.795 1048.09 324.429 1050.36 331.392 1049.75C338.356 1049.14 343.442 1045.93 346.649 1040.13C349.98 1034.18 351.233 1026.47 350.405 1017.02Z" fill="#ECECEC"/>
<path d="M400.075 1012.88C399.392 1005.07 399.979 997.63 401.838 990.564C403.821 983.348 406.98 976.996 411.315 971.508C415.639 965.883 421.082 961.264 427.646 957.652C434.209 954.04 441.86 951.852 450.599 951.088C456.334 950.586 461.639 950.674 466.514 951.352C471.377 951.893 476.145 952.926 480.819 954.45L476.61 979.465C473.646 978.62 470.422 977.936 466.936 977.412C463.451 976.889 459.592 976.812 455.359 977.182C446.347 977.971 439.834 981.371 435.819 987.384C431.941 993.384 430.404 1000.97 431.207 1010.16C432.058 1019.88 434.766 1027.24 439.33 1032.23C444.03 1037.2 451.569 1039.23 461.947 1038.33C465.633 1038 469.563 1037.32 473.736 1036.26C477.909 1035.2 481.704 1033.77 485.123 1031.95L491.618 1056.65C488.199 1058.47 483.876 1060.16 478.646 1061.72C473.417 1063.28 467.594 1064.34 461.176 1064.91C451.345 1065.77 442.753 1065.07 435.401 1062.81C428.037 1060.42 421.812 1056.89 416.726 1052.22C411.777 1047.55 407.91 1041.88 405.126 1035.22C402.466 1028.41 400.783 1020.96 400.075 1012.88Z" fill="#ECECEC"/>
<path d="M603.972 1045.78C598.915 1047.75 592.344 1049.7 584.259 1051.65C576.187 1053.74 567.644 1055.18 558.633 1055.96C549.484 1056.77 541.73 1056.2 535.369 1054.27C529.146 1052.33 524.067 1049.32 520.133 1045.25C516.187 1041.04 513.194 1035.91 511.152 1029.88C509.111 1023.84 507.766 1017.13 507.119 1009.73L501.85 949.503L532.368 946.834L537.313 1003.36C538.176 1013.22 540.097 1020.24 543.075 1024.39C546.053 1028.55 551.092 1030.32 558.192 1029.7C560.377 1029.51 562.692 1029.24 565.138 1028.88C567.572 1028.4 569.732 1027.93 571.62 1027.49L564.319 944.038L594.837 941.368L603.972 1045.78Z" fill="#ECECEC"/>
<path d="M661.946 1022.28C667.544 1021.79 671.456 1020.89 673.681 1019.6C675.906 1018.3 676.881 1016.07 676.605 1012.92C676.39 1010.45 674.702 1008.46 671.542 1006.94C668.37 1005.29 663.61 1003.56 657.262 1001.77C652.327 1000.41 647.796 998.939 643.668 997.367C639.677 995.783 636.202 993.809 633.244 991.444C630.273 988.943 627.875 985.908 626.049 982.339C624.223 978.771 623.083 974.383 622.627 969.176C621.74 959.036 624.794 950.691 631.788 944.142C638.782 937.592 648.834 933.744 661.942 932.598C668.496 932.024 674.831 932.091 680.947 932.799C687.051 933.37 691.938 934.185 695.608 935.244L692.369 959.553C688.71 958.631 684.723 957.875 680.406 957.286C676.226 956.685 671.542 956.612 666.353 957.066C656.795 957.902 652.25 960.992 652.717 966.336C652.825 967.57 653.126 968.648 653.619 969.571C654.113 970.495 655.016 971.382 656.329 972.234C657.63 972.948 659.352 973.764 661.496 974.681C663.765 975.449 666.592 976.307 669.977 977.253C676.883 979.135 682.629 981.117 687.214 983.201C691.787 985.149 695.429 987.454 698.138 990.116C700.972 992.63 703.017 995.558 704.273 998.9C705.665 1002.23 706.559 1006.16 706.954 1010.68C707.889 1021.37 704.569 1029.8 696.992 1035.99C689.552 1042.16 678.527 1045.89 663.917 1047.17C654.359 1048 646.299 1047.88 639.737 1046.8C633.313 1045.7 628.823 1044.71 626.27 1043.83L629.214 1018.51C634.582 1020.12 640.052 1021.29 645.621 1022.05C651.179 1022.67 656.62 1022.74 661.946 1022.28Z" fill="#ECECEC"/>
<path d="M722.572 985.493C721.733 975.901 722.436 967.417 724.68 960.04C727.048 952.515 730.412 946.145 734.772 940.931C739.131 935.717 744.275 931.608 750.204 928.604C756.269 925.588 762.579 923.793 769.133 923.22C784.426 921.882 796.923 925.552 806.626 934.23C816.317 942.772 821.959 956.155 823.554 974.38C823.709 976.161 823.815 978.154 823.87 980.359C823.914 982.426 823.939 984.288 823.946 985.944L754.718 992.001C755.953 998.245 759.326 1002.99 764.838 1006.24C770.351 1009.48 777.476 1010.72 786.215 1009.96C791.813 1009.47 797.233 1008.51 802.474 1007.08C807.84 1005.51 812.164 1003.82 815.446 1002.01L821.718 1026.53C820.151 1027.49 818.039 1028.51 815.38 1029.57C812.721 1030.63 809.708 1031.58 806.343 1032.43C803.126 1033.4 799.623 1034.26 795.836 1035C792.049 1035.75 788.244 1036.29 784.42 1036.63C774.726 1037.47 766.134 1036.78 758.646 1034.53C751.294 1032.27 745.012 1028.89 739.802 1024.37C734.716 1019.71 730.712 1014.05 727.791 1007.41C725.007 1000.74 723.268 993.441 722.572 985.493ZM793.233 967.505C792.869 964.914 792.169 962.421 791.134 960.026C790.235 957.619 788.883 955.528 787.076 953.753C785.407 951.966 783.289 950.563 780.723 949.545C778.294 948.515 775.304 948.155 771.754 948.466C768.341 948.764 765.459 949.638 763.109 951.086C760.747 952.397 758.831 954.084 757.36 956.146C755.889 958.207 754.79 960.582 754.062 963.269C753.459 965.807 753.066 968.396 752.884 971.035L793.233 967.505Z" fill="#ECECEC"/>
<path d="M873.17 970.661C873.997 980.116 876.779 987.536 881.515 992.92C886.252 998.305 892.784 1000.63 901.113 999.905C903.844 999.666 906.364 999.376 908.674 999.036C910.971 998.559 912.859 998.118 914.337 997.712L909.463 942.01C907.444 940.944 904.828 940.137 901.615 939.59C898.539 939.03 895.431 938.888 892.291 939.163C877.817 940.429 871.443 950.928 873.17 970.661ZM946.688 1016.01C944.029 1017.07 940.961 1018.17 937.483 1019.3C933.992 1020.29 930.291 1021.24 926.38 1022.13C922.604 1023.02 918.681 1023.77 914.608 1024.41C910.684 1025.16 906.879 1025.7 903.193 1026.03C894.317 1026.8 886.284 1026.19 879.092 1024.2C871.901 1022.21 865.706 1019.02 860.507 1014.64C855.296 1010.13 851.094 1004.56 847.9 997.933C844.831 991.159 842.919 983.456 842.164 974.823C841.396 966.053 841.799 958.078 843.373 950.899C844.934 943.582 847.547 937.278 851.212 931.987C854.876 926.695 859.531 922.491 865.174 919.374C870.954 916.244 877.668 914.345 885.314 913.676C889.547 913.306 893.338 913.389 896.687 913.924C900.172 914.448 903.688 915.314 907.233 916.522L902.954 867.603L933.04 860L946.688 1016.01Z" fill="#ECECEC"/>
</svg>
