<svg width="283" height="350" viewBox="0 0 283 350" fill="none" xmlns="http://www.w3.org/2000/svg">
<path d="M68.3794 0.206163C66.7899 1.23467 65.2004 10.1172 62.3954 34.0533C61.8344 38.4478 61.4604 42.8423 61.5539 43.8708C61.6474 44.8993 61.6474 47.7044 61.6474 50.1354C61.4604 53.7819 61.1799 54.6234 59.7774 54.6234C58.8424 54.6234 55.0089 56.1194 51.2688 57.8959C46.1263 60.3269 42.2928 63.2254 36.4958 68.9289C22.2837 82.767 16.9542 91.369 10.3157 111.659L6.76266 122.411L6.85616 142.046C6.85616 160.653 7.04316 162.149 9.47417 170.096C12.2792 179.353 16.5802 189.17 21.0682 196.183C23.8732 200.577 23.9667 200.858 22.6577 204.037C20.8812 208.245 20.8812 215.631 22.7512 223.485C24.4342 231.059 23.7797 237.978 19.4787 255.836C17.8892 262.194 15.5517 272.386 14.2427 278.557C10.7832 294.265 5.73416 312.497 2.46164 321.38C-0.436868 329.234 -0.810869 334.657 1.52664 334.657C2.27464 334.657 3.20965 333.255 3.67715 331.385C4.14465 329.608 7.23016 321.38 10.5027 313.152C17.1412 296.696 22.0967 281.268 27.5197 259.857L31.0728 245.832L30.8858 225.729L30.6053 205.627L33.4103 200.764C34.9063 198.053 37.8983 194.78 40.0488 193.284C44.5368 190.292 46.7808 186.365 48.3703 178.979C49.9598 172.06 50.2403 171.686 51.7363 175.239C53.7934 180.101 53.4194 185.337 50.7078 188.89C48.0898 192.349 47.7158 195.061 49.6793 196.65C50.7078 197.492 51.2688 197.398 52.2973 196.183C52.9519 195.341 54.5414 193.752 55.7569 192.63C56.9724 191.601 58.8424 189.825 59.9644 188.703C62.2084 186.365 68.0054 183.28 68.6599 183.934C69.3144 184.589 65.5744 192.817 62.7694 196.931C60.8059 199.736 60.5254 200.671 61.4604 202.26C62.6759 204.598 65.3874 204.785 67.0704 202.821C67.7249 202.073 68.9404 201.419 69.7819 201.419C70.6234 201.419 71.9324 200.858 72.5869 200.203C74.3634 198.614 73.2414 203.195 70.2494 209.741C69.0339 212.546 68.1924 214.977 68.3794 215.164C68.6599 215.444 71.0909 214.79 73.8959 213.761C76.6074 212.733 79.319 212.172 79.88 212.452C82.124 213.948 82.0305 217.127 79.319 222.55C77.823 225.542 75.6724 230.965 74.5504 234.612C70.6234 247.141 65.4809 255.743 57.9074 262.288C53.3259 266.308 52.3908 268.085 51.5493 274.443C51.1753 277.248 49.9598 282.016 48.7443 285.102C47.6223 288.187 45.5653 294.452 44.2563 299.127C42.8538 303.708 40.3293 312.497 38.5528 318.668C33.9713 334.377 33.8778 335.312 36.1218 337.369C40.5163 341.296 44.0693 337.275 46.8743 325.307C47.5288 322.221 48.7443 317.359 49.5858 314.554C50.3338 311.749 51.4558 305.578 52.1103 300.997C54.7284 282.203 57.8139 270.89 61.1799 268.085C62.6759 266.963 64.2654 266.028 64.8264 265.934C66.8834 265.934 73.5219 257.613 76.8879 251.068C78.6645 247.421 80.815 241.718 81.563 238.445C82.311 235.079 83.807 230.404 84.929 227.88C85.9575 225.449 87.0795 221.989 87.4535 220.213C88.108 217.314 88.7625 216.847 94.653 214.509C103.723 211.05 108.865 208.245 109.987 206.375C110.829 204.879 111.203 204.972 113.914 207.684L116.906 210.582L115.971 227.319C115.41 236.482 115.036 250.226 115.13 257.987C115.41 277.809 114.008 303.241 111.951 318.481C110.922 325.587 109.8 334.751 109.52 338.771C108.959 345.69 109.052 346.251 110.922 347.28C112.605 348.121 113.447 348.028 115.223 346.906C117.654 345.316 118.122 342.885 121.207 316.892C126.069 276.032 126.911 251.909 124.106 232.274C123.638 228.908 123.077 223.392 122.797 219.932L122.329 213.574L126.911 215.912C134.765 219.839 140.936 221.989 154.026 225.355C174.315 230.404 186.096 229.656 205.451 221.989C216.297 217.782 219.476 215.444 219.476 211.704C219.476 206.094 216.297 205.814 205.825 210.302C189.649 217.314 174.876 219.091 163.75 215.538C160.758 214.603 155.989 213.294 153.278 212.733C145.985 211.237 129.529 204.505 124.76 201.138C109.239 190.012 104.658 169.348 110.642 136.623C113.26 122.224 115.223 116.427 122.516 101.374C126.817 92.491 128.22 90.621 137.102 81.645C148.135 70.7055 150.847 68.8354 165.526 62.5709C173.567 59.1114 176.372 58.2699 179.084 58.7374C186.657 59.7659 187.125 59.7659 187.499 58.2699C187.966 55.6519 182.45 54.1559 172.726 54.2494C165.059 54.3429 162.815 54.7169 156.176 57.3349C139.066 64.0669 123.638 75.848 116.252 87.7225C111.109 95.9506 103.91 112.594 102.133 120.541C99.4215 132.042 97.9255 145.693 97.7385 159.531C97.5515 176.174 98.58 181.784 103.536 192.63L106.995 200.11L102.414 202.26C99.889 203.382 95.775 204.972 93.157 205.72C88.5755 207.123 88.295 207.123 86.612 205.253C85.5835 204.13 84.181 203.289 83.433 203.289C82.4045 203.289 82.0305 202.073 82.0305 198.801C82.0305 193.752 80.067 190.199 77.1685 190.199C75.7659 190.199 75.4854 189.825 75.8594 188.609C77.262 185.056 77.5425 179.166 76.4204 177.202C75.4854 175.426 74.7374 175.145 71.9324 175.519C65.2004 176.548 61.9279 177.389 60.8059 178.231C59.8709 178.979 59.5904 178.418 59.5904 176.08C59.5904 174.304 58.7489 171.125 57.7204 168.974C55.6634 164.299 52.7649 163.177 48.4638 165.328C44.9108 167.198 43.1343 169.909 42.1993 174.771C41.3578 179.633 39.6748 182.345 34.3453 187.113L30.0443 191.04L26.2107 183.841C18.8242 169.722 16.5802 158.128 17.7022 139.241C18.4502 126.806 22.9382 109.321 27.8937 99.4101C31.0728 93.052 40.1423 81.5515 46.5938 75.7545C54.8219 68.3679 70.7169 60.7009 85.5835 56.9609C91.3805 55.4649 92.8765 55.3714 96.336 56.3999C101.759 57.9894 103.723 58.0829 104.19 56.6804C104.471 56.0259 102.507 54.5299 99.141 53.0339C93.2505 50.3224 85.5835 49.6679 75.5789 51.1639L70.5299 51.9119L71.0909 49.2939C71.3714 47.8914 72.1194 38.9153 72.7739 29.3783C73.6154 15.3532 73.6154 11.2392 72.5869 7.87319C71.9324 5.53569 71.3714 3.19818 71.2779 2.54367C71.1844 0.860666 69.5014 -0.54184 68.3794 0.206163Z" fill="#171C22"/>
<path d="M266.974 1.04778C266.413 2.16978 267.909 47.05 269.031 64.441C270.247 82.2996 271.743 192.069 272.023 283.699C272.304 346.999 272.397 349.617 274.08 349.898C277.353 350.552 277.914 348.402 278.568 333.442C279.597 311.282 281.186 225.355 281.747 155.884C282.308 103.244 282.121 92.0236 280.906 80.6166C279.316 66.2175 278.007 51.2575 276.511 31.2484C275.296 15.0728 274.922 12.5483 272.304 6.1903C270.34 1.42178 267.909 -0.915729 266.974 1.04778Z" fill="#171C22"/>
<path d="M68.3794 0.206163C66.7899 1.23467 65.2004 10.1172 62.3954 34.0533C61.8344 38.4478 61.4604 42.8423 61.5539 43.8708C61.6474 44.8993 61.6474 47.7044 61.6474 50.1354C61.4604 53.7819 61.1799 54.6234 59.7774 54.6234C58.8424 54.6234 55.0089 56.1194 51.2688 57.8959C46.1263 60.3269 42.2928 63.2254 36.4958 68.9289C22.2837 82.767 16.9542 91.369 10.3157 111.659L6.76266 122.411L6.85616 142.046C6.85616 160.653 7.04316 162.149 9.47417 170.096C12.2792 179.353 16.5802 189.17 21.0682 196.183C23.8732 200.577 23.9667 200.858 22.6577 204.037C20.8812 208.245 20.8812 215.631 22.7512 223.485C24.4342 231.059 23.7797 237.978 19.4787 255.836C17.8892 262.194 15.5517 272.386 14.2427 278.557C10.7832 294.265 5.73416 312.497 2.46164 321.38C-0.436868 329.234 -0.810869 334.657 1.52664 334.657C2.27464 334.657 3.20965 333.255 3.67715 331.385C4.14465 329.608 7.23016 321.38 10.5027 313.152C17.1412 296.696 22.0967 281.268 27.5197 259.857L31.0728 245.832L30.8858 225.729L30.6053 205.627L33.4103 200.764C34.9063 198.053 37.8983 194.78 40.0488 193.284C44.5368 190.292 46.7808 186.365 48.3703 178.979C49.9598 172.06 50.2403 171.686 51.7363 175.239C53.7934 180.101 53.4194 185.337 50.7078 188.89C48.0898 192.349 47.7158 195.061 49.6793 196.65C50.7078 197.492 51.2688 197.398 52.2973 196.183C52.9519 195.341 54.5414 193.752 55.7569 192.63C56.9724 191.601 58.8424 189.825 59.9644 188.703C62.2084 186.365 68.0054 183.28 68.6599 183.934C69.3144 184.589 65.5744 192.817 62.7694 196.931C60.8059 199.736 60.5254 200.671 61.4604 202.26C62.6759 204.598 65.3874 204.785 67.0704 202.821C67.7249 202.073 68.9404 201.419 69.7819 201.419C70.6234 201.419 71.9324 200.858 72.5869 200.203C74.3634 198.614 73.2414 203.195 70.2494 209.741C69.0339 212.546 68.1924 214.977 68.3794 215.164C68.6599 215.444 71.0909 214.79 73.8959 213.761C76.6074 212.733 79.319 212.172 79.88 212.452C82.124 213.948 82.0305 217.127 79.319 222.55C77.823 225.542 75.6724 230.965 74.5504 234.612C70.6234 247.141 65.4809 255.743 57.9074 262.288C53.3259 266.308 52.3908 268.085 51.5493 274.443C51.1753 277.248 49.9598 282.016 48.7443 285.102C47.6223 288.187 45.5653 294.452 44.2563 299.127C42.8538 303.708 40.3293 312.497 38.5528 318.668C33.9713 334.377 33.8778 335.312 36.1218 337.369C40.5163 341.296 44.0693 337.275 46.8743 325.307C47.5288 322.221 48.7443 317.359 49.5858 314.554C50.3338 311.749 51.4558 305.578 52.1103 300.997C54.7284 282.203 57.8139 270.89 61.1799 268.085C62.6759 266.963 64.2654 266.028 64.8264 265.934C66.8834 265.934 73.5219 257.613 76.8879 251.068C78.6645 247.421 80.815 241.718 81.563 238.445C82.311 235.079 83.807 230.404 84.929 227.88C85.9575 225.449 87.0795 221.989 87.4535 220.213C88.108 217.314 88.7625 216.847 94.653 214.509C103.723 211.05 108.865 208.245 109.987 206.375C110.829 204.879 111.203 204.972 113.914 207.684L116.906 210.582L115.971 227.319C115.41 236.482 115.036 250.226 115.13 257.987C115.41 277.809 114.008 303.241 111.951 318.481C110.922 325.587 109.8 334.751 109.52 338.771C108.959 345.69 109.052 346.251 110.922 347.28C112.605 348.121 113.447 348.028 115.223 346.906C117.654 345.316 118.122 342.885 121.207 316.892C126.069 276.032 126.911 251.909 124.106 232.274C123.638 228.908 123.077 223.392 122.797 219.932L122.329 213.574L126.911 215.912C134.765 219.839 140.936 221.989 154.026 225.355C174.315 230.404 186.096 229.656 205.451 221.989C216.297 217.782 219.476 215.444 219.476 211.704C219.476 206.094 216.297 205.814 205.825 210.302C189.649 217.314 174.876 219.091 163.75 215.538C160.758 214.603 155.989 213.294 153.278 212.733C145.985 211.237 129.529 204.505 124.76 201.138C109.239 190.012 104.658 169.348 110.642 136.623C113.26 122.224 115.223 116.427 122.516 101.374C126.817 92.491 128.22 90.621 137.102 81.645C148.135 70.7055 150.847 68.8354 165.526 62.5709C173.567 59.1114 176.372 58.2699 179.084 58.7374C186.657 59.7659 187.125 59.7659 187.499 58.2699C187.966 55.6519 182.45 54.1559 172.726 54.2494C165.059 54.3429 162.815 54.7169 156.176 57.3349C139.066 64.0669 123.638 75.848 116.252 87.7225C111.109 95.9506 103.91 112.594 102.133 120.541C99.4215 132.042 97.9255 145.693 97.7385 159.531C97.5515 176.174 98.58 181.784 103.536 192.63L106.995 200.11L102.414 202.26C99.889 203.382 95.775 204.972 93.157 205.72C88.5755 207.123 88.295 207.123 86.612 205.253C85.5835 204.13 84.181 203.289 83.433 203.289C82.4045 203.289 82.0305 202.073 82.0305 198.801C82.0305 193.752 80.067 190.199 77.1685 190.199C75.7659 190.199 75.4854 189.825 75.8594 188.609C77.262 185.056 77.5425 179.166 76.4204 177.202C75.4854 175.426 74.7374 175.145 71.9324 175.519C65.2004 176.548 61.9279 177.389 60.8059 178.231C59.8709 178.979 59.5904 178.418 59.5904 176.08C59.5904 174.304 58.7489 171.125 57.7204 168.974C55.6634 164.299 52.7649 163.177 48.4638 165.328C44.9108 167.198 43.1343 169.909 42.1993 174.771C41.3578 179.633 39.6748 182.345 34.3453 187.113L30.0443 191.04L26.2107 183.841C18.8242 169.722 16.5802 158.128 17.7022 139.241C18.4502 126.806 22.9382 109.321 27.8937 99.4101C31.0728 93.052 40.1423 81.5515 46.5938 75.7545C54.8219 68.3679 70.7169 60.7009 85.5835 56.9609C91.3805 55.4649 92.8765 55.3714 96.336 56.3999C101.759 57.9894 103.723 58.0829 104.19 56.6804C104.471 56.0259 102.507 54.5299 99.141 53.0339C93.2505 50.3224 85.5835 49.6679 75.5789 51.1639L70.5299 51.9119L71.0909 49.2939C71.3714 47.8914 72.1194 38.9153 72.7739 29.3783C73.6154 15.3532 73.6154 11.2392 72.5869 7.87319C71.9324 5.53569 71.3714 3.19818 71.2779 2.54367C71.1844 0.860666 69.5014 -0.54184 68.3794 0.206163Z" fill="#171C22"/>
<path d="M266.974 1.04778C266.413 2.16978 267.909 47.05 269.031 64.441C270.247 82.2996 271.743 192.069 272.023 283.699C272.304 346.999 272.397 349.617 274.08 349.898C277.353 350.552 277.914 348.402 278.568 333.442C279.597 311.282 281.186 225.355 281.747 155.884C282.308 103.244 282.121 92.0236 280.906 80.6166C279.316 66.2175 278.007 51.2575 276.511 31.2484C275.296 15.0728 274.922 12.5483 272.304 6.1903C270.34 1.42178 267.909 -0.915729 266.974 1.04778Z" fill="#171C22"/>
<path d="M78.8255 129.386C74.8044 130.89 70.8044 132.456 66.7623 133.883C58.6084 136.742 50.3146 139.075 41.727 140.128C38.9527 140.523 36.1347 140.489 33.3703 140.03C28.0205 139.004 25.9856 135.344 27.6359 130.145C28.8947 126.197 30.8807 122.838 34.706 120.597C44.804 114.682 55.0489 109.167 66.2379 105.492C68.9823 104.522 71.8172 103.832 74.6995 103.434C77.2085 103.148 79.7479 103.305 82.2031 103.897C88.9095 105.605 91.8116 110.839 89.441 117.33C87.8645 121.353 85.9068 125.213 83.5947 128.859C82.0353 131.452 79.9164 133.728 77.9094 136.025C77.4478 136.552 76.196 137.002 75.6925 136.728C74.4338 136.082 75.0841 134.936 75.6925 134.136C76.8254 132.618 78.1261 131.213 79.301 129.808L78.8255 129.386ZM35.4682 125.396L35.8598 125.951C36.643 125.649 37.4333 125.361 38.2095 125.037C42.1816 123.372 46.0977 121.588 50.0978 120.049C60.014 116.262 70.5176 114.12 80.0702 109.3C80.7695 108.956 81.3849 108.506 82.0353 108.106C81.9793 107.832 81.9304 107.558 81.8744 107.284C79.7765 107.22 77.6296 106.862 75.5807 107.171C72.7069 107.638 69.8767 108.342 67.119 109.279C57.1468 112.504 47.86 117.513 38.6431 122.578C37.4403 123.239 36.5381 124.44 35.4682 125.396ZM85.9095 111.021L55.6363 121.56L58.2028 125.824C59.382 125.604 60.549 125.322 61.6993 124.981C68.9815 122.466 76.2543 119.92 83.5178 117.344C87.0354 116.087 87.2172 115.616 85.9095 111.021ZM35.8528 136.58C48.6152 137.627 77.5807 127.918 81.266 122.023C66.9372 126.4 52.2936 130.876 37.657 135.372C37.0176 135.714 36.4132 136.119 35.8528 136.58V136.58Z" fill="#171C22"/>
<path d="M149.545 135.862C151.55 136.347 152.862 136.45 153.944 137.005C154.668 137.379 155.066 138.395 155.607 139.125C154.938 139.554 154.294 140.276 153.594 140.34C152.303 140.486 150.996 140.37 149.752 139.998C146.871 139.097 144.067 137.966 141.368 136.616C133.866 132.647 132.808 125.153 136.292 118.501C143.698 104.394 156.323 97.8612 171.381 95.4797C175.358 94.8605 179.71 95.7496 183.774 96.5434C187.625 97.3373 189.542 100.179 189.542 104.133C189.542 107.665 188.746 111.174 186.36 113.762C183.218 117.088 179.94 120.454 176.186 123.01C168.796 128.027 161.072 132.623 152.258 134.799C151.589 135.029 150.969 135.33 149.545 135.862ZM184.721 101.687C179.773 103.601 175.088 105.403 170.402 107.244C165.717 109.086 161.119 110.92 156.76 112.642V119.914C157.272 119.933 157.784 119.896 158.287 119.803C166.298 117.048 174.332 114.373 182.287 111.46C185.604 110.205 186.718 105.657 184.721 101.687ZM138.75 130.266C142.028 132.576 144.804 132.957 147.954 132.171C158.224 129.599 166.878 123.867 175.486 118.064C175.573 118.009 175.438 117.636 175.406 117.374L138.75 130.266ZM178.85 100.219C168.573 97.1309 149.975 104.807 142.911 114.746L178.85 100.219Z" fill="#171C22"/>
</svg>
