<svg width="634" height="1185" viewBox="0 0 634 1185" fill="none" xmlns="http://www.w3.org/2000/svg">
<path d="M220.829 1140.87L245.073 1129.34V1116.43H304.332V1175.72C304.332 1177.87 302.602 1179.71 300.215 1180.12C266.512 1186.02 232.809 1185.94 199.106 1179.86C197.558 1179.59 196.45 1178.37 196.45 1176.97C196.451 1161.89 205.816 1148.02 220.829 1140.87Z" fill="#354A4C"/>
<path d="M361.838 1140.87L386.083 1129.34V1116.43H445.342V1175.72C445.342 1177.87 443.612 1179.71 441.225 1180.12C407.522 1186.02 373.819 1185.94 340.116 1179.86C338.568 1179.59 337.459 1178.37 337.459 1176.97C337.46 1161.89 346.825 1148.02 361.838 1140.87Z" fill="#354A4C"/>
<path d="M238.692 678.612H452.025V758.823H238.692V678.612Z" fill="#171C22"/>
<path d="M238.692 746.974C255.102 733.921 271.512 729.797 287.922 734.588V712.793H402.794V734.588C419.204 729.797 435.614 733.921 452.024 746.974C455.626 874.278 455.626 1001.58 452.024 1128.88C452.024 1130.51 380.002 1130.51 380.002 1128.88C376.735 1013.41 376.441 897.925 379.101 782.446C379.153 780.178 377.803 778.1 375.698 777.253C355.471 769.114 335.245 769.114 315.018 777.253C312.913 778.1 311.563 780.178 311.615 782.446C314.275 897.925 313.981 1013.41 310.714 1128.88C310.714 1130.51 238.692 1130.51 238.692 1128.88C235.09 1001.58 235.09 874.278 238.692 746.974Z" fill="#171C22"/>
<path d="M230.414 633.134C233.814 659.248 225.244 670.641 238.692 678.617C310.714 696.618 380.257 694.877 452.024 678.617C452.024 644.281 477.551 446.799 492.138 401.827C503.471 366.908 475.199 341.879 415.311 332.445C398.09 329.729 378.261 328.307 355.997 328.307C316.868 328.307 286.828 328.398 264.766 335.936C230.623 347.603 215.599 377.089 215.599 451.658C215.599 533.654 225.181 592.983 230.414 633.134Z" fill="#E24444"/>
<path d="M113.348 538.104C131.993 538.104 153.767 532.008 176.466 513.104C198.087 495.097 215.895 469.582 231.607 447.07C240.262 434.667 248.439 422.953 256.054 414.135C264.775 404.039 268.838 402.374 269.273 402.217L248.245 343.91C221.208 353.657 201.563 381.803 180.766 411.602C145.818 461.677 126.363 482.604 103.467 474.236C82.1846 466.456 69.4001 454.259 64.3831 436.945C56.953 411.303 67.9915 378.51 82.737 359.369L33.6213 321.55C20.5378 338.533 10.2941 359.89 4.77757 381.687C-1.61238 406.934 -1.59232 432.006 4.83683 454.193C12.2269 479.697 31.6447 513.976 82.1782 532.449C90.9285 535.645 101.509 538.104 113.348 538.104Z" fill="#E24444"/>
<path d="M52.0349 348.604C38.3789 338.325 30.0455 326.357 33.4218 321.874C36.798 317.39 50.6054 322.089 64.2615 332.369C77.9175 342.648 86.2509 354.616 82.8746 359.099C79.4984 363.583 65.6909 358.884 52.0349 348.604Z" fill="#9E2F2F"/>
<path d="M264.766 335.936C283.884 355.013 323.15 401.216 333.415 467.153C339.633 447.483 352.898 372.085 415.311 332.445C398.09 329.729 378.261 328.307 355.997 328.307C316.868 328.307 286.828 328.398 264.766 335.936Z" fill="#B39370"/>
<path fill-rule="evenodd" clip-rule="evenodd" d="M369.374 499.188C369.609 496.159 367.684 493.187 364.991 491.778C361.781 490.097 357.487 490.621 354.942 493.2C352.396 495.779 351.989 500.268 354.214 503.126C357.997 507.986 368.87 505.704 369.374 499.188Z" fill="#9E2F2F"/>
<path fill-rule="evenodd" clip-rule="evenodd" d="M364.681 625.667C364.915 622.637 362.991 619.666 360.298 618.257C357.088 616.576 352.794 617.1 350.248 619.678C347.703 622.257 347.295 626.746 349.521 629.605C353.303 634.465 364.177 632.183 364.681 625.667Z" fill="#9E2F2F"/>
<path fill-rule="evenodd" clip-rule="evenodd" d="M352.587 556.85C344.269 561.582 351.841 574.023 360.061 570.144C368.516 566.155 361.121 551.995 352.587 556.85Z" fill="#9E2F2F"/>
<path fill-rule="evenodd" clip-rule="evenodd" d="M164.794 345.693C142.798 351.629 120.306 351.877 97.3731 347.1C91.068 345.786 86.485 340.323 86.2397 333.889C85.2059 306.749 85.1731 279.944 86.2233 253.497C86.4768 247.128 91.0005 241.713 97.2319 240.362C119.725 235.483 142.215 236.28 164.704 241.956C167.231 242.593 169.158 244.668 169.564 247.24C174.462 278.304 174.457 309.369 169.55 340.433C169.15 342.969 167.272 345.024 164.794 345.693Z" fill="#62C370"/>
<path d="M127.621 250.506C110.663 250.506 96.9155 248.996 96.9155 247.132C96.9155 245.269 110.663 243.758 127.621 243.758C144.579 243.758 158.326 245.269 158.326 247.132C158.326 248.996 144.579 250.506 127.621 250.506Z" fill="#171C22"/>
<path fill-rule="evenodd" clip-rule="evenodd" d="M39.6968 323.959C38.0384 325.953 37.8707 328.803 39.312 330.96C42.45 335.654 48.1462 341.422 55.3056 346.819C60.7966 350.95 66.2676 354.198 70.9464 356.261C73.6814 357.467 76.8823 356.434 78.3948 353.856L81.325 348.863L93.0409 328.854L64.4434 294.179L41.852 321.368L39.6968 323.959Z" fill="#B39370"/>
<path fill-rule="evenodd" clip-rule="evenodd" d="M60.6526 298.234C61.6537 296.642 62.9701 295.31 64.4416 294.185C64.1453 293.853 63.8581 293.523 63.581 293.197C59.7127 288.391 58.729 283.624 60.6526 280.17C61.9162 277.901 64.2611 276.457 67.2158 275.645C67.0198 275.274 66.8338 274.896 66.6816 274.499C65.9878 272.633 65.9322 270.644 66.5612 268.603C66.873 267.572 67.3599 266.559 68.0117 265.571C68.6627 264.57 69.4786 263.584 70.4496 262.677C72.3878 260.802 74.9441 259.215 77.9408 257.974C79.9893 257.153 82.2531 256.548 84.6353 256.174C85.8706 255.762 87.1506 255.404 88.4698 255.135C90.6651 254.652 92.9571 254.372 95.3694 254.285C97.7817 254.17 100.088 254.258 102.316 254.557C104.533 254.819 106.677 255.31 108.667 255.95C112.623 257.273 116.153 259.346 117.719 262.783C118.484 264.493 118.623 266.37 118.089 268.351C117.826 269.347 117.391 270.357 116.777 271.334C116.768 271.348 116.758 271.363 116.75 271.376C117.777 271.587 118.791 271.842 119.767 272.07C120.378 272.223 120.989 272.431 121.579 272.599C122.168 272.763 122.749 272.949 123.321 273.155C124.473 273.597 125.546 273.979 126.579 274.49C127.615 275.008 128.572 275.542 129.439 276.136C131.176 277.345 132.583 278.858 133.315 280.708C134.047 282.559 134.014 284.587 133.148 286.731C132.718 287.811 132.077 288.903 131.215 289.934C130.356 290.974 129.302 292.069 128.027 292.998C127.392 293.478 126.709 293.951 125.981 294.415C125.252 294.874 124.469 295.262 123.648 295.668C123.362 295.814 123.062 295.946 122.764 296.08C123.383 296.261 123.989 296.448 124.58 296.653C129.386 298.332 133.354 300.739 134.634 304.549C135.255 306.44 135.078 308.474 134.079 310.575C133.583 311.632 132.879 312.691 131.965 313.69C131.053 314.697 129.952 315.742 128.645 316.637C127.343 317.566 125.856 318.455 124.194 319.194C122.811 319.861 121.3 320.39 119.7 320.871C121.839 322.665 123.465 324.801 124.002 327.379C124.371 329.216 124.092 331.077 123.134 332.892C122.657 333.805 122.01 334.695 121.195 335.512C120.381 336.334 119.407 337.162 118.276 337.843C116.022 339.282 113.152 340.363 109.876 340.948C108.173 341.235 106.36 341.376 104.485 341.354C104.266 341.414 104.039 341.456 103.801 341.456C102.054 341.456 99.8731 341.394 97.4471 341.147C94.3866 341.455 91.0608 341.369 87.6101 340.766C80.4598 339.541 74.2731 336.337 70.4833 332.458C66.6561 328.58 65.2812 324.16 66.6825 320.454C66.8785 319.936 67.1256 319.45 67.4045 318.981C66.9924 318.672 66.5941 318.354 66.2121 318.022C65.4645 317.385 64.7571 316.77 64.1216 316.09C63.488 315.406 62.9063 314.718 62.3803 314.029C61.3163 312.68 60.525 311.197 59.9379 309.798C59.3462 308.407 59.0062 306.991 58.8913 305.62C58.6479 302.891 59.2815 300.415 60.6526 298.234Z" fill="#B39370"/>
<path d="M71.5944 276.127C72.1578 277.373 80.9328 274.281 92.1154 273.348C103.286 272.284 112.47 273.771 112.804 272.445C112.951 271.843 110.782 270.657 106.967 269.701C105.063 269.216 102.749 268.84 100.157 268.621C97.5645 268.431 94.6936 268.413 91.6979 268.67C88.7039 268.948 85.8813 269.474 83.3633 270.122C80.8507 270.797 78.6399 271.576 76.853 272.391C73.2673 274.007 71.3428 275.56 71.5944 276.127Z" fill="#5E3F26"/>
<path d="M73.9064 295.662C73.7505 296.27 75.9951 297.492 79.8998 298.632C83.7945 299.773 89.3685 300.739 95.5807 300.844C101.793 300.938 107.395 300.151 111.324 299.135C115.263 298.121 117.546 296.971 117.409 296.359C117.098 295.039 107.47 296.384 95.6555 296.148C83.8401 296.006 74.2593 294.353 73.9064 295.662Z" fill="#5E3F26"/>
<path d="M75.3815 316.814C75.1454 317.39 77.0745 318.867 80.6292 320.38C82.4015 321.143 84.5858 321.865 87.0647 322.485C89.5472 323.077 92.326 323.551 95.2689 323.785C98.2127 324.001 101.032 323.956 103.575 323.747C106.119 323.512 108.388 323.13 110.256 322.646C113.999 321.692 116.131 320.524 115.985 319.92C115.653 318.596 106.624 320.006 95.6281 319.102C84.6205 318.322 75.9112 315.557 75.3815 316.814Z" fill="#5E3F26"/>
<path d="M65.2902 312.506C65.6348 311.942 65.3029 311.087 64.9392 310.058C64.559 309.03 64.1351 307.779 63.9673 306.451C63.8042 305.123 63.9081 303.806 64.0248 302.716C64.1251 301.629 64.2372 300.72 63.7649 300.258C63.3255 299.814 62.2279 299.979 61.1019 301.138C59.9924 302.258 58.9895 304.466 59.3059 307.031C59.6286 309.595 61.142 311.491 62.4922 312.304C63.8679 313.153 64.972 313.044 65.2902 312.506Z" fill="#5E3F26"/>
<path d="M66.2092 322.168C65.613 322.014 64.6165 323.195 64.2655 325.545C63.9026 327.845 64.4013 331.343 66.6486 334.37C68.9005 337.393 72.1087 338.879 74.4152 339.193C76.7673 339.534 78.185 338.92 78.2105 338.305C78.2543 337.635 77.0609 337.04 75.4955 336.053C73.9247 335.083 71.9519 333.626 70.4184 331.569C68.8895 329.508 68.0617 327.2 67.5849 325.416C67.0908 323.633 66.8629 322.319 66.2092 322.168Z" fill="#5E3F26"/>
<path d="M96.6154 291.985C97.2591 291.842 97.663 291.036 98.0176 289.977C98.3686 288.908 98.7004 287.57 99.0916 286.11C99.4927 284.653 99.8829 283.331 100.122 282.232C100.351 281.139 100.411 280.24 99.9276 279.791C99.4653 279.357 98.4798 279.504 97.3703 280.372C96.2672 281.224 95.1148 282.839 94.5587 284.881C94.0053 286.923 94.1831 288.899 94.7037 290.192C95.2215 291.501 95.9982 292.125 96.6154 291.985Z" fill="#5E3F26"/>
<path d="M88.113 289.667C88.7567 289.545 89.2417 289.002 89.6392 288.355C90.034 287.698 90.3512 286.928 90.5855 286.065C90.8271 285.204 90.9502 284.38 90.9475 283.613C90.9374 282.855 90.7998 282.14 90.3093 281.704C89.8325 281.279 89.032 281.26 88.1696 281.791C87.3135 282.308 86.4465 283.402 86.0563 284.815C85.667 286.229 85.8503 287.612 86.3198 288.495C86.7902 289.394 87.4858 289.788 88.113 289.667Z" fill="#5E3F26"/>
<path d="M88.4481 263.379C87.9024 261.561 88.4671 259.784 89.7094 259.412C90.9517 259.039 92.4012 260.211 92.9468 262.029C93.4925 263.847 92.9278 265.623 91.6855 265.996C90.4432 266.369 88.9938 265.197 88.4481 263.379Z" fill="#5E3F26"/>
<path d="M82.4827 264.997C81.2033 264.784 80.3136 263.727 80.4955 262.636C80.6773 261.545 81.8619 260.833 83.1413 261.047C84.4207 261.26 85.3104 262.317 85.1285 263.408C84.9467 264.499 83.7621 265.21 82.4827 264.997Z" fill="#5E3F26"/>
<path d="M95.6682 315.342C96.1514 314.897 96.2125 314.115 96.1468 313.244C96.0711 312.363 95.8751 311.373 95.6098 310.305C95.3546 309.235 95.0728 308.265 94.7355 307.449C94.3936 306.644 93.9798 305.978 93.3452 305.805C92.7326 305.636 91.9741 306.07 91.4316 307.103C90.8883 308.12 90.6375 309.737 91.0451 311.416C91.4544 313.094 92.4208 314.415 93.3717 315.069C94.3289 315.739 95.2014 315.775 95.6682 315.342Z" fill="#5E3F26"/>
<path d="M84.8927 312.359C83.6184 312.117 82.8655 310.445 83.2112 308.623C83.5569 306.802 84.8701 305.521 86.1445 305.763C87.4188 306.004 88.1716 307.677 87.826 309.498C87.4803 311.32 86.167 312.601 84.8927 312.359Z" fill="#5E3F26"/>
<path d="M93.6525 336.447C94.1101 335.977 94.1785 335.239 94.1266 334.458C94.0646 333.67 93.8822 332.821 93.5978 331.93C93.3215 331.035 92.9851 330.235 92.584 329.552C92.1801 328.882 91.7015 328.316 91.0569 328.192C90.4315 328.07 89.725 328.492 89.2637 329.448C88.8006 330.388 88.651 331.858 89.116 333.338C89.5818 334.818 90.5455 335.936 91.4635 336.442C92.3889 336.963 93.2094 336.904 93.6525 336.447Z" fill="#5E3F26"/>
<path fill-rule="evenodd" clip-rule="evenodd" d="M108.519 261.669C107.509 262.062 106.726 263.112 106.846 264.19C106.989 265.48 108.253 266.331 109.457 266.819C110.32 267.169 111.249 267.432 112.174 267.325C113.995 267.115 115.247 265.105 114.075 263.536C112.992 262.085 110.209 261.011 108.519 261.669Z" fill="#5E3F26"/>
<path fill-rule="evenodd" clip-rule="evenodd" d="M123.573 280.981C122.092 280.179 120.368 280.455 119.033 281.708C117.975 282.7 117.127 284.6 117.499 286.387C117.754 287.605 118.507 288.443 119.287 288.951C121.247 290.226 123.626 289.753 125.37 287.943C126.448 286.826 126.984 286.007 126.228 284.211C125.609 282.741 124.664 281.573 123.573 280.981Z" fill="#5E3F26"/>
<path fill-rule="evenodd" clip-rule="evenodd" d="M127.708 309.854C128.373 308.359 128.135 306.349 127.279 305.026C126.423 303.703 125.044 303.046 123.711 303.091C122.377 303.137 121.09 303.828 119.996 304.816C119.052 305.67 118.169 306.936 118.212 308.424C118.256 309.961 119.277 311.167 120.352 311.825C122.674 313.248 126.272 313.087 127.708 309.854Z" fill="#5E3F26"/>
<path fill-rule="evenodd" clip-rule="evenodd" d="M118.699 333.358C119.408 332.777 119.957 331.93 119.958 331.012C119.96 330.103 119.427 329.262 118.749 328.655C117.629 327.651 116.042 327.16 114.565 327.444C113.087 327.727 111.769 328.813 111.286 330.237C110.804 331.662 111.223 333.371 112.367 334.35C114.298 336.003 117.006 334.747 118.699 333.358Z" fill="#5E3F26"/>
<path d="M447.782 681.465C450.626 675.685 455.882 671.56 461.595 668.982C467.309 666.403 473.521 665.212 479.672 664.04C485.909 662.851 492.146 661.663 498.382 660.474C504.907 659.231 511.523 657.982 518.178 658.559C524.832 659.137 531.641 661.767 536.069 667.093C541.419 673.53 542.399 683.105 539.675 690.953C536.951 698.801 530.976 705.004 524.1 709.199C520.313 711.511 516.249 713.258 512.067 714.702C512.213 718.678 511.016 722.839 508.76 725.994C504.312 732.212 497.069 735.415 490.078 738.127C484.61 740.248 478.686 742.251 472.958 740.69C465.099 738.546 460.151 730.515 456.017 723.154C452.398 716.712 448.744 710.183 446.753 703.042C444.762 695.901 444.582 687.964 447.782 681.465Z" fill="#B39370"/>
<path d="M536.93 703.711C538.156 704.762 539.918 704.899 541.282 704.036C554.121 695.913 576.346 679.956 595.682 656.546C621.108 625.765 634 591.92 634 555.953C634 519.339 626.576 486.097 611.936 457.152C599.541 432.648 581.922 411.106 559.568 393.126C520.957 362.07 477.633 349.128 456.812 342.908C454.923 342.344 453.223 341.837 451.74 341.377L433.354 400.569C435.024 401.087 436.937 401.66 439.064 402.295C500.96 420.784 572.006 454.959 572.006 555.953C572.006 606.058 526.141 640.158 508.72 651.287C507.391 652.137 506.768 653.736 507.147 655.268C512.004 674.866 522.034 690.944 536.93 703.711Z" fill="#E24444"/>
<path d="M476.846 720.834C477.363 721.283 479.131 719.98 481.98 718.205C484.83 716.434 488.852 714.244 493.642 712.813C496.029 712.091 498.364 711.619 500.516 711.346C501.582 711.224 502.644 711.101 503.562 711.056C504.48 711.011 505.277 711.032 505.962 711.141C507.315 711.332 508.272 711.934 508.896 712.466C509.521 712.994 509.84 713.484 510.177 713.446C510.471 713.43 510.82 712.762 510.486 711.563C510.315 710.979 509.961 710.3 509.378 709.652C508.807 709.01 507.951 708.392 506.97 707.976C505.986 707.547 504.865 707.296 503.728 707.164C502.587 707.032 501.444 707.015 500.201 707.028C497.733 707.086 495.018 707.488 492.288 708.314C486.799 709.951 482.452 712.984 479.889 715.624C477.302 718.291 476.38 720.444 476.846 720.834Z" fill="#5E3F26"/>
<path d="M473.22 702.089C473.027 702.73 473.697 703.511 474.569 704.507C475.457 705.503 476.552 706.773 477.561 708.328C478.552 709.892 479.25 711.416 479.784 712.639C480.326 713.847 480.756 714.783 481.419 714.874C482.032 714.967 482.817 714.07 483.09 712.318C483.232 711.449 483.195 710.396 482.96 709.258C482.703 708.13 482.232 706.925 481.515 705.792C480.783 704.668 479.885 703.737 478.967 703.033C478.03 702.345 477.088 701.871 476.24 701.637C474.535 701.154 473.392 701.493 473.22 702.089Z" fill="#5E3F26"/>
<path d="M474.517 698.159C474.347 698.741 476.542 700.099 480.584 700.836C484.58 701.585 490.485 701.476 496.427 699.172C502.372 696.873 506.809 692.977 509.257 689.732C511.747 686.465 512.454 683.982 511.936 683.667C511.359 683.297 509.69 685.056 506.847 687.446C504.023 689.843 499.871 692.801 494.729 694.792C489.587 696.784 484.526 697.393 480.823 697.524C477.113 697.672 474.695 697.497 474.517 698.159Z" fill="#5E3F26"/>
<path d="M324.39 724.189C323.093 724.189 322.041 719.292 322.041 713.251C322.041 707.21 323.093 702.313 324.39 702.313C325.687 702.313 326.738 707.21 326.738 713.251C326.738 719.292 325.687 724.189 324.39 724.189Z" fill="#A2A2A2"/>
<path d="M324.39 757.918C323.093 757.918 322.041 753.021 322.041 746.98C322.041 740.939 323.093 736.042 324.39 736.042C325.687 736.042 326.738 740.939 326.738 746.98C326.738 753.021 325.687 757.918 324.39 757.918Z" fill="#A2A2A2"/>
<path d="M350.828 726.008C349.531 726.008 348.48 721.111 348.48 715.071C348.48 709.03 349.531 704.133 350.828 704.133C352.125 704.133 353.177 709.03 353.177 715.071C353.177 721.111 352.125 726.008 350.828 726.008Z" fill="#A2A2A2"/>
<path d="M350.828 759.736C349.531 759.736 348.48 754.839 348.48 748.798C348.48 742.757 349.531 737.86 350.828 737.86C352.125 737.86 353.177 742.757 353.177 748.798C353.177 754.839 352.125 759.736 350.828 759.736Z" fill="#A2A2A2"/>
<path d="M288.899 792.605C289.561 793.181 291.026 792.651 292.942 791.569C294.863 790.48 297.271 788.867 299.922 787.095C302.578 785.33 304.993 783.728 306.738 782.375C308.473 781.022 309.526 779.874 309.249 779.042C308.982 778.234 307.384 777.907 304.998 778.302C302.622 778.691 299.483 779.864 296.447 781.885C293.414 783.909 291.124 786.355 289.851 788.398C288.569 790.447 288.256 792.048 288.899 792.605Z" fill="#A2A2A2"/>
<path d="M289.048 821.787C288.827 815.751 289.698 810.819 290.994 810.771C292.29 810.724 293.52 815.579 293.741 821.615C293.963 827.651 293.091 832.582 291.795 832.63C290.499 832.677 289.269 827.823 289.048 821.787Z" fill="#A2A2A2"/>
<path d="M290.052 855.422C289.893 849.383 290.816 844.46 292.112 844.426C293.409 844.392 294.589 849.26 294.748 855.299C294.907 861.338 293.984 866.261 292.688 866.295C291.391 866.329 290.211 861.461 290.052 855.422Z" fill="#A2A2A2"/>
<path d="M290.782 889.118C290.682 883.078 291.651 878.164 292.948 878.142C294.245 878.121 295.378 883 295.479 889.04C295.58 895.08 294.61 899.994 293.313 900.016C292.017 900.037 290.883 895.158 290.782 889.118Z" fill="#A2A2A2"/>
<path d="M291.184 922.864C291.137 916.824 292.151 911.918 293.448 911.908C294.745 911.898 295.834 916.787 295.881 922.828C295.929 928.869 294.915 933.774 293.618 933.784C292.321 933.794 291.232 928.905 291.184 922.864Z" fill="#A2A2A2"/>
<path d="M293.683 967.518C292.386 967.518 291.335 962.621 291.335 956.58C291.335 950.54 292.386 945.643 293.683 945.643C294.98 945.643 296.032 950.54 296.032 956.58C296.032 962.621 294.98 967.518 293.683 967.518Z" fill="#A2A2A2"/>
<path d="M293.471 1001.29C292.174 1001.28 291.163 996.376 291.213 990.336C291.263 984.297 292.355 979.409 293.652 979.42C294.95 979.431 295.96 984.336 295.91 990.375C295.86 996.415 294.768 1001.3 293.471 1001.29Z" fill="#A2A2A2"/>
<path d="M292.945 1034.98C291.648 1034.96 290.673 1030.05 290.767 1024.01C290.861 1017.97 291.989 1013.09 293.286 1013.11C294.583 1013.13 295.558 1018.04 295.464 1024.08C295.369 1030.12 294.242 1035 292.945 1034.98Z" fill="#A2A2A2"/>
<path d="M292.182 1068.71C290.885 1068.68 289.944 1063.76 290.079 1057.72C290.215 1051.68 291.376 1046.81 292.672 1046.84C293.969 1046.87 294.911 1051.79 294.775 1057.83C294.64 1063.87 293.479 1068.74 292.182 1068.71Z" fill="#A2A2A2"/>
<path d="M291.358 1102.41C290.062 1102.38 289.151 1097.45 289.324 1091.41C289.496 1085.38 290.688 1080.51 291.984 1080.55C293.281 1080.59 294.191 1085.51 294.019 1091.55C293.846 1097.59 292.655 1102.45 291.358 1102.41Z" fill="#A2A2A2"/>
<path d="M415.985 1138.12C396.081 1138.12 379.945 1134.17 379.945 1129.31C379.945 1124.44 396.081 1120.5 415.985 1120.5C435.889 1120.5 452.025 1124.44 452.025 1129.31C452.025 1134.17 435.889 1138.12 415.985 1138.12Z" fill="#171C22"/>
<path d="M274.77 1138.12C254.865 1138.12 238.73 1134.17 238.73 1129.31C238.73 1124.44 254.865 1120.5 274.77 1120.5C294.674 1120.5 310.809 1124.44 310.809 1129.31C310.809 1134.17 294.674 1138.12 274.77 1138.12Z" fill="#171C22"/>
<path d="M385.563 358.694C385.298 358.421 381.659 361.224 376.043 367.316C370.476 373.418 363.001 382.937 355.934 396.012C348.826 409.04 342.145 425.56 337.413 444.598C332.62 463.624 329.813 485.036 328.431 507.474C327.043 529.93 326.924 551.264 326.567 570.637C326.272 590.022 326.092 607.481 326.031 622.145C325.971 636.81 326.03 648.679 326.213 656.885C326.395 665.091 326.701 669.634 327.134 669.644C327.566 669.654 328.084 665.13 328.651 656.942C329.218 648.753 329.833 636.899 330.459 622.248C331.086 607.597 331.725 590.148 332.337 570.771C333.01 551.39 333.308 530.078 334.682 507.866C336.051 485.659 338.644 464.624 343.023 445.953C347.346 427.273 353.428 411.02 359.866 398.051C366.262 385.038 373.01 375.357 377.917 368.876C382.864 362.414 385.907 359.035 385.563 358.694Z" fill="#9E2F2F"/>
<path d="M333.411 478.097C333.84 478.049 333.999 476.075 333.917 472.521C333.842 468.968 333.396 463.852 332.425 457.579C331.439 451.312 329.934 443.886 327.674 435.788C325.42 427.692 322.445 418.913 318.642 409.979C311.103 392.066 301.698 377.061 294.039 366.962C290.212 361.898 286.837 358.023 284.357 355.482C281.88 352.936 280.312 351.709 279.986 351.977C279.644 352.258 280.574 354.007 282.439 356.987C284.307 359.963 287.095 364.184 290.389 369.472C296.987 380.036 305.524 394.964 312.875 412.423C316.582 421.131 319.641 429.621 322.144 437.439C324.651 445.257 326.565 452.411 328.083 458.453C329.586 464.498 330.689 469.438 331.502 472.854C332.322 476.267 332.981 478.147 333.411 478.097Z" fill="#9E2F2F"/>
<path d="M263.182 340.166C262.745 340.06 261.864 342.076 260.465 345.73C259.073 349.385 257.147 354.68 254.451 361.07C251.759 367.459 248.323 374.957 243.93 382.967C241.731 386.968 239.31 391.103 236.652 395.295C235.978 396.336 235.297 397.387 234.61 398.446C233.221 400.512 231.82 402.593 230.409 404.691L229.863 405.502L229.589 405.909L229.521 406.01C229.524 406.033 229.584 406.032 229.613 406.043L229.831 406.095L231.581 406.515C232.751 406.794 233.925 407.076 235.104 407.358C236.285 407.639 237.469 407.922 238.657 408.205L239.058 408.303L239.295 408.367L239.769 408.495L240.719 408.751C250.889 411.415 260.321 414.861 268.701 418.459C277.06 422.114 284.355 425.947 290.351 429.415C302.333 436.378 309.259 441.623 309.872 440.885C310.379 440.311 304.406 433.799 292.721 425.674C286.881 421.634 279.589 417.273 271.09 413.206C262.571 409.196 252.855 405.456 242.321 402.697C241.718 402.536 241.117 402.375 240.518 402.213L240.203 402.141L239.692 402.028C239.692 402.028 239.688 402.024 239.687 402.019L239.686 402.011V402.006C239.678 402.017 239.704 401.975 239.668 402.032L239.797 401.826C240.49 400.723 241.177 399.628 241.858 398.544C244.529 394.172 246.918 389.845 249.04 385.648C253.28 377.248 256.384 369.353 258.601 362.615C260.823 355.875 262.131 350.281 262.815 346.379C263.505 342.478 263.585 340.264 263.182 340.166Z" fill="#9E2F2F"/>
<path d="M22.2736 345.654C21.5534 346.019 22.2053 349.243 24.8026 353.787C25.1399 354.346 25.4946 354.932 25.8629 355.542C26.2422 356.147 26.6925 356.733 27.1384 357.36C28.0136 358.63 29.0967 359.865 30.2326 361.177C32.5793 363.723 35.4182 366.303 38.6957 368.615C41.9951 370.893 45.3966 372.67 48.5956 373.994C50.2184 374.609 51.7509 375.2 53.2452 375.584C53.9873 375.786 54.6939 376.007 55.3922 376.154C56.0924 376.29 56.7643 376.42 57.4052 376.545C62.5681 377.418 65.8191 376.918 65.9139 376.117C66.0333 375.207 63.0868 374.146 58.6323 372.291C58.0771 372.058 57.4954 371.814 56.8892 371.56C56.2847 371.309 55.6748 370.994 55.033 370.708C53.7402 370.158 52.4165 369.443 51.007 368.752C48.231 367.272 45.258 365.533 42.2823 363.48C39.3293 361.394 36.6718 359.203 34.3251 357.108C33.1901 356.023 32.0632 355.028 31.1014 354.003C30.6118 353.499 30.1068 353.035 29.6628 352.554C29.2152 352.073 28.7858 351.611 28.3764 351.17C25.099 347.629 23.0869 345.229 22.2736 345.654Z" fill="#9E2F2F"/>
<path d="M65.2452 369.307C63.7407 368.454 63.3327 366.331 64.3339 364.566C65.3351 362.801 67.3664 362.061 68.871 362.914C70.3755 363.767 70.7835 365.89 69.7823 367.655C68.7811 369.42 66.7498 370.16 65.2452 369.307Z" fill="#9E2F2F"/>
<path d="M355.881 433.219C356.187 433.525 358.075 432.285 361.201 429.817C364.435 427.469 368.91 423.872 374.818 419.983C380.69 416.059 387.893 411.721 396.264 407.669C404.618 403.592 414.196 399.952 424.512 397.092C425.795 396.71 427.099 396.441 428.378 396.11C429.664 395.807 430.928 395.443 432.21 395.207C433.486 394.944 434.753 394.682 436.01 394.423C436.637 394.286 437.264 394.162 437.894 394.068C438.829 393.915 439.76 393.763 440.687 393.61C441.936 393.406 443.18 393.204 444.418 393.002L446.269 392.7L446.73 392.624L446.959 392.587L447.074 392.568C447.107 392.559 447.053 392.505 447.047 392.476L446.627 391.633C445.522 389.417 444.427 387.221 443.343 385.049C442.217 382.84 441.114 380.678 440.039 378.568C435.717 370.139 431.748 362.586 428.333 356.283C421.502 343.678 416.89 336.071 416.114 336.453C415.337 336.835 418.545 345.131 424.358 358.238C427.264 364.79 430.823 372.545 434.859 381.115C435.873 383.255 436.913 385.448 437.975 387.688C438.018 387.81 437.998 387.804 438.005 387.846C437.988 387.868 437.922 387.843 437.88 387.846C437.856 387.847 437.885 387.84 437.821 387.848L436.839 387.997C436.18 388.087 435.526 388.207 434.87 388.341C433.558 388.599 432.234 388.858 430.901 389.12C429.562 389.357 428.242 389.725 426.901 390.036C425.566 390.375 424.206 390.656 422.868 391.052C412.115 394.029 402.195 397.998 393.668 402.517C385.124 407.011 377.914 411.904 372.209 416.407C366.466 420.877 362.328 425.081 359.554 428.023C356.884 431.086 355.576 432.914 355.881 433.219Z" fill="#9E2F2F"/>
<path d="M529.666 643.63C528.865 643.893 528.925 646.709 530.069 651.002C530.634 653.147 531.506 655.641 532.655 658.336C533.826 661.022 535.286 663.903 537.041 666.797C538.81 669.682 540.703 672.3 542.554 674.57C544.424 676.827 546.242 678.744 547.891 680.228C551.183 683.211 553.66 684.553 554.261 683.963C555.518 682.686 548.982 674.447 542.39 663.536C535.708 652.679 531.377 643.096 529.666 643.63Z" fill="#9E2F2F"/>
<path d="M538.01 695.845C536.988 694.45 537.988 691.981 540.243 690.33C542.498 688.679 545.154 688.471 546.176 689.867C547.198 691.262 546.198 693.731 543.943 695.382C541.689 697.033 539.032 697.24 538.01 695.845Z" fill="#9E2F2F"/>
<path d="M375.844 352.025C379.95 350.131 382.694 346.397 383.029 342.169C386.116 303.138 405.91 126.619 355.05 90.9C304.094 55.1133 233.149 70.6933 220.292 114.211C204.135 168.903 200.935 273.454 225.247 289.103C249.559 304.751 283.594 299.237 283.594 299.237L287.301 339.745C287.656 343.622 290.025 347.109 293.66 349.075C320.066 363.343 347.399 365.143 375.844 352.025Z" fill="#B39370"/>
<path d="M218.511 190.159C218.511 200.195 222.64 208.325 227.728 208.325C232.815 208.325 236.936 200.195 236.936 190.159C236.936 186.55 236.407 183.196 235.477 180.37H219.969C219.04 183.196 218.511 186.55 218.511 190.159Z" fill="#171C22"/>
<path d="M235.126 183.498C224.298 183.498 215.52 182.096 215.52 180.367C215.52 178.638 224.298 177.236 235.126 177.236C245.954 177.236 254.732 178.638 254.732 180.367C254.732 182.096 245.954 183.498 235.126 183.498Z" fill="#171C22"/>
<path d="M274.123 190.159C274.123 200.195 278.253 208.325 283.34 208.325C288.427 208.325 292.548 200.195 292.548 190.159C292.548 186.55 292.019 183.196 291.089 180.37H275.582C274.653 183.196 274.123 186.55 274.123 190.159Z" fill="#171C22"/>
<path d="M290.738 183.498C279.91 183.498 271.133 182.096 271.133 180.367C271.133 178.638 279.91 177.236 290.738 177.236C301.566 177.236 310.344 178.638 310.344 180.367C310.344 182.096 301.566 183.498 290.738 183.498Z" fill="#171C22"/>
<path d="M255.912 233.217C255.983 232.79 255.516 232.3 254.642 231.768C253.777 231.23 252.494 230.663 251.116 229.931C250.429 229.566 249.73 229.149 249.078 228.667C248.75 228.431 248.437 228.163 248.146 227.894C247.892 227.635 247.635 227.362 247.409 227.045C246.954 226.427 246.567 225.687 246.39 224.973C246.186 224.251 246.221 223.612 246.377 223.129C246.553 222.643 246.842 222.216 247.4 221.835C247.936 221.448 248.682 221.166 249.436 221.021C249.813 220.957 250.197 220.902 250.566 220.902C250.755 220.887 250.929 220.909 251.114 220.906C251.312 220.929 251.509 220.934 251.705 220.968C252.49 221.068 253.264 221.258 253.997 221.484C255.464 221.936 256.757 222.458 257.739 222.713C258.723 222.975 259.4 222.98 259.662 222.635C259.923 222.291 259.756 221.639 259.184 220.751C258.606 219.869 257.635 218.722 256.042 217.556C255.244 216.978 254.27 216.408 253.094 215.965C252.804 215.847 252.493 215.758 252.179 215.657C251.845 215.576 251.497 215.476 251.144 215.426C250.438 215.294 249.7 215.255 248.939 215.273C247.423 215.332 245.784 215.681 244.194 216.602C242.61 217.48 241.103 219.116 240.437 221.138C239.762 223.169 239.96 225.237 240.55 226.862C241.129 228.521 242.065 229.856 243.137 230.927C243.672 231.465 244.263 231.923 244.869 232.322C245.454 232.687 246.028 232.991 246.599 233.231C247.735 233.718 248.809 233.994 249.77 234.15C251.697 234.456 253.184 234.356 254.217 234.168C255.252 233.968 255.841 233.642 255.912 233.217Z" fill="#171C22"/>
<path d="M266.697 239.692C265.975 239.122 264.137 240.48 261.09 241.496C259.572 242.007 257.741 242.447 255.723 242.51C254.72 242.561 253.672 242.51 252.625 242.339C251.574 242.186 250.519 241.913 249.514 241.489C248.541 241.136 247.775 240.604 247.125 240.03C246.493 239.452 246.151 238.876 246.025 238.519C245.925 238.162 245.874 237.823 246.115 237.363C246.344 236.902 246.831 236.421 247.354 236.072C248.416 235.357 249.834 235.002 250.799 234.644C251.79 234.293 252.395 233.922 252.411 233.486C252.428 233.057 251.901 232.606 250.844 232.207C250.313 232.011 249.641 231.83 248.799 231.737C247.953 231.65 246.952 231.638 245.749 231.945C244.575 232.257 243.285 232.842 242.125 234.04C241.551 234.633 241.029 235.407 240.689 236.324C240.365 237.228 240.209 238.256 240.304 239.279C240.514 241.337 241.545 243.047 242.755 244.338C243.37 244.987 244.05 245.556 244.789 246.054C245.157 246.306 245.546 246.531 245.945 246.747L246.562 247.05L247.155 247.29C248.728 247.947 250.357 248.307 251.924 248.435C253.492 248.582 255.005 248.499 256.402 248.242C259.209 247.765 261.535 246.629 263.217 245.382C264.906 244.125 265.971 242.783 266.484 241.731C266.996 240.671 267.026 239.954 266.697 239.692Z" fill="#171C22"/>
<path d="M289.561 298.91C289.456 299.741 291.148 300.798 294.16 301.371C295.661 301.665 297.479 301.788 299.498 301.707C301.512 301.602 303.723 301.276 305.974 300.657C308.221 300.019 310.28 299.151 312.056 298.196C313.824 297.218 315.315 296.169 316.446 295.14C318.724 293.088 319.622 291.307 319.101 290.651C318.551 289.953 316.74 290.442 314.156 291.349C312.887 291.799 311.377 292.334 309.701 292.928C308.035 293.485 306.218 294.076 304.288 294.625C302.352 295.157 300.492 295.594 298.779 295.982C297.037 296.342 295.469 296.669 294.151 296.942C291.472 297.507 289.669 298.029 289.561 298.91Z" fill="#171C22"/>
<path d="M272.397 1149.16C272.269 1148.04 269.403 1147.47 265.068 1146.72C263.982 1146.52 262.803 1146.34 261.547 1146.08C260.288 1145.88 258.961 1145.56 257.565 1145.3C254.784 1144.67 251.764 1143.93 248.637 1142.99C245.519 1142.02 242.602 1140.94 239.951 1139.89C238.644 1139.33 237.369 1138.85 236.213 1138.31C235.028 1137.82 233.948 1137.31 232.941 1136.87C228.928 1135.06 226.236 1133.93 225.505 1134.78C224.824 1135.56 226.306 1138.26 229.901 1141.49C230.8 1142.29 231.817 1143.14 232.984 1143.94C234.122 1144.8 235.423 1145.57 236.799 1146.38C239.587 1147.93 242.814 1149.37 246.342 1150.47C249.879 1151.54 253.36 1152.16 256.539 1152.43C258.134 1152.53 259.645 1152.62 261.066 1152.55C262.482 1152.54 263.799 1152.41 264.993 1152.25C269.781 1151.59 272.524 1150.18 272.397 1149.16Z" fill="#171C22"/>
<path d="M414.848 1149.16C414.72 1148.04 411.854 1147.47 407.519 1146.72C406.433 1146.52 405.254 1146.34 403.998 1146.08C402.739 1145.88 401.412 1145.56 400.016 1145.3C397.235 1144.67 394.215 1143.93 391.088 1142.99C387.97 1142.02 385.053 1140.94 382.402 1139.89C381.095 1139.33 379.82 1138.85 378.664 1138.31C377.479 1137.82 376.399 1137.31 375.392 1136.87C371.379 1135.06 368.687 1133.93 367.956 1134.78C367.275 1135.56 368.757 1138.26 372.352 1141.49C373.251 1142.29 374.268 1143.14 375.434 1143.94C376.573 1144.8 377.874 1145.57 379.25 1146.38C382.038 1147.93 385.265 1149.37 388.793 1150.47C392.33 1151.54 395.81 1152.16 398.989 1152.43C400.586 1152.53 402.096 1152.62 403.517 1152.55C404.933 1152.54 406.25 1152.41 407.443 1152.25C412.231 1151.59 414.974 1150.18 414.848 1149.16Z" fill="#171C22"/>
<path d="M361.777 196.256C361.914 195.073 362.269 193.925 362.826 192.871C363.03 192.418 363.365 192.036 363.789 191.773C364.213 191.511 364.705 191.379 365.205 191.396C366.284 191.588 367.078 192.846 367.646 194.104C368.642 196.342 369.279 198.722 369.534 201.156C369.804 203.052 369.664 204.983 369.123 206.821C367.885 210.451 364.518 210.935 362.701 207.766C361.07 204.923 361.267 199.518 361.777 196.256Z" fill="#171C22"/>
<path fill-rule="evenodd" clip-rule="evenodd" d="M439.932 73.2107C442.169 70.9985 443.737 68.2095 444.46 65.1587C445.183 62.108 445.032 58.9173 444.024 55.9473C441.453 48.85 433.794 44.2622 425.612 45.2845C426.205 36.2909 421.151 28.076 413.337 24.9735C403.743 21.1644 395.04 27.071 394.412 27.5128C392.572 23.9942 390.04 20.8778 386.965 18.348C383.89 15.8183 380.335 13.9266 376.511 12.7849C363.614 9.1203 353.336 15.9067 351.96 16.8472C350.657 12.35 348.019 8.34696 344.391 5.36005C340.762 2.37315 336.311 0.540984 331.618 0.102473C326.925 -0.336039 322.208 0.639453 318.081 2.90174C313.955 5.16403 310.611 8.60814 308.486 12.7849C307.002 9.21985 304.461 6.18697 301.2 4.08871C297.939 1.99044 294.113 0.925987 290.229 1.03657C286.345 1.14716 282.586 2.42756 279.452 4.70789C276.318 6.98822 273.957 10.1607 272.681 13.8043C267.047 5.74058 256.822 2.47542 248.132 5.68283C244.459 7.10749 241.264 9.52938 238.913 12.6716C236.561 15.8138 235.148 19.5495 234.834 23.4516C226.867 13.4867 213.491 10.8809 204.146 16.3427C197.342 20.3193 193.337 28.1828 193.405 36.6538C191.774 36.6326 182.758 36.6538 178.061 42.7471C172.429 50.0494 174.599 64.0111 186.245 73.2117C185.384 73.2839 176.807 74.1098 173.97 79.8123C170.877 86.0278 175.192 96.8505 186.757 101.646C180.829 103.372 177.642 109.381 179.084 114.34C180.673 119.807 187.666 123.25 193.919 120.432C192.305 122.314 189.021 126.734 189.827 131.599C191.04 138.914 201.199 145.477 214.634 143.976C214.778 142.965 214.925 141.977 215.062 140.998C215.524 138.959 215.826 136.889 215.965 134.804C216.122 133.736 216.277 132.689 216.43 131.663C216.903 129.307 217.723 127.153 219.413 125.821C224.579 121.747 234.83 127.746 241.609 130.544C271.157 142.725 294.535 118.631 313.752 125.427C326.832 130.055 339.733 149.619 340.879 212.954C342.551 221.287 351.271 217.08 352.088 209.97C353.543 201.561 351.312 192.821 352.939 184.441C354.925 173.521 364.98 168.233 371.989 171.612C393.541 187.052 367.335 253.708 388.39 258.921C391.141 257.974 391.572 255.018 392.233 252.528C392.879 250.096 393.605 247.748 394.385 245.468C398.04 246.335 404.903 243.051 406.693 238.231C408.385 233.676 405.106 228.593 403.625 226.552C410.665 229.271 418.274 226.248 421.014 220.459C423.131 215.988 422.124 210.328 418.457 206.242C423.778 207.994 429.385 206.711 432.266 203.196C436.229 198.362 435.026 189.319 427.832 184.531L427.86 184.455C432.634 185.632 437.483 184.455 439.938 181.363C443.526 176.858 442.153 168.128 434.824 163.591C435.354 163.512 443.761 162.133 446.588 155.468C449.375 148.898 445.685 139.681 436.87 135.666C446.159 134.35 452.275 126.921 451.706 119.924C451.137 112.927 444.111 109.067 443.523 108.758C452.325 107.314 458.968 100.831 459.89 93.5256C461.086 83.9554 452.418 73.514 439.932 73.2107Z" fill="#171C22"/>
<path d="M239.96 64.5956C239.806 64.6716 239.533 64.5426 239.184 64.2702C238.698 63.905 238.182 63.5793 237.643 63.296C236.824 62.8879 235.945 62.609 235.039 62.4692C233.821 62.2892 232.584 62.2873 231.366 62.4634C230.658 62.5602 229.959 62.7135 229.276 62.9216C228.521 63.1432 227.782 63.4162 227.064 63.7388C225.541 64.4061 224.157 65.3495 222.983 66.5208C222.396 67.1177 221.891 67.7897 221.483 68.5192C221.095 69.2446 220.828 70.0278 220.694 70.8381C220.55 71.6747 220.546 72.5291 220.683 73.3669C220.73 73.57 220.767 73.7769 220.822 73.9762L220.919 74.2919C220.963 74.4461 221.022 74.5959 221.094 74.7395L221.346 75.1525L221.85 75.9823C222.057 76.271 222.452 76.6185 222.743 76.9352L224.808 79.0472L226.82 81.1072L219.817 80.6875C219.205 80.6403 218.634 80.6374 218.064 80.6317C217.494 80.6259 216.9 80.6028 216.388 80.6403C215.88 80.6538 215.393 80.7 214.909 80.7366C213.241 80.8328 211.628 81.3604 210.229 82.2671C209.705 82.6645 209.264 83.1599 208.932 83.7255C208.631 84.2843 208.442 84.8961 208.377 85.5265C208.275 86.842 208.505 88.1619 209.045 89.3673C209.543 90.4678 210.186 91.4981 210.956 92.4313C211.655 93.3092 212.339 94.0504 212.896 94.6742C214.019 95.9198 214.605 96.7217 214.398 96.996C214.19 97.2703 213.25 96.996 211.705 96.1682C210.752 95.65 209.848 95.0468 209.005 94.3661C207.811 93.4196 206.785 92.2819 205.968 90.9999C204.899 89.3124 204.316 87.366 204.284 85.3725C204.28 84.1652 204.527 82.9702 205.009 81.8619C205.552 80.6823 206.34 79.6302 207.322 78.7748C209.328 77.1869 211.751 76.2031 214.304 75.9399C214.91 75.8667 215.522 75.7936 216.129 75.7609C216.172 75.7522 216.151 75.7474 216.159 75.7426C216.16 75.7386 216.159 75.7346 216.156 75.7313C216.154 75.728 216.151 75.7255 216.147 75.7243V75.7243C216.152 75.7397 216.139 75.6867 216.158 75.7599L216.005 75.242C215.908 74.882 215.845 74.5201 215.776 74.16C215.564 72.7566 215.601 71.3271 215.884 69.9361C216.153 68.5941 216.654 67.3084 217.365 66.1357C218.03 65.0579 218.846 64.0794 219.789 63.2296C221.464 61.739 223.43 60.6066 225.565 59.9029C226.497 59.5902 227.452 59.351 228.422 59.1876C229.328 59.0283 230.247 58.9519 231.168 58.9595C232.758 58.958 234.335 59.2437 235.822 59.8027C236.967 60.2348 238.003 60.9106 238.857 61.7828C239.398 62.3268 239.8 62.9907 240.031 63.7196C240.143 64.2317 240.113 64.5147 239.96 64.5956Z" fill="#A2A2A2"/>
<path d="M407.526 170.594C407.552 170.472 407.781 170.385 408.182 170.329C408.582 170.273 409.16 170.219 409.886 170.105C411.918 169.821 413.859 169.084 415.564 167.95C416.713 167.185 417.708 166.214 418.498 165.086C419.384 163.785 419.971 162.306 420.217 160.754C420.507 159.024 420.371 157.249 419.822 155.582C419.562 154.755 419.167 153.976 418.651 153.277C418.386 152.955 418.09 152.659 417.769 152.392C417.607 152.266 417.439 152.148 417.265 152.039L417.031 151.895C416.888 151.828 416.735 151.782 416.578 151.758L416.093 151.646L415.851 151.589C415.748 151.589 415.766 151.493 415.452 151.659L414.504 150.408L414.189 150.015C414.131 149.941 414.111 149.926 414.072 149.878L413.967 149.76C413.919 149.709 413.866 149.661 413.81 149.62C413.788 149.62 413.756 149.599 413.77 149.647C413.774 149.703 413.765 149.758 413.745 149.81L413.738 149.836V149.85V149.856C414.223 149.709 409.484 151.138 411.492 150.53L411.766 150.384L412.316 150.09L413.424 149.498C413.709 149.389 413.562 149.324 413.531 149.247L413.393 149.021L413.111 148.565L412.577 147.755L413.459 147.131L413.899 146.818L414.255 146.495L415.692 145.193C415.816 145.083 415.929 144.983 416.046 144.858L416.228 144.642L416.499 144.322C416.686 144.113 416.861 143.894 417.023 143.665C417.367 143.218 417.686 142.752 417.979 142.271C418.276 141.789 418.547 141.291 418.79 140.78L419.143 140.01L419.434 139.215C419.621 138.682 419.772 138.137 419.887 137.585C420.005 137.036 420.09 136.48 420.139 135.921C420.178 135.364 420.178 134.805 420.139 134.249C420.097 133.475 419.96 132.709 419.732 131.968C419.504 131.251 419.195 130.562 418.81 129.915L418.167 128.971C417.911 128.682 417.677 128.382 417.418 128.104C416.887 127.559 416.307 127.063 415.685 126.623C415.075 126.197 414.423 125.835 413.738 125.542C413.085 125.255 412.399 125.047 411.696 124.922C411.362 124.849 411.021 124.808 410.679 124.8L410.245 124.779C410.025 124.782 409.805 124.796 409.587 124.823C409.124 124.902 408.567 125.126 408.067 125.267L406.534 125.749L404.762 126.423L401.537 127.656L401.865 126.993L402.026 126.666L402.245 126.254C402.538 125.705 402.829 125.16 403.117 124.618L404.837 121.38C405.383 120.342 405.89 119.276 406.254 118.408L406.601 117.57C406.691 117.327 406.795 117.089 406.871 116.843C407.541 115.089 407.845 113.218 407.767 111.344C407.681 109.748 407.188 108.199 406.334 106.843C405.639 105.738 404.611 104.88 403.395 104.391C402.35 104.028 401.229 103.939 400.14 104.133C399.3 104.28 398.5 104.597 397.789 105.064C397.328 105.378 396.905 105.743 396.529 106.153C396.273 106.454 396.069 106.613 395.947 106.574C395.825 106.534 395.786 106.294 395.85 105.827C396.002 105.151 396.32 104.522 396.776 103.998C397.514 103.135 398.464 102.475 399.534 102.082C401.002 101.53 402.599 101.408 404.136 101.732C406.073 102.201 407.794 103.306 409.021 104.867C410.405 106.621 411.29 108.712 411.583 110.922C411.883 113.339 411.661 115.793 410.931 118.118C410.848 118.418 410.748 118.708 410.656 119.007L410.387 119.783C410.354 119.875 410.33 119.969 410.315 120.066L410.288 120.209C410.28 120.25 410.26 120.298 410.356 120.236C410.427 120.197 410.502 120.165 410.58 120.14L410.624 120.126C410.624 120.126 410.643 120.126 410.637 120.118C410.648 120.118 410.601 120.118 410.657 120.118H410.86C411.4 120.121 411.939 120.169 412.471 120.262C413.539 120.421 414.584 120.707 415.583 121.114C416.589 121.516 417.549 122.022 418.449 122.623C419.358 123.237 420.204 123.938 420.977 124.715C421.36 125.113 421.715 125.545 422.083 125.966C422.41 126.423 422.744 126.878 423.053 127.354C423.657 128.345 424.141 129.403 424.494 130.506C424.674 131.064 424.814 131.634 424.911 132.212C425.023 132.776 425.093 133.347 425.122 133.921C425.18 134.719 425.18 135.52 425.122 136.317C425.053 137.098 424.933 137.874 424.762 138.64C424.6 139.391 424.387 140.131 424.126 140.854L423.717 141.913L423.241 142.929C422.592 144.243 421.804 145.485 420.889 146.633C420.675 146.92 420.445 147.196 420.202 147.459C420.001 147.687 419.611 148.127 419.717 148.001L419.642 148.041L419.462 148.137C419.451 148.137 419.406 148.168 419.419 148.156C419.422 148.151 419.427 148.147 419.432 148.144C419.447 148.138 419.464 148.138 419.479 148.144C419.523 148.157 419.562 148.18 419.596 148.21L419.626 148.237L419.641 148.251C419.623 148.238 419.689 148.285 419.601 148.224L419.661 148.265L419.781 148.349C420.096 148.567 420.398 148.803 420.687 149.054C421.236 149.552 421.733 150.104 422.169 150.702C422.942 151.831 423.511 153.085 423.851 154.408C424.473 156.735 424.496 159.18 423.917 161.518C423.424 163.568 422.458 165.475 421.094 167.089C419.939 168.43 418.52 169.524 416.924 170.301C414.757 171.404 412.305 171.836 409.888 171.542C409.262 171.47 408.651 171.308 408.073 171.061C407.682 170.868 407.501 170.716 407.526 170.594Z" fill="#A2A2A2"/>
<path d="M422.403 84.3382C422.281 84.2978 422.197 84.1187 422.145 83.8386C422.093 83.5585 422.048 83.1648 421.94 82.6989C421.824 82.1382 421.638 81.5942 421.385 81.0798C421.058 80.4053 420.628 79.7853 420.11 79.2422C419.492 78.5911 418.761 78.0562 417.952 77.6635C417.518 77.4542 417.059 77.2986 416.586 77.2005C416.064 77.0817 415.53 77.0171 414.995 77.008C413.789 76.9966 412.591 77.196 411.455 77.5971C411.126 77.7049 410.891 77.8002 410.486 77.9686L409.536 78.4009C409.207 78.5645 408.848 78.7859 408.501 78.9784C407.088 79.8284 405.514 80.8651 404.105 81.7344C404.163 80.4656 404.222 79.1822 404.282 77.8839L404.309 76.8973L404.325 76.3996L404.331 76.1503L404.301 75.9577L404.181 75.1809L404.12 74.7891C404.11 74.7314 404.1 74.6428 404.091 74.6091L404.063 74.5264C403.79 73.6177 403.373 72.7582 402.827 71.9803C402.551 71.5793 402.239 71.2037 401.896 70.8579C401.559 70.5043 401.188 70.1847 400.788 69.9039C400.395 69.6195 399.976 69.3726 399.535 69.1665C399.318 69.0607 399.088 68.9894 398.867 68.8922L398.169 68.692L397.549 68.5717L396.916 68.5023L396.277 68.485L395.636 68.5178C395.212 68.5606 394.791 68.6301 394.376 68.7257C393.963 68.8256 393.557 68.9542 393.162 69.1107C392.771 69.2588 392.393 69.4378 392.031 69.6459C391.849 69.74 391.673 69.8468 391.506 69.9655C391.262 70.1122 391.038 70.2884 390.839 70.4901L390.36 70.9262L390.121 71.1437C390.037 71.24 389.946 71.3709 389.859 71.4816L388.805 72.8736C388.134 73.8073 387.468 74.7324 386.809 75.6488C386.121 73.9777 385.469 72.2556 384.732 70.6432C384.551 70.2427 384.384 69.8202 384.197 69.4476C384.143 69.3328 384.078 69.2233 384.003 69.1203L383.928 69.0039L383.783 68.7786C383.605 68.473 383.404 68.1805 383.183 67.9036C382.367 66.8107 381.396 65.8403 380.3 65.0225C379.314 64.2674 378.246 63.6242 377.115 63.105C376.13 62.6565 375.104 62.302 374.051 62.0461L373.344 61.869L372.665 61.7622C372.251 61.6794 371.831 61.625 371.41 61.5995C370.615 61.5032 369.934 61.5167 369.359 61.4898C368.784 61.4628 368.342 61.5003 368.014 61.4445C367.686 61.3887 367.493 61.3194 367.45 61.1933C367.408 61.0672 367.518 60.9045 367.785 60.6927C368.175 60.4004 368.603 60.1629 369.058 59.9871C369.782 59.7005 370.535 59.4945 371.304 59.373C371.789 59.2767 372.281 59.2216 372.776 59.2084L373.594 59.166L374.457 59.2064C375.767 59.277 377.064 59.5032 378.32 59.8803C379.801 60.3267 381.217 60.9622 382.533 61.7708C384.052 62.6832 385.416 63.8274 386.577 65.1611C388.244 67.2548 387.741 66.631 387.917 66.7668L387.968 66.6513L387.988 66.6099C387.969 66.6176 388.104 66.5001 388.154 66.452C388.142 66.4424 388.487 66.195 388.735 66.0159C388.995 65.8234 389.266 65.6459 389.547 65.4846C390.104 65.1435 390.688 64.8474 391.292 64.599C391.903 64.3418 392.532 64.1298 393.175 63.9646C393.829 63.8001 394.495 63.6811 395.166 63.6084L396.188 63.5363L397.23 63.5574L398.278 63.6662C398.627 63.722 398.976 63.7971 399.325 63.8664C399.727 63.9627 400.127 64.0907 400.522 64.2139C400.909 64.3689 401.297 64.5085 401.664 64.6866C402.393 65.0335 403.087 65.4507 403.734 65.9322C404.366 66.3941 404.951 66.9168 405.479 67.4926C406.003 68.0464 406.475 68.6463 406.889 69.285C407.704 70.5214 408.304 71.8852 408.663 73.3192C408.76 73.7187 408.72 73.6879 408.718 73.7457L408.676 73.9247C408.692 73.9584 408.761 73.9305 408.835 73.9305C408.907 73.9231 408.978 73.9096 409.047 73.8901C409.374 73.7938 409.867 73.6302 410.274 73.5387C411.924 73.1114 413.642 73.0016 415.333 73.2153C416.122 73.3193 416.897 73.5101 417.643 73.7842C418.359 74.0392 419.038 74.3854 419.665 74.8142C420.742 75.5509 421.653 76.5014 422.342 77.6057C422.894 78.4822 423.27 79.4572 423.446 80.4762C423.584 81.2252 423.573 81.9937 423.413 82.7384C423.329 83.199 423.145 83.636 422.875 84.0196C422.687 84.2785 422.524 84.3786 422.403 84.3382Z" fill="#A2A2A2"/>
<path d="M379.938 143.27C379.635 143.071 379.777 142.337 379.991 141.166C380.293 139.588 380.37 137.975 380.221 136.375C380.014 134.161 379.192 132.048 377.847 130.27C377.052 129.289 376.097 128.448 375.022 127.78C373.85 127.068 372.563 126.562 371.219 126.284C370.853 126.205 370.483 126.147 370.11 126.111C369.785 126.083 369.458 126.074 369.132 126.085C368.706 126.059 368.278 126.082 367.858 126.152L366.347 126.392L364.796 126.67L361.91 127.189C362.667 125.768 363.413 124.369 364.146 122.995L364.429 122.464L364.568 122.201L364.651 121.975L364.982 121.086L365.307 120.212C365.348 120.123 365.375 120.029 365.388 119.932L365.423 119.739C365.636 118.747 365.699 117.729 365.61 116.719C365.54 115.782 365.365 114.855 365.087 113.957C364.836 113.168 364.512 112.404 364.118 111.675C363.955 111.348 363.769 111.033 363.562 110.732C363.393 110.45 363.206 110.179 363.001 109.921C362.639 109.409 362.273 109.013 361.981 108.654C361.733 108.379 361.503 108.09 361.29 107.788C361.142 107.549 361.088 107.356 361.151 107.222C361.214 107.087 361.39 107.017 361.685 107.014C362.102 107.018 362.516 107.093 362.908 107.236C363.527 107.451 364.116 107.745 364.66 108.111C365.012 108.33 365.345 108.579 365.653 108.856C366.018 109.151 366.356 109.477 366.663 109.83C367.399 110.636 368.028 111.532 368.535 112.497C369.123 113.632 369.551 114.841 369.807 116.092C370.113 117.524 370.175 118.996 369.992 120.448L369.938 120.941L369.932 121.037C369.932 121.1 369.921 121.177 369.932 121.168C369.946 121.19 369.959 121.195 369.974 121.193C370.003 121.18 370.03 121.163 370.055 121.143C370.105 121.14 370.155 121.14 370.204 121.143C370.339 121.143 370.474 121.154 370.607 121.175C371.154 121.224 371.698 121.305 372.236 121.419C374.19 121.822 376.048 122.598 377.704 123.705C379.25 124.752 380.579 126.085 381.616 127.632C382.526 129.028 383.17 130.579 383.515 132.207C383.81 133.584 383.892 134.998 383.758 136.399C383.6 138.389 382.914 140.302 381.771 141.945C380.919 143.066 380.204 143.451 379.938 143.27Z" fill="#A2A2A2"/>
<path d="M315.646 49.6567C315.348 49.8617 314.714 49.4574 313.698 48.825C312.335 47.9593 310.856 47.2882 309.305 46.8315C307.157 46.1986 304.874 46.1699 302.711 46.7487C301.498 47.1162 300.356 47.6834 299.332 48.4265C298.231 49.2413 297.28 50.2384 296.52 51.374C296.31 51.6818 296.118 52.0012 295.945 52.3308C295.798 52.6204 295.668 52.9183 295.557 53.2232C295.376 53.6062 295.238 54.0082 295.146 54.4216L294.808 55.904L294.49 57.4442C294.291 58.4068 294.095 59.3572 293.902 60.2955L290.812 56.676L290.424 56.2169L290.23 55.9916L290.05 55.8318L289.343 55.1965L288.645 54.5699C288.577 54.4994 288.499 54.4394 288.414 54.3918L288.248 54.2878C287.4 53.7229 286.472 53.2866 285.494 52.9931C284.591 52.7095 283.659 52.5265 282.716 52.4473C281.885 52.3852 281.05 52.4001 280.222 52.4916C279.856 52.5198 279.492 52.5738 279.134 52.6533C278.806 52.7034 278.482 52.7754 278.164 52.8689C277.551 53.0114 277.045 53.202 276.601 53.3368C276.252 53.4625 275.896 53.5682 275.535 53.6535C275.257 53.7006 275.057 53.6785 274.953 53.5707C274.849 53.4629 274.85 53.2742 274.953 53.0008C275.111 52.6177 275.335 52.2647 275.615 51.9573C276.047 51.4656 276.541 51.032 277.086 50.6674C277.422 50.424 277.779 50.2105 278.153 50.0292C278.564 49.8027 278.994 49.6127 279.439 49.4613C280.466 49.0826 281.538 48.8361 282.628 48.7278C283.908 48.6079 285.199 48.6636 286.464 48.8934C287.916 49.1418 289.315 49.6298 290.605 50.3373L291.046 50.5702L291.136 50.6126C291.195 50.6395 291.263 50.6742 291.26 50.6617C291.285 50.6559 291.294 50.6463 291.297 50.6318C291.297 50.5991 291.291 50.5667 291.281 50.5356C291.266 50.5616 291.317 50.447 291.337 50.3979C291.387 50.274 291.446 50.1542 291.516 50.0398C291.766 49.5535 292.044 49.0823 292.35 48.6286C293.454 46.9776 294.87 45.5551 296.52 44.4403C298.074 43.4046 299.815 42.6764 301.647 42.2956C303.291 41.9761 304.981 41.9595 306.632 42.2466C308.029 42.4871 309.381 42.9376 310.641 43.5827C312.443 44.4684 313.978 45.8117 315.088 47.4764C315.821 48.6768 315.915 49.4815 315.646 49.6567Z" fill="#A2A2A2"/>
</svg>
