<svg width="2723" height="669" viewBox="0 0 2723 669" fill="none" xmlns="http://www.w3.org/2000/svg">
<path d="M43.4134 604.077C52.0506 616.576 64.7871 625.676 79.4275 629.809C187.47 659.757 364.651 655.542 536.052 632.249C645.206 615.612 827.944 571.467 881.743 552.389C920.203 538.192 952.215 523.107 974.669 507.357C982.99 501.554 990 494.074 995.246 485.401C1000.49 476.727 1003.86 467.052 1005.13 457.001C1005.57 454.561 1005.79 452.342 1006.01 450.568C1010.52 405.719 997.093 360.91 968.658 325.889C940.222 290.867 899.078 268.467 854.177 263.562C854.853 263.663 855.522 263.811 856.178 264.006C852.176 279.312 841.283 293.953 833.947 302.605C833.474 303.135 832.849 303.506 832.157 303.667C831.464 303.828 830.739 303.771 830.081 303.503C829.422 303.235 828.863 302.77 828.481 302.173C828.098 301.575 827.911 300.873 827.944 300.165C829.213 287.691 829.064 275.115 827.5 262.675H827.944C805.046 126.247 693.002 15.7737 548.056 1.57637C481.729 -5.06806 414.995 9.40165 357.411 42.9134C299.828 76.4252 254.349 127.26 227.486 188.138C227.729 187.782 227.951 187.411 228.153 187.029C255.941 195.681 274.615 214.759 285.731 230.065C286.405 230.978 286.839 232.045 286.995 233.169C287.15 234.292 287.021 235.437 286.62 236.498C286.449 236.896 286.224 237.269 285.953 237.607C285.629 238.156 285.17 238.614 284.619 238.938C284.175 239.16 283.952 239.382 283.508 239.604C282.624 240.186 281.596 240.515 280.538 240.554C279.479 240.593 278.43 240.341 277.505 239.826C249.494 227.181 214.37 222.966 214.37 222.966V222.745C159.741 228.046 108.642 252.075 69.7705 290.742C30.8992 329.409 6.65844 380.323 1.17456 434.818C-4.60549 494.491 11.1785 557.27 43.4134 604.077Z" fill="#E24444"/>
<path d="M559.617 369.377C600.227 359.713 641.45 352.82 682.999 348.746C683.443 362.056 684.332 371.151 687.223 377.141C689.017 380.505 692.043 383.048 695.67 384.24C698.338 385.127 702.34 386.236 705.23 386.902C709.009 388.233 714.122 388.233 720.791 387.345C745.245 384.018 740.132 365.606 740.132 346.084C822.831 350.965 833.058 431.047 811.938 473.86C786.817 522.886 717.457 507.579 580.069 555.939C534.718 571.911 500.482 578.566 474.694 578.344C467.74 578.814 460.755 578.14 454.02 576.348C417.339 569.914 401.999 545.956 396.441 518.893C377.1 422.617 461.356 394.222 535.607 374.923C544.277 373.148 553.17 370.708 559.617 369.377Z" fill="#171C22"/>
<path d="M881.076 371.373C885.627 371.527 890.03 373.023 893.728 375.674C897.427 378.324 900.255 382.01 901.854 386.264C903.453 390.518 903.752 395.15 902.714 399.574C901.675 403.998 899.345 408.015 896.018 411.117C892.691 414.22 888.517 416.268 884.024 417.003C879.531 417.739 874.92 417.128 870.774 415.248C866.629 413.368 863.135 410.304 860.735 406.443C858.334 402.582 857.135 398.097 857.289 393.556C857.582 387.497 860.23 381.79 864.672 377.648C869.113 373.506 874.998 371.255 881.076 371.373V371.373ZM887.968 393.778C888.214 394.183 888.366 394.638 888.413 395.109C888.635 395.756 888.635 396.459 888.413 397.106V398.437C888.635 398.88 888.635 399.546 888.857 399.768C889.079 399.99 889.079 400.211 889.302 400.433L889.746 400.877C889.969 401.099 890.191 401.099 890.413 401.321C890.636 401.542 890.858 401.542 891.08 401.764C891.303 401.764 891.525 401.986 891.747 401.986H893.303C893.748 401.986 893.748 401.764 893.97 401.764L895.304 401.099L895.749 400.655C895.971 400.433 895.971 400.211 896.193 399.99C896.416 399.768 896.416 399.546 896.638 399.324C896.638 399.102 896.86 398.88 896.86 398.659C897.12 396.96 897.044 395.227 896.638 393.556C896.44 392.468 896.064 391.418 895.526 390.451C895.012 389.434 894.121 388.656 893.042 388.284C891.963 387.911 890.781 387.972 889.746 388.454C889.234 388.634 888.77 388.927 888.389 389.313C888.008 389.699 887.721 390.167 887.549 390.681C887.377 391.195 887.326 391.741 887.399 392.278C887.471 392.815 887.666 393.328 887.968 393.778V393.778ZM879.076 384.018C879.298 384.239 879.52 384.461 879.742 384.461C879.965 384.461 880.187 384.683 880.409 384.905C880.632 384.905 880.854 385.127 881.299 385.127H883.077C883.299 385.127 883.522 384.905 883.966 384.905C884.411 384.905 884.411 384.683 884.633 384.461C884.856 384.239 885.078 384.239 885.3 384.018C885.522 383.796 885.745 383.574 885.745 383.352C885.967 383.13 885.967 382.908 886.189 382.687C886.189 382.465 886.412 382.243 886.412 381.799V380.912C886.36 379.749 885.886 378.646 885.078 377.806C884.856 377.584 884.633 377.363 884.411 377.363C884.189 377.141 883.966 377.141 883.744 376.919C883.522 376.919 883.299 376.697 882.855 376.697H881.076C880.854 376.697 880.632 376.919 880.187 376.919C879.965 377.141 879.742 377.141 879.52 377.363C879.298 377.584 879.076 377.806 878.853 377.806C878.436 378.21 878.103 378.692 877.874 379.226C877.645 379.759 877.524 380.332 877.519 380.912C877.902 382.009 878.425 383.053 879.076 384.018V384.018Z" fill="#171C22"/>
<path d="M879.742 377.362C879.965 377.141 880.187 377.141 880.632 376.919C880.854 376.919 881.076 376.697 881.521 376.697H883.299C883.522 376.697 883.744 376.919 884.189 376.919C884.411 376.919 884.633 377.141 885.078 377.362C885.3 377.584 885.522 377.584 885.745 377.806C886.162 378.21 886.495 378.692 886.724 379.225C886.953 379.759 887.073 380.332 887.079 380.912V381.799C887.079 382.021 886.856 382.243 886.856 382.687C886.856 382.908 886.634 383.13 886.412 383.574C886.189 383.796 886.189 384.018 885.967 384.239C885.745 384.461 885.522 384.683 885.3 384.683C885.078 384.905 884.856 384.905 884.411 385.127C884.189 385.349 883.966 385.349 883.522 385.349H881.743C881.521 385.349 881.299 385.127 880.854 385.127C880.632 385.127 880.409 384.905 879.965 384.683C879.742 384.461 879.52 384.461 879.298 384.239C878.88 383.836 878.548 383.353 878.319 382.82C878.09 382.287 877.969 381.714 877.964 381.134C878.016 379.971 878.49 378.867 879.298 378.028C879.52 377.806 879.52 377.584 879.742 377.362Z" fill="#ECECEC"/>
<path d="M889.524 388.011C890.033 387.755 890.589 387.604 891.158 387.566C891.727 387.528 892.298 387.605 892.837 387.791C893.375 387.977 893.871 388.269 894.295 388.65C894.719 389.03 895.062 389.492 895.304 390.007C895.772 391.005 896.144 392.045 896.416 393.113C896.822 394.783 896.897 396.516 896.638 398.215C896.464 399.207 895.945 400.107 895.172 400.756C894.4 401.405 893.424 401.762 892.414 401.764H891.747C890.627 401.586 889.624 400.973 888.957 400.058C888.291 399.143 888.015 398.002 888.19 396.884V394.888C888.144 394.416 887.992 393.961 887.745 393.557C887.294 392.578 887.226 391.465 887.555 390.439C887.884 389.412 888.587 388.546 889.524 388.011V388.011Z" fill="#ECECEC"/>
<path d="M294.401 484.287C299.787 484.44 305.007 486.184 309.4 489.298C313.793 492.411 317.162 496.755 319.081 501.779C321 506.803 321.382 512.283 320.181 517.524C318.979 522.766 316.247 527.534 312.329 531.226C308.412 534.917 303.485 537.367 298.173 538.265C292.86 539.163 287.4 538.469 282.482 536.27C277.565 534.071 273.412 530.467 270.547 525.913C267.683 521.359 266.236 516.059 266.39 510.685C266.478 507.112 267.274 503.592 268.732 500.327C270.191 497.063 272.282 494.119 274.886 491.664C277.49 489.21 280.555 487.295 283.904 486.029C287.254 484.762 290.821 484.17 294.401 484.287V484.287ZM302.404 511.35C302.626 511.794 302.626 512.016 302.849 512.459C302.849 512.903 303.071 513.569 302.849 513.79C302.691 514.481 302.684 515.197 302.83 515.89C302.975 516.583 303.269 517.236 303.692 517.805C304.114 518.374 304.655 518.845 305.277 519.186C305.899 519.527 306.587 519.73 307.295 519.78H308.184C309.44 519.733 310.645 519.272 311.61 518.47C312.576 517.667 313.247 516.567 313.52 515.343C313.895 513.504 313.819 511.601 313.297 509.797C313.297 509.576 313.075 509.132 313.075 508.91C312.853 508.466 312.853 508.023 312.63 507.579V507.357L311.963 506.026C311.28 504.823 310.18 503.911 308.87 503.462C307.559 503.012 306.129 503.057 304.85 503.586C303.568 504.365 302.614 505.581 302.165 507.01C301.715 508.438 301.8 509.98 302.404 511.35V511.35ZM291.956 499.815C292.459 500.286 293.054 500.648 293.705 500.877C294.356 501.106 295.047 501.197 295.735 501.146C296.119 501.18 296.505 501.103 296.846 500.924C297.291 500.924 297.513 500.702 297.958 500.702C298.203 500.468 298.513 500.314 298.847 500.259C299.069 500.037 299.514 499.815 299.736 499.593C300.208 499.091 300.571 498.497 300.801 497.847C301.03 497.198 301.122 496.508 301.07 495.822C300.965 494.47 300.505 493.169 299.736 492.051C298.758 491.091 297.44 490.553 296.068 490.553C294.696 490.553 293.379 491.091 292.4 492.051C291.928 492.553 291.566 493.147 291.336 493.796C291.106 494.446 291.015 495.135 291.066 495.822C290.8 496.5 290.742 497.242 290.9 497.954C291.059 498.665 291.426 499.313 291.956 499.815V499.815Z" fill="#171C22"/>
<path d="M299.514 492.494C299.986 492.996 300.349 493.59 300.578 494.24C300.808 494.889 300.9 495.579 300.848 496.265C300.742 497.617 300.282 498.918 299.514 500.036C299.261 500.31 298.96 500.536 298.625 500.702C298.38 500.936 298.07 501.09 297.736 501.146C297.394 501.325 297.008 501.402 296.624 501.367H295.513C294.158 501.262 292.854 500.803 291.733 500.036C291.261 499.534 290.899 498.94 290.669 498.291C290.44 497.641 290.348 496.952 290.4 496.265C290.505 494.913 290.965 493.613 291.733 492.494C292.799 491.53 294.186 490.997 295.624 490.997C297.062 490.997 298.449 491.53 299.514 492.494V492.494Z" fill="#ECECEC"/>
<path d="M304.85 504.252C306.118 503.638 307.578 503.551 308.911 504.008C310.244 504.465 311.341 505.43 311.964 506.692C312.6 507.794 313.051 508.993 313.297 510.241C313.7 512.062 313.775 513.94 313.52 515.787C313.279 517.027 312.617 518.146 311.645 518.955C310.672 519.763 309.45 520.211 308.184 520.224H307.295C306.599 520.144 305.927 519.923 305.321 519.573C304.714 519.223 304.186 518.753 303.769 518.192C303.353 517.63 303.056 516.989 302.897 516.308C302.739 515.628 302.722 514.922 302.849 514.234V512.903C302.761 512.512 302.611 512.138 302.404 511.794C302.062 511.14 301.854 510.424 301.792 509.689C301.73 508.954 301.815 508.214 302.043 507.512C302.271 506.809 302.636 506.16 303.118 505.6C303.6 505.04 304.188 504.582 304.85 504.252Z" fill="#ECECEC"/>
<path d="M720.569 387.123C715.413 388.135 710.096 387.984 705.007 386.68C694.559 383.574 693.225 371.817 692.335 347.637C703.451 346.749 714.789 345.862 726.127 345.64C730.72 345.38 735.327 345.454 739.91 345.862C740.132 365.383 745.245 383.574 720.569 387.123Z" fill="#ECECEC"/>
<path d="M523.602 422.839C514.043 425.944 507.151 426.61 502.261 424.835C493.591 421.729 490.701 410.638 490.034 388.676C505.44 382.606 521.362 377.929 537.608 374.701C538.942 393.778 548.501 415.296 523.602 422.839Z" fill="#ECECEC"/>
<path d="M480.697 392.225L490.034 388.898C490.034 388.898 489.367 423.282 502.261 425.057C498.01 424.222 493.895 422.804 490.034 420.842C484.921 417.736 481.142 411.303 480.697 392.225Z" fill="#171C22"/>
<path d="M1222.46 40.0757L1261.61 43.5005L1246.34 217.994L1207.2 214.569L1213.68 140.542L1147.93 134.79L1141.45 208.818L1102.31 205.393L1117.57 30.899L1156.72 34.3238L1150.88 101.049L1216.63 106.801L1222.46 40.0757Z" fill="#171C22"/>
<path d="M1336.81 199.522C1340.49 199.844 1344.01 200.067 1347.37 200.192C1350.73 200.317 1353.43 200.299 1355.46 200.139L1357.95 171.686C1356.48 171.219 1354.25 170.685 1351.27 170.086C1348.28 169.487 1345.54 169.078 1343.03 168.858C1339.52 168.551 1336.15 168.51 1332.93 168.735C1329.89 168.808 1327.14 169.329 1324.7 170.299C1322.25 171.269 1320.27 172.703 1318.76 174.6C1317.24 176.497 1316.35 178.957 1316.09 181.978C1315.58 187.854 1317.14 192.135 1320.78 194.821C1324.61 197.355 1329.95 198.922 1336.81 199.522ZM1343.4 89.4756C1354.44 90.4416 1363.53 92.5055 1370.67 95.6675C1377.81 98.8294 1383.35 102.951 1387.29 108.031C1391.4 113.127 1394.08 119.112 1395.33 125.988C1396.58 132.863 1396.85 140.414 1396.13 148.639L1389.3 226.695C1383.84 227.402 1376.28 228.094 1366.61 228.77C1356.93 229.615 1345.31 229.444 1331.76 228.258C1323.23 227.512 1315.52 226.076 1308.63 223.951C1301.9 221.84 1296.17 218.886 1291.45 215.09C1286.74 211.126 1283.29 206.257 1281.09 200.483C1278.9 194.709 1278.16 187.794 1278.86 179.736C1279.54 172.015 1281.62 165.6 1285.1 160.492C1288.75 155.398 1293.3 151.483 1298.77 148.748C1304.23 146.012 1310.37 144.265 1317.18 143.508C1324 142.583 1331.01 142.435 1338.21 143.064C1343.06 143.488 1347.3 144.113 1350.94 144.939C1354.76 145.611 1357.81 146.386 1360.09 147.262L1360.4 143.737C1360.96 137.358 1359.48 132.07 1355.97 127.873C1352.46 123.675 1345.94 121.159 1336.4 120.325C1330.05 119.769 1323.73 119.724 1317.45 120.189C1311.19 120.487 1305.72 121.278 1301.06 122.561L1298.94 91.9286C1301.17 91.4474 1303.91 91.0101 1307.14 90.6167C1310.56 90.0701 1314.22 89.7134 1318.11 89.5464C1322.02 89.2116 1326.07 89.0592 1330.29 89.0894C1334.68 88.9664 1339.05 89.0951 1343.4 89.4756Z" fill="#171C22"/>
<path d="M1455.48 236.291C1448.41 218.758 1441.43 198.357 1434.53 175.088C1427.8 151.833 1421.67 126.6 1416.12 99.3902L1455.77 102.859C1456.87 109.552 1458.17 116.854 1459.67 124.766C1461.35 132.525 1463.02 140.452 1464.67 148.546C1466.5 156.487 1468.27 164.254 1469.96 171.844C1471.83 179.45 1473.66 186.377 1475.48 192.625C1478.18 186.772 1481.11 180.262 1484.27 173.096C1487.42 165.929 1490.51 158.588 1493.53 151.071C1496.73 143.401 1499.74 135.884 1502.58 128.52C1505.6 121.004 1508.23 114.045 1510.47 107.645L1549.12 111.026C1538.93 136.86 1528.43 160.636 1517.59 182.354C1506.92 204.087 1496.59 222.973 1486.59 239.013L1455.48 236.291Z" fill="#171C22"/>
<path d="M1553.56 179.158C1554.59 167.407 1557.24 157.322 1561.51 148.9C1565.97 140.325 1571.39 133.356 1577.76 127.993C1584.13 122.63 1591.21 118.768 1599 116.405C1606.96 114.056 1614.95 113.233 1622.98 113.936C1641.72 115.575 1656.02 122.662 1665.88 135.196C1675.75 147.562 1679.71 164.908 1677.76 187.233C1677.57 189.416 1677.27 191.842 1676.87 194.513C1676.48 197.017 1676.12 199.268 1675.77 201.268L1590.96 193.848C1591.12 201.642 1594.18 208.084 1600.14 213.173C1606.1 218.261 1614.43 221.274 1625.14 222.21C1632 222.81 1638.74 222.808 1645.37 222.204C1652.18 221.447 1657.76 220.328 1662.1 218.847L1664.45 249.753C1662.36 250.585 1659.59 251.358 1656.16 252.072C1652.72 252.787 1648.89 253.297 1644.65 253.602C1640.56 254.09 1636.15 254.381 1631.42 254.475C1626.69 254.569 1621.99 254.411 1617.3 254.001C1605.43 252.962 1595.21 250.292 1586.65 245.991C1578.26 241.705 1571.4 236.284 1566.07 229.729C1560.93 223.02 1557.3 215.345 1555.19 206.703C1553.25 198.076 1552.71 188.894 1553.56 179.158ZM1642.64 172.489C1642.75 169.285 1642.44 166.129 1641.7 163.019C1641.13 159.925 1639.94 157.114 1638.14 154.589C1636.5 152.078 1634.25 149.935 1631.37 148.161C1628.66 146.401 1625.12 145.331 1620.78 144.951C1616.59 144.585 1612.93 145.025 1609.79 146.273C1606.66 147.352 1603.99 148.979 1601.77 151.154C1599.56 153.328 1597.73 155.959 1596.28 159.046C1595.01 161.979 1593.99 165.019 1593.21 168.165L1642.64 172.489Z" fill="#171C22"/>
<path d="M1813.68 241.242C1817.36 241.564 1820.88 241.788 1824.24 241.913C1827.6 242.038 1830.3 242.02 1832.33 241.86L1834.82 213.407C1833.35 212.94 1831.12 212.406 1828.14 211.807C1825.16 211.208 1822.41 210.799 1819.9 210.579C1816.39 210.272 1813.02 210.231 1809.8 210.456C1806.76 210.529 1804.01 211.05 1801.57 212.02C1799.12 212.99 1797.14 214.424 1795.63 216.321C1794.12 218.218 1793.23 220.678 1792.96 223.699C1792.45 229.574 1794.01 233.855 1797.65 236.542C1801.48 239.076 1806.82 240.642 1813.68 241.242ZM1820.27 131.196C1831.31 132.162 1840.4 134.226 1847.54 137.388C1854.68 140.55 1860.22 144.671 1864.16 149.752C1868.27 154.848 1870.95 160.833 1872.2 167.708C1873.45 174.584 1873.72 182.134 1873 190.36L1866.17 268.416C1860.71 269.123 1853.15 269.814 1843.48 270.491C1833.8 271.335 1822.19 271.165 1808.63 269.979C1800.1 269.233 1792.39 267.797 1785.5 265.671C1778.77 263.561 1773.04 260.607 1768.32 256.811C1763.61 252.846 1760.16 247.978 1757.97 242.204C1755.77 236.43 1755.03 229.515 1755.73 221.457C1756.41 213.735 1758.49 207.321 1761.97 202.212C1765.62 197.119 1770.18 193.204 1775.64 190.469C1781.11 187.733 1787.24 185.986 1794.05 185.229C1800.87 184.303 1807.88 184.155 1815.08 184.785C1819.93 185.209 1824.17 185.834 1827.81 186.66C1831.63 187.332 1834.68 188.107 1836.96 188.983L1837.27 185.458C1837.83 179.079 1836.35 173.791 1832.84 169.593C1829.33 165.396 1822.81 162.88 1813.27 162.046C1806.92 161.49 1800.6 161.444 1794.32 161.91C1788.06 162.208 1782.59 162.998 1777.93 164.282L1775.81 133.649C1778.04 133.168 1780.78 132.731 1784.01 132.338C1787.43 131.791 1791.09 131.434 1794.98 131.267C1798.89 130.932 1802.94 130.78 1807.16 130.81C1811.55 130.687 1815.92 130.816 1820.27 131.196Z" fill="#171C22"/>
<path d="M1910.84 147.239C1917.36 145.949 1925.7 144.987 1935.87 144.355C1946.06 143.554 1956.67 143.637 1967.71 144.603C1978.92 145.584 1988.07 147.907 1995.17 151.572C2002.44 155.084 2008.02 159.717 2011.9 165.469C2015.78 171.221 2018.32 177.871 2019.51 185.418C2020.71 192.965 2020.91 201.27 2020.11 210.335L2013.57 285.118L1976.18 281.847L1982.33 211.596C1983.39 199.51 1982.55 190.81 1979.81 185.496C1977.07 180.182 1971.35 177.144 1962.65 176.383C1959.98 176.149 1957.12 176.068 1954.08 176.141C1951.05 176.045 1948.35 176.063 1945.98 176.193L1937.04 278.422L1899.65 275.151L1910.84 147.239Z" fill="#171C22"/>
<path d="M2125.47 119.079L2164.62 122.503L2149.35 296.997L2110.21 293.572L2125.47 119.079Z" fill="#171C22"/>
<path d="M2224.84 235.858C2223.83 247.441 2225.61 256.984 2230.18 264.488C2234.75 271.992 2242.13 276.19 2252.34 277.083C2255.68 277.376 2258.79 277.563 2261.65 277.644C2264.52 277.557 2266.89 277.426 2268.76 277.251L2274.73 209.015C2272.52 207.299 2269.53 205.769 2265.78 204.425C2262.18 203.096 2258.46 202.263 2254.62 201.927C2236.88 200.375 2226.96 211.686 2224.84 235.858ZM2303.9 306.205C2300.47 306.92 2296.53 307.59 2292.09 308.217C2287.67 308.676 2283 309.029 2278.09 309.276C2273.35 309.537 2268.46 309.616 2263.41 309.513C2258.51 309.592 2253.81 309.434 2249.29 309.039C2238.42 308.088 2228.85 305.644 2220.6 301.708C2212.35 297.772 2205.55 292.611 2200.21 286.223C2194.88 279.668 2191 272.055 2188.55 263.383C2186.29 254.559 2185.62 244.859 2186.55 234.284C2187.49 223.54 2189.67 214.005 2193.1 205.679C2196.54 197.184 2201.03 190.135 2206.58 184.531C2212.13 178.927 2218.64 174.844 2226.11 172.284C2233.75 169.739 2242.25 168.876 2251.62 169.696C2256.81 170.149 2261.36 171.055 2265.29 172.414C2269.38 173.787 2273.44 175.58 2277.46 177.792L2282.7 117.865L2320.62 115.093L2303.9 306.205Z" fill="#171C22"/>
<path d="M2337.97 247.785C2339 236.035 2341.65 225.949 2345.93 217.527C2350.38 208.952 2355.8 201.983 2362.17 196.62C2368.54 191.258 2375.62 187.395 2383.41 185.032C2391.37 182.683 2399.36 181.86 2407.39 182.563C2426.13 184.202 2440.43 191.289 2450.29 203.823C2460.16 216.189 2464.12 233.535 2462.17 255.86C2461.98 258.043 2461.68 260.469 2461.28 263.141C2460.89 265.644 2460.53 267.895 2460.19 269.895L2375.37 262.475C2375.53 270.27 2378.59 276.711 2384.55 281.8C2390.51 286.888 2398.85 289.901 2409.55 290.837C2416.41 291.438 2423.15 291.435 2429.78 290.831C2436.59 290.074 2442.17 288.955 2446.51 287.474L2448.86 318.38C2446.77 319.212 2444 319.985 2440.57 320.699C2437.14 321.414 2433.3 321.924 2429.06 322.229C2424.97 322.717 2420.56 323.008 2415.83 323.102C2411.1 323.196 2406.4 323.038 2401.71 322.628C2389.84 321.589 2379.62 318.919 2371.06 314.618C2362.67 310.332 2355.81 304.911 2350.49 298.356C2345.34 291.647 2341.71 283.972 2339.6 275.33C2337.66 266.703 2337.12 257.521 2337.97 247.785ZM2427.05 241.116C2427.16 237.912 2426.85 234.756 2426.11 231.646C2425.54 228.552 2424.35 225.741 2422.55 223.216C2420.91 220.705 2418.66 218.562 2415.78 216.788C2413.07 215.028 2409.54 213.958 2405.19 213.578C2401 213.212 2397.34 213.652 2394.2 214.9C2391.07 215.979 2388.4 217.606 2386.18 219.781C2383.97 221.955 2382.14 224.586 2380.69 227.673C2379.42 230.607 2378.4 233.646 2377.62 236.792L2427.05 241.116Z" fill="#171C22"/>
<path d="M2537.81 304.595C2541.49 304.917 2545.01 305.141 2548.37 305.266C2551.73 305.391 2554.43 305.373 2556.46 305.213L2558.95 276.76C2557.48 276.293 2555.25 275.759 2552.27 275.16C2549.28 274.561 2546.54 274.152 2544.03 273.932C2540.52 273.625 2537.15 273.584 2533.93 273.809C2530.88 273.882 2528.14 274.403 2525.7 275.373C2523.25 276.343 2521.27 277.777 2519.76 279.674C2518.24 281.571 2517.35 284.031 2517.09 287.052C2516.58 292.927 2518.14 297.208 2521.78 299.895C2525.61 302.429 2530.95 303.995 2537.81 304.595ZM2544.4 194.549C2555.44 195.515 2564.53 197.579 2571.67 200.741C2578.81 203.903 2584.35 208.024 2588.29 213.105C2592.4 218.201 2595.07 224.186 2596.33 231.061C2597.58 237.937 2597.85 245.487 2597.13 253.713L2590.3 331.769C2584.84 332.476 2577.28 333.167 2567.61 333.844C2557.93 334.688 2546.31 334.518 2532.76 333.332C2524.23 332.586 2516.52 331.15 2509.62 329.024C2502.9 326.914 2497.17 323.96 2492.45 320.164C2487.74 316.199 2484.29 311.331 2482.09 305.557C2479.9 299.783 2479.16 292.868 2479.86 284.81C2480.54 277.088 2482.62 270.674 2486.1 265.565C2489.75 260.472 2494.3 256.557 2499.77 253.822C2505.23 251.086 2511.37 249.339 2518.18 248.582C2525 247.656 2532.01 247.508 2539.21 248.138C2544.06 248.562 2548.3 249.187 2551.94 250.013C2555.75 250.685 2558.81 251.46 2561.09 252.336L2561.4 248.811C2561.96 242.432 2560.48 237.144 2556.97 232.946C2553.46 228.749 2546.94 226.233 2537.4 225.399C2531.04 224.843 2524.73 224.797 2518.45 225.263C2512.19 225.561 2506.72 226.351 2502.06 227.635L2499.94 197.002C2502.17 196.521 2504.9 196.084 2508.14 195.691C2511.56 195.144 2515.22 194.787 2519.11 194.62C2523.01 194.285 2527.07 194.133 2531.28 194.163C2535.68 194.04 2540.05 194.169 2544.4 194.549Z" fill="#171C22"/>
<path d="M2661.14 194.106C2655.12 193.58 2649.36 193.837 2643.88 194.88C2638.39 195.922 2632.24 197.837 2625.42 200.623L2617.37 171.248C2624.26 167.622 2632.24 165.106 2641.29 163.7C2650.37 162.125 2659.17 161.711 2667.7 162.458C2678.41 163.394 2687.06 165.59 2693.67 169.043C2700.45 172.512 2705.65 176.604 2709.29 181.32C2712.92 186.035 2715.26 191.061 2716.31 196.396C2717.53 201.746 2717.93 206.772 2717.52 211.472C2717.11 216.172 2715.98 220.471 2714.12 224.368C2712.44 228.111 2710.37 231.567 2707.9 234.734C2705.43 237.901 2702.64 240.871 2699.54 243.643C2696.43 246.416 2693.42 249.028 2690.51 251.48C2688.32 253.319 2686.04 255.318 2683.66 257.478C2681.29 259.47 2679.08 261.644 2677.02 264.001C2675.13 266.373 2673.47 268.934 2672.05 271.685C2670.64 274.269 2669.82 276.987 2669.57 279.841C2669.51 280.512 2669.42 281.519 2669.3 282.862C2669.19 284.205 2669.17 285.388 2669.25 286.409L2636.12 283.511C2635.93 281.804 2635.84 279.935 2635.85 277.906C2636.04 275.724 2636.21 273.877 2636.34 272.367C2636.75 267.666 2637.7 263.521 2639.2 259.931C2640.71 256.172 2642.52 252.779 2644.64 249.75C2646.94 246.569 2649.47 243.661 2652.23 241.027C2654.99 238.393 2657.82 235.85 2660.73 233.398C2664.92 229.874 2668.76 226.404 2672.27 222.989C2675.78 219.407 2677.75 215.181 2678.18 210.313C2678.53 206.284 2677.24 202.704 2674.31 199.572C2671.55 196.455 2667.16 194.633 2661.14 194.106ZM2673.39 322.801C2672.75 330.187 2669.82 335.682 2664.62 339.286C2659.58 342.905 2654.05 344.451 2648.03 343.924C2642.01 343.397 2636.75 340.907 2632.25 336.454C2627.92 332.016 2626.07 326.103 2626.72 318.718C2627.37 311.332 2630.21 305.829 2635.24 302.21C2640.45 298.606 2646.06 297.067 2652.08 297.594C2658.11 298.121 2663.28 300.604 2667.61 305.042C2672.11 309.495 2674.04 315.415 2673.39 322.801Z" fill="#171C22"/>
<path d="M1079.45 333.365L2436.26 652.277C2461.49 657.686 2487.85 653.065 2509.69 639.407C2531.52 625.748 2547.08 604.142 2553.03 579.227C2558.98 554.312 2554.85 528.076 2541.51 506.152C2528.18 484.229 2506.71 468.368 2481.71 461.974C2477.93 461.111 2474.09 460.477 2470.23 460.076L1085.19 301.569C1083.05 301.304 1080.88 301.464 1078.81 302.039C1076.73 302.613 1074.79 303.591 1073.1 304.916C1071.41 306.24 1070 307.885 1068.95 309.755C1067.91 311.624 1067.25 313.681 1067.01 315.806C1066.87 319.677 1068.01 323.487 1070.26 326.656C1072.51 329.825 1075.73 332.181 1079.45 333.365V333.365Z" fill="#222831"/>
<path d="M2030.56 338.587C2004.72 333.841 1978.41 330.519 1952.58 327.671C1939.66 326.248 1926.74 325.299 1913.34 323.875L1874.11 320.553C1847.8 318.655 1821.49 317.231 1795.17 316.282C1768.86 315.333 1742.55 314.858 1716.23 315.807C1714.8 315.926 1713.46 316.579 1712.48 317.634C1711.5 318.689 1710.97 320.07 1710.97 321.502C1710.95 322.811 1711.44 324.078 1712.33 325.047C1713.21 326.016 1714.44 326.614 1715.76 326.722C1741.59 331.468 1767.9 335.265 1793.74 338.112C1819.57 341.434 1846.37 343.807 1872.2 345.705L1911.43 348.553C1924.35 349.027 1937.27 349.976 1950.66 350.451C1976.97 351.4 2003.29 352.349 2029.6 351.4C2031.37 351.364 2033.05 350.652 2034.3 349.414C2035.55 348.176 2036.26 346.507 2036.3 344.756C2036.35 343.973 2036.24 343.188 2035.97 342.448C2035.71 341.708 2035.3 341.03 2034.76 340.453C2034.22 339.876 2033.57 339.414 2032.85 339.093C2032.13 338.772 2031.35 338.6 2030.56 338.587V338.587Z" fill="#222831"/>
<path d="M1604.76 310.112C1595.13 306.794 1585.19 304.41 1575.1 302.993C1565.05 301.569 1555.48 300.146 1545.44 299.671C1535.39 299.197 1525.34 298.722 1515.29 299.197C1505.02 299.599 1494.79 300.709 1484.68 302.519C1483.92 302.617 1483.2 302.877 1482.56 303.28C1481.92 303.683 1481.38 304.219 1480.97 304.851C1480.56 305.484 1480.3 306.197 1480.19 306.941C1480.09 307.686 1480.15 308.444 1480.37 309.163C1480.92 310.946 1482.11 312.466 1483.72 313.434C1493.39 316.842 1503.31 319.538 1513.38 321.501C1533.07 325.376 1553.12 327.127 1573.18 326.722C1583.46 326.716 1593.71 325.762 1603.8 323.874C1605.64 323.38 1607.23 322.242 1608.29 320.671C1609.34 319.1 1609.79 317.204 1609.54 315.332C1609.24 314.138 1608.65 313.037 1607.81 312.126C1606.98 311.215 1605.93 310.523 1604.76 310.112V310.112Z" fill="#222831"/>
<path d="M2224.8 654.652C2189.87 642.788 2154.95 631.872 2120.02 621.432C2102.8 616.211 2084.62 611.466 2066.92 606.245L2013.81 592.008C1978.41 582.991 1943.01 573.975 1907.12 565.432C1871.24 557.365 1835.84 549.297 1799.48 542.653C1798.75 542.539 1798.01 542.574 1797.3 542.754C1796.59 542.934 1795.92 543.255 1795.34 543.699C1794.76 544.144 1794.27 544.701 1793.92 545.337C1793.56 545.972 1793.34 546.674 1793.26 547.399C1793.05 548.649 1793.27 549.933 1793.87 551.049C1794.48 552.165 1795.44 553.051 1796.61 553.568C1831.53 565.907 1865.98 576.822 1901.38 587.263C1936.79 597.703 1971.71 607.669 2007.12 617.635L2060.7 631.398C2078.4 635.669 2096.1 640.415 2114.28 644.686C2150.16 653.228 2185.57 661.296 2221.93 667.94C2222.82 668.065 2223.73 667.998 2224.59 667.746C2225.45 667.493 2226.25 667.06 2226.93 666.475C2227.61 665.891 2228.16 665.168 2228.53 664.357C2228.91 663.545 2229.1 662.663 2229.1 661.77C2229.09 660.311 2228.69 658.881 2227.93 657.63C2227.17 656.378 2226.09 655.35 2224.8 654.652V654.652Z" fill="#222831"/>
<path d="M2286.99 545.974C2277.77 541.977 2268.15 538.955 2258.29 536.957C2248.72 534.584 2238.67 533.16 2229.1 531.736C2219.06 530.313 2209.49 529.838 2199.44 529.364C2189.21 528.901 2178.96 529.378 2168.82 530.787C2168.06 530.885 2167.32 531.139 2166.66 531.533C2165.99 531.926 2165.42 532.451 2164.97 533.075C2164.52 533.698 2164.21 534.407 2164.05 535.157C2163.89 535.906 2163.88 536.681 2164.04 537.431C2164.15 538.378 2164.53 539.275 2165.12 540.027C2165.71 540.78 2166.49 541.359 2167.39 541.702C2176.75 545.592 2186.33 548.92 2196.09 551.668C2205.66 554.041 2215.71 555.94 2225.28 557.838C2234.85 559.262 2244.89 560.211 2254.94 561.16C2264.99 561.792 2275.09 561.475 2285.08 560.211C2286.96 559.914 2288.66 558.911 2289.81 557.409C2290.97 555.908 2291.5 554.022 2291.3 552.143V552.143C2290.69 549.624 2289.16 547.422 2286.99 545.974V545.974Z" fill="#ECECEC"/>
<path d="M2167.87 477.16C2144.9 471.465 2121.94 466.719 2098.97 462.923C2087.49 460.55 2076.01 459.126 2064.05 457.228L2029.12 452.482C2006.16 449.635 1982.72 446.787 1959.75 444.889C1936.79 442.991 1912.87 441.092 1889.42 441.092C1887.98 441.087 1886.59 441.622 1885.52 442.589C1884.46 443.557 1883.8 444.886 1883.68 446.313V446.313C1883.63 447.554 1884.04 448.771 1884.84 449.732C1885.63 450.694 1886.75 451.334 1887.99 451.533C1910.95 457.702 1933.92 462.448 1956.88 466.719C1979.84 470.99 2002.81 474.787 2026.25 478.109L2061.18 482.855C2072.66 484.278 2084.14 485.702 2096.1 486.651C2119.46 489.27 2142.93 490.696 2166.43 490.922C2167.32 490.944 2168.2 490.787 2169.02 490.46C2169.84 490.134 2170.59 489.645 2171.21 489.024C2171.84 488.403 2172.33 487.662 2172.66 486.846C2172.99 486.03 2173.15 485.157 2173.13 484.278C2173.24 482.667 2172.77 481.07 2171.8 479.768C2170.84 478.466 2169.45 477.543 2167.87 477.16V477.16Z" fill="#ECECEC"/>
</svg>
