<svg width="200" height="252" viewBox="0 0 200 252" fill="none" xmlns="http://www.w3.org/2000/svg">
<path d="M66.4236 207.403C66.4236 197.791 64.5765 122.834 64.7818 111.663C43.2708 125.193 22.8629 139.612 14.0764 144.431C14.0764 144.431 15.2437 191.258 18.7583 239.708C31.1749 232.002 51.121 219.181 66.4236 207.403Z" fill="#354A4C"/>
<path d="M162.473 144.869C164.179 111.83 163.332 62.8127 162.473 46.9375C143.514 58.3671 114.256 79.5126 89.3584 95.1946C88.5888 130.527 88.9864 177.663 89.7176 198.074C102.776 190.497 140.577 165.203 162.473 144.869Z" fill="#354A4C"/>
<path d="M66.0388 183.462L65.5514 159.533L65.1409 135.604C65.0127 127.628 64.8331 119.639 64.8716 111.663C64.8728 111.558 64.7946 111.469 64.692 111.456C64.5804 111.433 64.4726 111.505 64.4495 111.616C64.4495 111.619 64.4483 111.621 64.4483 111.624C64.1404 113.634 63.9095 115.631 63.6786 117.629C63.4478 119.626 63.2425 121.636 63.0629 123.633C62.7038 127.628 62.3061 131.635 62.0624 135.63L61.2543 147.627L60.6771 159.61C60.4719 163.605 60.2923 167.6 60.1769 171.594C60.0614 175.589 59.9203 179.583 59.8305 183.565C59.7407 187.547 59.6381 191.554 59.5868 195.536L59.4585 203.461C56.4314 205.445 53.4555 207.507 50.4796 209.62C46.6315 212.352 42.8732 215.251 39.179 218.279L36.4211 220.586L33.7146 222.97L31.0594 225.431C30.1744 226.255 29.3278 227.144 28.494 228.008C27.6603 228.871 26.7495 229.709 25.9286 230.585L23.3632 233.33C21.6726 235.232 20.0833 237.224 18.6044 239.296V239.373C18.5595 239.439 18.5595 239.526 18.6044 239.592C18.6839 239.667 18.807 239.667 18.8866 239.592C27.0279 234.515 35.091 229.309 43.0784 223.975C51.044 218.614 58.9198 213.125 66.5519 207.288C66.4236 199.427 66.1927 191.451 66.0388 183.462Z" fill="#171C22"/>
<path d="M89.5123 197.636C95.1177 192.392 100.826 187.508 106.483 182.495C109.356 180.073 112.203 177.629 115.025 175.163C117.899 172.741 120.733 170.318 123.607 167.935L140.705 153.619C146.362 148.877 151.967 144.096 157.303 139.238L154.866 144.483L156.149 120.257C156.547 112.139 157.047 104.021 157.547 95.8904C158.047 87.7596 158.753 79.6029 159.433 71.4076C160.112 63.2122 160.972 55.0942 161.998 46.9247C161.998 46.8113 162.09 46.7185 162.203 46.7185C162.316 46.7185 162.408 46.8113 162.408 46.9247C162.832 55.0813 163.024 63.2509 163.178 71.4076C163.332 79.5642 163.409 87.7467 163.422 95.8904C163.422 112.23 163.255 128.569 162.447 144.856C156.931 150.011 151.134 154.778 145.246 159.443C139.358 164.107 133.317 168.618 127.288 173.024C121.259 177.431 115.013 181.722 108.766 185.91C102.519 190.098 96.2209 194.209 89.7304 197.997C89.638 198.064 89.5085 198.045 89.4418 197.952C89.3751 197.859 89.3943 197.729 89.4867 197.662L89.5123 197.636Z" fill="#171C22"/>
<path d="M79.3277 98.1326C80.4308 108.699 81.0593 119.265 81.6493 129.819C82.2394 140.372 82.5857 150.938 82.8551 161.505C83.1245 172.071 83.3169 182.624 83.2656 193.178C83.2142 203.731 82.9834 214.285 82.5088 224.877C82.5075 225.404 82.0816 225.829 81.5583 225.829C81.0952 225.828 80.7001 225.491 80.6232 225.031C80.0716 222.454 79.5585 219.787 79.1352 217.158C78.712 214.529 78.3271 211.875 78.0449 209.246C77.3908 203.963 76.9162 198.68 76.5057 193.384C75.7489 182.805 75.3769 172.225 75.223 161.633C75.0691 151.041 75.1075 140.475 75.3641 129.883C75.6206 119.291 76.0696 108.712 77.006 98.1326C77.0662 97.4818 77.6409 97.0038 78.2887 97.063C78.8454 97.1223 79.2815 97.572 79.3277 98.1326Z" fill="#171C22"/>
<path d="M33.9327 182.598C33.6903 182.602 33.4491 182.555 33.2272 182.457C32.2447 182.07 31.7598 180.956 32.1446 179.969C32.1459 179.965 32.1472 179.961 32.1497 179.957L40.141 159.855C40.4129 159.17 41.0504 158.699 41.7829 158.644C42.5204 158.594 43.2208 158.969 43.5915 159.61L49.7356 170.383C50.2205 171.332 49.8459 172.497 48.8993 172.984C48.0155 173.439 46.9342 173.144 46.4006 172.303L42.2318 164.984L35.7157 181.387C35.4232 182.118 34.7177 182.597 33.9327 182.598Z" fill="#ECECEC"/>
<path d="M53.2631 185.807C53.2631 181.271 53.2631 172.251 53.3657 166.337C53.4042 165.54 52.7936 164.864 52.0009 164.824C51.7033 164.81 51.4096 164.887 51.1594 165.048C41.7187 170.976 33.5864 176.014 29.2508 178.462C28.7865 178.721 28.5056 179.217 28.5197 179.751C28.5197 184.763 28.6608 194.363 28.8532 200.484C28.884 201.288 29.5574 201.914 30.3565 201.883C30.6054 201.874 30.8465 201.799 31.0594 201.669C37.2036 197.804 45.7849 192.185 52.6987 186.941C53.0527 186.672 53.2618 186.253 53.2631 185.807Z" fill="#171C22"/>
<path d="M34.4201 192.675C34.4201 189.08 34.3047 185.343 34.279 182.276C37.7808 180.228 42.5653 177.277 47.5422 174.171C47.5422 177.586 47.5422 181.014 47.5422 183.642C43.3349 186.722 38.6659 189.892 34.4201 192.675Z" fill="#E24444"/>
<path d="M37.7295 251.756C35.6041 251.73 33.9019 249.979 33.9276 247.844C33.943 246.531 34.6215 245.316 35.7285 244.618C41.5981 240.994 47.26 237.041 52.6859 232.776C54.4278 231.553 56.8264 231.98 58.0437 233.73C59.1161 235.273 58.9288 237.367 57.5986 238.69C51.8957 243.21 45.9286 247.384 39.7305 251.189C39.1277 251.559 38.4363 251.755 37.7295 251.756Z" fill="#171C22"/>
<path d="M124.017 112.294C123.713 111.802 123.472 111.273 123.299 110.722C123.138 110.254 123.031 109.771 122.978 109.279C122.879 108.415 122.945 107.54 123.171 106.702C123.377 105.855 123.823 105.086 124.453 104.485C125.324 103.684 126.406 103.152 127.57 102.952C128.236 102.802 128.929 103.047 129.353 103.583C130.138 104.474 130.647 105.575 130.815 106.753C130.919 107.613 130.777 108.485 130.405 109.266C130.052 110.062 129.552 110.784 128.93 111.392C128.589 111.748 128.205 112.058 127.788 112.32C127.305 112.641 126.784 112.901 126.236 113.093C125.401 113.392 124.472 113.057 124.017 112.294Z" fill="#ECECEC"/>
<path d="M107.137 160.177C107.333 156.774 107.823 153.394 108.599 150.075C109.331 146.81 110.231 143.583 111.293 140.411C112.312 137.225 113.564 134.12 115.038 131.12C116.526 128.008 118.416 125.105 120.656 122.487C121.037 122.065 121.686 122.036 122.106 122.418C122.303 122.599 122.423 122.85 122.439 123.118C122.539 126.586 122.191 130.051 121.4 133.427C120.665 136.689 119.692 139.894 118.489 143.014C117.327 146.151 116.004 149.227 114.525 152.227C113.068 155.299 111.352 158.238 109.394 161.015C108.976 161.529 108.239 161.641 107.688 161.273C107.332 161.024 107.125 160.613 107.137 160.177Z" fill="#ECECEC"/>
<path d="M133.599 134.122C133.477 131.655 133.645 129.181 134.099 126.752C134.511 124.403 135.089 122.086 135.831 119.819C136.532 117.549 137.46 115.356 138.601 113.273C139.8 111.053 141.376 109.06 143.258 107.384C143.704 106.989 144.384 107.031 144.779 107.479C144.785 107.485 144.792 107.493 144.797 107.5C144.924 107.646 145.009 107.825 145.041 108.016C145.472 110.502 145.472 113.043 145.041 115.528C144.63 117.875 143.976 120.172 143.091 122.383C142.244 124.6 141.241 126.753 140.089 128.826C138.917 130.999 137.497 133.027 135.857 134.87C135.381 135.375 134.592 135.408 134.074 134.947C133.822 134.738 133.654 134.446 133.599 134.122Z" fill="#ECECEC"/>
<path d="M19.6947 82.9661H19.7716L20.4643 82.5409C20.4643 82.5409 52.8141 107.346 63.5504 118.002C64.4457 118.884 65.2025 119.895 65.7951 121.005C78.6222 127.886 92.0008 117.01 82.0983 107.165L80.7515 105.877C67.437 94.821 40.5386 72.0132 39.0635 70.7633L19.6947 82.9661Z" fill="#E24444"/>
<path d="M38.9866 70.7504L39.0635 70.8148C40.5386 72.1034 67.437 94.8725 80.7515 105.928L80.8412 106.006C94.5405 117.397 111.626 105.361 100.736 94.589C100.261 94.1122 99.7355 93.6097 99.1839 93.0814C85.3948 81.6002 59.5098 59.7718 58.2143 58.6765L38.9866 70.7504Z" fill="#9E2F2F"/>
<path d="M77.1086 46.8344L77.9167 46.3319L77.8269 46.2546L58.1502 58.612H58.2143C59.497 59.7073 85.3948 81.5357 99.1839 93.0169L100.646 94.2281C113.909 105.245 130.277 94.357 121.529 83.9196C120.631 83.3668 119.774 82.7521 118.963 82.0769C105.302 70.7503 77.1086 46.8344 77.1086 46.8344Z" fill="#E24444"/>
<path d="M96.2722 34.9409L96.8751 34.5543L96.7853 34.477L77.968 46.3319L77.1599 46.8344C77.1599 46.8344 105.302 70.7503 119.015 82.0898C119.825 82.765 120.682 83.3797 121.58 83.9324C134.702 91.986 149.068 80.7883 138.922 70.6859L138.82 70.6086C125.12 59.2692 96.2722 34.9409 96.2722 34.9409Z" fill="#9E2F2F"/>
<path d="M115.513 22.8541L96.8751 34.5543L96.2722 34.9409C96.2722 34.9409 125.12 59.2692 138.768 70.6086L138.871 70.6859C150.826 80.492 166.629 71.1756 163.242 61.4855C161.03 60.675 158.976 59.4792 157.175 57.9548C144.117 47.0922 117.732 24.7354 115.513 22.8541Z" fill="#E24444"/>
<path d="M134.215 10.8446L115.346 22.7124L115.513 22.8541C117.732 24.7354 144.117 47.0922 157.188 57.9548C158.989 59.4792 161.042 60.675 163.255 61.4855C174.799 65.7249 185.613 56.4214 177.942 47.4658C177.506 47.1566 177.083 46.8216 176.659 46.4736C163.281 35.3661 135.356 11.811 134.215 10.8446Z" fill="#9E2F2F"/>
<path d="M196.554 35.057C188.114 26.6683 166.475 8.78296 157.662 1.55407C155.381 -0.315654 152.167 -0.516671 149.671 1.05152L134.163 10.7931C135.305 11.7596 163.229 35.276 176.608 46.4222C177.031 46.7701 177.455 47.1051 177.891 47.4144C191.398 57.1173 207.072 45.5073 196.554 35.057Z" fill="#E24444"/>
<path d="M20.4643 82.6053L19.7716 83.0305L6.35452 91.4707C3.08362 93.7514 1.31349 95.04 0.633654 99.0346C0.533603 99.2859 0.472033 99.5513 0.454075 99.8206C0.0179553 107.165 -0.533608 120.348 1.09543 121.095C21.6187 130.476 51.9419 134.612 51.9419 134.612C61.2928 136.107 69.733 128.62 65.7951 121.082C65.2025 119.973 64.4457 118.961 63.5504 118.08C52.8141 107.41 20.4643 82.6053 20.4643 82.6053Z" fill="#9E2F2F"/>
<path d="M6.6752 98.8026C9.71778 100.429 12.6526 102.25 15.4617 104.253C18.2709 106.212 20.9774 108.287 23.6197 110.451C26.2762 112.602 28.8198 114.89 31.239 117.307C33.7108 119.751 35.9401 122.431 37.8963 125.309C38.1195 125.655 38.0194 126.118 37.6744 126.342C37.4691 126.475 37.2113 126.498 36.9855 126.404C33.8365 124.976 30.8298 123.251 28.0066 121.25C25.218 119.278 22.5333 117.162 19.964 114.91C17.3986 112.668 14.8332 110.348 12.4602 107.913C10.009 105.483 7.71291 102.9 5.5849 100.181C5.27192 99.7948 5.32964 99.2266 5.71445 98.9122C5.72215 98.9057 5.73113 98.8993 5.73882 98.8928C6.00819 98.6854 6.3712 98.6493 6.6752 98.8026Z" fill="#171C22"/>
<path d="M101.942 238.033C101.819 237.191 101.431 236.411 100.839 235.804C100.417 235.532 99.8753 235.532 99.4533 235.804C100.518 236.23 101.399 237.019 101.942 238.033Z" fill="#171C22"/>
</svg>
