<svg width="315" height="350" viewBox="0 0 315 350" fill="none" xmlns="http://www.w3.org/2000/svg">
<path d="M284.753 183.659C290.109 182.847 294.722 182.282 299.265 181.429C307.003 179.873 309.605 181.222 311.987 188.808C312.842 191.43 313.418 194.135 313.708 196.877C316.613 227.415 312.414 256.755 297.944 284.127C295.052 289.634 291.059 294.55 287.411 299.603C283.459 305.11 279.301 310.356 275.143 315.67C274.119 317.088 272.856 318.318 271.412 319.305C263.151 324.427 255.206 330.513 246.312 334.203C222.237 344.172 196.502 349.525 170.448 349.981C152.054 350.339 134.857 345.548 118.128 338.553C117.48 338.184 116.803 337.866 116.104 337.603C101.455 334.189 91.3213 324.331 81.9037 313.55C78.4891 309.64 75.6391 305.289 72.4448 300.98C66.7309 302.907 60.9482 305.11 55.0003 306.762C48.658 308.513 41.932 308.282 35.7245 306.101C24.6685 302.343 18.7756 294.453 18.0459 282.613C17.9082 280.368 17.9082 278.11 17.9082 275.866C18.1285 261.12 27.6838 251.413 42.6913 250.808C45.445 250.697 48.0885 250.808 51.3103 250.808C45.266 230.265 46.5052 209.943 46.6841 189.855C47.0559 148.302 64.0736 114.129 94.7496 86.2752C107.554 74.6134 123.195 70.0836 139.745 67.7292C149.149 66.3524 158.621 65.6227 168.039 64.411C186.186 62.0842 203.988 63.3233 221.212 69.7532C226.138 71.5629 230.837 73.9377 235.215 76.8301C252.134 88.1756 265.81 103.73 274.895 121.963C283.156 138.402 285.277 156.246 284.767 174.476C284.698 177.147 284.753 179.831 284.753 183.659ZM300.546 191.782C296.704 192.195 293.51 192.609 290.288 192.856C286.568 193.278 282.824 193.452 279.081 193.38C273.945 193.09 271.426 190.282 271.192 185.201C271.203 183.456 271.318 181.714 271.536 179.983C272.913 162.497 270.765 145.163 262.793 129.783C250.401 106.019 232.902 87.1013 204.966 81.4976C195.465 79.4642 185.768 78.4898 176.052 78.5925C163.66 78.9229 151.159 80.9193 138.753 82.4201C124.365 84.1687 110.721 88.3543 99.7475 98.2124C73.1745 122.128 58.1532 151.992 58.3873 187.941C58.5112 208.098 61.6642 228.255 63.6606 248.384C64.6932 258.807 61.7055 262.153 51.6132 260.087C48.1781 259.367 44.6273 259.404 41.208 260.196C37.7887 260.988 34.583 262.515 31.8143 264.672C29.928 266.049 27.7939 268.266 27.4359 270.372C24.8888 285.738 31.1396 299.286 50.5944 296.932C55.4408 296.34 60.1359 294.178 64.7758 292.374C67.5295 291.3 70.0353 289.483 72.7202 288.161C77.7456 285.697 79.8247 286.784 81.5595 292.085C82.6334 295.376 83.5421 298.969 85.511 301.723C93.4615 313.022 104.054 322.206 116.366 328.475C138.285 339.49 162.063 341.472 185.91 338.361C201.193 336.378 216.201 332.124 231.126 327.966C238.946 325.776 246.849 323.684 254.284 319.705C263.884 314.335 272.247 307.008 278.833 298.198C283.886 291.741 289.269 285.201 292.601 277.849C304.387 252.308 305.282 225.226 302.239 197.785C301.826 195.745 301.26 193.738 300.546 191.782V191.782Z" fill="#171C22"/>
<path d="M197.737 180.355L172.417 186.454C172.94 194.591 173.546 201.778 173.794 208.979C174.289 221.66 169.911 232.027 159.158 239.187C156.363 241.279 153.188 242.809 149.809 243.689C139.4 245.589 128.991 245.699 118.775 241.941C107.94 237.975 102.116 229.687 98.4669 219.374C97.4756 216.552 96.5944 213.715 95.5205 210.48C92.1017 211.035 88.654 211.393 85.1942 211.554C83.8174 211.554 82.5644 210.025 81.2427 209.186C82.0963 208.07 82.7021 206.432 83.8311 205.95C87.0201 204.555 90.2944 203.364 93.6342 202.384C114.838 195.748 136 189.015 157.272 182.64C170.902 178.51 184.726 175.15 198.384 171.144C208.917 168.059 219.326 164.507 229.79 161.189C233.37 160.046 236.922 158.821 240.557 157.967C243.173 157.361 246.491 156.48 247.744 159.867C249.121 163.543 246.092 165.154 243.297 166.49C242.415 166.917 241.521 167.316 241.259 167.426C241.879 175.77 242.526 183.631 243.035 191.493C243.586 199.961 239.469 206.391 233.7 211.953C225.301 220.035 214.163 219.471 206.797 210.342C201.289 203.609 197.517 196.078 197.682 187.074C197.765 185.366 197.737 183.659 197.737 180.355ZM102.735 209.144C108.435 229.921 119.712 236.626 137.693 236.805C139.194 236.805 140.681 236.488 142.182 236.53C151.186 236.777 157.148 231.366 162.215 225.061C167.722 218.176 167.86 198.901 162.683 190.185L151.282 194.123C153.582 209.888 151.943 215.547 144.068 217.419C140.91 218.014 137.65 217.738 134.636 216.621C128.606 214.445 128.854 207.96 127.036 202.728L102.735 209.144ZM228.358 170.593C228.358 176.1 229.019 180.231 228.206 183.921C227.765 186.283 226.476 188.403 224.583 189.884C222.689 191.364 220.321 192.103 217.921 191.961C215.552 191.682 213.336 190.648 211.6 189.011C209.865 187.374 208.702 185.223 208.284 182.874C207.981 181.497 207.815 180.121 207.568 178.606C203.575 180.148 203.437 180.162 203.589 182.034C204.373 190.667 207.113 198.556 212.868 205.22C217.866 210.962 223.58 210.948 228.964 205.537C236.165 198.295 238.023 181.649 232.475 172.823C231.979 171.928 230.409 171.653 228.372 170.607L228.358 170.593Z" fill="#171C22"/>
<path d="M86.9843 176.678C89.8343 170.538 95.5207 168.941 100.863 167.233C107.279 165.209 113.901 163.833 120.4 162.07C137.005 157.527 153.623 152.997 170.187 148.302C187.466 143.428 204.704 138.361 221.97 133.404C223.828 132.684 225.789 132.266 227.78 132.165C229.253 132.165 231.663 133.281 231.91 134.299C232.04 135.219 231.985 136.156 231.748 137.054C231.512 137.952 231.099 138.794 230.534 139.531C229.583 140.715 227.532 141.129 225.894 141.665C189.352 153.63 152.054 162.869 114.728 171.956C107.954 173.608 101.248 175.591 94.5431 177.463C92.1336 178.248 89.8481 179.542 86.9843 176.678Z" fill="#171C22"/>
<path d="M237.142 255.709C238.258 256.59 240.75 257.65 241.686 259.495C243.063 262.249 241.479 265.003 238.616 266.132C235.872 267.311 232.997 268.157 230.052 268.651C207.058 272.286 185.112 279.914 162.765 285.999C160.232 286.688 157.258 289.001 155.551 285.586C153.844 282.172 156.817 279.776 159.406 278.441C164.484 275.79 169.737 273.489 175.129 271.556C193.98 264.968 213.314 259.853 232.957 256.26C233.879 256.081 234.871 256.081 237.142 255.709Z" fill="#171C22"/>
<path d="M298.604 112.153C291.334 107.756 290.814 101.565 297.163 95.6464C298.958 94.1262 300.594 92.4264 302.044 90.5735C303.306 88.8515 304.032 86.7949 304.133 84.6612C304.234 82.5275 303.705 80.4113 302.612 78.5774C301.519 76.7435 299.91 75.2733 297.987 74.3507C296.064 73.4281 293.913 73.0942 291.801 73.3906C289.444 73.559 287.142 74.1864 285.024 75.2376C278.988 78.6196 274.716 75.849 270.744 71.6606C267.394 68.1485 267.303 67.0559 269.874 63.0236C271.016 61.2285 272.47 59.6026 273.392 57.7295C278.481 47.7788 272.665 37.2036 261.708 36.085C258.437 35.8169 255.232 35.0173 252.218 33.7176C247.882 31.6884 247.025 29.0609 248.453 24.4042C249.206 21.9328 250.439 19.6045 251.27 17.159C253.464 10.7723 251.387 5.45227 245.441 2.17437C243.18 0.856596 240.63 0.114203 238.016 0.0121605C235.402 -0.0898822 232.803 0.451535 230.446 1.58903C225.242 4.29373 220.205 7.3082 215.361 10.6163C211.012 13.4129 207.039 16.8729 202.508 19.3053C197.977 21.7377 195.407 19.9817 194.303 15.1559C193.927 13.5429 193.914 11.852 193.511 10.252C191.85 3.74828 186.916 0.730537 180.646 3.13693C176.791 4.77254 173.224 7.01662 170.078 9.78377C165.547 13.556 161.575 17.9785 157.213 21.9458C154.824 24.1311 152.318 26.4594 147.8 25.5879C147.177 23.0905 146.593 20.3849 145.814 17.7834C143.776 10.7723 139.323 8.23588 132.416 10.2C130.161 10.8348 127.987 11.7296 125.938 12.8666C120.137 16.1581 115.682 21.3956 113.358 27.6561C111.895 31.6343 109.904 35.397 107.438 38.8426C103.647 43.7464 99.1423 42.8099 96.7276 37.1256C95.9876 35.3826 95.5073 33.5355 94.6764 31.8445C91.4048 25.1327 86.3027 22.7393 79.5908 25.9651C73.7475 28.9593 68.2894 32.6545 63.3369 36.9695C57.7285 41.7172 56.0797 48.3511 57.1962 55.6353C57.6636 58.6791 58.2348 61.7098 58.4165 64.7406C58.7801 70.646 55.8201 74.7043 50.1338 74.8214C47.4075 74.8864 44.3696 73.2215 41.9419 71.6215C34.464 66.6657 28.1935 66.8478 21.4557 72.7922C18.8208 74.9902 16.7561 77.7945 15.4381 80.9657C14.1201 84.1369 13.5878 87.5807 13.8869 91.0028C14.3413 97.8837 17.5479 103.62 21.1051 109.213C26.7914 118.201 25.8177 120.478 15.302 122.78C14.8346 122.884 14.3802 122.988 13.9129 123.053C1.30696 125.095 -1.82179 135.918 0.917493 145.491C2.32743 150.045 5.24439 153.982 9.18728 156.652C18.275 163.416 18.275 163.442 8.52518 169.659C0.0996019 174.94 -2.1853 183.395 3.74766 191.395C7.16203 195.986 12.1473 199.486 16.6522 203.193C19.1707 205.274 22.3774 206.523 24.883 208.63C30.8419 213.625 31.3742 216.851 26.7135 223.055C22.0528 229.26 23.1953 235.061 27.0511 240.68C27.8663 241.838 28.8116 242.899 29.8682 243.841C34.5289 248.03 39.3194 250.813 45.6678 246.651C47.0569 245.74 49.9001 246.039 51.5878 246.846C54.2881 248.147 56.5601 250.319 59.0397 252.049C60.6154 253.431 62.3604 254.607 64.2327 255.548C66.7642 256.498 69.4256 256.237 71.0484 253.493C71.3852 252.997 71.6191 252.439 71.7363 251.85C71.8534 251.262 71.8513 250.657 71.7302 250.069C71.6091 249.482 71.3715 248.925 71.0313 248.432C70.6912 247.938 70.2555 247.519 69.7502 247.197C64.6221 243.425 64.8948 239.028 67.699 234.19C70.1397 229.975 68.8544 226.606 65.6088 223.445C63.2521 221.129 61.049 218.661 59.0137 216.057C55.6383 211.739 54.5088 207.394 61.039 203.908C66.8291 200.812 68.1404 195.453 67.4263 189.366C67.1667 187.05 66.7642 184.748 66.4007 182.238C75.1509 177.958 77.7733 170.362 77.8642 161.621C77.9291 155.728 77.4617 149.836 77.2151 143.943C77.0852 141.017 76.9294 138.103 76.7866 135.176C78.5051 135.764 80.004 136.862 81.0838 138.324C84.3424 142.422 88.0943 145.491 93.7546 144.034C99.415 142.578 102.024 138.168 103.18 132.77C104.595 126.084 104.478 119.658 98.7918 113.935L108.931 107.769L111.605 112.517C114.358 117.473 118.304 120.465 124.224 119.749C130.144 119.034 132.429 114.455 133.494 109.499C134.27 105.089 134.669 100.62 134.688 96.1407C134.961 89.637 136.597 87.8419 143.633 87.1395C143.88 88.2452 144.074 89.4028 144.399 90.5085C146.268 96.8952 150.799 99.6137 157.303 98.313C161.86 97.4285 164.6 94.2286 167.079 90.6906C168.598 88.5183 170.052 86.294 171.701 83.8486C178.556 94.2546 184.359 96.7001 194.732 92.8238C199.055 91.2109 202.937 88.3622 206.896 85.8648C209.095 84.2864 211.205 82.5885 213.219 80.7788C213.398 81.7835 213.49 82.802 213.491 83.8226C211.518 95.9976 215.049 100.355 227.344 100.888C229.797 100.993 232.251 101.188 235.042 101.357C233.666 106.755 232.251 111.255 231.42 115.86C230.122 123.144 233.173 127.814 240.352 129.466C244 130.298 247.83 130.377 251.53 131.001C254.126 131.43 256.645 132.211 260.033 133.043C254.97 138.857 250.946 143.761 252.049 150.902C253.153 158.044 257.618 162.609 263.162 166.707C261.552 171.233 261.669 175.383 265.291 178.634C268.628 181.626 271.99 184.605 275.56 187.284C278.936 189.821 282.752 191.057 286.738 188.585C290.438 186.27 290.256 182.563 289.257 179.077C287.647 173.47 289.179 169.152 293.021 164.872C298.591 158.694 298.461 153.933 293.463 147.13C289.451 141.654 289.737 141.537 293.839 136.334C297.246 132.163 300.153 127.605 302.499 122.754C304.732 117.889 303.174 114.885 298.604 112.153ZM287.05 129.635C278.364 139.027 278.079 143.943 285.868 154.349C286.128 154.818 286.333 155.316 286.478 155.832C283.077 160.944 279.611 166.16 275.677 172.105C275.288 170.544 274.586 169.334 274.833 168.372C275.288 166.563 276.521 164.964 277.014 163.169C278.209 158.785 276.417 155.871 271.977 154.688C271.068 154.44 270.082 154.519 269.186 154.284C264.11 152.984 262.772 148.639 266.2 144.737C266.966 143.852 267.939 143.137 268.796 142.265C274.716 135.762 274.314 127.827 267.238 122.611C264.104 120.54 260.599 119.096 256.917 118.358C252.854 117.369 248.57 117.265 243.481 116.68C244.273 113.623 245 111.021 245.636 108.394C246.777 104.551 247.679 100.642 248.336 96.687C248.985 91.0678 246.272 88.3102 240.625 88.2191C235.704 88.2191 230.784 88.2191 225.318 88.2191C225.928 85.1624 226.617 82.691 226.889 80.1805C228.187 70.2428 220.593 64.0772 211.388 67.8494C207.325 69.5273 203.819 72.5581 200.042 74.9255C196.958 77.0738 193.731 79.0078 190.383 80.7138C186.306 82.5349 185.371 81.8975 183.074 77.9952C181.785 75.4779 180.264 73.0871 178.53 70.8541C173.739 65.417 167.754 65.9112 163.847 72.0248C161.938 74.9905 160.51 78.2554 158.887 81.4032C158.446 82.2617 158.121 83.1722 157.589 84.59C151.747 72.8833 147.671 71.2703 136.817 75.914C133.811 77.2593 130.978 78.9626 128.379 80.987C126.657 82.2602 125.279 83.9446 124.373 85.8869C123.466 87.8292 123.058 89.9679 123.186 92.1084C123.303 96.0107 123.186 100.004 123.186 105.493C121.857 104.381 120.608 103.177 119.447 101.89C115.721 96.687 110.593 95.7765 104.984 97.5455C98.8461 99.4229 93.3462 102.966 89.094 107.782C85.0175 112.413 84.8357 116.771 89.4185 120.79C93.3132 124.25 93.9234 127.593 91.0283 132.692C89.7019 130.672 88.2538 128.734 86.6922 126.891C84.7449 124.9 82.7975 122.663 80.3179 121.492C73.0867 117.98 66.0372 121.896 65.5049 129.947C65.0895 136.035 65.8165 142.2 66.0113 148.327C66.18 153.27 66.5695 158.226 66.3228 163.142C66.206 165.471 64.8299 167.734 63.7264 171.051C61.4544 168.137 60.1302 166.238 58.5334 164.547C57.667 163.404 56.4636 162.563 55.0936 162.143C53.7236 161.722 52.2564 161.745 50.8997 162.206C47.758 163.26 46.7713 165.861 46.5117 168.853C46.1352 173.171 47.3166 177.035 51.1594 179.259C54.7166 181.314 55.4955 184.631 56.3523 188.065C56.8625 189.492 56.8589 191.054 56.3422 192.479C55.8254 193.904 54.8279 195.103 53.5222 195.869C43.7594 203.05 42.7987 211.882 50.3804 221.39C52.7173 224.33 55.4566 226.944 58.1699 229.884L55.2748 236.388L38.9559 238.729C33.3735 234.437 33.0619 233.162 36.7489 226.814C41.5005 218.607 41.124 210.217 34.8665 203.206C31.7896 199.759 27.5963 197.326 23.9613 194.374C20.6897 191.707 17.1325 189.275 14.3932 186.14C11.6539 183.005 12.0564 181.197 15.6136 178.66C17.1585 177.568 18.8462 176.696 20.3392 175.539C29.7254 168.267 29.6086 156.912 20.1574 149.94C17.9552 148.57 15.8978 146.979 14.0167 145.192C9.51184 140.184 11.1217 135.567 17.483 133.758C21.3502 132.814 25.0774 131.366 28.57 129.453C35.8661 125.03 37.9563 117.603 34.451 109.825C32.997 106.612 30.6732 103.802 29.2581 100.589C27.6 96.9782 26.2957 93.2144 25.3634 89.3508C24.6363 86.177 26.2332 83.3673 28.583 81.1301C30.5174 79.27 32.5686 78.6716 34.8665 80.5447C35.5935 81.1431 36.3465 81.7154 37.0994 82.2747C44.3306 87.6598 51.7955 87.972 59.572 83.4844C67.3484 78.9968 70.2435 72.454 69.4516 63.8691C69.3054 61.2755 68.9889 58.6944 68.5039 56.1426C67.7903 53.6146 67.9003 50.9244 68.8179 48.4633C69.7355 46.0023 71.4129 43.8987 73.606 42.4587C76.7737 40.1043 80.0972 37.88 83.875 35.1615C85.0305 37.841 85.8743 39.6881 86.6403 41.5612C91.7164 53.9183 105.854 56.5458 114.552 46.2959C117.98 42.2506 120.265 37.1906 122.615 32.2738C125.081 27.1618 128.171 23.0254 134.48 21.1393C135.052 22.9864 135.61 24.6774 136.09 26.3424C138.57 35.2915 145.918 39.4409 154.616 36.085C158.493 34.4089 162.071 32.1111 165.21 29.2821C168.988 26.0952 172.155 22.219 175.726 18.772C177.517 17.029 179.62 15.5981 182.074 13.569C182.592 15.2018 183.025 16.8603 183.372 18.5378C185.034 30.3617 198.328 34.8103 207.493 30.0365C212.453 27.435 216.75 23.6108 221.424 20.4369C225.247 17.7111 229.207 15.1843 233.289 12.8666C235.081 11.904 237.509 12.1381 240.586 11.6959C237.989 21.1003 233.419 29.3341 239.781 37.7109C245.662 45.4244 253.841 47.4926 263.915 47.1284C263.703 49.5225 263.308 51.8969 262.734 54.2305C262.227 55.7264 260.682 56.832 260.033 58.3409C258.771 60.8746 257.833 63.5581 257.242 66.3275C255.528 76.8896 273.756 93.227 285.466 86.8013C287.362 85.8726 289.329 85.0941 291.347 84.473C291.684 84.3559 292.191 84.7331 293.424 85.1624C287.426 90.1313 283.207 95.6855 282.441 103.581C281.623 111.958 284.765 117.759 292.528 122.234C290.859 124.804 289.042 127.275 287.089 129.635H287.05Z" fill="#171C22"/>
<path d="M292.529 122.259C290.86 124.838 289.044 127.318 287.089 129.687C278.404 139.078 278.118 143.995 285.908 154.401C286.168 154.87 286.372 155.368 286.518 155.884C283.116 160.996 279.65 166.212 275.716 172.156C275.327 170.595 274.626 169.386 274.873 168.423C275.327 166.615 276.56 165.015 277.054 163.22C278.248 158.837 276.456 155.923 272.016 154.739C271.108 154.492 270.121 154.57 269.225 154.336C264.149 153.035 262.812 148.691 266.239 144.789C267.005 143.904 267.979 143.189 268.836 142.317C274.756 135.813 274.353 127.879 267.278 122.663C264.135 120.569 260.617 119.107 256.918 118.357C252.854 117.369 248.57 117.265 243.481 116.679C244.273 113.622 245 111.021 245.636 108.393C246.778 104.551 247.679 100.641 248.336 96.6867C248.986 91.0674 246.272 88.3099 240.625 88.2188C235.705 88.2188 230.784 88.2188 225.319 88.2188C225.929 85.162 226.617 82.6906 226.89 80.1802C228.188 70.2424 220.593 64.0768 211.389 67.849C207.325 69.527 203.82 72.5578 200.042 74.9251C196.958 77.0735 193.731 79.0074 190.383 80.7135C186.307 82.5345 185.372 81.8972 183.074 77.9949C181.785 75.4776 180.264 73.0868 178.53 70.8538C173.74 65.4166 167.755 65.9109 163.847 72.0244C161.939 74.9902 160.511 78.255 158.888 81.4029C158.446 82.2614 158.122 83.1719 157.59 84.5897C151.747 72.8829 147.671 71.27 136.818 75.9137C133.812 77.259 130.978 78.9622 128.379 80.9866C126.657 82.2599 125.28 83.9442 124.373 85.8865C123.466 87.8289 123.058 89.9675 123.186 92.1081C123.303 96.0103 123.186 100.004 123.186 105.493C121.858 104.38 120.608 103.176 119.447 101.89C115.721 96.6867 110.593 95.7762 104.985 97.5452C98.8465 99.4226 93.3467 102.966 89.0944 107.782C85.0179 112.413 84.8362 116.77 89.419 120.79C93.3137 124.25 93.9239 127.593 91.0288 132.692C89.7023 130.671 88.2543 128.734 86.6927 126.89C84.7453 124.9 82.7979 122.663 80.3183 121.492C73.0871 117.98 66.0377 121.895 65.5054 129.947C65.09 136.034 65.817 142.2 66.0117 148.327C66.1805 153.269 66.5699 158.225 66.3233 163.142C66.2064 165.47 64.8303 167.734 63.7268 171.051C61.4549 168.137 60.1307 166.238 58.5338 164.547C57.6674 163.404 56.4641 162.562 55.0941 162.142C53.7241 161.722 52.2569 161.744 50.9002 162.206C47.7585 163.259 46.7718 165.861 46.5121 168.852C46.1357 173.171 47.3171 177.034 51.1598 179.258C54.717 181.314 55.496 184.631 56.3528 188.065C56.863 189.492 56.8594 191.053 56.3426 192.478C55.8259 193.903 54.8284 195.103 53.5226 195.869C43.7599 203.049 42.7992 211.881 50.3809 221.39C52.7177 224.33 55.457 226.944 58.1703 229.884L55.2753 236.387L38.9564 238.729C33.374 234.436 33.0624 233.162 36.7494 226.814C41.5009 218.606 41.1245 210.216 34.8669 203.205C31.7901 199.758 27.5968 197.326 23.9617 194.373C20.6902 191.707 17.133 189.274 14.3937 186.139C11.6544 183.005 12.0569 181.197 15.614 178.66C17.1589 177.567 18.8467 176.696 20.3396 175.538C29.7259 168.267 29.6091 156.912 20.1579 149.939C17.9557 148.569 15.8982 146.979 14.0172 145.192C9.51231 140.184 11.1221 135.566 17.4835 133.758C21.3506 132.813 25.0779 131.366 28.5705 129.453C35.8666 125.03 37.9567 117.603 34.4515 109.824C32.9975 106.611 30.6736 103.802 29.2585 100.589C27.6005 96.9779 26.2961 93.214 25.3638 89.3505C24.6368 86.1766 26.2336 83.367 28.5835 81.1297C30.5178 79.2696 32.5691 78.6713 34.8669 80.5444C35.594 81.1427 36.3469 81.715 37.0999 82.2744C44.3311 87.6595 51.796 87.9717 59.5724 83.4841C67.3489 78.9965 70.244 72.4537 69.452 63.8687C69.3059 61.2752 68.9893 58.6941 68.5043 56.1423C67.7907 53.6142 67.9007 50.924 68.8183 48.463C69.736 46.0019 71.4133 43.8984 73.6064 42.4583C76.7741 40.104 80.0976 37.8797 83.8755 35.1611C85.0309 37.8407 85.8748 39.6877 86.6407 41.5608C91.7169 53.918 105.855 56.5455 114.553 46.2956C117.98 42.2502 120.265 37.1903 122.615 32.2735C125.082 27.1615 128.171 23.0251 134.481 21.139C135.052 22.9861 135.61 24.6771 136.091 26.342C138.57 35.2912 145.918 39.4406 154.617 36.0847C158.493 34.4085 162.071 32.1108 165.21 29.2817C168.988 26.0949 172.156 22.2186 175.726 18.7716C177.518 17.0286 179.621 15.5978 182.074 13.5686C182.592 15.2015 183.025 16.86 183.373 18.5375C185.034 30.3614 198.328 34.8099 207.494 30.0362C212.453 27.4347 216.75 23.6104 221.424 20.4366C225.247 17.7108 229.208 15.1839 233.29 12.8662C235.081 11.9037 237.509 12.1378 240.586 11.6956C237.99 21.1 233.42 29.3338 239.781 37.7106C245.662 45.4241 253.841 47.4923 263.915 47.128C263.703 49.5222 263.308 51.8965 262.734 54.2302C262.228 55.726 260.683 56.8317 260.034 58.3405C258.771 60.8742 257.833 63.5577 257.242 66.3271C255.529 76.8893 273.756 93.2267 285.466 86.801C287.363 85.8722 289.329 85.0937 291.347 84.4726C291.685 84.3556 292.191 84.7328 293.424 85.162C287.426 90.1309 283.207 95.6851 282.441 103.581C281.623 111.932 284.765 117.733 292.529 122.259Z" fill="#62C370"/>
</svg>
