<svg width="1473" height="1287" viewBox="0 0 1473 1287" fill="none" xmlns="http://www.w3.org/2000/svg">
<path d="M814.468 662.643C811.473 670.657 812.06 679.517 812.689 688.057C813.233 695.445 813.776 702.832 814.32 710.219C814.698 715.348 815.552 721.289 819.961 723.879C825.087 726.89 831.97 722.997 834.472 717.575C836.974 712.154 836.426 705.88 836.14 699.908C835.853 693.936 836.03 687.467 839.607 682.698C843.232 677.865 849.51 675.905 853.933 671.802C860.256 665.939 861.848 655.537 857.573 648.025C853.57 640.993 842.764 635.68 834.892 639.269C826.64 643.031 817.586 654.299 814.468 662.643Z" fill="#B39370"/>
<path d="M880.93 695.676C883.07 697.225 885.376 698.586 887.556 699.973C889.14 700.981 890.756 702.017 891.913 703.502C893.039 704.946 893.566 706.757 893.148 708.565C892.857 709.825 890.478 711.915 891.211 713.218C892.11 714.814 893.572 716.41 894.472 718.006C896.049 720.806 897.674 723.774 897.657 726.994C897.64 730.215 895.311 733.662 892.116 733.662C893.754 737.546 894.725 741.577 891.382 744.928C887.301 749.019 878.621 747.95 875.404 743.216C875.766 743.749 874.441 747.133 874.134 747.79C873.341 749.488 871.601 750.697 869.814 751.1C867.347 751.656 864.771 750.987 862.416 750.061C855.82 747.469 849.637 744.555 843.868 740.326C837.091 735.372 831.13 729.107 826.987 721.742C825.328 718.794 823.97 715.67 823.005 712.421C818.389 696.866 820.865 679.325 829.6 665.685C832.993 660.386 837.362 655.599 842.827 652.527C848.292 649.454 854.934 648.229 860.936 650.011C864.438 651.051 867.639 653.189 869.939 656.049C872.359 659.06 872.74 661.094 871.876 664.664C870.03 672.292 870.616 679.632 873.457 686.876C874.948 690.677 877.756 693.381 880.93 695.676Z" fill="#B39370"/>
<path d="M591.342 264.641C592.709 269.093 593.309 273.792 593.902 278.454C594.512 283.256 595.105 288.294 593.692 292.808C592.274 297.339 588.784 300.858 584.736 301.84C580.687 302.822 576.206 301.237 573.233 297.77C570.809 294.944 569.431 291.059 568.936 287.127C568.44 283.197 568.771 279.202 569.377 275.32C570.167 270.264 571.424 265.321 573.12 260.601C574.918 255.598 578.41 249.933 583.827 252.286C587.49 253.877 590.141 260.733 591.342 264.641Z" fill="#171C22"/>
<path d="M418.806 216.179C437.754 193.919 460.138 179.541 474.95 170.026L476.607 168.961L507.978 218.498L506.284 219.587C480.407 236.209 441.299 261.329 441.299 313.941C441.299 348.621 465.534 367.88 488.301 374.015C518.832 382.243 566.099 341.383 570.18 339.229C574.261 337.074 584.055 331.552 593.441 326.375L584.717 340.368C584.717 340.368 580.761 349.328 579.851 351.57L615.436 372.93C600.031 399.004 577.541 418.014 550.397 427.906C536.764 432.874 522.15 435.374 507.44 435.374C495.818 435.374 484.136 433.813 472.83 430.678C447.704 423.708 425.951 409.776 409.92 390.387C392.305 369.081 382.993 342.646 382.993 313.94C382.994 276.988 395.043 244.096 418.806 216.179Z" fill="#171C22"/>
<path d="M873.097 674.483C918.208 620.428 923.993 568.918 923.993 530.081C923.993 501.132 917.974 473.652 906.104 448.401C896.289 427.525 882.388 408.021 864.784 390.432C834.311 359.985 800.109 342.484 783.673 334.074C782.263 333.352 780.989 332.7 779.868 332.116L753.068 384.309C754.309 384.957 755.719 385.678 757.281 386.477C803.818 410.291 865.688 451.084 865.688 530.081C865.688 560.732 861.267 597.362 828.477 636.652L873.097 674.483Z" fill="#171C22"/>
<path d="M636.072 146.93L636.099 146.939C639.395 137.549 643.256 128.222 647.816 119.156C660.608 93.7394 671.608 81.6041 695.858 71.1575C711.955 64.2319 723.833 70.173 740.763 73.7759C753.797 76.5476 766.911 80.5119 778.046 88.6288C789.181 96.7463 798.193 109.595 799.814 124.411C801.444 139.31 795.64 153.819 789.978 167.408C766.025 224.914 750.089 268.868 726.126 326.376C726.126 326.376 682.671 318.258 648.102 321.987C653.952 306.981 660.787 288.218 666.314 272.733C654.66 269.365 643.328 263.96 633.698 255.885C605.904 232.579 633.187 154.028 636.072 146.93Z" fill="#B39370"/>
<path d="M697.437 271.316C697.21 270.595 695.435 270.487 692.77 270.646C690.099 270.808 686.522 271.188 682.569 271.525C678.616 271.853 675.025 272.077 672.364 272.363C669.709 272.652 667.978 273.055 667.872 273.804C667.768 274.525 669.348 275.464 672.091 276.159C674.826 276.857 678.731 277.247 683.013 276.89C687.295 276.527 691.083 275.489 693.665 274.344C696.256 273.199 697.659 272.01 697.437 271.316Z" fill="#171C22"/>
<path d="M651.103 164.842C647.355 163.411 646.424 156.65 649.022 149.742C651.62 142.835 656.764 138.396 660.511 139.828C664.258 141.259 665.19 148.02 662.592 154.928C659.994 161.835 654.85 166.274 651.103 164.842Z" fill="#171C22"/>
<path d="M572.989 597.327C576.301 621.72 578.905 637.259 578.905 637.259C578.905 637.259 626.156 625.419 678.841 611.918C711.648 603.51 746.569 594.452 773.49 587.211C772.868 585.409 772.301 583.536 771.772 581.593C754.374 517.456 786.162 377.821 800.093 343.852C796.517 341.211 792.607 338.649 788.455 336.188C778.248 330.139 766.54 324.693 754.499 320.132C730.764 311.129 705.74 305.566 688.411 305.566C665.82 305.566 649.68 306.906 636.581 309.554C621.95 312.516 611.106 317.1 599.273 323.267C592.339 326.879 585.062 331.04 576.495 335.726C559.945 400.568 564.213 532.752 572.989 597.327Z" fill="#171C22"/>
<path d="M707.893 975.019H707.892L709.053 975.23L712.511 975.844V938.061H771.702V1011.56C771.702 1016.59 771.702 1018.1 771.704 1021.61C771.704 1023.17 770.675 1024.65 769.695 1026.1C766.933 1030.23 761.409 1033.63 750.752 1033.63C728.037 1033.63 694.142 1024 683.685 1020.85H683.676C683.476 1020.79 683.286 1020.72 683.095 1020.67C682.361 1020.44 681.771 1020.27 681.343 1020.14C681.295 1020.12 681.257 1020.11 681.21 1020.1C681.153 1020.08 681.095 1020.06 681.048 1020.04C681.02 1020.03 680.991 1020.02 680.962 1020.01C680.734 1019.94 680.591 1019.9 680.525 1019.88C680.506 1019.87 680.496 1019.87 680.496 1019.87C671.143 1016.64 659.8 1009.66 659.8 994.756C659.798 969.374 707.893 975.019 707.893 975.019Z" fill="#171C22"/>
<path d="M582.656 1022.85H582.656L583.817 1023.06L587.274 1023.68V985.893H646.465V1059.4C646.465 1064.43 646.465 1065.94 646.467 1069.44C646.467 1071 645.438 1072.48 644.458 1073.93C641.696 1078.06 636.172 1081.47 625.515 1081.47C602.801 1081.47 568.905 1071.83 558.449 1068.68H558.439C558.239 1068.62 558.048 1068.55 557.858 1068.51C557.125 1068.28 556.534 1068.1 556.106 1067.97C556.058 1067.95 556.02 1067.94 555.973 1067.93C555.916 1067.91 555.858 1067.89 555.811 1067.87C555.783 1067.86 555.754 1067.85 555.725 1067.84C555.496 1067.78 555.353 1067.73 555.287 1067.71C555.268 1067.7 555.258 1067.7 555.258 1067.7C545.906 1064.47 534.563 1057.5 534.563 1042.59C534.561 1017.21 582.656 1022.85 582.656 1022.85Z" fill="#171C22"/>
<path d="M579.199 1007.2C578.429 1021.15 594.273 1032.46 614.711 1032.46C617.152 1032.46 619.546 1032.29 621.871 1031.98C633.539 1030.45 643.491 1025.22 648.893 1018.17C651.435 1014.85 652.959 1011.14 653.177 1007.2C653.705 997.644 654.188 988.084 654.615 978.517C655.229 965.376 655.758 952.227 656.193 939.079C656.715 924.339 657.111 909.607 657.414 894.868C657.694 881.39 657.896 867.913 657.997 854.435C658.129 839.32 658.152 824.196 658.075 809.081C657.997 795.235 657.841 781.404 657.585 767.558C657.36 754.535 657.057 741.496 656.668 728.473C656.598 726.177 656.761 723.905 657.15 721.687C658.378 714.619 661.853 708.084 667.287 703.273C669.541 701.267 671.998 699.566 674.595 698.234C678.987 695.954 683.799 694.708 688.845 694.708C690.423 694.708 691.985 694.833 693.509 695.076C701.594 696.33 707.588 703.327 707.844 711.563C708.062 718.49 708.257 725.409 708.42 732.328C708.762 746.236 708.995 760.161 709.127 774.078C709.283 789.248 709.314 804.426 709.22 819.596C709.15 833.105 708.979 846.614 708.715 860.116C708.419 874.855 708.016 889.586 707.502 904.326C707.043 917.459 706.499 930.576 705.854 943.701C705.613 948.873 705.349 954.044 705.077 959.208C704.33 973.155 720.167 984.463 740.604 984.463C742.447 984.463 744.258 984.369 746.039 984.189C757.824 983.021 768.07 978.1 773.909 971.259C776.98 967.67 778.837 963.572 779.063 959.208C779.537 950.259 779.988 941.303 780.376 932.354C780.967 919.174 781.464 906.003 781.861 892.823C782.328 878.029 782.677 863.226 782.903 848.432C783.12 834.884 783.237 821.32 783.253 807.764C783.291 792.515 783.198 777.283 782.981 762.049C782.787 748.07 782.491 734.106 782.094 720.127C781.651 704.401 781.084 688.682 780.376 672.962C779.746 658.536 779 644.111 778.137 629.685C777.966 626.684 777.787 623.69 777.601 620.697L776.07 603.396C775.961 599 774.686 592.065 773.489 587.207C773.193 585.977 772.898 584.88 772.626 583.995C772.378 583.172 772.09 582.365 771.771 581.589C767.884 572.163 758.951 566.207 746.14 563.339C731.431 560.033 711.608 560.808 688.48 565.095C680.628 566.537 672.574 568.504 664.427 571.019C661.675 571.865 658.97 572.759 656.303 573.699C644.976 577.672 634.466 582.412 625.09 587.662C615.862 592.818 607.715 598.46 600.928 604.337C591.405 612.573 584.541 621.27 581.081 629.756C580.047 632.28 579.316 634.787 578.904 637.255C578.282 640.954 578.391 644.574 579.285 648.046L578.515 646.745C578.873 652.582 579.689 659.228 580.218 665.41C580.358 667.079 580.474 668.709 580.56 670.284C581.462 686.207 580.684 674.774 581.329 690.697C581.92 704.864 582.417 719.047 582.806 733.214C583.257 748.69 583.576 764.166 583.785 779.634C583.995 793.425 584.104 807.208 584.12 820.992C584.151 836.053 584.073 851.129 583.894 866.198C583.731 879.636 583.49 893.075 583.171 906.505C582.806 921.19 582.363 935.882 581.803 950.558C581.314 963.66 580.746 976.762 580.093 989.871C579.813 995.646 579.51 1001.43 579.199 1007.2Z" fill="#E24444"/>
<path d="M735.7 576.308C757.468 576.308 770.513 578.964 770.513 578.964C766.144 557.447 735.747 486.955 788.455 336.185C778.248 330.135 766.54 324.69 754.498 320.129C741.119 357.922 702.21 482.935 735.7 576.308Z" fill="#E24444"/>
<path d="M599.274 323.266C599.99 376.142 608.417 485.304 662.011 553.609C682.659 546.659 695.859 545.014 695.859 545.014C684.968 526.019 634.095 468.966 636.582 309.553C621.952 312.515 611.106 317.099 599.274 323.266Z" fill="#E24444"/>
<path d="M580.22 665.411L614.2 639.631L678.842 611.915L746.873 582.75L746.142 563.34L743.25 486.98L741.695 447.8C725.455 442.62 673.959 421.963 613.321 443.904C613.161 465.041 614.721 536.384 572.99 597.324C576.302 621.718 579.691 659.228 580.22 665.411Z" fill="#E24444"/>
<path d="M691.801 693.637C691.8 694.59 693.579 695.386 696.249 696.319C697.563 696.769 699.128 697.305 700.864 697.9C702.571 698.513 704.421 699.19 706.341 699.965C708.254 700.759 710.048 701.575 711.694 702.336C713.351 703.131 714.842 703.847 716.095 704.449C718.655 705.657 720.48 706.338 721.14 705.654C721.766 705.01 721.054 703.053 718.955 700.662C717.914 699.464 716.506 698.205 714.806 696.987C713.095 695.792 711.084 694.653 708.854 693.73C706.618 692.824 704.389 692.226 702.336 691.879C700.275 691.557 698.395 691.47 696.82 691.595C693.662 691.834 691.797 692.736 691.801 693.637Z" fill="#9E2F2F"/>
<path d="M724.671 740.644C723.197 740.592 722.148 736.342 722.329 731.152C722.509 725.962 723.85 721.797 725.324 721.849C726.798 721.901 727.847 726.15 727.667 731.341C727.486 736.531 726.145 740.696 724.671 740.644Z" fill="#9E2F2F"/>
<path d="M723.665 769.621C722.191 769.569 721.142 765.32 721.322 760.129C721.503 754.939 722.844 750.774 724.318 750.826C725.792 750.878 726.841 755.128 726.66 760.318C726.48 765.508 725.139 769.673 723.665 769.621Z" fill="#9E2F2F"/>
<path d="M722.658 798.594C721.184 798.542 720.135 794.293 720.316 789.102C720.496 783.912 721.837 779.747 723.311 779.799C724.785 779.851 725.834 784.101 725.653 789.291C725.473 794.481 724.132 798.646 722.658 798.594Z" fill="#9E2F2F"/>
<path d="M721.651 827.573C720.177 827.521 719.128 823.272 719.309 818.082C719.489 812.891 720.83 808.726 722.304 808.778C723.778 808.83 724.827 813.08 724.647 818.27C724.466 823.46 723.125 827.625 721.651 827.573Z" fill="#9E2F2F"/>
<path d="M720.643 856.545C719.169 856.493 718.121 852.243 718.301 847.053C718.481 841.863 719.822 837.697 721.296 837.749C722.77 837.801 723.819 842.051 723.639 847.241C723.458 852.431 722.117 856.597 720.643 856.545Z" fill="#9E2F2F"/>
<path d="M719.638 885.523C718.164 885.471 717.115 881.221 717.295 876.031C717.475 870.841 718.817 866.676 720.291 866.728C721.765 866.78 722.813 871.029 722.633 876.219C722.453 881.41 721.112 885.575 719.638 885.523Z" fill="#9E2F2F"/>
<path d="M718.631 914.495C717.157 914.443 716.108 910.193 716.288 905.003C716.469 899.813 717.81 895.648 719.284 895.7C720.758 895.752 721.806 900.001 721.626 905.192C721.446 910.382 720.105 914.547 718.631 914.495Z" fill="#9E2F2F"/>
<path d="M717.623 943.473C716.149 943.421 715.101 939.171 715.281 933.981C715.461 928.791 716.802 924.625 718.276 924.677C719.75 924.729 720.799 928.979 720.619 934.169C720.438 939.359 719.097 943.525 717.623 943.473Z" fill="#9E2F2F"/>
<path d="M603.328 698.896C604.801 698.823 605.769 694.553 605.49 689.361C605.21 684.169 603.791 680.031 602.318 680.118C600.846 680.205 599.878 684.474 600.156 689.653C600.434 694.831 601.854 698.97 603.328 698.896Z" fill="#9E2F2F"/>
<path d="M604.603 727.86C606.077 727.805 607.096 723.548 606.879 718.352C606.662 713.157 605.291 709.001 603.817 709.071C602.344 709.141 601.325 713.397 601.541 718.579C601.758 723.76 603.128 727.916 604.603 727.86Z" fill="#9E2F2F"/>
<path d="M605.526 756.836C607 756.798 608.07 752.553 607.915 747.356C607.759 742.158 606.439 737.986 604.965 738.038C603.491 738.089 602.422 742.334 602.576 747.518C602.731 752.702 604.051 756.874 605.526 756.836Z" fill="#9E2F2F"/>
<path d="M606.106 785.823C607.581 785.804 608.701 781.572 608.607 776.373C608.514 771.174 607.243 766.987 605.769 767.02C604.295 767.054 603.175 771.285 603.268 776.47C603.36 781.656 604.631 785.844 606.106 785.823Z" fill="#9E2F2F"/>
<path d="M606.342 814.819C607.817 814.817 608.987 810.599 608.956 805.399C608.925 800.2 607.704 795.997 606.229 796.013C604.754 796.029 603.583 800.245 603.615 805.432C603.646 810.618 604.867 814.821 606.342 814.819Z" fill="#9E2F2F"/>
<path d="M606.229 843.811C607.704 843.827 608.924 839.624 608.956 834.424C608.987 829.224 607.816 825.007 606.341 825.005C604.866 825.003 603.646 829.206 603.615 834.392C603.583 839.578 604.754 843.795 606.229 843.811Z" fill="#9E2F2F"/>
<path d="M605.774 872.801C607.249 872.835 608.519 868.647 608.612 863.448C608.705 858.249 607.585 854.018 606.11 853.998C604.636 853.977 603.364 858.165 603.272 863.351C603.179 868.537 604.299 872.768 605.774 872.801Z" fill="#9E2F2F"/>
<path d="M604.97 901.784C606.445 901.835 607.765 897.663 607.92 892.466C608.075 887.268 607.005 883.023 605.531 882.986C604.056 882.948 602.736 887.12 602.581 892.304C602.426 897.488 603.496 901.732 604.97 901.784Z" fill="#9E2F2F"/>
<path d="M603.818 930.754C605.292 930.823 606.662 926.667 606.879 921.472C607.096 916.276 606.076 912.02 604.603 911.964C603.128 911.908 601.758 916.063 601.542 921.245C601.326 926.428 602.345 930.684 603.818 930.754Z" fill="#9E2F2F"/>
<path d="M602.329 959.706C603.801 959.793 605.221 955.655 605.5 950.462C605.779 945.269 604.81 941.001 603.337 940.927C601.864 940.854 600.445 944.993 600.167 950.171C599.889 955.35 600.857 959.619 602.329 959.706Z" fill="#9E2F2F"/>
<path d="M600.485 988.64C601.957 988.746 603.426 984.625 603.767 979.436C604.108 974.247 603.19 969.967 601.718 969.876C600.246 969.784 598.777 973.905 598.438 979.081C598.097 984.255 599.014 988.535 600.485 988.64Z" fill="#9E2F2F"/>
<path d="M599.262 1005.93C597.791 1005.82 596.72 1004.13 596.868 1002.15C597.016 1000.18 598.329 998.67 599.8 998.782C601.27 998.895 602.342 1000.59 602.194 1002.56C602.045 1004.53 600.733 1006.04 599.262 1005.93Z" fill="#9E2F2F"/>
<path d="M687.711 656.94C686.747 657.089 686.63 660.628 685.846 666.006C685.089 671.373 683.429 678.648 679.769 685.833C676.108 693.019 671.21 698.618 667.325 702.366C663.446 706.141 660.661 708.3 661.102 709.176C661.308 709.582 662.292 709.584 663.894 709.124C665.496 708.669 667.692 707.699 670.213 706.131C672.734 704.567 675.541 702.352 678.266 699.468C680.992 696.591 683.598 693.016 685.709 688.907C687.792 684.783 689.156 680.566 689.887 676.656C690.624 672.743 690.774 669.153 690.565 666.177C690.361 663.198 689.863 660.834 689.297 659.256C688.733 657.676 688.157 656.871 687.711 656.94Z" fill="#9E2F2F"/>
<path d="M582.765 602.679C582.636 602.871 583.091 603.439 584.083 604.348C584.579 604.803 585.209 605.342 585.968 605.963C586.722 606.59 587.61 607.288 588.652 608.01C589.686 608.746 590.844 609.554 592.12 610.43C593.41 611.282 594.847 612.148 596.383 613.1C597.908 614.074 599.617 614.968 601.408 615.967C603.188 616.987 605.143 617.92 607.182 618.932C609.209 619.977 611.418 620.876 613.687 621.896C614.818 622.417 616.011 622.848 617.211 623.33C618.416 623.797 619.638 624.294 620.896 624.756C622.163 625.194 623.451 625.64 624.76 626.091C625.417 626.313 626.074 626.552 626.745 626.764C627.418 626.967 628.098 627.171 628.781 627.377C630.151 627.782 631.536 628.218 632.952 628.609C634.377 628.974 635.819 629.344 637.281 629.719C638.738 630.117 640.239 630.401 641.75 630.732C643.263 631.047 644.787 631.408 646.349 631.649C647.907 631.916 649.482 632.185 651.072 632.457C652.672 632.665 654.287 632.876 655.917 633.088C662.448 633.844 669.259 634.242 676.239 634.171C683.218 634.044 690.016 633.454 696.523 632.514C698.146 632.255 699.755 631.999 701.349 631.745C702.93 631.429 704.497 631.115 706.047 630.804C707.602 630.518 709.115 630.115 710.619 629.757C712.12 629.384 713.612 629.057 715.058 628.617C716.508 628.202 717.941 627.791 719.354 627.385C720.759 626.954 722.131 626.479 723.489 626.036C724.167 625.811 724.84 625.587 725.508 625.365C726.172 625.134 726.823 624.877 727.473 624.637C728.769 624.147 730.045 623.665 731.299 623.192C732.544 622.694 733.751 622.163 734.942 621.662C736.129 621.147 737.309 620.682 738.425 620.129C740.666 619.045 742.848 618.084 744.844 616.982C746.855 615.913 748.783 614.925 750.535 613.856C752.296 612.805 753.981 611.864 755.477 610.847C756.986 609.852 758.399 608.946 759.663 608.057C760.915 607.146 762.05 606.306 763.063 605.541C764.085 604.789 764.953 604.067 765.689 603.418C766.43 602.776 767.045 602.219 767.528 601.75C768.494 600.813 768.933 600.233 768.799 600.044C768.665 599.856 767.963 600.067 766.757 600.638C766.154 600.924 765.425 601.299 764.578 601.76C763.734 602.227 762.766 602.769 761.653 603.34C760.549 603.926 759.331 604.587 758.007 605.319C756.662 606.012 755.202 606.766 753.633 607.576C752.084 608.417 750.358 609.184 748.567 610.062C746.785 610.96 744.84 611.778 742.822 612.682C740.82 613.619 738.642 614.419 736.419 615.346C735.312 615.821 734.143 616.209 732.972 616.649C731.795 617.074 730.606 617.531 729.382 617.957C728.151 618.362 726.899 618.773 725.626 619.191C724.99 619.397 724.353 619.62 723.703 619.818C723.051 620.007 722.393 620.198 721.731 620.39C720.405 620.769 719.068 621.182 717.701 621.552C716.327 621.901 714.935 622.254 713.526 622.611C712.124 622.995 710.676 623.27 709.224 623.594C707.768 623.901 706.305 624.258 704.803 624.5C703.307 624.771 701.796 625.043 700.269 625.318C698.734 625.538 697.185 625.759 695.621 625.983C689.359 626.798 682.837 627.319 676.147 627.441C669.455 627.509 662.921 627.174 656.639 626.535C655.07 626.356 653.515 626.179 651.974 626.003C650.44 625.771 648.922 625.541 647.42 625.314C645.911 625.114 644.44 624.799 642.976 624.533C641.516 624.25 640.061 624.017 638.649 623.673C637.229 623.355 635.829 623.042 634.445 622.732C633.068 622.401 631.721 622.025 630.385 621.684C629.717 621.511 629.055 621.339 628.396 621.168C627.741 620.989 627.099 620.784 626.457 620.596C625.173 620.214 623.91 619.839 622.669 619.47C621.434 619.079 620.232 618.655 619.043 618.263C617.86 617.857 616.681 617.502 615.561 617.059C613.313 616.195 611.114 615.457 609.086 614.577C607.044 613.731 605.076 612.968 603.27 612.121C601.455 611.293 599.708 610.576 598.137 609.778C596.546 609.013 595.065 608.302 593.701 607.646C592.358 606.952 591.122 606.326 590.002 605.772C588.873 605.232 587.89 604.718 587.034 604.275C586.174 603.839 585.435 603.484 584.824 603.215C583.601 602.678 582.894 602.487 582.765 602.679Z" fill="#9E2F2F"/>
<path d="M753.225 570.35C751.815 570.769 751.87 575.202 753.581 580.175C755.287 585.149 757.966 588.667 759.33 588.116C760.704 587.563 760.288 583.257 758.628 578.413C756.962 573.571 754.644 569.927 753.225 570.35Z" fill="#9E2F2F"/>
<path d="M746.531 542.168C745.081 542.418 744.619 546.825 745.732 551.964C746.839 557.105 749.078 560.92 750.499 560.54C751.929 560.158 752.03 555.829 750.951 550.819C749.866 545.81 747.989 541.916 746.531 542.168Z" fill="#9E2F2F"/>
<path d="M743.13 513.394C741.662 513.473 740.698 517.797 741.212 523.031C741.72 528.266 743.502 532.318 744.958 532.107C746.422 531.895 747.023 527.608 746.527 522.504C746.026 517.401 744.608 513.313 743.13 513.394Z" fill="#9E2F2F"/>
<path d="M743.059 484.412C741.591 484.319 740.136 488.501 740.045 493.76C739.95 499.02 741.256 503.252 742.726 503.211C744.205 503.172 745.292 498.983 745.386 493.856C745.474 488.73 744.536 484.504 743.059 484.412Z" fill="#9E2F2F"/>
<path d="M737.313 461.097C737.102 461.752 737.755 462.643 738.986 463.573C739.602 464.038 740.363 464.514 741.237 464.976C741.456 465.087 741.682 465.202 741.912 465.319L742.087 465.404C742.146 465.432 742.22 465.466 742.199 465.466L742.211 465.512C742.224 465.568 742.201 465.597 742.182 465.612C742.168 465.623 742.161 465.625 742.161 465.625C742.163 465.614 742.169 465.603 742.178 465.595C742.157 465.887 742.137 466.176 742.117 466.459C742.079 467.078 742.061 467.677 742.061 468.25C742.062 469.395 742.136 470.433 742.275 471.31C742.553 473.066 743.094 474.179 743.828 474.251C744.563 474.322 745.35 473.345 746.03 471.722C746.369 470.91 746.682 469.936 746.947 468.847C747.079 468.303 747.2 467.73 747.306 467.133L747.384 466.681C747.411 466.503 747.438 466.324 747.464 466.143C747.544 465.506 747.626 464.859 747.708 464.204C747.791 463.444 747.873 462.696 747.954 461.962C746.844 461.597 745.758 461.259 744.75 460.961C744.498 460.888 744.249 460.815 744.002 460.744C743.856 460.701 743.806 460.691 743.742 460.676L743.548 460.633C743.289 460.581 743.036 460.53 742.789 460.48C741.798 460.295 740.894 460.193 740.117 460.175C738.563 460.139 737.523 460.443 737.313 461.097Z" fill="#9E2F2F"/>
<path d="M709.463 453.925C709.198 455.393 713.039 457.325 717.988 458.486C722.939 459.641 727.231 459.612 727.635 458.177C728.036 456.752 724.286 454.43 719.196 453.242C714.108 452.049 709.726 452.468 709.463 453.925Z" fill="#9E2F2F"/>
<path d="M680.938 450.325C680.858 451.815 684.908 453.246 689.963 453.772C695.019 454.292 699.273 453.721 699.495 452.246C699.716 450.781 695.706 448.952 690.509 448.417C685.312 447.876 681.017 448.846 680.938 450.325Z" fill="#9E2F2F"/>
<path d="M652.191 450.378C652.298 451.866 656.495 452.769 661.575 452.65C666.655 452.524 670.804 451.418 670.84 449.926C670.876 448.445 666.67 447.138 661.447 447.268C656.223 447.391 652.084 448.9 652.191 450.378Z" fill="#9E2F2F"/>
<path d="M633.235 461.624C633.957 461.585 634.54 460.537 634.901 458.854C635.081 458.012 635.207 457.012 635.267 455.903C635.277 455.626 635.288 455.342 635.3 455.052C635.302 454.994 635.3 454.873 635.306 454.867L635.325 454.861C635.336 454.859 635.347 454.858 635.357 454.858C635.397 454.865 635.42 454.873 635.427 454.879L635.428 454.881C635.423 454.881 635.414 454.863 635.434 454.825L635.441 454.81C635.441 454.81 635.442 454.805 635.446 454.801L635.555 454.779C635.699 454.747 635.842 454.716 635.983 454.685C636.265 454.616 636.542 454.549 636.811 454.484C637.887 454.203 638.848 453.876 639.648 453.523C641.248 452.818 642.207 452.011 642.127 451.272C642.046 450.533 640.935 450.003 639.187 449.744C638.314 449.615 637.282 449.554 636.145 449.568C635.861 449.576 635.571 449.585 635.273 449.594C635.125 449.602 634.976 449.609 634.825 449.617L634.712 449.624L634.493 449.645L634.051 449.69C632.866 449.812 631.611 449.961 630.329 450.132C630.131 450.159 629.934 450.186 629.739 450.212C629.836 451.479 629.949 452.716 630.073 453.908C630.105 454.203 630.138 454.496 630.169 454.785L630.218 455.214C630.235 455.352 630.242 455.374 630.256 455.459C630.308 455.738 630.359 456.012 630.408 456.279C630.625 457.344 630.891 458.299 631.189 459.097C631.785 460.692 632.513 461.663 633.235 461.624Z" fill="#9E2F2F"/>
<path d="M633.151 490.604C634.618 490.702 636.089 486.528 636.207 481.271C636.33 476.014 635.05 471.775 633.58 471.806C632.101 471.836 630.988 476.019 630.867 481.147C630.753 486.275 631.674 490.505 633.151 490.604Z" fill="#9E2F2F"/>
<path d="M629.826 519.387C631.273 519.651 633.198 515.669 633.9 510.459C634.608 505.25 633.811 500.894 632.347 500.757C630.874 500.619 629.299 504.649 628.608 509.732C627.924 514.815 628.37 519.123 629.826 519.387Z" fill="#9E2F2F"/>
<path d="M623.328 547.613C624.736 548.039 627.094 544.3 628.37 539.201C629.652 534.104 629.343 529.686 627.903 529.384C626.455 529.081 624.443 532.909 623.192 537.88C621.947 542.855 621.91 547.185 623.328 547.613Z" fill="#9E2F2F"/>
<path d="M613.689 574.918C615.04 575.505 617.809 572.062 619.654 567.142C621.505 562.223 621.693 557.797 620.296 557.334C618.891 556.868 616.463 560.441 614.659 565.236C612.861 570.032 612.33 574.328 613.689 574.918Z" fill="#9E2F2F"/>
<path d="M602.781 597.587C604.066 598.311 606.758 595.923 608.654 592.18C610.554 588.438 610.898 584.841 609.564 584.215C608.224 583.586 605.748 586.085 603.898 589.729C602.052 593.375 601.491 596.86 602.781 597.587Z" fill="#9E2F2F"/>
<path d="M481.791 200.588C473.032 186.925 470.635 172.786 476.437 169.008C482.238 165.229 494.042 173.242 502.8 186.905C511.559 200.568 513.956 214.707 508.155 218.486C502.353 222.264 490.55 214.251 481.791 200.588Z" fill="#4E535A"/>
<path d="M567.568 206.351C572.614 208.978 572.377 217.011 569.357 220.575C566.349 224.127 561.904 226.053 557.704 226.639C538.646 229.3 518.458 221.32 503.455 209.177C495.313 202.587 489.198 193.489 486.145 183.424C484.206 177.035 483.509 170.046 485.61 163.71C487.712 157.374 493.019 151.868 499.574 150.879C507.492 149.685 515.061 155.126 519.678 161.719C524.294 168.313 526.876 176.124 530.966 183.061C535.082 190.042 540.753 196.07 547.405 200.643C550.318 202.645 554.049 203.934 557.332 205.216C561.54 206.858 563.298 204.127 567.568 206.351Z" fill="#B39370"/>
<path d="M846.455 661.017C833.971 650.897 825.789 640.265 828.179 637.269C830.569 634.273 842.627 640.048 855.111 650.167C867.596 660.286 875.778 670.918 873.388 673.914C870.997 676.911 858.939 671.136 846.455 661.017Z" fill="#171C22"/>
<path d="M488.84 107.593C482.399 108.168 477.825 111.415 475.117 117.334C474.113 119.545 474.585 123.234 475.793 124.989C507.591 171.005 541.336 217.66 576.254 265.002C577.298 266.415 579.839 267.514 581.722 267.122C586.555 266.11 590.258 263.482 592.832 259.237C593.832 257.583 593.663 254.8 592.694 253.333C560.239 204.243 528.031 156.498 495.763 110.814C494.531 109.076 491.243 107.386 488.84 107.593Z" fill="#4E535A"/>
<path d="M569.2 198.522C574.295 181.069 560.114 183.585 564.177 176.148C569.094 167.149 560.159 157.11 551.694 157.141C549.318 146.127 541.673 139.534 530.566 140.839C527.656 130.984 518.965 130.551 510.791 132.28C502.618 134.01 493.795 142.162 491.791 150.333C489.709 158.82 489.532 166.345 493.656 174.036C498.768 183.572 521.958 216.47 528.53 205.709C532.808 198.704 543.425 181.68 556.291 198.742C560.261 204.005 567.925 202.889 569.2 198.522Z" fill="#B39370"/>
<path d="M500.956 137.182C491.884 144.294 483.379 159.035 483.379 172.952C483.379 186.869 501.074 197.167 501.074 197.167C501.074 197.167 514.687 184.305 514.428 182.844C514.169 181.383 514.694 162.825 514.432 162.613C514.169 162.402 511.319 147.95 511.319 147.95L500.956 137.182Z" fill="#B39370"/>
<path d="M534.039 181.905C534.6 182.082 535.44 180.713 537.529 179.62C538.57 179.063 539.899 178.527 541.466 178.113C543.022 177.707 544.86 177.379 546.753 177.178C554.416 176.324 560.656 178.409 561.116 177.368C561.333 176.886 560.001 175.641 557.344 174.575C554.715 173.504 550.728 172.698 546.345 173.161C544.151 173.399 542.133 173.874 540.303 174.583C538.486 175.294 536.936 176.27 535.821 177.342C534.706 178.427 534.068 179.585 533.863 180.444C533.65 181.307 533.796 181.822 534.039 181.905Z" fill="#5E3F26"/>
<path d="M530.331 165.112C530.754 165.501 531.882 164.946 533.508 164.096C534.316 163.66 535.282 163.185 536.339 162.669C537.412 162.178 538.59 161.67 539.857 161.204C542.396 160.289 544.788 159.743 546.589 159.345C548.383 158.943 549.601 158.628 549.673 158.055C549.743 157.525 548.589 156.819 546.524 156.49C545.495 156.324 544.25 156.283 542.876 156.41C541.506 156.554 540.007 156.862 538.503 157.404C537.003 157.954 535.647 158.673 534.499 159.445C533.363 160.242 532.421 161.064 531.74 161.866C530.36 163.459 529.936 164.756 530.331 165.112Z" fill="#5E3F26"/>
<path d="M515.104 155.472C515.621 155.71 516.501 154.909 517.69 153.648C518.882 152.381 520.426 150.671 522.28 148.949C524.136 147.229 525.948 145.824 527.304 144.75C528.652 143.674 529.529 142.873 529.346 142.33C529.177 141.819 527.92 141.672 526.046 142.192C525.108 142.442 524.046 142.895 522.923 143.513C521.813 144.151 520.657 144.973 519.566 145.978C517.388 148 515.95 150.336 515.278 152.152C514.598 153.979 514.615 155.25 515.104 155.472Z" fill="#5E3F26"/>
<path d="M484.582 198.753C489.174 205.914 494.372 211.589 498.796 214.67C500.085 215.568 501.771 215.641 503.166 214.922L508.914 211.957L530.332 200.908L508.503 157.921L482.941 171.116L478.169 173.578C476.523 174.428 475.603 176.233 475.855 178.08C476.595 183.509 479.679 191.104 484.582 198.753Z" fill="#B39370"/>
<path d="M482.961 176.175C482.444 176.243 482.172 178.422 482.716 181.877C482.856 182.738 483.034 183.679 483.306 184.669C483.542 185.671 483.897 186.709 484.267 187.806C485.064 189.976 486.127 192.3 487.49 194.598C488.873 196.884 490.419 198.915 491.954 200.636C492.744 201.477 493.49 202.277 494.26 202.954C495.002 203.657 495.746 204.254 496.437 204.78C499.217 206.874 501.256 207.645 501.557 207.216C502.24 206.253 495.922 201.007 490.919 192.511C485.789 184.093 484.124 176.014 482.961 176.175Z" fill="#5E3F26"/>
<path d="M538.369 192.815C538.112 192.362 536.597 192.559 534.737 194.047C533.816 194.783 532.855 195.852 532.06 197.233C531.264 198.61 530.66 200.311 530.454 202.18C530.265 204.051 530.501 205.843 530.992 207.357C531.481 208.875 532.198 210.124 532.945 211.039C534.453 212.888 535.893 213.402 536.239 213.014C536.638 212.593 536.018 211.408 535.392 209.602C534.752 207.81 534.157 205.293 534.437 202.607C534.724 199.922 535.83 197.586 536.83 195.971C537.818 194.338 538.672 193.311 538.369 192.815Z" fill="#B39370"/>
<path d="M594.463 245.593C596.16 241.164 596.846 236.473 597.522 231.817C598.219 227.02 598.886 221.988 596.933 217.435C594.971 212.865 590.315 209.264 584.979 208.19C579.644 207.116 573.797 208.605 569.97 212.011C566.85 214.787 565.127 218.648 564.562 222.574C563.997 226.5 564.518 230.509 565.399 234.41C566.546 239.491 568.304 244.471 570.633 249.236C573.102 254.287 577.81 260.038 584.868 257.802C589.643 256.288 592.973 249.481 594.463 245.593Z" fill="#171C22"/>
<path d="M568.276 223.453C567.881 223.781 568.546 225.531 570.748 227.472C571.84 228.434 573.323 229.393 575.134 230.117C576.941 230.842 579.088 231.301 581.371 231.29C583.655 231.257 585.793 230.756 587.585 229.996C589.383 229.237 590.846 228.25 591.92 227.266C594.085 225.283 594.716 223.521 594.314 223.201C593.869 222.819 592.519 223.811 590.305 224.921C588.111 226.042 584.918 227.213 581.333 227.251C577.747 227.282 574.533 226.174 572.318 225.095C570.083 224.028 568.714 223.063 568.276 223.453Z" fill="#4E535A"/>
<path d="M581.807 243.825C581.454 238.704 582.063 234.489 583.167 234.412C584.27 234.335 585.451 238.424 585.804 243.545C586.157 248.667 585.549 252.881 584.445 252.959C583.341 253.036 582.16 248.947 581.807 243.825Z" fill="#4E535A"/>
<path d="M583.393 282.285C583.137 274.927 583.826 268.93 584.931 268.891C586.037 268.852 587.14 274.786 587.395 282.144C587.651 289.502 586.962 295.499 585.857 295.538C584.752 295.577 583.648 289.644 583.393 282.285Z" fill="#4E535A"/>
<path d="M832.571 716.905C832.666 717.123 833.561 717.111 834.767 716.158C835.977 715.234 837.239 713.25 837.69 710.604C837.931 709.294 837.943 707.77 837.777 706.287C837.623 704.786 837.317 703.26 837.034 701.731C836.756 700.2 836.486 698.676 836.502 697.162C836.489 695.633 836.695 694.039 837.099 692.416C837.915 689.164 839.396 686.14 840.81 683.388C842.248 680.641 843.626 678.104 844.679 675.952C846.81 671.646 847.89 668.839 847.416 668.553C846.941 668.267 845 670.555 842.247 674.487C840.877 676.466 839.279 678.795 837.596 681.558C835.947 684.328 834.195 687.562 833.214 691.427C832.733 693.354 832.5 695.339 832.578 697.261C832.63 699.207 833.043 700.967 833.429 702.531C834.244 705.663 834.968 708.18 834.873 710.299C834.829 712.443 834.24 714.085 833.615 715.097C833.006 716.133 832.426 716.633 832.571 716.905Z" fill="#5E3F26"/>
<path d="M845.818 675.805C845.568 675.732 845.148 676.108 844.826 677.014C844.514 677.909 844.38 679.352 844.772 681.004C845.157 682.651 846.014 684.472 847.303 686.185C848.563 687.884 850.225 689.552 852.206 690.969C856.174 693.839 860.569 695.008 863.689 695.116C866.839 695.272 868.705 694.534 868.669 694.025C868.645 693.427 866.826 693.126 864.148 692.299C861.468 691.516 857.896 690.115 854.526 687.678C852.84 686.471 851.369 685.142 850.148 683.814C848.936 682.514 848.042 681.208 847.444 680.055C846.224 677.757 846.378 675.979 845.818 675.805Z" fill="#5E3F26"/>
<path d="M855.449 691.694C854.957 691.871 855.288 694.458 856.735 698.37C857.1 699.345 857.521 700.406 858.049 701.511C858.543 702.634 859.162 703.787 859.814 705.003C861.164 707.406 862.814 709.96 864.768 712.473C866.738 714.973 868.816 717.188 870.82 719.071C871.842 719.992 872.808 720.869 873.778 721.614C874.722 722.388 875.647 723.049 876.504 723.633C879.943 725.962 882.363 726.886 882.648 726.444C883.296 725.448 875.294 719.52 867.914 709.973C860.427 700.51 856.561 691.289 855.449 691.694Z" fill="#5E3F26"/>
<path d="M865.949 735.694C866.261 735.187 864.044 733.309 860.688 730.185C860.27 729.794 859.833 729.384 859.377 728.956C858.921 728.531 858.474 728.056 857.994 727.588C857.021 726.664 856.055 725.602 855.012 724.519C852.98 722.297 850.834 719.784 848.746 717.012C846.684 714.222 844.884 711.447 843.329 708.863C842.585 707.552 841.841 706.322 841.23 705.124C840.918 704.528 840.589 703.964 840.31 703.404C840.029 702.844 839.76 702.306 839.503 701.794C837.455 697.677 836.28 695.009 835.711 695.171C835.216 695.306 835.432 698.294 836.881 702.875C837.072 703.443 837.272 704.039 837.48 704.66C837.696 705.279 837.967 705.903 838.228 706.559C838.737 707.878 839.403 709.231 840.097 710.662C841.551 713.486 843.361 716.489 845.544 719.439C847.75 722.371 850.111 724.957 852.399 727.148C853.57 728.216 854.675 729.237 855.792 730.095C856.344 730.531 856.864 730.966 857.395 731.347C857.928 731.721 858.441 732.08 858.93 732.423C862.895 735.098 865.683 736.136 865.949 735.694Z" fill="#5E3F26"/>
<path d="M873.6 695.579C873.142 695.872 873.302 697.107 874.122 698.818C874.937 700.524 876.453 702.675 878.55 704.635C880.65 706.592 882.894 707.951 884.644 708.639C886.399 709.333 887.633 709.399 887.887 708.916C888.395 707.893 885.02 705.207 881.272 701.672C877.488 698.176 874.572 694.99 873.6 695.579Z" fill="#5E3F26"/>
<path d="M815.524 690.494C815.268 690.978 815.499 691.696 816.243 692.371C816.976 693.044 818.236 693.626 819.707 693.741C821.179 693.854 822.512 693.473 823.338 692.921C824.176 692.369 824.513 691.695 824.334 691.178C824.151 690.644 823.535 690.337 822.765 690.126C821.987 689.918 821.046 689.792 820.015 689.715C818.983 689.632 818.034 689.611 817.234 689.696C816.441 689.787 815.786 689.996 815.524 690.494Z" fill="#5E3F26"/>
<path d="M815.217 695.773C814.882 696.197 815.095 697.053 815.982 697.947C816.852 698.835 818.432 699.672 820.313 699.871C822.195 700.068 823.912 699.578 824.946 698.89C825.997 698.201 826.381 697.407 826.14 696.923C825.891 696.412 825.129 696.248 824.174 696.143C823.287 696.069 822.073 695.967 820.73 695.854C819.392 695.684 818.183 695.531 817.301 695.42C816.344 695.323 815.566 695.326 815.217 695.773Z" fill="#5E3F26"/>
<path d="M824.608 712.986C824.249 712.006 823.502 711.163 822.55 710.75C821.597 710.336 820.449 710.376 819.556 710.909C818.605 711.477 818.009 712.559 817.911 713.669C817.812 714.779 818.175 715.903 818.8 716.822C821.455 720.731 825.989 716.754 824.608 712.986Z" fill="#5E3F26"/>
<path d="M653.783 311.098C653.559 311.504 654.305 312.393 655.881 313.669C656.275 313.988 656.721 314.332 657.216 314.697C657.717 315.05 658.282 315.394 658.889 315.771C660.109 316.507 661.495 317.381 663.123 318.136C663.935 318.526 664.785 318.933 665.671 319.359C666.563 319.772 667.522 320.121 668.504 320.517C670.463 321.338 672.63 321.99 674.911 322.695C679.503 323.973 684.675 324.989 690.17 325.453C695.669 325.865 700.935 325.681 705.67 325.145C708.032 324.81 710.274 324.509 712.336 324.008C713.368 323.772 714.369 323.58 715.315 323.312C716.256 323.033 717.16 322.764 718.022 322.508C719.748 322.021 721.253 321.377 722.573 320.843C723.23 320.566 723.842 320.316 724.392 320.047C724.938 319.764 725.432 319.496 725.871 319.243C727.626 318.232 728.501 317.472 728.343 317.036C728.185 316.6 727.014 316.524 725.069 316.752C724.583 316.808 724.048 316.884 723.468 316.978C722.883 317.052 722.249 317.133 721.567 317.22C720.208 317.393 718.697 317.694 716.995 317.864C716.153 317.975 715.27 318.091 714.35 318.212C713.433 318.334 712.467 318.389 711.478 318.495C709.504 318.737 707.378 318.813 705.157 318.966C700.701 319.135 695.812 319.126 690.695 318.744C685.582 318.311 680.752 317.547 676.378 316.674C674.208 316.171 672.121 315.76 670.208 315.208C669.248 314.947 668.303 314.74 667.416 314.473C666.527 314.209 665.673 313.953 664.858 313.711C663.204 313.274 661.759 312.737 660.444 312.351C659.784 312.158 659.17 311.978 658.604 311.812C658.046 311.628 657.53 311.468 657.058 311.335C655.175 310.804 654.007 310.692 653.783 311.098Z" fill="#4E535A"/>
<path d="M587.56 400.939C586.505 400.461 583.458 405.419 578.207 409.906C573.034 414.483 567.721 416.795 568.036 417.916C568.187 418.427 569.801 418.514 572.24 417.808C573.458 417.462 574.857 416.883 576.339 416.088C577.806 415.275 579.349 414.234 580.823 412.963C582.286 411.679 583.533 410.294 584.547 408.95C585.544 407.589 586.317 406.28 586.835 405.115C587.887 402.786 588.039 401.165 587.56 400.939Z" fill="#4E535A"/>
<path d="M625.315 201.554C626.48 203.42 627.877 205.052 629.74 206.218C631.371 207.384 633.001 208.316 634.864 209.016C636.727 209.715 638.59 210.182 640.454 210.415C642.55 210.648 644.879 210.415 646.975 209.948C648.838 209.482 650.002 207.384 649.536 205.285C649.536 205.052 649.304 204.819 649.304 204.586C648.139 202.72 646.742 201.088 645.111 199.689C643.481 198.523 641.851 197.357 640.221 196.658C638.357 195.725 636.494 195.259 634.631 195.026C632.535 194.793 630.439 194.793 628.343 195.259C626.014 195.958 624.617 198.29 625.082 200.622C625.082 200.855 625.082 201.088 625.315 201.554Z" fill="#171C22"/>
<path d="M706.507 136.556C706.625 135.696 706.581 134.821 706.38 133.976C706.318 133.619 706.15 133.289 705.9 133.027C705.649 132.765 705.325 132.584 704.971 132.506C704.175 132.447 703.39 133.192 702.762 133.979C701.657 135.382 700.778 136.948 700.159 138.622C699.627 139.913 699.377 141.302 699.426 142.698C699.642 145.485 701.925 146.434 703.778 144.522C705.441 142.804 706.278 138.949 706.507 136.556Z" fill="#171C22"/>
<path fill-rule="evenodd" clip-rule="evenodd" d="M654.568 56.5591C657.596 53.041 663.786 54.0011 664.405 54.1049C657.865 45.5084 658.858 35.2546 664.143 31.1086C668.55 27.6519 674.905 29.2572 676.049 29.5664C677.531 23.5695 681.771 18.7348 687.281 17.1502C694.849 14.9751 703.799 19.2224 707.61 27.6967C708.536 24.9963 710.206 22.6114 712.429 20.8148C714.653 19.0182 717.341 17.8823 720.185 17.537C726.884 16.8367 733.494 20.9839 736.007 27.6954C737.564 25.3513 739.8 23.5357 742.419 22.4893C745.038 21.443 747.916 21.2154 750.672 21.8368C753.427 22.4581 755.929 23.8991 757.846 25.9685C759.763 28.0379 761.005 30.6379 761.406 33.4236C763.656 30.8548 766.633 29.0229 769.948 28.1669C773.262 27.3109 776.761 27.4704 779.987 28.6247C783.213 29.7789 786.017 31.8744 788.034 34.6377C790.05 37.4011 791.185 40.7041 791.291 44.1159C792.424 43.6993 800.893 40.756 809.313 45.6672C811.801 47.1623 813.963 49.1386 815.671 51.4794C817.38 53.8202 818.601 56.4778 819.261 59.2949C819.783 59.0957 826.979 56.4902 833.047 60.908C837.989 64.502 840.068 71.2183 838.026 77.4634C843.973 78.214 848.539 82.8311 849.068 88.3118C849.241 90.5913 848.771 92.8725 847.711 94.8974C846.651 96.9224 845.043 98.6105 843.069 99.771C851.806 102.233 856.027 111.17 853.449 117.711C851.481 122.706 845.632 126.094 839.172 125.527C839.53 125.853 843.777 129.852 842.919 134.889C842.061 139.926 836.41 144.083 829.628 143.339C835.112 147.762 836.048 154.939 832.896 159.079C829.701 163.279 823.532 162.741 823.144 162.701C827.487 167.225 826.874 173.639 823.538 176.177C821.25 177.916 817.622 177.878 814.472 176.187L814.439 176.235C818.641 180.913 817.855 187.52 814.192 190.22C811.528 192.185 807.347 192.083 803.916 189.887C805.761 193.433 805.448 197.614 803.149 200.392C800.288 203.851 794.72 204.68 790.323 201.903L790.048 202.224C790.745 204.19 791.646 207.777 789.855 210.369C788.191 212.775 784.527 213.959 781.846 213.761C782.699 215.007 783.195 216.461 783.279 217.966C783.364 219.471 783.035 220.969 782.327 222.3C780.471 225.579 776.215 227.167 772.215 225.829C770.463 231.022 767.668 232.63 766.504 233.159C763.467 234.54 759.741 233.601 752.288 231.723C749.722 231.077 747.444 230.389 746.563 230.088C741.816 228.468 712.572 215.878 704.047 192.26C693.562 163.213 720.105 133.136 708.621 124.067C708.05 123.616 705.46 121.57 702.772 122.19C695.162 123.94 696.324 144.793 688.966 146.177C686.692 146.605 684.663 144.974 684.509 144.846C677.679 139.197 690.042 122.773 683.56 114.029C677.944 106.456 662.776 110.991 657.309 102.255C656.266 100.699 655.73 98.8604 655.776 96.9912C656.01 92.3597 660.373 89.4308 661.284 88.8456C656.373 89.7102 652.069 86.0187 651.936 81.8701C651.817 78.107 655.146 74.4355 659.631 74.283C652.352 68.8181 651.268 60.3932 654.568 56.5591Z" fill="#171C22"/>
<path d="M702.492 54.772C702.614 54.7458 702.687 54.5506 702.698 54.1667C702.667 53.6102 702.504 53.0688 702.221 52.5872C701.777 51.8172 701.169 51.1533 700.439 50.6421C699.493 49.9794 698.434 49.4937 697.314 49.2085C696.667 49.0374 696.006 48.9259 695.339 48.8754C694.626 48.8162 693.91 48.8132 693.198 48.8664C691.567 48.9791 689.977 49.4251 688.528 50.1768C687.711 50.6079 686.96 51.152 686.296 51.793C685.586 52.4947 685.002 53.3132 684.57 54.2127C684.119 55.1448 683.836 56.1484 683.732 57.1784C683.715 57.445 683.696 57.7127 683.697 57.9832L683.711 58.3766C683.711 58.3221 683.71 58.3618 683.71 58.3495C683.71 58.3495 683.718 58.3581 683.715 58.3645C683.712 58.371 683.723 58.3745 683.691 58.3729C683.258 58.2868 682.813 58.2273 682.373 58.1701C680.528 57.8972 678.644 58.1563 676.944 58.9168C676.098 59.3442 675.353 59.9457 674.758 60.6815C674.218 61.3778 673.829 62.1776 673.613 63.031C673.275 64.4451 673.335 65.925 673.784 67.3095C674.128 68.3637 674.647 69.3534 675.319 70.2376C675.789 70.87 676.317 71.4587 676.894 71.9965C677.833 72.8589 678.452 73.217 678.641 73.0661C678.83 72.9152 678.569 72.2377 678.002 71.1554C677.723 70.6138 677.376 69.9673 677.041 69.2217C676.667 68.4236 676.401 67.58 676.248 66.7128C676.085 65.7637 676.162 64.7897 676.472 63.8785C676.632 63.4451 676.875 63.0471 677.188 62.7066C677.524 62.3669 677.924 62.096 678.365 61.9092C679.514 61.5209 680.745 61.4388 681.937 61.6709C682.285 61.7303 682.635 61.7849 682.996 61.8691C683.364 61.9351 683.78 62.0603 684.177 62.1646C684.574 62.2689 684.979 62.3761 685.402 62.5198L690.259 64.0769L689.213 62.2584L688.141 60.3956C687.975 60.1252 687.822 59.8466 687.684 59.5609L687.478 58.8844L687.376 58.5468C687.351 58.4326 687.336 58.3164 687.333 58.1996L687.322 57.9591C687.319 57.8084 687.33 57.6555 687.334 57.5036C687.389 56.8872 687.546 56.2842 687.798 55.719C688.039 55.1706 688.368 54.6652 688.773 54.2228C689.191 53.7801 689.667 53.3952 690.188 53.0782C691.227 52.4616 692.373 52.0438 693.566 51.8464C694.13 51.7481 694.699 51.6884 695.271 51.6677C695.789 51.6437 696.309 51.6612 696.825 51.7201C697.715 51.8152 698.586 52.0391 699.412 52.3849C700.025 52.6473 700.593 53.0028 701.097 53.4386C701.425 53.7357 701.729 54.0586 702.006 54.4042C702.201 54.6583 702.37 54.7986 702.492 54.772Z" fill="#A2A2A2"/>
<path d="M801.362 159.826C801.322 159.908 801.42 160.049 801.662 160.251C802.024 160.53 802.425 160.754 802.853 160.918C804.502 161.56 806.307 161.695 808.032 161.305C809.297 161.043 810.493 160.526 811.549 159.786C812.801 158.892 813.827 157.718 814.543 156.359C815.373 154.811 815.799 153.08 815.781 151.323C815.783 150.324 815.609 149.331 815.268 148.391C815.069 147.89 814.819 147.411 814.521 146.961C814.364 146.731 814.194 146.511 814.012 146.299L813.942 146.219L813.907 146.178C813.958 146.238 813.92 146.193 813.931 146.205L813.923 146.192L813.906 146.168C813.888 146.141 813.864 146.118 813.836 146.1C813.831 146.097 813.826 146.095 813.82 146.094C813.814 146.093 813.808 146.094 813.802 146.095C813.8 146.096 813.798 146.096 813.796 146.097C813.794 146.099 813.792 146.1 813.791 146.102C813.779 146.107 813.815 146.097 813.824 146.096L813.969 146.06L814.029 146.046C813.933 146.116 814.29 145.876 814.468 145.75C814.687 145.607 814.898 145.454 815.101 145.29C815.952 144.643 816.731 143.908 817.425 143.097L817.945 142.464L818.425 141.789C818.739 141.325 819.022 140.841 819.272 140.34C819.531 139.829 819.755 139.303 819.944 138.763C820.13 138.211 820.276 137.646 820.381 137.072C820.464 136.661 820.518 136.245 820.542 135.826C820.577 135.401 820.582 134.973 820.556 134.546C820.507 133.703 820.357 132.868 820.109 132.06C819.979 131.665 819.825 131.286 819.677 130.904C819.494 130.541 819.322 130.172 819.124 129.821C818.721 129.133 818.251 128.486 817.722 127.888C817.197 127.302 816.612 126.771 815.976 126.305C815.346 125.838 814.662 125.448 813.938 125.144C813.58 124.982 813.21 124.851 812.83 124.753L812.687 124.716C812.647 124.706 812.679 124.714 812.673 124.712C812.666 124.711 812.666 124.711 812.662 124.715L812.628 124.717C812.569 124.721 812.51 124.73 812.453 124.745C812.373 124.77 812.397 124.741 812.41 124.714L812.455 124.617C812.483 124.552 812.517 124.489 812.557 124.43L812.886 123.93C813.008 123.736 813.129 123.549 813.24 123.352C814.175 121.841 814.774 120.147 814.999 118.385C815.192 116.771 814.946 115.135 814.288 113.646C813.707 112.323 812.694 111.232 811.414 110.552C810.39 110.047 809.243 109.845 808.109 109.97C807.285 110.058 806.497 110.355 805.821 110.833C805.405 111.122 805.068 111.508 804.839 111.958C804.711 112.277 804.696 112.454 804.772 112.504C804.848 112.553 805.022 112.478 805.258 112.311C805.597 112.089 805.961 111.907 806.342 111.769C806.927 111.566 807.548 111.486 808.166 111.534C808.968 111.593 809.741 111.858 810.412 112.302C811.179 112.867 811.749 113.658 812.039 114.564C812.395 115.675 812.463 116.858 812.235 118.002C811.952 119.34 811.399 120.606 810.611 121.725C810.511 121.881 810.397 122.033 810.289 122.191L809.894 122.72C809.481 123.266 808.93 123.929 808.358 124.565L806.563 126.542C806.26 126.875 805.957 127.208 805.653 127.541L805.424 127.792L805.251 127.995L804.901 128.404L807.395 128.113L808.765 127.956L809.931 127.892C810.309 127.882 810.742 127.824 811.082 127.852C811.241 127.872 811.398 127.902 811.554 127.94L811.856 128.031C812.095 128.099 812.328 128.189 812.55 128.301C813.022 128.516 813.467 128.787 813.876 129.106C814.304 129.439 814.698 129.814 815.051 130.226C815.409 130.649 815.728 131.104 816.003 131.585C816.135 131.83 816.247 132.082 816.374 132.332L816.657 133.115C816.811 133.642 816.904 134.184 816.935 134.731C816.962 135.296 816.92 135.861 816.81 136.415C816.737 136.816 816.636 137.211 816.508 137.597C816.372 137.984 816.213 138.361 816.03 138.728C815.85 139.097 815.645 139.454 815.417 139.797L815.068 140.307L814.681 140.787C814.417 141.105 814.136 141.408 813.84 141.696C813.547 141.983 813.238 142.254 812.915 142.508C812.76 142.641 812.597 142.765 812.427 142.878L812.178 143.055L812.011 143.174C811.906 143.242 811.808 143.293 811.702 143.349L810.455 144.009L810.146 144.173L809.779 144.316L809.046 144.597L809.274 145.266L809.391 145.639L809.448 145.823C809.456 145.883 809.548 145.955 809.327 145.981L808.439 146.2L807.999 146.309L807.78 146.363C806.257 146.429 809.854 146.274 809.484 146.291L809.485 146.286L809.488 146.276L809.496 146.259C809.521 146.226 809.537 146.189 809.543 146.149C809.543 146.112 809.562 146.132 809.576 146.136C809.609 146.175 809.638 146.218 809.662 146.264L809.714 146.366C809.734 146.407 809.744 146.421 809.773 146.484L809.924 146.817C810.072 147.171 810.219 147.524 810.366 147.872C810.617 147.808 810.584 147.874 810.659 147.894L810.819 147.978L811.14 148.145C811.246 148.189 811.345 148.249 811.434 148.323L811.573 148.466C811.676 148.575 811.773 148.688 811.864 148.807C812.042 149.053 812.197 149.316 812.326 149.59C812.562 150.178 812.7 150.801 812.733 151.433C812.819 152.71 812.594 153.988 812.077 155.158C811.624 156.21 810.944 157.149 810.085 157.909C809.325 158.564 808.449 159.071 807.501 159.404C806.096 159.899 804.596 160.07 803.113 159.905C802.582 159.855 802.164 159.788 801.872 159.757C801.579 159.725 801.401 159.744 801.362 159.826Z" fill="#A2A2A2"/>
<path d="M827.415 101.565C827.493 101.615 827.622 101.573 827.807 101.426C828.066 101.204 828.274 100.928 828.417 100.617C828.664 100.12 828.811 99.5793 828.849 99.0253C828.908 98.2736 828.82 97.5173 828.59 96.7985C828.304 95.8944 827.834 95.0588 827.208 94.3444C826.844 93.929 826.428 93.5619 825.97 93.2521C825.494 92.9242 824.983 92.6499 824.447 92.4344C823.293 91.9794 822.064 91.748 820.825 91.7528C820.52 91.7475 820.145 91.7697 819.897 91.7795C819.845 91.7813 819.793 91.7781 819.741 91.77C819.688 91.7564 819.635 91.7646 819.629 91.7414L819.69 91.6229C819.701 91.5814 819.723 91.6104 819.728 91.311C819.735 90.2332 819.559 89.1616 819.209 88.1411C819.032 87.6154 818.807 87.1065 818.539 86.6208C818.27 86.1191 817.953 85.6446 817.591 85.2042C817.223 84.7478 816.81 84.3286 816.359 83.9524C816.132 83.7597 815.881 83.5913 815.639 83.4127C815.384 83.2548 815.125 83.0951 814.86 82.9519C814.626 82.84 814.394 82.7234 814.158 82.622L813.44 82.3564L812.71 82.154L811.976 82.0141C811.489 81.9445 810.999 81.9087 810.508 81.907C810.026 81.9083 809.545 81.9446 809.068 82.0157C808.597 82.0827 808.133 82.1871 807.679 82.3278C807.452 82.3909 807.229 82.4674 807.011 82.5572C806.804 82.639 806.516 82.7514 806.523 82.7605C806.473 82.7853 806.424 82.8125 806.377 82.8422L806.356 82.8679L806.299 82.9403C806.197 82.8121 806.441 83.3439 805.645 81.5647C805.068 80.4125 804.313 79.3576 803.407 78.4387C802.626 77.6307 801.744 76.9268 800.782 76.3448C799.965 75.8527 799.093 75.4595 798.183 75.1733L797.582 74.9901L796.998 74.8727C796.648 74.793 796.291 74.7432 795.932 74.724C795.368 74.6711 794.801 74.6811 794.239 74.7537C793.887 74.7955 793.542 74.8861 793.215 75.023C792.99 75.1204 792.882 75.2188 792.889 75.3156C792.896 75.4123 793.02 75.5056 793.241 75.5947C793.462 75.6837 793.78 75.7455 794.18 75.8687C794.58 75.9919 795.065 76.1051 795.604 76.3159C795.897 76.4101 796.184 76.5243 796.462 76.6578L796.921 76.8554L797.387 77.108C798.082 77.4781 798.741 77.9132 799.353 78.4075C800.056 78.9776 800.691 79.6245 801.249 80.3359C801.873 81.1107 802.381 81.971 802.758 82.8901C802.864 83.1255 802.953 83.3682 803.023 83.6164L803.085 83.8017L803.116 83.8974C803.15 83.9834 803.176 84.0723 803.194 84.1629C803.257 84.4602 803.299 84.7888 803.353 85.1042C803.581 86.3796 803.73 87.713 803.913 89.0147C804.542 88.4858 805.178 87.9521 805.82 87.4134C806.148 87.1485 806.478 86.8831 806.809 86.6172C806.891 86.554 806.979 86.4772 807.055 86.4256L807.262 86.3148L807.682 86.094C807.859 85.9876 808.048 85.9034 808.246 85.8433C808.386 85.7899 808.528 85.746 808.674 85.7121C808.967 85.6301 809.265 85.5717 809.568 85.5377C809.874 85.4986 810.183 85.4807 810.492 85.4842C810.802 85.492 811.111 85.5189 811.417 85.5649L811.874 85.6571L812.321 85.7844L812.754 85.9472L813.169 86.1439L813.625 86.411C813.763 86.5188 813.912 86.6112 814.046 86.7251C814.318 86.9498 814.569 87.1994 814.795 87.4707C815.026 87.7413 815.23 88.0341 815.403 88.3448C815.582 88.6512 815.734 88.973 815.856 89.3062C816.1 89.9538 816.239 90.6359 816.267 91.3267L816.271 91.3901C816.271 91.4157 816.263 91.4795 816.259 91.5227L816.231 91.8096L816.176 92.3801L816.162 92.5215L816.112 92.6964L816.012 93.0447L815.815 93.7376C815.538 94.6453 815.264 95.5415 814.994 96.426C816.144 96.0677 817.44 95.6158 818.588 95.2703C818.868 95.1968 819.16 95.1021 819.421 95.0483L820.169 94.9142C820.486 94.8678 820.668 94.8434 820.919 94.8263C821.791 94.7475 822.671 94.8223 823.518 95.0473C823.894 95.1503 824.258 95.2918 824.604 95.4698C824.919 95.624 825.215 95.8165 825.483 96.0428C825.981 96.4661 826.4 96.9755 826.717 97.5465C826.984 98.0235 827.175 98.5389 827.283 99.0741C827.368 99.4832 827.401 99.9011 827.382 100.318C827.37 100.668 827.338 100.959 827.32 101.16C827.302 101.361 827.337 101.514 827.415 101.565Z" fill="#A2A2A2"/>
<path d="M786.866 135.557C787.021 135.732 787.594 135.589 788.392 134.955C789.494 134.001 790.323 132.772 790.793 131.394C791.141 130.428 791.339 129.415 791.379 128.389C791.43 127.177 791.257 125.965 790.867 124.815C790.417 123.535 789.722 122.354 788.822 121.337C787.855 120.257 786.688 119.374 785.384 118.737C785.025 118.56 784.655 118.404 784.278 118.27C784.188 118.231 784.096 118.2 784.001 118.176C783.966 118.165 783.931 118.156 783.896 118.149C783.875 118.158 783.853 118.165 783.83 118.169C783.819 118.166 783.81 118.164 783.804 118.145C783.795 118.149 783.817 118.097 783.828 118.052L783.85 117.985L783.977 117.647C784.368 116.654 784.59 115.602 784.632 114.536C784.678 113.606 784.595 112.674 784.386 111.766C784.203 110.994 783.922 110.248 783.55 109.546C783.397 109.241 783.218 108.95 783.014 108.676C782.847 108.425 782.658 108.189 782.449 107.971C782.133 107.615 781.771 107.301 781.373 107.037C781.123 106.866 780.845 106.738 780.552 106.66C780.347 106.608 780.207 106.627 780.139 106.711C780.071 106.795 780.073 106.941 780.134 107.136C780.23 107.387 780.34 107.633 780.464 107.872C780.604 108.178 780.792 108.524 780.954 108.95C781.051 109.169 781.135 109.394 781.202 109.624C781.294 109.874 781.368 110.13 781.424 110.39C781.569 110.977 781.659 111.575 781.694 112.178C781.727 112.863 781.683 113.548 781.564 114.223C781.444 114.953 781.216 115.661 780.886 116.323L780.827 116.453C780.801 116.519 780.764 116.58 780.72 116.636L780.333 117.195L779.938 117.764L779.839 117.908L779.695 118.068L779.398 118.393L777.07 120.954L779.196 121.107L780.342 121.191L781.45 121.294C781.759 121.32 782.064 121.381 782.359 121.475C782.591 121.526 782.82 121.591 783.044 121.67C783.3 121.763 783.55 121.87 783.793 121.992C784.69 122.43 785.505 123.019 786.201 123.733C786.838 124.398 787.358 125.165 787.742 126C788.368 127.499 788.565 129.14 788.311 130.741C788.127 131.899 787.781 133.024 787.283 134.085C786.922 134.867 786.689 135.362 786.866 135.557Z" fill="#A2A2A2"/>
<path d="M758.492 57.8459C758.713 57.7676 758.792 57.185 758.496 56.2087C758.015 54.833 757.177 53.6079 756.068 52.6582C755.296 51.9756 754.425 51.4138 753.485 50.9923C752.374 50.4924 751.181 50.2 749.966 50.1298C748.607 50.0688 747.249 50.27 745.968 50.7222C744.605 51.2128 743.35 51.9629 742.275 52.9307C741.977 53.1959 741.696 53.4786 741.432 53.7774C741.363 53.8457 741.299 53.9195 741.242 53.9983C741.219 54.026 741.197 54.0551 741.178 54.0854C741.179 54.1092 741.177 54.1331 741.172 54.1564C741.169 54.1673 741.158 54.1718 741.139 54.1711C741.14 54.1809 741.098 54.144 741.062 54.1145L741.006 54.0683L740.737 53.8243C739.957 53.091 739.06 52.493 738.082 52.0553C737.233 51.6654 736.334 51.3935 735.411 51.2471C734.624 51.1278 733.824 51.1091 733.033 51.1915C732.692 51.2189 732.354 51.2759 732.023 51.3616C731.727 51.422 731.437 51.5087 731.157 51.6205C730.707 51.7798 730.281 51.9969 729.888 52.2663C729.636 52.4334 729.414 52.6424 729.233 52.8843C729.108 53.0587 729.074 53.192 729.13 53.2876C729.187 53.3831 729.321 53.4333 729.525 53.4508C729.795 53.4555 730.065 53.4449 730.333 53.4191C730.671 53.4031 731.061 53.3602 731.519 53.3699C731.759 53.3611 732.001 53.3686 732.24 53.3921C732.507 53.4006 732.773 53.4278 733.036 53.4737C733.636 53.5582 734.227 53.698 734.801 53.8915C735.451 54.1169 736.074 54.4139 736.658 54.777C737.294 55.1608 737.869 55.6361 738.365 56.1876L738.463 56.2909C738.514 56.34 738.559 56.3964 738.594 56.4585L738.971 57.0258L739.355 57.6023L739.453 57.7481L739.549 57.9422L739.742 58.3373L741.255 61.446C741.562 60.8158 741.872 60.1794 742.185 59.5369L742.688 58.5062C742.855 58.1786 743.024 57.8499 743.193 57.5203C743.332 57.2445 743.502 56.9853 743.699 56.7476C743.832 56.5521 743.977 56.3649 744.133 56.187C744.315 55.9853 744.507 55.7939 744.71 55.6136C745.451 54.9486 746.301 54.4154 747.223 54.0374C748.079 53.6972 748.987 53.5028 749.908 53.4624C751.536 53.4429 753.139 53.874 754.537 54.7078C755.547 55.3097 756.468 56.0502 757.272 56.9073C757.871 57.5372 758.244 57.9361 758.492 57.8459Z" fill="#A2A2A2"/>
<path d="M1405 1286.66C1405 1286.66 1562.96 966.365 1395.07 863.947C1227.19 761.53 133.941 817.877 133.941 817.877L0.745117 1100.48L1405 1286.66Z" fill="#171C22"/>
<path d="M226.613 896.848L259.148 899.695L246.471 1044.59L213.936 1041.75L226.613 896.848Z" fill="#ECECEC"/>
<path d="M287.132 941.12C292.549 940.049 299.484 939.251 307.936 938.726C316.4 938.062 325.22 938.132 334.397 938.935C343.712 939.75 351.319 941.679 357.217 944.723C363.267 947.64 367.904 951.487 371.128 956.264C374.353 961.041 376.462 966.563 377.455 972.83C378.447 979.097 378.615 985.994 377.956 993.521L372.523 1055.62L341.448 1052.9L346.552 994.566C347.43 984.53 346.731 977.305 344.455 972.892C342.179 968.48 337.427 965.957 330.197 965.324C327.972 965.13 325.596 965.062 323.069 965.122C320.554 965.043 318.311 965.057 316.341 965.166L308.914 1050.05L277.839 1047.34L287.132 941.12Z" fill="#ECECEC"/>
<path d="M432.021 1004.57C431.18 1014.19 432.658 1022.11 436.456 1028.35C440.254 1034.58 446.393 1038.06 454.875 1038.81C457.655 1039.05 460.234 1039.21 462.61 1039.27C464.998 1039.2 466.968 1039.09 468.522 1038.95L473.48 982.284C471.643 980.86 469.162 979.589 466.037 978.473C463.052 977.369 459.96 976.677 456.762 976.397C442.024 975.108 433.777 984.5 432.021 1004.57ZM497.731 1062.99C494.877 1063.59 491.606 1064.14 487.918 1064.66C484.242 1065.04 480.364 1065.34 476.283 1065.54C472.341 1065.76 468.272 1065.82 464.077 1065.74C460.008 1065.8 456.097 1065.67 452.343 1065.34C443.306 1064.55 435.357 1062.52 428.498 1059.25C421.639 1055.98 415.99 1051.7 411.55 1046.39C407.123 1040.95 403.893 1034.63 401.861 1027.43C399.981 1020.1 399.424 1012.04 400.193 1003.26C400.973 994.341 402.787 986.423 405.633 979.509C408.492 972.455 412.226 966.602 416.837 961.949C421.447 957.295 426.857 953.906 433.067 951.781C439.416 949.668 446.484 948.952 454.27 949.633C458.58 950.01 462.367 950.763 465.631 951.891C469.034 953.031 472.406 954.52 475.748 956.358L480.102 906.595L511.615 904.296L497.731 1062.99Z" fill="#ECECEC"/>
<path d="M620.488 1073.52C615.07 1074.59 608.135 1075.39 599.683 1075.92C591.219 1076.58 582.399 1076.51 573.222 1075.71C563.907 1074.89 556.231 1072.96 550.193 1069.9C544.295 1066.86 539.734 1062.95 536.509 1058.17C533.297 1053.25 531.2 1047.59 530.22 1041.18C529.239 1034.78 529.078 1027.81 529.736 1020.28L535.096 959.022L566.171 961.74L561.14 1019.24C560.262 1029.28 560.949 1036.64 563.2 1041.33C565.452 1046.02 570.193 1048.68 577.423 1049.32C579.647 1049.51 582.017 1049.65 584.532 1049.73C587.059 1049.67 589.308 1049.58 591.279 1049.48L598.706 964.587L629.78 967.306L620.488 1073.52Z" fill="#ECECEC"/>
<path d="M682.778 1060.22C688.478 1060.72 692.559 1060.51 695.02 1059.61C697.481 1058.7 698.852 1056.64 699.133 1053.43C699.352 1050.93 698.012 1048.63 695.112 1046.55C692.223 1044.33 687.755 1041.76 681.705 1038.85C676.998 1036.61 672.713 1034.34 668.852 1032.03C665.129 1029.74 661.994 1027.15 659.445 1024.26C656.908 1021.23 655.039 1017.76 653.839 1013.87C652.639 1009.97 652.271 1005.37 652.734 1000.07C653.637 989.759 658.174 981.939 666.345 976.614C674.516 971.29 685.276 969.211 698.624 970.379C705.297 970.963 711.638 972.15 717.646 973.939C723.666 975.59 728.423 977.27 731.916 978.98L724.371 1002.76C720.866 1001.19 717.001 999.727 712.776 998.374C708.69 997.034 704.006 996.132 698.722 995.67C688.99 994.819 683.886 997.111 683.41 1002.55C683.3 1003.8 683.411 1004.94 683.743 1005.95C684.075 1006.96 684.824 1008.01 685.99 1009.09C687.168 1010.04 688.751 1011.16 690.739 1012.46C692.878 1013.63 695.561 1014.99 698.789 1016.53C705.382 1019.64 710.793 1022.64 715.023 1025.54C719.265 1028.3 722.509 1031.25 724.756 1034.4C727.153 1037.42 728.687 1040.71 729.355 1044.28C730.162 1047.86 730.365 1051.95 729.962 1056.55C729.011 1067.43 724.19 1075.29 715.499 1080.15C706.947 1085.02 695.233 1086.8 680.356 1085.5C670.623 1084.65 662.563 1083.1 656.174 1080.86C649.925 1078.63 645.598 1076.84 643.193 1075.51L650.62 1050.66C655.72 1053.22 660.996 1055.36 666.448 1057.11C671.912 1058.71 677.355 1059.75 682.778 1060.22Z" fill="#ECECEC"/>
<path d="M761.527 951.232L793.041 948.932L790.205 981.341L827.537 984.607L825.268 1010.53L787.937 1007.27L784.553 1045.95C783.98 1052.5 784.635 1057.82 786.518 1061.92C788.54 1066.03 793.027 1068.39 799.979 1069C803.316 1069.29 806.746 1069.31 810.271 1069.06C813.947 1068.68 817.294 1068.06 820.311 1067.2L822.569 1091.83C818.681 1093.04 814.394 1094 809.708 1094.71C805.022 1095.43 799.342 1095.49 792.668 1094.91C784.187 1094.16 777.263 1092.43 771.897 1089.72C766.543 1086.86 762.374 1083.27 759.391 1078.93C756.42 1074.46 754.495 1069.23 753.617 1063.26C752.878 1057.29 752.819 1050.76 753.441 1043.65L761.527 951.232Z" fill="#ECECEC"/>
<path d="M916.539 1020.2C913.82 1019.26 910.613 1018.28 906.92 1017.26C903.239 1016.09 899.244 1015.32 894.934 1014.94C892.987 1014.77 890.605 1014.78 887.788 1014.95C885.122 1015 883.075 1015.17 881.648 1015.47L874.295 1099.52L843.22 1096.8L852.33 992.675C858.062 991.21 864.755 989.97 872.41 988.954C880.215 987.811 888.776 987.647 898.091 988.462C899.76 988.608 901.763 988.924 904.103 989.409C906.454 989.756 908.793 990.241 911.12 990.866C913.46 991.352 915.787 991.977 918.101 992.741C920.428 993.366 922.396 994.1 924.003 994.943L916.539 1020.2Z" fill="#ECECEC"/>
<path d="M962.279 1107.22L931.204 1104.5L940.826 994.518L971.901 997.237L962.279 1107.22ZM977.601 965.711C977.101 971.426 974.828 975.792 970.781 978.809C966.886 981.699 962.435 982.925 957.43 982.487C952.425 982.049 948.185 980.063 944.712 976.529C941.39 972.867 939.978 968.179 940.478 962.464C940.978 956.749 943.176 952.446 947.072 949.556C951.118 946.539 955.644 945.25 960.65 945.688C965.655 946.126 969.819 948.176 973.141 951.837C976.614 955.372 978.101 959.996 977.601 965.711Z" fill="#ECECEC"/>
<path d="M1098.93 1063.55C1098.17 1072.19 1096.23 1080.03 1093.09 1087.06C1089.96 1093.95 1085.81 1099.77 1080.63 1104.51C1075.47 1109.11 1069.43 1112.52 1062.51 1114.72C1055.73 1116.94 1048.24 1117.69 1040.04 1116.97C1031.97 1116.26 1024.72 1114.23 1018.29 1110.85C1012 1107.49 1006.71 1103.1 1002.43 1097.67C998.15 1092.1 995.002 1085.64 992.982 1078.3C990.975 1070.82 990.349 1062.76 991.105 1054.12C991.861 1045.48 993.871 1037.72 997.135 1030.84C1000.54 1023.97 1004.82 1018.24 1009.99 1013.63C1015.29 1009.04 1021.34 1005.64 1028.11 1003.42C1035.03 1001.22 1042.38 1000.45 1050.17 1001.14C1058.1 1001.83 1065.2 1003.86 1071.49 1007.21C1077.92 1010.59 1083.28 1014.99 1087.57 1020.42C1091.86 1025.85 1095.01 1032.24 1097.03 1039.58C1099.05 1046.92 1099.68 1054.91 1098.93 1063.55ZM1067.23 1060.78C1068.07 1051.16 1066.78 1043.46 1063.36 1037.69C1060.1 1031.78 1054.92 1028.52 1047.83 1027.9C1040.74 1027.28 1035 1029.59 1030.62 1034.82C1026.25 1039.92 1023.65 1047.27 1022.81 1056.89C1021.96 1066.51 1023.24 1074.35 1026.63 1080.4C1030.04 1086.32 1035.29 1089.59 1042.38 1090.21C1049.47 1090.83 1055.13 1088.51 1059.38 1083.27C1063.77 1077.89 1066.39 1070.4 1067.23 1060.78Z" fill="#ECECEC"/>
<path d="M1212.14 1125.28C1206.72 1126.36 1199.79 1127.15 1191.34 1127.68C1182.87 1128.34 1174.05 1128.27 1164.88 1127.47C1155.56 1126.66 1147.88 1124.72 1141.85 1121.66C1135.95 1118.62 1131.39 1114.71 1128.16 1109.93C1124.95 1105.02 1122.85 1099.35 1121.87 1092.95C1120.89 1086.54 1120.73 1079.57 1121.39 1072.05L1126.75 1010.78L1157.83 1013.5L1152.79 1071C1151.92 1081.04 1152.6 1088.4 1154.85 1093.09C1157.11 1097.79 1161.85 1100.45 1169.08 1101.08C1171.3 1101.27 1173.67 1101.41 1176.19 1101.49C1178.71 1101.43 1180.96 1101.35 1182.93 1101.24L1190.36 1016.35L1221.43 1019.07L1212.14 1125.28Z" fill="#ECECEC"/>
<path d="M1274.43 1111.98C1280.13 1112.48 1284.21 1112.28 1286.67 1111.37C1289.14 1110.46 1290.51 1108.4 1290.79 1105.2C1291.01 1102.69 1289.67 1100.39 1286.77 1098.31C1283.88 1096.1 1279.41 1093.53 1273.36 1090.61C1268.65 1088.37 1264.37 1086.1 1260.51 1083.8C1256.78 1081.5 1253.65 1078.91 1251.1 1076.02C1248.56 1072.99 1246.69 1069.53 1245.49 1065.63C1244.29 1061.73 1243.92 1057.13 1244.39 1051.84C1245.29 1041.52 1249.83 1033.7 1258 1028.38C1266.17 1023.05 1276.93 1020.97 1290.28 1022.14C1296.95 1022.73 1303.29 1023.91 1309.3 1025.7C1315.32 1027.35 1320.08 1029.03 1323.57 1030.74L1316.03 1054.52C1312.52 1052.95 1308.66 1051.49 1304.43 1050.14C1300.34 1048.8 1295.66 1047.9 1290.38 1047.43C1280.64 1046.58 1275.54 1048.87 1275.06 1054.31C1274.95 1055.56 1275.07 1056.7 1275.4 1057.71C1275.73 1058.72 1276.48 1059.77 1277.64 1060.86C1278.82 1061.8 1280.41 1062.92 1282.39 1064.22C1284.53 1065.39 1287.22 1066.75 1290.44 1068.3C1297.04 1071.4 1302.45 1074.4 1306.68 1077.3C1310.92 1080.06 1314.16 1083.01 1316.41 1086.16C1318.81 1089.18 1320.34 1092.47 1321.01 1096.04C1321.82 1099.63 1322.02 1103.72 1321.62 1108.32C1320.67 1119.19 1315.84 1127.05 1307.15 1131.91C1298.6 1136.78 1286.89 1138.57 1272.01 1137.26C1262.28 1136.41 1254.22 1134.87 1247.83 1132.62C1241.58 1130.39 1237.25 1128.61 1234.85 1127.27L1242.27 1102.43C1247.37 1104.98 1252.65 1107.13 1258.1 1108.87C1263.57 1110.47 1269.01 1111.51 1274.43 1111.98Z" fill="#ECECEC"/>
</svg>
