<svg width="1763" height="2933" viewBox="0 0 1763 2933" fill="none" xmlns="http://www.w3.org/2000/svg">
<path d="M426.998 215.52C426.901 216.299 426.824 217.05 426.734 217.815C426.809 217.05 426.899 216.285 426.998 215.52Z" fill="#B39370"/>
<path d="M460.962 398.782C489.237 412.089 508.175 413.384 525.272 405.546C539.782 398.894 549.457 373.036 558.523 344.144C568.951 344.788 579.63 344.042 589.062 342.835C591.436 342.532 593.758 342.044 596.053 341.478C599.526 338.578 602.652 335.289 605.31 331.656C607.107 329.198 608.841 326.726 610.543 324.246C612.645 321.188 614.681 318.119 616.676 315.046C617.658 313.533 618.635 312.023 619.6 310.512C622.533 305.91 625.404 301.315 628.265 296.744C636.992 282.801 645.713 269.137 656.428 256.569C656.443 256.573 656.457 256.578 656.469 256.583C663.028 248.899 670.331 241.622 678.843 234.939C688.886 227.053 700.76 218.268 701.321 205.479C701.805 194.47 692.886 184.743 682.55 181.037C669.494 176.357 644.869 189.076 632.361 195.73L632.388 195.635C647.655 158.083 653.376 117.697 656.06 78.0072C656.982 64.3993 657.504 50.3566 653.091 38.1428C648.677 25.929 638.093 15.9277 625.525 16.9526C614.72 17.8342 604.993 26.592 598.996 37.0523C598.96 36.7002 598.933 36.3431 598.897 35.991C597.92 26.3467 595.161 15.0266 588.302 7.62401C585.712 4.82859 582.559 2.57235 578.668 1.205C570.129 -1.73613 560.511 0.809129 554.059 7.72115C548.932 13.3363 546.5 20.6903 544.391 28.0298C544.185 28.739 543.982 29.4481 543.784 30.1549L543.356 31.6679C543.056 31.0146 542.737 30.3735 542.408 29.7396C538.94 23.0607 533.804 17.5063 526.169 15.3035C517.468 12.8554 507.981 15.9349 501.889 23.1846C497.773 28.1974 495.682 34.3565 494.088 40.6662C493.629 42.478 493.205 44.3019 492.794 46.1162L492.226 48.6226C491.783 48.4647 491.358 48.2874 490.896 48.1538C489.945 47.8867 488.985 47.7118 488.02 47.5758C480.161 46.4562 472.04 49.577 466.614 56.0325C461.315 62.4855 459.364 70.8377 457.519 78.9641L437.195 168.509L429.154 203.934C428.308 207.662 427.515 211.555 427.002 215.492C427.002 215.502 427 215.509 427 215.519C426.903 216.299 426.826 217.049 426.736 217.814C423.945 241.882 425.302 259.347 436.368 275.418C430.216 293.567 418.978 324.788 412.923 340.715C401.758 370.085 440.312 389.068 460.962 398.782Z" fill="#B39370"/>
<path d="M427 215.494L427.003 215.491L426.998 215.518L427 215.494Z" fill="#B39370"/>
<path d="M542.67 244.064C545.794 243.467 548.945 243.071 552.104 242.877C559.622 242.391 567.09 243.547 574.021 246.269C574.504 246.456 574.971 246.682 575.447 246.879C577.858 247.875 580.226 248.973 582.514 250.231C587.319 252.824 590.477 254.894 591.793 253.818C592.414 253.305 592.46 252.057 591.841 250.243C590.886 247.78 589.498 245.534 587.747 243.613C585.193 240.701 582.187 238.252 578.843 236.356C577.832 235.775 576.799 235.246 575.747 234.76C568.12 231.241 559.501 230.274 551.073 232.057C547.24 232.841 543.528 234.252 540.077 236.232C537.741 237.521 535.633 239.226 533.85 241.266C532.622 242.792 532.223 243.984 532.627 244.657C533.488 246.07 537.204 245.065 542.67 244.064Z" fill="#5E3F26"/>
<path d="M550.336 215.091C550.732 215.089 551.146 214.484 551.576 213.35C552.118 211.73 552.578 210.088 552.952 208.425C553.015 208.145 553.088 207.835 553.156 207.538C553.601 205.6 554.12 203.334 554.715 200.736C555.436 197.76 556.239 194.392 557.255 190.708C559.429 182.7 562.144 174.841 565.337 167.169C565.564 166.622 565.774 166.066 566.006 165.522C568.001 160.934 570.267 156.206 572.853 151.438C575.418 146.62 578.354 142.032 581.626 136.798C585.111 131.482 587.877 125.716 589.836 119.669C591.442 113.949 592.271 108.055 592.298 102.163C592.397 96.7419 592.093 91.7971 591.856 87.2749C591.602 82.7527 591.42 78.6919 591.473 74.9736C591.44 69.1764 592.163 63.3694 593.621 57.7081C594.704 53.696 595.633 51.3814 594.961 50.8835C594.658 50.648 593.877 50.971 592.835 51.9109C591.914 52.7366 590.789 54.036 589.58 55.9061C588.066 58.3469 586.84 60.9577 585.931 63.6803C584.734 67.2407 583.88 70.8983 583.384 74.6069C582.792 78.9761 582.439 83.3671 582.335 87.7582C582.165 92.3751 582.1 97.2009 581.733 102.075C581.704 102.585 581.641 103.095 581.597 103.605C581.232 107.972 580.427 112.307 579.138 116.526C578.456 118.418 577.663 120.264 576.811 122.083C575.416 125.075 573.827 127.975 572.004 130.729C568.766 135.744 565.765 140.912 563.015 146.217C560.57 151.04 558.408 156.002 556.512 161.061C556.428 161.286 556.326 161.503 556.244 161.729C552.955 170.666 550.628 179.917 549.313 189.306C548.762 193.299 548.491 196.925 548.358 200.099C548.353 200.252 548.358 200.405 548.353 200.558C548.275 203.125 548.317 205.688 548.498 208.238C548.517 208.595 548.573 208.944 548.604 209.299C548.733 210.662 548.933 212.014 549.265 213.336C549.581 214.499 549.939 215.096 550.336 215.091Z" fill="#5E3F26"/>
<path d="M500.311 207.691C501.138 207.538 501.471 204.986 501.851 200.556C502.008 198.346 502.24 195.655 502.533 192.565C502.857 189.476 503.225 185.976 503.878 182.151C504.228 179.917 504.639 177.692 505.104 175.477C506.342 169.583 508.02 163.781 510.054 158.09C510.301 157.398 510.518 156.696 510.777 156.009C512.644 151.054 514.828 146.224 517.309 141.546C517.652 140.888 518.037 140.227 518.402 139.567C520.728 135.377 523.468 131.122 526.276 126.398C529.712 120.9 532.45 114.986 534.413 108.808C536.036 103.035 537.006 97.111 537.301 91.1583C537.652 85.6573 537.651 80.6057 537.726 75.962C537.787 71.3281 537.932 67.1362 538.283 63.3256C538.735 57.3535 539.939 51.4348 541.869 45.725C543.293 41.6788 544.391 39.3667 543.75 38.8251C543.412 38.5239 542.367 38.9562 540.923 40.275C540.063 41.0643 539.057 42.1694 537.971 43.6266C534.157 49.2611 531.531 55.6291 530.268 62.2983C529.32 66.7476 528.636 71.2407 528.22 75.7556C527.739 80.4284 527.376 85.3368 526.793 90.301C526.784 90.3908 526.776 90.4783 526.764 90.5681C526.244 95.6781 525.219 100.739 523.708 105.675C522.668 108.642 521.415 111.525 520.005 114.333C519.178 115.977 518.286 117.59 517.335 119.168C517.067 119.613 516.82 120.069 516.542 120.509C513.512 125.626 510.143 130.87 507.423 136.409C504.804 141.665 502.598 147.115 500.826 152.706C499.186 157.823 497.975 163.047 497.123 168.32C496.41 172.743 495.941 177.199 495.796 181.668C495.663 185.401 495.769 189.126 496.115 192.825C496.359 195.609 496.785 198.365 497.394 201.076C498.403 205.539 499.571 207.835 500.311 207.691Z" fill="#5E3F26"/>
<path d="M465.498 199.61C466.299 199.535 466.966 197.468 467.583 193.861C467.784 192.88 467.958 191.765 468.142 190.568C468.296 189.555 468.454 188.491 468.649 187.333C469.046 184.812 469.493 181.944 469.989 178.772C471.024 172.448 472.434 164.962 474.238 156.659C476.018 148.353 478.243 139.223 480.564 129.564C485.29 110.208 489.021 92.4638 491.132 79.5335C493.256 66.5935 493.8 58.4161 492.264 58.0737C491.56 57.9158 490.477 59.4337 489.118 62.3069C487.507 65.707 485.51 71.0088 483.268 77.78C479.14 90.2877 474.18 107.67 469.428 127.14C467.082 136.909 465.109 146.351 463.842 155.065C462.647 162.803 461.997 170.599 461.9 178.388C461.902 180.557 461.96 182.531 462.055 184.414C462.106 185.426 462.149 186.451 462.234 187.374C462.396 189.487 462.674 191.583 463.044 193.657C463.07 193.8 463.087 193.946 463.114 194.092C463.873 197.742 464.717 199.683 465.498 199.61Z" fill="#5E3F26"/>
<path d="M611.164 126.847C609.179 125.244 608.514 123.323 609.121 121.809C610.016 120.19 611.554 119.041 613.307 118.679C617.723 117.431 622.313 117.188 626.75 117.967C628.511 118.142 630.07 119.128 631.002 120.651C631.538 122.601 630.752 124.738 629.069 125.897C623.79 130.22 616.535 130.601 611.164 126.847Z" fill="#5E3F26"/>
<path d="M543.331 118.878C546.501 120.933 550.153 121.839 553.795 121.657C557.56 121.47 561.311 120.114 564.505 117.598C566.803 115.553 567.552 113.392 566.844 111.99C565.659 110.477 563.828 109.654 561.903 109.771C559.185 109.644 556.46 109.664 553.739 109.829C551.036 109.992 548.332 110.3 545.645 110.752C543.35 111.257 541.471 112.029 540.796 113.562C540.139 115.048 540.963 117.115 543.331 118.878Z" fill="#5E3F26"/>
<path d="M504.264 107.93C500.291 108.756 496.658 106.827 496.153 103.619C495.648 100.411 498.458 97.1416 502.433 96.3158C506.407 95.4876 510.036 97.4184 510.544 100.627C511.047 103.833 508.237 107.102 504.264 107.93Z" fill="#5E3F26"/>
<path d="M457.18 292.036C458.447 293.047 459.813 293.914 461.262 294.628C465.148 296.575 469.407 297.678 473.781 297.872C476.453 298.025 479.145 297.85 481.805 297.355C485.827 296.456 484.473 296.84 484.78 296.855C484.775 296.915 484.755 296.974 484.726 297.027C484.649 296.845 484.891 297.493 485.051 297.916C485.22 298.368 485.382 298.827 485.585 299.266C485.977 300.153 486.371 301.047 486.767 301.945C488.24 305.078 489.957 308.075 491.897 310.909C493.693 313.542 495.674 316.032 497.831 318.356C499.792 320.43 501.889 322.366 504.107 324.143C504.743 324.649 505.405 325.115 506.061 325.591C507.4 326.56 508.764 327.49 510.186 328.33C511.175 328.867 512.114 329.377 513.001 329.863C513.927 330.273 514.8 330.657 515.615 331.019C516.89 331.536 518.201 331.952 519.538 332.292C519.685 332.328 519.833 332.379 519.98 332.415C520.382 332.493 520.716 332.527 521.066 332.573C522.906 332.811 524.065 332.646 524.357 332.02C524.708 331.269 523.876 329.977 522.179 328.311C521.368 327.405 520.297 326.475 519.124 325.326C518.529 324.77 517.898 324.175 517.228 323.543C516.578 322.9 515.891 322.222 515.168 321.511C513.746 320.075 512.22 318.499 510.658 316.746C509.093 314.997 507.519 313.056 505.918 310.985C502.53 306.463 499.589 301.591 497.142 296.439C496.801 295.679 496.462 294.926 496.124 294.178C495.945 293.809 495.805 293.423 495.652 293.047L495.021 291.451C494.385 289.814 493.875 288.077 493.311 286.455C492.762 284.825 492.218 283.21 491.679 281.615C489.186 282.795 486.738 283.949 484.313 285.032C483.413 285.467 482.487 285.826 481.542 286.13C481.498 286.144 481.457 286.169 481.411 286.183C480.918 286.37 480.417 286.533 479.909 286.664C477.972 287.24 475.996 287.628 474.004 287.83C470.572 288.194 467.129 288.097 463.757 287.543C462.29 287.337 460.969 287.048 459.799 286.778C458.597 286.506 457.567 286.273 456.725 286.081C456.021 285.909 455.303 285.811 454.575 285.782C454.012 285.792 453.605 285.931 453.393 286.215C453.177 286.499 453.168 286.919 453.361 287.478C453.649 288.228 454.058 288.918 454.573 289.518C455.354 290.455 456.227 291.3 457.18 292.036Z" fill="#5E3F26"/>
<path d="M697.005 213.744C696.385 215.913 695.457 217.968 694.243 219.845C693.002 221.737 690.985 222.966 688.703 223.223C685.672 223.257 682.899 221.246 681.941 218.32C680.055 212.464 685.909 207.447 690.819 205.985C692.85 205.132 695.256 205.611 696.92 207.196C698.373 209.028 697.725 211.612 697.005 213.744Z" fill="#5E3F26"/>
<path d="M645.884 272.649C644.755 273.786 642.508 273.635 639.986 271.847C637.933 270.191 636.317 268.132 635.094 265.861C632.559 261.169 631.834 255.485 633.379 249.997C634.434 246.929 636.158 245.358 637.689 245.542C639.273 245.729 640.436 247.456 641.461 249.746C641.633 250.188 641.759 250.648 641.925 251.092C643.848 256.207 645.449 261.458 646.629 266.835C647.05 269.339 647.057 271.478 645.884 272.649Z" fill="#5E3F26"/>
<path d="M626.483 282.298C624.541 281.052 623.479 279.021 623.361 276.884C623.276 275.339 623.668 273.739 624.647 272.33C624.877 272.002 625.133 271.689 625.411 271.398C626.642 270.227 628.427 269.829 629.994 270.365C631.382 270.88 632.608 271.721 633.568 272.814C633.595 272.833 633.612 272.86 633.638 272.882C635.387 274.344 635.626 276.935 634.156 278.793C633.433 280.109 632.4 281.248 631.148 282.111C629.723 283.043 627.909 283.118 626.483 282.298Z" fill="#5E3F26"/>
<path d="M586.743 361.354C587.106 360.801 587.396 360.223 587.619 359.615C587.803 359.195 587.965 358.768 588.085 358.326C590.231 350.498 582.081 340.684 567.162 331.127C559.559 326.255 550.198 321.451 539.541 317.011C539.369 316.939 539.192 316.871 539.021 316.8C530.429 313.245 521.007 309.927 510.998 307C508.995 306.415 506.978 305.839 504.93 305.286C502.069 304.513 499.23 303.797 496.415 303.124C495.663 302.944 494.918 302.772 494.171 302.6C488.045 301.184 482.055 300.006 476.259 299.061C464.349 297.118 453.278 296.164 443.595 296.168C441.409 296.171 439.295 296.219 437.256 296.319C419.978 297.159 408.278 301.502 406.167 309.208C406.106 309.424 406.085 309.648 406.041 309.866C406 310.07 405.993 310.279 405.966 310.483C392.412 331.443 240.519 572.868 259.988 836.433C273.291 1016.53 314.946 1145.14 502.26 1444.19C517.464 1284.48 597.913 1197.52 597.913 1197.52C566.149 1163.32 499.624 1069.75 457.377 871.324C415.281 673.622 523.614 498.482 586.743 361.354Z" fill="#E24444"/>
<path d="M536.728 316.574L537.076 315.433C536.805 315.746 536.498 316.052 536.22 316.365C536.389 316.436 536.563 316.504 536.728 316.574Z" fill="#B39370"/>
<path d="M536.431 396.853C534.825 395.165 533.091 393.603 531.249 392.18C528.874 390.247 526.402 388.437 523.846 386.757C521.022 384.867 517.873 382.873 514.364 380.964C512.164 379.684 509.796 378.472 507.329 377.26C505.915 376.566 504.476 375.869 502.996 375.162C500.962 374.195 498.824 373.343 496.655 372.418C494.491 371.48 492.254 370.606 489.942 369.797C485.359 368.058 480.503 366.589 475.522 365.117C470.494 363.813 465.575 362.569 460.753 361.705C458.352 361.207 455.987 360.804 453.651 360.493C451.317 360.17 449.046 359.801 446.807 359.582C442.328 359.157 438.084 358.761 434.084 358.705C432.253 358.628 430.493 358.615 428.781 358.628C426.764 358.645 424.82 358.7 422.987 358.79C419.932 358.914 416.888 359.193 413.862 359.631C411.553 359.903 409.268 360.352 407.026 360.971C403.294 361.999 401.282 363.111 401.314 364.262C401.345 365.413 403.408 366.494 407.043 367.466C408.861 367.934 411.074 368.401 413.628 368.954C416.169 369.428 419.064 369.967 422.264 370.565C425.448 371.14 428.926 371.718 432.633 372.461C436.355 373.09 440.289 373.967 444.434 374.769C446.507 375.174 448.611 375.706 450.77 376.16C452.935 376.605 455.128 377.115 457.351 377.685C461.822 378.703 466.393 379.981 471.099 381.197C475.759 382.579 480.334 383.837 484.694 385.268C486.895 385.924 489.037 386.616 491.122 387.349C493.209 388.07 495.286 388.7 497.272 389.416C501.24 390.866 505.066 392.141 508.58 393.516C512.144 394.788 515.421 396.085 518.451 397.231C521.501 398.368 524.26 399.395 526.685 400.299C529.159 401.139 531.297 401.878 533.099 402.412C536.714 403.454 539.038 403.587 539.655 402.613C540.267 401.649 539.111 399.658 536.431 396.853Z" fill="#171C22"/>
<path d="M504.107 1428.66C501.232 1453.15 494.151 1509.78 492.79 1539.99C492.246 1552.1 490.754 1561.56 490.028 1574.61C485.351 1658.73 475.231 1776.41 478.258 1930.07L482.696 2029.41C484.188 2049.38 486.06 2068.57 488.381 2086.67C501.653 2117.5 505.425 2118.72 523.642 2131.05C610.774 2185.99 904.816 2201.24 1099.07 2179.54C1123.71 2176.79 1143.82 2158.62 1149.09 2134.3C1207.58 1864.16 1256.03 1395.02 1277.53 1298.82C1231.54 1259.95 1152.77 1237.03 927.657 1208.44C784.992 1193.42 670.184 1184.27 597.92 1197.52C597.913 1197.51 502.768 1252.86 504.107 1428.66Z" fill="#E24444"/>
<path d="M489.658 1398.73C489.489 1400.14 489.324 1401.55 489.157 1402.96C489.312 1401.54 489.489 1400.14 489.658 1398.73Z" fill="#E24444"/>
<path d="M487.655 2213C461.028 2306.82 692.178 2402.26 775.531 2315.34C1074.64 2445.3 1166.88 2177.5 1154.65 2067.92C1122.83 2010.54 1015.43 1959.5 1015.43 1959.5L736.413 2015.33C736.413 2015.33 751.612 2022.89 736.413 2015.33C720.288 2007.31 580.917 2006.19 547.617 2016.65C522.392 2024.58 598.234 2051.01 598.234 2051.01L487.655 2213Z" fill="#171C22"/>
<path fill-rule="evenodd" clip-rule="evenodd" d="M283.417 2673.23C284.774 2726.02 295.218 2742.07 294.468 2794.85C293.772 2844 287.501 2873.76 323.084 2913.25C334.61 2926.04 351.736 2935 368.715 2932.38C381.346 2930.43 392.177 2922.53 402.174 2914.53C430.077 2892.22 453.684 2867.08 462.876 2831.73C466.605 2817.4 469.87 2802.92 473.364 2788.53C484.95 2740.81 485.4 2754.02 496.986 2706.29L507.772 2661.87C514.139 2635.63 503.883 2608.16 481.91 2592.6L367.839 2511.79L283.417 2673.23Z" fill="#354A4C"/>
<path d="M374.477 2709.88C376.01 2710.92 376.492 2713.31 375.993 2716.81C375.691 2718.86 375.174 2720.87 374.446 2722.8C373.573 2725.31 372.521 2727.74 371.304 2730.1C368.177 2736.16 364.439 2741.89 360.146 2747.18C357.704 2750.13 355.111 2753.24 352.149 2756.18C349.262 2759.2 346.045 2762.1 342.703 2765C339.274 2767.8 335.876 2770.48 332.411 2772.81C329.013 2775.23 325.516 2777.25 322.198 2779.15C316.259 2782.48 309.993 2785.18 303.503 2787.22C300.983 2788.02 298.41 2788.63 295.803 2789.06C293.776 2789.44 291.716 2789.6 289.655 2789.55C286.132 2789.43 283.876 2788.54 283.119 2786.84C282.362 2785.15 283.162 2782.81 285.17 2780.08C286.367 2778.53 287.651 2777.04 289.012 2775.63C290.545 2774.02 292.374 2772.39 294.342 2770.54C298.349 2766.97 303.113 2762.91 308.412 2758.56C313.655 2754.2 319.417 2749.4 325.466 2744.37C331.453 2739.26 337.156 2734.39 342.345 2729.97C347.535 2725.48 352.345 2721.48 356.543 2718.14C358.698 2716.51 360.613 2714.99 362.461 2713.75C364.081 2712.65 365.759 2711.64 367.488 2710.72C370.516 2709.22 372.946 2708.83 374.477 2709.88Z" fill="#171C22"/>
<path d="M410.269 2524.41C257.859 2333.41 182.207 2129.17 214.617 2093.04C256.667 2046.17 530.58 2261.23 583.011 2295.25C627.599 2245.72 688.535 2237.7 759.875 2162.81C538.224 2015.27 231.289 1749.82 54.0692 1958.51C-62.154 2084.05 7.43241 2366.19 277.94 2679.23C324.514 2716.67 455.861 2567.8 410.269 2524.41Z" fill="#171C22"/>
<path fill-rule="evenodd" clip-rule="evenodd" d="M513.616 2470.53C511.87 2523.31 521.353 2539.95 517.505 2592.6C513.924 2641.62 505.917 2670.96 539.12 2712.48C549.874 2725.93 566.444 2735.9 583.546 2734.29C596.271 2733.09 607.545 2725.84 617.997 2718.45C647.162 2697.83 672.203 2674.13 683.456 2639.39C688.019 2625.3 692.13 2611.04 696.464 2596.88C710.831 2549.93 710.507 2563.14 724.874 2516.19L738.249 2472.48C746.147 2446.67 737.521 2418.63 716.502 2401.8L607.374 2314.38L513.616 2470.53Z" fill="#354A4C"/>
<path d="M602.369 2512.51C603.837 2513.64 604.178 2516.05 603.474 2519.52C603.053 2521.55 602.417 2523.53 601.578 2525.41C600.56 2527.86 599.368 2530.23 598.013 2532.51C594.536 2538.38 590.468 2543.87 585.871 2548.91C583.259 2551.71 580.49 2554.65 577.361 2557.42C574.299 2560.26 570.921 2562.96 567.412 2565.66C563.823 2568.25 560.276 2570.72 556.68 2572.85C553.144 2575.06 549.536 2576.87 546.112 2578.57C539.986 2581.54 533.575 2583.87 526.976 2585.52C524.415 2586.16 521.81 2586.63 519.182 2586.9C517.138 2587.16 515.071 2587.2 513.017 2587.02C509.509 2586.7 507.308 2585.67 506.65 2583.93C505.995 2582.2 506.931 2579.91 509.093 2577.31C510.379 2575.83 511.748 2574.42 513.189 2573.1C514.814 2571.58 516.734 2570.06 518.809 2568.33C523.017 2565 528.013 2561.23 533.558 2557.2C539.048 2553.16 545.082 2548.71 551.415 2544.04C557.693 2539.3 563.671 2534.78 569.112 2530.67C574.556 2526.5 579.593 2522.79 583.98 2519.7C586.226 2518.2 588.229 2516.8 590.144 2515.67C591.825 2514.67 593.561 2513.76 595.341 2512.95C598.453 2511.62 600.901 2511.38 602.369 2512.51Z" fill="#171C22"/>
<path d="M375.341 1691.24C249.036 1786.41 266.003 1934.75 312.497 2088.01C317.174 2103.43 322.306 2118.91 327.878 2134.38C331.957 2145.71 336.272 2157.03 340.796 2168.33C345.236 2179.41 349.879 2190.47 354.716 2201.47C405.65 2317.38 468.579 2437.56 502.788 2462.8C536.997 2488.05 680.325 2391.39 648.386 2323.18C557.117 2128.27 456.076 1909.8 495.809 1879.68C546.932 1840.92 770.092 2045.46 888.54 2142.95C920.773 2148.62 1082.81 2167.72 1031.39 1967.75C715.075 1698.63 534.468 1584.26 375.341 1691.24Z" fill="#171C22"/>
<path d="M1621.14 550.085C1622.18 550.578 1622.33 552.664 1621.66 556.123C1621.35 557.864 1620.8 559.926 1619.88 562.192C1618.98 564.47 1617.99 567.122 1616.46 569.801C1615.72 571.159 1614.94 572.579 1614.12 574.061C1613.28 575.53 1612.25 576.948 1611.24 578.469C1609.27 581.551 1606.77 584.531 1604.14 587.698C1602.82 589.274 1601.31 590.736 1599.83 592.298C1599.08 593.068 1598.32 593.845 1597.55 594.629C1596.73 595.36 1595.9 596.099 1595.07 596.842C1591.79 599.897 1588.07 602.663 1584.25 605.471C1580.28 608.065 1576.38 610.578 1572.38 612.575C1571.39 613.095 1570.41 613.607 1569.44 614.117C1568.43 614.559 1567.44 614.999 1566.46 615.433C1564.48 616.269 1562.58 617.17 1560.65 617.852C1556.77 619.195 1553.11 620.485 1549.54 621.248C1547.77 621.656 1546.08 622.115 1544.41 622.387C1542.75 622.627 1541.14 622.858 1539.62 623.079C1536.59 623.56 1533.76 623.552 1531.33 623.586C1528.89 623.647 1526.77 623.438 1525.04 623.113C1521.58 622.515 1519.7 621.631 1519.6 620.483C1519.51 619.334 1521.21 618.03 1524.23 616.67C1525.73 616.048 1527.57 615.285 1529.7 614.404C1531.8 613.527 1534.22 612.774 1536.8 611.628C1538.1 611.115 1539.46 610.578 1540.87 610.017C1542.28 609.466 1543.7 608.752 1545.2 608.121C1548.21 606.911 1551.29 605.289 1554.57 603.747C1556.21 602.964 1557.81 601.995 1559.49 601.124C1560.33 600.682 1561.17 600.232 1562.03 599.781C1562.85 599.278 1563.69 598.773 1564.53 598.26C1567.97 596.327 1571.32 594.012 1574.82 591.744C1578.17 589.262 1581.51 586.935 1584.53 584.395C1585.3 583.785 1586.07 583.18 1586.83 582.581C1587.56 581.939 1588.27 581.303 1588.98 580.674C1590.39 579.404 1591.86 578.245 1593.17 576.987C1595.77 574.454 1598.37 572.14 1600.56 569.738C1601.68 568.557 1602.85 567.474 1603.86 566.345C1604.89 565.216 1605.87 564.13 1606.81 563.093C1608.79 561.077 1610.35 559.073 1611.91 557.407C1613.49 555.722 1614.85 554.269 1615.96 553.079C1618.29 550.724 1620.11 549.592 1621.14 550.085Z" fill="#171C22"/>
<path d="M1212.27 1532.17C1212.27 1532.17 1676.37 1438.1 1752.44 1048.5C1789.49 858.751 1727.02 620.48 1596.88 471.852L1459.85 594.855C1548.74 694.734 1598.82 944.876 1547.62 1050.36C1441.98 1268.01 1277.52 1262.43 1219.79 1273.9V1273.92C1202.66 1279.36 1170.49 1333.15 1170.49 1400.05C1170.49 1459.71 1193.53 1532.26 1212.27 1532.17Z" fill="#E24444"/>
<path d="M1596.88 471.855C1593.46 468.013 1589.23 465.135 1584.39 463.151C1574.28 459.008 1561.48 458.821 1547.66 462.267C1538.24 464.615 1528.35 468.662 1518.52 474.262C1509.68 479.297 1500.89 485.59 1492.53 493.092C1478.68 505.527 1467.99 519.508 1460.91 533.335C1452.57 549.631 1449.27 565.707 1451.99 578.761C1452.15 579.528 1452.4 580.255 1452.6 581.003C1454 586.21 1456.35 590.921 1459.85 594.858C1470.3 606.596 1488.26 609.452 1508.45 604.566C1511.19 603.903 1513.97 603.075 1516.77 602.137C1517.42 601.918 1518.07 601.731 1518.73 601.496C1533.84 596.077 1549.67 586.659 1564.2 573.619C1580.35 559.123 1592.22 542.518 1599.04 526.51C1599.19 526.156 1599.37 525.796 1599.52 525.442C1600.1 524.031 1600.66 522.622 1601.16 521.223C1608.17 501.704 1607.29 483.552 1596.88 471.855Z" fill="#171C22"/>
<path d="M501.739 1497.75C500.595 1497.69 499.63 1495.75 498.871 1492.28C498.097 1488.81 497.608 1483.8 497.451 1477.63C497.282 1471.46 497.526 1464.13 498.211 1456.01C498.593 1451.97 499.011 1447.71 499.65 1443.33C500.232 1438.94 501.011 1434.42 501.855 1429.8C502.764 1425.2 503.7 1420.71 504.769 1416.41C505.782 1412.1 506.955 1407.99 508.085 1404.08C510.425 1396.29 512.887 1389.38 515.31 1383.71C517.721 1378.03 520.012 1373.56 522.004 1370.62C523.985 1367.67 525.591 1366.23 526.681 1366.59C527.769 1366.95 528.243 1369.07 528.168 1372.58C528.081 1376.09 527.53 1381 526.604 1386.96C525.665 1392.92 524.427 1399.96 522.959 1407.72C521.489 1415.47 519.871 1423.99 518.174 1432.93C516.471 1441.88 514.848 1450.39 513.371 1458.14C511.886 1465.9 510.454 1472.9 509.141 1478.79C507.816 1484.67 506.525 1489.45 505.32 1492.74C504.102 1496.02 502.883 1497.82 501.739 1497.75Z" fill="#171C22"/>
<path d="M1268.59 1514.56C1268.95 1515.65 1267.87 1517.14 1265.55 1518.92C1264.39 1519.82 1262.92 1520.78 1261.14 1521.72C1259.37 1522.67 1257.34 1523.72 1255.01 1524.65C1250.38 1526.62 1244.69 1528.46 1238.24 1529.99C1235 1530.7 1231.59 1531.45 1228.01 1531.93C1224.45 1532.5 1220.72 1532.84 1216.91 1533.15C1213.08 1533.35 1209.35 1533.51 1205.74 1533.42C1202.13 1533.42 1198.65 1533.13 1195.35 1532.86C1188.75 1532.2 1182.86 1531.14 1178.02 1529.8C1175.59 1529.19 1173.43 1528.42 1171.55 1527.71C1169.67 1527.02 1168.08 1526.27 1166.82 1525.53C1164.28 1524.07 1163.01 1522.74 1163.23 1521.6C1163.44 1520.47 1165.11 1519.65 1167.9 1519.12C1169.29 1518.87 1170.96 1518.68 1172.88 1518.48C1174.81 1518.29 1176.96 1518.23 1179.34 1518.07C1184.04 1517.91 1189.63 1517.71 1195.83 1517.5C1198.91 1517.33 1202.14 1517.29 1205.48 1517.07C1208.81 1516.89 1212.26 1516.7 1215.8 1516.5C1219.33 1516.23 1222.78 1515.95 1226.1 1515.69C1229.44 1515.46 1232.64 1515.08 1235.72 1514.83C1241.9 1514.21 1247.47 1513.67 1252.14 1513.2C1254.52 1513.04 1256.67 1512.82 1258.6 1512.75C1260.53 1512.69 1262.21 1512.66 1263.62 1512.72C1266.46 1512.87 1268.23 1513.46 1268.59 1514.56Z" fill="#171C22"/>
<path d="M1529.64 631.974C1529.49 630.832 1531.13 629.44 1534.12 627.918C1535.62 627.179 1537.45 626.373 1539.55 625.38C1541.65 624.408 1544.07 623.529 1546.65 622.29C1547.95 621.727 1549.31 621.134 1550.73 620.518C1552.14 619.91 1553.57 619.157 1555.07 618.473C1558.1 617.154 1561.2 615.456 1564.5 613.819C1566.15 612.993 1567.77 611.995 1569.47 611.087C1570.31 610.626 1571.17 610.159 1572.03 609.688C1572.87 609.173 1573.72 608.653 1574.57 608.129C1578.04 606.132 1581.46 603.784 1585.02 601.477C1588.44 598.975 1591.85 596.622 1594.96 594.091C1595.76 593.481 1596.55 592.874 1597.33 592.274C1598.08 591.636 1598.82 591.004 1599.55 590.38C1601.01 589.117 1602.52 587.961 1603.88 586.715C1606.59 584.209 1609.29 581.916 1611.6 579.558C1612.78 578.397 1613.99 577.331 1615.07 576.223C1616.15 575.116 1617.19 574.054 1618.18 573.042C1620.27 571.07 1621.95 569.122 1623.61 567.507C1625.29 565.901 1626.7 564.476 1627.93 563.334C1630.42 561.08 1632.3 560.046 1633.31 560.602C1634.31 561.158 1634.34 563.269 1633.46 566.698C1633.04 568.425 1632.37 570.458 1631.33 572.69C1630.32 574.931 1629.19 577.53 1627.55 580.158C1626.75 581.486 1625.91 582.878 1625.03 584.328C1624.12 585.766 1623.05 587.157 1621.99 588.646C1619.89 591.658 1617.32 594.586 1614.6 597.688C1613.24 599.233 1611.7 600.673 1610.18 602.208C1609.41 602.963 1608.63 603.728 1607.85 604.5C1607.02 605.222 1606.18 605.95 1605.34 606.686C1602 609.695 1598.26 612.447 1594.41 615.24C1590.42 617.839 1586.52 620.355 1582.52 622.39C1581.54 622.917 1580.56 623.439 1579.59 623.956C1578.59 624.413 1577.6 624.867 1576.62 625.314C1574.64 626.181 1572.75 627.102 1570.82 627.823C1566.97 629.249 1563.32 630.609 1559.76 631.481C1558 631.94 1556.32 632.442 1554.66 632.77C1552.99 633.071 1551.4 633.358 1549.87 633.632C1546.85 634.215 1544.03 634.342 1541.58 634.48C1539.14 634.643 1537 634.541 1535.25 634.31C1531.75 633.897 1529.8 633.115 1529.64 631.974Z" fill="#171C22"/>
<path d="M306.175 2094C305.101 2094.4 303.237 2092.47 300.77 2088.6C298.318 2084.73 295.314 2078.9 292.158 2071.47C290.529 2067.76 288.986 2063.63 287.305 2059.18C285.731 2054.71 284.05 2049.91 282.519 2044.8C280.923 2039.7 279.453 2034.29 278.014 2028.66C276.587 2023.02 275.284 2017.14 274.065 2011.1C272.89 2005.04 271.874 1999.11 271.042 1993.35C270.239 1987.6 269.547 1982.03 269.083 1976.71C268.549 1971.39 268.288 1966.32 268.053 1961.58C267.898 1956.82 267.78 1952.4 267.872 1948.36C267.942 1944.34 268.002 1940.69 268.425 1937.2C268.841 1933.76 269.627 1930.69 270.754 1928.33C271.855 1925.96 273.218 1924.36 274.348 1923.53C275.477 1922.69 276.336 1922.56 276.771 1922.9C277.726 1923.66 276.952 1926.04 277.025 1929.92C277.032 1931.87 277.252 1934.26 277.714 1937.14C278.161 1939.98 278.901 1943.51 279.581 1947.42C280.911 1955.19 282.497 1964.42 284.256 1974.68C285.162 1979.79 286.115 1985.15 287.102 1990.71C288.122 1996.25 289.22 2001.99 290.359 2007.86C291.559 2013.71 292.732 2019.43 293.863 2024.96C295.046 2030.47 296.161 2035.8 297.312 2040.86C299.58 2051.02 301.621 2060.17 303.336 2067.85C305.007 2075.58 306.281 2081.9 306.845 2086.4C307.432 2090.89 307.249 2093.59 306.175 2094Z" fill="#A2A2A2"/>
<path d="M657.982 2337.79C655.939 2338.76 645.465 2321.62 630.668 2292.84C623.261 2278.45 614.826 2261.13 605.82 2241.74C601.351 2232.02 596.676 2221.82 592.007 2211.16C587.291 2200.52 582.556 2189.44 577.751 2178.07C573.004 2166.68 568.411 2155.53 564.124 2144.71C559.788 2133.91 555.78 2123.42 551.977 2113.43C544.441 2093.4 537.989 2075.25 532.908 2059.88C522.73 2029.14 517.828 2009.64 519.951 2008.85C522.132 2008.04 530.923 2026.07 543.87 2055.63C550.337 2070.41 557.897 2088.06 566.184 2107.69C574.445 2127.33 583.528 2148.92 593.063 2171.59C602.558 2194.27 611.602 2215.87 619.827 2235.53C628.032 2255.19 635.328 2272.95 641.349 2287.92C653.371 2317.88 660.081 2336.78 657.982 2337.79Z" fill="#A2A2A2"/>
<path d="M674.735 2101.43C672.498 2101.78 669.746 2097.89 667.623 2091.04C666.554 2087.62 665.7 2083.47 665.149 2078.81C664.907 2076.48 664.675 2074.03 664.624 2071.48C664.525 2068.93 664.583 2066.29 664.692 2063.59C664.859 2060.89 665.074 2058.26 665.432 2055.74C665.741 2053.21 666.225 2050.79 666.701 2048.5C667.729 2043.92 669.001 2039.88 670.416 2036.59C673.228 2029.99 676.365 2026.41 678.553 2026.98C680.802 2027.57 681.724 2032.09 681.951 2038.83C682.169 2045.57 681.801 2054.56 681.284 2064.45C680.786 2074.34 680.232 2083.31 679.325 2090C678.413 2096.68 677.032 2101.09 674.735 2101.43Z" fill="#A2A2A2"/>
<path d="M235.932 2010.96C235.918 2008.67 237.577 2006.54 240.5 2005.18C243.402 2003.82 247.591 2003.28 252.04 2004.21C256.49 2005.13 260.214 2007.34 262.345 2009.83C264.504 2012.32 265.087 2014.99 264.069 2017.04C263.039 2019.11 260.737 2020.26 258.014 2020.8C255.271 2021.32 252.072 2021.26 248.667 2020.55C245.262 2019.84 242.203 2018.6 239.862 2016.96C237.54 2015.33 235.947 2013.27 235.932 2010.96Z" fill="#A2A2A2"/>
<path d="M182.273 2030.2C180.815 2028.43 180.769 2025.73 182.165 2022.82C183.543 2019.93 186.394 2016.89 190.249 2014.74C194.104 2012.6 198.145 2011.79 201.298 2012.13C204.468 2012.46 206.737 2013.89 207.496 2016.06C208.26 2018.24 207.45 2020.72 205.757 2023.04C204.05 2025.37 201.467 2027.58 198.309 2029.33C195.151 2031.09 191.956 2032.11 189.107 2032.34C186.268 2032.56 183.746 2031.98 182.273 2030.2Z" fill="#A2A2A2"/>
<path d="M155.239 2080.57C150.809 2079.44 148.855 2071.93 151.556 2063.93C152.896 2059.96 155.125 2056.7 157.546 2054.73C159.967 2052.76 162.547 2052.08 164.641 2053.01C166.743 2053.95 167.991 2056.25 168.436 2059.16C168.876 2062.09 168.523 2065.64 167.292 2069.29C164.837 2076.55 159.698 2081.71 155.239 2080.57Z" fill="#A2A2A2"/>
<path d="M147.133 2138.16C142.555 2138.17 138.846 2131.3 139.54 2122.92C140.219 2114.55 144.93 2108.42 149.45 2109.12C153.996 2109.82 156.717 2116.6 156.1 2124.28C155.459 2131.95 151.733 2138.15 147.133 2138.16Z" fill="#A2A2A2"/>
<path d="M158.493 2194.82C154.261 2196.6 148.459 2191.73 145.552 2183.95C145.192 2182.96 144.89 2182.06 144.66 2181.02C144.433 2179.98 144.288 2178.97 144.22 2178C144.082 2176.05 144.249 2174.25 144.655 2172.71C145.47 2169.63 147.221 2167.6 149.468 2167.17C151.726 2166.73 154.048 2167.91 156.082 2169.96C157.1 2170.99 158.048 2172.23 158.899 2173.63C159.324 2174.32 159.724 2175.06 160.096 2175.83C160.464 2176.58 160.899 2177.51 161.228 2178.41C163.956 2185.7 162.727 2193.04 158.493 2194.82Z" fill="#A2A2A2"/>
<path d="M183.797 2247.25C179.761 2249.44 173.466 2245.36 169.74 2238.13C166.013 2230.89 166.337 2223.39 170.46 2221.37C174.584 2219.35 180.878 2223.44 184.518 2230.5C188.157 2237.56 187.833 2245.06 183.797 2247.25Z" fill="#A2A2A2"/>
<path d="M211.033 2298.73C206.953 2300.86 200.678 2296.75 196.985 2289.63C193.278 2282.58 193.549 2275.09 197.587 2272.9C201.626 2270.71 207.959 2274.76 211.734 2281.95C215.449 2289.11 215.101 2296.62 211.033 2298.73Z" fill="#A2A2A2"/>
<path d="M237.779 2350.48C233.716 2352.62 227.416 2348.56 223.707 2341.41C219.997 2334.26 220.292 2326.74 224.367 2324.62C228.442 2322.51 234.741 2326.57 238.439 2333.69C242.137 2340.82 241.842 2348.34 237.779 2350.48Z" fill="#A2A2A2"/>
<path d="M265.184 2401.86C261.167 2404.09 254.802 2400.13 250.967 2393.03C247.131 2385.93 247.303 2378.41 251.351 2376.24C255.399 2374.07 261.764 2378.03 265.568 2385.07C269.372 2392.12 269.198 2399.63 265.184 2401.86Z" fill="#A2A2A2"/>
<path d="M294.008 2452.44C290.076 2454.81 283.585 2451.06 279.518 2444.07C275.448 2437.07 275.383 2429.55 279.368 2427.27C283.356 2424.99 289.844 2428.74 293.858 2435.64C297.875 2442.55 297.943 2450.06 294.008 2452.44Z" fill="#A2A2A2"/>
<path d="M324.938 2501.75C321.124 2504.31 314.472 2500.86 310.082 2494.04C305.693 2487.23 305.289 2479.72 309.178 2477.28C313.067 2474.83 319.717 2478.28 324.034 2484.98C328.348 2491.68 328.754 2499.19 324.938 2501.75Z" fill="#A2A2A2"/>
<path d="M358.361 2549.4C354.69 2552.16 347.866 2549.07 343.119 2542.5C338.372 2535.92 337.571 2528.44 341.329 2525.8C345.087 2523.16 351.912 2526.25 356.572 2532.7C361.232 2539.16 362.032 2546.63 358.361 2549.4Z" fill="#A2A2A2"/>
<path d="M886.382 2350.08C885.853 2352.32 875.744 2352.06 859.827 2349.82C855.846 2349.27 851.505 2348.58 846.858 2347.79C842.214 2346.99 837.16 2346.07 831.758 2344.72C829.056 2344.04 826.273 2343.25 823.429 2342.29C820.624 2341.24 817.749 2340.15 814.895 2338.9C812.119 2337.5 809.176 2336.25 806.46 2334.55C805.077 2333.74 803.686 2332.92 802.284 2332.1C800.946 2331.19 799.599 2330.27 798.245 2329.35C795.486 2327.56 793.063 2325.45 790.54 2323.52C788.156 2321.46 785.786 2319.43 783.605 2317.31C779.244 2313.09 775.257 2308.82 771.786 2304.55C770.002 2302.45 768.367 2300.34 766.814 2298.26C765.223 2296.21 763.789 2294.15 762.411 2292.16C759.647 2288.18 757.238 2284.39 755.166 2280.87C746.873 2266.77 743.321 2257.27 745.166 2256.01C747.113 2254.68 754.198 2261.97 764.662 2273.92C767.276 2276.91 770.13 2280.16 773.218 2283.58C774.759 2285.29 776.333 2287.08 778.014 2288.84C779.665 2290.64 781.368 2292.47 783.169 2294.27C786.695 2297.97 790.555 2301.62 794.615 2305.28C796.646 2307.1 798.799 2308.82 800.944 2310.62C803.19 2312.26 805.343 2314.12 807.727 2315.65C808.895 2316.45 810.056 2317.25 811.207 2318.05C812.397 2318.77 813.579 2319.49 814.755 2320.2C817.059 2321.71 819.514 2322.81 821.828 2324.11C824.205 2325.26 826.583 2326.29 828.907 2327.33C831.26 2328.29 833.646 2329.15 836.021 2329.96C840.783 2331.56 845.52 2332.94 850.03 2334.32C854.538 2335.71 858.724 2337.05 862.531 2338.35C877.761 2343.52 886.912 2347.84 886.382 2350.08Z" fill="#A2A2A2"/>
<path fill-rule="evenodd" clip-rule="evenodd" d="M811.196 1223.13L825.219 1151.35C759.347 1129.34 642.957 1081.07 673.747 923.498C695.879 810.224 713.666 653.091 720.677 627.476C764.225 443.304 1401.87 458.636 1079.75 1044.08C1052.06 1079.97 1025.41 1199.1 1010.31 1279.82C1003.84 1314.42 943.213 1330.95 884.434 1311.27C829.966 1293.04 805.06 1254.53 811.196 1223.13Z" fill="#B39370"/>
<path d="M927.835 1148.05C928.205 1149.14 927.366 1150.56 925.467 1152.21C924.343 1153.18 923.127 1154.04 921.833 1154.77C920.184 1155.76 918.469 1156.63 916.701 1157.39C912.133 1159.36 907.381 1160.87 902.518 1161.9C899.773 1162.45 896.874 1163.03 893.836 1163.34C890.804 1163.73 887.643 1163.89 884.405 1164.01C881.164 1164.02 878.001 1163.99 874.957 1163.72C871.91 1163.54 868.991 1163.08 866.224 1162.65C861.322 1161.81 856.515 1160.49 851.869 1158.71C850.072 1158.03 848.324 1157.23 846.636 1156.31C845.313 1155.63 844.06 1154.83 842.9 1153.9C840.938 1152.33 840.044 1150.94 840.368 1149.84C840.692 1148.74 842.196 1148.01 844.571 1147.63C845.756 1147.45 847.166 1147.33 848.776 1147.23C850.384 1147.14 852.169 1147.18 854.142 1147.14C858.007 1147.19 862.606 1147.27 867.711 1147.35C870.241 1147.33 872.879 1147.45 875.614 1147.39C878.345 1147.37 881.172 1147.35 884.066 1147.33C886.961 1147.23 889.786 1147.14 892.513 1147.04C895.251 1146.99 897.88 1146.77 900.409 1146.68C905.507 1146.39 910.099 1146.13 913.959 1145.91C915.932 1145.87 917.712 1145.76 919.323 1145.78C920.938 1145.82 922.348 1145.88 923.54 1146.01C925.934 1146.3 927.467 1146.96 927.835 1148.05Z" fill="#5E3F26"/>
<path d="M812.38 1217.07C761.182 1252.47 739.238 1318.92 730.218 1350.42C728.153 1357.64 735.241 1364.06 742.179 1361.27C773.196 1348.78 842.103 1322.6 894.643 1314.01C944.503 1340.26 998.499 1386.6 1022.77 1408.51C1028.33 1413.52 1037.2 1409.91 1037.7 1402.43C1039.64 1373.31 1038.67 1312.22 1017.59 1242.57C1002.07 1348.52 894.643 1314.01 894.643 1314.01C894.643 1314.01 799.111 1294.05 812.38 1217.07Z" fill="#ECECEC"/>
<path d="M1538.44 377.116C1538.72 377.849 1538.98 378.558 1539.25 379.28C1538.99 378.556 1538.72 377.835 1538.44 377.116Z" fill="#B39370"/>
<path d="M1549.27 563.209C1525 582.942 1506.93 588.766 1488.46 585.278C1472.78 582.32 1457.21 559.549 1441.5 533.688C1431.53 536.826 1420.99 538.677 1411.55 539.78C1409.17 540.056 1406.8 540.144 1404.44 540.146C1400.37 538.169 1396.55 535.731 1393.1 532.843C1390.77 530.891 1388.5 528.909 1386.25 526.912C1383.48 524.452 1380.77 521.963 1378.1 519.461C1376.78 518.23 1375.48 516.998 1374.18 515.765C1370.23 512.005 1366.34 508.236 1362.47 504.488C1350.67 493.057 1338.94 481.897 1325.53 472.277C1325.52 472.284 1325.51 472.291 1325.5 472.301C1317.29 466.421 1308.46 461.119 1298.6 456.685C1286.97 451.451 1273.34 445.787 1269.74 433.505C1266.64 422.933 1272.97 411.341 1282.12 405.252C1293.68 397.561 1320.62 403.973 1334.35 407.419L1334.3 407.334C1310.51 374.559 1295.3 336.735 1283.21 298.85C1279.06 285.861 1275.2 272.355 1276.56 259.434C1277.93 246.514 1285.81 234.252 1298.26 232.219C1308.96 230.47 1320.5 236.627 1328.82 245.336C1328.77 244.986 1328.71 244.632 1328.66 244.282C1327.3 234.686 1327.28 223.031 1332.16 214.191C1334.01 210.854 1336.53 207.903 1339.98 205.637C1347.57 200.724 1357.51 200.877 1365.43 206.03C1371.75 210.246 1375.87 216.797 1379.67 223.415C1380.03 224.053 1380.4 224.692 1380.76 225.331L1381.54 226.698C1381.68 225.992 1381.84 225.292 1382 224.598C1383.77 217.277 1387.43 210.647 1394.31 206.669C1402.18 202.195 1412.12 202.897 1419.77 208.466C1424.96 212.34 1428.46 217.817 1431.52 223.556C1432.4 225.205 1433.24 226.873 1434.08 228.534L1435.23 230.83C1435.62 230.57 1435.99 230.295 1436.41 230.055C1437.27 229.567 1438.16 229.166 1439.06 228.802C1446.42 225.819 1455.05 226.89 1461.86 231.852C1468.55 236.838 1472.44 244.476 1476.18 251.92L1517.31 333.949L1533.58 366.398C1535.29 369.813 1536.99 373.4 1538.43 377.099C1538.44 377.106 1538.44 377.116 1538.44 377.124C1538.72 377.857 1538.98 378.566 1539.25 379.287C1547.71 401.979 1550.57 419.261 1543.67 437.527C1553.98 453.663 1572.35 481.26 1582.03 495.262C1599.89 521.079 1567 548.797 1549.27 563.209Z" fill="#B39370"/>
<path d="M1538.43 377.091L1538.44 377.115L1538.43 377.091Z" fill="#B39370"/>
<path d="M1432.97 432.711C1429.8 432.883 1426.65 433.257 1423.53 433.833C1416.12 435.173 1409.15 438.098 1403.07 442.411C1402.65 442.71 1402.25 443.04 1401.83 443.346C1399.73 444.893 1397.69 446.53 1395.77 448.303C1391.73 451.98 1389.15 454.749 1387.62 454.022C1386.9 453.675 1386.55 452.473 1386.72 450.564C1387.06 447.943 1387.87 445.427 1389.11 443.14C1390.89 439.698 1393.23 436.594 1396.02 433.949C1396.86 433.141 1397.74 432.378 1398.64 431.654C1405.21 426.399 1413.34 423.382 1421.95 423.081C1425.86 422.918 1429.8 423.392 1433.62 424.485C1436.2 425.172 1438.65 426.318 1440.87 427.87C1442.43 429.053 1443.1 430.117 1442.87 430.867C1442.37 432.446 1438.52 432.366 1432.97 432.711Z" fill="#5E3F26"/>
<path d="M1418.61 406.432C1418.23 406.524 1417.68 406.039 1416.99 405.041C1416.08 403.6 1415.24 402.114 1414.48 400.591C1414.35 400.334 1414.2 400.052 1414.07 399.778C1413.17 398.002 1412.13 395.931 1410.93 393.55C1409.52 390.835 1407.93 387.758 1406.07 384.428C1402.04 377.179 1397.53 370.204 1392.59 363.527C1392.24 363.051 1391.9 362.563 1391.55 362.089C1388.52 358.116 1385.19 354.072 1381.54 350.067C1377.9 346.009 1373.95 342.262 1369.52 337.97C1364.87 333.65 1360.81 328.719 1357.46 323.32C1354.53 318.155 1352.32 312.634 1350.88 306.919C1349.49 301.681 1348.6 296.809 1347.76 292.359C1346.92 287.908 1346.13 283.922 1345.19 280.325C1343.83 274.691 1341.74 269.226 1338.97 264.082C1336.96 260.449 1335.51 258.426 1336.04 257.78C1336.28 257.476 1337.11 257.605 1338.35 258.263C1339.44 258.844 1340.84 259.832 1342.47 261.357C1344.52 263.361 1346.33 265.6 1347.87 268.027C1349.88 271.194 1351.59 274.54 1352.95 278.018C1354.57 282.115 1355.96 286.295 1357.11 290.533C1358.38 294.975 1359.6 299.643 1361.12 304.287C1361.27 304.775 1361.46 305.256 1361.62 305.739C1363.02 309.89 1364.83 313.904 1367.09 317.691C1368.21 319.362 1369.42 320.964 1370.68 322.526C1372.75 325.093 1374.98 327.527 1377.41 329.761C1381.76 333.849 1385.9 338.143 1389.84 342.628C1393.37 346.721 1396.65 351.017 1399.7 355.471C1399.84 355.67 1399.99 355.855 1400.12 356.054C1405.45 363.938 1409.92 372.358 1413.44 381.154C1414.93 384.897 1416.06 388.351 1416.95 391.404C1416.99 391.549 1417.02 391.7 1417.06 391.848C1417.75 394.32 1418.33 396.819 1418.76 399.338C1418.83 399.688 1418.86 400.042 1418.91 400.394C1419.11 401.75 1419.24 403.11 1419.23 404.472C1419.2 405.672 1418.99 406.34 1418.61 406.432Z" fill="#5E3F26"/>
<path d="M1465.4 387.188C1464.56 387.239 1463.63 384.842 1462.2 380.633C1461.52 378.525 1460.65 375.97 1459.63 373.041C1458.58 370.119 1457.39 366.811 1455.84 363.253C1454.96 361.169 1454.03 359.108 1453.05 357.07C1450.44 351.647 1447.42 346.418 1444.09 341.385C1443.69 340.773 1443.31 340.144 1442.89 339.54C1439.89 335.18 1436.62 331.017 1433.09 327.073C1432.6 326.517 1432.07 325.968 1431.56 325.417C1428.3 321.91 1424.62 318.439 1420.77 314.532C1416.12 310.021 1412.05 304.941 1408.67 299.418C1405.71 294.203 1403.35 288.688 1401.64 282.983C1399.99 277.727 1398.78 272.824 1397.6 268.333C1396.43 263.85 1395.29 259.816 1394.04 256.199C1392.17 250.512 1389.59 245.057 1386.35 239.978C1384 236.394 1382.38 234.414 1382.87 233.734C1383.13 233.36 1384.25 233.528 1385.96 234.46C1386.99 235.019 1388.23 235.85 1389.63 237.001C1394.68 241.552 1398.75 247.102 1401.57 253.271C1403.56 257.36 1405.29 261.56 1406.77 265.841C1408.36 270.262 1409.88 274.939 1411.64 279.619C1411.67 279.704 1411.7 279.789 1411.73 279.872C1413.46 284.707 1415.66 289.373 1418.31 293.8C1420.03 296.431 1421.94 298.927 1423.97 301.312C1425.17 302.709 1426.42 304.059 1427.72 305.363C1428.08 305.732 1428.44 306.114 1428.81 306.473C1432.98 310.711 1437.5 314.988 1441.46 319.712C1445.26 324.183 1448.71 328.943 1451.76 333.942C1454.58 338.512 1457 343.292 1459.09 348.208C1460.84 352.329 1462.36 356.543 1463.57 360.846C1464.59 364.436 1465.38 368.081 1465.93 371.754C1466.35 374.515 1466.6 377.293 1466.66 380.072C1466.74 384.64 1466.15 387.149 1465.4 387.188Z" fill="#5E3F26"/>
<path d="M1497.26 370.953C1496.47 371.074 1495.33 369.226 1493.87 365.877C1493.43 364.973 1493 363.934 1492.54 362.814C1492.14 361.869 1491.74 360.873 1491.27 359.795C1490.28 357.444 1489.16 354.765 1487.92 351.807C1485.4 345.918 1482.25 338.991 1478.51 331.365C1474.8 323.729 1470.46 315.404 1465.9 306.588C1456.68 288.936 1448.82 272.61 1443.68 260.567C1438.53 248.515 1436.04 240.71 1437.45 240.008C1438.1 239.685 1439.51 240.899 1441.52 243.359C1443.89 246.271 1447.1 250.937 1450.89 256.97C1457.89 268.115 1466.86 283.794 1476.13 301.551C1480.74 310.469 1484.91 319.158 1488.22 327.312C1491.23 334.534 1493.73 341.947 1495.68 349.485C1496.2 351.591 1496.61 353.522 1496.98 355.37C1497.17 356.366 1497.37 357.371 1497.51 358.287C1497.86 360.376 1498.09 362.479 1498.22 364.582C1498.23 364.728 1498.25 364.874 1498.26 365.019C1498.39 368.75 1498.04 370.836 1497.26 370.953Z" fill="#5E3F26"/>
<path d="M1338.47 335.43C1340.01 333.394 1340.2 331.369 1339.24 330.048C1337.99 328.69 1336.22 327.947 1334.43 328.02C1329.85 327.871 1325.33 328.741 1321.21 330.57C1319.54 331.165 1318.26 332.496 1317.73 334.201C1317.67 336.224 1318.94 338.108 1320.86 338.827C1327.01 341.747 1334.15 340.369 1338.47 335.43Z" fill="#5E3F26"/>
<path d="M1402.41 311.344C1399.82 314.103 1396.5 315.864 1392.92 316.563C1389.22 317.289 1385.25 316.879 1381.55 315.206C1378.83 313.775 1377.59 311.856 1377.94 310.326C1378.73 308.57 1380.31 307.332 1382.2 306.982C1384.81 306.202 1387.46 305.566 1390.14 305.071C1392.81 304.578 1395.51 304.226 1398.22 304.017C1400.57 303.954 1402.58 304.252 1403.6 305.576C1404.6 306.856 1404.29 309.061 1402.41 311.344Z" fill="#5E3F26"/>
<path d="M1437.72 291.297C1441.77 291.141 1444.84 288.392 1444.56 285.154C1444.29 281.919 1440.78 279.423 1436.72 279.578C1432.67 279.734 1429.61 282.483 1429.88 285.718C1430.15 288.955 1433.66 291.452 1437.72 291.297Z" fill="#5E3F26"/>
<path d="M1527.43 458.669C1526.44 459.954 1525.32 461.127 1524.09 462.169C1520.78 464.996 1516.91 467.094 1512.71 468.336C1510.15 469.127 1507.5 469.608 1504.8 469.768C1500.68 469.866 1502.08 469.912 1501.79 469.999C1501.81 470.055 1501.84 470.108 1501.88 470.155C1501.91 469.958 1501.83 470.648 1501.78 471.097C1501.73 471.578 1501.68 472.061 1501.58 472.537C1501.42 473.492 1501.25 474.456 1501.08 475.422C1500.4 478.818 1499.45 482.143 1498.24 485.361C1497.12 488.35 1495.79 491.243 1494.26 494.019C1492.85 496.506 1491.28 498.888 1489.55 501.152C1489.05 501.795 1488.52 502.407 1488 503.027C1486.93 504.29 1485.83 505.523 1484.65 506.682C1483.82 507.442 1483.03 508.163 1482.28 508.848C1481.48 509.47 1480.72 510.053 1480.02 510.602C1478.91 511.411 1477.73 512.132 1476.52 512.783C1476.38 512.856 1476.25 512.938 1476.12 513.009C1475.74 513.181 1475.43 513.295 1475.1 513.424C1473.37 514.099 1472.21 514.218 1471.77 513.681C1471.25 513.038 1471.75 511.583 1473 509.555C1473.57 508.482 1474.39 507.321 1475.25 505.922C1475.7 505.237 1476.17 504.508 1476.67 503.734C1477.15 502.952 1477.65 502.128 1478.18 501.264C1479.22 499.527 1480.33 497.628 1481.42 495.551C1482.52 493.477 1483.59 491.214 1484.64 488.817C1486.85 483.61 1488.54 478.172 1489.69 472.581C1489.84 471.762 1489.99 470.949 1490.13 470.14C1490.22 469.737 1490.26 469.331 1490.32 468.928L1490.55 467.226C1490.78 465.482 1490.85 463.675 1491.02 461.965C1491.16 460.25 1491.3 458.553 1491.44 456.872C1494.15 457.419 1496.8 457.948 1499.41 458.414C1500.39 458.618 1501.37 458.745 1502.36 458.813C1502.41 458.815 1502.46 458.83 1502.5 458.832C1503.02 458.895 1503.55 458.932 1504.07 458.937C1506.09 459.026 1508.1 458.929 1510.08 458.645C1513.5 458.171 1516.82 457.249 1519.96 455.898C1521.34 455.345 1522.55 454.745 1523.62 454.203C1524.72 453.649 1525.67 453.173 1526.44 452.785C1527.08 452.45 1527.75 452.18 1528.45 451.976C1529 451.85 1529.43 451.886 1529.7 452.11C1529.98 452.335 1530.09 452.741 1530.04 453.329C1529.94 454.125 1529.7 454.893 1529.35 455.6C1528.82 456.695 1528.18 457.725 1527.43 458.669Z" fill="#5E3F26"/>
<path d="M1275.9 440.482C1277.02 442.439 1278.42 444.21 1280.04 445.74C1281.7 447.277 1283.95 447.984 1286.23 447.683C1289.18 446.986 1291.39 444.363 1291.62 441.293C1292.05 435.153 1285.17 431.695 1280.05 431.459C1277.87 431.122 1275.65 432.166 1274.42 434.107C1273.45 436.234 1274.69 438.585 1275.9 440.482Z" fill="#5E3F26"/>
<path d="M1339.61 485.343C1340.98 486.176 1343.12 485.486 1345.15 483.142C1346.74 481.039 1347.82 478.651 1348.47 476.15C1349.8 470.984 1349.15 465.291 1346.34 460.334C1344.58 457.612 1342.53 456.499 1341.09 457.048C1339.6 457.612 1338.88 459.569 1338.43 462.037C1338.37 462.506 1338.36 462.984 1338.3 463.455C1337.66 468.886 1337.36 474.367 1337.5 479.871C1337.69 482.409 1338.19 484.488 1339.61 485.343Z" fill="#5E3F26"/>
<path d="M1360.75 490.029C1362.34 488.351 1362.88 486.124 1362.49 484.02C1362.2 482.5 1361.44 481.04 1360.15 479.909C1359.85 479.644 1359.52 479.403 1359.18 479.187C1357.71 478.349 1355.88 478.391 1354.49 479.289C1353.26 480.125 1352.27 481.237 1351.6 482.529C1351.58 482.556 1351.57 482.585 1351.55 482.612C1350.2 484.453 1350.59 487.025 1352.46 488.475C1353.48 489.577 1354.75 490.434 1356.18 490.969C1357.78 491.535 1359.56 491.168 1360.75 490.029Z" fill="#5E3F26"/>
<path d="M749.789 985.043C749.971 983.946 748.772 982.691 746.531 981.325C744.312 979.946 741.019 978.491 737.485 976.614C735.724 975.676 733.93 974.608 732.258 973.371C731.416 972.765 730.614 972.078 729.866 971.388C729.215 970.724 728.556 970.022 727.976 969.211C726.809 967.623 725.815 965.727 725.361 963.894C724.837 962.042 724.929 960.403 725.328 959.164C725.78 957.917 726.521 956.823 727.952 955.843C729.328 954.852 731.241 954.13 733.175 953.758C734.143 953.592 735.128 953.451 736.075 953.451C736.559 953.412 737.006 953.47 737.48 953.461C737.988 953.522 738.493 953.533 738.996 953.62C741.009 953.877 742.995 954.363 744.875 954.943C748.638 956.103 751.955 957.443 754.476 958.097C756.999 958.769 758.737 958.783 759.408 957.896C760.077 957.015 759.649 955.341 758.182 953.063C756.7 950.802 754.209 947.859 750.121 944.868C748.075 943.386 745.577 941.924 742.56 940.785C741.816 940.484 741.016 940.255 740.212 939.998C739.356 939.789 738.463 939.532 737.557 939.404C735.745 939.065 733.853 938.964 731.9 939.011C728.011 939.163 723.808 940.058 719.73 942.42C715.665 944.674 711.799 948.869 710.089 954.057C708.359 959.267 708.866 964.572 710.379 968.741C711.865 972.996 714.266 976.42 717.017 979.169C718.39 980.549 719.905 981.723 721.46 982.747C722.962 983.682 724.433 984.463 725.897 985.078C728.813 986.327 731.568 987.035 734.033 987.437C738.975 988.22 742.789 987.966 745.441 987.482C748.096 986.97 749.606 986.132 749.789 985.043Z" fill="#171C22"/>
<path d="M777.447 1001.65C775.595 1000.19 770.88 1003.67 763.062 1006.28C759.168 1007.59 754.472 1008.72 749.296 1008.88C746.721 1009.01 744.034 1008.88 741.347 1008.44C738.653 1008.05 735.944 1007.35 733.367 1006.26C730.872 1005.36 728.907 1003.99 727.237 1002.52C725.617 1001.04 724.74 999.559 724.417 998.643C724.16 997.726 724.029 996.856 724.649 995.678C725.236 994.495 726.484 993.26 727.827 992.365C730.551 990.531 734.188 989.62 736.665 988.703C739.207 987.803 740.758 986.849 740.8 985.731C740.842 984.632 739.49 983.475 736.779 982.451C735.416 981.948 733.692 981.483 731.534 981.244C729.363 981.022 726.795 980.992 723.708 981.777C720.698 982.579 717.387 984.08 714.412 987.153C712.939 988.675 711.601 990.66 710.729 993.012C709.898 995.332 709.498 997.967 709.742 1000.59C710.28 1005.87 712.925 1010.26 716.028 1013.57C717.607 1015.23 719.351 1016.69 721.246 1017.97C722.191 1018.62 723.187 1019.2 724.211 1019.75L725.795 1020.53L727.315 1021.14C731.351 1022.83 735.531 1023.75 739.548 1024.08C743.571 1024.46 747.453 1024.24 751.036 1023.58C758.237 1022.36 764.203 1019.45 768.52 1016.25C772.852 1013.02 775.583 1009.58 776.9 1006.88C778.214 1004.16 778.291 1002.32 777.447 1001.65Z" fill="#171C22"/>
<path d="M1054.04 841.47C1054.36 838.713 1055.19 836.037 1056.49 833.579C1056.96 832.523 1057.74 831.633 1058.73 831.021C1059.72 830.408 1060.87 830.102 1062.03 830.141C1064.55 830.59 1066.4 833.52 1067.72 836.453C1070.04 841.671 1071.53 847.218 1072.12 852.891C1072.75 857.311 1072.43 861.812 1071.17 866.096C1068.28 874.558 1060.43 875.687 1056.2 868.3C1052.39 861.672 1052.85 849.075 1054.04 841.47Z" fill="#171C22"/>
<path fill-rule="evenodd" clip-rule="evenodd" d="M1236.22 554.655C1241.44 549.498 1245.09 542.997 1246.78 535.886C1248.46 528.774 1248.11 521.337 1245.76 514.414C1239.77 497.87 1221.91 487.176 1202.84 489.559C1204.22 468.594 1192.44 449.445 1174.23 442.213C1151.86 433.335 1131.58 447.103 1130.11 448.133C1125.82 439.931 1119.92 432.666 1112.75 426.769C1105.59 420.873 1097.3 416.463 1088.39 413.802C1058.32 405.26 1034.37 421.079 1031.16 423.271C1028.12 412.788 1021.97 403.457 1013.51 396.494C1005.05 389.532 994.679 385.261 983.74 384.239C972.8 383.217 961.804 385.491 952.186 390.764C942.567 396.037 934.773 404.066 929.818 413.802C926.359 405.492 920.436 398.422 912.836 393.531C905.235 388.64 896.316 386.158 887.262 386.416C878.208 386.674 869.447 389.659 862.141 394.974C854.836 400.29 849.331 407.685 846.357 416.178C833.225 397.381 809.39 389.77 789.133 397.247C780.572 400.568 773.125 406.213 767.644 413.538C762.162 420.862 758.867 429.57 758.136 438.666C739.565 415.438 708.385 409.364 686.602 422.095C670.742 431.364 661.405 449.694 661.565 469.44C657.764 469.391 636.745 469.44 625.796 483.644C612.669 500.666 617.727 533.211 644.873 554.657C642.868 554.826 622.874 556.751 616.26 570.043C609.052 584.532 619.11 609.759 646.067 620.938C632.249 624.962 624.82 638.968 628.181 650.528C631.886 663.271 648.187 671.297 662.763 664.729C659 669.116 651.344 679.417 653.225 690.758C656.052 707.811 679.731 723.107 711.05 719.609C711.384 717.253 711.728 714.949 712.047 712.667C713.124 707.916 713.828 703.089 714.151 698.23C714.517 695.739 714.879 693.299 715.236 690.908C716.339 685.415 718.249 680.396 722.188 677.29C734.231 667.794 758.127 681.778 773.929 688.299C842.804 716.695 897.299 660.531 942.094 676.373C972.585 687.159 1002.66 732.763 1005.33 880.399C1009.22 899.822 1029.55 890.016 1031.46 873.443C1034.85 853.841 1029.65 833.467 1033.44 813.934C1038.07 788.48 1061.51 776.152 1077.85 784.03C1128.08 820.019 1067 975.397 1116.08 987.547C1122.49 985.339 1123.49 978.449 1125.03 972.646C1126.54 966.976 1128.23 961.503 1130.05 956.19C1138.57 958.209 1154.57 950.555 1158.74 939.318C1162.68 928.702 1155.04 916.853 1151.59 912.096C1168 918.432 1185.74 911.387 1192.12 897.892C1197.06 887.469 1194.71 874.278 1186.16 864.753C1198.57 868.836 1211.64 865.845 1218.35 857.651C1227.59 846.385 1224.79 825.304 1208.02 814.143L1208.08 813.965C1219.21 816.71 1230.51 813.965 1236.24 806.758C1244.6 796.257 1241.4 775.907 1224.32 765.332C1225.55 765.148 1245.15 761.933 1251.74 746.396C1258.23 731.082 1249.63 709.597 1229.08 700.238C1250.74 697.171 1264.99 679.855 1263.67 663.544C1262.34 647.234 1245.96 638.236 1244.59 637.516C1265.11 634.15 1280.59 619.038 1282.74 602.009C1285.53 579.701 1265.33 555.362 1236.22 554.655Z" fill="#171C22"/>
<path d="M770.083 534.57C769.724 534.747 769.089 534.447 768.275 533.812C767.141 532.96 765.94 532.201 764.684 531.541C762.773 530.59 760.725 529.939 758.613 529.613C755.774 529.194 752.89 529.189 750.051 529.6C748.401 529.826 746.772 530.183 745.18 530.668C743.419 531.185 741.696 531.821 740.024 532.573C736.474 534.128 733.248 536.328 730.51 539.058C729.141 540.449 727.965 542.016 727.014 543.716C726.11 545.407 725.488 547.233 725.174 549.121C724.839 551.072 724.831 553.063 725.149 555.016C725.26 555.489 725.346 555.972 725.472 556.436L725.698 557.172C725.802 557.532 725.939 557.881 726.107 558.216L726.695 559.178L727.87 561.113C728.352 561.786 729.272 562.596 729.952 563.334L734.764 568.257L739.454 573.059L723.131 572.081C721.704 571.971 720.373 571.964 719.044 571.95C717.715 571.937 716.332 571.883 715.138 571.971C713.954 572.002 712.819 572.11 711.689 572.195C707.802 572.419 704.041 573.649 700.781 575.763C699.559 576.689 698.531 577.844 697.757 579.162C697.055 580.465 696.616 581.891 696.464 583.36C696.226 586.427 696.762 589.503 698.021 592.313C699.182 594.879 700.68 597.28 702.476 599.455C704.106 601.502 705.699 603.23 706.997 604.684C709.616 607.587 710.982 609.456 710.498 610.096C710.014 610.735 707.822 610.096 704.221 608.166C702 606.958 699.893 605.552 697.928 603.966C695.145 601.759 692.753 599.107 690.849 596.119C688.356 592.185 686.998 587.648 686.923 583.001C686.914 580.187 687.49 577.401 688.614 574.818C689.879 572.068 691.716 569.616 694.005 567.622C698.682 563.921 704.329 561.627 710.279 561.014C711.691 560.843 713.12 560.673 714.535 560.596C714.634 560.576 714.584 560.565 714.605 560.554C714.605 560.545 714.603 560.535 714.597 560.528C714.592 560.52 714.584 560.514 714.575 560.511V560.511C714.587 560.547 714.557 560.424 714.6 560.594L714.245 559.387C714.019 558.548 713.872 557.704 713.712 556.865C713.217 553.594 713.302 550.261 713.963 547.019C714.591 543.891 715.758 540.894 717.414 538.16C718.965 535.648 720.868 533.367 723.065 531.386C726.97 527.912 731.553 525.272 736.53 523.631C738.701 522.902 740.928 522.345 743.188 521.964C745.301 521.593 747.444 521.415 749.589 521.432C753.296 521.429 756.972 522.095 760.439 523.398C763.108 524.405 765.523 525.98 767.514 528.014C768.773 529.282 769.711 530.829 770.248 532.528C770.511 533.722 770.441 534.382 770.083 534.57Z" fill="#A2A2A2"/>
<path d="M1160.68 781.653C1160.74 781.368 1161.28 781.166 1162.21 781.036C1163.15 780.906 1164.49 780.78 1166.18 780.513C1170.92 779.852 1175.45 778.134 1179.42 775.489C1182.1 773.707 1184.42 771.443 1186.26 768.814C1188.32 765.781 1189.69 762.333 1190.27 758.716C1190.94 754.683 1190.62 750.547 1189.34 746.66C1188.74 744.732 1187.82 742.917 1186.62 741.288C1186 740.538 1185.31 739.847 1184.56 739.224C1184.18 738.93 1183.79 738.655 1183.38 738.401L1182.84 738.066C1182.51 737.909 1182.15 737.801 1181.78 737.748L1180.65 737.485L1180.09 737.353C1179.85 737.353 1179.89 737.128 1179.16 737.517L1176.95 734.6L1176.21 733.684C1176.08 733.511 1176.03 733.475 1175.94 733.365L1175.7 733.089C1175.58 732.969 1175.46 732.86 1175.33 732.762C1175.28 732.762 1175.21 732.715 1175.24 732.827C1175.25 732.956 1175.23 733.086 1175.18 733.206L1175.16 733.267V733.298V733.314C1176.29 732.971 1165.25 736.3 1169.93 734.885L1170.57 734.543L1171.85 733.859L1174.43 732.479C1175.1 732.223 1174.75 732.073 1174.68 731.893L1174.36 731.366L1173.7 730.305L1172.46 728.415L1174.51 726.961L1175.54 726.232L1176.37 725.478L1179.72 722.445C1180.01 722.187 1180.27 721.953 1180.54 721.662L1180.97 721.159L1181.6 720.414C1182.03 719.927 1182.44 719.415 1182.82 718.881C1183.62 717.839 1184.37 716.755 1185.05 715.632C1185.74 714.508 1186.37 713.348 1186.94 712.157L1187.76 710.361L1188.44 708.508C1188.88 707.266 1189.23 705.997 1189.5 704.709C1189.77 703.429 1189.97 702.134 1190.08 700.83C1190.17 699.532 1190.17 698.23 1190.08 696.932C1189.99 695.128 1189.67 693.343 1189.13 691.616C1188.6 689.945 1187.88 688.34 1186.99 686.83L1185.49 684.629C1184.89 683.956 1184.34 683.258 1183.74 682.61C1182.5 681.338 1181.15 680.182 1179.7 679.156C1178.28 678.165 1176.76 677.32 1175.16 676.636C1173.64 675.968 1172.04 675.483 1170.4 675.191C1169.62 675.021 1168.83 674.926 1168.03 674.906L1167.02 674.859C1166.51 674.865 1166 674.898 1165.49 674.96C1164.41 675.144 1163.11 675.667 1161.94 675.997L1158.37 677.119L1154.24 678.69L1146.72 681.564L1147.49 680.02L1147.86 679.257L1148.37 678.297C1149.06 677.018 1149.73 675.746 1150.41 674.482L1154.41 666.936C1155.69 664.515 1156.87 662.031 1157.72 660.007L1158.53 658.055C1158.74 657.487 1158.98 656.933 1159.16 656.359C1160.72 652.27 1161.43 647.91 1161.24 643.542C1161.04 639.82 1159.89 636.21 1157.9 633.05C1156.28 630.474 1153.89 628.474 1151.05 627.335C1148.62 626.488 1146 626.281 1143.46 626.733C1141.51 627.074 1139.64 627.813 1137.99 628.903C1136.91 629.633 1135.92 630.485 1135.05 631.441C1134.45 632.143 1133.98 632.513 1133.69 632.421C1133.41 632.329 1133.32 631.771 1133.47 630.68C1133.82 629.104 1134.56 627.64 1135.62 626.417C1137.35 624.406 1139.56 622.869 1142.05 621.952C1145.48 620.664 1149.2 620.381 1152.78 621.135C1157.3 622.229 1161.31 624.804 1164.17 628.443C1167.39 632.532 1169.46 637.407 1170.14 642.557C1170.84 648.192 1170.32 653.911 1168.62 659.332C1168.43 660.03 1168.19 660.707 1167.98 661.403L1167.35 663.211C1167.28 663.426 1167.22 663.647 1167.18 663.871L1167.12 664.206C1167.1 664.302 1167.06 664.412 1167.28 664.268C1167.45 664.178 1167.62 664.103 1167.8 664.044L1167.9 664.013C1167.9 664.013 1167.95 664.013 1167.93 663.995C1167.96 663.995 1167.85 663.995 1167.98 663.995H1168.45C1169.71 664 1170.97 664.112 1172.21 664.329C1174.7 664.7 1177.13 665.367 1179.46 666.315C1181.81 667.252 1184.05 668.431 1186.14 669.833C1188.26 671.264 1190.24 672.897 1192.04 674.709C1192.93 675.638 1193.76 676.643 1194.62 677.626C1195.38 678.69 1196.16 679.751 1196.88 680.862C1198.28 683.17 1199.41 685.636 1200.24 688.208C1200.66 689.509 1200.98 690.837 1201.21 692.184C1201.47 693.499 1201.63 694.831 1201.7 696.169C1201.83 698.028 1201.83 699.895 1201.7 701.754C1201.54 703.575 1201.26 705.384 1200.86 707.169C1200.48 708.919 1199.99 710.643 1199.38 712.329L1198.42 714.798L1197.31 717.167C1195.8 720.23 1193.96 723.124 1191.83 725.799C1191.33 726.468 1190.8 727.112 1190.23 727.727C1189.76 728.256 1188.85 729.282 1189.1 728.99L1188.93 729.082L1188.51 729.306C1188.48 729.306 1188.37 729.378 1188.41 729.351C1188.41 729.339 1188.42 729.329 1188.44 729.322C1188.47 729.308 1188.51 729.308 1188.55 729.322C1188.65 729.353 1188.74 729.406 1188.82 729.477L1188.89 729.54L1188.92 729.571C1188.88 729.542 1189.03 729.652 1188.83 729.508L1188.97 729.605L1189.25 729.8C1189.98 730.309 1190.69 730.858 1191.36 731.445C1192.64 732.604 1193.8 733.89 1194.82 735.284C1196.62 737.916 1197.94 740.839 1198.74 743.923C1200.19 749.348 1200.24 755.048 1198.89 760.498C1197.74 765.275 1195.49 769.721 1192.31 773.483C1189.62 776.61 1186.31 779.158 1182.59 780.971C1177.54 783.542 1171.82 784.55 1166.19 783.863C1164.73 783.695 1163.31 783.317 1161.96 782.741C1161.05 782.293 1160.62 781.938 1160.68 781.653Z" fill="#A2A2A2"/>
<path d="M1195.36 580.591C1195.08 580.496 1194.88 580.079 1194.76 579.426C1194.64 578.773 1194.53 577.855 1194.28 576.769C1194.01 575.462 1193.58 574.194 1192.99 572.995C1192.23 571.423 1191.22 569.978 1190.02 568.712C1188.58 567.194 1186.87 565.947 1184.99 565.032C1183.97 564.544 1182.9 564.181 1181.8 563.953C1180.58 563.676 1179.34 563.525 1178.09 563.504C1175.28 563.477 1172.49 563.942 1169.84 564.877C1169.07 565.128 1168.53 565.35 1167.58 565.743L1165.37 566.751C1164.6 567.132 1163.76 567.648 1162.96 568.097C1159.66 570.078 1155.99 572.495 1152.71 574.521C1152.84 571.564 1152.98 568.572 1153.12 565.546L1153.18 563.246L1153.22 562.086L1153.24 561.505L1153.17 561.056L1152.89 559.245L1152.74 558.332C1152.72 558.197 1152.7 557.991 1152.68 557.912L1152.61 557.719C1151.98 555.601 1151 553.598 1149.73 551.784C1149.09 550.85 1148.36 549.974 1147.56 549.168C1146.77 548.344 1145.91 547.599 1144.98 546.944C1144.06 546.281 1143.08 545.706 1142.06 545.225C1141.55 544.979 1141.02 544.813 1140.5 544.586L1138.87 544.119L1137.43 543.839L1135.95 543.677L1134.46 543.637L1132.97 543.713C1131.98 543.813 1131 543.975 1130.03 544.198C1129.07 544.431 1128.12 544.731 1127.2 545.095C1126.29 545.44 1125.41 545.858 1124.56 546.343C1124.14 546.562 1123.73 546.811 1123.34 547.088C1122.77 547.43 1122.25 547.84 1121.78 548.311L1120.67 549.327L1120.11 549.834C1119.92 550.059 1119.7 550.364 1119.5 550.622L1117.04 553.866C1115.48 556.043 1113.93 558.199 1112.39 560.335C1110.79 556.44 1109.27 552.426 1107.55 548.667C1107.13 547.734 1106.74 546.749 1106.3 545.881C1106.18 545.613 1106.03 545.358 1105.85 545.118L1105.68 544.846L1105.34 544.321C1104.92 543.609 1104.45 542.927 1103.94 542.281C1102.04 539.734 1099.77 537.472 1097.22 535.566C1094.92 533.805 1092.43 532.306 1089.79 531.096C1087.5 530.05 1085.11 529.224 1082.65 528.628L1081 528.215L1079.42 527.966C1078.46 527.773 1077.48 527.646 1076.5 527.587C1074.64 527.362 1073.06 527.394 1071.71 527.331C1070.37 527.268 1069.34 527.355 1068.58 527.225C1067.82 527.095 1067.37 526.934 1067.27 526.64C1067.17 526.346 1067.42 525.966 1068.05 525.473C1068.95 524.791 1069.95 524.238 1071.01 523.828C1072.7 523.16 1074.46 522.68 1076.25 522.396C1077.38 522.172 1078.53 522.044 1079.68 522.013L1081.59 521.914L1083.6 522.008C1086.65 522.173 1089.68 522.7 1092.6 523.579C1096.06 524.62 1099.36 526.101 1102.42 527.986C1105.96 530.113 1109.15 532.78 1111.85 535.889C1115.74 540.769 1114.56 539.315 1114.97 539.632L1115.09 539.362L1115.14 539.266C1115.1 539.284 1115.41 539.01 1115.53 538.898C1115.5 538.875 1116.3 538.299 1116.88 537.881C1117.49 537.432 1118.12 537.019 1118.77 536.643C1120.07 535.848 1121.43 535.157 1122.84 534.578C1124.27 533.979 1125.73 533.485 1127.23 533.1C1128.76 532.716 1130.31 532.439 1131.87 532.269L1134.25 532.101L1136.68 532.151L1139.13 532.404C1139.94 532.534 1140.75 532.709 1141.57 532.871C1142.5 533.095 1143.44 533.394 1144.36 533.681C1145.26 534.042 1146.16 534.367 1147.02 534.783C1148.72 535.591 1150.34 536.564 1151.84 537.686C1153.32 538.763 1154.68 539.981 1155.91 541.323C1157.13 542.614 1158.23 544.013 1159.2 545.501C1161.1 548.384 1162.5 551.563 1163.33 554.905C1163.56 555.837 1163.47 555.765 1163.46 555.899L1163.36 556.317C1163.4 556.395 1163.56 556.33 1163.74 556.33C1163.9 556.313 1164.07 556.282 1164.23 556.236C1164.99 556.012 1166.14 555.63 1167.09 555.417C1170.94 554.421 1174.94 554.165 1178.88 554.663C1180.72 554.905 1182.53 555.35 1184.27 555.989C1185.93 556.584 1187.52 557.391 1188.98 558.39C1191.49 560.107 1193.61 562.323 1195.22 564.897C1196.51 566.94 1197.38 569.213 1197.79 571.588C1198.12 573.334 1198.09 575.126 1197.72 576.861C1197.52 577.935 1197.09 578.954 1196.46 579.848C1196.02 580.452 1195.64 580.685 1195.36 580.591Z" fill="#A2A2A2"/>
<path d="M1096.37 717.966C1095.67 717.501 1096 715.789 1096.5 713.061C1097.2 709.381 1097.38 705.622 1097.03 701.893C1096.55 696.733 1094.63 691.807 1091.5 687.663C1089.65 685.376 1087.42 683.414 1084.91 681.858C1082.18 680.199 1079.18 679.019 1076.05 678.371C1075.2 678.187 1074.33 678.052 1073.47 677.967C1072.71 677.902 1071.95 677.881 1071.18 677.906C1070.19 677.847 1069.2 677.899 1068.21 678.063L1064.69 678.622L1061.08 679.271L1054.35 680.48C1056.12 677.167 1057.85 673.908 1059.56 670.704L1060.22 669.465L1060.55 668.852L1060.74 668.327L1061.51 666.254L1062.27 664.217C1062.36 664.009 1062.43 663.789 1062.46 663.564L1062.54 663.115C1063.04 660.802 1063.18 658.429 1062.98 656.074C1062.81 653.889 1062.4 651.73 1061.76 649.636C1061.17 647.797 1060.42 646.016 1059.5 644.316C1059.12 643.555 1058.68 642.821 1058.2 642.119C1057.81 641.461 1057.37 640.829 1056.89 640.228C1056.05 639.034 1055.2 638.112 1054.51 637.275C1053.94 636.634 1053.4 635.959 1052.91 635.255C1052.56 634.699 1052.43 634.25 1052.58 633.936C1052.73 633.622 1053.14 633.458 1053.83 633.451C1054.8 633.46 1055.76 633.636 1056.68 633.97C1058.12 634.471 1059.49 635.156 1060.76 636.009C1061.58 636.519 1062.36 637.1 1063.07 637.746C1063.93 638.433 1064.71 639.193 1065.43 640.017C1067.15 641.895 1068.61 643.984 1069.79 646.232C1071.16 648.877 1072.16 651.698 1072.76 654.613C1073.47 657.95 1073.62 661.382 1073.19 664.766L1073.06 665.915L1073.05 666.14C1073.05 666.288 1073.02 666.467 1073.05 666.445C1073.08 666.496 1073.11 666.508 1073.15 666.503C1073.22 666.473 1073.28 666.433 1073.34 666.386C1073.45 666.38 1073.57 666.38 1073.68 666.386C1074 666.387 1074.31 666.412 1074.62 666.46C1075.9 666.575 1077.17 666.765 1078.42 667.03C1082.98 667.969 1087.31 669.779 1091.17 672.36C1094.77 674.799 1097.87 677.906 1100.29 681.512C1102.41 684.768 1103.91 688.383 1104.71 692.177C1105.4 695.387 1105.59 698.682 1105.28 701.949C1104.91 706.588 1103.31 711.047 1100.65 714.876C1098.66 717.49 1096.99 718.388 1096.37 717.966Z" fill="#A2A2A2"/>
<path d="M946.51 499.75C945.813 500.228 944.335 499.286 941.969 497.811C938.791 495.794 935.344 494.229 931.727 493.164C926.721 491.689 921.4 491.622 916.357 492.971C913.53 493.828 910.867 495.15 908.48 496.883C905.914 498.782 903.697 501.106 901.925 503.753C901.436 504.471 900.989 505.215 900.585 505.984C900.242 506.658 899.94 507.353 899.681 508.064C899.258 508.956 898.936 509.894 898.723 510.857L897.936 514.313L897.195 517.903C896.731 520.147 896.273 522.362 895.823 524.549L888.619 516.112L887.715 515.042L887.263 514.517L886.845 514.144L885.195 512.664L883.57 511.203C883.411 511.038 883.229 510.899 883.03 510.788L882.643 510.545C880.666 509.229 878.503 508.211 876.224 507.527C874.119 506.866 871.947 506.44 869.748 506.255C867.811 506.11 865.865 506.145 863.935 506.358C863.081 506.424 862.234 506.55 861.399 506.735C860.635 506.852 859.879 507.02 859.138 507.238C857.71 507.57 856.53 508.014 855.495 508.328C854.681 508.621 853.851 508.868 853.008 509.067C852.362 509.177 851.894 509.125 851.652 508.874C851.41 508.622 851.413 508.183 851.652 507.545C852.022 506.652 852.544 505.829 853.196 505.113C854.202 503.967 855.355 502.956 856.625 502.106C857.408 501.539 858.24 501.041 859.111 500.619C860.07 500.09 861.073 499.647 862.111 499.295C864.504 498.412 867.002 497.837 869.542 497.585C872.527 497.305 875.535 497.435 878.484 497.971C881.869 498.55 885.132 499.688 888.138 501.337L889.166 501.88L889.376 501.978C889.512 502.041 889.672 502.122 889.663 502.093C889.722 502.079 889.745 502.057 889.752 502.023C889.75 501.947 889.737 501.871 889.713 501.799C889.679 501.859 889.797 501.592 889.844 501.478C889.96 501.189 890.099 500.91 890.26 500.643C890.843 499.51 891.493 498.411 892.206 497.354C894.778 493.505 898.079 490.189 901.925 487.591C905.548 485.177 909.605 483.479 913.876 482.591C917.709 481.847 921.648 481.808 925.496 482.477C928.752 483.038 931.904 484.088 934.842 485.591C939.043 487.656 942.62 490.787 945.208 494.668C946.916 497.466 947.136 499.342 946.51 499.75Z" fill="#A2A2A2"/>
<path d="M733.552 870.091C744.903 870.091 754.105 853.729 754.105 833.546C754.105 813.362 744.903 797 733.552 797C722.202 797 713 813.362 713 833.546C713 853.729 722.202 870.091 733.552 870.091Z" fill="#171C22"/>
<path d="M877.552 870.091C888.903 870.091 898.105 853.729 898.105 833.546C898.105 813.362 888.903 797 877.552 797C866.202 797 857 813.362 857 833.546C857 853.729 866.202 870.091 877.552 870.091Z" fill="#171C22"/>
</svg>
