<svg width="257" height="602" viewBox="0 0 257 602" fill="none" xmlns="http://www.w3.org/2000/svg">
<path d="M232.513 544.065C220.669 533.624 224.301 539.192 224.301 528.354L128.5 533.624L32.6972 528.354C32.6972 539.246 36.3315 533.624 24.4853 544.065C12.5916 554.506 0 557.39 0 572.355C0 587.319 27.2232 601.488 128.5 601.488C229.777 601.488 257 587.319 257 572.353C256.951 557.39 244.359 554.506 232.513 544.065Z" fill="#171C22"/>
<path d="M187.425 429.017C164.93 346.237 156.234 220.745 170.567 149.646H85.9627C100.296 220.749 92.0683 346.235 69.5754 429.017C47.0824 511.799 10.65 507.125 10.65 532.134C10.65 557.143 111.181 557.888 128.5 557.888C145.769 557.888 246.35 557.092 246.35 532.134C246.35 507.175 209.87 511.799 187.425 429.017Z" fill="#171C22"/>
<path d="M177.236 119.767C144.589 118.574 111.941 118.574 79.2934 119.767C72.3762 120.065 62.9699 126.131 61.8247 133.191C61.3272 136.337 61.3272 139.541 61.8247 142.687C62.9699 149.748 72.3762 155.813 79.2934 156.111C111.942 157.304 144.589 157.304 177.236 156.111C184.154 155.813 193.56 149.748 194.704 142.687C195.203 139.541 195.203 136.337 194.704 133.191C193.56 126.131 184.154 120.065 177.236 119.767Z" fill="#171C22"/>
<path d="M167.038 118.067C167.041 116.639 149.552 115.447 127.975 115.403C106.399 115.36 88.9053 116.482 88.9025 117.91C88.8996 119.338 106.388 120.53 127.965 120.573C149.541 120.617 167.035 119.494 167.038 118.067Z" fill="#A2A2A2"/>
<path d="M165.093 155.812C165.192 156.508 161.261 157.801 154.642 158.894C153.795 159.043 152.946 159.143 152.057 159.292C151.169 159.441 150.216 159.54 149.22 159.64C147.282 159.889 145.189 160.087 143.002 160.237C138.622 160.535 133.745 160.734 128.619 160.634C123.543 160.535 118.666 160.187 114.286 159.69C112.096 159.441 110.006 159.193 108.067 158.845C107.122 158.696 106.176 158.546 105.28 158.397C104.385 158.199 103.538 158.049 102.696 157.9C96.1759 156.508 92.2444 155.066 92.3939 154.419C92.6927 152.978 108.817 155.215 128.724 155.514C148.72 155.96 164.894 154.32 165.093 155.812Z" fill="#A2A2A2"/>
<path d="M228.832 547.544C228.931 547.892 226.294 548.835 221.416 550.228C220.222 550.577 218.828 550.975 217.385 551.372C215.892 551.77 214.25 552.118 212.508 552.566C209.024 553.361 205.043 554.355 200.614 555.147C198.373 555.545 196.085 555.993 193.646 556.438C192.451 556.687 191.207 556.836 189.914 557.035C188.669 557.234 187.375 557.433 186.031 557.632C184.739 557.831 183.396 558.03 182.001 558.229C181.304 558.328 180.657 558.427 179.96 558.526C179.263 558.626 178.567 558.676 177.87 558.775C175.033 559.073 172.146 559.42 169.21 559.77C157.316 560.913 144.174 561.659 130.341 561.659C116.506 561.559 103.367 560.764 91.4732 559.521C88.4866 559.173 85.5999 558.825 82.8131 558.477C82.1169 558.377 81.42 558.328 80.723 558.229C80.026 558.129 79.3299 558.029 78.683 557.93L74.6513 557.333L70.7699 556.737C69.5254 556.538 68.2808 556.339 67.0371 556.091C64.5981 555.644 62.3093 555.197 60.0698 554.749C55.64 553.953 51.6585 552.959 48.1752 552.114C46.4332 551.666 44.7913 551.318 43.3473 550.921C41.8548 550.473 40.5109 550.125 39.3164 549.777C34.4893 548.335 31.8516 547.391 31.951 547.042C32.0503 546.694 34.8374 546.993 39.7647 547.838C41.0084 548.037 42.3491 548.285 43.8948 548.584C45.3881 548.832 47.0308 549.081 48.8213 549.379C52.3546 549.926 56.3362 550.67 60.7652 551.268C63.0047 551.567 65.2943 551.914 67.7333 552.263C68.9277 552.462 70.1715 552.562 71.4653 552.71C72.7098 552.859 74.0036 553.009 75.2974 553.158C76.5912 553.307 77.9351 553.456 79.279 553.655C79.9759 553.754 80.6229 553.804 81.3198 553.903C82.016 553.953 82.713 554.053 83.4099 554.103C86.197 554.351 89.0835 554.65 92.0199 554.898C103.811 555.843 116.804 556.538 130.44 556.592C144.077 556.592 157.066 555.996 168.861 555.101C171.797 554.852 174.684 554.604 177.471 554.355C178.168 554.305 178.864 554.256 179.561 554.156C180.258 554.107 180.905 554.007 181.602 553.907C182.945 553.758 184.289 553.61 185.582 553.46C186.876 553.311 188.171 553.162 189.415 553.013C190.658 552.863 191.904 552.764 193.147 552.566C195.586 552.217 197.875 551.92 200.115 551.621C204.544 551.074 208.526 550.33 212.059 549.83C213.802 549.582 215.444 549.333 216.986 549.085C218.479 548.836 219.873 548.588 221.117 548.389C225.995 547.494 228.782 547.195 228.832 547.544Z" fill="#A2A2A2"/>
<path d="M221.118 538.496C220.842 538.421 220.584 538.29 220.362 538.11C220.139 537.93 219.957 537.706 219.825 537.452C219.626 537.155 219.477 536.757 219.228 536.359C219.029 535.961 218.83 535.464 218.631 534.967C218.532 534.718 218.382 534.42 218.283 534.171C218.17 533.88 218.037 533.598 217.885 533.326C217.635 532.729 217.337 532.083 217.038 531.437C216.315 529.956 215.518 528.512 214.649 527.111C213.586 525.42 212.423 523.793 211.166 522.239C209.689 520.428 208.11 518.701 206.438 517.068C204.646 515.278 202.656 513.389 200.466 511.4C198.326 509.411 195.987 507.273 193.601 504.937C191.234 502.584 189.007 500.093 186.932 497.479C185.022 495 183.26 492.41 181.657 489.722C178.967 485.192 176.843 480.348 175.334 475.301C174.278 471.903 173.725 468.37 173.692 464.812C173.676 463.784 173.827 462.76 174.139 461.78C174.197 461.496 174.322 461.231 174.504 461.007C174.686 460.782 174.919 460.604 175.184 460.489C175.474 460.451 175.769 460.48 176.045 460.575C176.321 460.67 176.572 460.828 176.777 461.036C177.535 461.674 178.204 462.409 178.768 463.224C180.211 465.16 182.003 467.996 184.193 471.327C186.382 474.708 188.97 478.636 192.156 482.713C193.748 484.751 195.44 486.839 197.282 488.926C199.123 491.012 201.114 493.102 203.253 495.24C207.584 499.566 212.212 503.941 215.895 508.763C217.717 511.077 219.317 513.557 220.672 516.172C221.893 518.492 222.844 520.944 223.509 523.48C224.063 525.593 224.38 527.76 224.455 529.943C224.46 530.841 224.41 531.737 224.305 532.628C224.263 533.03 224.197 533.428 224.106 533.822C224.006 534.219 223.957 534.567 223.857 534.866C223.711 535.469 223.494 536.053 223.211 536.606C223.027 537.041 222.775 537.443 222.465 537.799C222.333 538.034 222.135 538.225 221.896 538.349C221.656 538.473 221.386 538.524 221.118 538.496Z" fill="#ECECEC"/>
<path d="M217.932 583.543C217.806 583.021 217.799 582.478 217.91 581.953C218.022 581.428 218.251 580.935 218.578 580.51C219.456 579.238 220.512 578.099 221.714 577.128C223.007 575.935 224.501 574.742 225.845 573.498C226.542 572.852 227.089 572.304 227.686 571.658C228.233 571.013 228.781 570.367 229.229 569.722C229.626 569.145 229.991 568.548 230.324 567.932C230.41 567.81 230.477 567.676 230.523 567.534C230.569 567.393 230.636 567.258 230.722 567.137C230.763 567.017 230.813 566.901 230.871 566.789L231.021 566.49C231.377 565.469 231.53 564.388 231.469 563.308C231.462 562.236 231.328 561.167 231.071 560.126L230.921 559.381L230.772 558.635C230.697 558.157 230.697 557.67 230.772 557.193C230.885 556.712 231.167 556.288 231.568 555.999C231.821 555.829 232.088 555.68 232.364 555.552C232.7 555.429 233.053 555.362 233.409 555.353C235.637 555.331 237.784 556.189 239.382 557.74C241.817 560.02 243.323 563.118 243.612 566.44C243.661 566.938 243.661 567.435 243.661 567.932C243.653 568.414 243.62 568.895 243.562 569.374C243.512 569.871 243.413 570.319 243.363 570.816C243.276 571.303 243.16 571.784 243.014 572.258C242.459 574.164 241.585 575.963 240.43 577.578C239.352 579.08 238.08 580.434 236.647 581.605C235.371 582.643 233.966 583.512 232.467 584.19C230.186 585.282 227.721 585.938 225.198 586.127C223.536 586.292 221.857 586.106 220.272 585.58C219.755 585.435 219.277 585.177 218.873 584.824C218.468 584.472 218.147 584.034 217.932 583.543V583.543Z" fill="#ECECEC"/>
<path d="M180.123 128.863C180.621 128.9 181.106 129.043 181.544 129.284C181.982 129.524 182.363 129.856 182.661 130.256C182.855 130.485 183.022 130.735 183.159 131.001C183.308 131.3 183.407 131.598 183.557 131.896C183.796 132.638 183.947 133.406 184.004 134.184V135.526C183.983 135.995 183.917 136.461 183.806 136.918C183.621 137.95 183.303 138.953 182.86 139.903C181.857 142.064 180.417 143.994 178.63 145.571C176.814 147.106 174.695 148.242 172.411 148.902C170.931 149.269 169.406 149.42 167.883 149.35C167.448 149.312 167.016 149.245 166.59 149.151C165.831 149.001 165.094 148.75 164.401 148.405C164.103 148.269 163.819 148.103 163.555 147.908C163.312 147.722 163.08 147.523 162.858 147.311C162.5 146.968 162.225 146.548 162.052 146.083C161.88 145.618 161.815 145.121 161.863 144.627C162.005 143.672 162.381 142.767 162.958 141.992L163.406 141.395C163.557 141.184 163.723 140.985 163.904 140.799C164.252 140.401 164.6 140.052 164.949 139.655C165.118 139.46 165.301 139.277 165.496 139.108C165.666 138.913 165.849 138.73 166.044 138.561C166.442 138.213 166.79 137.815 167.188 137.467C167.984 136.722 168.781 135.975 169.676 135.23C170.523 134.484 171.368 133.738 172.215 133.092C172.613 132.744 173.06 132.446 173.458 132.098C173.658 131.949 173.907 131.799 174.105 131.65L174.702 131.202C175.15 130.905 175.549 130.606 175.994 130.358C176.194 130.208 176.443 130.109 176.64 129.96C176.839 129.815 177.056 129.698 177.287 129.611C178.149 129.117 179.128 128.859 180.123 128.863Z" fill="#ECECEC"/>
<path d="M171.241 152.93C142.389 151.876 113.537 151.876 84.6843 152.93C78.5706 153.194 70.2586 158.555 69.2466 164.791C68.8075 167.57 68.8075 170.402 69.2466 173.182C70.2586 179.421 78.5706 184.781 84.6843 185.042C113.537 186.097 142.389 186.097 171.241 185.042C177.355 184.778 185.667 179.418 186.679 173.182C187.118 170.402 187.118 167.57 186.679 164.791C185.671 158.555 177.353 153.194 171.241 152.93Z" fill="#171C22"/>
<path d="M165.047 155.356C165.05 153.928 147.561 152.736 125.984 152.692C104.408 152.649 86.9144 153.771 86.9115 155.199C86.9086 156.627 104.397 157.819 125.974 157.863C147.55 157.906 165.044 156.783 165.047 155.356Z" fill="#A2A2A2"/>
<path d="M168.032 185.19C168.035 183.762 150.546 182.57 128.97 182.526C107.393 182.483 89.8997 183.605 89.8969 185.033C89.894 186.461 107.383 187.653 128.959 187.697C150.536 187.74 168.029 186.617 168.032 185.19Z" fill="#A2A2A2"/>
<path d="M168.576 125.293H82.4788C83.2817 114.004 82.7806 102.661 80.9855 91.4867C80.0977 85.9663 78.8956 80.5009 77.3852 75.1171C77.0386 73.8927 76.9806 72.6048 77.2159 71.3543C77.4512 70.1038 77.9733 68.9247 78.7412 67.9097C79.5092 66.8946 80.5021 66.0711 81.6422 65.5037C82.7822 64.9364 84.0383 64.6406 85.3119 64.6396H168.566C169.872 64.639 171.159 64.9485 172.322 65.5428C173.485 66.1371 174.489 66.999 175.253 68.0575C176.017 69.116 176.517 70.3407 176.714 71.6306C176.911 72.9205 176.797 74.2385 176.384 75.4761C170.963 91.517 168.324 108.364 168.579 125.293H168.576Z" fill="#171C22"/>
<path d="M125.777 0C128.68 0 131.465 1.15241 133.519 3.2037C135.572 5.255 136.726 8.03715 136.726 10.9381V71.5952H114.828V10.9381C114.828 8.03715 115.981 5.255 118.035 3.2037C120.088 1.15241 122.873 0 125.777 0V0Z" fill="#171C22"/>
<path d="M145.62 23.8643H104.439C98.9073 23.8643 94.4226 28.3446 94.4226 33.8713C94.4226 39.398 98.9073 43.8783 104.439 43.8783H145.62C151.152 43.8783 155.637 39.398 155.637 33.8713C155.637 28.3446 151.152 23.8643 145.62 23.8643Z" fill="#171C22"/>
<path d="M172.65 169.116C170.799 169.023 168.981 168.585 167.291 167.825C165.923 167.174 165.068 166.405 165.029 165.538C164.991 164.672 165.766 163.824 167.065 163.044C168.675 162.128 170.443 161.519 172.277 161.249C174.128 160.901 176.04 161.072 177.8 161.744C178.491 161.919 179.108 162.312 179.559 162.864C180.01 163.415 180.272 164.097 180.306 164.809C180.34 165.521 180.144 166.224 179.748 166.817C179.351 167.409 178.775 167.858 178.104 168.099C176.415 168.935 174.527 169.288 172.65 169.116V169.116Z" fill="#ECECEC"/>
<path d="M159.121 111.869C158.524 111.958 157.915 111.902 157.345 111.706C156.774 111.511 156.259 111.181 155.843 110.745C154.464 109.44 153.381 107.854 152.668 106.095C151.608 103.63 150.935 101.016 150.674 98.3459C150.502 96.764 150.451 95.1713 150.521 93.5816C150.596 91.864 150.8 90.1544 151.131 88.4672C151.777 85.1567 152.946 81.9702 154.596 79.0273C155.344 77.6941 156.221 76.437 157.213 75.274C158.058 74.2785 158.993 73.3636 160.008 72.5412C161.495 71.2634 163.265 70.3549 165.171 69.89C165.753 69.7176 166.369 69.6926 166.964 69.8174C167.558 69.9422 168.113 70.2128 168.576 70.6049C170.082 72.1112 169.707 75.0755 168.93 78.6449C168.731 79.5074 168.513 80.4514 168.278 81.4639C168.026 82.4773 167.833 83.3834 167.602 84.4492C167.137 86.5663 166.632 88.9448 166.132 91.4468C165.647 93.9971 165.184 96.4273 164.759 98.638C164.319 100.907 163.899 103.03 163.412 104.9C162.445 108.622 161.2 111.386 159.121 111.869Z" fill="#ECECEC"/>
<path d="M167.581 120.052C167.583 118.624 149.081 117.432 126.254 117.389C103.428 117.346 84.9207 118.469 84.9181 119.896C84.9154 121.324 103.418 122.516 126.245 122.559C149.071 122.602 167.578 121.48 167.581 120.052Z" fill="#A2A2A2"/>
<path d="M126.076 22.7333C124.96 22.3089 124.299 21.0995 123.828 19.6746C123.34 18.0583 123.034 16.3927 122.916 14.7086C122.738 13.0294 122.748 11.3357 122.946 9.65871C123.162 8.17415 123.601 6.8679 124.625 6.25552C125.619 5.65686 127.103 5.96749 128.523 7.33102C130.237 9.13385 131.266 11.479 131.431 13.9599C131.702 16.4318 131.098 18.9205 129.725 20.9946C128.566 22.5848 127.159 23.1504 126.076 22.7333Z" fill="#ECECEC"/>
<path d="M146.663 34.0495C146.73 35.217 145.936 36.3522 144.441 37.0912C142.562 37.8756 140.49 38.0712 138.498 37.6521C136.506 37.2329 134.688 36.2188 133.286 34.7442C132.217 33.4653 131.947 32.1066 132.478 31.0642C132.817 30.5324 133.272 30.0844 133.809 29.7541C134.346 29.4238 134.952 29.2199 135.58 29.1577C138.714 28.6877 141.914 29.3611 144.593 31.0545C145.143 31.3641 145.615 31.7947 145.974 32.3135C146.332 32.8324 146.568 33.4261 146.663 34.0495V34.0495Z" fill="#ECECEC"/>
</svg>
