<svg width="603" height="258" viewBox="0 0 603 258" fill="none" xmlns="http://www.w3.org/2000/svg">
<path d="M58.1791 232.757C68.6202 220.913 63.0516 224.545 73.8904 224.545L68.6202 128.744L73.8904 32.9413C62.9983 32.9413 68.6202 36.5756 58.1791 24.7295C47.738 12.8357 44.8544 0.244139 29.8894 0.244139C14.9245 0.244138 0.755812 27.4673 0.755808 128.744C0.755803 230.021 14.9253 257.244 29.8911 257.244C44.8544 257.195 47.738 244.603 58.1791 232.757Z" fill="#171C22"/>
<path d="M173.228 187.669C256.008 165.174 381.5 156.479 452.598 170.812L452.598 86.2073C381.496 100.54 256.01 92.3129 173.228 69.8199C90.446 47.3269 95.1199 10.8945 70.1107 10.8945C45.1016 10.8945 44.3569 111.425 44.3569 128.744C44.3569 146.014 45.1524 246.594 70.1107 246.594C95.069 246.594 90.446 210.114 173.228 187.669Z" fill="#171C22"/>
<path d="M482.477 177.48C483.67 144.833 483.67 112.185 482.477 79.5372C482.179 72.6199 476.113 63.2136 469.053 62.0684C465.907 61.5709 462.703 61.5709 459.557 62.0684C452.496 63.2136 446.431 72.6199 446.133 79.5372C444.94 112.185 444.94 144.833 446.133 177.48C446.431 184.397 452.496 193.804 459.557 194.948C462.703 195.446 465.907 195.446 469.053 194.948C476.113 193.804 482.179 184.397 482.477 177.48Z" fill="#171C22"/>
<path d="M484.177 167.282C485.605 167.285 486.797 149.796 486.841 128.22C486.884 106.643 485.761 89.1497 484.334 89.1468C482.906 89.1439 481.714 106.633 481.67 128.209C481.627 149.786 482.749 167.279 484.177 167.282Z" fill="#A2A2A2"/>
<path d="M446.432 165.337C445.737 165.437 444.443 161.505 443.35 154.886C443.201 154.039 443.102 153.19 442.952 152.301C442.803 151.413 442.704 150.46 442.604 149.464C442.355 147.526 442.157 145.433 442.007 143.246C441.709 138.866 441.51 133.989 441.61 128.863C441.709 123.787 442.057 118.91 442.555 114.53C442.803 112.34 443.052 110.25 443.399 108.311C443.549 107.366 443.698 106.42 443.847 105.524C444.046 104.629 444.195 103.782 444.344 102.94C445.737 96.42 447.178 92.4885 447.825 92.6379C449.266 92.9367 447.029 109.061 446.731 128.968C446.284 148.964 447.924 165.138 446.432 165.337Z" fill="#A2A2A2"/>
<path d="M54.7003 229.076C54.3525 229.175 53.4094 226.538 52.016 221.661C51.6675 220.466 51.2697 219.072 50.8719 217.629C50.4741 216.136 50.1264 214.494 49.6786 212.752C48.8831 209.268 47.8891 205.287 47.0968 200.858C46.699 198.618 46.2512 196.329 45.8059 193.89C45.5574 192.695 45.4081 191.452 45.2088 190.158C45.0103 188.914 44.8116 187.619 44.6126 186.276C44.413 184.983 44.214 183.64 44.0155 182.245C43.9163 181.548 43.817 180.901 43.7178 180.204C43.6186 179.507 43.5685 178.811 43.4693 178.114C43.1708 175.277 42.8239 172.39 42.4745 169.455C41.3312 157.56 40.5849 144.418 40.5849 130.585C40.6849 116.75 41.4805 103.611 42.723 91.7173C43.0716 88.7307 43.4196 85.844 43.767 83.0572C43.8671 82.3611 43.9163 81.6641 44.0155 80.9671C44.1148 80.2701 44.2148 79.574 44.3141 78.9271L44.9111 74.8954L45.5073 71.014C45.7066 69.7695 45.9051 68.5249 46.1528 67.2812C46.6006 64.8422 47.0476 62.5534 47.4954 60.3139C48.2909 55.8841 49.2849 51.9026 50.1304 48.4193C50.5782 46.6773 50.926 45.0354 51.3237 43.5914C51.7715 42.0989 52.1193 40.755 52.467 39.5606C53.9088 34.7334 54.8536 32.0958 55.2021 32.1951C55.5507 32.2944 55.2514 35.0815 54.4066 40.0088C54.2074 41.2525 53.9588 42.5932 53.6603 44.1389C53.4118 45.6322 53.1633 47.2749 52.8648 49.0654C52.3186 52.5987 51.5739 56.5803 50.976 61.0093C50.6775 63.2488 50.3305 65.5384 49.9812 67.9774C49.7827 69.1718 49.6827 70.4156 49.5342 71.7094C49.385 72.9539 49.2357 74.2477 49.0865 75.5415C48.9372 76.8353 48.7879 78.1792 48.5894 79.5231C48.4902 80.2201 48.4402 80.867 48.3409 81.5639C48.2909 82.2601 48.1917 82.9571 48.1416 83.654C47.8931 86.4411 47.5946 89.3276 47.3461 92.2641C46.4013 104.055 45.7058 117.048 45.6518 130.684C45.6518 144.321 46.248 157.31 47.1436 169.105C47.3921 172.041 47.6406 174.928 47.8891 177.715C47.9391 178.412 47.9884 179.108 48.0884 179.805C48.1376 180.502 48.2368 181.149 48.3369 181.846C48.4862 183.189 48.6346 184.533 48.7839 185.827C48.9331 187.12 49.0824 188.415 49.2317 189.659C49.3809 190.902 49.4801 192.148 49.6786 193.391C50.0272 195.83 50.3241 198.119 50.6234 200.359C51.1704 204.789 51.9143 208.77 52.4138 212.303C52.6623 214.046 52.9108 215.688 53.1593 217.23C53.4078 218.723 53.6563 220.117 53.8555 221.361C54.7503 226.239 55.0488 229.026 54.7003 229.076Z" fill="#A2A2A2"/>
<path d="M63.7478 221.361C63.8228 221.085 63.9544 220.828 64.1341 220.605C64.3138 220.383 64.5378 220.2 64.7918 220.069C65.0895 219.87 65.4873 219.721 65.8851 219.472C66.2829 219.273 66.7806 219.073 67.2776 218.875C67.5261 218.775 67.8247 218.626 68.0732 218.527C68.3637 218.414 68.646 218.281 68.9179 218.128C69.515 217.879 70.1612 217.581 70.8075 217.282C72.2884 216.559 73.7321 215.762 75.1329 214.893C76.8244 213.83 78.4514 212.666 80.0053 211.41C81.8166 209.933 83.543 208.354 85.1762 206.681C86.9658 204.89 88.8551 202.899 90.8442 200.71C92.833 198.57 94.9711 196.231 97.3077 193.845C99.6607 191.477 102.151 189.251 104.765 187.176C107.245 185.266 109.835 183.504 112.522 181.9C117.053 179.21 121.896 177.087 126.943 175.578C130.341 174.522 133.874 173.969 137.432 173.936C138.46 173.92 139.484 174.071 140.465 174.383C140.748 174.441 141.013 174.566 141.238 174.748C141.462 174.93 141.64 175.163 141.756 175.428C141.793 175.718 141.764 176.012 141.669 176.289C141.574 176.565 141.416 176.816 141.209 177.021C140.571 177.779 139.835 178.448 139.021 179.012C137.084 180.455 134.248 182.247 130.917 184.436C127.536 186.626 123.608 189.214 119.531 192.399C117.493 193.992 115.405 195.684 113.318 197.525C111.232 199.367 109.142 201.357 107.004 203.497C102.679 207.827 98.3033 212.456 93.4809 216.139C91.1675 217.961 88.6871 219.561 86.0726 220.916C83.7523 222.136 81.3003 223.088 78.7644 223.753C76.6516 224.307 74.4838 224.624 72.3009 224.698C71.4037 224.704 70.5069 224.654 69.6158 224.549C69.2144 224.507 68.8159 224.44 68.4225 224.35C68.0248 224.25 67.677 224.201 67.3785 224.101C66.7751 223.954 66.191 223.737 65.6382 223.455C65.2036 223.271 64.8008 223.019 64.4449 222.708C64.21 222.577 64.0189 222.379 63.895 222.139C63.7711 221.9 63.7199 221.63 63.7478 221.361Z" fill="#ECECEC"/>
<path d="M18.7016 218.177C19.2233 218.05 19.7665 218.043 20.2914 218.155C20.8163 218.267 21.3095 218.495 21.7345 218.823C23.0063 219.7 24.1451 220.756 25.1159 221.959C26.3092 223.251 27.5025 224.745 28.7466 226.089C29.3921 226.786 29.9399 227.333 30.5862 227.93C31.2317 228.478 31.8771 229.025 32.5226 229.474C33.0988 229.871 33.6963 230.236 34.3121 230.568C34.4339 230.654 34.568 230.721 34.7099 230.767C34.8517 230.813 34.9858 230.88 35.1077 230.966C35.2272 231.007 35.3434 231.057 35.4554 231.116L35.7539 231.265C36.775 231.622 37.8562 231.774 38.936 231.713C40.0087 231.706 41.0768 231.573 42.1181 231.315L42.8636 231.166L43.6092 231.016C44.0871 230.941 44.5738 230.941 45.0517 231.016C45.5324 231.129 45.9562 231.412 46.245 231.812C46.4149 232.066 46.5644 232.332 46.692 232.609C46.8152 232.944 46.8825 233.297 46.8913 233.654C46.9132 235.882 46.0555 238.028 44.5047 239.626C42.2241 242.061 39.1258 243.567 35.8039 243.856C35.3061 243.906 34.8091 243.906 34.3121 243.906C33.8301 243.898 33.3489 243.864 32.8703 243.806C32.3733 243.756 31.9255 243.657 31.4285 243.607C30.9413 243.52 30.4598 243.404 29.9867 243.259C28.0805 242.704 26.2818 241.83 24.6665 240.674C23.1638 239.596 21.8099 238.324 20.6397 236.892C19.6012 235.616 18.732 234.211 18.0538 232.711C16.9627 230.43 16.306 227.965 16.1174 225.443C15.9519 223.78 16.1383 222.102 16.6644 220.516C16.8095 220 17.0676 219.522 17.4199 219.117C17.7723 218.712 18.21 218.391 18.7016 218.177V218.177Z" fill="#ECECEC"/>
<path d="M473.381 180.367C473.344 180.866 473.201 181.35 472.961 181.788C472.72 182.226 472.389 182.607 471.988 182.906C471.76 183.1 471.51 183.266 471.243 183.403C470.944 183.553 470.647 183.652 470.348 183.801C469.606 184.041 468.838 184.191 468.061 184.249L466.718 184.249C466.249 184.228 465.783 184.161 465.326 184.05C464.295 183.865 463.291 183.547 462.341 183.104C460.18 182.101 458.25 180.661 456.673 178.874C455.138 177.059 454.003 174.94 453.342 172.655C452.975 171.175 452.825 169.65 452.894 168.127C452.933 167.692 452.999 167.261 453.093 166.835C453.243 166.075 453.494 165.339 453.839 164.645C453.975 164.347 454.142 164.063 454.336 163.799C454.522 163.556 454.722 163.324 454.933 163.103C455.276 162.745 455.696 162.469 456.161 162.297C456.626 162.124 457.124 162.059 457.617 162.107C458.572 162.249 459.478 162.625 460.252 163.202L460.849 163.65C461.06 163.801 461.26 163.967 461.446 164.148C461.843 164.496 462.192 164.845 462.59 165.193C462.784 165.363 462.967 165.546 463.137 165.741C463.331 165.91 463.514 166.093 463.683 166.288C464.032 166.686 464.429 167.034 464.777 167.432C465.523 168.229 466.269 169.025 467.014 169.921C467.761 170.767 468.506 171.613 469.152 172.459C469.5 172.857 469.798 173.305 470.146 173.703C470.296 173.902 470.445 174.151 470.594 174.349L471.042 174.947C471.34 175.395 471.638 175.793 471.887 176.239C472.036 176.438 472.135 176.687 472.285 176.885C472.429 177.083 472.547 177.301 472.633 177.531C473.128 178.394 473.386 179.372 473.381 180.367Z" fill="#ECECEC"/>
<path d="M449.314 171.485C450.368 142.633 450.368 113.781 449.314 84.9281C449.05 78.8145 443.689 70.5025 437.453 69.4905C434.673 69.0513 431.842 69.0513 429.062 69.4905C422.823 70.5025 417.463 78.8145 417.202 84.9281C416.147 113.781 416.147 142.633 417.202 171.485C417.466 177.599 422.826 185.911 429.062 186.923C431.842 187.362 434.673 187.362 437.453 186.923C443.689 185.915 449.05 177.597 449.314 171.485Z" fill="#171C22"/>
<path d="M446.888 165.291C448.316 165.294 449.508 147.805 449.552 126.228C449.595 104.652 448.473 87.1585 447.045 87.1556C445.617 87.1527 444.425 104.642 444.382 126.218C444.338 147.794 445.461 165.288 446.888 165.291Z" fill="#A2A2A2"/>
<path d="M417.054 168.276C418.482 168.279 419.674 150.79 419.718 129.214C419.761 107.637 418.639 90.1438 417.211 90.1409C415.783 90.1381 414.591 107.627 414.547 129.203C414.504 150.78 415.626 168.273 417.054 168.276Z" fill="#A2A2A2"/>
<path d="M476.951 168.821L476.951 82.7232C488.24 83.526 499.583 83.025 510.757 81.2299C516.278 80.3421 521.743 79.14 527.127 77.6295C528.351 77.2829 529.639 77.225 530.89 77.4602C532.14 77.6955 533.319 78.2176 534.334 78.9856C535.349 79.7536 536.173 80.7465 536.74 81.8865C537.308 83.0265 537.603 84.2826 537.604 85.5563L537.604 168.81C537.605 170.116 537.295 171.404 536.701 172.567C536.107 173.729 535.245 174.734 534.186 175.497C533.128 176.261 531.903 176.762 530.613 176.958C529.323 177.155 528.005 177.042 526.768 176.628C510.727 171.208 493.879 168.568 476.951 168.823L476.951 168.821Z" fill="#171C22"/>
<path d="M602.244 126.021C602.244 128.925 601.092 131.71 599.04 133.763C596.989 135.816 594.207 136.97 591.306 136.97L530.649 136.97L530.649 115.072L591.306 115.072C594.207 115.072 596.989 116.226 599.04 118.279C601.092 120.332 602.244 123.117 602.244 126.021V126.021Z" fill="#171C22"/>
<path d="M578.38 145.864L578.38 104.684C578.38 99.1517 573.9 94.667 568.373 94.667C562.846 94.667 558.366 99.1517 558.366 104.684L558.366 145.864C558.366 151.396 562.846 155.881 568.373 155.881C573.9 155.881 578.38 151.396 578.38 145.864Z" fill="#171C22"/>
<path d="M433.127 172.895C433.221 171.043 433.659 169.226 434.418 167.535C435.07 166.168 435.839 165.313 436.706 165.274C437.572 165.235 438.419 166.01 439.2 167.309C440.116 168.92 440.725 170.687 440.995 172.521C441.343 174.373 441.172 176.285 440.5 178.045C440.325 178.736 439.932 179.352 439.38 179.804C438.828 180.255 438.146 180.516 437.435 180.55C436.723 180.584 436.019 180.389 435.427 179.992C434.835 179.596 434.385 179.02 434.145 178.348C433.308 176.66 432.956 174.772 433.127 172.895V172.895Z" fill="#ECECEC"/>
<path d="M490.375 159.365C490.286 158.769 490.342 158.159 490.538 157.589C490.733 157.019 491.063 156.503 491.499 156.087C492.804 154.708 494.39 153.626 496.148 152.912C498.614 151.852 501.228 151.18 503.898 150.918C505.48 150.747 507.073 150.696 508.662 150.766C510.38 150.841 512.09 151.044 513.777 151.375C517.087 152.021 520.274 153.191 523.217 154.84C524.55 155.588 525.807 156.465 526.97 157.458C527.965 158.302 528.88 159.238 529.703 160.252C530.981 161.74 531.889 163.509 532.354 165.415C532.526 165.998 532.551 166.614 532.427 167.208C532.302 167.803 532.031 168.357 531.639 168.821C530.133 170.326 527.168 169.951 523.599 169.175C522.737 168.975 521.793 168.757 520.78 168.522C519.767 168.271 518.861 168.077 517.795 167.846C515.678 167.382 513.299 166.877 510.797 166.376C508.247 165.892 505.817 165.428 503.606 165.003C501.337 164.563 499.214 164.144 497.344 163.657C493.622 162.689 490.858 161.445 490.375 159.365Z" fill="#ECECEC"/>
<path d="M482.192 167.825C483.619 167.828 484.812 149.325 484.855 126.498C484.897 103.672 483.775 85.1648 482.347 85.1621C480.92 85.1594 479.727 103.662 479.684 126.489C479.641 149.315 480.764 167.822 482.192 167.825Z" fill="#A2A2A2"/>
<path d="M579.511 126.32C579.935 125.204 581.145 124.543 582.57 124.072C584.186 123.584 585.852 123.279 587.536 123.16C589.215 122.983 590.909 122.993 592.586 123.19C594.07 123.406 595.376 123.845 595.989 124.869C596.587 125.863 596.277 127.347 594.913 128.768C593.11 130.482 590.765 131.51 588.284 131.675C585.812 131.946 583.324 131.343 581.25 129.969C579.659 128.81 579.094 127.404 579.511 126.32Z" fill="#ECECEC"/>
<path d="M568.195 146.907C567.027 146.974 565.892 146.181 565.153 144.685C564.368 142.807 564.173 140.734 564.592 138.742C565.011 136.75 566.025 134.932 567.5 133.53C568.779 132.461 570.137 132.191 571.18 132.722C571.712 133.061 572.16 133.516 572.49 134.053C572.82 134.591 573.024 135.196 573.086 135.824C573.556 138.959 572.883 142.158 571.189 144.837C570.88 145.387 570.449 145.859 569.93 146.218C569.412 146.576 568.818 146.812 568.195 146.907V146.907Z" fill="#ECECEC"/>
</svg>
