<svg width="279" height="500" viewBox="0 0 279 500" fill="none" xmlns="http://www.w3.org/2000/svg">
<path d="M74.4614 382.657C82.7289 410.622 70.2118 440.137 64.2276 439.926C60.8732 439.808 60.2953 430.373 55.4521 429.968C50.5301 429.555 45.2788 438.81 42.9545 446.147C38.8436 459.123 43.3824 467.686 40.9636 468.741C36.8783 470.522 16.107 449.51 15.3885 423.682C15.0534 411.639 19.142 400.849 15.3359 398.883C11.389 396.845 4.57006 407.196 1.52858 405.49C-2.59154 403.179 1.28335 379.337 17.2439 363.216C22.0636 358.348 33.2946 347.004 46.7171 348.995C65.3263 351.755 73.0585 377.91 74.4614 382.657Z" fill="#E24444"/>
<path fill-rule="evenodd" clip-rule="evenodd" d="M62.9904 405.036C61.4823 405.638 57.9427 396.602 53.7269 397.327C50.4318 397.894 50.2108 403.826 45.8272 411.927C42.2909 418.464 35.4164 427.576 32.1822 426.505C26.2574 424.543 36.5062 389.731 27.5697 385.615C22.7604 383.399 15.7731 391.63 14.6275 390.45C12.5946 388.355 29.8225 357.513 45.3856 360.32C62.2334 363.359 66.013 403.828 62.9904 405.036Z" fill="#9E2F2F"/>
<path d="M199.133 378.744C190.346 408.468 203.649 439.841 210.01 439.616C213.576 439.491 214.19 429.463 219.339 429.032C224.571 428.594 230.152 438.431 232.622 446.229C236.992 460.021 232.167 469.123 234.739 470.244C239.081 472.138 261.159 449.803 261.924 422.35C262.28 409.55 257.934 398.081 261.979 395.992C266.175 393.825 273.423 404.828 276.656 403.014C281.035 400.557 276.916 375.216 259.951 358.08C254.828 352.906 242.891 340.848 228.624 342.964C208.843 345.898 200.624 373.699 199.133 378.744Z" fill="#E24444"/>
<path fill-rule="evenodd" clip-rule="evenodd" d="M211.325 402.531C212.928 403.171 216.69 393.566 221.171 394.337C224.675 394.94 224.909 401.244 229.567 409.856C233.326 416.804 240.633 426.49 244.072 425.351C250.369 423.266 239.476 386.264 248.974 381.888C254.086 379.533 261.513 388.281 262.731 387.027C264.892 384.801 246.58 352.019 230.038 355.002C212.13 358.232 208.112 401.247 211.325 402.531Z" fill="#9E2F2F"/>
<path d="M104.757 389.348C89.2065 419.271 100.862 455.498 105.85 455.674C108.596 455.771 109.749 444.958 113.321 445.047C117.69 445.156 117.401 461.368 127.535 478.943C135.049 491.977 145.778 501.393 148.309 499.831C151.189 498.052 143.735 481.872 146.304 480.592C148.283 479.606 154.016 488.546 155.781 487.555C156.93 486.909 155.483 482.562 154.87 480.043C151.916 467.904 159.452 461.624 164.709 441.199C168.456 426.641 167.617 418.218 170.722 417.747C174.576 417.162 177.888 429.821 180.016 429.29C183.174 428.502 185.935 398.095 167.624 377.255C163.588 372.66 153.01 360.622 138.369 361.143C119.056 361.832 107.618 383.842 104.757 389.348Z" fill="#E24444"/>
<path fill-rule="evenodd" clip-rule="evenodd" d="M112.228 423.243C113.261 423.789 116.745 416.394 120.064 417.196C124.194 418.195 122.237 430.481 126.988 447.245C130.842 460.843 137.44 471.491 139.38 470.88C142.126 470.016 135.091 446.726 141.02 443.946C143.176 442.935 146.862 444.726 148.855 446.694C151.649 449.453 151.76 453.192 152.318 453.107C152.902 453.018 153.261 448.834 152.318 443.946C150.857 436.374 147.827 435.173 146.486 429.655C144.57 421.763 147.79 411.96 152.5 410.599C156.991 409.302 161.107 416.179 162.704 415.179C166.243 412.966 154.695 373.807 139.809 373.399C123.035 372.94 109.683 421.9 112.228 423.243Z" fill="#9E2F2F"/>
<path d="M192.632 349.307C183.04 352.802 172.091 339.606 140.359 339.397C107.836 339.181 96.1849 352.888 86.2903 349.307C57.1275 338.754 67.0975 186.657 92.4139 86.678C94.8118 77.1998 97.3495 68.1898 100.005 59.8145C111.299 24.1849 124.723 0.0151534 138.714 7.2111e-06C152.619 -0.015139 166.041 23.8307 177.411 59.0806C180.225 67.8034 182.915 77.2255 185.455 87.1574C211.031 187.15 221.483 338.799 192.632 349.307Z" fill="#171C22"/>
<path fill-rule="evenodd" clip-rule="evenodd" d="M90.2982 319.687C88.4049 335.95 86.2962 354.06 72.0501 363.723C56.7434 374.105 31.2838 372.117 20.9559 359.621C-3.23951 330.349 49.033 235.469 72.9096 239.82C88.7013 242.697 93.8354 289.308 90.2982 319.687Z" fill="#354A4C"/>
<path fill-rule="evenodd" clip-rule="evenodd" d="M189.027 319.255C190.92 335.517 193.029 353.627 207.275 363.29C222.582 373.672 248.041 371.684 258.369 359.189C282.565 329.917 230.292 235.036 206.416 239.387C190.624 242.265 185.49 288.876 189.027 319.255Z" fill="#354A4C"/>
<path fill-rule="evenodd" clip-rule="evenodd" d="M165.008 374.515C160.141 377.349 150.696 377.451 142.681 377.537C138.968 377.577 121.232 377.767 114.128 373.436C89.5856 358.471 116.074 243.292 140.104 243.489C164.266 243.686 189.013 360.537 165.008 374.515Z" fill="#354A4C"/>
<path fill-rule="evenodd" clip-rule="evenodd" d="M185.455 87.1574C171.926 96.3463 153.443 100.264 139.462 100.374C134.15 100.415 109.026 100.068 92.4138 86.678C94.8118 77.1998 97.3495 68.1898 100.005 59.8145C111.299 24.1849 124.723 0.0151534 138.714 7.2111e-06C152.619 -0.015139 166.041 23.8307 177.411 59.0806C180.225 67.8034 182.915 77.2255 185.455 87.1574Z" fill="#62C370"/>
<path d="M138.388 206.576C159.255 206.576 176.172 189.567 176.172 168.585C176.172 147.603 159.255 130.594 138.388 130.594C117.52 130.594 100.603 147.603 100.603 168.585C100.603 189.567 117.52 206.576 138.388 206.576Z" fill="#62C370"/>
<path d="M139.031 194.919C153.378 194.919 165.008 183.226 165.008 168.8C165.008 154.375 153.378 142.682 139.031 142.682C124.685 142.682 113.055 154.375 113.055 168.8C113.055 183.226 124.685 194.919 139.031 194.919Z" fill="#171C22"/>
</svg>
