<svg width="1220" height="613" viewBox="0 0 1220 613" fill="none" xmlns="http://www.w3.org/2000/svg">
<path d="M163.598 547.914C163.26 547.915 162.93 547.817 162.647 547.633C162.364 547.449 162.142 547.187 162.006 546.879C161.871 546.571 161.829 546.23 161.885 545.898C161.941 545.567 162.093 545.259 162.323 545.012C162.473 544.875 162.597 544.711 162.688 544.529C162.729 544.079 162.947 543.662 163.294 543.37C163.641 543.077 164.089 542.932 164.543 542.966C164.996 543 165.418 543.21 165.717 543.551C166.016 543.891 166.169 544.336 166.142 544.787V544.814C166.038 545.801 165.586 546.719 164.867 547.406C164.701 547.572 164.503 547.703 164.285 547.79C164.067 547.877 163.833 547.92 163.598 547.914Z" fill="#171C22"/>
<path d="M2.95829 510.091C6.81824 523.234 11.6398 536.078 17.3843 548.519C18.0961 549.984 19.1972 551.227 20.5683 552.113C25.9616 555.716 31.6798 558.81 37.6488 561.357C38.9142 561.842 40.0577 562.596 40.9988 563.568C41.94 564.539 42.656 565.705 43.0965 566.981C44.6492 571.906 47.4341 580.398 50.3662 587.301C50.9245 588.557 51.7518 589.677 52.7902 590.581C53.8286 591.485 55.053 592.153 56.3776 592.536C65.0528 595.215 86.6356 600.536 121.482 600.45C123.359 600.396 125.213 600.87 126.832 601.816C128.451 602.763 129.769 604.145 130.636 605.804L131.208 607.014C131.981 608.525 133.135 609.811 134.557 610.746C135.979 611.68 137.62 612.231 139.319 612.344C150.899 613.594 162.604 613.055 174.019 610.745C175.604 610.46 177.091 609.78 178.341 608.767C179.59 607.755 180.563 606.445 181.167 604.957C182.468 601.501 184.55 595.523 187.69 585.709C188.324 583.951 189.459 582.416 190.957 581.292C192.455 580.169 194.251 579.506 196.122 579.385C207.246 578.189 218.195 575.729 228.757 572.05C230.348 571.559 231.773 570.64 232.874 569.393C233.974 568.147 234.708 566.622 234.993 564.987V564.849C235.259 563.319 235.92 561.884 236.909 560.685C237.899 559.485 239.185 558.563 240.64 558.006C241.942 557.462 243.339 556.831 244.657 556.132C245.866 555.528 246.92 554.655 247.737 553.581C248.554 552.507 249.112 551.261 249.367 549.937C250.966 540.693 257.738 514.775 257.652 497.713C257.548 479.303 61.3404 494.897 11.556 499.147C5.4913 499.664 1.3794 504.873 2.95829 510.091Z" fill="#62C370"/>
<path d="M227.792 466.869C226.949 466.483 226.019 466.322 225.094 466.403L200.154 468.666C198.891 468.779 197.629 468.435 196.6 467.698C195.571 466.96 194.843 465.877 194.55 464.649L193.093 458.601C192.858 457.625 192.348 456.737 191.622 456.04C190.897 455.344 189.986 454.869 188.999 454.671C169.179 450.738 149.012 448.802 128.804 448.891C103.031 448.891 79.0448 451.828 58.9105 456.874C58.1721 457.058 57.4826 457.4 56.8895 457.876L45.5602 466.964C44.8355 467.548 43.9667 467.927 43.0446 468.061L22.2943 471.189C21.6048 471.292 20.9418 471.527 20.3415 471.88C7.46922 479.655 0 488.891 0 498.81C0.0508277 502.78 1.18417 506.663 3.27886 510.041C3.95263 511.153 5.01562 511.978 6.26326 512.356L27.5095 518.817C28.2798 519.054 28.9856 519.462 29.5732 520.012C30.1607 520.561 30.6145 521.237 30.8998 521.988L31.2034 522.8C31.214 523.023 31.2371 523.245 31.2727 523.465C31.5851 526.195 32.036 528.908 32.6085 531.586C33.1618 534.285 33.9063 536.941 34.8363 539.534C35.7552 542.204 37.0365 544.735 38.6446 547.059C38.7061 547.142 38.7856 547.21 38.8772 547.257C38.9688 547.305 39.0701 547.332 39.1734 547.335C39.3528 547.339 39.5265 547.273 39.6566 547.15C39.7867 547.027 39.8625 546.857 39.8675 546.679V546.679C39.8925 543.914 39.6956 541.153 39.2785 538.42C39.1051 537.253 38.8969 536.087 38.6712 534.964C38.5699 534.446 38.5852 533.912 38.7158 533.4C38.8465 532.888 39.0893 532.412 39.4268 532.004C39.7644 531.597 40.1883 531.27 40.6681 531.045C41.1479 530.82 41.6717 530.704 42.2019 530.705H57.0101C57.974 530.701 58.9201 530.965 59.7426 531.465L82.1323 544.891C82.7394 545.258 83.4149 545.499 84.1181 545.599C88.6707 546.256 93.357 546.808 98.1368 547.258C98.9279 547.326 99.6687 547.673 100.225 548.237C100.782 548.801 101.118 549.544 101.173 550.333C101.199 551.219 101.283 552.102 101.424 552.977C101.585 554.052 101.808 555.116 102.093 556.165C102.389 557.262 102.814 558.32 103.359 559.318C103.446 559.464 103.581 559.574 103.741 559.629C103.914 559.684 104.101 559.67 104.263 559.588C104.425 559.507 104.549 559.366 104.608 559.195C105.277 557.168 105.736 555.078 105.979 552.958C106.048 552.388 106.109 551.818 106.152 551.23C106.219 550.359 106.626 549.549 107.287 548.974C107.947 548.399 108.807 548.104 109.683 548.154L111.357 548.241C111.981 548.277 112.565 548.554 112.985 549.014C113.405 549.474 113.627 550.08 113.604 550.701V550.701C113.505 552.81 113.627 554.924 113.968 557.008C114.312 559.231 115.058 561.374 116.172 563.331C116.255 563.477 116.374 563.6 116.519 563.686C116.746 563.817 117.016 563.852 117.269 563.785C117.522 563.717 117.739 563.553 117.87 563.327V563.323C118.957 561.366 119.699 559.239 120.065 557.034C120.426 554.955 120.572 552.844 120.501 550.736C120.485 550.193 120.686 549.666 121.06 549.271C121.434 548.876 121.95 548.644 122.495 548.628C122.527 548.628 122.559 548.628 122.592 548.628C124.65 548.669 126.718 548.692 128.794 548.698C161.203 548.698 190.819 544.058 213.46 536.404C214.187 536.158 214.85 535.754 215.402 535.222C215.954 534.691 216.381 534.044 216.653 533.329L220.123 524.266C220.412 523.519 220.869 522.847 221.458 522.302C222.047 521.757 222.753 521.353 223.523 521.121L239.936 516.231L240.161 516.162C240.335 516.101 240.521 516.086 240.702 516.119C240.883 516.152 241.053 516.231 241.194 516.348C241.335 516.466 241.443 516.618 241.506 516.79C241.57 516.962 241.588 517.148 241.558 517.328V517.328C241.169 519.616 240.905 521.923 240.769 524.24C240.616 526.629 240.72 529.027 241.081 531.393V531.393C241.098 531.485 241.134 531.572 241.186 531.65C241.238 531.727 241.306 531.793 241.385 531.842C241.46 531.892 241.544 531.926 241.632 531.943C241.721 531.96 241.812 531.96 241.9 531.942C241.988 531.924 242.072 531.889 242.146 531.839C242.221 531.789 242.285 531.724 242.335 531.65L242.339 531.643C243.631 529.58 244.623 527.347 245.288 525.008C245.951 522.73 246.418 520.401 246.685 518.045C246.984 515.695 247.141 513.329 247.153 510.961C247.173 509.781 247.133 508.602 247.032 507.427C247.259 507.249 247.502 507.092 247.758 506.961L254.907 503.263C255.732 502.835 256.425 502.191 256.91 501.4C257.396 500.609 257.655 499.701 257.659 498.774C257.659 486.662 246.443 475.526 227.792 466.869Z" fill="#171C22"/>
<path d="M69.4766 566.999C70.4879 568.637 71.3281 570.374 71.9839 572.182C72.6383 573.924 73.1837 575.704 73.617 577.513L73.9207 578.86C73.9605 579.127 74.0214 579.39 74.1028 579.647C74.2282 580.011 74.4395 580.339 74.7189 580.605C74.8056 580.666 74.8835 580.75 74.9877 580.813L75.0569 580.864L75.2046 580.925L75.5083 581.063C75.9243 581.236 76.3757 581.418 76.7574 581.616C77.6522 582.008 78.5213 582.455 79.3596 582.955C79.5216 583.055 79.6371 583.215 79.6811 583.4C79.725 583.584 79.6937 583.779 79.594 583.94C79.5077 584.063 79.3909 584.161 79.255 584.225C78.2973 584.598 77.2937 584.841 76.2711 584.949C75.7668 585.004 75.26 585.033 74.7528 585.035H73.9028C73.543 584.989 73.1886 584.908 72.8445 584.794C71.4085 584.299 70.2143 583.28 69.5027 581.943C69.1965 581.353 68.9774 580.721 68.8523 580.069L68.5573 578.695C68.1944 576.846 67.9452 574.976 67.811 573.096C67.6526 571.182 67.6933 569.257 67.9325 567.351C67.9682 567.191 68.0493 567.044 68.1661 566.927C68.283 566.811 68.4307 566.73 68.5921 566.695C68.7534 566.659 68.9215 566.67 69.0767 566.727C69.2318 566.783 69.3675 566.883 69.4678 567.014L69.4766 566.999Z" fill="#171C22"/>
<path d="M190.248 578.688C190.323 576.92 190.553 575.163 190.933 573.435C191.268 571.776 191.667 570.143 192.13 568.536C192.575 566.912 193.134 565.322 193.804 563.776C194.507 562.127 195.442 560.585 196.58 559.197V559.197C196.706 559.052 196.884 558.963 197.076 558.948C197.268 558.934 197.458 558.995 197.604 559.12C197.713 559.209 197.791 559.33 197.829 559.465C198.305 561.244 198.443 563.096 198.237 564.925C198.058 566.693 197.668 568.433 197.075 570.109C196.512 571.791 195.792 573.416 194.923 574.964C194.056 576.541 192.98 577.994 191.722 579.284L191.67 579.344C191.549 579.464 191.394 579.544 191.226 579.574C191.058 579.604 190.884 579.581 190.729 579.51C190.574 579.438 190.445 579.321 190.359 579.174C190.273 579.027 190.234 578.857 190.248 578.688Z" fill="#171C22"/>
<path d="M125.827 586.359C125.191 586.204 124.599 585.908 124.092 585.495C123.716 585.193 123.418 584.805 123.224 584.363C123.009 583.942 122.954 583.457 123.068 582.998C123.268 582.326 123.66 581.726 124.196 581.271C124.352 581.119 124.541 581.005 124.749 580.937C124.956 580.87 125.177 580.851 125.393 580.882V580.882C126.124 580.949 126.821 581.219 127.406 581.659C127.777 581.955 128.034 582.371 128.132 582.834C128.236 583.298 128.236 583.779 128.132 584.243C127.981 584.878 127.684 585.469 127.265 585.97C127.094 586.189 126.861 586.351 126.597 586.437C126.333 586.523 126.049 586.529 125.781 586.453L125.827 586.359Z" fill="#171C22"/>
<path d="M135.553 599.171C135.122 598.934 134.723 598.643 134.364 598.307C134.066 598.05 133.799 597.76 133.566 597.443C133.169 596.907 132.894 596.291 132.76 595.638C132.611 595.009 132.681 594.347 132.959 593.763C133.415 592.911 134.111 592.212 134.963 591.75C135.21 591.598 135.489 591.506 135.779 591.482C136.068 591.458 136.359 591.502 136.628 591.612V591.612C137.567 591.943 138.396 592.526 139.023 593.297C139.423 593.816 139.632 594.457 139.613 595.111C139.626 595.765 139.487 596.412 139.205 597.003C139.047 597.354 138.843 597.682 138.598 597.979C138.318 598.359 137.988 598.7 137.617 598.992C137.326 599.218 136.974 599.354 136.606 599.385C136.238 599.415 135.869 599.339 135.544 599.165L135.553 599.171Z" fill="#171C22"/>
<path d="M219.985 556.588C219.622 556.264 219.301 555.895 219.03 555.491C218.797 555.17 218.605 554.822 218.458 554.454C218.195 553.844 218.071 553.183 218.094 552.519C218.094 551.869 218.318 551.238 218.727 550.731C219.367 550.011 220.206 549.494 221.138 549.245C221.417 549.154 221.712 549.13 222.001 549.173C222.29 549.217 222.565 549.327 222.804 549.496C223.636 550.037 224.302 550.796 224.73 551.69C224.998 552.29 225.053 552.963 224.886 553.599C224.731 554.233 224.435 554.824 224.018 555.327C223.782 555.628 223.508 555.898 223.203 556.13C222.84 556.433 222.437 556.686 222.006 556.882C221.671 557.034 221.299 557.086 220.936 557.031C220.572 556.976 220.232 556.816 219.959 556.571L219.985 556.588Z" fill="#171C22"/>
<path d="M51.4156 553.737C50.8096 553.507 50.2617 553.147 49.8105 552.683C49.4725 552.332 49.2177 551.91 49.0647 551.448C48.9 551.008 48.9 550.523 49.0647 550.083C49.3343 549.419 49.7965 548.851 50.3922 548.45C50.5675 548.319 50.77 548.23 50.9848 548.188C51.1995 548.147 51.4209 548.154 51.6326 548.209V548.209C52.3496 548.365 53.0097 548.715 53.5408 549.219C53.8771 549.557 54.0855 550 54.1307 550.473C54.1852 550.946 54.1288 551.425 53.966 551.872C53.75 552.469 53.3963 553.008 52.9334 553.444C52.7367 553.638 52.4871 553.77 52.2157 553.824C51.9444 553.878 51.6631 553.851 51.4069 553.747L51.4156 553.737Z" fill="#171C22"/>
<path d="M240.518 539.793C240.93 540.248 241.227 540.794 241.386 541.385C241.51 541.833 241.528 542.303 241.438 542.759C241.358 543.208 241.117 543.613 240.759 543.899C240.196 544.318 239.519 544.558 238.816 544.59C238.601 544.609 238.384 544.583 238.179 544.513C237.974 544.443 237.786 544.331 237.628 544.184V544.184C237.09 543.719 236.681 543.124 236.439 542.456C236.31 542.041 236.337 541.592 236.517 541.195C236.699 540.795 236.976 540.444 237.324 540.175C237.816 539.791 238.383 539.514 238.99 539.364V539.364C239.259 539.283 239.546 539.28 239.817 539.356C240.088 539.432 240.331 539.584 240.518 539.793V539.793Z" fill="#171C22"/>
<path d="M1019.21 323.991C1023.07 339.958 1008.53 352.854 995.964 359.612C990.275 362.673 983.592 364.359 977.282 362.943C975.347 362.512 973.633 361.793 972.114 360.851C966.033 357.091 962.984 349.779 960.865 342.897C956.938 330.153 952.237 318.176 946.639 306.049C939.124 289.774 930.988 273.785 922.258 258.125C920.652 255.238 919.023 252.362 917.375 249.5C912.175 240.474 898.237 225.516 900.839 214.101C905.102 195.38 925.259 198.853 934.347 210.556C943.874 222.822 953.397 235.09 962.923 247.356L962.925 247.36C964.47 249.348 966.014 251.333 967.56 253.322C981.772 271.631 995.992 289.936 1010.21 308.243C1013.95 313.059 1017.78 318.067 1019.21 323.991Z" fill="#E24444"/>
<path d="M1136.5 187.658C1138.88 197.235 1140.87 207.102 1139.83 216.914C1138.79 226.721 1145.72 230.877 1138.8 237.89C1126.46 250.385 1111.25 248.922 1077.29 240.986C1048.21 234.188 1017.67 233.124 988.603 239.917C970.394 244.173 952.921 251.163 934.734 255.524C930.548 256.529 926.294 257.384 922.004 258.03C907.66 260.197 892.964 260.008 879.443 255.035C861.879 248.575 846.914 232.534 846.19 213.827C845.604 198.807 854.044 184.649 865.048 174.437C870.843 169.06 877.324 164.562 884.045 160.389C890.098 156.635 896.338 153.142 902.449 149.507C919.025 139.646 934.871 128.555 949.831 116.374C976.497 94.6572 994.968 57.5957 1022.98 37.9195C1037.94 27.4164 1069.3 52.1961 1081.68 69.3897C1107.22 104.868 1125.93 145.243 1136.5 187.658Z" fill="#E24444"/>
<path d="M1138.28 241.351C1173.15 223.131 1177.05 161.718 1146.98 104.18C1116.92 46.6432 1064.28 14.77 1029.41 32.9897C994.542 51.2094 990.646 112.623 1020.71 170.16C1050.77 227.697 1103.41 259.57 1138.28 241.351Z" fill="#9E2F2F"/>
<path d="M1136.77 109.519C1144.56 124.435 1149.91 139.887 1152.58 154.846C1152.76 155.838 1152.92 156.831 1153.08 157.82C1154.5 166.969 1154.9 175.902 1154.23 184.383C1152.55 205.533 1144.38 220.967 1131.22 227.842C1118.07 234.716 1100.73 232.607 1082.41 221.907C1074.07 217.039 1066.04 210.694 1058.57 203.152C1055.55 200.108 1052.63 196.867 1049.81 193.448C1042.77 184.923 1036.4 175.291 1030.93 164.819C1027.39 158.039 1024.35 151.149 1021.84 144.246C1020.48 140.493 1019.27 136.738 1018.21 132.993C1014.05 118.143 1012.39 103.479 1013.47 89.9589C1015.14 68.8055 1023.31 53.3745 1036.47 46.5001C1049.63 39.6256 1066.96 41.7312 1085.28 52.4347C1105.38 64.1698 1123.66 84.4423 1136.77 109.519Z" fill="#171C22"/>
<path d="M882.658 170.182C880.231 189.642 884.18 209.843 893.662 227.013C900.367 239.152 910.045 250.632 922.004 258.03C907.66 260.197 892.964 260.008 879.444 255.036C861.879 248.575 846.914 232.534 846.19 213.827C845.604 198.807 854.044 184.649 865.048 174.437C870.843 169.06 877.324 164.562 884.045 160.389C883.59 163.697 883.054 166.993 882.658 170.182Z" fill="#9E2F2F"/>
<path d="M1096.01 156.341C1094.98 165.005 1090.65 173.267 1083.25 179.08L1058.57 203.152C1055.55 200.108 1052.63 196.867 1049.81 193.448C1042.77 184.923 1036.4 175.291 1030.93 164.819C1027.39 158.039 1024.35 151.149 1021.84 144.246L1041.12 125.437C1055.91 113.812 1077.33 116.399 1088.96 131.212C1094.78 138.618 1097.05 147.677 1096.01 156.341Z" fill="#E24444"/>
<path d="M1085.05 161.485C1085.12 161.668 1085 161.902 1084.7 162.188C1084.4 162.464 1083.91 162.849 1083.21 163.115C1081.83 163.743 1079.6 164.192 1076.93 163.958C1071.58 163.51 1064.6 160.655 1058.83 154.92C1057.35 153.456 1056.14 151.805 1055.14 150.139C1054.13 148.469 1053.36 146.759 1052.81 145.088C1052.5 144.262 1052.31 143.428 1052.09 142.632C1052.01 142.228 1051.92 141.831 1051.84 141.439C1051.76 141.048 1051.69 140.663 1051.64 140.281C1051.58 139.901 1051.53 139.527 1051.48 139.16C1051.44 138.793 1051.42 138.431 1051.39 138.078C1051.36 137.724 1051.33 137.379 1051.32 137.04C1051.31 136.702 1051.31 136.371 1051.3 136.048C1051.3 133.466 1051.63 131.415 1052.01 130.034C1052.42 128.653 1052.86 127.933 1053.24 127.967C1054.07 128.036 1054.32 131.094 1055.28 135.635C1055.35 135.918 1055.41 136.207 1055.47 136.503C1055.54 136.797 1055.63 137.093 1055.7 137.397C1055.78 137.7 1055.85 138.011 1055.94 138.322C1056.03 138.632 1056.12 138.947 1056.22 139.268C1056.31 139.59 1056.41 139.911 1056.53 140.234C1056.64 140.558 1056.75 140.887 1056.86 141.22C1057.13 141.869 1057.36 142.554 1057.67 143.214C1058.25 144.56 1058.98 145.904 1059.84 147.205C1060.7 148.504 1061.68 149.783 1062.84 150.932C1064.03 152.116 1065.31 153.206 1066.59 154.196C1067.89 155.165 1069.19 156.041 1070.47 156.805C1073.03 158.319 1075.5 159.369 1077.62 160.013C1081.87 161.35 1084.72 160.678 1085.05 161.485Z" fill="#9E2F2F"/>
<path d="M1153.49 160.684C1154.57 168.834 1154.83 176.787 1154.23 184.383C1152.55 205.533 1144.38 220.967 1131.22 227.842C1120.22 233.593 1106.28 233.057 1091.29 226.459L1153.49 160.684Z" fill="#ECECEC"/>
<path d="M967.559 253.322C962.254 254.852 953.949 256.786 950.353 255.157C944.859 252.672 941.733 257.587 933.832 256.562C926.607 255.625 962.06 247.457 962.906 247.36C962.919 247.357 962.923 247.355 962.923 247.355L962.924 247.359C964.47 249.348 966.014 251.333 967.559 253.322Z" fill="#171C22"/>
<path fill-rule="evenodd" clip-rule="evenodd" d="M1077.37 48.3155L1014.38 114.929C1013.15 106.339 1012.83 97.9486 1013.47 89.959C1015.14 68.8056 1023.31 53.3746 1036.47 46.5001C1047.72 40.6252 1062.01 41.3077 1077.37 48.3155Z" fill="#ECECEC"/>
<path fill-rule="evenodd" clip-rule="evenodd" d="M1150.64 145.714C1151.88 150.749 1152.84 155.75 1153.49 160.684L1091.29 226.46C1088.37 225.173 1085.4 223.657 1082.41 221.907C1081.6 221.431 1080.78 220.94 1079.97 220.436L1150.64 145.714Z" fill="#62C370"/>
<path d="M1053.26 78.866C1052.56 79.2346 1051.69 78.9604 1051.32 78.2542L1038.84 54.3749C1038.47 53.6687 1038.74 52.7971 1039.45 52.4285C1040.15 52.0599 1041.02 52.3338 1041.39 53.0401L1053.87 76.9191C1054.24 77.6257 1053.97 78.4973 1053.26 78.866Z" fill="#171C22"/>
<path d="M1039.99 99.7609C1039.28 100.129 1038.41 99.8554 1038.04 99.1491L1025.56 75.2701C1025.19 74.5639 1025.47 73.6923 1026.17 73.3237C1026.88 72.9551 1027.75 73.229 1028.12 73.9353L1040.6 97.8143C1040.96 98.5205 1040.69 99.3922 1039.99 99.7609Z" fill="#171C22"/>
<path d="M1027.57 116.018C1026.87 116.386 1026 116.112 1025.63 115.406L1017.54 99.9334C1017.17 99.2272 1017.45 98.3556 1018.15 97.9868C1018.86 97.618 1019.73 97.8923 1020.1 98.5986L1028.18 114.071C1028.55 114.777 1028.28 115.649 1027.57 116.018Z" fill="#171C22"/>
<path d="M1074.47 74.764C1073.76 75.1327 1072.89 74.8585 1072.52 74.1523L1060.05 50.2733C1059.68 49.5671 1059.95 48.6955 1060.66 48.3269C1061.36 47.9582 1062.23 48.2322 1062.6 48.9385L1075.08 72.8174C1075.45 73.5238 1075.17 74.3954 1074.47 74.764Z" fill="#171C22"/>
<path d="M1127 222.652C1126.29 223.021 1125.42 222.747 1125.05 222.04L1114.64 202.106L1097.63 199.6C1096.84 199.484 1096.29 198.751 1096.41 197.963C1096.52 197.175 1097.26 196.629 1098.04 196.746L1115.78 199.358C1116.24 199.425 1116.63 199.708 1116.85 200.118L1127.61 220.706C1127.98 221.412 1127.7 222.284 1127 222.652Z" fill="#171C22"/>
<path d="M1104.72 226.316C1104.01 226.685 1103.14 226.411 1102.77 225.704L1099.16 218.781L1082.2 215.8C1081.42 215.661 1080.89 214.913 1081.03 214.129C1081.17 213.344 1081.91 212.82 1082.7 212.957L1100.35 216.062C1100.79 216.14 1101.17 216.418 1101.38 216.815L1105.33 224.369C1105.7 225.076 1105.42 225.948 1104.72 226.316Z" fill="#171C22"/>
<path d="M1141.81 206.306C1141.1 206.675 1140.23 206.401 1139.86 205.695L1129.68 186.211L1111.8 183.798C1111.01 183.692 1110.46 182.965 1110.56 182.175C1110.67 181.385 1111.39 180.831 1112.18 180.938L1130.8 183.451C1131.27 183.513 1131.67 183.798 1131.89 184.213L1142.42 204.36C1142.79 205.066 1142.51 205.938 1141.81 206.306Z" fill="#171C22"/>
<path d="M1150.18 181.439C1149.48 181.808 1148.61 181.534 1148.24 180.827L1143.45 171.657L1125.99 169.376C1125.2 169.273 1124.64 168.548 1124.75 167.758C1124.85 166.968 1125.57 166.411 1126.36 166.514L1144.56 168.893C1145.03 168.954 1145.44 169.239 1145.65 169.656L1150.79 179.492C1151.16 180.199 1150.89 181.07 1150.18 181.439Z" fill="#171C22"/>
<path d="M1152.58 154.845C1152.76 155.838 1152.92 156.831 1153.08 157.82L1139.44 156.038C1138.66 155.937 1138.1 155.209 1138.2 154.422C1138.3 153.633 1139.03 153.073 1139.82 153.177L1152.58 154.845Z" fill="#171C22"/>
<path d="M317.529 538.902C216.014 444.302 204 211.055 204 211.055L994.501 159L1081 603.471C1081 603.471 419.045 633.503 317.529 538.902Z" fill="#171C22"/>
<path d="M1.98497 267.322C3.36987 269.839 6.53582 270.76 9.05787 269.379C9.75129 269.001 10.4531 268.65 11.1618 268.325C10.7852 269.332 10.7165 270.466 11.0389 271.58C11.8381 274.337 14.7266 275.928 17.4906 275.13C23.1015 273.514 28.6284 273.525 33.054 275.16C36.3088 276.364 39.077 278.577 40.7942 281.218L64.5466 282.262C63.7862 279.605 62.5794 277.097 61.0028 274.845C62.4694 269.715 62.1318 264.064 59.9786 259.178C57.3676 253.253 52.122 248.531 45.9487 246.545C43.3999 245.724 40.6705 247.122 39.8494 249.664C39.3792 251.123 39.6385 252.64 40.4271 253.823C37.7253 252.484 34.8572 251.401 31.8601 250.6C23.4539 248.353 14.8277 248.523 6.91511 251.088C4.17917 251.977 2.68242 254.91 3.57272 257.639C3.8488 258.488 4.32476 259.219 4.93211 259.795C4.63545 259.948 4.34145 260.105 4.04687 260.266C1.52453 261.646 0.601562 264.806 1.98497 267.322Z" fill="#B39370"/>
<path d="M14.7139 268.15C14.9365 268.349 15.6924 267.835 16.9891 267.257C17.6345 266.962 18.42 266.651 19.3073 266.365C20.1943 266.08 21.1886 265.825 22.2312 265.67C23.2805 265.515 24.2691 265.479 25.1805 265.545C26.0916 265.604 26.9242 265.755 27.6377 265.887C29.0641 266.166 30.0099 266.343 30.1255 266.074C30.2342 265.826 29.5078 265.181 28.0861 264.512C27.3734 264.186 26.4752 263.858 25.415 263.675C24.8865 263.585 24.3205 263.523 23.7331 263.52C23.1459 263.515 22.5396 263.558 21.9314 263.647C19.4852 264.02 17.4774 265.035 16.225 266.029C15.5983 266.528 15.1569 267.014 14.916 267.403C14.7893 267.589 14.7205 267.763 14.686 267.887C14.6531 268.014 14.6623 268.102 14.7139 268.15Z" fill="#5E3F26"/>
<path d="M51.7556 258.272C51.7842 257.985 51.2564 257.684 50.4335 257.311C50.0199 257.131 49.5313 256.915 48.9871 256.697C48.4453 256.472 47.8495 256.225 47.2241 255.966C46.5996 255.705 46.0047 255.455 45.4634 255.229C44.9242 254.997 44.4272 254.801 44.0067 254.636C43.1618 254.315 42.5753 254.154 42.3917 254.376C42.2151 254.589 42.5065 255.173 43.2238 255.853C43.5788 256.196 44.0428 256.547 44.5835 256.896C45.1275 257.237 45.753 257.566 46.4344 257.853C47.1176 258.136 47.7927 258.347 48.4183 258.494C49.048 258.631 49.624 258.714 50.1191 258.723C51.1087 258.752 51.7294 258.546 51.7556 258.272Z" fill="#5E3F26"/>
<path d="M27.7489 256.373C27.8134 256.106 26.7469 255.553 24.8864 255.021C23.9552 254.761 22.8195 254.512 21.5276 254.376C20.238 254.238 18.7928 254.216 17.3049 254.367C14.3209 254.663 11.7262 255.491 9.96631 256.37C9.08586 256.809 8.41884 257.267 8.00553 257.646C7.79657 257.831 7.65368 258.003 7.57134 258.136C7.48856 258.269 7.46664 258.366 7.50691 258.424C7.54718 258.481 7.6477 258.499 7.7985 258.48C7.94885 258.461 8.14813 258.407 8.40229 258.337C8.90449 258.189 9.60819 257.959 10.4918 257.718C12.2521 257.234 14.7407 256.675 17.5035 256.403C18.8862 256.263 20.1991 256.228 21.4029 256.256C22.606 256.282 23.6999 256.372 24.6291 256.444C26.4871 256.598 27.6817 256.655 27.7489 256.373Z" fill="#5E3F26"/>
<path d="M295.17 230.457C294.719 233.293 292.052 235.227 289.211 234.779C288.43 234.657 287.65 234.563 286.873 234.496C287.569 235.317 288.018 236.361 288.092 237.518C288.274 240.383 286.094 242.853 283.223 243.035C277.395 243.407 272.197 245.281 268.586 248.313C265.93 250.543 264.075 253.56 263.353 256.624L241.353 265.618C241.169 262.862 241.455 260.094 242.175 257.443C239.057 253.109 237.46 247.677 237.831 242.353C238.281 235.896 241.618 229.683 246.755 225.731C248.876 224.099 251.918 224.494 253.552 226.609C254.489 227.824 254.759 229.339 254.418 230.719C256.507 228.547 258.839 226.561 261.388 224.796C268.538 219.846 276.714 217.096 285.03 216.842C287.906 216.755 290.308 219.01 290.395 221.88C290.423 222.772 290.223 223.62 289.846 224.367C290.177 224.411 290.507 224.459 290.839 224.511C293.68 224.959 295.62 227.622 295.17 230.457Z" fill="#B39370"/>
<path d="M283.795 235.529C283.88 235.27 283.093 234.706 281.632 234.166C280.902 233.9 279.991 233.657 278.939 233.53C278.413 233.472 277.853 233.441 277.272 233.458C276.691 233.478 276.092 233.542 275.489 233.652C274.885 233.758 274.304 233.92 273.761 234.102C273.487 234.19 273.226 234.297 272.969 234.397C272.715 234.509 272.466 234.613 272.231 234.734C271.282 235.198 270.49 235.754 269.897 236.309C269.302 236.863 268.917 237.423 268.736 237.851C268.639 238.06 268.599 238.243 268.592 238.376C268.585 238.508 268.612 238.591 268.673 238.627C268.734 238.663 268.825 238.651 268.939 238.599C269.053 238.548 269.186 238.456 269.36 238.347C269.695 238.121 270.155 237.802 270.763 237.469C271.369 237.134 272.117 236.777 272.985 236.461C273.199 236.377 273.426 236.307 273.653 236.227C273.884 236.157 274.118 236.079 274.36 236.014C274.844 235.879 275.341 235.754 275.861 235.663C276.38 235.568 276.888 235.501 277.381 235.459C277.874 235.419 278.353 235.409 278.813 235.41C279.734 235.424 280.58 235.5 281.304 235.574C282.752 235.73 283.706 235.806 283.795 235.529Z" fill="#5E3F26"/>
<path d="M245.263 238.726C245.381 238.976 246.035 238.96 246.956 238.598C247.419 238.422 247.933 238.15 248.479 237.809C249.018 237.46 249.581 237.033 250.129 236.538C250.673 236.038 251.151 235.518 251.548 235.013C251.938 234.502 252.257 234.016 252.474 233.573C252.919 232.69 252.994 232.041 252.756 231.902C252.507 231.755 252.011 232.105 251.325 232.692C250.986 232.989 250.584 233.341 250.155 233.74C249.722 234.136 249.247 234.571 248.747 235.028C248.246 235.482 247.769 235.916 247.335 236.31C246.897 236.7 246.51 237.067 246.182 237.377C245.534 238.005 245.139 238.466 245.263 238.726Z" fill="#5E3F26"/>
<path d="M267.708 228.665C267.757 228.716 267.858 228.717 268.002 228.678C268.146 228.638 268.33 228.554 268.567 228.45C269.032 228.234 269.68 227.911 270.504 227.556C271.327 227.201 272.32 226.807 273.444 226.421C274.006 226.229 274.601 226.039 275.22 225.851C275.84 225.668 276.487 225.488 277.146 225.321C278.474 224.997 279.749 224.751 280.916 224.6C282.083 224.445 283.147 224.376 284.052 224.334C285.861 224.255 287.03 224.235 287.077 223.945C287.123 223.679 286.032 223.189 284.131 222.89C283.183 222.744 282.03 222.662 280.751 222.723C279.471 222.78 278.077 222.988 276.652 223.337C273.806 224.05 271.385 225.188 269.792 226.297C268.995 226.848 268.412 227.395 268.069 227.828C267.893 228.04 267.782 228.231 267.724 228.373C267.665 228.516 267.659 228.614 267.708 228.665Z" fill="#5E3F26"/>
<path d="M203.432 485.923C205.758 487.55 208.255 489.022 210.1 491.179C211.944 493.335 213.036 496.412 211.987 499.047C211.152 501.144 209.099 502.579 206.918 503.177C204.737 503.774 202.426 503.643 200.18 503.377C190.961 502.284 182.017 498.946 174.342 493.733C170.868 491.373 167.566 488.529 165.686 484.779C162.939 479.3 163.806 472.218 167.794 467.56C171.782 462.902 178.658 460.941 184.511 462.793C186.733 463.496 189.121 464.92 189.835 467.291C190.463 469.376 189.626 471.193 190.725 473.252C193.395 478.249 198.87 482.731 203.432 485.923Z" fill="#222831"/>
<path d="M153.783 513.462C155.916 515.335 158.237 517.07 159.833 519.416C161.429 521.762 162.175 524.94 160.842 527.444C159.781 529.437 157.583 530.638 155.349 530.993C153.116 531.348 150.833 530.965 148.63 530.454C139.587 528.357 131.065 524.059 124.01 518.037C120.817 515.311 117.848 512.122 116.391 508.189C114.264 502.442 115.905 495.497 120.382 491.305C124.859 487.112 131.909 485.916 137.522 488.398C139.654 489.341 141.871 491.018 142.319 493.453C142.714 495.594 141.682 497.308 142.548 499.475C144.651 504.735 149.6 509.79 153.783 513.462Z" fill="#222831"/>
<path d="M101.483 380.184C101.779 387.637 103.259 391.948 106.735 395.518C108.881 397.721 110.107 400.657 110.166 403.729L111.997 499.133L112.035 499.131C112.035 499.131 112.035 499.131 112.035 499.133C112.035 502.419 119.328 505.081 128.323 505.081C137.317 505.081 144.609 502.419 144.609 499.133C144.609 498.974 144.593 498.816 144.559 498.661L144.726 498.658V405.445C144.726 400.969 149.903 397.582 153.97 397.513C156.391 397.473 160.919 399.068 160.919 403.517V470.255H160.927C160.922 470.311 160.919 470.369 160.919 470.427C160.919 473.713 168.135 476.375 177.038 476.375C185.94 476.375 193.157 473.713 193.157 470.427C193.157 470.384 193.155 470.341 193.153 470.298L197.656 366.38C199.429 366.809 205.93 314.814 205.93 278.502C205.93 257.813 205.237 235.127 187.882 229.31C174.777 224.914 159.842 224.451 147.794 227.457C138.172 229.858 128.534 235.151 119.09 241.436C92.0244 259.45 101.483 380.184 101.483 380.184Z" fill="#354A4C"/>
<path d="M175.915 316.605C175.983 316.626 176.063 316.59 176.155 316.488C176.2 316.437 176.254 316.371 176.299 316.286C176.339 316.2 176.381 316.097 176.422 315.977C176.459 315.858 176.477 315.721 176.501 315.567C176.512 315.416 176.516 315.247 176.503 315.067C176.472 314.708 176.368 314.303 176.172 313.886C175.97 313.473 175.668 313.052 175.242 312.683C174.819 312.316 174.256 311.998 173.578 311.871C172.905 311.741 172.122 311.836 171.465 312.173C170.802 312.503 170.242 313.02 169.84 313.652C169.446 314.287 169.219 315.015 169.21 315.755C169.194 316.494 169.452 317.237 169.863 317.785C170.274 318.34 170.807 318.704 171.324 318.923C171.844 319.143 172.356 319.227 172.816 319.228C173.279 319.22 173.689 319.133 174.027 319.003C174.195 318.933 174.346 318.857 174.477 318.777C174.604 318.687 174.719 318.61 174.81 318.522C174.899 318.432 174.973 318.348 175.031 318.274C175.087 318.195 175.122 318.117 175.147 318.054C175.196 317.925 175.193 317.838 175.144 317.788C175.094 317.737 175.001 317.725 174.88 317.739C174.819 317.745 174.755 317.763 174.678 317.778C174.598 317.789 174.513 317.805 174.423 317.826C174.331 317.845 174.225 317.85 174.12 317.87C174.011 317.878 173.893 317.885 173.771 317.889C173.523 317.887 173.247 317.858 172.956 317.789C172.666 317.712 172.364 317.588 172.09 317.409C171.816 317.231 171.577 316.996 171.424 316.725C171.274 316.454 171.19 316.152 171.218 315.804C171.243 315.46 171.365 315.082 171.576 314.739C171.792 314.4 172.083 314.127 172.383 313.955C172.686 313.777 172.994 313.717 173.306 313.736C173.618 313.755 173.934 313.866 174.215 314.033C174.496 314.201 174.742 314.417 174.938 314.644C175.128 314.875 175.278 315.11 175.389 315.333C175.441 315.444 175.485 315.552 175.528 315.655C175.557 315.757 175.599 315.855 175.624 315.945C175.646 316.035 175.67 316.119 175.696 316.195C175.717 316.27 175.73 316.336 175.753 316.393C175.795 316.508 175.848 316.585 175.915 316.605Z" fill="#222831"/>
<path d="M175.149 340.951C175.27 341.003 175.53 340.818 175.681 340.298C175.83 339.787 175.778 338.963 175.329 338.135C175.108 337.72 174.793 337.305 174.368 336.929C173.943 336.558 173.398 336.215 172.69 336.056C172.602 336.036 172.512 336.019 172.419 336.009C172.332 335.995 172.221 335.988 172.111 335.985C172.001 335.977 171.896 335.996 171.787 336.004C171.686 336.017 171.599 336.033 171.503 336.05C171.134 336.128 170.784 336.263 170.46 336.439C169.81 336.792 169.263 337.302 168.836 337.93C168.417 338.56 168.13 339.301 168.12 340.107C168.112 340.506 168.187 340.918 168.337 341.291C168.409 341.479 168.507 341.654 168.595 341.79C168.686 341.934 168.774 342.075 168.885 342.202C169.301 342.724 169.813 343.106 170.334 343.353C170.857 343.601 171.391 343.72 171.879 343.731C172.371 343.738 172.81 343.639 173.165 343.498C173.252 343.458 173.335 343.414 173.413 343.373C173.49 343.331 173.565 343.294 173.629 343.242C173.695 343.194 173.756 343.147 173.813 343.102C173.87 343.058 173.922 343.013 173.965 342.962C174.053 342.865 174.126 342.776 174.183 342.697C174.234 342.61 174.27 342.532 174.293 342.466C174.339 342.333 174.334 342.244 174.283 342.195C174.232 342.147 174.137 342.14 174.012 342.163C173.95 342.175 173.88 342.195 173.804 342.221C173.722 342.238 173.634 342.26 173.54 342.288C173.495 342.304 173.444 342.313 173.391 342.321C173.34 342.331 173.286 342.342 173.23 342.353C173.177 342.368 173.116 342.368 173.057 342.374C172.998 342.38 172.938 342.386 172.875 342.392C172.621 342.394 172.343 342.372 172.048 342.295C171.754 342.213 171.448 342.073 171.161 341.871C170.874 341.67 170.608 341.404 170.407 341.087C170.351 341.013 170.312 340.924 170.268 340.838C170.218 340.746 170.19 340.681 170.172 340.611C170.132 340.475 170.113 340.328 170.127 340.161C170.147 339.831 170.293 339.434 170.538 339.068C170.786 338.703 171.113 338.385 171.452 338.18C171.621 338.077 171.791 338 171.953 337.951L172.068 337.921C172.094 337.919 172.122 337.901 172.145 337.905C172.168 337.905 172.19 337.899 172.234 337.903C172.273 337.902 172.312 337.905 172.352 337.91C172.674 337.94 173.026 338.081 173.332 338.272C173.639 338.464 173.91 338.698 174.124 338.938C174.561 339.422 174.777 339.907 174.884 340.27C174.992 340.634 175.013 340.898 175.149 340.951Z" fill="#222831"/>
<path d="M104.638 376.835C104.728 376.936 105.924 376.045 108.021 374.339C109.069 373.486 110.343 372.429 111.816 371.19C112.551 370.569 113.337 369.904 114.172 369.198C114.588 368.844 115.016 368.479 115.456 368.105C115.676 367.918 115.898 367.728 116.124 367.535C116.199 367.476 116.275 367.416 116.352 367.356C116.391 367.393 116.43 367.431 116.469 367.469L116.526 367.523L116.553 367.55L116.641 367.628C116.897 367.855 117.155 368.084 117.417 368.316C117.939 368.782 118.481 369.252 119.035 369.733C119.589 370.214 120.155 370.706 120.74 371.2C121.325 371.694 121.918 372.204 122.533 372.71C124.984 374.747 127.665 376.892 130.598 379.032C133.522 381.184 136.704 383.303 139.992 385.486C140.407 385.761 140.824 386.038 141.243 386.316C141.363 386.393 141.503 386.479 141.669 386.56C141.751 386.601 141.842 386.641 141.942 386.677C142.051 386.717 142.177 386.751 142.297 386.773C142.541 386.819 142.793 386.817 143.036 386.767C143.158 386.742 143.277 386.704 143.392 386.656C143.506 386.61 143.626 386.546 143.702 386.5C143.87 386.4 144 386.301 144.105 386.222L144.408 385.994C144.609 385.842 144.811 385.69 145.013 385.537C145.417 385.231 145.823 384.925 146.231 384.617C147.86 383.383 149.514 382.13 151.189 380.861C154.386 378.427 157.508 376.051 160.524 373.755C162.027 372.618 163.511 371.529 165.006 370.548C165.753 370.056 166.505 369.597 167.259 369.163C168.013 368.733 168.774 368.342 169.536 367.98C169.826 367.85 170.113 367.721 170.399 367.593L170.472 367.561L170.509 367.545L170.519 367.555L170.54 367.576L170.551 367.587L170.557 367.593L170.603 367.645C171.166 368.29 171.733 368.916 172.295 369.529C173.424 370.752 174.551 371.91 175.665 373.005C177.894 375.193 180.073 377.123 182.125 378.805C182.384 379.015 182.64 379.222 182.892 379.427C183.162 379.638 183.47 379.874 183.887 380.035C184.096 380.113 184.333 380.168 184.577 380.17C184.82 380.173 185.055 380.126 185.261 380.054C185.674 379.905 185.973 379.679 186.229 379.469C186.485 379.253 186.685 379.055 186.904 378.855C187.119 378.657 187.323 378.454 187.528 378.257C187.933 377.861 188.317 377.468 188.681 377.082C190.133 375.535 191.262 374.098 192.115 372.88C192.97 371.662 193.558 370.669 193.924 369.978C194.29 369.288 194.437 368.9 194.379 368.865C194.316 368.827 194.051 369.143 193.577 369.755C193.103 370.367 192.417 371.275 191.482 372.397C190.548 373.519 189.356 374.848 187.866 376.278C187.493 376.635 187.101 376.998 186.69 377.364C186.482 377.546 186.276 377.734 186.058 377.916C185.843 378.096 185.616 378.299 185.411 378.456C185.205 378.615 185.001 378.737 184.833 378.785C184.661 378.833 184.561 378.824 184.391 378.756C184.223 378.684 184.017 378.533 183.791 378.338C183.552 378.129 183.309 377.918 183.064 377.703C181.101 375.975 179.011 374.014 176.872 371.81C175.802 370.709 174.719 369.546 173.633 368.324C173.092 367.711 172.546 367.086 172.004 366.444C171.756 366.152 171.507 365.859 171.258 365.565L171.059 365.331C170.975 365.35 170.886 365.396 170.8 365.427C170.625 365.496 170.45 365.565 170.275 365.634C169.44 365.958 169.196 366.077 168.749 366.267C167.931 366.641 167.116 367.045 166.315 367.489C165.516 367.935 164.722 368.408 163.94 368.91C162.374 369.914 160.843 371.016 159.316 372.155C156.276 374.437 153.153 376.803 149.948 379.234C148.276 380.506 146.624 381.762 144.997 382.998C144.591 383.308 144.186 383.617 143.783 383.924C143.582 384.077 143.381 384.231 143.18 384.384L142.88 384.613C142.785 384.686 142.712 384.738 142.664 384.767C142.633 384.785 142.641 384.78 142.639 384.782L142.637 384.783C142.635 384.782 142.634 384.784 142.632 384.784C142.629 384.783 142.634 384.785 142.626 384.782C142.607 384.776 142.584 384.766 142.554 384.752C142.495 384.724 142.42 384.681 142.331 384.624C141.918 384.354 141.506 384.085 141.096 383.817C137.787 381.656 134.615 379.596 131.695 377.516C128.765 375.448 126.07 373.38 123.587 371.418C122.963 370.932 122.361 370.441 121.767 369.966C121.171 369.491 120.594 369.018 120.029 368.557C119.463 368.096 118.909 367.646 118.373 367.2C118.105 366.978 117.839 366.759 117.577 366.543C117.158 366.191 116.743 365.845 116.334 365.503C115.957 365.846 115.585 366.185 115.217 366.52C114.999 366.721 114.785 366.92 114.573 367.116C114.149 367.509 113.738 367.892 113.337 368.263C112.539 369.01 111.786 369.713 111.083 370.37C109.681 371.687 108.482 372.828 107.513 373.769C105.573 375.651 104.548 376.735 104.638 376.835Z" fill="#222831"/>
<path d="M173.534 312.507C172.968 312.507 172.51 311.058 172.51 309.27C172.51 307.482 172.968 306.033 173.534 306.033C174.1 306.033 174.559 307.482 174.559 309.27C174.559 311.058 174.1 312.507 173.534 312.507Z" fill="#222831"/>
<path d="M173.087 336.565C172.521 336.565 172.062 335.188 172.062 333.489C172.062 331.79 172.521 330.413 173.087 330.413C173.653 330.413 174.112 331.79 174.112 333.489C174.112 335.188 173.653 336.565 173.087 336.565Z" fill="#222831"/>
<path d="M170.468 359.82C171.033 359.846 171.681 356.086 172.026 351.419C172.364 346.752 172.27 342.937 171.707 342.881C171.143 342.825 170.321 346.581 169.982 351.27C169.635 355.959 169.902 359.794 170.468 359.82Z" fill="#222831"/>
<path d="M159.36 393.637C159.437 393.756 159.776 393.683 160.335 393.442C160.475 393.381 160.629 393.31 160.795 393.229C160.959 393.143 161.127 393.037 161.31 392.925C161.672 392.696 162.098 392.444 162.515 392.099C162.727 391.93 162.949 391.752 163.181 391.567C163.41 391.379 163.626 391.159 163.86 390.942C163.976 390.831 164.093 390.718 164.212 390.604C164.271 390.546 164.333 390.49 164.391 390.429C164.447 390.367 164.504 390.304 164.561 390.241C164.787 389.986 165.02 389.724 165.26 389.455C166.173 388.343 167.067 387.023 167.814 385.533C168.543 384.036 169.048 382.524 169.376 381.124C169.445 380.771 169.511 380.427 169.576 380.092C169.591 380.009 169.607 379.926 169.622 379.843C169.636 379.761 169.643 379.678 169.653 379.596C169.671 379.431 169.689 379.27 169.707 379.111C169.737 378.793 169.781 378.489 169.791 378.193C169.797 377.897 169.802 377.613 169.808 377.342C169.829 376.802 169.77 376.311 169.732 375.885C169.708 375.672 169.691 375.474 169.659 375.293C169.623 375.112 169.585 374.947 169.548 374.799C169.4 374.209 169.251 373.897 169.11 373.908C168.969 373.92 168.849 374.252 168.751 374.827C168.727 374.97 168.704 375.129 168.683 375.303C168.653 375.475 168.621 375.663 168.586 375.865C168.515 376.266 168.474 376.721 168.364 377.217C168.319 377.465 168.271 377.725 168.222 377.996C168.173 378.265 168.094 378.542 168.031 378.83C167.998 378.973 167.965 379.119 167.931 379.268C167.914 379.342 167.9 379.417 167.879 379.492C167.858 379.566 167.836 379.641 167.814 379.716C167.728 380.017 167.64 380.327 167.55 380.645C167.152 381.905 166.641 383.261 165.976 384.629C165.293 385.988 164.526 387.218 163.767 388.3C163.569 388.565 163.376 388.824 163.189 389.075C163.142 389.138 163.096 389.201 163.05 389.264C163.003 389.325 162.952 389.382 162.904 389.441C162.806 389.558 162.71 389.673 162.616 389.787C162.426 390.011 162.254 390.242 162.069 390.445C161.884 390.649 161.707 390.845 161.537 391.032C161.21 391.421 160.873 391.731 160.597 392.031C160.458 392.181 160.328 392.321 160.209 392.45C160.084 392.572 159.972 392.687 159.872 392.794C159.474 393.221 159.283 393.519 159.36 393.637Z" fill="#222831"/>
<path d="M153.269 392.043C153.466 392.235 154.202 391.868 155.153 391.001C155.271 390.892 155.393 390.776 155.519 390.654C155.644 390.531 155.766 390.396 155.894 390.258C156.154 389.984 156.407 389.671 156.673 389.34C157.19 388.668 157.71 387.889 158.179 387.029C158.644 386.166 159.012 385.306 159.292 384.506C159.425 384.103 159.549 383.72 159.637 383.353C159.682 383.17 159.729 382.995 159.763 382.823C159.797 382.651 159.827 382.486 159.854 382.328C160.06 381.059 159.965 380.244 159.697 380.184C159.414 380.119 159.011 380.804 158.473 381.89C158.209 382.429 157.896 383.072 157.547 383.785C157.195 384.49 156.805 385.259 156.377 386.056C155.943 386.851 155.511 387.597 155.113 388.277C154.705 388.959 154.338 389.572 154.03 390.087C153.413 391.131 153.06 391.842 153.269 392.043Z" fill="#222831"/>
<path d="M188.036 229.278C196.488 228.433 202.817 230.958 210.151 236.387C216.44 241.042 220.57 246.681 223.476 254.025C228.731 267.307 224.689 289.104 224.262 294.343C224.261 294.359 224.26 294.375 224.258 294.391C224.151 295.738 225.839 296.435 226.718 295.407C230.325 291.186 233.596 285.871 235.812 280.534C238.384 274.341 239.429 268.558 238.818 264.036C238.73 263.861 238.662 263.685 238.616 263.499C238.552 263.246 238.527 262.99 238.54 262.72C238.542 262.671 238.548 262.621 238.553 262.571C238.552 262.565 238.55 262.558 238.549 262.552L238.555 262.551C238.617 261.942 238.859 261.287 239.271 260.61C240.93 257.897 245.308 254.861 251.578 253.283C256.988 251.922 261.656 252.222 264.59 253.322C265.782 253.77 266.687 254.348 267.241 255.002C267.448 255.247 267.608 255.506 267.72 255.772L267.893 255.732C270.443 266.656 268.975 279.212 263.647 292.041C259.186 302.785 252.411 312.814 244.57 320.281C241.727 322.99 238.755 325.167 235.736 326.753C231.498 328.979 227.112 330.105 222.684 330.105C222.411 330.105 222.138 330.1 221.866 330.092C216.497 329.924 211.276 328.061 206.767 324.703C202.948 321.86 199.809 318.064 197.69 313.727C194.671 307.552 193.54 300.415 194.232 291.91C194.772 285.276 188.036 229.278 188.036 229.278Z" fill="#354A4C"/>
<path d="M166.85 407.366C167.185 407.278 167.383 406.713 167.279 405.847C167.252 405.632 167.209 405.398 167.138 405.156C167.075 404.91 166.978 404.659 166.87 404.396C166.641 403.876 166.323 403.332 165.913 402.819C165.499 402.309 165.035 401.882 164.576 401.547C164.341 401.385 164.117 401.236 163.889 401.121C163.668 401 163.448 400.908 163.244 400.836C162.419 400.547 161.822 400.619 161.664 400.925C161.498 401.244 161.765 401.729 162.206 402.317C162.317 402.465 162.441 402.617 162.569 402.782C162.703 402.94 162.837 403.116 162.986 403.288C163.271 403.636 163.586 404.018 163.916 404.42C164.238 404.828 164.544 405.217 164.823 405.57C164.96 405.752 165.103 405.92 165.229 406.085C165.363 406.246 165.484 406.399 165.605 406.539C166.085 407.095 166.502 407.46 166.85 407.366Z" fill="#222831"/>
<path d="M166.122 462.328C165.415 462.307 165.162 451.62 165.558 438.46C165.954 425.299 166.848 414.647 167.555 414.668C168.262 414.689 168.515 425.376 168.119 438.536C167.723 451.697 166.829 462.349 166.122 462.328Z" fill="#222831"/>
<path d="M116.163 449.023C115.982 427.317 116.409 409.715 117.117 409.709C117.824 409.704 118.544 427.295 118.725 449.002C118.905 470.708 118.478 488.309 117.771 488.315C117.063 488.321 116.343 470.729 116.163 449.023Z" fill="#222831"/>
<path d="M106.352 393.909C106.051 394.077 106.115 394.881 106.618 396.011C106.681 396.151 106.751 396.297 106.825 396.448C106.901 396.598 106.989 396.748 107.079 396.905C107.256 397.221 107.474 397.539 107.708 397.872C108.188 398.528 108.776 399.207 109.464 399.848C110.155 400.485 110.877 401.021 111.568 401.45C111.918 401.658 112.252 401.851 112.581 402.004C112.745 402.082 112.901 402.159 113.057 402.223C113.213 402.286 113.363 402.345 113.508 402.398C114.675 402.814 115.483 402.819 115.629 402.507C115.783 402.181 115.271 401.605 114.432 400.843C114.328 400.747 114.217 400.649 114.101 400.549C113.987 400.447 113.869 400.341 113.746 400.232C113.5 400.018 113.238 399.789 112.962 399.549C112.416 399.065 111.821 398.54 111.207 397.975C110.598 397.406 110.029 396.853 109.505 396.345C109.245 396.088 108.997 395.844 108.765 395.616C108.647 395.501 108.532 395.391 108.422 395.285C108.314 395.177 108.208 395.074 108.104 394.978C107.28 394.199 106.667 393.732 106.352 393.909Z" fill="#222831"/>
<path d="M124.495 304.435C124.361 304.389 123.98 305.12 123.405 306.486C123.261 306.827 123.105 307.208 122.938 307.626C122.775 308.046 122.611 308.506 122.432 309.001C122.08 309.99 121.668 311.116 121.282 312.381C121.085 313.013 120.879 313.674 120.664 314.364C120.452 315.055 120.259 315.781 120.047 316.53C119.943 316.905 119.837 317.286 119.73 317.674C119.677 317.868 119.624 318.063 119.57 318.261C119.52 318.459 119.471 318.658 119.42 318.859C119.221 319.664 119.017 320.493 118.807 321.343C118.014 324.753 117.265 328.533 116.666 332.531C116.083 336.532 115.708 340.367 115.481 343.86C115.436 344.734 115.393 345.587 115.35 346.415C115.34 346.622 115.33 346.827 115.32 347.031C115.315 347.235 115.309 347.438 115.304 347.639C115.295 348.041 115.286 348.437 115.277 348.826C115.263 349.604 115.238 350.354 115.241 351.077C115.248 351.799 115.254 352.492 115.26 353.154C115.264 354.476 115.332 355.672 115.383 356.721C115.411 357.246 115.435 357.734 115.47 358.182C115.509 358.631 115.548 359.041 115.587 359.409C115.743 360.882 115.897 361.692 116.038 361.687C116.18 361.682 116.296 360.864 116.385 359.393C116.462 357.926 116.572 355.804 116.709 353.181C116.745 352.527 116.782 351.841 116.822 351.127C116.86 350.413 116.924 349.672 116.974 348.903C117 348.519 117.027 348.129 117.054 347.732C117.068 347.533 117.082 347.333 117.095 347.132C117.113 346.931 117.131 346.728 117.149 346.524C117.218 345.707 117.29 344.866 117.363 344.004C117.691 340.559 118.118 336.779 118.693 332.829C119.285 328.881 119.968 325.14 120.651 321.747C120.83 320.9 121.005 320.075 121.174 319.272C121.216 319.072 121.257 318.872 121.299 318.675C121.344 318.478 121.388 318.282 121.432 318.088C121.521 317.701 121.609 317.319 121.695 316.944C121.869 316.194 122.022 315.465 122.192 314.77C122.361 314.075 122.523 313.408 122.677 312.771C123.305 310.221 123.813 308.157 124.164 306.73C124.504 305.297 124.629 304.48 124.495 304.435Z" fill="#222831"/>
<path d="M119.09 241.436C128.601 251.332 139.723 259.638 149.478 269.332C155.469 275.288 161.039 282.023 165.063 289.423C167.123 293.207 168.777 297.167 169.876 301.282C170.492 303.586 173.696 303.791 174.627 301.596C177.589 294.615 180.039 287.42 181.966 280.086C184.454 270.619 186.068 260.924 186.78 251.164C187.205 245.326 188.471 235.942 187.882 228.841C172.33 224.718 159.842 224.451 147.794 227.457C138.172 229.858 128.347 234.879 119.09 241.436Z" fill="#ECECEC"/>
<path d="M176.107 301.95C176.119 301.983 176.189 301.993 176.318 301.979C176.382 301.972 176.461 301.959 176.555 301.94C176.65 301.922 176.758 301.897 176.874 301.851C176.992 301.809 177.123 301.761 177.268 301.704C177.413 301.647 177.559 301.564 177.723 301.483C177.804 301.44 177.891 301.399 177.976 301.349C178.059 301.298 178.145 301.244 178.234 301.188C178.323 301.132 178.415 301.074 178.51 301.014C178.605 300.954 178.694 300.882 178.79 300.813C179.558 300.259 180.413 299.478 181.297 298.485C182.182 297.494 183.098 296.294 184.021 294.916C185.862 292.155 187.734 288.685 189.529 284.72C191.328 280.755 193.06 276.297 194.647 271.543C197.811 262.033 199.825 253.152 200.626 246.611C201.03 243.341 201.116 240.653 200.95 238.797C200.867 237.869 200.739 237.152 200.59 236.678C200.527 236.441 200.442 236.266 200.387 236.151C200.328 236.036 200.282 235.982 200.247 235.991C200.213 235.999 200.192 236.069 200.183 236.196C200.17 236.323 200.186 236.502 200.182 236.743C200.196 237.217 200.193 237.916 200.153 238.813C200.072 240.609 199.772 243.208 199.193 246.395C198.043 252.769 195.832 261.493 192.702 270.897C189.568 280.296 186.066 288.594 182.794 294.148C181.975 295.533 181.174 296.746 180.411 297.761C179.649 298.776 178.924 299.591 178.281 300.201C178.201 300.277 178.126 300.356 178.047 300.424C177.968 300.492 177.892 300.558 177.818 300.622C177.744 300.686 177.672 300.749 177.603 300.81C177.533 300.869 177.461 300.919 177.394 300.972C177.258 301.073 177.137 301.178 177.018 301.258C176.899 301.338 176.791 301.412 176.694 301.481C176.599 301.553 176.511 301.606 176.434 301.653C176.358 301.701 176.294 301.745 176.244 301.783C176.144 301.86 176.096 301.916 176.107 301.95Z" fill="#222831"/>
<path d="M178.904 248.357C179.736 246.322 179.521 243.628 177.862 242.242C176.336 240.967 174.184 241.16 172.267 241.417C170.813 241.612 169.358 241.808 167.903 242.003C165.632 242.308 163.105 242.766 161.766 244.72C160.421 246.683 160.877 249.632 162.435 251.443C163.994 253.254 166.403 254.035 168.706 254.025C172.893 254.005 177.131 252.693 178.904 248.357Z" fill="#E24444"/>
<path d="M165.063 289.423C167.123 293.207 168.777 297.167 169.876 301.282C170.492 303.586 173.696 303.791 174.627 301.596C177.589 294.615 180.039 287.42 181.966 280.086C181.662 276.728 181.207 273.386 180.602 270.069C179.619 264.676 178.163 259.437 176.494 254.221C175.987 252.638 175.838 250.84 174.355 249.941C172.519 248.825 168.975 249.634 167.169 250.401C168.987 263.382 168.237 276.706 165.063 289.423Z" fill="#E24444"/>
<path d="M187.392 217.163C194.202 215.208 199.393 209.393 202.145 202.877C204.896 196.36 205.524 189.162 205.749 182.095C206.246 166.455 204.556 149.761 194.97 137.377C185.474 125.109 168.581 119.053 153.432 122.485C147.223 123.892 141.105 126.981 137.592 132.279C133.541 138.39 133.599 146.243 133.849 153.566C134.674 177.678 136.042 201.772 137.952 225.823C138.195 228.883 138.576 232.228 140.784 234.364C142.136 235.672 143.983 236.319 145.788 236.849C153.035 238.979 173.049 243.356 179.224 236.986C185.683 230.325 174.782 220.783 187.392 217.163Z" fill="#B39370"/>
<path d="M193.326 191.683C193.854 190.931 194.63 190.391 195.517 190.156C195.71 190.117 195.909 190.193 196.026 190.351C196.168 190.551 196.121 190.827 195.922 190.969C195.917 190.972 195.913 190.975 195.909 190.978C195.345 191.359 194.865 191.852 194.5 192.426C194.177 193.001 194.002 193.647 193.991 194.306C193.989 194.961 194.15 195.607 194.461 196.185C194.802 196.788 195.286 197.299 195.869 197.673C196.073 197.797 196.138 198.063 196.014 198.267C195.911 198.436 195.707 198.514 195.517 198.456C194.637 198.206 193.865 197.668 193.326 196.929C192.86 196.3 192.576 195.555 192.504 194.775C191.252 194.893 190 194.971 188.747 195.01C187.417 195.049 186.126 195.089 184.795 195.089C183.465 195.089 182.173 195.089 180.843 195.01C179.786 194.971 178.73 194.932 177.673 194.854C177.576 195.615 177.294 196.341 176.851 196.968C176.312 197.707 175.54 198.245 174.66 198.495C174.477 198.541 174.286 198.462 174.19 198.299C174.069 198.09 174.119 197.824 174.308 197.673C174.891 197.299 175.375 196.788 175.717 196.185C176.045 195.615 176.208 194.964 176.186 194.306C176.194 193.644 176.018 192.994 175.677 192.427C175.334 191.835 174.85 191.337 174.269 190.978C174.11 190.861 174.034 190.662 174.073 190.469C174.137 190.231 174.382 190.091 174.619 190.155C174.62 190.155 174.62 190.156 174.621 190.156C175.501 190.406 176.273 190.943 176.812 191.683C177.277 192.297 177.562 193.03 177.634 193.797C178.691 193.719 179.747 193.64 180.804 193.64C182.134 193.601 183.425 193.562 184.756 193.562C186.086 193.562 187.378 193.601 188.708 193.64C189.96 193.68 191.213 193.758 192.426 193.875C192.553 193.085 192.861 192.335 193.326 191.683Z" fill="#171C22"/>
<path d="M197.155 177.429C192.742 177.429 189.165 176.8 189.165 176.023C189.165 175.247 192.742 174.617 197.155 174.617C201.568 174.617 205.145 175.247 205.145 176.023C205.145 176.8 201.568 177.429 197.155 177.429Z" fill="#171C22"/>
<path d="M202.641 177.979C202.641 181.269 201.177 183.938 199.374 183.938C197.571 183.938 196.108 181.269 196.108 177.979C196.108 177.293 196.171 176.636 196.289 176.023H202.46C202.577 176.636 202.641 177.293 202.641 177.979Z" fill="#171C22"/>
<path d="M171.388 177.429C166.975 177.429 163.398 176.8 163.398 176.023C163.398 175.247 166.975 174.617 171.388 174.617C175.8 174.617 179.378 175.247 179.378 176.023C179.378 176.8 175.8 177.429 171.388 177.429Z" fill="#171C22"/>
<path d="M176.873 177.979C176.873 181.269 175.41 183.938 173.607 183.938C171.804 183.938 170.341 181.269 170.341 177.979C170.341 177.293 170.404 176.636 170.522 176.023H176.692C176.81 176.636 176.873 177.293 176.873 177.979Z" fill="#171C22"/>
<path d="M35.9201 282.565L35.9232 282.565C35.9283 282.405 35.9466 282.245 35.9821 282.082C36.1205 281.441 36.4837 280.776 37.0496 280.12C39.1317 277.715 43.9496 275.436 50.3936 274.905C55.9549 274.447 60.5104 275.507 63.2237 277.072C64.3259 277.709 65.124 278.427 65.5629 279.162C65.7676 279.505 65.8984 279.86 65.952 280.209C65.9599 280.264 65.9672 280.323 65.9724 280.394C65.9811 280.481 65.9821 280.577 65.9791 280.681C65.9766 280.758 65.9697 280.835 65.9605 280.913C66.0243 281.059 66.0679 281.217 66.0871 281.383C67.6024 294.427 72.7661 307.054 79.8732 315.545C80.9353 316.814 82.9954 315.893 82.7508 314.258C81.0252 302.716 83.868 291.027 87.4787 280.043C90.1578 271.892 93.5062 263.254 98.3456 256.113C103.303 248.798 110.344 243.116 119.099 241.228C117.933 247.198 117.152 253.293 116.32 259.321C114.282 274.095 112.063 289.396 112.956 304.342C113.019 305.392 113.101 306.474 113.189 307.62C113.552 312.365 113.963 317.743 113.136 323.564C112.208 330.088 109.567 336.333 105.698 341.148C101.132 346.833 94.6238 350.521 87.8443 351.268C86.9141 351.37 85.9861 351.421 85.059 351.421C78.2082 351.421 71.4489 348.627 64.9291 343.091C56.4777 335.916 49.5625 326.402 44.375 314.814C39.9584 304.947 37.0632 294.037 35.9844 283.219C35.9577 283.101 35.9386 282.983 35.9293 282.863C35.9216 282.771 35.9204 282.68 35.9224 282.589C35.9217 282.581 35.9208 282.573 35.9201 282.565Z" fill="#354A4C"/>
<path d="M108.005 254.947C107.951 254.992 108.071 255.243 108.352 255.683C108.493 255.902 108.673 256.169 108.892 256.48C109.003 256.635 109.122 256.802 109.249 256.98C109.379 257.156 109.523 257.338 109.674 257.533C109.978 257.922 110.319 258.353 110.695 258.821C111.077 259.285 111.505 259.777 111.962 260.309C112.415 260.847 112.931 261.39 113.467 261.979C114 262.571 114.594 263.166 115.209 263.8C115.363 263.958 115.519 264.118 115.677 264.28C115.839 264.438 116.002 264.598 116.168 264.76C116.499 265.082 116.837 265.412 117.183 265.749C117.527 266.088 117.893 266.415 118.258 266.758C118.627 267.098 118.997 267.45 119.385 267.796C120.163 268.483 120.96 269.206 121.808 269.916C122.23 270.273 122.653 270.642 123.094 271.002C123.534 271.363 123.98 271.728 124.432 272.098C126.251 273.56 128.188 275.061 130.235 276.56C132.281 278.06 134.427 279.572 136.646 281.086C141.088 284.109 145.389 286.866 149.298 289.365C153.21 291.861 156.729 294.103 159.666 296.012C165.549 299.818 169.113 302.291 169.296 302.056C169.461 301.846 166.191 298.952 160.488 294.821C157.642 292.75 154.192 290.374 150.335 287.789C146.479 285.202 142.218 282.403 137.802 279.398C135.597 277.893 133.46 276.404 131.416 274.94C129.372 273.477 127.434 272.025 125.604 270.62C125.15 270.266 124.701 269.916 124.258 269.57C123.814 269.226 123.387 268.873 122.96 268.533C122.102 267.856 121.295 267.169 120.503 266.518C120.109 266.191 119.731 265.858 119.355 265.538C118.981 265.214 118.605 264.905 118.253 264.586C117.897 264.27 117.549 263.961 117.208 263.658C117.037 263.506 116.869 263.357 116.702 263.209C116.538 263.057 116.376 262.908 116.216 262.76C115.577 262.168 114.957 261.614 114.396 261.065C113.831 260.519 113.283 260.019 112.797 259.525C112.303 259.038 111.843 258.585 111.42 258.168C111.005 257.743 110.623 257.356 110.276 257.01C110.102 256.838 109.938 256.675 109.784 256.522C109.632 256.367 109.49 256.222 109.358 256.087C109.092 255.82 108.862 255.596 108.671 255.42C108.288 255.067 108.06 254.903 108.005 254.947Z" fill="#222831"/>
<path d="M203.282 312.913C203.61 312.986 204.057 312.431 204.585 311.358C204.718 311.09 204.855 310.79 204.997 310.458C205.136 310.127 205.276 309.764 205.421 309.372C205.708 308.589 206.02 307.692 206.313 306.689C206.463 306.188 206.614 305.661 206.767 305.111C206.919 304.562 207.061 303.986 207.209 303.39C207.511 302.199 207.784 300.917 208.06 299.564C208.593 296.857 209.067 293.857 209.416 290.691C209.758 287.525 209.942 284.494 210.006 281.735C210.027 280.355 210.037 279.044 210 277.816C209.983 277.202 209.969 276.61 209.939 276.04C209.908 275.471 209.874 274.924 209.836 274.403C209.766 273.36 209.655 272.417 209.543 271.59C209.486 271.177 209.428 270.792 209.363 270.439C209.296 270.085 209.227 269.762 209.156 269.472C208.871 268.311 208.554 267.673 208.218 267.673C207.536 267.676 206.958 270.222 206.396 274.297C206.324 274.807 206.254 275.34 206.186 275.896C206.116 276.451 206.043 277.029 205.968 277.627C205.832 278.823 205.673 280.099 205.53 281.441C205.225 284.125 204.911 287.073 204.577 290.166C204.236 293.258 203.907 296.204 203.626 298.89C203.476 300.232 203.356 301.512 203.231 302.709C203.175 303.31 203.122 303.889 203.07 304.447C203.017 305.004 202.97 305.54 202.93 306.053C202.601 310.153 202.616 312.764 203.282 312.913Z" fill="#222831"/>
<path d="M117.464 288.091C117.32 288.004 117.081 288.089 116.751 288.342C116.588 288.469 116.395 288.634 116.194 288.847C115.997 289.062 115.78 289.318 115.544 289.615C115.313 289.914 115.083 290.262 114.827 290.645C114.701 290.837 114.586 291.044 114.459 291.259C114.337 291.475 114.201 291.697 114.081 291.935C113.583 292.881 113.091 293.997 112.636 295.261C111.736 297.789 111.046 300.911 110.638 304.357C110.218 307.806 110.071 311.545 109.835 315.36C109.714 317.266 109.567 319.101 109.359 320.847C109.155 322.593 108.877 324.253 108.528 325.786C107.827 328.868 106.797 331.526 105.69 333.629C105.129 334.675 104.565 335.596 104.025 336.384C103.962 336.486 103.892 336.58 103.824 336.672C103.756 336.765 103.689 336.857 103.624 336.947C103.492 337.126 103.372 337.308 103.246 337.471C102.988 337.791 102.764 338.103 102.55 338.375C102.331 338.64 102.14 338.886 101.978 339.111C101.814 339.332 101.668 339.515 101.564 339.686C101.353 340.024 101.278 340.273 101.369 340.415C101.459 340.556 101.711 340.582 102.12 340.493C102.323 340.446 102.572 340.38 102.846 340.268C103.116 340.151 103.423 340.003 103.765 339.825C104.102 339.641 104.454 339.405 104.846 339.147C105.04 339.015 105.227 338.862 105.429 338.707C105.528 338.629 105.63 338.548 105.734 338.467C105.838 338.385 105.943 338.301 106.042 338.208C106.866 337.491 107.728 336.585 108.576 335.5C110.259 333.322 111.807 330.391 112.859 326.948C113.925 323.497 114.444 319.629 114.693 315.665C114.936 311.702 114.946 308.013 115.107 304.733C115.256 301.449 115.552 298.548 115.964 296.138C116.174 294.936 116.401 293.854 116.623 292.903C116.741 292.427 116.85 291.984 116.951 291.577C117.065 291.173 117.153 290.793 117.242 290.453C117.335 290.116 117.41 289.809 117.466 289.536C117.525 289.264 117.577 289.033 117.6 288.833C117.648 288.435 117.607 288.179 117.464 288.091Z" fill="#222831"/>
<path d="M147.244 178.331C147.192 177.882 147.057 177.448 146.846 177.048C146.769 176.877 146.642 176.732 146.482 176.633C146.321 176.533 146.135 176.483 145.945 176.49C145.537 176.563 145.236 177.039 145.021 177.515C144.644 178.363 144.402 179.264 144.306 180.186C144.204 180.904 144.257 181.636 144.461 182.332C144.93 183.707 146.205 183.89 146.894 182.69C147.511 181.613 147.437 179.566 147.244 178.331Z" fill="#171C22"/>
<path fill-rule="evenodd" clip-rule="evenodd" d="M117.643 131.728C116.796 130.89 116.202 129.834 115.928 128.679C115.654 127.523 115.711 126.315 116.093 125.19C117.067 122.502 119.968 120.764 123.067 121.151C122.842 117.745 124.756 114.634 127.716 113.459C131.349 112.016 134.645 114.253 134.883 114.42C135.58 113.088 136.539 111.907 137.704 110.949C138.868 109.991 140.215 109.275 141.663 108.842C146.548 107.454 150.441 110.025 150.962 110.381C151.455 108.678 152.454 107.161 153.829 106.03C155.203 104.899 156.889 104.205 158.666 104.039C160.444 103.873 162.23 104.242 163.793 105.099C165.356 105.956 166.623 107.26 167.428 108.842C167.99 107.492 168.952 106.343 170.187 105.549C171.422 104.754 172.871 104.351 174.342 104.393C175.813 104.434 177.237 104.919 178.424 105.783C179.611 106.647 180.505 107.848 180.988 109.228C183.122 106.174 186.995 104.938 190.286 106.152C191.677 106.692 192.887 107.609 193.778 108.799C194.669 109.989 195.204 111.404 195.323 112.882C198.34 109.108 203.406 108.121 206.946 110.19C209.523 111.696 211.04 114.674 211.014 117.882C211.631 117.874 215.047 117.882 216.826 120.19C218.959 122.956 218.137 128.244 213.726 131.729C214.052 131.756 217.3 132.069 218.375 134.229C219.546 136.583 217.912 140.682 213.532 142.498C215.777 143.152 216.984 145.428 216.438 147.306C215.836 149.376 213.187 150.68 210.819 149.613C211.431 150.326 212.674 152 212.369 153.842C211.909 156.613 208.062 159.099 202.973 158.53C202.919 158.147 202.863 157.773 202.811 157.402C202.636 156.63 202.522 155.846 202.47 155.057C202.41 154.652 202.351 154.255 202.293 153.867C202.114 152.974 201.804 152.159 201.164 151.654C199.207 150.111 195.324 152.383 192.757 153.443C181.566 158.057 172.711 148.931 165.433 151.505C160.479 153.258 155.593 160.667 155.159 184.656C154.526 187.811 151.223 186.218 150.913 183.525C150.362 180.34 151.207 177.03 150.591 173.856C149.839 169.72 146.031 167.717 143.376 168.997C135.213 174.845 145.139 200.091 137.164 202.065C136.122 201.707 135.959 200.587 135.709 199.644C135.464 198.723 135.189 197.834 134.894 196.97C133.509 197.298 130.91 196.055 130.232 194.229C129.591 192.504 130.833 190.579 131.394 189.806C128.727 190.835 125.846 189.691 124.808 187.498C124.006 185.804 124.388 183.661 125.776 182.113C123.761 182.777 121.637 182.291 120.546 180.959C119.045 179.129 119.501 175.704 122.226 173.89L122.215 173.861C120.407 174.307 118.57 173.861 117.64 172.69C116.282 170.984 116.802 167.678 119.577 165.959C119.377 165.93 116.193 165.407 115.122 162.883C114.066 160.394 115.464 156.904 118.802 155.383C115.284 154.884 112.968 152.071 113.183 149.421C113.399 146.771 116.06 145.309 116.283 145.192C112.949 144.645 110.433 142.189 110.084 139.422C109.631 135.798 112.914 131.843 117.643 131.728Z" fill="#171C22"/>
<path d="M193.381 128.465C193.44 128.494 193.543 128.445 193.675 128.342C193.86 128.203 194.055 128.08 194.259 127.973C194.569 127.818 194.902 127.713 195.245 127.66C195.706 127.591 196.175 127.591 196.636 127.657C196.905 127.694 197.169 127.752 197.428 127.831C197.714 127.915 197.994 128.018 198.266 128.14C198.842 128.393 199.367 128.75 199.811 129.194C200.034 129.42 200.225 129.675 200.379 129.951C200.526 130.226 200.627 130.522 200.678 130.829C200.733 131.146 200.734 131.47 200.682 131.787C200.664 131.864 200.651 131.942 200.63 132.018L200.593 132.137C200.576 132.196 200.554 132.253 200.527 132.307L200.431 132.463L200.24 132.778C200.162 132.887 200.013 133.019 199.902 133.139L199.12 133.938L198.358 134.719L201.01 134.56C201.242 134.542 201.458 134.541 201.674 134.539C201.89 134.536 202.115 134.528 202.309 134.542C202.501 134.547 202.686 134.564 202.869 134.578C203.501 134.615 204.112 134.815 204.642 135.158C204.84 135.308 205.007 135.496 205.133 135.71C205.247 135.922 205.319 136.154 205.343 136.392C205.382 136.891 205.295 137.391 205.09 137.847C204.902 138.264 204.658 138.654 204.366 139.008C204.102 139.34 203.843 139.621 203.632 139.857C203.206 140.329 202.984 140.633 203.063 140.736C203.142 140.84 203.498 140.736 204.083 140.423C204.444 140.227 204.786 139.998 205.105 139.74C205.557 139.382 205.946 138.951 206.256 138.465C206.661 137.826 206.881 137.089 206.893 136.334C206.895 135.877 206.801 135.424 206.619 135.004C206.413 134.558 206.115 134.159 205.743 133.835C204.983 133.234 204.065 132.861 203.099 132.762C202.869 132.734 202.637 132.706 202.407 132.694C202.391 132.69 202.399 132.689 202.396 132.687C202.396 132.685 202.396 132.684 202.397 132.683C202.398 132.681 202.399 132.68 202.4 132.68V132.68C202.399 132.686 202.403 132.666 202.396 132.693L202.454 132.497C202.491 132.361 202.515 132.224 202.541 132.087C202.621 131.556 202.607 131.014 202.5 130.488C202.398 129.979 202.208 129.492 201.939 129.048C201.687 128.64 201.378 128.269 201.021 127.948C200.387 127.383 199.642 126.954 198.833 126.688C198.48 126.569 198.119 126.479 197.751 126.417C197.408 126.356 197.06 126.327 196.711 126.33C196.109 126.33 195.512 126.438 194.949 126.65C194.515 126.813 194.122 127.069 193.799 127.4C193.594 127.606 193.442 127.857 193.355 128.133C193.312 128.327 193.323 128.434 193.381 128.465Z" fill="#A2A2A2"/>
<path d="M129.916 168.611C129.907 168.565 129.82 168.532 129.668 168.511C129.516 168.49 129.297 168.469 129.023 168.426C128.253 168.318 127.518 168.039 126.872 167.609C126.437 167.32 126.06 166.952 125.761 166.525C125.425 166.032 125.203 165.472 125.11 164.884C125 164.229 125.051 163.557 125.26 162.925C125.358 162.612 125.508 162.317 125.703 162.052C125.803 161.931 125.915 161.818 126.037 161.717C126.098 161.669 126.162 161.625 126.228 161.583L126.316 161.529C126.371 161.503 126.429 161.486 126.488 161.477L126.672 161.435L126.763 161.413C126.802 161.413 126.796 161.377 126.914 161.44L127.274 160.966L127.393 160.817C127.415 160.789 127.422 160.783 127.437 160.765L127.477 160.72C127.495 160.701 127.515 160.683 127.537 160.667C127.545 160.667 127.557 160.659 127.552 160.678C127.55 160.699 127.553 160.72 127.561 160.739L127.564 160.749V160.754V160.757C127.38 160.701 129.175 161.242 128.414 161.012L128.311 160.957L128.102 160.845L127.683 160.621C127.575 160.58 127.631 160.555 127.642 160.526L127.694 160.44L127.801 160.268L128.003 159.961L127.669 159.725L127.503 159.606L127.368 159.484L126.824 158.991C126.777 158.949 126.734 158.911 126.69 158.863L126.621 158.782L126.518 158.661C126.447 158.582 126.381 158.498 126.319 158.412C126.189 158.242 126.068 158.066 125.957 157.884C125.845 157.701 125.742 157.513 125.65 157.319L125.517 157.027L125.406 156.726C125.336 156.524 125.278 156.318 125.235 156.109C125.19 155.901 125.158 155.691 125.139 155.479C125.125 155.268 125.125 155.056 125.139 154.845C125.155 154.552 125.207 154.262 125.294 153.982C125.38 153.71 125.497 153.449 125.643 153.204L125.886 152.846C125.983 152.737 126.072 152.624 126.17 152.518C126.371 152.312 126.591 152.124 126.826 151.957C127.057 151.796 127.304 151.659 127.564 151.548C127.811 151.439 128.071 151.36 128.337 151.313C128.464 151.285 128.593 151.27 128.722 151.267L128.887 151.259C128.97 151.26 129.053 151.265 129.136 151.275C129.311 151.305 129.522 151.39 129.712 151.444L130.292 151.626L130.963 151.881L132.185 152.348L132.061 152.098L132 151.974L131.917 151.818C131.806 151.61 131.695 151.403 131.586 151.198L130.935 149.972C130.728 149.578 130.536 149.175 130.398 148.846L130.267 148.529C130.233 148.436 130.193 148.346 130.165 148.253C129.911 147.589 129.796 146.88 129.825 146.17C129.858 145.566 130.045 144.979 130.368 144.466C130.631 144.047 131.021 143.722 131.481 143.537C131.877 143.4 132.301 143.366 132.714 143.439C133.032 143.495 133.335 143.615 133.604 143.792C133.779 143.911 133.939 144.049 134.082 144.204C134.179 144.318 134.256 144.379 134.302 144.364C134.348 144.349 134.363 144.258 134.339 144.081C134.281 143.825 134.161 143.587 133.988 143.388C133.708 143.061 133.349 142.811 132.944 142.662C132.387 142.453 131.782 142.407 131.201 142.53C130.467 142.708 129.815 143.126 129.35 143.717C128.826 144.382 128.491 145.174 128.38 146.01C128.266 146.926 128.35 147.855 128.627 148.736C128.658 148.849 128.696 148.96 128.731 149.073L128.833 149.366C128.845 149.401 128.854 149.437 128.86 149.474L128.87 149.528C128.873 149.544 128.881 149.561 128.845 149.538C128.818 149.523 128.789 149.511 128.76 149.502L128.743 149.497C128.743 149.497 128.736 149.497 128.738 149.494C128.734 149.494 128.752 149.494 128.73 149.494H128.654C128.449 149.495 128.245 149.513 128.044 149.548C127.639 149.608 127.243 149.717 126.865 149.871C126.484 150.023 126.12 150.215 125.78 150.442C125.435 150.675 125.115 150.94 124.822 151.235C124.677 151.385 124.542 151.549 124.403 151.709C124.279 151.881 124.153 152.054 124.036 152.234C123.807 152.609 123.624 153.01 123.49 153.428C123.422 153.639 123.369 153.855 123.332 154.074C123.29 154.288 123.263 154.504 123.252 154.721C123.23 155.024 123.23 155.327 123.252 155.629C123.278 155.925 123.324 156.219 123.388 156.509C123.45 156.793 123.53 157.073 123.629 157.347L123.784 157.748L123.965 158.133C124.21 158.631 124.509 159.101 124.855 159.536C124.937 159.645 125.023 159.749 125.116 159.849C125.192 159.935 125.339 160.102 125.299 160.054L125.327 160.069L125.396 160.106C125.4 160.106 125.417 160.117 125.412 160.113C125.411 160.111 125.409 160.109 125.407 160.108C125.401 160.106 125.395 160.106 125.389 160.108C125.373 160.113 125.358 160.122 125.345 160.133L125.334 160.144L125.328 160.149C125.335 160.144 125.31 160.162 125.343 160.138L125.32 160.154L125.275 160.186C125.156 160.269 125.041 160.358 124.932 160.453C124.724 160.641 124.536 160.85 124.37 161.077C124.078 161.505 123.862 161.979 123.734 162.481C123.498 163.362 123.489 164.288 123.709 165.174C123.895 165.95 124.261 166.672 124.778 167.284C125.215 167.792 125.753 168.206 126.357 168.5C127.178 168.918 128.106 169.082 129.022 168.97C129.259 168.943 129.49 168.881 129.709 168.788C129.858 168.715 129.926 168.657 129.916 168.611Z" fill="#A2A2A2"/>
<path d="M124.282 135.942C124.328 135.927 124.36 135.859 124.38 135.753C124.399 135.647 124.416 135.498 124.457 135.322C124.501 135.109 124.572 134.903 124.667 134.708C124.791 134.453 124.954 134.218 125.15 134.012C125.384 133.766 125.661 133.563 125.968 133.414C126.132 133.335 126.306 133.276 126.485 133.239C126.683 133.194 126.885 133.17 127.088 133.166C127.544 133.162 127.998 133.237 128.428 133.389C128.553 133.43 128.642 133.466 128.795 133.53L129.155 133.694C129.28 133.756 129.416 133.84 129.547 133.912C130.082 134.234 130.678 134.627 131.212 134.956C131.19 134.476 131.168 133.99 131.145 133.498L131.135 133.124L131.129 132.936L131.126 132.841L131.138 132.768L131.183 132.474L131.206 132.326C131.21 132.304 131.214 132.27 131.217 132.258L131.228 132.226C131.331 131.882 131.489 131.557 131.696 131.262C131.801 131.11 131.919 130.968 132.049 130.837C132.176 130.703 132.317 130.582 132.468 130.476C132.617 130.368 132.776 130.274 132.943 130.196C133.025 130.156 133.112 130.129 133.196 130.092L133.46 130.017L133.695 129.971L133.935 129.945L134.177 129.938L134.42 129.951C134.58 129.967 134.74 129.993 134.897 130.029C135.054 130.067 135.207 130.116 135.357 130.175C135.505 130.231 135.648 130.299 135.785 130.378C135.854 130.413 135.921 130.454 135.984 130.499C136.076 130.554 136.161 130.621 136.237 130.698L136.418 130.863L136.508 130.945C136.54 130.982 136.575 131.031 136.608 131.073L137.007 131.6C137.261 131.954 137.513 132.304 137.763 132.651C138.023 132.018 138.271 131.366 138.55 130.756C138.618 130.604 138.682 130.444 138.752 130.303C138.773 130.259 138.797 130.218 138.825 130.179L138.854 130.135L138.909 130.049C138.976 129.934 139.052 129.823 139.136 129.718C139.445 129.304 139.813 128.936 140.228 128.627C140.602 128.341 141.006 128.097 141.434 127.901C141.808 127.731 142.196 127.596 142.595 127.499L142.863 127.432L143.12 127.392C143.277 127.361 143.436 127.34 143.595 127.33C143.896 127.294 144.154 127.299 144.372 127.289C144.59 127.279 144.757 127.293 144.882 127.272C145.006 127.25 145.079 127.224 145.095 127.176C145.111 127.129 145.069 127.067 144.968 126.987C144.821 126.876 144.658 126.786 144.486 126.72C144.212 126.611 143.927 126.533 143.635 126.487C143.452 126.451 143.265 126.43 143.078 126.425L142.768 126.409L142.441 126.424C141.945 126.451 141.454 126.536 140.978 126.679C140.417 126.848 139.881 127.089 139.383 127.395C138.807 127.741 138.29 128.174 137.851 128.679C137.219 129.472 137.41 129.236 137.343 129.287L137.324 129.244L137.316 129.228C137.323 129.231 137.272 129.186 137.254 129.168C137.258 129.165 137.127 129.071 137.033 129.003C136.935 128.93 136.832 128.863 136.726 128.802C136.515 128.673 136.294 128.56 136.065 128.466C135.834 128.369 135.595 128.289 135.352 128.226C135.104 128.164 134.852 128.119 134.598 128.091L134.211 128.064L133.816 128.072L133.419 128.113C133.287 128.134 133.155 128.163 133.023 128.189C132.87 128.225 132.719 128.274 132.569 128.321C132.422 128.379 132.276 128.432 132.137 128.5C131.86 128.631 131.598 128.789 131.353 128.971C131.113 129.146 130.892 129.344 130.692 129.562C130.493 129.772 130.314 129.999 130.158 130.241C129.849 130.709 129.622 131.226 129.486 131.769C129.449 131.92 129.464 131.909 129.465 131.931L129.481 131.998C129.475 132.011 129.449 132.001 129.42 132.001C129.393 131.998 129.367 131.993 129.34 131.985C129.217 131.949 129.03 131.887 128.875 131.852C128.251 131.69 127.6 131.649 126.96 131.73C126.661 131.769 126.367 131.841 126.085 131.945C125.814 132.042 125.556 132.173 125.319 132.335C124.911 132.614 124.566 132.974 124.305 133.393C124.096 133.725 123.954 134.094 123.887 134.48C123.834 134.763 123.839 135.055 123.899 135.337C123.931 135.511 124.001 135.677 124.103 135.822C124.174 135.92 124.236 135.958 124.282 135.942Z" fill="#A2A2A2"/>
<path d="M140.365 158.263C140.48 158.188 140.426 157.909 140.345 157.466C140.231 156.868 140.202 156.257 140.258 155.652C140.337 154.813 140.648 154.013 141.157 153.339C141.458 152.968 141.82 152.649 142.227 152.396C142.671 152.127 143.158 151.935 143.668 151.83C143.806 151.8 143.946 151.778 144.087 151.764C144.211 151.753 144.334 151.75 144.458 151.754C144.619 151.744 144.781 151.753 144.941 151.78L145.513 151.87L146.1 151.976L147.193 152.172C146.906 151.634 146.624 151.104 146.346 150.584L146.239 150.383L146.187 150.283L146.155 150.198L146.03 149.861L145.907 149.53C145.891 149.496 145.881 149.46 145.876 149.424L145.863 149.351C145.782 148.975 145.758 148.589 145.792 148.207C145.818 147.852 145.885 147.501 145.99 147.161C146.085 146.862 146.208 146.572 146.357 146.296C146.419 146.173 146.489 146.053 146.568 145.939C146.632 145.832 146.703 145.73 146.78 145.632C146.917 145.438 147.056 145.288 147.167 145.152C147.26 145.048 147.347 144.939 147.428 144.824C147.484 144.734 147.505 144.661 147.481 144.61C147.457 144.559 147.39 144.532 147.279 144.531C147.12 144.533 146.964 144.561 146.815 144.615C146.581 144.697 146.358 144.808 146.152 144.947C146.018 145.029 145.892 145.124 145.776 145.229C145.638 145.34 145.51 145.464 145.393 145.598C145.114 145.903 144.876 146.242 144.684 146.608C144.462 147.037 144.299 147.496 144.202 147.969C144.087 148.512 144.063 149.069 144.132 149.619L144.153 149.806L144.155 149.842C144.155 149.866 144.159 149.895 144.155 149.892C144.15 149.9 144.145 149.902 144.139 149.901C144.128 149.896 144.118 149.89 144.108 149.882C144.09 149.881 144.071 149.881 144.052 149.882C144.001 149.882 143.95 149.886 143.899 149.894C143.692 149.913 143.486 149.944 143.282 149.987C142.542 150.14 141.839 150.434 141.212 150.853C140.626 151.249 140.122 151.754 139.73 152.34C139.385 152.869 139.141 153.456 139.011 154.073C138.899 154.594 138.868 155.13 138.918 155.661C138.978 156.414 139.238 157.139 139.671 157.761C139.994 158.186 140.264 158.332 140.365 158.263Z" fill="#A2A2A2"/>
<path d="M164.715 122.807C164.829 122.885 165.069 122.732 165.453 122.492C165.97 122.164 166.53 121.91 167.117 121.737C167.931 121.497 168.795 121.487 169.615 121.706C170.074 121.845 170.507 122.06 170.895 122.341C171.311 122.65 171.672 123.028 171.96 123.458C172.039 123.574 172.112 123.695 172.177 123.82C172.233 123.93 172.282 124.043 172.324 124.158C172.393 124.303 172.445 124.455 172.48 124.612L172.608 125.173L172.728 125.757C172.804 126.121 172.878 126.481 172.951 126.837L174.122 125.466L174.268 125.292L174.342 125.207L174.41 125.146L174.678 124.905L174.942 124.668C174.968 124.641 174.997 124.619 175.03 124.601L175.093 124.561C175.414 124.347 175.765 124.182 176.136 124.071C176.478 123.964 176.83 123.894 177.188 123.864C177.502 123.841 177.819 123.846 178.132 123.881C178.271 123.892 178.409 123.912 178.544 123.942C178.669 123.961 178.791 123.988 178.912 124.024C179.144 124.078 179.335 124.15 179.504 124.201C179.636 124.249 179.771 124.289 179.908 124.321C180.013 124.339 180.089 124.33 180.128 124.29C180.167 124.249 180.167 124.177 180.128 124.074C180.068 123.929 179.983 123.795 179.877 123.679C179.714 123.492 179.526 123.328 179.32 123.19C179.193 123.098 179.058 123.017 178.916 122.948C178.76 122.863 178.597 122.791 178.429 122.733C178.04 122.59 177.634 122.496 177.221 122.455C176.736 122.41 176.247 122.431 175.768 122.518C175.218 122.612 174.688 122.797 174.2 123.065L174.033 123.153L173.999 123.169C173.977 123.179 173.95 123.193 173.952 123.188C173.942 123.186 173.939 123.182 173.938 123.177C173.938 123.164 173.94 123.152 173.944 123.14C173.949 123.15 173.93 123.107 173.923 123.088C173.904 123.041 173.881 122.996 173.855 122.952C173.76 122.768 173.655 122.59 173.539 122.418C173.121 121.793 172.584 121.254 171.96 120.832C171.371 120.439 170.712 120.164 170.018 120.019C169.395 119.898 168.755 119.892 168.13 120.001C167.601 120.092 167.089 120.262 166.611 120.507C165.929 120.842 165.348 121.351 164.927 121.981C164.649 122.436 164.614 122.741 164.715 122.807Z" fill="#A2A2A2"/>
<path d="M423.449 272.779C412.828 273.708 405.391 277.358 401.138 283.729C396.973 289.993 395.339 298.249 396.235 308.496C396.671 313.473 397.652 317.96 399.18 321.957C400.7 325.855 402.756 329.166 405.351 331.89C407.946 334.613 411.069 336.65 414.722 338.003C418.366 339.257 422.527 339.68 427.204 339.271C429.737 339.049 431.877 338.813 433.622 338.562C435.465 338.302 437.055 337.966 438.394 337.554L435.307 302.275L458.107 300.28L462.5 350.491C459.866 351.803 455.579 353.309 449.641 355.008C443.711 356.806 436.312 358.092 427.446 358.868C419.846 359.533 412.825 358.967 406.385 357.17C400.041 355.365 394.481 352.41 389.704 348.304C384.926 344.199 381.034 338.983 378.026 332.658C375.115 326.324 373.293 318.96 372.558 310.568C371.816 302.077 372.474 294.448 374.532 287.679C376.591 280.91 379.714 275.081 383.9 270.191C388.079 265.204 393.135 261.27 399.068 258.391C405.099 255.503 411.622 253.753 418.638 253.139C423.412 252.721 427.729 252.688 431.589 253.038C435.537 253.283 438.914 253.725 441.719 254.365C444.613 254.898 446.975 255.527 448.806 256.252C450.734 256.969 452.109 257.537 452.932 257.956L447.956 276.83C444.692 275.444 440.964 274.344 436.769 273.531C432.663 272.612 428.223 272.361 423.449 272.779Z" fill="#ECECEC"/>
<path d="M504.324 350.224L482.547 352.129L475.81 275.131L497.587 273.225L504.324 350.224ZM497.687 250.796C498.037 254.797 496.999 258.084 494.573 260.656C492.236 263.122 489.314 264.509 485.806 264.816C482.298 265.123 479.131 264.269 476.304 262.254C473.566 260.134 472.022 257.073 471.671 253.072C471.321 249.071 472.315 245.837 474.652 243.371C477.078 240.798 480.044 239.359 483.552 239.052C487.06 238.745 490.183 239.652 492.921 241.772C495.748 243.787 497.337 246.794 497.687 250.796Z" fill="#ECECEC"/>
<path d="M543.411 346.805C537.588 337.48 531.522 326.505 525.214 313.88C519.003 301.246 512.934 287.42 507.005 272.401L530.097 270.381C531.405 274.102 532.888 278.151 534.547 282.53C536.296 286.802 538.053 291.172 539.818 295.639C541.672 300.001 543.469 304.269 545.209 308.443C547.046 312.609 548.801 316.389 550.472 319.783C551.431 316.159 552.454 312.136 553.54 307.714C554.626 303.292 555.654 298.777 556.626 294.169C557.686 289.454 558.657 284.846 559.54 280.343C560.511 275.735 561.317 271.485 561.959 267.594L584.466 265.624C581.236 281.444 577.611 296.119 573.591 309.648C569.668 323.168 565.649 335.025 561.534 345.219L543.411 346.805Z" fill="#ECECEC"/>
<path d="M593.898 304.183C593.3 297.352 593.802 291.31 595.404 286.056C597.095 280.696 599.497 276.159 602.608 272.445C605.719 268.731 609.391 265.804 613.621 263.664C617.95 261.515 622.452 260.236 627.129 259.827C638.042 258.872 646.96 261.484 653.882 267.664C660.796 273.746 664.821 283.277 665.956 296.257C666.067 297.525 666.142 298.945 666.182 300.515C666.212 301.987 666.23 303.313 666.235 304.493L616.835 308.814C617.715 313.261 620.122 316.64 624.055 318.951C627.988 321.262 633.072 322.145 639.308 321.599C643.303 321.249 647.171 320.567 650.911 319.551C654.74 318.43 657.826 317.225 660.168 315.939L664.64 333.396C663.522 334.084 662.014 334.806 660.117 335.562C658.22 336.318 656.07 336.997 653.668 337.601C651.372 338.293 648.873 338.905 646.171 339.437C643.468 339.968 640.753 340.353 638.024 340.592C631.107 341.197 624.976 340.701 619.633 339.104C614.387 337.497 609.905 335.087 606.187 331.872C602.558 328.551 599.702 324.523 597.619 319.789C595.633 315.045 594.393 309.844 593.898 304.183ZM644.321 291.364C644.062 289.518 643.563 287.743 642.824 286.037C642.183 284.323 641.219 282.834 639.93 281.57C638.738 280.298 637.227 279.299 635.397 278.574C633.664 277.841 631.53 277.585 628.997 277.807C626.561 278.02 624.505 278.642 622.828 279.674C621.142 280.608 619.774 281.809 618.725 283.278C617.675 284.747 616.89 286.438 616.371 288.352C615.94 290.16 615.659 292.003 615.529 293.883L644.321 291.364Z" fill="#ECECEC"/>
<path d="M759.996 286.702C759.381 279.675 758.02 274.779 755.913 272.013C753.903 269.239 750.705 268.044 746.321 268.427C744.957 268.547 743.552 268.768 742.108 269.091C740.655 269.316 739.255 269.586 737.908 269.901L743.108 329.333L721.331 331.239L714.825 256.875C716.633 256.225 718.734 255.549 721.127 254.848C723.609 254.041 726.198 253.323 728.892 252.694C731.675 251.959 734.519 251.366 737.425 250.915C740.322 250.366 743.184 249.968 746.01 249.721C751.563 249.235 756.11 249.575 759.648 250.741C763.275 251.8 766.295 253.207 768.706 254.963C771.628 252.446 775.031 250.378 778.914 248.76C782.896 247.133 786.592 246.171 790.002 245.872C796.14 245.335 801.235 245.775 805.286 247.19C809.426 248.5 812.802 250.614 815.414 253.532C818.025 256.45 819.957 260.018 821.21 264.235C822.463 268.453 823.319 273.196 823.781 278.466L827.584 321.943L805.807 323.848L802.234 283.006C801.619 275.98 800.258 271.084 798.151 268.318C796.141 265.544 792.944 264.348 788.559 264.732C787.39 264.834 785.759 265.272 783.667 266.045C781.672 266.809 780.031 267.691 778.743 268.688C779.622 270.873 780.27 273.226 780.686 275.746C781.095 278.169 781.423 280.795 781.67 283.625L785.346 325.638L763.569 327.543L759.996 286.702Z" fill="#ECECEC"/>
<path d="M840.389 282.618C839.791 275.787 840.293 269.744 841.895 264.491C843.586 259.131 845.988 254.594 849.099 250.88C852.21 247.166 855.882 244.239 860.113 242.099C864.441 239.95 868.944 238.671 873.62 238.262C884.533 237.307 893.451 239.919 900.373 246.099C907.287 252.181 911.312 261.712 912.447 274.691C912.558 275.96 912.634 277.379 912.673 278.949C912.703 280.422 912.721 281.748 912.726 282.927L863.326 287.249C864.206 291.696 866.613 295.075 870.546 297.386C874.479 299.697 879.563 300.579 885.799 300.034C889.794 299.684 893.662 299.002 897.402 297.986C901.231 296.864 904.317 295.66 906.659 294.374L911.131 311.831C910.013 312.518 908.506 313.24 906.608 313.996C904.711 314.752 902.561 315.432 900.159 316.036C897.863 316.728 895.364 317.34 892.662 317.872C889.959 318.403 887.244 318.788 884.516 319.027C877.598 319.632 871.467 319.136 866.124 317.538C860.878 315.932 856.396 313.522 852.678 310.307C849.05 306.986 846.194 302.958 844.11 298.223C842.124 293.48 840.884 288.279 840.389 282.618ZM890.812 269.799C890.553 267.953 890.054 266.178 889.315 264.472C888.674 262.758 887.71 261.269 886.421 260.005C885.23 258.733 883.719 257.734 881.888 257.009C880.155 256.276 878.021 256.02 875.488 256.241C873.052 256.455 870.996 257.077 869.319 258.109C867.633 259.043 866.266 260.244 865.216 261.713C864.166 263.181 863.381 264.873 862.862 266.787C862.431 268.594 862.15 270.438 862.02 272.318L890.812 269.799Z" fill="#ECECEC"/>
<path d="M422.645 511.047C424.789 510.86 426.831 510.632 428.771 510.364C430.711 510.096 432.257 509.813 433.409 509.515L431.962 492.974C431.068 492.855 429.736 492.775 427.965 492.734C426.194 492.692 424.578 492.735 423.116 492.863C421.07 493.042 419.134 493.359 417.308 493.813C415.572 494.162 414.051 494.737 412.747 495.54C411.442 496.342 410.452 497.363 409.775 498.603C409.098 499.842 408.836 501.34 408.99 503.096C409.289 506.512 410.618 508.805 412.979 509.975C415.428 511.039 418.65 511.397 422.645 511.047ZM415.308 447.376C421.738 446.814 427.161 447.077 431.577 448.166C435.992 449.254 439.586 451.054 442.358 453.565C445.228 456.068 447.369 459.224 448.783 463.033C450.196 466.843 451.112 471.139 451.53 475.921L455.5 521.301C452.442 522.257 448.175 523.417 442.698 524.781C437.229 526.243 430.549 527.319 422.657 528.009C417.687 528.444 413.118 528.401 408.949 527.881C404.877 527.352 401.295 526.24 398.201 524.544C395.098 522.75 392.627 520.311 390.786 517.227C388.945 514.143 387.82 510.259 387.41 505.574C387.018 501.085 387.561 497.203 389.042 493.926C390.62 490.641 392.838 487.94 395.697 485.821C398.555 483.703 401.899 482.083 405.728 480.961C409.548 479.742 413.553 478.949 417.743 478.582C420.569 478.335 423.066 478.264 425.235 478.369C427.494 478.368 429.322 478.503 430.72 478.774L430.541 476.725C430.216 473.017 428.835 470.138 426.398 468.09C423.96 466.041 419.965 465.26 414.411 465.746C410.708 466.07 407.08 466.682 403.526 467.583C399.964 468.386 396.91 469.391 394.365 470.597L390.051 453.274C391.283 452.773 392.808 452.246 394.625 451.693C396.531 451.035 398.592 450.461 400.807 449.973C403.014 449.386 405.327 448.889 407.746 448.48C410.254 447.966 412.774 447.598 415.308 447.376Z" fill="#ECECEC"/>
<path d="M531.194 501.108C535.189 500.758 537.981 500.121 539.569 499.195C541.157 498.269 541.853 496.684 541.656 494.44C541.503 492.683 540.298 491.264 538.044 490.183C535.781 489.004 532.384 487.777 527.855 486.502C524.333 485.532 521.1 484.487 518.155 483.368C515.307 482.24 512.828 480.835 510.717 479.151C508.598 477.37 506.887 475.208 505.584 472.667C504.282 470.126 503.469 467.001 503.144 463.293C502.512 456.071 504.692 450.128 509.684 445.462C514.676 440.797 521.849 438.055 531.203 437.237C535.88 436.828 540.4 436.875 544.764 437.378C549.119 437.784 552.607 438.364 555.225 439.118L552.911 456.431C550.301 455.774 547.456 455.237 544.375 454.818C541.392 454.39 538.05 454.339 534.347 454.663C527.527 455.259 524.283 457.461 524.616 461.267C524.693 462.145 524.907 462.913 525.259 463.57C525.611 464.228 526.256 464.86 527.192 465.466C528.121 465.975 529.35 466.556 530.879 467.209C532.498 467.756 534.515 468.366 536.93 469.04C541.858 470.379 545.958 471.79 549.23 473.274C552.493 474.66 555.091 476.301 557.024 478.197C559.046 479.987 560.505 482.072 561.401 484.452C562.393 486.824 563.031 489.62 563.313 492.84C563.979 500.452 561.608 506.462 556.201 510.868C550.891 515.266 543.023 517.921 532.598 518.833C525.777 519.43 520.026 519.343 515.344 518.573C510.76 517.794 507.556 517.091 505.734 516.463L507.838 498.431C511.669 499.571 515.571 500.41 519.546 500.947C523.511 501.387 527.394 501.44 531.194 501.108Z" fill="#ECECEC"/>
<path d="M581.431 512.496L571.8 402.414L593.27 396.995L596.497 433.884C597.916 433.269 599.729 432.668 601.936 432.081C604.231 431.389 606.451 430.949 608.595 430.761C614.831 430.215 620.072 430.642 624.318 432.041C628.652 433.333 632.174 435.434 634.884 438.344C637.69 441.245 639.768 444.8 641.118 449.009C642.566 453.209 643.52 457.944 643.981 463.214L647.785 506.691L626.008 508.596L622.435 467.754C621.82 460.728 620.459 455.832 618.352 453.066C616.342 450.292 612.901 449.118 608.029 449.544C606.08 449.714 604.246 450.071 602.526 450.615C600.896 451.053 599.415 451.527 598.085 452.036L603.208 510.591L581.431 512.496Z" fill="#ECECEC"/>
<path d="M736.023 460.029C736.552 466.08 736.162 471.719 734.852 476.947C733.533 482.078 731.376 486.594 728.379 490.494C725.373 494.297 721.618 497.379 717.111 499.74C712.703 502.093 707.624 503.52 701.875 504.023C696.224 504.518 690.975 503.994 686.127 502.451C681.377 500.9 677.191 498.513 673.571 495.289C669.943 491.968 666.985 487.9 664.698 483.085C662.403 478.172 660.991 472.691 660.461 466.64C659.932 460.589 660.375 454.995 661.791 449.855C663.304 444.708 665.564 440.232 668.569 436.429C671.672 432.618 675.428 429.536 679.836 427.183C684.343 424.822 689.324 423.403 694.78 422.926C700.334 422.44 705.486 422.972 710.236 424.524C715.084 426.066 719.318 428.449 722.938 431.673C726.558 434.896 729.512 438.915 731.798 443.731C734.085 448.546 735.493 453.979 736.023 460.029ZM713.807 461.973C713.218 455.239 711.393 450.089 708.332 446.521C705.359 442.848 701.389 441.228 696.42 441.663C691.45 442.098 687.772 444.386 685.386 448.529C682.99 452.573 682.087 457.963 682.677 464.696C683.266 471.43 685.099 476.678 688.178 480.441C691.247 484.106 695.267 485.721 700.236 485.286C705.205 484.851 708.834 482.567 711.124 478.433C713.502 474.193 714.396 468.707 713.807 461.973Z" fill="#ECECEC"/>
<path d="M821.665 488.823C818.057 490.22 813.368 491.614 807.598 493.004C801.838 494.491 795.742 495.516 789.311 496.079C782.783 496.65 777.25 496.249 772.711 494.876C768.271 493.494 764.647 491.353 761.84 488.452C759.025 485.453 756.89 481.805 755.434 477.507C753.978 473.209 753.019 468.425 752.558 463.155L748.806 420.264L770.582 418.359L774.104 458.615C774.719 465.642 776.089 470.635 778.213 473.596C780.338 476.557 783.933 477.816 789 477.373C790.559 477.236 792.211 477.043 793.956 476.792C795.693 476.443 797.235 476.111 798.582 475.797L793.382 416.364L815.159 414.459L821.665 488.823Z" fill="#ECECEC"/>
<path d="M833.193 393.558L854.662 388.139L856.647 410.829L882.809 408.54L884.397 426.692L858.235 428.981L860.605 456.062C861.006 460.649 862.106 464.241 863.904 466.837C865.799 469.424 869.183 470.505 874.055 470.079C876.393 469.874 878.763 469.47 881.165 468.867C883.656 468.157 885.89 467.323 887.868 466.363L892.422 483.075C889.886 484.379 887.044 485.562 883.897 486.624C880.75 487.686 876.838 488.421 872.161 488.83C866.217 489.35 861.228 489 857.194 487.78C853.152 486.462 849.837 484.49 847.251 481.864C844.657 479.141 842.693 475.773 841.36 471.759C840.124 467.737 839.289 463.238 838.854 458.26L833.193 393.558Z" fill="#ECECEC"/>
<path d="M923.058 406.789C923.749 414.694 924.102 422.088 924.115 428.97C924.128 435.853 923.954 442.85 923.595 449.962L906.933 451.419C905.344 444.478 903.91 437.621 902.63 430.85C901.448 424.07 900.511 416.727 899.819 408.822L897.527 382.619L920.765 380.586L923.058 406.789ZM930.529 470.301C930.904 474.595 929.782 478.036 927.161 480.626C924.638 483.207 921.622 484.651 918.115 484.957C914.607 485.264 911.338 484.37 908.307 482.275C905.374 480.172 903.72 476.973 903.344 472.679C902.969 468.385 904.042 464.948 906.566 462.367C909.186 459.777 912.251 458.329 915.758 458.022C919.266 457.716 922.486 458.614 925.419 460.717C928.45 462.812 930.153 466.007 930.529 470.301Z" fill="#ECECEC"/>
</svg>
