<svg width="1030" height="1185" viewBox="0 0 1030 1185" fill="none" xmlns="http://www.w3.org/2000/svg">
<rect x="522.448" y="115.854" width="136.817" height="103.716" fill="#B39370"/>
<path d="M795.396 549.71C792.542 536.382 791.975 523.183 793.775 512.464C794.576 507.121 796.357 501.971 799.027 497.273C759.783 505.548 720.343 520.609 720.343 520.609C743.037 385.126 663.703 351.749 607.145 355.911C663.638 429.925 538.235 603.962 538.235 603.962C538.349 459.167 479.296 389.272 440.558 359.004C389.756 370.632 339.908 414.066 357.74 520.609C357.74 520.609 318.3 505.548 279.055 497.273C281.725 501.971 283.506 507.12 284.308 512.462C286.155 523.118 285.588 536.318 282.687 549.71C278.683 568.27 269.566 589.273 255.68 597.354C359.72 634.942 403.339 627.379 422.646 596.917C424.267 643.475 423.213 696.383 415.546 747.314L662.639 747.508C654.939 696.533 653.837 643.556 655.507 596.901C674.748 627.379 718.354 634.942 822.473 597.354C808.526 589.273 799.4 568.27 795.396 549.71ZM423.597 590.756C423.562 591.069 423.404 591.357 423.158 591.555C422.912 591.753 422.598 591.847 422.284 591.815C422.034 591.792 421.798 591.69 421.612 591.523C421.425 591.356 421.297 591.133 421.246 590.888V590.888C420.663 588.071 420.186 585.253 419.723 582.451L418.475 574.015C417.648 568.378 416.984 562.678 416.287 557.14C415.01 545.89 413.864 534.635 412.85 523.376C411.812 512.041 410.759 500.868 409.802 489.579C408.845 478.29 407.921 466.988 407.241 455.651C407.219 455.267 407.349 454.89 407.604 454.602C407.859 454.313 408.218 454.138 408.602 454.113C408.932 454.094 409.259 454.189 409.528 454.382C409.796 454.574 409.99 454.853 410.077 455.172C413.145 466.183 415.64 477.345 417.551 488.614C419.507 499.841 421.085 511.129 422.284 522.476C423.483 533.813 424.391 545.149 424.651 556.582C425.025 567.986 424.673 579.403 423.597 590.762V590.756ZM671.322 523.274L670.755 532.003L670.576 534.173L670.318 536.343L669.798 540.683L669.231 545.007L668.955 547.177L668.55 549.314L666.929 557.882C666.443 560.749 665.682 563.549 664.952 566.368C664.221 569.187 663.525 571.987 662.732 574.773C661.938 577.559 660.981 580.294 660.04 583.031C659.099 585.768 658.143 588.505 657.124 591.129C657 591.462 656.758 591.738 656.444 591.903C656.129 592.069 655.765 592.113 655.42 592.026C655.075 591.94 654.775 591.73 654.576 591.436C654.376 591.142 654.293 590.784 654.341 590.433V590.433C655.086 584.715 656.108 579.096 656.999 573.509C657.34 570.675 657.762 567.874 658.15 565.056C658.538 562.238 658.977 559.453 659.237 556.635L660.176 548.197L660.419 546.109L660.566 543.99L660.889 539.78C661.441 534.161 661.602 528.541 661.846 522.922C662.111 511.7 661.943 500.477 661.165 489.291C660.922 486.49 660.793 483.672 660.452 480.886C660.306 479.493 660.16 478.106 660.046 476.692L659.516 472.514C658.819 466.927 657.894 461.308 656.712 455.818V455.737C656.647 455.459 656.684 455.167 656.818 454.915C656.951 454.662 657.172 454.466 657.439 454.364C657.705 454.261 658 454.258 658.269 454.356C658.538 454.454 658.762 454.645 658.9 454.895C661.728 460.062 663.978 465.523 665.61 471.181C666.032 472.59 666.453 473.999 666.827 475.407C667.201 476.816 667.524 478.258 667.847 479.683C668.578 482.534 668.999 485.416 669.468 488.298C671.255 499.867 671.879 511.585 671.333 523.278L671.322 523.274Z" fill="#354A4C"/>
<path d="M538.269 604.03C538.269 604.03 663.671 429.988 607.179 355.979C596.66 356.658 586.303 358.918 576.46 362.684C576.334 365.926 576.432 369.173 576.751 372.402C576.791 372.73 576.791 373.061 576.751 373.389C603.045 418.945 559.407 505.471 559.407 505.471C550.621 421.536 519.691 382.798 512.267 374.604C511.658 374.137 511.113 373.593 510.646 372.984C509.973 372.068 509.592 370.97 509.555 369.834C509.517 368.699 509.824 367.578 510.435 366.62C511.02 365.325 511.554 364.046 512.056 362.733C494.501 355.769 467.364 353.016 440.488 359.186C479.328 389.336 538.384 459.247 538.269 604.03Z" fill="#B39370"/>
<path d="M576.784 373.417C576.493 381.806 560.184 381.758 543.862 381.758C530.423 381.758 517.665 379.183 512.3 374.634C519.722 382.827 550.653 421.596 559.44 505.5C559.44 505.434 603.077 418.907 576.784 373.417Z" fill="#ECECEC"/>
<path d="M243.518 586.471C252.871 586.471 263.893 569.391 268.773 546.714C273.928 522.763 270.28 501.678 260.668 499.588C260.134 499.482 259.591 499.428 259.047 499.427C249.694 499.427 238.687 516.528 233.807 539.2C228.653 563.152 232.3 584.236 241.913 586.309C242.44 586.423 242.978 586.477 243.518 586.471V586.471Z" fill="#171C22"/>
<path d="M282.746 549.71C285.616 536.382 286.183 523.183 284.367 512.463C283.566 507.12 281.785 501.971 279.115 497.273C277.511 494.344 275.305 491.787 272.643 489.769C269.981 487.751 266.922 486.318 263.667 485.564C262.163 485.253 260.631 485.095 259.095 485.094V485.094C238.265 485.094 224.94 512.625 219.883 536.139C217.013 549.467 216.446 562.666 218.262 573.387C221.763 593.662 232.737 598.941 238.962 600.265C240.459 600.588 241.986 600.751 243.517 600.751C247.822 600.727 252.042 599.552 255.74 597.349C269.632 589.273 278.774 568.269 282.746 549.71ZM233.82 539.2C238.683 516.528 249.705 499.427 259.058 499.427C259.603 499.428 260.145 499.482 260.679 499.588C270.325 501.678 273.972 522.759 268.785 546.714C263.921 569.385 252.881 586.471 243.529 586.471C242.985 586.478 242.441 586.424 241.908 586.309C232.312 584.236 228.664 563.152 233.824 539.2H233.82Z" fill="#ECECEC"/>
<path d="M819.08 499.431C818.535 499.433 817.992 499.487 817.458 499.593C807.732 501.682 804.166 522.763 809.353 546.718C814.216 569.39 825.257 586.475 834.609 586.475C835.154 586.483 835.697 586.429 836.23 586.314C845.957 584.24 849.539 563.156 844.334 539.204C839.456 516.529 828.433 499.431 819.08 499.431Z" fill="#171C22"/>
<path d="M858.309 536.203C853.234 512.689 839.926 485.158 819.079 485.158C817.542 485.161 816.011 485.319 814.506 485.628C811.251 486.383 808.192 487.816 805.529 489.833C802.867 491.851 800.662 494.408 799.058 497.337C796.388 502.035 794.608 507.185 793.806 512.528C791.974 523.184 792.541 536.382 795.426 549.775C799.43 568.334 808.558 589.337 822.45 597.418C826.142 599.619 830.356 600.794 834.655 600.819C836.192 600.819 837.725 600.656 839.228 600.333C845.457 599.009 856.427 593.726 859.928 573.455C861.728 562.73 861.177 549.531 858.309 536.203ZM836.176 586.309C835.643 586.424 835.099 586.478 834.555 586.471C825.202 586.471 814.195 569.39 809.299 546.713C804.161 522.763 807.792 501.677 817.405 499.588C817.938 499.482 818.481 499.428 819.026 499.426C828.379 499.426 839.401 516.528 844.281 539.199C849.49 563.151 845.843 584.236 836.181 586.309H836.176Z" fill="#ECECEC"/>
<path d="M667.821 479.685C667.496 478.26 667.155 476.835 666.8 475.41C666.426 474.001 666.005 472.592 665.584 471.183C663.952 465.523 661.702 460.059 658.873 454.891C658.736 454.64 658.512 454.447 658.242 454.348C657.973 454.25 657.677 454.252 657.41 454.355C657.142 454.458 656.921 454.654 656.788 454.908C656.654 455.161 656.617 455.455 656.684 455.733V455.814C657.867 461.305 658.791 466.924 659.488 472.511L660.018 476.689C660.132 478.098 660.283 479.49 660.424 480.883C660.765 483.664 660.893 486.487 661.137 489.288C661.915 500.479 662.077 511.702 661.818 522.919C661.574 528.538 661.413 534.158 660.861 539.777L660.537 543.987L660.391 546.106L660.148 548.195L659.207 556.633C658.949 559.451 658.527 562.253 658.122 565.054C657.716 567.856 657.311 570.674 656.971 573.507C656.079 579.11 655.058 584.714 654.313 590.431C654.261 590.784 654.343 591.144 654.542 591.44C654.741 591.737 655.043 591.949 655.389 592.036C655.736 592.122 656.102 592.077 656.418 591.91C656.733 591.742 656.975 591.463 657.096 591.127C658.118 588.438 659.075 585.699 660.012 583.03C660.949 580.36 661.892 577.556 662.702 574.77C663.512 571.984 664.195 569.167 664.924 566.365C665.652 563.563 666.415 560.746 666.901 557.879L668.522 549.313L668.927 547.176L669.203 545.006L669.77 540.681L670.289 536.341L670.554 534.171L670.732 532.001L671.3 523.273C671.851 511.58 671.232 499.862 669.451 488.293C668.955 485.418 668.532 482.536 667.821 479.685Z" fill="#ECECEC"/>
<path d="M422.284 522.406C421.106 511.07 419.529 499.782 417.551 488.543C415.64 477.274 413.146 466.112 410.078 455.102C409.991 454.783 409.796 454.504 409.528 454.311C409.259 454.118 408.933 454.023 408.603 454.042C408.218 454.067 407.86 454.243 407.605 454.531C407.349 454.82 407.219 455.197 407.242 455.581V455.581C407.921 466.917 408.862 478.254 409.802 489.508C410.742 500.763 411.813 512.052 412.85 523.306C413.888 534.56 415.005 545.815 416.287 557.069C416.984 562.688 417.648 568.308 418.475 573.944L419.724 582.381C420.193 585.183 420.663 588 421.246 590.818C421.297 591.063 421.425 591.286 421.612 591.453C421.799 591.619 422.035 591.722 422.284 591.745C422.599 591.776 422.913 591.683 423.159 591.484C423.404 591.286 423.562 590.999 423.598 590.685C424.677 579.302 425.029 567.862 424.651 556.434C424.391 545.079 423.484 533.742 422.284 522.406Z" fill="#ECECEC"/>
<path d="M689.802 294.566H683.415C670.204 294.68 640.377 295.021 612.09 295.021C589.395 295.021 582.376 285.077 580.221 272.644C579.503 267.858 579.188 263.02 579.28 258.182C579.28 256.356 580.006 254.604 581.298 253.313C582.591 252.022 584.344 251.297 586.172 251.297H689.787C702.366 251.297 702.755 232.363 689.009 232.363C689.334 227.845 689.592 223.149 689.787 218.338C690.921 192.751 690.5 175.52 690.5 175.52C690.5 164.752 690.289 154.468 690.047 145.691C689.625 128.023 689.009 115.86 689.009 115.86C629.777 115.86 601.474 148.768 561.887 160.929C560.899 161.238 559.943 161.529 558.937 161.804C547.721 165.852 545.596 176.848 545.484 206.258C545.483 206.997 545.238 207.715 544.786 208.301C544.335 208.887 543.702 209.307 542.987 209.496C541.488 209.841 539.953 210.004 538.416 209.982C536.776 210.017 535.14 209.826 533.553 209.416C532.848 209.223 532.229 208.799 531.796 208.211C531.363 207.623 531.141 206.906 531.167 206.177V189.384C531.167 186.146 507.311 181.288 507.311 205.579C507.311 216.203 511.95 220.559 517.182 222.08C517.182 222.08 534.868 278.244 520.02 338.227C517.959 346.541 515.305 354.697 512.077 362.632C511.547 363.944 511.006 365.223 510.455 366.519C509.844 367.478 509.537 368.598 509.574 369.734C509.612 370.87 509.992 371.968 510.665 372.884V372.884C510.665 372.884 511.347 373.546 512.288 374.503C517.653 379.054 530.41 381.628 543.848 381.628C560.172 381.628 576.479 381.628 576.771 373.286C576.812 372.958 576.812 372.627 576.771 372.299C575.756 361.58 577.049 350.768 580.565 340.59C584.423 341.141 588.54 341.659 592.853 342.21C627.709 346.096 674.229 347.327 682.511 339.826C690.793 332.326 690.617 313.462 690.617 313.462C703.192 313.498 703.483 294.566 689.802 294.566ZM522.836 208.38C522.842 208.759 522.741 209.131 522.544 209.454C522.348 209.778 522.064 210.039 521.725 210.208C521.386 210.378 521.006 210.448 520.63 210.411C520.253 210.374 519.894 210.231 519.594 210C518.929 209.4 518.388 208.675 518.004 207.866C517.619 207.058 517.397 206.182 517.351 205.287C517.306 204.393 517.436 203.499 517.737 202.655C518.037 201.812 518.501 201.036 519.101 200.371C519.257 200.198 519.421 200.034 519.594 199.879C519.894 199.646 520.252 199.503 520.63 199.466C521.007 199.429 521.387 199.499 521.726 199.668C522.065 199.838 522.349 200.099 522.545 200.423C522.742 200.747 522.843 201.119 522.836 201.498V208.38ZM544.622 218.405C544.322 218.908 543.841 219.279 543.277 219.441C541.692 219.873 540.057 220.091 538.414 220.089C537.596 220.102 536.778 220.058 535.966 219.956C535.129 219.874 534.302 219.701 533.502 219.439C533.277 219.395 533.062 219.307 532.87 219.18C532.679 219.053 532.514 218.889 532.386 218.699C532.257 218.508 532.168 218.294 532.122 218.069C532.077 217.844 532.076 217.612 532.12 217.386C532.153 217.221 532.209 217.062 532.287 216.912C532.577 216.476 533.005 216.15 533.502 215.986C534.306 215.735 535.131 215.558 535.966 215.456C536.779 215.37 537.597 215.332 538.414 215.342C540.057 215.332 541.694 215.551 543.277 215.991C544.622 216.331 545.173 217.466 544.622 218.405Z" fill="#B39370"/>
<path d="M683.415 276.525V294.614C670.204 294.728 640.377 295.069 612.09 295.069C589.395 295.069 582.376 285.125 580.221 272.692H679.489C680.508 272.671 681.494 273.055 682.229 273.759C682.965 274.463 683.391 275.431 683.412 276.449L683.415 276.525Z" fill="#ECECEC"/>
<path d="M668.065 251.344V272.672H580.286C579.568 267.886 579.253 263.049 579.345 258.21C579.345 256.384 580.071 254.633 581.363 253.342C582.656 252.051 584.409 251.325 586.237 251.325V251.325L668.065 251.344Z" fill="#ECECEC"/>
<path d="M543.326 215.992C544.574 216.38 545.174 217.465 544.671 218.404C544.37 218.907 543.89 219.278 543.326 219.441C541.741 219.873 540.106 220.09 538.463 220.088C537.645 220.102 536.827 220.058 536.015 219.956C535.178 219.874 534.351 219.7 533.552 219.438C533.326 219.394 533.111 219.306 532.92 219.179C532.728 219.052 532.563 218.889 532.435 218.698C532.307 218.507 532.217 218.293 532.171 218.068C532.126 217.843 532.125 217.611 532.169 217.386C532.201 217.221 532.257 217.061 532.335 216.912C532.625 216.476 533.054 216.15 533.552 215.985C534.355 215.735 535.18 215.557 536.015 215.455C536.828 215.369 537.646 215.331 538.463 215.342C540.107 215.332 541.743 215.551 543.326 215.992V215.992Z" fill="#5E3F26"/>
<path d="M522.836 201.481V208.38C522.842 208.758 522.741 209.13 522.544 209.454C522.348 209.777 522.064 210.039 521.725 210.208C521.386 210.377 521.006 210.447 520.629 210.41C520.252 210.373 519.894 210.231 519.594 209.999C518.929 209.399 518.388 208.674 518.004 207.866C517.619 207.057 517.397 206.181 517.351 205.287C517.305 204.393 517.436 203.498 517.737 202.655C518.037 201.811 518.501 201.035 519.101 200.371C519.257 200.198 519.421 200.033 519.594 199.878C519.893 199.647 520.25 199.505 520.625 199.467C521.001 199.43 521.379 199.499 521.718 199.666C522.056 199.833 522.34 200.092 522.538 200.413C522.736 200.734 522.839 201.104 522.836 201.481V201.481Z" fill="#171C22"/>
<path d="M510.744 372.899C510.857 373.031 511.424 373.561 512.365 374.518C511.756 374.052 511.211 373.508 510.744 372.899V372.899Z" fill="#B39370"/>
<path d="M587.094 271.587C594.81 270.646 602.509 270.145 610.209 269.757C614.068 269.578 617.926 269.399 621.768 269.336L627.554 269.189L633.326 269.108C641.042 269.108 648.741 269.108 656.441 269.529C660.299 269.723 664.152 269.999 668 270.355C671.858 270.711 675.716 271.132 679.557 271.797C679.763 271.832 679.951 271.939 680.086 272.099C680.222 272.259 680.296 272.462 680.296 272.672C680.296 272.881 680.222 273.084 680.086 273.244C679.951 273.404 679.763 273.511 679.557 273.546C675.713 274.208 671.858 274.631 668 274.987C664.142 275.343 660.3 275.618 656.441 275.813C648.741 276.202 641.042 276.283 633.326 276.218H627.554L621.768 276.072C617.924 275.992 614.068 275.829 610.209 275.651C602.509 275.246 594.81 274.76 587.094 273.822C586.839 273.777 586.607 273.643 586.44 273.445C586.273 273.247 586.182 272.996 586.182 272.736C586.182 272.477 586.273 272.226 586.44 272.028C586.607 271.83 586.839 271.696 587.094 271.651V271.587Z" fill="#171C22"/>
<path d="M661.094 207.959C660.262 206.625 659.253 205.411 658.095 204.348C656.938 203.308 655.645 202.43 654.251 201.74C652.883 201.046 651.419 200.56 649.907 200.299C648.432 200.019 646.926 199.948 645.432 200.088H644.93C645.629 197.651 646.123 195.159 646.405 192.639C646.771 189.414 646.911 186.167 646.826 182.922C646.801 179.674 646.59 176.429 646.194 173.205C645.851 169.921 645.233 166.671 644.347 163.489C644.294 163.307 644.197 163.14 644.064 163.005C643.931 162.869 643.766 162.769 643.585 162.712C643.297 162.632 642.989 162.669 642.728 162.814C642.466 162.96 642.273 163.202 642.19 163.489C641.303 166.67 640.685 169.92 640.343 173.205C639.969 176.445 639.758 179.684 639.709 182.922C639.628 186.167 639.764 189.413 640.115 192.639C640.438 195.413 641.019 198.151 641.85 200.817C640.271 201.355 638.803 202.176 637.52 203.241C637.355 203.388 637.237 203.579 637.179 203.792C637.122 204.005 637.128 204.23 637.197 204.439C637.292 204.713 637.492 204.939 637.754 205.066C638.015 205.194 638.316 205.213 638.591 205.12C640.688 204.36 642.936 204.111 645.148 204.393C647.361 204.674 649.475 205.479 651.314 206.739C652.958 207.881 654.299 209.404 655.223 211.179C656.146 212.953 656.624 214.925 656.615 216.925C656.573 218.902 656.067 220.842 655.138 222.589C654.209 224.335 652.883 225.84 651.266 226.981C649.436 228.243 647.347 229.083 645.152 229.438C642.957 229.794 640.71 229.658 638.574 229.039V229.039C638.415 229.001 638.25 229.005 638.094 229.05C637.938 229.095 637.796 229.18 637.683 229.297C637.514 229.467 637.419 229.697 637.419 229.937C637.419 230.177 637.514 230.407 637.683 230.577C639.854 232.542 642.597 233.761 645.512 234.058C648.578 234.392 651.675 233.829 654.427 232.439C657.296 231.013 659.694 228.792 661.334 226.042C662.972 223.292 663.82 220.144 663.782 216.943C663.745 213.743 662.825 210.615 661.123 207.903L661.094 207.959Z" fill="#5E3F26"/>
<path d="M511.765 367.198C511.551 367.809 511.481 368.462 511.56 369.104C511.639 369.747 511.864 370.363 512.219 370.905C513.042 372.019 514.092 372.947 515.299 373.626C518.155 375.187 521.208 376.359 524.377 377.108C531.005 378.708 537.804 379.491 544.623 379.44C548.124 379.44 551.659 379.326 555.093 379.133C558.47 378.995 561.836 378.659 565.175 378.128C567.991 377.842 570.692 376.863 573.037 375.279C573.431 374.929 573.761 374.512 574.009 374.047C574.134 373.791 574.237 373.526 574.318 373.253C574.396 372.89 574.445 372.522 574.464 372.151C574.603 370.262 574.874 368.384 575.274 366.532C575.351 366.221 575.546 365.952 575.819 365.783C576.091 365.614 576.418 365.557 576.732 365.625C576.945 365.673 577.14 365.778 577.298 365.929C577.455 366.081 577.568 366.272 577.624 366.483V366.483C578.126 368.265 578.551 369.997 579.066 371.714C579.205 372.246 579.309 372.787 579.374 373.334C579.447 373.963 579.447 374.599 579.374 375.228C579.227 376.534 578.801 377.793 578.126 378.921C577.492 379.99 576.686 380.947 575.74 381.754C574.897 382.515 573.973 383.181 572.985 383.741C571.179 384.791 569.259 385.633 567.262 386.25C559.885 388.326 552.226 389.222 544.568 388.906C536.813 388.819 529.139 387.32 521.922 384.485C518.148 383.038 514.671 380.914 511.661 378.218C509.967 376.685 508.705 374.737 507.998 372.566C507.655 371.376 507.594 370.123 507.819 368.906C508.066 367.781 508.559 366.725 509.262 365.813C509.468 365.54 509.764 365.348 510.097 365.271C510.43 365.194 510.78 365.236 511.085 365.39C511.39 365.545 511.631 365.801 511.766 366.115C511.901 366.429 511.921 366.781 511.823 367.108L511.765 367.198Z" fill="#171C22"/>
<path d="M270.767 518.697C254.054 513.206 246.808 497.645 242.802 482.486L203.218 470.049C211.761 479.765 207.287 491.101 167.168 471.554C161.56 468.882 155.821 466.405 150.18 464.04C140.583 460.093 130.856 456.481 121 453.206C111.144 449.93 101.239 446.897 91.2859 444.105C81.2464 441.31 71.0692 439.034 60.795 437.287C58.2242 436.868 55.5882 437.373 53.3544 438.711C51.1205 440.049 49.4331 442.134 48.5914 444.597C47.7497 447.059 47.8081 449.74 48.7561 452.164C49.7042 454.587 51.4807 456.597 53.7707 457.837C62.974 462.72 72.4205 467.131 82.0734 471.052C91.6707 475.003 101.365 478.652 111.155 482C120.881 485.384 130.818 488.477 140.843 491.198C145.105 492.364 149.401 493.466 153.81 494.436L117.806 556.17C133.904 569.644 165.999 577.661 197.885 579.231C221.6 580.38 226.983 568.089 257.134 576.122C275.322 546.518 270.767 518.697 270.767 518.697Z" fill="#B39370"/>
<path d="M131.779 479.588C131.728 478.196 131.809 476.802 132.023 475.425C132.214 474.113 132.49 472.815 132.85 471.539C133.172 470.253 133.616 469 134.175 467.797C134.781 466.496 135.596 465.303 136.59 464.267V464.267C136.725 464.143 136.901 464.075 137.084 464.075C137.268 464.075 137.444 464.143 137.579 464.267C137.648 464.345 137.703 464.435 137.74 464.532C138.196 465.931 138.368 467.406 138.244 468.872C138.13 470.252 137.841 471.612 137.384 472.92C136.971 474.239 136.428 475.514 135.763 476.727C135.077 477.995 134.202 479.153 133.169 480.16C133.023 480.306 132.826 480.387 132.619 480.387C132.413 480.387 132.215 480.306 132.069 480.16V480.16C131.942 480.021 131.863 479.845 131.841 479.658L131.779 479.588Z" fill="#5E3F26"/>
<path d="M95.9553 466.47C95.9568 465.428 96.0454 464.388 96.2204 463.361C96.3796 462.423 96.5906 461.495 96.8526 460.581C97.0901 459.664 97.4214 458.774 97.8413 457.925C98.3392 456.937 99.0026 456.041 99.8028 455.276V455.276C99.8709 455.205 99.9526 455.148 100.043 455.109C100.133 455.069 100.231 455.048 100.33 455.046C100.428 455.045 100.526 455.063 100.618 455.1C100.709 455.137 100.793 455.191 100.863 455.261L100.879 455.276L100.96 455.389C101.593 456.411 101.93 457.589 101.933 458.79C101.939 459.897 101.742 460.995 101.349 462.029C100.955 463.074 100.409 464.056 99.7286 464.942C99.0803 465.917 98.2285 466.74 97.2316 467.354C97.0416 467.454 96.8204 467.475 96.6146 467.415C96.4089 467.354 96.2348 467.216 96.1289 467.03C96.0742 466.913 96.0415 466.787 96.0322 466.658L95.9553 466.47Z" fill="#5E3F26"/>
<path d="M88.4166 460.979C88.1729 460.468 88.0093 459.922 87.9315 459.36C87.848 458.938 87.848 458.503 87.9315 458.081C88.0094 457.662 88.2063 457.274 88.4988 456.964C88.9644 456.506 89.515 456.143 90.1197 455.895V455.895C90.2999 455.821 90.4965 455.795 90.6898 455.821C90.8831 455.846 91.0663 455.922 91.221 456.041C91.8437 456.471 92.2832 457.118 92.4536 457.855C92.5805 458.424 92.524 459.019 92.2919 459.555C92.0732 460.102 91.7286 460.59 91.286 460.979C90.7678 461.456 90.1188 461.766 89.4225 461.871C89.2108 461.911 88.9917 461.881 88.7986 461.785C88.6055 461.69 88.449 461.534 88.353 461.341L88.4166 460.979Z" fill="#5E3F26"/>
<path d="M173.018 518.778C175.153 516.474 176.284 513.417 176.163 510.28C176.042 507.143 174.679 504.182 172.373 502.049L172.337 502.017C169.038 499.076 165.365 496.583 161.412 494.602C157.626 492.636 153.685 490.984 149.628 489.662C145.582 488.287 141.443 487.205 137.242 486.424C132.912 485.596 128.499 485.285 124.096 485.497C121.775 485.647 119.551 486.481 117.704 487.893C115.858 489.305 114.471 491.232 113.719 493.43C112.968 495.629 112.885 498.001 113.482 500.247C114.078 502.492 115.328 504.511 117.072 506.048C118.874 507.627 120.798 509.061 122.826 510.339C120.687 510.78 118.71 511.799 117.111 513.286C115.511 514.773 114.352 516.67 113.758 518.771C113.164 520.871 113.159 523.094 113.744 525.197C114.328 527.3 115.479 529.202 117.072 530.696C118.249 531.798 119.495 532.826 120.8 533.773C118.759 534.334 116.901 535.42 115.41 536.921C113.919 538.423 112.847 540.288 112.302 542.332C111.757 544.375 111.756 546.526 112.301 548.569C112.846 550.613 113.917 552.479 115.407 553.981C118.081 556.583 121.097 558.81 124.372 560.601C127.486 562.323 130.739 563.781 134.097 564.958C137.446 566.159 140.905 567.026 144.424 567.548C148.123 568.17 151.896 568.215 155.609 567.681C158.05 567.285 160.311 566.154 162.092 564.441C164.466 562.212 165.856 559.133 165.958 555.881C166.06 552.628 164.865 549.468 162.636 547.096L162.628 547.088C162.141 546.569 161.655 546.099 161.153 545.646C163.398 545.359 165.518 544.447 167.27 543.014C169.022 541.581 170.335 539.685 171.061 537.542C171.786 535.4 171.893 533.096 171.371 530.896C170.849 528.695 169.718 526.685 168.107 525.095C167.157 524.159 166.15 523.283 165.092 522.471H165.3C168.243 522.241 170.994 520.925 173.018 518.778V518.778Z" fill="#B39370"/>
<path d="M160.813 523.782C157.595 524.563 154.271 524.809 150.973 524.51C147.707 524.276 144.478 523.679 141.345 522.729C138.212 521.831 135.198 520.564 132.364 518.956C129.474 517.346 126.903 515.223 124.778 512.689C124.626 512.491 124.559 512.242 124.589 511.994C124.619 511.747 124.745 511.521 124.94 511.365C125.033 511.287 125.142 511.229 125.26 511.196C125.377 511.162 125.5 511.154 125.621 511.171V511.171C127.21 511.378 128.785 511.681 130.338 512.078C131.862 512.434 133.353 512.839 134.812 513.244C137.728 514.086 140.598 515.057 143.435 516.025C146.271 516.992 149.126 517.919 152.011 518.842C154.896 519.765 157.797 520.673 160.813 521.677C161.095 521.768 161.329 521.968 161.464 522.232C161.599 522.496 161.623 522.802 161.532 523.084V523.102C161.474 523.263 161.378 523.409 161.253 523.527C161.129 523.646 160.977 523.733 160.813 523.782V523.782Z" fill="#5E3F26"/>
<path d="M129.234 484.397C130.126 483.615 131.194 483.06 132.346 482.778C133.32 482.53 134.328 482.449 135.329 482.536C136.322 482.603 137.284 482.908 138.134 483.426C139.208 484.1 140.046 485.09 140.533 486.26C140.645 486.536 140.67 486.839 140.603 487.129C140.537 487.419 140.382 487.681 140.16 487.88L140.062 487.96C139.187 488.748 138.129 489.305 136.983 489.58C136.093 489.79 135.166 489.79 134.276 489.58C133.376 489.393 132.511 489.065 131.714 488.608C130.775 488.084 129.935 487.398 129.234 486.583L129.12 486.451C128.867 486.17 128.735 485.801 128.754 485.423C128.773 485.046 128.941 484.691 129.221 484.437L129.234 484.427V484.397Z" fill="#5E3F26"/>
<path d="M157.684 547.085C154.593 548.006 151.361 548.365 148.142 548.145C144.948 547.997 141.784 547.453 138.724 546.525C135.679 545.641 132.759 544.374 130.035 542.753C128.673 541.914 127.378 540.972 126.161 539.934C124.962 538.848 123.876 537.644 122.919 536.339C122.811 536.193 122.748 536.017 122.738 535.835C122.728 535.653 122.771 535.472 122.862 535.314C122.953 535.157 123.088 535.028 123.251 534.946C123.414 534.863 123.597 534.83 123.778 534.85H123.859C125.4 535.065 126.923 535.395 128.414 535.838C129.858 536.194 131.284 536.615 132.678 537.029C135.461 537.871 138.206 538.81 140.945 539.75C143.685 540.69 146.393 541.564 149.162 542.406L157.69 544.964C157.977 545.051 158.219 545.247 158.362 545.511C158.504 545.776 158.536 546.085 158.451 546.373C158.391 546.545 158.29 546.7 158.156 546.825C158.023 546.949 157.861 547.038 157.684 547.085Z" fill="#5E3F26"/>
<path d="M156.111 508.527C158.218 500.527 167.376 505.888 166.226 510.941C164.93 516.56 154.1 516.155 156.111 508.527Z" fill="#5E3F26"/>
<path d="M150.892 532.122C152.999 524.123 162.157 529.482 160.991 534.535C159.709 540.219 148.881 539.766 150.892 532.122Z" fill="#5E3F26"/>
<path d="M145.008 555.993C147.115 547.993 156.355 553.354 155.107 558.407C153.826 564.026 142.997 563.621 145.008 555.993Z" fill="#5E3F26"/>
<path d="M128.1 491.329C127.987 492.582 127.792 493.826 127.517 495.053C127.252 496.236 126.95 497.385 126.625 498.502C126.316 499.653 125.92 500.779 125.442 501.871C124.92 503.081 124.226 504.21 123.383 505.223V505.223C123.252 505.354 123.075 505.427 122.89 505.427C122.705 505.427 122.528 505.354 122.397 505.223C122.329 505.165 122.274 505.093 122.234 505.013C121.616 503.738 121.315 502.332 121.359 500.916C121.404 499.565 121.667 498.231 122.137 496.964C122.594 495.693 123.209 494.485 123.969 493.369C124.755 492.207 125.763 491.211 126.935 490.438C127.018 490.381 127.112 490.342 127.21 490.322C127.309 490.302 127.41 490.302 127.509 490.321C127.607 490.341 127.701 490.379 127.784 490.435C127.868 490.491 127.94 490.562 127.995 490.645L128.009 490.665C128.104 490.809 128.151 490.979 128.141 491.151L128.1 491.329Z" fill="#5E3F26"/>
<path d="M127.387 519.912C127.438 520.875 127.389 521.842 127.241 522.795C127.11 523.663 126.926 524.523 126.69 525.37C126.479 526.219 126.167 527.04 125.762 527.815C125.265 528.726 124.612 529.543 123.832 530.228V530.228C123.677 530.363 123.474 530.431 123.268 530.417C123.062 530.403 122.87 530.308 122.735 530.152V530.152C122.085 529.197 121.736 528.069 121.73 526.914C121.705 525.88 121.881 524.852 122.25 523.886C122.607 522.909 123.109 521.991 123.741 521.165C124.415 520.283 125.279 519.563 126.269 519.06C126.365 519.013 126.469 518.985 126.575 518.978C126.681 518.971 126.787 518.986 126.888 519.02C126.989 519.054 127.082 519.108 127.162 519.178C127.241 519.248 127.307 519.334 127.354 519.429V519.429C127.401 519.526 127.434 519.63 127.452 519.736L127.387 519.912Z" fill="#5E3F26"/>
<path d="M134 495.911C134.248 496.466 134.407 497.056 134.471 497.66C134.546 498.111 134.546 498.571 134.471 499.021C134.39 499.468 134.182 499.882 133.87 500.213C133.384 500.71 132.797 501.096 132.148 501.346V501.346C131.965 501.423 131.765 501.45 131.569 501.424C131.372 501.399 131.186 501.321 131.029 501.2C130.41 500.734 129.978 500.062 129.812 499.306C129.695 498.706 129.763 498.085 130.007 497.525C130.243 496.897 130.637 496.341 131.151 495.91C131.665 495.479 132.282 495.187 132.941 495.064C133.156 495.019 133.379 495.049 133.574 495.149C133.769 495.249 133.923 495.413 134.011 495.613L134 495.911Z" fill="#5E3F26"/>
<path d="M121.033 542.664C121.299 543.172 121.485 543.719 121.585 544.284C121.666 544.674 121.666 545.076 121.585 545.466C121.516 545.847 121.322 546.195 121.033 546.454C120.559 546.872 120.009 547.197 119.412 547.41V547.41C119.228 547.476 119.03 547.498 118.835 547.472C118.641 547.447 118.455 547.376 118.294 547.264C117.684 546.868 117.24 546.264 117.045 545.564C116.906 545.023 116.958 544.452 117.191 543.945C117.417 543.384 117.788 542.893 118.267 542.523C118.746 542.153 119.314 541.917 119.915 541.839C120.118 541.807 120.326 541.839 120.51 541.932C120.694 542.025 120.843 542.174 120.937 542.357L121.033 542.664Z" fill="#5E3F26"/>
<path d="M127.824 546.488C127.954 547.291 127.981 548.107 127.905 548.917C127.854 549.629 127.735 550.334 127.548 551.022C127.195 552.599 126.249 553.979 124.906 554.877V554.877C124.73 555 124.515 555.054 124.302 555.027C124.089 554.999 123.894 554.893 123.755 554.73C123.118 553.987 122.737 553.058 122.67 552.082C122.609 551.216 122.741 550.347 123.058 549.538C123.365 548.724 123.81 547.968 124.371 547.303C124.988 546.591 125.766 546.036 126.64 545.684C126.745 545.642 126.857 545.622 126.97 545.623C127.083 545.625 127.194 545.649 127.298 545.693C127.402 545.738 127.496 545.802 127.574 545.883C127.653 545.964 127.715 546.06 127.756 546.165V546.165V546.326L127.824 546.488Z" fill="#5E3F26"/>
<path d="M197.561 463.311C198.469 464.371 199.425 465.353 200.301 466.438C202.084 468.556 203.834 470.762 205.455 473.109C208.836 477.973 211.947 483.017 214.776 488.219C215.538 489.628 216.316 491.053 217.078 492.495H244.636C244.504 491.232 244.343 489.969 244.15 488.721C243.511 484.787 242.562 480.91 241.312 477.125C238.798 469.356 235.078 462.028 230.289 455.411C227.841 451.977 225.085 448.774 222.055 445.839C219.003 442.804 215.646 440.09 212.037 437.743C204.833 432.963 196.591 429.97 187.996 429.013C185.563 428.765 183.115 429.329 181.036 430.617C178.957 431.905 177.363 433.844 176.504 436.133C175.645 438.421 175.569 440.929 176.287 443.265C177.005 445.602 178.478 447.634 180.475 449.046L181.448 449.727C186.148 452.902 190.568 456.472 194.659 460.399C195.697 461.288 196.589 462.373 197.561 463.311Z" fill="#B39370"/>
<path d="M190.753 429.388C190.753 429.388 187.072 433.971 194.513 436.237C201.953 438.504 201.857 432.497 201.857 432.497C198.292 431.025 194.564 429.981 190.753 429.388V429.388Z" fill="#5E3F26"/>
<path d="M227.68 452.268C227.502 453.343 227.056 454.357 226.382 455.215C225.757 456.019 225.008 456.719 224.162 457.288C223.33 457.849 222.393 458.235 221.407 458.422C220.317 458.636 219.189 458.524 218.164 458.097C217.974 458.012 217.825 457.855 217.75 457.662C217.674 457.468 217.678 457.252 217.759 457.061V457.061C218.211 456.166 218.833 455.369 219.591 454.713C220.207 454.16 220.894 453.692 221.633 453.32C222.348 452.915 223.089 452.561 223.853 452.261C224.699 451.922 225.573 451.656 226.464 451.467H226.658C226.868 451.428 227.085 451.472 227.264 451.59C227.442 451.707 227.568 451.89 227.615 452.098C227.642 452.152 227.664 452.209 227.68 452.268V452.268Z" fill="#5E3F26"/>
<path d="M1028.68 442.906C1027.59 440.902 1025.9 439.285 1023.85 438.279C1021.8 437.272 1019.49 436.926 1017.23 437.287C1006.96 439.036 996.793 441.312 986.758 444.105C976.74 446.836 966.836 449.87 957.045 453.206C947.255 456.543 937.528 460.154 927.867 464.041C922.144 466.406 916.519 468.899 910.878 471.555C874.842 489.077 867.563 481.693 872.638 473.011C874.259 470.696 875.977 468.525 877.727 466.436C878.619 465.352 879.559 464.363 880.467 463.31C881.364 462.272 882.334 461.298 883.369 460.397C887.457 456.466 891.877 452.895 896.581 449.725L897.537 449.045C899.535 447.633 901.007 445.6 901.726 443.264C902.444 440.927 902.368 438.419 901.509 436.13C900.649 433.842 899.055 431.902 896.976 430.614C894.896 429.327 892.449 428.763 890.015 429.012C889.107 429.11 888.183 429.255 887.275 429.401C887.356 429.498 890.854 434 883.515 436.235C876.177 438.47 876.172 432.785 876.172 432.51C872.629 433.932 869.235 435.7 866.041 437.789C862.432 440.137 859.075 442.851 856.022 445.887C852.997 448.825 850.241 452.028 847.788 455.457C843.006 462.078 839.287 469.405 836.765 477.171C836.197 478.954 835.678 480.734 835.143 482.532C831.139 497.706 823.909 513.302 807.197 518.743C807.197 518.743 802.626 546.565 820.829 576.206C850.997 568.108 856.363 580.466 880.079 579.315C911.347 577.696 942.795 570.036 959.202 557.049L960.013 556.387L960.174 556.254C961.003 555.58 961.793 554.861 962.542 554.1C964.805 551.812 966.066 548.719 966.047 545.503C966.028 542.286 964.731 539.208 962.441 536.947L962.428 536.935C960.962 535.485 959.148 534.436 957.159 533.89C958.459 532.935 959.704 531.908 960.888 530.813C962.474 529.315 963.619 527.411 964.199 525.309C964.778 523.207 964.77 520.986 964.176 518.888C963.581 516.79 962.422 514.895 960.825 513.408C959.228 511.922 957.254 510.901 955.117 510.457C957.147 509.176 959.077 507.741 960.888 506.165C962.537 504.715 963.746 502.831 964.377 500.728C965.009 498.625 965.038 496.388 964.46 494.269C963.883 492.151 962.723 490.237 961.111 488.744C959.5 487.252 957.501 486.24 955.344 485.825C959.153 484.61 962.963 483.363 966.691 482.052C976.417 478.683 986.106 475.034 995.756 471.105C1005.41 467.183 1014.86 462.772 1024.06 457.889C1025.34 457.224 1026.48 456.313 1027.41 455.208C1028.34 454.103 1029.05 452.825 1029.49 451.448C1029.92 450.071 1030.08 448.621 1029.96 447.182C1029.84 445.743 1029.43 444.342 1028.76 443.06L1028.68 442.906ZM855.569 447.766C856.109 447.419 856.727 447.213 857.368 447.166C857.877 447.129 858.388 447.212 858.859 447.409C859.332 447.586 859.736 447.911 860.01 448.336C860.384 448.947 860.539 449.667 860.448 450.377C860.433 450.573 860.37 450.762 860.266 450.928C860.162 451.095 860.018 451.233 859.849 451.333V451.333C859.287 451.69 858.647 451.907 857.984 451.964C857.56 451.982 857.142 451.862 856.791 451.624C856.413 451.396 856.091 451.086 855.85 450.717C855.511 450.227 855.269 449.678 855.137 449.098V448.965C855.09 448.752 855.106 448.529 855.184 448.324C855.262 448.12 855.398 447.943 855.576 447.815L855.569 447.766ZM849.376 454.386C849.463 454.322 849.562 454.277 849.667 454.253C850.663 454.027 851.693 453.999 852.7 454.173C853.637 454.307 854.549 454.58 855.406 454.983C856.286 455.368 857.084 455.917 857.757 456.602C858.541 457.347 859.103 458.294 859.378 459.339C859.427 459.543 859.393 459.758 859.283 459.938C859.174 460.117 858.998 460.245 858.794 460.295V460.295C857.8 460.51 856.773 460.51 855.78 460.295C854.938 460.085 854.13 459.758 853.38 459.323C852.621 458.893 851.9 458.4 851.225 457.85C850.48 457.238 849.825 456.525 849.279 455.731V455.731C849.111 455.578 849.011 455.364 849 455.137C848.99 454.91 849.07 454.688 849.223 454.52C849.269 454.47 849.32 454.426 849.376 454.389V454.386ZM878.084 499.731C877.973 499.761 877.856 499.761 877.745 499.731C876.161 499.075 874.795 497.986 873.804 496.589C872.825 495.243 872.106 493.727 871.684 492.119C871.244 490.537 871.031 488.902 871.052 487.261C871.047 485.599 871.355 483.951 871.96 482.403C872.037 482.216 872.186 482.069 872.373 481.992C872.56 481.915 872.77 481.916 872.956 481.994H872.964C873.056 482.029 873.14 482.084 873.209 482.154C873.279 482.223 873.334 482.307 873.37 482.399V482.399C873.97 483.823 874.408 485.248 874.878 486.609L876.19 490.593C876.612 491.904 877.098 493.167 877.488 494.495C877.94 495.915 878.313 497.359 878.606 498.82V498.82C878.639 498.901 878.655 498.987 878.653 499.075C878.652 499.162 878.634 499.248 878.599 499.328C878.564 499.408 878.514 499.481 878.451 499.541C878.388 499.602 878.314 499.65 878.232 499.682C878.165 499.708 878.094 499.723 878.022 499.727L878.084 499.731ZM945.747 465.366C945.747 465.156 945.831 464.953 945.98 464.804C946.129 464.655 946.331 464.572 946.542 464.572H946.575C946.701 464.569 946.825 464.603 946.932 464.67C947.968 465.231 948.865 466.017 949.558 466.97C950.243 467.86 950.789 468.848 951.179 469.901C951.575 470.935 951.773 472.033 951.763 473.14C951.761 474.341 951.424 475.519 950.79 476.54C950.681 476.705 950.511 476.822 950.318 476.864C950.124 476.906 949.921 476.871 949.753 476.766L949.639 476.685C948.837 475.927 948.173 475.034 947.678 474.047C947.253 473.192 946.917 472.297 946.673 471.375C946.429 470.468 946.219 469.561 946.057 468.594C945.874 467.574 945.785 466.538 945.792 465.501L945.747 465.366ZM937.641 472.638C937.724 472.075 937.894 471.529 938.143 471.017L938.276 470.742C938.364 470.545 938.516 470.384 938.707 470.284C938.898 470.184 939.117 470.152 939.329 470.192C939.969 470.293 940.571 470.56 941.074 470.967C941.578 471.373 941.966 471.905 942.199 472.508C942.446 473.047 942.509 473.652 942.378 474.229C942.203 474.96 941.764 475.6 941.145 476.027C940.99 476.151 940.804 476.231 940.608 476.26C940.411 476.288 940.211 476.264 940.027 476.189V476.189C939.424 475.944 938.875 475.586 938.406 475.136C938.112 474.825 937.91 474.438 937.823 474.019C937.686 473.595 937.625 473.151 937.644 472.707L937.641 472.638ZM922.971 558.338C921.82 553.286 930.978 547.924 933.086 555.926C935.096 563.617 924.267 564.022 922.971 558.403V558.338ZM958.633 547.974C958.884 548.532 958.953 549.155 958.828 549.754C958.658 550.505 958.228 551.171 957.613 551.633C957.457 551.758 957.271 551.837 957.074 551.863C956.876 551.888 956.676 551.859 956.494 551.779V551.779C955.845 551.529 955.257 551.143 954.771 550.645C954.472 550.306 954.266 549.896 954.172 549.454C954.07 549.008 954.042 548.549 954.091 548.094C954.163 547.491 954.321 546.902 954.56 546.345L954.674 546.08C954.76 545.878 954.914 545.712 955.109 545.612C955.305 545.511 955.529 545.482 955.744 545.529C956.46 545.659 957.123 545.99 957.656 546.485C958.071 546.927 958.376 547.459 958.548 548.04L958.633 547.974ZM917.167 534.487C916.017 529.434 925.175 524.073 927.282 532.073C929.212 539.766 918.384 540.219 917.086 534.552L917.167 534.487ZM945.73 522.405V522.272C945.735 522.166 945.762 522.062 945.809 521.966C945.855 521.87 945.92 521.784 945.999 521.714C946.079 521.643 946.171 521.588 946.272 521.553C946.373 521.518 946.479 521.504 946.586 521.51H946.606C946.707 521.485 946.812 521.485 946.913 521.51C947.904 522.008 948.766 522.728 949.431 523.615C950.073 524.432 950.581 525.344 950.938 526.319C951.305 527.285 951.481 528.313 951.458 529.347C951.444 530.501 951.095 531.627 950.453 532.587C950.332 532.753 950.151 532.866 949.949 532.902C949.746 532.939 949.537 532.895 949.366 532.78V532.78C948.583 532.099 947.93 531.282 947.438 530.368C947.032 529.591 946.717 528.77 946.497 527.922C946.267 527.081 946.09 526.227 945.967 525.364C945.783 524.389 945.703 523.397 945.73 522.405V522.405ZM955.456 520.089C955.546 519.89 955.7 519.726 955.894 519.623C956.088 519.52 956.31 519.485 956.526 519.522C957.241 519.664 957.903 520 958.438 520.494C958.893 520.912 959.248 521.427 959.476 522.001C959.713 522.558 959.776 523.173 959.655 523.766C959.489 524.522 959.057 525.194 958.438 525.661C958.283 525.785 958.097 525.864 957.899 525.89C957.702 525.916 957.502 525.887 957.32 525.806V525.806C956.674 525.543 956.088 525.152 955.597 524.657C955.3 524.32 955.093 523.913 954.996 523.475C954.922 523.024 954.922 522.564 954.996 522.114C955.054 521.51 955.208 520.92 955.451 520.364L955.456 520.089ZM953.544 511.603C953.617 511.783 953.629 511.981 953.58 512.168C953.53 512.355 953.42 512.521 953.268 512.64C949.466 515.555 945.337 518.017 940.964 519.977C936.573 522.009 931.989 523.599 927.282 524.721C922.44 525.913 917.445 526.372 912.466 526.082C912.127 526.1 911.788 526.062 911.461 525.968C911.224 526.231 911.007 526.513 910.813 526.81C910.086 527.833 909.538 528.972 909.192 530.178C908.593 532.446 908.804 534.852 909.791 536.98C910.725 538.962 912.317 540.559 914.298 541.499C915.256 541.955 916.288 542.235 917.346 542.325C918.667 542.455 919.995 542.503 921.322 542.471C924.04 542.408 926.749 542.142 929.428 541.676C932.167 541.255 934.891 540.673 937.63 540.057C943.212 538.64 948.714 536.923 954.111 534.914V534.914C954.221 534.873 954.337 534.855 954.454 534.859C954.571 534.863 954.686 534.89 954.793 534.939C954.899 534.987 954.995 535.056 955.075 535.142C955.155 535.227 955.217 535.328 955.257 535.437V535.449C955.316 535.613 955.325 535.791 955.285 535.96C955.245 536.129 955.157 536.284 955.031 536.404C953.912 537.441 952.745 538.428 951.561 539.4C950.359 540.349 949.085 541.204 947.752 541.958C945.129 543.541 942.381 544.906 939.535 546.04C936.66 547.188 933.688 548.077 930.655 548.696C927.56 549.326 924.411 549.651 921.253 549.667C919.626 549.652 918.002 549.539 916.389 549.328H916.178C916.082 549.554 915.984 549.781 915.903 550.023C915.536 551.025 915.302 552.071 915.206 553.133C915.007 555.066 915.285 557.017 916.017 558.817C916.362 559.683 916.819 560.5 917.378 561.247C917.927 562.044 918.557 562.782 919.258 563.449C920.01 564.18 920.836 564.832 921.722 565.393C922.241 565.727 922.783 566.024 923.343 566.282C923.956 566.595 924.552 566.941 925.127 567.319V567.319C925.342 567.461 925.491 567.682 925.543 567.934C925.594 568.186 925.544 568.448 925.403 568.663C925.288 568.829 925.123 568.954 924.932 569.019C924.241 569.276 923.533 569.481 922.812 569.635C922.062 569.804 921.294 569.88 920.525 569.861C918.881 569.815 917.266 569.412 915.793 568.68C912.744 567.142 910.417 564.475 909.308 561.247C908.177 558.092 908.258 554.629 909.536 551.53C910.072 550.226 910.841 549.03 911.805 548L910.994 547.595C907.722 545.75 905.272 542.735 904.138 539.157C903.041 535.705 903.32 531.963 904.916 528.711C905.593 527.377 906.486 526.162 907.557 525.116C906.24 524.582 905.007 523.863 903.894 522.979C901.509 521.066 899.744 518.491 898.82 515.578C898.133 513.411 897.947 511.116 898.276 508.867C898.604 506.617 899.439 504.471 900.717 502.59C901.135 501.965 901.595 501.37 902.095 500.808C902.613 500.306 903.197 499.708 903.635 499.335C905.544 497.702 907.589 496.234 909.746 494.947C911.848 493.713 914.012 492.588 916.23 491.578C920.629 489.597 925.211 488.052 929.912 486.963C934.554 485.825 939.302 485.174 944.079 485.019C944.369 485.014 944.649 485.124 944.858 485.324C945.068 485.524 945.19 485.798 945.198 486.088C945.205 486.338 945.124 486.583 944.971 486.781C944.817 486.979 944.6 487.117 944.355 487.173C939.886 488.222 935.489 489.558 931.192 491.173C929.071 491.999 926.93 492.793 924.87 493.764C922.81 494.736 920.801 495.724 918.84 496.792C914.956 498.845 911.341 501.369 908.076 504.306C907.639 504.696 907.444 504.968 907.136 505.278C906.878 505.61 906.64 505.956 906.422 506.315C905.978 507.013 905.649 507.779 905.45 508.582C905.232 509.378 905.134 510.202 905.158 511.027C905.178 511.843 905.32 512.651 905.58 513.424C906.096 514.987 907.056 516.368 908.342 517.397C909.629 518.426 911.186 519.06 912.827 519.222C917.154 519.586 921.51 519.408 925.794 518.692C930.266 518.04 934.687 517.071 939.022 515.794C943.447 514.516 947.803 513.008 952.071 511.276C952.175 511.156 952.31 511.066 952.46 511.016C952.611 510.965 952.773 510.956 952.928 510.989C953.084 511.022 953.227 511.096 953.345 511.203C953.462 511.311 953.548 511.447 953.594 511.599L953.544 511.603ZM952.408 505.417C952.326 505.381 952.253 505.326 952.197 505.256V505.256C951.361 504.238 950.668 503.11 950.139 501.903C949.661 500.812 949.265 499.686 948.955 498.535C948.632 497.417 948.323 496.268 948.065 495.086C947.797 493.857 947.602 492.613 947.48 491.361V491.263C947.467 491.058 947.534 490.855 947.667 490.698C947.8 490.541 947.989 490.442 948.193 490.421C948.366 490.405 948.539 490.452 948.68 490.554C949.856 491.321 950.865 492.318 951.647 493.485C952.419 494.594 953.035 495.804 953.479 497.08C953.956 498.345 954.219 499.68 954.257 501.031C954.31 502.45 954.009 503.861 953.381 505.135C953.338 505.215 953.281 505.285 953.211 505.342C953.141 505.399 953.061 505.441 952.975 505.467C952.888 505.493 952.798 505.501 952.708 505.492C952.619 505.482 952.532 505.455 952.453 505.412V505.412L952.408 505.417ZM911.883 510.956C910.715 505.903 919.875 500.544 921.982 508.543C923.944 516.154 913.147 516.559 911.867 510.94L911.883 510.956ZM987.471 467.506C987.443 467.591 987.397 467.669 987.338 467.736C987.279 467.803 987.208 467.858 987.128 467.898C987.047 467.937 986.96 467.96 986.871 467.966C986.781 467.972 986.692 467.96 986.607 467.931H986.596C986.494 467.904 986.402 467.848 986.331 467.769C985.336 466.734 984.52 465.542 983.917 464.239C983.351 463.037 982.9 461.785 982.57 460.498C982.22 459.214 981.945 457.911 981.744 456.596C981.536 455.224 981.46 453.835 981.516 452.449V452.449C981.525 452.243 981.614 452.049 981.766 451.909C981.918 451.769 982.119 451.695 982.325 451.703H982.343C982.529 451.718 982.705 451.792 982.846 451.914C983.874 452.925 984.748 454.082 985.439 455.347C986.095 456.563 986.638 457.837 987.06 459.152C987.518 460.46 987.807 461.821 987.92 463.201C988.057 464.649 987.897 466.109 987.45 467.493L987.471 467.506Z" fill="#B39370"/>
<path d="M886.432 429.547L887.113 429.433L886.432 429.547Z" fill="#B39370"/>
<path d="M883.142 430.259L884.634 429.919L883.142 430.259Z" fill="#B39370"/>
<path d="M952.441 511.071C948.173 512.803 943.817 514.311 939.392 515.588C935.057 516.866 930.637 517.834 926.165 518.487C921.881 519.202 917.524 519.38 913.196 519.016C911.556 518.855 909.998 518.221 908.712 517.192C907.426 516.162 906.466 514.782 905.951 513.218C905.69 512.445 905.548 511.637 905.529 510.822C905.504 509.997 905.602 509.172 905.821 508.376C906.02 507.573 906.348 506.807 906.794 506.11C907.01 505.75 907.248 505.404 907.507 505.073C907.814 504.766 908.009 504.49 908.446 504.101C911.711 501.163 915.326 498.639 919.211 496.587C921.171 495.519 923.187 494.498 925.24 493.559C927.293 492.62 929.438 491.794 931.563 490.968C935.859 489.352 940.256 488.016 944.725 486.968C944.969 486.912 945.187 486.773 945.34 486.575C945.494 486.377 945.574 486.133 945.568 485.882C945.56 485.593 945.437 485.318 945.228 485.118C945.019 484.918 944.739 484.809 944.449 484.814C939.672 484.969 934.924 485.62 930.281 486.757C925.581 487.846 920.999 489.392 916.6 491.373C914.382 492.383 912.218 493.508 910.116 494.741C907.958 496.028 905.914 497.496 904.005 499.129C903.568 499.503 902.983 500.101 902.465 500.603C901.965 501.164 901.504 501.76 901.087 502.385C900.23 503.63 899.574 505.002 899.142 506.45C898.697 507.891 898.484 509.394 898.509 510.903C898.5 512.419 898.73 513.927 899.19 515.373C900.114 518.286 901.879 520.861 904.264 522.774C905.377 523.657 906.611 524.377 907.928 524.911C906.856 525.957 905.963 527.171 905.285 528.506C903.691 531.758 903.412 535.499 904.507 538.951C905.642 542.53 908.092 545.545 911.365 547.389L912.175 547.795C911.211 548.825 910.442 550.021 909.905 551.324C908.628 554.424 908.547 557.886 909.679 561.042C910.788 564.269 913.114 566.936 916.162 568.475C917.636 569.207 919.251 569.61 920.895 569.656C921.664 569.675 922.432 569.599 923.181 569.429C923.902 569.276 924.611 569.07 925.302 568.814C925.493 568.749 925.659 568.624 925.773 568.458C925.914 568.243 925.964 567.981 925.913 567.729C925.861 567.477 925.711 567.256 925.497 567.114V567.114C924.922 566.736 924.327 566.39 923.714 566.077C923.154 565.819 922.612 565.521 922.093 565.187C921.207 564.626 920.381 563.974 919.628 563.244C918.927 562.576 918.297 561.839 917.749 561.042C917.19 560.295 916.731 559.478 916.386 558.612C915.655 556.812 915.377 554.86 915.577 552.928C915.672 551.865 915.906 550.82 916.274 549.818C916.32 549.571 916.413 549.335 916.548 549.123H916.759C918.372 549.333 919.996 549.447 921.623 549.462C924.781 549.445 927.93 549.12 931.025 548.491C934.058 547.871 937.03 546.982 939.905 545.835C942.751 544.701 945.499 543.335 948.122 541.753C949.438 540.972 950.711 540.118 951.932 539.195C953.139 538.257 954.297 537.256 955.401 536.199C955.526 536.078 955.615 535.924 955.655 535.755C955.695 535.585 955.685 535.408 955.627 535.244C955.547 535.021 955.383 534.84 955.169 534.739C954.955 534.638 954.71 534.626 954.487 534.705H954.477C949.078 536.716 943.575 538.435 937.991 539.854C935.293 540.566 932.554 541.106 929.788 541.474C927.11 541.939 924.401 542.205 921.684 542.268C920.357 542.3 919.029 542.252 917.708 542.122C916.65 542.033 915.617 541.753 914.66 541.296C912.679 540.356 911.086 538.759 910.153 536.777C909.166 534.649 908.954 532.243 909.554 529.976C909.901 528.77 910.449 527.631 911.175 526.607C911.369 526.31 911.586 526.029 911.823 525.765C912.164 525.765 912.486 525.863 912.829 525.879C917.808 526.169 922.803 525.71 927.645 524.518C932.353 523.396 936.936 521.806 941.327 519.774C945.699 517.815 949.828 515.352 953.63 512.437C953.787 512.299 953.892 512.111 953.929 511.905C953.966 511.699 953.931 511.487 953.832 511.303C953.733 511.119 953.574 510.974 953.381 510.891C953.189 510.809 952.974 510.794 952.772 510.848C952.647 510.897 952.534 510.973 952.441 511.071V511.071Z" fill="#5E3F26"/>
<path d="M921.966 508.527C919.859 500.527 910.701 505.888 911.867 510.941C913.147 516.56 923.943 516.155 921.966 508.527Z" fill="#5E3F26"/>
<path d="M927.185 532.122C925.078 524.123 915.838 529.482 917.07 534.535C918.384 540.219 929.212 539.766 927.185 532.122Z" fill="#5E3F26"/>
<path d="M922.971 558.407C924.267 564.026 935.096 563.621 933.086 555.993C930.978 547.993 921.82 553.354 922.971 558.407Z" fill="#5E3F26"/>
<path d="M953.482 497.048C953.038 495.771 952.421 494.561 951.65 493.451C950.869 492.285 949.859 491.288 948.683 490.521C948.542 490.419 948.369 490.372 948.196 490.389C947.991 490.41 947.803 490.509 947.67 490.666C947.537 490.823 947.47 491.026 947.483 491.231V491.328C947.605 492.58 947.8 493.823 948.068 495.052C948.326 496.235 948.635 497.385 948.958 498.501C949.268 499.653 949.664 500.779 950.142 501.871C950.67 503.078 951.363 504.205 952.2 505.222V505.222C952.256 505.293 952.328 505.349 952.411 505.385C952.571 505.467 952.758 505.482 952.93 505.427C953.102 505.372 953.245 505.251 953.328 505.091L953.336 505.077C953.962 503.804 954.262 502.397 954.211 500.98C954.186 499.638 953.94 498.309 953.482 497.048Z" fill="#5E3F26"/>
<path d="M987.164 459.101C986.74 457.786 986.197 456.513 985.543 455.296C984.85 454.031 983.977 452.874 982.949 451.862C982.808 451.74 982.632 451.667 982.447 451.652C982.345 451.645 982.242 451.659 982.146 451.692C982.049 451.725 981.96 451.777 981.883 451.844C981.806 451.912 981.744 451.994 981.699 452.086C981.654 452.177 981.627 452.277 981.621 452.379V452.397C981.564 453.783 981.64 455.172 981.848 456.543C982.048 457.859 982.324 459.162 982.675 460.446C983.004 461.733 983.454 462.985 984.02 464.187C984.623 465.489 985.439 466.682 986.435 467.717V467.717C986.506 467.795 986.598 467.851 986.7 467.879C986.87 467.94 987.057 467.931 987.22 467.854C987.383 467.777 987.509 467.639 987.57 467.469V467.458C988.034 466.061 988.205 464.584 988.073 463.118C987.94 461.746 987.634 460.397 987.164 459.101Z" fill="#5E3F26"/>
<path d="M947.35 530.293C947.843 531.206 948.497 532.024 949.28 532.705V532.705C949.451 532.82 949.659 532.863 949.862 532.827C950.064 532.791 950.244 532.678 950.365 532.512C951.008 531.553 951.358 530.427 951.371 529.272C951.395 528.239 951.219 527.211 950.852 526.244C950.495 525.269 949.986 524.357 949.345 523.54C948.68 522.653 947.818 521.932 946.827 521.435C946.726 521.41 946.62 521.41 946.519 521.435C946.305 521.418 946.093 521.486 945.929 521.624C945.764 521.763 945.662 521.961 945.644 522.175V522.406C945.593 523.375 945.642 524.346 945.79 525.305C945.914 526.168 946.091 527.023 946.32 527.863C946.57 528.71 946.915 529.525 947.35 530.293Z" fill="#5E3F26"/>
<path d="M955.002 523.442C955.099 523.881 955.306 524.287 955.602 524.625C956.093 525.12 956.679 525.511 957.325 525.774V525.774C957.507 525.855 957.708 525.884 957.905 525.858C958.102 525.832 958.289 525.753 958.444 525.628C959.063 525.162 959.495 524.49 959.661 523.733C959.781 523.141 959.719 522.525 959.482 521.969C959.253 521.395 958.899 520.881 958.444 520.463C957.908 519.969 957.246 519.633 956.531 519.491C956.315 519.454 956.093 519.489 955.9 519.592C955.706 519.694 955.552 519.858 955.462 520.058L955.348 520.323C955.105 520.878 954.952 521.468 954.895 522.072C954.854 522.531 954.89 522.995 955.002 523.442V523.442Z" fill="#5E3F26"/>
<path d="M946.637 471.425C946.88 472.348 947.217 473.243 947.643 474.097C948.137 475.085 948.801 475.978 949.604 476.737V476.737L949.717 476.818C949.885 476.922 950.088 476.957 950.281 476.915C950.475 476.872 950.645 476.756 950.754 476.591C951.388 475.57 951.725 474.392 951.727 473.19C951.737 472.084 951.539 470.985 951.144 469.951C950.753 468.899 950.207 467.91 949.522 467.02C948.828 466.068 947.932 465.282 946.896 464.72C946.789 464.654 946.666 464.621 946.54 464.623C946.33 464.615 946.125 464.691 945.97 464.833C945.815 464.975 945.723 465.173 945.714 465.383V465.53C945.708 466.567 945.796 467.603 945.979 468.623C946.09 469.579 946.31 470.52 946.637 471.425V471.425Z" fill="#5E3F26"/>
<path d="M938.273 475.119C938.742 475.569 939.292 475.926 939.894 476.171V476.171C940.078 476.246 940.278 476.27 940.475 476.242C940.671 476.214 940.857 476.133 941.012 476.01C941.631 475.583 942.07 474.942 942.245 474.212C942.377 473.634 942.314 473.029 942.066 472.49C941.851 471.945 941.513 471.458 941.077 471.066C940.544 470.602 939.893 470.294 939.197 470.175C938.984 470.133 938.763 470.165 938.57 470.265C938.377 470.365 938.224 470.527 938.136 470.725L938.004 471.001C937.755 471.512 937.585 472.058 937.501 472.62C937.427 473.049 937.427 473.488 937.501 473.916C937.627 474.388 937.896 474.808 938.273 475.119V475.119Z" fill="#5E3F26"/>
<path d="M954.549 546.131L954.435 546.389C954.195 546.946 954.037 547.535 953.965 548.138C953.917 548.593 953.944 549.053 954.046 549.499C954.139 549.944 954.345 550.356 954.645 550.697C955.132 551.194 955.719 551.581 956.368 551.831V551.831C956.55 551.911 956.751 551.94 956.948 551.914C957.145 551.889 957.332 551.809 957.487 551.685C958.102 551.223 958.533 550.557 958.702 549.806C958.827 549.207 958.759 548.584 958.507 548.025C958.291 547.45 957.942 546.933 957.487 546.519C956.953 546.025 956.29 545.694 955.574 545.564C955.364 545.528 955.149 545.565 954.962 545.668C954.776 545.771 954.63 545.934 954.549 546.131Z" fill="#5E3F26"/>
<path d="M877.452 494.664C877.064 493.34 876.577 492.073 876.156 490.761L874.842 486.777C874.373 485.417 873.934 483.996 873.335 482.566C873.299 482.475 873.245 482.391 873.175 482.322C873.105 482.252 873.022 482.197 872.93 482.161C872.744 482.081 872.535 482.078 872.347 482.153C872.159 482.227 872.008 482.373 871.928 482.558V482.566C871.323 484.114 871.015 485.762 871.02 487.424C870.998 489.066 871.211 490.702 871.652 492.283C872.074 493.892 872.793 495.408 873.773 496.753C874.763 498.15 876.129 499.239 877.712 499.894C877.823 499.926 877.941 499.926 878.052 499.894C878.139 499.881 878.221 499.85 878.296 499.805C878.37 499.759 878.435 499.699 878.486 499.629C878.537 499.558 878.574 499.478 878.594 499.393C878.614 499.308 878.618 499.22 878.604 499.134V499.134C878.306 497.623 877.921 496.131 877.452 494.664V494.664Z" fill="#5E3F26"/>
<path d="M883.58 436.235C890.922 434 887.424 429.498 887.34 429.402H887.129L886.449 429.514L884.65 429.888L883.159 430.228C880.796 430.772 878.486 431.52 876.252 432.461C876.236 432.786 876.317 438.454 883.58 436.235Z" fill="#5E3F26"/>
<path d="M849.118 455.669C849.664 456.462 850.318 457.175 851.062 457.787C851.738 458.338 852.459 458.831 853.218 459.261C853.968 459.696 854.776 460.023 855.617 460.232C856.611 460.447 857.639 460.447 858.632 460.232V460.232C858.836 460.182 859.012 460.054 859.121 459.875C859.23 459.695 859.264 459.48 859.216 459.277C858.941 458.231 858.379 457.284 857.595 456.54C856.922 455.855 856.124 455.305 855.245 454.92C854.387 454.518 853.475 454.245 852.537 454.11C851.531 453.937 850.501 453.964 849.506 454.191C849.401 454.215 849.302 454.26 849.215 454.323C849.029 454.451 848.902 454.647 848.859 454.868C848.817 455.089 848.863 455.318 848.988 455.506L849.118 455.669Z" fill="#5E3F26"/>
<path d="M855.083 449.175C855.215 449.755 855.457 450.305 855.796 450.794C856.037 451.163 856.358 451.474 856.736 451.701C857.086 451.939 857.505 452.059 857.928 452.042C858.592 451.985 859.232 451.768 859.793 451.41C859.963 451.311 860.106 451.172 860.21 451.006C860.315 450.839 860.377 450.65 860.392 450.454C860.484 449.744 860.33 449.024 859.955 448.414C859.682 447.989 859.278 447.664 858.804 447.487C858.333 447.29 857.822 447.206 857.312 447.243C856.672 447.291 856.054 447.497 855.514 447.843C855.309 447.967 855.15 448.154 855.059 448.375C854.969 448.597 854.952 448.841 855.011 449.073L855.083 449.175Z" fill="#5E3F26"/>
<path d="M686.625 313.837C684.511 313.779 682.397 313.947 680.319 314.339C678.105 314.744 675.981 315.539 674.046 316.688C673.904 316.781 673.782 316.902 673.689 317.044C673.557 317.282 673.522 317.561 673.592 317.824C673.661 318.086 673.829 318.312 674.062 318.453C676.032 319.553 678.185 320.288 680.417 320.623C682.507 320.951 684.626 321.055 686.739 320.932C687.883 320.904 689.024 320.812 690.158 320.656C690.425 318.474 690.577 316.279 690.613 314.081C689.283 313.951 687.954 313.855 686.625 313.837Z" fill="#5E3F26"/>
<path d="M578.924 340.445C575.682 340.008 572.44 339.57 569.084 339.231C565.679 338.83 562.252 338.646 558.824 338.68V338.68C558.689 338.687 558.557 338.722 558.437 338.783C558.316 338.845 558.211 338.931 558.126 339.037C557.977 339.23 557.91 339.475 557.94 339.717C557.971 339.96 558.096 340.18 558.288 340.331V340.331C559.694 341.477 561.222 342.466 562.843 343.279C563.639 343.684 564.464 344.073 565.275 344.429C566.086 344.786 566.896 345.061 567.771 345.356C569.46 345.924 571.181 346.389 572.927 346.749C574.661 347.072 576.411 347.348 578.179 347.51H578.535C579.065 345.173 579.747 342.873 580.578 340.625L578.924 340.445Z" fill="#5E3F26"/>
<path d="M689.473 225.692C688.776 225.692 688.079 225.578 687.381 225.559C685.782 225.502 684.183 225.671 682.631 226.061C680.905 226.496 679.295 227.304 677.914 228.426V228.426C677.847 228.477 677.787 228.537 677.736 228.605C677.547 228.833 677.457 229.127 677.486 229.422C677.514 229.717 677.658 229.989 677.887 230.178L677.946 230.224C679.385 231.3 681.047 232.042 682.81 232.394C684.407 232.734 686.045 232.843 687.673 232.717C688.391 232.689 689.106 232.614 689.813 232.491H689.208C689.208 230.209 689.348 227.976 689.473 225.692Z" fill="#5E3F26"/>
<path d="M579.406 192.265C579.155 191.913 579.032 191.486 579.057 191.054C579.081 190.622 579.252 190.212 579.541 189.89C579.83 189.568 580.22 189.354 580.646 189.283C581.073 189.211 581.512 189.287 581.89 189.498C584.026 190.728 586.259 191.782 588.567 192.649C592.507 194.149 596.718 194.808 600.928 194.586C605.261 194.226 609.516 193.221 613.552 191.606C615.883 190.752 618.205 189.727 620.598 188.646C620.993 188.468 621.438 188.429 621.859 188.536C622.279 188.643 622.651 188.891 622.912 189.237C623.174 189.584 623.309 190.009 623.296 190.443C623.283 190.876 623.123 191.292 622.841 191.623C620.986 193.736 618.878 195.614 616.566 197.214C615.481 197.977 614.346 198.666 613.168 199.275C611.98 199.916 610.749 200.473 609.483 200.942C606.881 201.896 604.157 202.475 601.392 202.663C595.77 202.976 590.202 201.419 585.561 198.234C583.191 196.6 581.111 194.582 579.406 192.265Z" fill="#5E3F26"/>
<path d="M690.499 194.226C690.467 196.742 690.418 199.457 690.337 202.371C689.478 202.517 688.613 202.615 687.743 202.664C682.119 202.982 676.549 201.426 671.905 198.242C669.535 196.604 667.453 194.585 665.745 192.266C665.496 191.914 665.374 191.487 665.399 191.057C665.424 190.626 665.595 190.217 665.883 189.896C666.171 189.574 666.559 189.36 666.985 189.288C667.411 189.215 667.848 189.289 668.226 189.498C670.366 190.724 672.599 191.78 674.905 192.656C678.847 194.153 683.061 194.809 687.273 194.582C688.342 194.517 689.413 194.389 690.499 194.226Z" fill="#5E3F26"/>
<path d="M544.437 191.642C544.303 190.487 543.956 189.366 543.412 188.336C543.213 187.894 542.886 187.521 542.472 187.264C542.058 187.008 541.577 186.88 541.09 186.896C540.036 187.084 539.26 188.312 538.705 189.54C537.733 191.726 537.111 194.05 536.862 196.426C536.599 198.278 536.735 200.164 537.263 201.958C538.472 205.503 541.76 205.976 543.534 202.881C545.127 200.105 544.935 194.828 544.437 191.642Z" fill="#171C22"/>
<path fill-rule="evenodd" clip-rule="evenodd" d="M468.118 71.4903C465.934 69.3301 464.403 66.6065 463.697 63.6275C462.991 60.6485 463.138 57.5328 464.122 54.6325C466.633 47.702 474.113 43.2221 482.102 44.2203C481.523 35.438 486.458 27.4162 494.089 24.3866C503.457 20.6671 511.955 26.4348 512.569 26.8663C514.366 23.4303 516.838 20.3871 519.841 17.9168C522.843 15.4465 526.315 13.5993 530.049 12.4845C542.642 8.90597 552.679 15.5329 554.023 16.4512C555.295 12.0598 557.871 8.1508 561.414 5.23409C564.958 2.31738 569.304 0.528271 573.887 0.100065C578.47 -0.328142 583.076 0.624426 587.106 2.83355C591.135 5.04268 594.4 8.40584 596.476 12.4845C597.925 9.00318 600.406 6.04158 603.59 3.99262C606.774 1.94367 610.51 0.904226 614.303 1.01221C618.096 1.1202 621.766 2.37051 624.827 4.59725C627.887 6.824 630.193 9.9219 631.439 13.4799C636.94 5.60568 646.925 2.41724 655.411 5.54928C658.997 6.94046 662.117 9.30543 664.413 12.3738C666.71 15.4422 668.09 19.0901 668.396 22.9005C676.176 13.1697 689.238 10.6252 698.363 15.9587C705.007 19.8418 708.919 27.5205 708.851 35.7924C710.444 35.7717 719.249 35.7924 723.836 41.7425C729.335 48.8732 727.216 62.5068 715.844 71.4912C716.684 71.5617 725.06 72.3682 727.831 77.9367C730.85 84.0062 726.637 94.5744 715.344 99.2575C721.132 100.943 724.245 106.81 722.837 111.653C721.285 116.991 714.456 120.354 708.35 117.602C709.926 119.44 713.133 123.755 712.345 128.506C711.161 135.65 701.241 142.058 688.122 140.592C687.981 139.605 687.838 138.64 687.704 137.684C687.252 135.694 686.958 133.672 686.822 131.636C686.669 130.593 686.518 129.57 686.368 128.569C685.906 126.268 685.106 124.165 683.455 122.864C678.41 118.886 668.4 124.744 661.781 127.476C632.928 139.371 610.098 115.844 591.333 122.48C578.56 126.998 565.963 146.103 564.844 207.95C563.211 216.086 554.696 211.979 553.898 205.036C552.478 196.824 554.655 188.289 553.067 180.107C551.127 169.443 541.309 164.279 534.464 167.579C513.419 182.656 539.009 247.746 518.449 252.836C515.763 251.911 515.342 249.025 514.696 246.594C514.066 244.218 513.357 241.926 512.595 239.7C509.026 240.546 502.325 237.34 500.576 232.632C498.924 228.185 502.126 223.221 503.573 221.228C496.697 223.883 489.267 220.931 486.591 215.278C484.524 210.912 485.508 205.386 489.088 201.395C483.893 203.106 478.417 201.853 475.604 198.42C471.734 193.701 472.909 184.87 479.934 180.194L479.906 180.12C475.245 181.269 470.51 180.12 468.112 177.101C464.609 172.701 465.95 164.177 473.106 159.747C472.589 159.669 464.38 158.322 461.619 151.814C458.897 145.399 462.5 136.398 471.108 132.478C462.038 131.193 456.065 123.939 456.621 117.106C457.177 110.273 464.038 106.504 464.612 106.202C456.017 104.792 449.53 98.4613 448.629 91.3277C447.462 81.9824 455.926 71.7864 468.118 71.4903Z" fill="#171C22"/>
<path d="M663.391 63.0764C663.542 63.1506 663.808 63.0247 664.149 62.7587C664.624 62.4021 665.127 62.084 665.654 61.8074C666.454 61.4089 667.312 61.1365 668.197 61C669.386 60.8242 670.594 60.8223 671.784 60.9943C672.475 61.0889 673.157 61.2385 673.824 61.4418C674.562 61.6581 675.283 61.9248 675.984 62.2398C677.471 62.8914 678.823 63.8126 679.969 64.9564C680.543 65.5392 681.035 66.1955 681.434 66.9078C681.813 67.6162 682.073 68.3809 682.205 69.1722C682.345 69.9891 682.349 70.8235 682.215 71.6415C682.169 71.8399 682.133 72.042 682.08 72.2366L681.985 72.5449C681.942 72.6954 681.884 72.8417 681.814 72.982L681.568 73.3852L681.075 74.1955C680.874 74.4775 680.488 74.8168 680.203 75.1261L678.187 77.1884L676.222 79.2L683.061 78.7901C683.658 78.7441 684.216 78.7413 684.773 78.7356C685.329 78.73 685.909 78.7074 686.409 78.7441C686.905 78.7572 687.38 78.8024 687.854 78.8381C689.482 78.932 691.058 79.4473 692.423 80.3327C692.935 80.7207 693.366 81.2045 693.69 81.7567C693.984 82.3024 694.168 82.8998 694.232 83.5155C694.331 84.8 694.107 86.0889 693.58 87.266C693.093 88.3407 692.466 89.3467 691.713 90.258C691.031 91.1152 690.363 91.839 689.82 92.4481C688.722 93.6645 688.15 94.4475 688.353 94.7154C688.555 94.9833 689.474 94.7154 690.982 93.907C691.913 93.401 692.795 92.812 693.618 92.1473C694.784 91.223 695.787 90.112 696.584 88.8602C697.628 87.2124 698.197 85.3117 698.229 83.3651C698.233 82.1862 697.991 81.0192 697.52 79.9369C696.991 78.785 696.221 77.7577 695.262 76.9224C693.303 75.3718 690.937 74.4112 688.445 74.1541C687.853 74.0827 687.254 74.0112 686.662 73.9793C686.62 73.9708 686.641 73.9661 686.632 73.9614C686.632 73.9575 686.633 73.9537 686.636 73.9504C686.638 73.9472 686.641 73.9448 686.645 73.9436V73.9436C686.64 73.9586 686.652 73.9069 686.634 73.9783L686.783 73.4726C686.878 73.1211 686.939 72.7677 687.006 72.4161C687.214 71.0456 687.178 69.6498 686.901 68.2914C686.638 66.981 686.149 65.7254 685.455 64.5804C684.806 63.5278 684.009 62.5724 683.088 61.7425C681.452 60.287 679.532 59.1812 677.448 58.494C676.538 58.1886 675.605 57.9551 674.658 57.7955C673.773 57.6399 672.876 57.5654 671.977 57.5728C670.424 57.5713 668.884 57.8503 667.432 58.3962C666.313 58.8181 665.302 59.478 664.468 60.3298C663.94 60.861 663.548 61.5092 663.322 62.221C663.212 62.7211 663.242 62.9974 663.391 63.0764Z" fill="#A2A2A2"/>
<path d="M499.762 166.583C499.738 166.464 499.513 166.379 499.122 166.325C498.731 166.27 498.167 166.218 497.459 166.106C495.474 165.829 493.578 165.109 491.914 164.001C490.791 163.255 489.82 162.306 489.048 161.205C488.183 159.934 487.61 158.49 487.37 156.975C487.087 155.285 487.22 153.552 487.756 151.924C488.009 151.117 488.395 150.356 488.899 149.674C489.158 149.36 489.447 149.07 489.761 148.809C489.919 148.686 490.083 148.571 490.253 148.464L490.481 148.324C490.621 148.258 490.77 148.213 490.923 148.191L491.397 148.081L491.633 148.025C491.734 148.025 491.717 147.931 492.023 148.094L492.949 146.872L493.256 146.488C493.313 146.416 493.332 146.401 493.371 146.355L493.473 146.239C493.52 146.189 493.571 146.143 493.627 146.102C493.647 146.102 493.679 146.082 493.665 146.129C493.662 146.183 493.67 146.238 493.69 146.288L493.697 146.314V146.327V146.333C493.223 146.189 497.851 147.584 495.89 146.991L495.623 146.848L495.086 146.562L494.003 145.984C493.725 145.876 493.869 145.813 493.899 145.738L494.034 145.517L494.309 145.073L494.83 144.281L493.969 143.672L493.539 143.367L493.192 143.051L491.789 141.78C491.668 141.672 491.557 141.574 491.443 141.452L491.265 141.241L491.001 140.929C490.818 140.725 490.647 140.511 490.489 140.287C490.153 139.851 489.841 139.396 489.555 138.926C489.265 138.455 489.001 137.969 488.763 137.47L488.419 136.718L488.135 135.942C487.952 135.421 487.805 134.89 487.693 134.35C487.577 133.814 487.494 133.271 487.446 132.725C487.409 132.182 487.409 131.636 487.446 131.092C487.487 130.337 487.621 129.589 487.844 128.866C488.066 128.165 488.368 127.493 488.744 126.861L489.371 125.938C489.621 125.656 489.85 125.364 490.103 125.092C490.621 124.56 491.188 124.075 491.795 123.646C492.391 123.23 493.028 122.877 493.697 122.59C494.335 122.31 495.004 122.107 495.691 121.985C496.017 121.913 496.35 121.874 496.684 121.865L497.107 121.846C497.322 121.848 497.537 121.862 497.75 121.888C498.202 121.965 498.746 122.184 499.235 122.322L500.731 122.792L502.462 123.45L505.611 124.654L505.291 124.008L505.134 123.688L504.92 123.286C504.633 122.75 504.349 122.217 504.068 121.688L502.389 118.527C501.855 117.512 501.361 116.472 501.005 115.624L500.666 114.806C500.579 114.568 500.476 114.336 500.402 114.096C499.748 112.383 499.451 110.556 499.528 108.726C499.611 107.167 500.093 105.655 500.927 104.331C501.605 103.252 502.61 102.414 503.797 101.937C504.817 101.582 505.912 101.495 506.976 101.685C507.796 101.828 508.577 102.137 509.271 102.594C509.721 102.9 510.134 103.257 510.502 103.657C510.752 103.951 510.951 104.106 511.07 104.068C511.189 104.029 511.227 103.795 511.165 103.338C511.016 102.678 510.705 102.065 510.26 101.552C509.539 100.71 508.612 100.066 507.567 99.6818C506.133 99.1425 504.574 99.0237 503.074 99.3396C501.182 99.7981 499.501 100.877 498.303 102.401C496.951 104.114 496.087 106.156 495.802 108.314C495.508 110.674 495.725 113.07 496.438 115.341C496.518 115.633 496.617 115.917 496.707 116.209L496.969 116.966C497.001 117.056 497.024 117.149 497.039 117.243L497.066 117.383C497.073 117.423 497.093 117.469 496.999 117.409C496.929 117.371 496.856 117.34 496.781 117.315L496.738 117.302C496.738 117.302 496.719 117.302 496.725 117.294C496.714 117.294 496.76 117.294 496.705 117.294H496.507C495.98 117.297 495.454 117.343 494.934 117.434C493.891 117.59 492.871 117.869 491.895 118.266C490.913 118.659 489.975 119.153 489.097 119.74C488.209 120.34 487.382 121.024 486.628 121.783C486.254 122.172 485.907 122.593 485.548 123.005C485.229 123.45 484.902 123.895 484.601 124.36C484.011 125.327 483.538 126.36 483.193 127.438C483.017 127.983 482.881 128.539 482.786 129.103C482.677 129.654 482.609 130.212 482.58 130.773C482.524 131.552 482.524 132.334 482.58 133.112C482.648 133.875 482.765 134.633 482.932 135.381C483.09 136.114 483.298 136.836 483.553 137.543L483.952 138.577L484.417 139.569C485.051 140.852 485.821 142.064 486.714 143.185C486.923 143.466 487.147 143.735 487.385 143.993C487.581 144.215 487.961 144.644 487.858 144.522L487.931 144.56L488.107 144.654C488.118 144.654 488.162 144.685 488.149 144.673C488.146 144.668 488.142 144.664 488.137 144.661C488.122 144.655 488.105 144.655 488.09 144.661C488.048 144.674 488.009 144.696 487.977 144.726L487.947 144.752L487.932 144.765C487.95 144.753 487.886 144.799 487.972 144.739L487.913 144.78L487.796 144.861C487.488 145.075 487.193 145.305 486.911 145.55C486.375 146.036 485.89 146.575 485.464 147.159C484.709 148.261 484.153 149.486 483.822 150.778C483.214 153.05 483.192 155.438 483.757 157.721C484.238 159.722 485.182 161.585 486.514 163.161C487.642 164.471 489.027 165.538 490.585 166.298C492.702 167.375 495.096 167.797 497.457 167.509C498.067 167.439 498.664 167.281 499.228 167.039C499.611 166.851 499.787 166.703 499.762 166.583Z" fill="#A2A2A2"/>
<path d="M485.235 82.3555C485.355 82.3161 485.436 82.1412 485.487 81.8677C485.538 81.5942 485.582 81.2097 485.687 80.7547C485.8 80.2072 485.982 79.676 486.229 79.1737C486.548 78.515 486.968 77.9097 487.475 77.3793C488.077 76.7435 488.791 76.2212 489.581 75.8377C490.006 75.6333 490.454 75.4814 490.916 75.3855C491.426 75.2695 491.946 75.2065 492.469 75.1976C493.646 75.1864 494.816 75.3812 495.925 75.7728C496.247 75.8781 496.476 75.9712 496.872 76.1357L497.8 76.5577C498.121 76.7175 498.472 76.9337 498.811 77.1217C500.19 77.9517 501.727 78.9641 503.104 79.8129C503.046 78.574 502.988 77.3207 502.93 76.0529L502.904 75.0894L502.889 74.6035L502.882 74.36L502.911 74.172L503.029 73.4135L503.089 73.0309C503.098 72.9745 503.108 72.888 503.117 72.8551L503.144 72.7743C503.41 71.887 503.818 71.0476 504.351 70.288C504.621 69.8965 504.925 69.5297 505.261 69.192C505.589 68.8467 505.951 68.5347 506.342 68.2604C506.726 67.9827 507.136 67.7416 507.565 67.5404C507.777 67.437 508.002 67.3675 508.218 67.2725L508.899 67.077L509.505 66.9595L510.123 66.8918L510.747 66.8749L511.373 66.9069C511.787 66.9487 512.198 67.0165 512.604 67.1099C513.007 67.2074 513.403 67.3331 513.789 67.4859C514.171 67.6305 514.54 67.8053 514.893 68.0085C515.071 68.1004 515.243 68.2047 515.406 68.3206C515.644 68.4638 515.863 68.6359 516.058 68.8329L516.526 69.2587L516.758 69.4712C516.841 69.5652 516.93 69.693 517.014 69.8011L518.043 71.1603C518.699 72.0721 519.349 72.9754 519.993 73.8703C520.664 72.2385 521.302 70.5568 522.021 68.9824C522.197 68.5913 522.361 68.1787 522.543 67.8149C522.596 67.7028 522.659 67.5958 522.732 67.4953L522.806 67.3816L522.947 67.1616C523.122 66.8631 523.317 66.5776 523.533 66.3072C524.331 65.2399 525.279 64.2923 526.348 63.4938C527.312 62.7564 528.355 62.1283 529.459 61.6213C530.421 61.1834 531.423 60.8372 532.451 60.5873L533.141 60.4144L533.804 60.31C534.209 60.2292 534.618 60.1761 535.03 60.1512C535.806 60.0572 536.471 60.0704 537.033 60.044C537.594 60.0177 538.026 60.0544 538.346 59.9999C538.666 59.9453 538.855 59.8777 538.896 59.7545C538.938 59.6314 538.83 59.4725 538.57 59.2657C538.189 58.9802 537.771 58.7484 537.326 58.5767C536.62 58.2968 535.885 58.0957 535.133 57.977C534.66 57.8829 534.179 57.8292 533.696 57.8163L532.897 57.7749L532.054 57.8144C530.775 57.8833 529.508 58.1042 528.282 58.4724C526.836 58.9083 525.453 59.5289 524.169 60.3185C522.685 61.2095 521.353 62.3267 520.219 63.6291C518.592 65.6736 519.083 65.0645 518.911 65.197L518.861 65.0842L518.842 65.0438C518.86 65.0513 518.728 64.9367 518.68 64.8897C518.691 64.8803 518.354 64.6387 518.112 64.4638C517.858 64.2758 517.593 64.1026 517.319 63.945C516.775 63.612 516.205 63.3228 515.615 63.0802C515.018 62.8291 514.404 62.622 513.777 62.4607C513.137 62.3001 512.488 62.1838 511.832 62.1129L510.834 62.0424L509.817 62.0631L508.793 62.1693C508.453 62.2239 508.112 62.2972 507.771 62.3649C507.378 62.4589 506.988 62.5839 506.602 62.7042C506.224 62.8555 505.845 62.9918 505.487 63.1657C504.775 63.5045 504.097 63.9119 503.465 64.3821C502.848 64.8331 502.277 65.3435 501.761 65.9058C501.25 66.4466 500.789 67.0324 500.384 67.656C499.588 68.8634 499.003 70.1952 498.652 71.5955C498.558 71.9856 498.597 71.9555 498.598 72.0119L498.639 72.1868C498.624 72.2197 498.557 72.1924 498.484 72.1924C498.414 72.1852 498.345 72.172 498.277 72.1529C497.958 72.0589 497.476 71.8991 497.079 71.8098C495.468 71.3925 493.791 71.2853 492.139 71.494C491.369 71.5955 490.612 71.7819 489.883 72.0495C489.184 72.2985 488.521 72.6366 487.909 73.0553C486.857 73.7747 485.967 74.7029 485.295 75.7813C484.755 76.6372 484.389 77.5893 484.216 78.5843C484.082 79.3157 484.093 80.0661 484.249 80.7933C484.331 81.2431 484.51 81.6699 484.774 82.0444C484.958 82.2973 485.117 82.395 485.235 82.3555Z" fill="#A2A2A2"/>
<path d="M526.703 139.903C526.999 139.709 526.861 138.992 526.651 137.849C526.356 136.307 526.281 134.732 526.427 133.17C526.629 131.009 527.432 128.945 528.745 127.209C529.521 126.251 530.454 125.429 531.504 124.777C532.648 124.082 533.904 123.588 535.218 123.316C535.575 123.239 535.936 123.183 536.3 123.147C536.618 123.12 536.937 123.111 537.255 123.122C537.671 123.097 538.089 123.119 538.499 123.188L539.975 123.422L541.49 123.693L544.308 124.2C543.568 122.812 542.84 121.447 542.124 120.104L541.848 119.586L541.712 119.329L541.631 119.109L541.308 118.24L540.99 117.387C540.95 117.3 540.924 117.208 540.911 117.113L540.877 116.925C540.669 115.957 540.607 114.962 540.694 113.976C540.763 113.061 540.934 112.156 541.205 111.279C541.45 110.508 541.767 109.762 542.152 109.05C542.311 108.731 542.492 108.424 542.694 108.13C542.859 107.854 543.042 107.589 543.242 107.338C543.596 106.837 543.952 106.451 544.238 106.101C544.48 105.832 544.705 105.549 544.913 105.255C545.057 105.021 545.111 104.833 545.049 104.702C544.987 104.57 544.815 104.502 544.527 104.499C544.12 104.503 543.716 104.576 543.333 104.716C542.728 104.926 542.153 105.213 541.622 105.57C541.278 105.784 540.953 106.027 540.653 106.298C540.296 106.586 539.966 106.904 539.666 107.249C538.947 108.036 538.333 108.911 537.839 109.853C537.264 110.961 536.846 112.142 536.596 113.364C536.297 114.762 536.236 116.199 536.415 117.617L536.468 118.099L536.474 118.193C536.474 118.255 536.485 118.33 536.474 118.32C536.46 118.342 536.448 118.347 536.432 118.345C536.404 118.332 536.378 118.316 536.354 118.296C536.305 118.293 536.257 118.293 536.208 118.296C536.076 118.296 535.945 118.307 535.815 118.327C535.28 118.375 534.749 118.455 534.224 118.566C532.316 118.959 530.502 119.717 528.885 120.798C527.374 121.82 526.077 123.122 525.064 124.632C524.175 125.996 523.547 127.511 523.21 129.1C522.922 130.445 522.842 131.825 522.973 133.194C523.128 135.137 523.797 137.005 524.913 138.609C525.745 139.704 526.443 140.08 526.703 139.903Z" fill="#A2A2A2"/>
<path d="M589.483 48.4893C589.775 48.6895 590.394 48.2947 591.386 47.6771C592.717 46.8318 594.161 46.1764 595.676 45.7304C597.773 45.1124 600.002 45.0844 602.115 45.6496C603.299 46.0084 604.415 46.5623 605.415 47.288C606.49 48.0837 607.418 49.0573 608.16 50.1662C608.365 50.4667 608.553 50.7787 608.722 51.1005C608.866 51.3833 608.992 51.6742 609.101 51.9719C609.278 52.346 609.413 52.7385 609.502 53.1422L609.832 54.5898L610.142 56.0937C610.337 57.0337 610.528 57.9618 610.717 58.878L613.735 55.3436L614.113 54.8953L614.303 54.6753L614.478 54.5193L615.169 53.8989L615.85 53.2869C615.916 53.2181 615.993 53.1595 616.076 53.1131L616.238 53.0115C617.066 52.4599 617.973 52.0338 618.927 51.7473C619.809 51.4703 620.719 51.2916 621.64 51.2143C622.451 51.1537 623.267 51.1681 624.075 51.2575C624.433 51.285 624.788 51.3378 625.138 51.4154C625.458 51.4643 625.774 51.5347 626.085 51.626C626.683 51.7651 627.177 51.9512 627.611 52.0828C627.952 52.2056 628.3 52.3088 628.653 52.3921C628.923 52.4381 629.119 52.4165 629.221 52.3112C629.322 52.206 629.321 52.0217 629.221 51.7548C629.066 51.3806 628.847 51.0359 628.574 50.7358C628.153 50.2557 627.67 49.8322 627.138 49.4762C626.81 49.2385 626.461 49.03 626.096 48.853C625.694 48.6318 625.274 48.4462 624.84 48.2984C623.837 47.9286 622.791 47.6879 621.726 47.5822C620.476 47.4651 619.216 47.5195 617.98 47.7439C616.563 47.9864 615.196 48.463 613.936 49.1538L613.506 49.3813L613.417 49.4227C613.361 49.449 613.293 49.4828 613.297 49.4706C613.273 49.465 613.263 49.4556 613.26 49.4415C613.261 49.4095 613.266 49.3778 613.276 49.3475C613.291 49.3728 613.241 49.261 613.221 49.213C613.173 49.092 613.115 48.9751 613.047 48.8634C612.803 48.3885 612.531 47.9284 612.232 47.4854C611.154 45.8731 609.772 44.4841 608.16 43.3955C606.643 42.3841 604.943 41.673 603.154 41.3012C601.548 40.9892 599.898 40.9729 598.286 41.2532C596.922 41.4881 595.602 41.9281 594.371 42.5579C592.611 43.4228 591.113 44.7346 590.029 46.3602C589.313 47.5324 589.221 48.3182 589.483 48.4893Z" fill="#A2A2A2"/>
<path d="M998 700L0 739.532C0 739.532 4.80246 1087.5 119.651 1163C234.5 1238.5 998 1086.8 998 1086.8V700Z" fill="#171C22"/>
<path d="M302.975 986.362L305.903 1019.84L190.751 1029.91L175.604 856.783L214.402 853.389L226.621 993.042L302.975 986.362Z" fill="#ECECEC"/>
<path d="M365.464 1014.63L328.406 1017.87L316.909 886.461L353.967 883.219L365.464 1014.63ZM354.127 844.941C354.724 851.769 352.959 857.378 348.832 861.767C344.856 865.975 339.884 868.34 333.915 868.862C327.946 869.384 322.555 867.926 317.743 864.487C313.083 860.867 310.454 855.643 309.856 848.814C309.259 841.985 310.948 836.467 314.924 832.259C319.051 827.87 324.099 825.415 330.068 824.893C336.037 824.37 341.352 825.919 346.013 829.539C350.825 832.978 353.529 838.112 354.127 844.941Z" fill="#ECECEC"/>
<path d="M431.978 1008.81C422.065 992.893 411.738 974.161 400.998 952.612C390.423 931.048 380.088 907.45 369.993 881.817L409.289 878.379C411.516 884.729 414.042 891.641 416.868 899.114C419.845 906.405 422.836 913.864 425.842 921.488C429 928.932 432.06 936.217 435.022 943.342C438.15 950.452 441.137 956.904 443.983 962.697C445.614 956.512 447.353 949.647 449.199 942.101C451.045 934.556 452.793 926.85 454.444 918.986C456.246 910.941 457.897 903.076 459.397 895.393C461.048 887.528 462.418 880.276 463.508 873.635L501.81 870.284C496.319 897.281 490.156 922.323 483.321 945.41C476.651 968.482 469.817 988.715 462.818 1006.11L431.978 1008.81Z" fill="#ECECEC"/>
<path d="M517.876 936.093C516.856 924.434 517.708 914.122 520.432 905.157C523.307 896.011 527.392 888.269 532.685 881.932C537.978 875.595 544.224 870.601 551.423 866.951C558.788 863.286 566.45 861.105 574.409 860.408C592.979 858.784 608.156 863.246 619.939 873.795C631.707 884.178 638.56 900.445 640.498 922.596C640.688 924.761 640.816 927.183 640.883 929.862C640.936 932.375 640.967 934.638 640.976 936.651L556.912 944.006C558.411 951.595 562.508 957.362 569.202 961.308C575.896 965.253 584.549 966.762 595.161 965.833C601.959 965.239 608.54 964.076 614.904 962.344C621.42 960.431 626.67 958.378 630.655 956.183L638.274 985.977C636.372 987.15 633.806 988.381 630.578 989.671C627.349 990.96 623.691 992.119 619.604 993.148C615.698 994.329 611.445 995.373 606.846 996.278C602.247 997.184 597.627 997.84 592.984 998.246C581.212 999.276 570.779 998.427 561.685 995.698C552.757 992.955 545.129 988.839 538.801 983.351C532.625 977.682 527.763 970.807 524.216 962.726C520.834 954.631 518.721 945.753 517.876 936.093ZM603.678 914.237C603.236 911.087 602.386 908.057 601.129 905.146C600.037 902.22 598.395 899.679 596.201 897.521C594.173 895.349 591.602 893.644 588.486 892.406C585.536 891.154 581.906 890.716 577.595 891.094C573.449 891.456 569.95 892.518 567.097 894.278C564.229 895.871 561.902 897.921 560.116 900.427C558.331 902.932 556.996 905.818 556.112 909.084C555.38 912.169 554.903 915.316 554.682 918.524L603.678 914.237Z" fill="#ECECEC"/>
<path d="M727.445 985.476C716.653 986.252 707.763 985.855 700.776 984.285C693.954 982.7 688.386 980.166 684.071 976.683C679.908 973.02 676.84 968.505 674.867 963.14C673.045 957.593 671.828 951.322 671.216 944.327L658.561 799.678L695.094 790.44L707.618 933.59C707.91 936.921 708.421 939.897 709.151 942.518C709.882 945.14 710.99 947.308 712.477 949.024C714.13 950.726 716.333 952.044 719.088 952.977C721.843 953.911 725.474 954.349 729.979 954.29L727.445 985.476Z" fill="#ECECEC"/>
<path d="M855.67 839.326C850.424 865.294 844.707 889.709 838.52 912.571C832.334 935.434 825.343 957.695 817.548 979.355C814.721 987.154 811.793 993.788 808.763 999.256C805.747 1004.89 802.312 1009.55 798.459 1013.25C794.62 1017.11 790.113 1020.02 784.938 1021.98C779.944 1024.1 773.965 1025.46 767.001 1026.07C761.197 1026.58 755.758 1026.47 750.682 1025.73C745.786 1025.16 741.704 1024.34 738.437 1023.28L742.303 992.987C746.233 993.985 749.712 994.604 752.741 994.843C755.769 995.081 758.941 995.055 762.257 994.765C768.889 994.185 773.786 991.91 776.948 987.942C780.289 984.125 782.927 978.943 784.86 972.397C774.947 956.482 764.859 938.568 754.596 918.655C744.318 898.576 734.32 875.955 724.6 850.793L763.896 847.355C766.122 853.705 768.648 860.617 771.474 868.09C774.451 875.381 777.526 882.832 780.698 890.443C783.855 897.886 786.998 905.164 790.126 912.274C793.42 919.37 796.49 925.815 799.336 931.607C800.967 925.423 802.622 918.565 804.302 911.034C805.983 903.503 807.565 895.812 809.05 887.962C810.687 879.931 812.172 872.081 813.506 864.412C814.991 856.562 816.279 849.317 817.369 842.677L855.67 839.326Z" fill="#ECECEC"/>
</svg>
