<svg width="435" height="350" viewBox="0 0 435 350" fill="none" xmlns="http://www.w3.org/2000/svg">
<path fill-rule="evenodd" clip-rule="evenodd" d="M229.785 173.089C228.076 175.989 226.367 178.888 224.658 181.788L208.845 208.613C207.636 210.665 207.064 212.71 206.333 215.007L202.312 227.644C200.315 226.616 198.318 225.587 196.321 224.558C194.405 223.571 190.957 222.586 189.454 221.02C188.127 219.639 187.473 216.396 186.75 214.641C184.651 209.551 182.552 204.46 180.453 199.369C177.273 191.656 174.093 183.942 170.914 176.229C180.464 177.145 190.014 178.061 199.565 178.977C209.638 177.014 219.712 175.052 229.785 173.089ZM214.086 91.8455C214.501 94.8276 214.915 97.8097 215.329 100.792C215.61 102.817 215.459 105.071 216.712 106.665C219.746 110.53 224.799 113.203 226.061 118.076L227.379 123.155C227.547 123.805 228.424 125.666 228.194 126.299C227.809 127.353 224.122 128.712 223.166 129.22C219.541 131.141 215.792 133.005 211.858 134.204C207.774 135.449 204.481 134.943 200.785 132.733C198.428 131.324 194.359 128.933 192.976 126.428C192.024 124.704 192.076 121.666 191.715 119.712H181.635C179.582 119.712 176.112 119.023 174.471 120.169C173.481 120.86 172.647 122.331 171.835 123.227C170.532 124.666 169.181 126.064 167.77 127.398C164.781 130.229 161.385 133.144 157.471 134.593C152.74 136.345 148.288 133.887 144.593 130.903C142.906 129.539 139.02 126.463 138.817 124.131C138.608 121.727 140.723 118.882 142.394 117.429C145.404 114.812 148.978 112.789 152.437 110.835C157.81 107.8 163.344 105.021 168.951 102.442C169.834 104.739 170.717 107.035 171.601 109.332C172.228 110.963 172.856 112.595 173.483 114.226C173.796 115.04 174.091 116.787 174.707 117.408C175.427 118.134 177.297 117.75 178.417 117.75H187.881C189.069 117.75 191.808 118.282 192.9 117.74C193.755 117.315 194.688 115.555 195.278 114.833C201.547 107.171 207.817 99.5083 214.086 91.8455Z" fill="#E24444"/>
<path fill-rule="evenodd" clip-rule="evenodd" d="M424.047 157.337C423.001 155.882 421.834 155.326 421.384 157.442C420.891 159.761 421.408 162.682 421.208 165.092C420.724 170.91 420.531 176.755 419.891 182.559C418.717 193.217 417.982 204.554 413.942 214.602C412.009 219.407 409.824 224.158 407.189 228.619C404.557 233.075 401.935 237.936 398.698 241.975C392.622 249.553 387.223 257.811 379.758 264.129C377.947 265.661 376.335 267.413 374.393 268.79C372.75 269.954 370.899 270.837 369.326 271.981C368.55 272.545 367.786 272.982 366.969 273.502C366.191 273.998 365.722 274.752 364.882 275.093C364.058 275.428 363.028 275.34 362.144 275.709C361.105 276.143 360.183 276.826 359.146 277.265C357.097 278.133 354.815 278.327 352.743 279.187C350.721 280.026 348.928 280.561 346.813 281.143C344.404 281.805 341.967 282.18 339.54 282.76C338.47 283.015 337.456 283.343 336.442 283.767C335.134 284.317 335.024 284.254 333.647 284.047C331.328 283.698 328.987 284.771 326.633 284.711C325.453 284.681 324.397 284.367 323.212 284.501C321.905 284.65 320.981 284.862 319.635 284.75C317.231 284.549 314.917 284.431 312.537 284.378C311.622 284.358 310.788 284.107 309.872 284.153C308.478 284.223 308.084 283.944 306.732 283.617C305.76 283.383 304.661 283.704 303.681 283.652C302.526 283.591 301.425 283.219 300.272 283.132C297.885 282.951 295.714 282.646 293.328 282.262C288.376 281.464 283.25 280.218 278.524 278.538C276.265 277.734 274.4 276.699 272.36 275.504C270.411 274.363 268.212 274.132 266.4 272.814C262.683 270.109 258.446 267.884 254.95 264.882C251.376 261.812 247.094 259.6 243.571 256.543C241.978 255.16 240.191 254.023 238.652 252.582C236.973 251.008 235.579 249.263 233.795 247.797C230.07 244.736 227.15 240.636 223.429 237.468C219.558 234.171 216.271 230.481 212.755 226.826C211.323 225.338 209.862 223.98 208.17 222.801C206.191 221.423 207.423 220.093 208.132 218.136C210.032 212.901 212.65 208.514 215.775 203.909C218.858 199.367 221.946 194.888 225.397 190.614C228.305 187.013 231.429 183.661 234.532 180.31C235.822 178.916 237.071 177.429 238.445 176.108C239.507 175.089 239.651 175.146 240.974 175.468C242.178 175.76 243.331 175.868 244.458 176.411C246.646 177.465 248.535 178.935 250.953 179.5C253.534 180.102 255.77 181.024 258.295 181.785C262.957 183.191 268.014 184.716 272.153 187.366C276.508 190.155 279.658 194.558 282.767 198.578C286.019 202.782 288.269 207.637 290.873 212.273C293.567 217.067 296.078 221.932 298.993 226.6C304.331 235.148 311.328 242.551 321.347 245.032C325.728 246.117 331.206 247.491 335.478 245.346C337.348 244.408 338.957 243.017 340.807 242.032C342.959 240.886 345.142 239.898 346.981 238.258C350.577 235.052 354.477 232.218 357.938 228.84C361.131 225.723 363.918 222.176 366.899 218.85C368.386 217.19 369.606 215.296 370.861 213.46C371.485 212.547 371.923 211.488 372.54 210.593C373.104 209.775 373.894 209.245 374.506 208.463C375.73 206.903 376.661 204.949 377.782 203.292C379.2 201.196 380.323 198.95 381.231 196.591C383.128 191.658 383.833 186.956 384.27 181.726C385.802 182.995 389.934 183.054 390.902 181.157C392.472 178.08 389.117 177.591 387.368 176.217C386.175 175.28 385.389 173.962 384.514 172.751C383.922 171.93 382.272 170.595 382.05 169.599C381.718 168.104 383.38 166.588 384.147 165.46C385.221 163.881 386.217 162.248 387.268 160.653C391.309 154.522 395.607 148.439 400.554 142.997C402.758 140.572 405.098 138.04 407.783 136.15C410.167 134.472 412.507 131.194 415.465 130.603C413.801 133.161 409.215 138.493 412.417 141.713C415.038 144.35 420.21 138.454 423.457 138.924C421.632 141.533 418.464 145.809 420.834 149.148C422.867 152.013 426.595 147.315 429.092 147.315C427.41 150.655 425.729 153.996 424.047 157.337ZM205.439 196.642C203.861 196.535 202.103 197.533 202.288 199.289C202.466 200.988 204.456 201.119 204.671 202.624C204.876 204.044 203.165 206.764 202.675 208.133C202.375 208.972 201.868 212.315 200.879 212.68C199.517 213.182 197.48 210.506 196.174 211.715C195.138 212.672 196.33 214.866 196.939 215.69C197.905 216.996 199.985 217.127 200.53 218.586C201.02 219.899 200.499 222.578 200.499 223.994C198.761 223.082 197.632 222.645 196.874 220.797C196.159 219.052 195.873 219.397 194.188 218.422C192.772 217.602 191.981 216.078 191.008 214.817C189.971 213.472 188.493 212.087 188.198 210.338C190.635 210.338 193.059 210.455 194.571 208.145C195.923 206.077 194.531 204.519 192.273 204.817C191.013 204.984 187.616 207.028 186.496 206.358C185.865 205.979 185.737 204.651 185.518 204.001C184.993 202.441 184.394 200.915 183.909 199.339C183.448 197.841 183.036 196.33 182.656 194.81C182.441 193.954 181.461 191.734 181.944 190.984C182.877 189.539 185.288 190.923 185.427 188.186C185.573 185.293 182.735 185.3 180.792 185.426C178.262 185.589 177.005 182.138 175.736 180.321C179.084 180.865 182.339 181.826 185.703 182.303C188.435 182.69 191.165 181.442 192.269 184.583C192.661 185.7 194.078 189.337 195.939 187.482C197.036 186.389 195.697 183.925 195.188 182.793C200.607 181.786 206.132 182.009 211.556 180.758C214.14 180.163 216.522 179.023 219.047 178.242C221.021 177.632 223.3 176.271 225.333 176.074C224.858 177.667 222.801 178.979 221.712 180.173C220.06 181.985 218.48 183.861 216.888 185.726C216.041 184.331 214.932 181.744 213.203 181.257C210.635 180.533 210.447 183.962 211.043 185.588C211.456 186.715 212.152 187.354 212.915 188.211C214.206 189.666 213.347 190.139 212.129 191.631C211.111 192.879 210.223 194.16 209.282 195.46C207.833 197.46 207.577 196.786 205.439 196.642ZM177.478 216.058C172.494 215.241 167.167 215.059 162.119 214.765C157.396 214.49 152.53 214.404 147.794 214.546C143.078 214.686 138.256 214.228 133.566 214.792C129.196 215.317 124.782 214.288 120.326 214.1C118.452 214.021 116.555 214.52 114.681 214.296C113.74 214.183 112.911 213.847 111.947 213.863C110.581 213.885 109.264 214.265 107.887 214.258C102.926 214.234 97.4384 213.048 92.566 214.581C90.4565 215.245 88.4761 214.945 86.32 215.463C84.2332 215.964 82.2296 216.689 80.1617 217.224C75.94 218.315 72.0616 219.768 68.0361 221.552C60.2049 225.023 52.5931 230.933 49.0573 238.951C47.0508 243.502 46.1158 248.771 46.9042 253.695C47.6624 258.431 48.3002 263.6 50.8584 267.746C55.6257 275.472 60.7214 283.513 68.7086 288.254C72.6583 290.598 76.1861 293.64 80.123 295.952C81.8478 296.964 83.8752 297.221 85.5629 298.268C87.0539 299.194 88.5578 300.249 90.0202 301.235C91.7336 302.391 92.8909 303.551 92.2585 305.721C91.6301 307.879 89.9568 310.045 88.6371 311.832C85.4316 316.17 82.2172 320.603 78.8929 324.845C77.1246 327.101 74.9348 328.86 72.6984 330.629C71.2252 331.795 68.8883 332.915 67.784 334.449C67.0531 335.464 67.6008 336.117 67.1908 337.088C66.8104 337.985 65.8869 338.295 65.0648 338.744C62.4259 340.181 59.9187 340.551 57.0945 341.399C58.1731 338.604 59.572 335.704 59.1323 332.619C58.7713 330.092 57.4803 328.995 55.1786 330.336C52.7595 331.745 50.4464 333.433 48.0045 334.79C45.5498 336.155 42.4374 336.773 39.745 337.524C40.9677 334.986 42.4478 332.33 41.7674 329.411C41.1385 326.714 39.7099 326.173 37.5191 327.653C32.8379 330.814 25.4014 332.425 19.872 330.997C20.7148 328.094 23.7009 325.644 25.6555 323.463C27.97 320.879 30.3198 318.335 32.8597 315.969C35.2575 313.736 37.4968 311.487 39.6826 309.055C40.0199 308.68 40.2798 308.134 40.7696 307.922C41.298 307.693 42.075 308.137 42.5008 307.757C43.2907 307.052 42.1844 306.04 41.708 305.391C43.2214 305.033 44.9402 306.765 46.3362 305.78C48.573 304.202 46.4664 300.534 45.1477 299.22C41.4173 295.501 37.015 292.657 33.5807 288.582C29.8667 284.175 25.648 280.146 22.0826 275.624C18.8355 271.507 15.1868 267.185 13.1738 262.307C10.9964 257.033 9.89457 251.804 10.5185 246.1C11.1573 240.258 12.4266 234.438 13.5992 228.685C14.5941 223.807 17.496 219.134 20.3419 215.107C23.0675 211.25 25.7273 206.714 29.0367 203.341C30.6664 201.68 32.7646 200.598 34.4458 199.001C36.3653 197.178 37.7672 195.971 40.1516 194.75C42.4909 193.553 44.7619 192.222 47.0949 191.011C49.4144 189.806 51.6512 188.86 54.0262 187.813C56.0279 186.93 57.9983 186.609 60.0519 185.802C62.7106 184.757 65.4258 183.88 68.2213 183.279C73.0763 182.236 77.8268 180.963 82.6614 179.96C84.9523 179.484 87.3451 179.497 89.5879 178.981C92.0035 178.424 94.2661 178.314 96.7139 177.916C98.9185 177.558 101.113 177.567 103.341 177.271C104.656 177.097 105.984 177.308 107.296 177.149C108.91 176.954 110.046 176.619 111.686 176.709C113.925 176.833 115.705 175.596 117.855 175.918C119.908 176.226 121.86 175.669 123.893 175.321C124.968 175.136 125.792 175.445 126.859 175.477C128.311 175.52 129.797 175.21 131.264 175.197C134.266 175.17 137.288 174.998 140.289 175.069C146.28 175.211 152.158 175.201 158.152 176.074C159.579 176.282 161.001 176.901 162.402 177.067C163.557 177.204 164.123 176.931 165.293 177.459C167.594 178.499 169.159 181.309 170.359 183.447C173.389 188.853 174.316 195.308 176.114 201.173C177.971 207.227 180.426 212.362 183.922 217.6C181.744 217.214 179.662 216.415 177.478 216.058ZM153.244 149.676C151.236 145.54 150.135 141.049 148.457 136.782C150.246 136.509 152.179 137.236 153.991 137.293C156.177 137.363 158.109 137.26 160.251 136.769C164.224 135.859 168.686 134.21 171.838 131.552C173.396 130.24 174.562 128.616 175.331 126.736C175.803 125.578 176.09 124.396 176.324 123.177C176.383 122.872 176.366 121.381 176.621 121.155C177.192 120.648 180.017 120.55 180.805 120.611C182.962 120.781 185.131 121.067 187.327 121.21C189.028 121.32 190.77 121.076 191.423 122.879C191.993 124.448 191.762 126.345 192.292 127.979C193.445 131.543 196.248 135.181 199.758 136.658C203.257 138.132 208.706 138.425 212.398 137.921C216.9 137.305 220.158 134.433 223.543 131.743C223.543 140.587 223.247 149.242 225.852 157.836C226.439 159.773 227.152 161.685 228.058 163.498C228.471 164.325 230.484 166.679 230.284 167.554C230.064 168.513 226.282 169.509 225.391 169.812C223.213 170.552 221.015 171.261 218.825 171.965C214.922 173.218 210.676 174.249 206.596 174.533C202.615 174.809 198.695 174.715 194.713 174.801C190.74 174.886 187.221 174.397 183.328 173.501C178.931 172.488 174.308 171.985 169.968 170.817C166.175 169.797 163.724 165.674 161.398 162.772C158.161 158.733 155.504 154.33 153.244 149.676ZM147.643 127.552C146.874 128.175 143.686 126.845 143.021 126.33C142.101 125.618 141.917 123.06 143.234 122.396C144.491 121.762 148.613 123.848 146.723 120.215C146.298 119.397 145.665 119.427 146.047 118.426C146.267 117.854 147.708 116.955 148.233 116.757C150.404 115.941 150.661 118.314 152.524 119.087C154.411 119.87 156.585 119.338 158.528 120.11C159.271 120.405 159.648 120.968 160.269 120.18C160.576 119.79 160.43 118.755 160.313 118.312C159.741 116.163 156.762 114.811 155.131 113.564C159.269 111.468 163.127 109.487 166.781 106.604C167.054 107.349 167.824 108.538 167.304 109.337C167.01 109.788 165.479 110.31 165.008 110.739C163.579 112.045 161.653 114.991 163.166 116.949C165.003 119.325 169.383 115.195 170.637 113.779C172.884 116.038 172.729 121.191 170.995 123.611C170.715 121.602 166.918 118.46 165.233 120.814C162.851 124.144 168.921 124.761 170.689 124.352C169.696 125.952 167.82 128.496 165.804 128.778C163.896 129.045 163.01 126.54 161.877 125.304C160.893 124.23 158.752 121.716 157.728 123.87C156.714 126.005 158.966 128.412 160.071 129.987C158.537 130.186 157.065 130.889 155.491 130.726C154.739 130.649 152.952 130.556 152.322 130.324C150.38 129.608 150.807 126.616 151.291 125.012C151.784 123.382 152.296 120.595 149.417 121.776C146.357 123.031 149.27 126.233 147.643 127.552ZM171.776 99.9727C173.068 97.8324 174.118 95.5247 174.908 93.1542C175.693 90.801 175.658 88.8954 177.976 87.7416C182.158 85.6598 187.047 83.365 190.12 79.7183C191.313 78.302 191.867 76.0924 193.547 75.2298C195.615 74.168 198.409 73.6367 200.629 72.8453C203.228 71.9193 205.96 71.4355 208.51 70.3753C210.314 69.625 212.786 68.184 214.731 68.0245C214.602 69.942 214.226 71.9124 214.511 73.8348C214.703 75.1302 216.337 76.8768 216.191 77.9316C216.121 78.4377 215.359 78.6477 215.064 79.0711C214.7 79.595 214.685 80.3254 214.559 80.9211C214.146 82.895 213.858 84.8734 213.172 86.7839C210.301 94.7785 202.556 100.188 197.337 106.586C195.942 108.297 194.674 110.086 193.501 111.958C192.762 113.137 192.081 115.289 190.68 115.836C188.997 116.492 185.714 115.451 183.978 115.345C182.273 115.241 180.89 115.844 179.242 115.728C177.533 115.607 176.272 116.378 175.472 114.598C174.83 113.169 174.781 111.389 174.277 109.894C173.208 106.719 169.686 103.437 171.776 99.9727ZM184.394 59.1886C181.992 59.2658 179.826 58.1521 177.83 56.9389C181.916 55.2894 186.097 55.535 190.203 56.7665C188.597 58.2086 186.565 59.1188 184.394 59.1886ZM174.846 48.1782C175.852 44.4761 178.746 40.2049 181.498 37.5873C181.964 39.8612 183.692 39.4428 185.288 40.1965C186.651 40.8403 186.821 42.1476 188.422 42.5408C189.617 42.834 191.621 43.0063 192.574 42.0248C194.138 40.4114 192.331 39.423 191.063 38.7218C192.04 37.41 193.079 36.1353 194.15 34.8978C194.89 34.0421 196.329 32.8501 196.377 31.6027C196.452 29.6858 194.921 30.4994 193.78 31.0907C193.241 31.3705 192.488 32.0251 191.878 32.1346C191.293 32.2391 190.716 31.8513 190.19 31.9979C188.915 32.353 186.539 36.5969 184.688 34.6304C183.92 33.8143 185.563 31.2363 186.034 30.5623C187.625 28.2918 190.702 29.0747 193.187 28.8796C195.901 28.6662 198.619 28.1105 201.332 27.9659C204.367 27.8045 205.709 30.33 207.837 32.2296C209.859 34.0352 212.914 36.0185 215.527 36.8539C218.028 37.6526 219.182 37.0574 219.282 40.147C219.501 46.9749 227.122 43.4614 231.472 44.1497C234.013 44.5513 234.431 46.0642 232.31 47.6107C231.225 48.4016 229.955 48.6912 228.667 48.9037C227.032 49.1736 226.396 49.546 225.004 50.4779C220.421 53.5443 212.868 55.1943 207.543 53.772C204.6 52.9862 201.586 51.5303 199.124 49.7421C196.999 48.199 195.05 46.3123 192.599 45.2773C189.631 44.0239 186.811 44.994 183.741 44.9698C179.869 44.9386 177.788 45.6601 174.846 48.1782ZM218.87 70.3609C219.291 69.1358 221.888 62.5689 223.778 63.3691C224.259 63.5726 225.151 66.2066 225.507 66.687C226.653 68.2315 228.287 69.4007 229.903 70.402C227.22 72.6334 223.413 73.1905 220.418 74.9054C217.145 76.7793 218.249 72.1689 218.87 70.3609ZM209.145 129.359C207.592 129.218 206.036 129.099 204.48 128.987C203.095 128.888 201.524 128.369 200.181 128.361C199.025 128.354 198.236 129.16 197.138 128.439C196.212 127.832 195.894 126.289 195.448 125.364C197.639 125.486 201.962 127.32 203.73 125.31C204.962 123.909 203.853 121.779 202.507 120.949C199.986 119.395 197.993 120.735 195.565 121.549C195.588 118.584 197.089 117.19 198.949 115.157C200.941 112.979 203.061 110.736 204.779 108.333C206.228 109.52 209.743 112.491 211.477 110.156C213.223 107.802 209.743 105.672 208.097 104.775C209.464 102.884 210.831 100.992 212.197 99.1006C212.672 101.827 212.549 104.556 213.702 107.128C214.756 109.481 216.227 111.92 218.202 113.602C216.344 114.728 214.486 117.914 216.434 119.762C217.533 120.804 218.533 120.397 219.648 119.673C221.144 118.701 221.501 118.147 223.189 118.988C223.93 119.356 225.165 119.908 224.98 120.785C224.828 121.513 222.76 122.805 222.215 123.318C219.723 125.662 216.922 127.482 214.033 129.297C213.593 127.826 213.157 123.394 210.896 123.613C208.707 123.826 209.145 127.868 209.145 129.359ZM245.955 70.9502C262.887 66.5147 279.623 61.888 296.857 58.6533C301.04 57.8684 305.254 57.2746 309.435 56.4848C313.556 55.7058 317.756 55.4538 321.864 54.6788C330.137 53.1184 338.434 52.0507 346.84 51.3035C355.045 50.5735 363.11 50.2779 371.283 51.6595C374.679 52.2339 378.293 52.0146 381.592 52.8965C383.258 53.3417 385.131 53.729 386.68 54.496C388.405 55.3503 389.873 56.7789 391.493 57.8218C394.77 59.9304 396.804 62.1519 398.918 65.4123C401.154 68.8599 401.346 73.0746 401.439 77.1492C401.532 81.1975 400.436 85.1274 399.245 88.9573C398.028 92.8739 397.488 97.2159 395.715 100.925C395.295 101.802 393.578 105.216 392.14 104.787C391.218 104.512 391.305 103 391.247 102.211C391.065 99.7647 390.779 93.6771 386.644 96.325C385.043 97.3501 383.826 99.2893 382.631 100.721C381.147 102.499 379.659 104.274 378.161 106.039C375.549 109.116 372.967 113.47 369.245 115.295C369.523 113.451 374.095 95.1157 368.376 97.2104C367.338 97.5907 366.432 99.0461 365.753 99.8736C364.472 101.434 363.25 103.04 362.047 104.66C359.918 107.526 357.834 110.422 355.765 113.331C353.834 116.045 351.646 118.588 349.272 120.928C347.955 122.227 342.659 127.337 342.229 122.593C342.143 121.636 342.598 120.514 342.775 119.581C343.131 117.696 343.35 115.781 343.68 113.89C344.357 110.018 345.298 106.217 346.305 102.42C347.294 98.6975 348.001 95.0132 348.039 91.1546C348.077 87.3365 348.197 83.211 346.136 79.8277C344.608 77.3225 341.969 74.48 339.374 73.1519C335.855 71.3523 332.382 71.4489 328.57 70.915C321.016 69.8578 312.997 70.9502 305.499 72.1045C298.458 73.1885 291.756 75.3377 284.903 76.9734C277.196 78.8131 269.848 81.6981 262.413 84.1187C254.214 86.7873 246.019 89.6368 237.975 92.762C238.37 91.37 238.328 89.9542 238.628 88.5612C238.865 87.4603 239.491 87.0087 239.967 86.0569C240.969 84.0494 240.496 81.1168 237.804 81.1831C235.561 81.2381 233.011 83.0659 231.214 84.2242C229.383 85.4052 225.448 87.2429 224.355 89.2723C221.416 94.7299 232.987 92.0935 230.968 96.5369C230.414 97.7571 229.687 97.6571 229.83 99.265C229.989 101.053 229.928 101.896 229.322 103.67C228.251 106.807 227.766 110.117 226.642 113.228C223.592 109.542 218.026 105.347 217.377 100.315C216.685 94.9468 219.366 89.8522 220.666 84.8036C221.185 82.7866 220.767 80.0565 221.581 78.2079C222.512 76.0959 226.112 76.1538 228.066 75.7497C234.092 74.5028 240.002 72.5096 245.955 70.9502ZM434.691 143.692C434.381 141.44 432.604 139.95 430.489 139.499C428.406 139.056 429.42 138.822 429.49 136.571C429.554 134.559 429.165 132.099 427.315 130.949C425.64 129.908 423.431 130.269 421.56 130.188C422.861 126.432 424.151 120.655 418.39 121.669C413.737 122.487 410.261 125.61 406.501 128.347C402.656 131.145 399.334 133.781 396.092 137.263C392.836 140.761 389.758 144.428 387.013 148.343C384.268 152.259 381.896 156.406 379.982 160.789C378.181 164.914 376.554 168.895 377.493 173.459C377.981 175.825 379.112 178.021 379.51 180.403C379.922 182.857 379.378 185.338 378.691 187.69C377.377 192.186 375.077 196.137 372.474 199.992C370.27 203.255 368.353 206.495 365.667 209.372C362.314 212.963 359.034 216.549 355.529 220.003C352.758 222.731 349.396 225.505 346.205 227.739C344.269 229.094 341.948 229.71 339.849 230.752C337.891 231.725 336.231 232.724 334.103 233.321C331.952 233.925 329.697 234.976 327.433 234.927C325.155 234.878 322.691 233.765 320.518 233.107C315.986 231.737 312.52 230.409 309.278 226.841C302.41 219.284 297.884 209.685 292.805 200.852C288.178 192.806 282.723 183.807 275.221 178.082C271.634 175.344 267.403 173.391 263.265 171.652C261.23 170.796 259.012 170.491 256.898 169.895C255.008 169.361 253.009 169.373 251.241 168.634C249.112 167.746 247.092 166.137 244.735 165.874C243.977 165.79 243.365 166.079 242.632 165.83C241.736 165.525 240.903 164.557 239.963 164.143C235.647 162.244 233.183 160.363 231.207 156C229.153 151.465 227.805 146.663 228.004 141.647C228.101 139.186 228.452 136.703 228.895 134.281C229.311 132.01 229.358 129.599 229.893 127.384C230.123 126.432 230.596 125.55 230.8 124.588C230.988 123.7 230.829 122.654 231.19 121.813C231.506 121.077 232.1 120.836 232.505 120.209C233.228 119.091 232.682 118.412 232.558 117.252C232.335 115.143 233.281 112.85 233.688 110.792C234.195 108.22 234.968 105.73 235.553 103.18C235.921 101.583 235.897 99.8023 237.324 98.751C238.858 97.6204 241.765 97.4991 243.597 97.0232C248.603 95.7218 253.575 94.3372 258.581 93.0438C260.97 92.4267 263.296 91.6636 265.582 90.7371C266.926 90.1929 267.445 90.3786 268.808 90.2429C269.835 90.1409 270.683 89.5115 271.654 89.249C273.674 88.7043 274.84 89.7898 276.575 90.5935C278.545 91.5061 281.1 91.9073 283.24 92.2143C287.616 92.8422 292.976 92.1172 297.326 91.3601C302.223 90.5073 307.176 89.096 311.435 86.5387C312.274 86.0351 312.918 85.4528 313.871 85.6865C314.637 85.8742 315.297 86.9201 315.933 87.3677C317.857 88.7231 320.204 89.0886 322.398 88.1794C324.183 87.4405 325.374 86.1099 326.172 84.3772C326.783 83.053 327.026 81.0187 328.537 80.3928C330.04 79.7698 333.195 80.5076 334.785 80.8137C336.813 81.2034 338.43 82.378 339.971 83.7478C343.384 86.7829 343.788 90.7817 343.115 95.0751C341.537 105.156 337.503 114.81 337.727 125.175C337.812 129.134 339.453 132.828 344.179 132.362C346.506 132.132 347.879 130.464 349.616 129.122C351.564 127.618 353.283 126.061 354.919 124.216C358.372 120.328 361.336 116.064 364.472 111.924C364.839 115.697 362.868 119.445 365.296 122.93C367.285 125.787 370.08 123.807 371.968 121.921C374.784 119.109 377.366 115.949 379.898 112.883C381.93 110.42 384.012 106.391 386.77 104.718C386.68 107.844 388.773 113.198 392.693 111.797C396.312 110.504 398.711 105.399 400.262 102.202C401.198 100.272 402.036 98.2969 402.937 96.3512C403.958 94.1456 404.139 92.2386 404.619 89.9091C405.554 85.372 406.37 80.8924 407.073 76.3014C407.799 71.5464 407.014 67.3996 405.381 62.9432C404.694 61.0694 404.557 59.2896 403.361 57.6094C402.116 55.8608 400.489 54.1231 398.914 52.6667C395.609 49.6108 391.314 48.5367 387.326 46.7134C385.142 45.7151 383.279 45.6244 380.965 45.3085C378.766 45.0089 376.668 44.4335 374.438 44.3087C368.729 43.9893 363.079 42.8617 357.34 43.2133C354.672 43.3772 351.992 43.5327 349.323 43.6307C347.188 43.709 344.173 44.3458 342.12 43.7342C343.191 41.4939 345.418 39.6607 345.333 36.9841C345.252 34.4224 343.118 33.1299 340.906 32.4659C337.94 31.5755 334.624 31.06 331.525 31.1768C328.941 31.2739 325.362 32.3252 322.945 30.9659C324.543 28.7964 326.312 26.466 326.677 23.7121C327.157 20.0773 324.229 18.1133 321.228 16.7723C318.129 15.3872 314.428 15.0124 311.105 14.5201C307.714 14.017 304.409 13.7234 301.006 14.1304C294.198 14.9455 287.389 15.7879 280.564 16.751C274.19 17.6508 267.084 19.2281 260.719 17.6122C253.981 15.9013 256.347 10.0341 253.555 5.22564C250.438 -0.140395 242.649 -0.248349 237.277 0.130977C230.694 0.595975 222.983 3.34089 217.257 6.56418C216.082 7.22577 214.834 7.74673 213.686 8.4316C212.519 9.12687 211.642 10.1485 210.292 10.5466C207.122 11.4801 203.442 9.61811 200.223 9.54036C193.26 9.37298 185.063 12.8013 180.113 17.7231C176.944 20.8731 172.724 30.4276 178.121 33.644C175.783 36.0977 174.086 39.0615 172.772 42.1674C172.114 43.7224 171.557 45.3194 171.039 46.9258C170.667 48.0782 170.471 49.9723 169.613 50.8959C168.774 51.8001 167.592 52.3493 166.73 53.3397C165.601 54.6382 164.553 55.995 163.672 57.4757C162.22 59.916 160.97 62.7679 160.605 65.6055C160.269 68.2068 160.819 70.7843 162.926 72.5155C164.127 73.5025 165.634 74.0596 167.175 74.172C168.856 74.2948 170.59 73.4376 172.223 73.6243C173.563 73.7773 173.419 74.4661 174.269 75.3843C175.237 76.4291 176.721 76.9655 178.081 77.2576C179.342 77.5285 180.662 77.5825 181.927 77.3012C183.554 76.9392 184.947 75.7423 186.628 75.6358C184.12 77.9311 181.466 80.0684 178.643 81.9645C175.567 84.031 172.645 84.7045 169.074 85.4676C162.02 86.975 155.306 89.2426 148.1 90.0334C144.674 90.4093 141.317 91.165 137.87 91.4428C133.645 91.783 129.416 91.777 125.182 91.7102C121.911 91.6587 118.585 91.7052 115.359 91.0927C111.891 90.4335 108.302 90.6494 104.765 90.6648C101.137 90.6801 97.5275 90.6177 93.9135 90.2548C90.4738 89.9091 87.1252 88.1214 83.8371 87.0785C77.0849 84.9363 70.8592 81.4357 65.3491 77.0303C62.6874 74.9024 59.7493 73.037 57.3976 70.5496C55.2633 68.2924 53.2413 65.596 51.3269 63.1398C47.1478 57.7778 45.9083 50.8994 42.6232 45.1005C40.9132 42.0822 37.2259 34.2511 33.5837 39.8974C31.4726 43.1707 31.1552 47.3834 30.3361 51.0955C28.6549 48.0321 27.04 44.9208 25.2766 41.9035C24.4457 40.4812 23.0442 37.8992 21.0065 38.6039C19.0544 39.2794 18.1407 43.1242 17.7153 44.844C16.8874 48.1901 16.8591 51.6971 15.4107 54.8853C14.2781 52.534 13.4571 49.596 10.8612 48.4431C7.682 47.0318 4.53646 48.5273 2.94883 51.4089C-0.965762 58.5136 -0.287826 67.7353 1.03685 75.4219C3.62627 90.4479 10.7226 105.14 22.192 115.405C24.924 117.85 28.1013 119.719 31.0839 121.83C32.2823 122.678 33.3554 123.43 34.8054 123.758C36.6381 124.173 37.4725 125.258 39.2107 126.027C45.7008 128.899 52.9977 129.165 59.6483 131.39C61.2022 131.91 62.8161 131.591 64.3503 132.109C66.0404 132.679 67.1997 132.762 68.9403 133.043C72.5157 133.621 76.3174 134.595 79.9878 134.664C83.6598 134.733 87.2153 135.207 90.914 135.41C94.7246 135.618 98.2693 135.401 102.066 134.939C110.305 133.936 119.24 133.709 126.853 130.169C129.816 128.791 132.264 127.023 134.471 124.606C135.086 123.933 136.808 122.128 136.134 121.04C135.399 119.855 133.775 120.97 132.808 121.395C125.258 124.714 116.969 125.589 108.814 126.26C105.001 126.574 101.135 127.13 97.3121 127.231C95.3417 127.283 93.6114 127.081 91.7083 126.684C89.5289 126.228 87.3292 126.426 85.131 126.175C81.312 125.738 77.5212 125.05 73.7141 124.583C70.5195 124.191 66.9471 124.714 64.0541 123.254C61.3582 121.894 58.126 121.661 55.2182 120.713C51.7919 119.595 48.2526 118.983 44.8857 117.62C43.209 116.941 41.5238 116.6 39.849 116.044C38.4966 115.595 37.3507 114.495 35.9938 113.884C32.8097 112.452 29.9068 109.811 27.4575 107.352C21.9761 101.85 17.3613 95.2915 13.7374 88.3992C11.7308 84.5827 10.5839 79.8688 9.22308 75.774C7.95634 71.9619 6.84213 67.7036 6.18103 63.743C5.94581 62.3351 4.28341 55.2126 6.59998 55.1547C9.80049 55.0754 11.8526 60.7505 12.7425 62.9804C14.082 66.3369 15.7558 70.9849 18.5334 73.4554C21.1303 75.7651 22.6466 71.3721 22.607 69.3234C22.5783 67.8354 22.0246 67.1787 21.215 66.0021C20.0715 64.3392 19.6783 63.016 19.5857 60.9535C19.3743 56.2337 20.2473 51.5565 21.053 46.9298C22.9903 50.3393 25.0503 53.6265 26.3938 57.3291C27.0955 59.2624 28.1409 64.9449 31.2627 64.005C33.1845 63.4266 33.9566 60.5415 34.2359 58.8187C34.8598 54.9749 34.4557 51.0965 35.5284 47.2948C36.8748 47.939 37.5255 50.5616 38.1148 51.815C39.2954 54.3227 40.1714 56.8388 40.9944 59.4793C42.5736 64.5492 45.6548 68.7812 48.7186 73.0499C51.8191 77.3695 55.5143 81.0474 59.7577 84.2504C63.8971 87.3742 68.7259 90.8609 73.6175 92.6639C76.1322 93.591 78.7369 94.2119 81.2412 95.1816C82.3708 95.6188 83.4924 96.0858 84.6393 96.477C86.1903 97.0054 87.712 97.0044 89.2422 97.4001C91.691 98.0334 93.7342 98.6282 96.3098 98.7044C98.8111 98.7787 101.32 98.7238 103.811 98.9258C108.925 99.3408 114.285 99.4264 119.426 99.4245C125.222 99.4225 131.134 99.5364 136.836 98.387C142.655 97.2149 148.584 96.4072 154.323 94.9706C160.877 93.3295 167.375 91.3511 173.894 89.5684C171.064 94.6943 165.962 100.018 160.762 102.697C158.171 104.032 155.495 105.59 152.787 106.642C149.833 107.79 146.909 108.615 144.136 110.204C141.129 111.926 140.087 113.57 138.647 116.615C137.206 119.662 136.213 122.591 136.591 126.046C136.884 128.713 137.992 131.564 139.958 133.448C140.968 134.418 142.216 135.136 143.56 135.533C145.081 135.983 145.633 135.662 146.023 137.214C146.281 138.24 145.986 139.698 146.156 140.816C146.39 142.362 146.773 143.885 147.167 145.397C148.068 148.851 149.044 152.324 150.607 155.547C151.892 158.191 153.541 160.626 155.301 162.974C155.971 163.869 157.259 164.958 157.663 166.003C157.947 166.736 157.581 168.605 156.708 169.047C156.247 169.281 153.92 168.318 153.587 168.239C152.218 167.912 150.931 167.649 149.629 167.184C146.5 166.067 142.747 165.996 139.418 165.633C136.49 165.314 133.511 164.917 130.561 165.028C129.187 165.08 127.833 165.567 126.49 165.608C125.055 165.651 123.769 165.314 122.308 165.398C120.966 165.475 120.492 165.461 119.203 165.868C117.834 166.3 117.175 165.846 115.817 165.71C114.238 165.552 112.803 166.301 111.242 166.315C109.738 166.329 108.264 166.179 106.74 166.237C103.961 166.343 101.083 166.931 98.3693 166.887C96.7629 166.86 95.6794 167.099 94.1195 167.423C92.3749 167.784 90.5713 167.19 88.8589 167.684C86.4725 168.372 83.9232 168.377 81.4021 168.897C78.6488 169.465 75.9975 170.341 73.2139 170.761C67.2581 171.66 61.3449 173.513 55.6287 175.406C31.0651 183.541 10.7612 205.416 6.14885 231.181C4.81674 238.624 2.93843 247.002 3.79019 254.571C4.60579 261.824 7.43737 269.219 11.2296 275.417C14.9367 281.476 19.5119 287.238 24.5511 292.234C27.05 294.712 29.4314 297.37 32.1981 299.556C33.3514 300.468 34.3676 301.639 35.5521 302.488C36.9684 303.502 38.7863 303.981 40.3824 304.633C34.5226 307.943 28.9307 312.164 24.0881 316.843C19.8952 320.894 14.4534 326.69 15.0566 333.035C15.8885 341.797 27.8413 338.968 33.4703 337.756C33.4703 341.952 33.504 346.99 39.1547 346.504C41.5188 346.301 44.3479 345.304 46.4026 344.13C48.2591 343.07 49.4555 342.628 51.5799 342.139C51.5799 344.159 51.1233 347.064 52.7615 348.627C54.5403 350.323 57.8269 350.205 59.9885 349.566C64.9544 348.098 70.3036 346.503 73.5338 342.094C75.1041 339.951 76.564 337.592 77.5148 335.1C77.9659 333.918 77.9798 332.373 78.7582 331.361C79.4827 330.42 80.8346 329.785 81.7211 329.002C83.6454 327.304 85.2548 325.271 86.9271 323.336C88.9278 321.02 91.1651 318.896 92.9924 316.434C96.2929 311.99 98.6377 306.343 97.4904 300.736C96.4177 295.496 92.0847 290.63 86.9668 289.428C84.5521 288.86 83.0249 286.908 81.1332 285.469C79.0821 283.909 76.7541 282.353 74.5634 281.004C72.2062 279.553 69.7321 277.946 67.5468 276.248C65.354 274.544 63.6753 272.036 61.9589 269.875C58.386 265.378 54.3095 260.695 53.1428 254.926C52.6753 252.614 52.0107 250.101 52.7545 247.798C53.5414 245.362 55.2746 243.404 56.8553 241.46C60.3163 237.201 65.2857 234.676 70.2353 232.566C72.9143 231.423 75.5662 230.494 78.2809 229.626C79.2505 229.316 80.0081 228.698 81.0169 228.452C82.4267 228.109 83.9302 227.979 85.3588 227.653C88.0854 227.033 90.4753 226.344 93.2772 226.322C96.4811 226.296 99.6792 226.05 102.865 225.723C105.649 225.439 108.038 225.845 110.779 225.908C111.96 225.934 113.164 225.712 114.345 225.774C115.791 225.851 117.152 226.243 118.624 226.272C121.019 226.316 123.247 226.564 125.591 226.24C126.754 226.079 127.744 226.424 128.919 226.309C129.206 226.281 129.484 225.911 129.753 225.905C130.287 225.893 130.582 226.164 131.127 226.227C136.807 226.883 142.479 225.725 148.153 225.977C153.703 226.223 159.483 225.882 165.047 225.561C170.555 225.242 176.771 224.679 181.892 222.452C183.798 221.622 184.997 219.568 186.832 220.967C189.145 222.731 191.018 224.88 193.569 226.411C195.756 227.723 198.459 228.134 200.899 228.761C202.05 229.056 203.45 229.681 204.644 229.479C206.17 229.221 206.012 228.474 207.082 229.931C208.666 232.091 209.683 234.61 211.375 236.735C213.164 238.984 215.163 241.221 217.23 243.219C221.051 246.91 224.685 250.833 228.461 254.61C230.406 256.556 231.615 259 233.644 260.853C235.552 262.595 237.392 264.477 239.343 266.164C243.829 270.043 248.757 273.475 253.489 277.047C255.769 278.769 257.761 280.745 260.259 282.17C262.676 283.549 265.257 284.811 267.554 286.318C272.059 289.273 277.315 291.115 282.49 292.843C285.263 293.769 288.075 294.536 290.954 295.054C293.585 295.526 296.072 295.702 298.693 296.016C301.106 296.306 303.545 296.4 305.94 296.72C307.353 296.91 307.732 296.684 308.967 296.499C310.076 296.333 310.9 296.914 312.05 296.972C317.301 297.238 322.678 297.657 327.98 297.198C330.73 296.959 333.179 297.136 335.826 296.251C338.455 295.372 341.278 295.643 343.934 294.696C349.062 292.868 354.437 291.864 359.424 289.526C361.517 288.545 364.201 287.878 366.051 286.471C366.815 285.889 367.312 285.197 368.09 284.722C369.109 284.1 370.53 283.461 371.656 282.993C373.701 282.143 375.087 280.571 376.881 279.265C379.195 277.581 381.486 275.928 383.507 273.885C387.23 270.121 390.836 266.419 394.069 262.172C401.402 252.541 407.803 242.123 413.451 231.419C419.601 219.762 422.047 207.499 423.181 194.465C423.744 187.997 424.213 181.504 424.648 175.026C424.85 172.007 425.022 168.966 424.893 165.94C424.839 164.653 424.428 162.921 424.881 161.661C425.314 160.459 426.594 159.548 427.406 158.607C430.49 155.031 435.383 148.714 434.691 143.692Z" fill="#171C22"/>
<path fill-rule="evenodd" clip-rule="evenodd" d="M192.41 193.316C190.851 192.437 193.008 189.965 191.273 189.339C189.703 188.772 188.783 191.482 188.618 192.549C188.273 194.779 189.119 196.822 191.065 197.907C192.088 198.478 193.28 198.784 194.223 199.508C195.243 200.293 195.746 201.377 196.84 202.096C198.748 198.149 195.539 195.081 192.41 193.316Z" fill="#171C22"/>
<path fill-rule="evenodd" clip-rule="evenodd" d="M203.677 185.743C200.744 186.434 200.234 194.517 203.419 194.381C205.297 194.301 204.77 190.518 205.064 189.228C205.351 187.97 205.93 185.213 203.677 185.743Z" fill="#171C22"/>
<path fill-rule="evenodd" clip-rule="evenodd" d="M201.992 43.9464C205.779 46.4591 211.923 40.0106 209.98 36.1569C208.44 37.0785 206.192 39.8065 204.291 39.6109C201.327 39.3064 204.371 36.4302 203.963 35.0501C203.194 32.4409 201.044 36.8269 200.798 37.646C200.227 39.5515 200.06 42.6649 201.992 43.9464Z" fill="#171C22"/>
<path fill-rule="evenodd" clip-rule="evenodd" d="M211.569 120.394C211.507 118.91 211.088 117.38 209.99 116.326C208.892 115.272 207.607 115.021 206.778 113.692C206.254 112.85 206.241 112.01 205.142 112.882C204.44 113.438 204.227 115.006 204.239 115.832C204.256 117.073 204.753 118.245 205.564 119.176C206.508 120.26 207.842 120.421 208.849 121.287C209.46 121.814 209.602 123.124 210.597 122.681C211.227 122.4 211.386 120.96 211.569 120.394Z" fill="#171C22"/>
</svg>
