<svg width="261" height="387" viewBox="0 0 261 387" fill="none" xmlns="http://www.w3.org/2000/svg">
<path d="M8.19916 87.2369L32.5891 86.2039C33.1411 102.573 35.0713 116.765 40.7673 123.983C47.2458 130.392 60.2668 135.783 70.2133 135.932C80.6655 136.089 92.1528 132.986 102.473 129.141C105.823 134.134 100.995 153.947 102.473 156.905C85.0968 163.499 69.551 162.331 56.1323 159.526C43.4023 156.864 35.3587 151.968 27.2866 144.842C22.0269 139.519 15.9017 134.039 12.0323 116.299C8.91335 102.88 8.5874 98.7489 8.19916 87.2369Z" fill="#E24444"/>
<path d="M32.5894 86.2044C32.7122 89.8487 26.8382 92.9739 20.6172 93.1844C14.3962 93.3946 8.32228 90.882 8.1995 87.2378C8.07671 83.5935 13.9513 80.1975 20.1723 79.9873C26.393 79.7767 32.4663 82.5602 32.5894 86.2044Z" fill="#171C22"/>
<path d="M12.0493 99.3656C12.119 99.2433 12.4129 99.2445 12.8691 99.3442C12.9833 99.3692 13.1072 99.4 13.241 99.4372C13.3768 99.4677 13.5242 99.501 13.6832 99.5366C13.9988 99.607 14.3416 99.7184 14.737 99.7896C14.9307 99.8333 15.1335 99.8787 15.345 99.9262C15.5556 99.9737 15.7807 100 16.0082 100.044C16.4617 100.139 16.9561 100.184 17.4686 100.253C17.7255 100.286 17.9924 100.291 18.2617 100.315C18.3963 100.326 18.5325 100.336 18.6701 100.347C18.8083 100.349 18.9477 100.351 19.0883 100.352C19.3698 100.351 19.6551 100.378 19.9451 100.359C20.2349 100.349 20.5288 100.34 20.8266 100.33C21.1232 100.303 21.4162 100.276 21.7051 100.25C21.9955 100.234 22.2752 100.171 22.5546 100.138C22.6939 100.119 22.8319 100.1 22.9689 100.081C23.1041 100.053 23.2379 100.026 23.3705 99.9987C23.6347 99.9414 23.8993 99.9036 24.1499 99.8392C24.65 99.7068 25.1352 99.602 25.5733 99.4511C25.7936 99.3799 26.014 99.3258 26.2169 99.2525C26.4209 99.1791 26.6164 99.1088 26.8035 99.0416C27.1873 98.9223 27.5136 98.7694 27.8182 98.6604C27.9712 98.6055 28.1136 98.5544 28.2447 98.5072C28.3728 98.4537 28.4923 98.4077 28.6024 98.3688C29.0428 98.2138 29.3343 98.1761 29.4186 98.2889C29.5028 98.4018 29.3708 98.6556 29.0452 99.0277C28.9639 99.1206 28.8705 99.2207 28.7655 99.3279C28.6581 99.4309 28.533 99.531 28.3992 99.6415C28.0988 99.8956 27.7799 100.127 27.4448 100.333C27.2573 100.447 27.0613 100.566 26.8563 100.69C26.6493 100.811 26.4221 100.911 26.1908 101.025C25.6949 101.264 25.1847 101.472 24.663 101.647C24.389 101.745 24.0986 101.813 23.8056 101.898C23.6582 101.937 23.5093 101.977 23.3592 102.018C23.2065 102.047 23.0522 102.077 22.8968 102.107C22.5845 102.159 22.2695 102.238 21.943 102.265C21.6173 102.298 21.2869 102.332 20.9518 102.366C20.6154 102.374 20.2836 102.381 19.9558 102.389C19.6284 102.401 19.3063 102.363 18.9898 102.349C18.8317 102.338 18.6751 102.328 18.52 102.317C18.3658 102.296 18.2133 102.275 18.0621 102.254C17.7607 102.206 17.4644 102.174 17.1803 102.111C16.6411 102.002 16.1093 101.859 15.5879 101.683C15.3441 101.597 15.1063 101.526 14.8859 101.432C14.6676 101.334 14.4585 101.24 14.2583 101.15C13.9003 100.987 13.5554 100.797 13.2262 100.582C13.0799 100.489 12.9432 100.405 12.824 100.316C12.7065 100.223 12.6018 100.135 12.5093 100.052C12.1418 99.7237 11.9796 99.4879 12.0493 99.3656Z" fill="#171C22"/>
<path fill-rule="evenodd" clip-rule="evenodd" d="M27.1784 61.7432C26.9408 62.5585 26.7017 63.4134 26.8951 64.2362C27.0885 65.0593 27.8665 65.8242 28.7622 65.7372C29.4657 65.6689 29.9966 65.1318 30.5195 64.6822C32.4524 63.063 34.9461 62.2747 37.4573 62.4888C39.9398 62.7005 42.2298 63.9128 43.802 65.8474C44.3834 66.587 44.7924 67.531 44.4845 68.4108C43.6508 70.7934 41.3999 69.9037 39.8245 70.3331C36.6266 71.2046 35.4945 74.5317 32.7979 76.3721C30.7698 77.7564 28.0693 79.2396 25.5708 79.3462C22.9312 79.4587 19.6915 79.1579 17.7275 77.6498C15.6641 76.0651 13.7294 73.7012 13.7582 71.2236" fill="#B39370"/>
<path fill-rule="evenodd" clip-rule="evenodd" d="M25.4621 71.9633C28.3102 67.811 29.1591 62.3314 28.5834 57.1775C28.0077 52.0237 26.1208 47.1335 23.9183 42.5061C23.1632 40.9196 22.3333 39.3085 21.0348 38.2039C19.7364 37.0993 17.8468 36.6194 16.4228 37.5004C15.0843 38.3289 14.4941 40.1375 14.5555 41.8083C14.6169 43.4792 15.2092 45.0692 15.735 46.6459C17.6854 52.5112 18.8018 58.6221 19.0515 64.7989C19.1159 66.3863 19.1298 68.0153 19.667 69.4984C20.2041 70.9816 21.4074 72.3128 22.8764 72.4063C24.3454 72.4995 25.8135 70.878 25.323 69.3764" fill="#B39370"/>
<path fill-rule="evenodd" clip-rule="evenodd" d="M14.4763 41.2649C13.4732 39.853 11.8692 38.2819 9.8702 38.5854C8.67168 38.7751 7.69382 39.6475 7.36816 40.8177C7.09322 41.8528 7.33435 42.9259 7.57518 43.967L11.2832 59.9764C11.688 61.7238 12.2862 63.6954 14.2384 64.5565C20.3144 67.2369 22.4837 59.1717 21.7487 56.0646C20.552 51.0028 17.643 45.7218 14.4763 41.2649Z" fill="#B39370"/>
<path fill-rule="evenodd" clip-rule="evenodd" d="M9.29015 45.7941C8.21145 44.4389 6.52443 42.9581 4.54468 43.3702C3.35831 43.625 2.42939 44.5496 2.16809 45.7362C1.95009 46.7846 2.24906 47.8432 2.54654 48.8694L7.12176 64.6522C7.62122 66.375 8.32622 68.3107 10.3223 69.064C16.5353 71.4086 18.2615 63.2365 17.3586 60.1745C15.8875 55.1854 12.695 50.0714 9.29015 45.7941Z" fill="#B39370"/>
<path fill-rule="evenodd" clip-rule="evenodd" d="M7.19689 51.6373C6.11818 50.2821 4.43117 48.8013 2.45142 49.2135C1.26505 49.4682 0.336125 50.3929 0.0748277 51.5794C-0.143167 52.6279 0.155798 53.6865 0.453279 54.7127L5.02849 70.4955C5.52796 72.2183 6.23296 74.154 8.22902 74.9073C14.442 77.2519 16.1682 69.0797 15.2654 66.0178C13.7943 61.0287 10.6018 55.9146 7.19689 51.6373Z" fill="#B39370"/>
<path fill-rule="evenodd" clip-rule="evenodd" d="M5.50749 71.9273C8.20025 78.5587 11.0736 80.0903 25.5701 79.3468C28.4154 72.1352 24.888 66.0199 24.888 66.0199L20.7173 58.2587L13.0439 57.4629L9.1013 66.13L5.50749 71.9273Z" fill="#B39370"/>
<path fill-rule="evenodd" clip-rule="evenodd" d="M19.2129 90.6784C17.3639 90.7131 15.5224 90.4364 13.7651 89.8597C13.2546 89.6878 12.8759 89.2543 12.7742 88.7249L12.6985 88.3237L11.4941 81.7796L9.96248 73.4427L19.1865 71.6979L24.3137 70.7266L24.8938 70.6165L26.2537 77.8328L26.9593 81.76L27.6743 85.7434L27.8852 86.8583C27.9597 87.3901 27.7657 87.9243 27.3677 88.2842C25.5706 89.7 22.5925 90.6427 19.2129 90.6784Z" fill="#B39370"/>
<path d="M19.8756 68.7697C19.7848 68.7186 19.7567 68.5601 19.8053 68.3136C19.8866 67.9757 20.0284 67.6553 20.2235 67.3679C20.5062 66.935 20.8567 66.5502 21.2613 66.2283C22.2688 65.4159 23.5314 64.9877 24.8248 65.0195C25.3415 65.0287 25.8534 65.121 26.3407 65.2929C26.6702 65.4022 26.9772 65.5706 27.2468 65.7891C27.4351 65.9551 27.509 66.0985 27.4681 66.1938C27.3806 66.3949 26.8749 66.3545 26.1408 66.356C25.7205 66.3536 25.3003 66.3776 24.883 66.4281C23.8888 66.5442 22.9305 66.8694 22.0707 67.3822C21.7085 67.5962 21.3606 67.8326 21.0282 68.0906C20.4439 68.5366 20.0669 68.876 19.8756 68.7697Z" fill="#5E3F26"/>
<path d="M20.0962 64.3657C20.0497 64.3904 19.969 64.3446 19.8578 64.2339C19.7027 64.0723 19.5636 63.8963 19.4431 63.7074C19.2489 63.4152 19.0706 63.1127 18.9096 62.8009C18.7236 62.4357 18.5252 62.0113 18.3371 61.5288C17.897 60.3928 17.585 59.2107 17.407 58.0051C17.3023 57.2904 17.2413 56.5701 17.2243 55.8479C17.2134 55.0839 17.2407 54.3196 17.3062 53.5583C17.3723 52.8813 17.3534 52.1983 17.2495 51.5261C17.1208 50.9084 16.9159 50.3095 16.6392 49.7427C16.3728 49.172 16.0745 48.6253 15.8013 48.0956C15.535 47.5953 15.2974 47.0801 15.0904 46.5528C14.9139 46.1056 14.7825 45.6421 14.6986 45.1687C14.6333 44.8071 14.6126 44.4386 14.6372 44.0719C14.6897 43.4655 14.8599 43.1639 14.956 43.179C15.0675 43.1939 15.1043 43.5107 15.2306 44.0282C15.4175 44.7536 15.7007 45.4508 16.0727 46.1008C16.3025 46.5222 16.5816 46.9679 16.899 47.4611C17.2145 47.9552 17.5645 48.4926 17.897 49.1084C18.268 49.7727 18.5442 50.4859 18.7171 51.2271C18.8689 52.0267 18.9075 52.8436 18.8319 53.6539C18.7767 54.4416 18.7201 55.1368 18.7221 55.8351C18.7186 56.5288 18.7503 57.199 18.8058 57.8362C18.9114 58.9702 19.0994 60.0952 19.3681 61.2019C19.4817 61.6779 19.6003 62.1058 19.7041 62.4841C19.813 62.8632 19.9067 63.1896 19.9835 63.4565C20.0446 63.6664 20.0945 63.879 20.133 64.0943C20.1538 64.2478 20.1428 64.3414 20.0962 64.3657Z" fill="#5E3F26"/>
<path d="M13.6985 66.5817C13.6196 66.6428 13.3354 66.4561 12.933 66.0163C12.6889 65.7488 12.4632 65.4646 12.2573 65.1662C11.9818 64.7713 11.7324 64.3585 11.5111 63.9309C10.9268 62.8094 10.508 61.6089 10.2678 60.3672C10.1228 59.6305 10.0382 58.8828 10.0145 58.1322C9.98484 57.3435 10.051 56.5483 10.0854 55.7882C10.1376 55.0853 10.1061 54.3789 9.99225 53.6835C9.8579 53.0362 9.658 52.4046 9.39521 51.7983C9.14548 51.1926 8.87084 50.6085 8.62674 50.0434C8.38947 49.5104 8.18483 48.9632 8.01488 48.4053C7.74112 47.5783 7.64798 46.702 7.742 45.8359C7.83839 45.2212 8.02673 44.9228 8.12194 44.9439C8.23197 44.9656 8.24859 45.2925 8.33698 45.8344C8.47104 46.5943 8.70385 47.3333 9.02951 48.0326C9.23 48.4827 9.47914 48.9629 9.76624 49.4876C10.0522 50.0143 10.3731 50.5824 10.6809 51.2225C11.0238 51.9099 11.2851 52.635 11.4595 53.3833C11.6191 54.1978 11.6707 55.0295 11.6125 55.8574C11.5749 56.6701 11.5037 57.4097 11.512 58.1072C11.5149 58.7845 11.5633 59.4609 11.6564 60.132C11.8166 61.279 12.0992 62.4056 12.499 63.4927C12.6648 63.9627 12.8434 64.3787 13.0012 64.7457C13.1628 65.1109 13.3061 65.4275 13.4277 65.6858C13.6641 66.2066 13.7865 66.514 13.6985 66.5817Z" fill="#5E3F26"/>
<path d="M9.06135 67.7943C8.97327 67.8505 8.75023 67.6836 8.42813 67.3187C8.23831 67.0948 8.06125 66.8605 7.89723 66.617C7.70178 66.3349 7.4995 66.0018 7.28714 65.6267C6.80399 64.7446 6.38609 63.8285 6.03611 62.8855C5.63275 61.8284 5.26676 60.646 4.92449 59.4045C4.25123 56.9252 3.73457 54.6682 3.42967 53.0101C3.12626 51.3532 3.04024 50.3009 3.244 50.2457C3.44776 50.1907 3.90243 51.1433 4.47278 52.728C5.04401 54.311 5.72855 56.5338 6.39766 58.9986C6.73607 60.2261 7.05223 61.3883 7.36869 62.4312C7.68249 63.4749 7.99096 64.4031 8.26946 65.1772C8.41182 65.5641 8.54113 65.9142 8.65443 66.2215C8.76417 66.5327 8.87182 66.7949 8.94271 67.0208C9.09931 67.4639 9.15152 67.7373 9.06135 67.7943Z" fill="#5E3F26"/>
<path d="M21.1388 50.2926C21.142 50.0559 21.2512 49.8329 21.4362 49.6854C21.8802 49.2756 22.4088 48.9686 22.9841 48.7863C23.2039 48.6987 23.4513 48.7144 23.6583 48.829C23.846 49.0155 23.8885 49.3038 23.7627 49.5366C23.4109 50.3443 22.5758 50.8295 21.7008 50.7344C21.3636 50.675 21.1628 50.4996 21.1388 50.2926Z" fill="#5E3F26"/>
<path d="M12.5189 53.5294C12.5014 53.3159 12.6752 53.1142 12.9151 52.9177C13.4967 52.4868 14.1213 52.118 14.7792 51.8166C14.9998 51.6863 15.2689 51.667 15.5055 51.765C15.6785 51.8793 15.7268 52.1679 15.5844 52.5382C15.1541 53.4774 14.186 54.0493 13.1568 53.9724C12.7641 53.918 12.5352 53.736 12.5189 53.5294Z" fill="#5E3F26"/>
<path d="M6.5973 55.1309C6.33363 54.801 6.4591 54.262 6.87729 53.9268C7.29549 53.5916 7.84833 53.5874 8.112 53.9173C8.37567 54.2472 8.25022 54.7864 7.83202 55.1217C7.41383 55.4566 6.86097 55.4608 6.5973 55.1309Z" fill="#5E3F26"/>
<path d="M33.7183 68.3315C33.9262 68.281 34.1549 68.4336 34.3934 68.6599C34.929 69.2208 35.4196 69.8232 35.86 70.4616C36.0332 70.7411 36.1365 70.9961 36.0451 71.1897C35.9573 71.3774 35.6678 71.4623 35.2651 71.3649C34.2314 71.0481 33.4909 70.1383 33.3897 69.0607C33.3755 68.6465 33.5169 68.3799 33.7183 68.3315Z" fill="#5E3F26"/>
<path d="M33.7837 71.8378C33.9293 71.7081 34.104 71.6157 34.2929 71.5682C34.5764 71.4426 34.9086 71.5644 35.0442 71.8438C35.1581 72.002 35.2319 72.1858 35.2592 72.3788C35.285 72.5956 35.1839 72.8079 34.9994 72.9246C34.5397 73.1856 33.956 73.0241 33.6953 72.5638C33.6698 72.5187 33.6478 72.4715 33.63 72.4228C33.5645 72.2146 33.6244 71.9872 33.7837 71.8378Z" fill="#5E3F26"/>
<path d="M24.4437 79.0989C24.4496 79.2041 24.2788 79.311 23.9505 79.4101C23.7514 79.4612 23.5489 79.4974 23.3445 79.5191C23.2247 79.5283 23.0972 79.5381 22.9613 79.5485C22.8252 79.5482 22.6816 79.5479 22.5304 79.5479C22.1997 79.536 21.8705 79.5025 21.5442 79.4475C21.1684 79.3825 20.7971 79.2928 20.4329 79.1791C20.0301 79.0488 19.6371 78.8899 19.2569 78.7031C18.8467 78.5027 18.4531 78.2702 18.0797 78.0077C17.9756 77.9308 17.8721 77.8545 17.7695 77.7785C17.7176 77.7414 17.6692 77.6998 17.6203 77.6594C17.5746 77.6214 17.5046 77.5632 17.5254 77.579C17.5254 77.5712 17.5236 77.5635 17.5207 77.5564C17.4836 77.5733 17.6194 77.4477 17.2 77.7939C16.9165 78.0116 16.6086 78.1954 16.2824 78.3412C15.7515 78.5861 15.177 78.7215 14.5927 78.7394C14.3756 78.7474 14.1585 78.7331 13.9443 78.6966C13.7842 78.672 13.6273 78.6301 13.4763 78.5716C13.3773 78.5354 13.2847 78.4828 13.2032 78.416C13.1447 78.3652 13.1192 78.3171 13.1266 78.272C13.1338 78.2272 13.1732 78.1871 13.2394 78.1514C13.3271 78.1102 13.4188 78.0775 13.5131 78.0537C13.6249 78.0241 13.7619 77.9875 13.9218 77.9448C14.0775 77.9038 14.2522 77.8557 14.4394 77.7895C14.8742 77.6464 15.2882 77.4471 15.6717 77.1971C15.895 77.0534 16.1044 76.8889 16.2972 76.7063C16.3491 76.6605 16.3983 76.6118 16.4446 76.5605C16.5422 76.4652 16.6324 76.3627 16.7151 76.2543C16.9337 75.985 17.1505 75.7062 17.3709 75.4211C17.5361 75.5678 17.703 75.7163 17.8718 75.8659C18.0418 76.0138 18.212 76.178 18.3917 76.3235L18.5676 76.4646C18.6094 76.4978 18.6507 76.5326 18.6955 76.5631C18.783 76.6267 18.871 76.6908 18.9597 76.7556C19.5769 77.1855 20.2345 77.5543 20.9232 77.8566C21.2444 77.9917 21.5543 78.1143 21.8506 78.2156C22.1469 78.3177 22.4278 78.402 22.6876 78.4769C22.8184 78.5128 22.9429 78.5472 23.061 78.5799C23.1805 78.6099 23.2932 78.6384 23.3988 78.6648C23.6109 78.7224 23.7968 78.7619 23.9502 78.8142C24.2571 78.8988 24.4378 78.9932 24.4437 79.0989Z" fill="#5E3F26"/>
<path d="M42.5028 68.2247C42.7742 68.3381 42.9513 68.6033 42.9521 68.8975C42.9097 69.1941 42.5989 69.3619 42.3254 69.4834C42.0576 69.6176 41.7723 69.7129 41.4775 69.7663C41.1788 69.8183 40.8721 69.7399 40.6352 69.5508C40.3501 69.2728 40.2876 68.8378 40.4824 68.4904C40.8745 67.7986 41.9049 67.8983 42.5028 68.2247Z" fill="#5E3F26"/>
<path d="M253.769 44.2515L230.524 51.7193C235.655 67.2708 238.743 81.2572 235.888 90.0004C232.021 98.2554 221.662 107.819 212.38 111.4C202.626 115.163 190.775 116.225 179.763 116.186C178.343 122.03 189.712 138.954 189.346 142.24C207.927 142.417 222.112 135.944 233.736 128.669C244.764 121.768 250.622 114.391 255.738 104.912C258.836 98.0962 262.693 90.8354 260.201 72.8493C258.497 59.1779 257.377 55.1887 253.769 44.2515Z" fill="#E24444"/>
<path d="M230.524 51.7193C231.666 55.1815 238.088 56.5049 243.998 54.5502C249.908 52.5955 254.911 47.7139 253.768 44.2517C252.626 40.7895 245.771 40.0573 239.861 42.012C233.95 43.9667 229.382 48.257 230.524 51.7193Z" fill="#171C22"/>
<path d="M254.342 56.9643C254.234 56.8737 253.959 56.9765 253.565 57.2277C253.466 57.2906 253.36 57.3625 253.248 57.4436C253.131 57.5193 253.004 57.6015 252.867 57.69C252.595 57.8652 252.312 58.0885 251.965 58.2919C251.799 58.4 251.624 58.5128 251.442 58.6304C251.261 58.748 251.059 58.851 250.86 58.9701C250.468 59.2168 250.019 59.4291 249.562 59.672C249.332 59.7917 249.084 59.8885 248.839 60.0043C248.716 60.0607 248.592 60.1177 248.467 60.1756C248.338 60.2252 248.208 60.2751 248.076 60.3253C247.812 60.4209 247.553 60.5459 247.275 60.6279C246.999 60.719 246.72 60.8117 246.437 60.9055C246.15 60.9827 245.866 61.059 245.585 61.1344C245.307 61.2193 245.023 61.2571 244.749 61.323C244.612 61.3533 244.476 61.3833 244.341 61.4129C244.205 61.4337 244.07 61.4545 243.936 61.4747C243.668 61.5124 243.407 61.5685 243.149 61.5947C242.634 61.6434 242.143 61.7128 241.68 61.7229C241.448 61.7324 241.223 61.7577 241.007 61.7592C240.79 61.7609 240.583 61.7627 240.384 61.7645C239.982 61.7853 239.623 61.7547 239.3 61.7577C239.137 61.7592 238.986 61.7604 238.847 61.7615C238.708 61.7559 238.58 61.7538 238.463 61.7553C237.996 61.7621 237.71 61.8278 237.67 61.9626C237.629 62.0977 237.841 62.2901 238.275 62.5267C238.383 62.5858 238.505 62.6476 238.641 62.7117C238.777 62.7714 238.929 62.8219 239.093 62.8792C239.462 63.014 239.842 63.1206 240.227 63.1984C240.442 63.2403 240.667 63.2839 240.903 63.3296C241.138 63.3712 241.386 63.3864 241.643 63.414C242.191 63.4668 242.741 63.4852 243.291 63.4689C243.582 63.4659 243.878 63.4294 244.182 63.4071C244.334 63.3935 244.488 63.3795 244.642 63.3653C244.796 63.34 244.951 63.3148 245.107 63.289C245.418 63.2302 245.741 63.1948 246.057 63.1081C246.374 63.0265 246.695 62.9436 247.021 62.8596C247.34 62.7506 247.654 62.6428 247.964 62.5362C248.275 62.435 248.564 62.2868 248.856 62.1648C249.001 62.1 249.144 62.0362 249.286 61.973C249.423 61.8996 249.559 61.8266 249.694 61.7547C249.96 61.606 250.227 61.4738 250.472 61.3158C250.94 61.0266 251.39 60.7083 251.818 60.363C252.018 60.1985 252.216 60.0497 252.391 59.8852C252.562 59.7178 252.726 59.5574 252.883 59.4039C253.162 59.1269 253.42 58.829 253.655 58.5134C253.76 58.3753 253.859 58.2497 253.941 58.1247C254.019 57.9964 254.086 57.8777 254.145 57.7687C254.378 57.3325 254.449 57.0549 254.342 56.9643Z" fill="#171C22"/>
<path fill-rule="evenodd" clip-rule="evenodd" d="M227.06 27.7778C227.565 28.4608 228.084 29.1802 228.187 30.0194C228.289 30.8585 227.823 31.8455 226.953 32.0738C226.269 32.2532 225.585 31.9325 224.94 31.6917C222.567 30.841 219.955 30.9636 217.672 32.0335C215.416 33.0908 213.685 35.0206 212.877 37.38C212.587 38.275 212.529 39.3024 213.122 40.0215C214.726 41.9688 216.532 40.3556 218.159 40.2133C221.46 39.925 223.671 42.6553 226.837 43.4496C229.218 44.047 232.264 44.5049 234.645 43.7406C237.161 42.9332 240.097 41.5302 241.42 39.4354C242.809 37.2345 243.809 34.3469 242.927 32.032" fill="#B39370"/>
<path fill-rule="evenodd" clip-rule="evenodd" d="M232.198 36.7752C228.092 33.8637 225.404 29.0154 224.165 23.9801C222.927 18.9447 223.01 13.7026 223.479 8.59838C223.641 6.84826 223.863 5.04944 224.701 3.5636C225.538 2.07805 227.145 0.973754 228.786 1.3081C230.328 1.62225 231.506 3.11553 232.025 4.70471C232.544 6.29389 232.537 7.99085 232.588 9.65219C232.782 15.831 233.843 21.9517 235.74 27.8342C236.228 29.3459 236.777 30.8796 236.785 32.4572C236.792 34.0348 236.123 35.7003 234.776 36.2962C233.43 36.8921 231.493 35.8781 231.435 34.2993" fill="#B39370"/>
<path fill-rule="evenodd" clip-rule="evenodd" d="M231.911 4.16732C232.365 2.4953 233.328 0.466362 235.309 0.059565C236.499 -0.17709 237.718 0.303346 238.427 1.28886C239.042 2.16511 239.187 3.25545 239.32 4.31579L241.366 20.6218C241.589 22.4016 241.708 24.4588 240.173 25.9422C235.396 30.5595 230.577 23.7411 230.194 20.5713C229.571 15.4071 230.478 9.44529 231.911 4.16732Z" fill="#B39370"/>
<path fill-rule="evenodd" clip-rule="evenodd" d="M238.341 6.62361C238.886 4.9789 239.958 3.00549 241.958 2.70737C243.16 2.53604 244.35 3.08239 245.005 4.10532C245.571 5.01394 245.656 6.11051 245.731 7.17649L246.885 23.5698C247.011 25.3591 247.017 27.4198 245.404 28.8172C240.383 33.1667 235.942 26.0949 235.733 22.9091C235.391 17.7185 236.622 11.8152 238.341 6.62361Z" fill="#B39370"/>
<path fill-rule="evenodd" clip-rule="evenodd" d="M242.323 11.3836C242.867 9.73891 243.94 7.7655 245.939 7.46738C247.141 7.29605 248.331 7.8424 248.986 8.86533C249.553 9.77395 249.637 10.8705 249.712 11.9365L250.866 28.3298C250.992 30.1191 250.999 32.1798 249.385 33.5772C244.364 37.9267 239.924 30.8549 239.714 27.6692C239.373 22.4785 240.604 16.5752 242.323 11.3836Z" fill="#B39370"/>
<path fill-rule="evenodd" clip-rule="evenodd" d="M250.91 29.8392C250.672 36.9935 248.504 39.4248 234.644 43.7419C229.485 37.9585 230.684 30.9996 230.684 30.9996L231.919 22.2737L238.845 18.8723L245.537 25.6418L250.91 29.8392Z" fill="#B39370"/>
<path fill-rule="evenodd" clip-rule="evenodd" d="M244.522 52.1757C246.269 51.5688 247.902 50.6721 249.352 49.5229C249.771 49.185 249.977 48.6473 249.89 48.1152L249.823 47.7126L248.694 41.1548L247.254 32.8015L237.996 34.3548L232.85 35.2168L232.267 35.3142L233.482 42.5566L234.175 46.4859L234.879 50.4713L235.066 51.5908C235.18 52.1158 235.546 52.5499 236.044 52.7497C238.218 53.4573 241.338 53.3118 244.522 52.1757Z" fill="#B39370"/>
<path d="M236.338 31.8466C236.405 31.7673 236.377 31.6088 236.246 31.3944C236.054 31.1055 235.81 30.8537 235.528 30.6514C235.113 30.3429 234.651 30.1033 234.161 29.9412C232.935 29.5273 231.602 29.5623 230.4 30.0395C229.918 30.2268 229.469 30.4905 229.071 30.8204C228.8 31.0372 228.57 31.3008 228.392 31.5995C228.273 31.8205 228.253 31.9805 228.324 32.0559C228.476 32.2142 228.937 32.0016 229.626 31.7489C230.019 31.601 230.422 31.4784 230.831 31.3813C231.804 31.1464 232.816 31.12 233.8 31.3035C234.213 31.3792 234.622 31.4808 235.023 31.6076C235.724 31.8243 236.195 32.0126 236.338 31.8466Z" fill="#5E3F26"/>
<path d="M234.611 27.7895C234.663 27.7964 234.723 27.726 234.789 27.5832C234.879 27.378 234.948 27.1645 234.996 26.9457C235.078 26.6042 235.141 26.2586 235.184 25.9103C235.233 25.5032 235.272 25.0364 235.282 24.5185C235.303 23.2999 235.188 22.0831 234.939 20.89C234.79 20.183 234.599 19.4858 234.366 18.8023C234.113 18.0814 233.823 17.3738 233.499 16.6819C233.203 16.0693 232.986 15.422 232.851 14.7551C232.759 14.1313 232.744 13.4982 232.808 12.8705C232.861 12.2428 232.953 11.6266 233.026 11.0352C233.104 10.4737 233.149 9.908 233.161 9.34145C233.172 8.86102 233.135 8.38028 233.051 7.90727C232.988 7.54531 232.88 7.19256 232.73 6.85673C232.472 6.30592 232.208 6.08173 232.123 6.12924C232.024 6.1818 232.099 6.4918 232.159 7.02093C232.234 7.76623 232.208 8.51865 232.084 9.25712C232.013 9.73192 231.905 10.2468 231.778 10.8196C231.652 11.3924 231.509 12.018 231.41 12.7107C231.291 13.4626 231.278 14.2272 231.371 14.9826C231.505 15.7855 231.751 16.5655 232.101 17.2998C232.425 18.0202 232.718 18.6527 232.957 19.3086C233.2 19.9583 233.401 20.5981 233.569 21.2152C233.862 22.3159 234.074 23.4365 234.203 24.5681C234.261 25.0539 234.297 25.4966 234.33 25.8877C234.359 26.2811 234.384 26.6196 234.404 26.897C234.419 27.1149 234.446 27.332 234.484 27.5473C234.516 27.699 234.558 27.783 234.611 27.7895Z" fill="#5E3F26"/>
<path d="M241.379 27.6562C241.475 27.6862 241.677 27.4128 241.903 26.8608C242.039 26.5252 242.153 26.1805 242.243 25.8295C242.366 25.3636 242.457 24.89 242.517 24.4123C242.678 23.1577 242.657 21.8863 242.454 20.638C242.335 19.8962 242.157 19.1658 241.92 18.4531C241.676 17.7028 241.339 16.9798 241.045 16.2781C240.753 15.6367 240.539 14.9627 240.405 14.2708C240.308 13.617 240.278 12.9551 240.315 12.2951C240.34 11.6403 240.396 10.9972 240.43 10.3825C240.469 9.80023 240.472 9.21616 240.439 8.63358C240.411 7.76268 240.196 6.90841 239.809 6.12807C239.506 5.58469 239.226 5.36971 239.144 5.42256C239.048 5.48106 239.146 5.79373 239.25 6.33266C239.386 7.09191 239.423 7.86601 239.359 8.63507C239.326 9.12679 239.258 9.66364 239.169 10.2551C239.083 10.8484 238.978 11.4924 238.91 12.1997C238.825 12.9634 238.83 13.7343 238.925 14.4968C239.056 15.3163 239.295 16.1148 239.635 16.8714C239.951 17.6208 240.273 18.2904 240.506 18.9478C240.737 19.5844 240.925 20.2359 241.069 20.8978C241.315 22.0297 241.439 23.1844 241.439 24.3428C241.446 24.8413 241.421 25.2933 241.4 25.6923C241.374 26.0911 241.349 26.4376 241.324 26.7221C241.282 27.2925 241.273 27.6233 241.379 27.6562Z" fill="#5E3F26"/>
<path d="M246.15 27.1896C246.252 27.2116 246.404 26.9779 246.58 26.5242C246.681 26.2484 246.766 25.9672 246.836 25.6821C246.922 25.3499 246.997 24.9674 247.067 24.5419C247.216 23.5469 247.292 22.5427 247.295 21.5367C247.308 20.405 247.244 19.1692 247.136 17.8856C246.912 15.326 246.618 13.0293 246.332 11.3679C246.045 9.70806 245.762 8.69078 245.552 8.70948C245.342 8.72819 245.244 9.77963 245.256 11.4641C245.266 13.1471 245.391 15.47 245.613 18.0144C245.72 19.2835 245.824 20.4834 245.887 21.5714C245.953 22.6594 245.984 23.6369 245.989 24.4599C245.989 24.8721 245.989 25.2453 245.989 25.5731C245.993 25.9033 245.982 26.1863 245.994 26.423C246.001 26.8927 246.046 27.1674 246.15 27.1896Z" fill="#5E3F26"/>
<path d="M228.776 14.9439C228.692 14.7227 228.512 14.5514 228.288 14.4771C227.73 14.2461 227.128 14.141 226.525 14.1686C226.289 14.1624 226.062 14.2628 225.907 14.4421C225.795 14.682 225.855 14.9671 226.053 15.1423C226.662 15.7786 227.614 15.9449 228.402 15.5529C228.698 15.3807 228.825 15.1464 228.776 14.9439Z" fill="#5E3F26"/>
<path d="M237.982 14.9994C237.925 14.793 237.692 14.6639 237.399 14.5623C236.705 14.3592 235.991 14.2291 235.27 14.1739C235.018 14.1279 234.759 14.203 234.57 14.3767C234.448 14.5439 234.502 14.8316 234.763 15.1294C235.491 15.862 236.597 16.0636 237.536 15.6354C237.886 15.4492 238.038 15.1992 237.982 14.9994Z" fill="#5E3F26"/>
<path d="M244.092 14.4536C244.226 14.0527 243.922 13.5904 243.414 13.4206C242.906 13.2507 242.385 13.4381 242.252 13.8389C242.118 14.2398 242.422 14.7024 242.93 14.872C243.438 15.0418 243.959 14.8544 244.092 14.4536Z" fill="#5E3F26"/>
<path d="M223.196 36.2239C222.984 36.2485 222.822 36.4709 222.676 36.7655C222.367 37.477 222.114 38.2122 221.922 38.9637C221.856 39.2859 221.847 39.5608 221.999 39.7111C222.146 39.8569 222.448 39.8364 222.792 39.6057C223.652 38.9506 224.033 37.8407 223.757 36.7946C223.626 36.4009 223.402 36.1996 223.196 36.2239Z" fill="#5E3F26"/>
<path d="M224.345 39.5364C224.164 39.4652 223.968 39.4387 223.774 39.4595C223.465 39.4399 223.195 39.6689 223.164 39.978C223.112 40.1659 223.106 40.3637 223.147 40.5546C223.198 40.7669 223.366 40.9314 223.579 40.9771C224.1 41.063 224.592 40.7096 224.678 40.1876C224.686 40.1362 224.691 40.0846 224.691 40.0326C224.681 39.8138 224.546 39.6211 224.345 39.5364Z" fill="#5E3F26"/>
<path d="M235.616 43.1195C235.647 43.2201 235.844 43.2614 236.187 43.2406C236.391 43.2195 236.594 43.1836 236.793 43.1334C236.908 43.1005 237.032 43.0654 237.163 43.0283C237.29 42.9811 237.425 42.9312 237.567 42.8787C237.873 42.7531 238.17 42.6076 238.457 42.4434C238.788 42.2524 239.105 42.0398 239.408 41.807C239.741 41.5454 240.055 41.2604 240.347 40.9537C240.663 40.6238 240.952 40.2695 241.212 39.8939C241.283 39.7858 241.354 39.678 241.424 39.5714C241.46 39.5186 241.491 39.4628 241.522 39.4081C241.552 39.3568 241.598 39.2781 241.584 39.3C241.581 39.2926 241.58 39.2849 241.581 39.2772C241.622 39.2804 241.45 39.2092 241.963 39.3891C242.305 39.4954 242.657 39.5613 243.013 39.5851C243.596 39.6314 244.182 39.5596 244.736 39.3743C244.943 39.3069 245.142 39.2181 245.33 39.11C245.472 39.0313 245.604 38.9378 245.726 38.8309C245.807 38.7626 245.875 38.6815 245.929 38.5904C245.966 38.5224 245.973 38.4686 245.951 38.4288C245.929 38.3894 245.878 38.3653 245.803 38.3546C245.707 38.3463 245.609 38.3475 245.513 38.3579C245.397 38.3686 245.257 38.3816 245.092 38.3971C244.932 38.4125 244.751 38.428 244.553 38.4303C244.095 38.4464 243.638 38.4027 243.192 38.3009C242.933 38.2433 242.68 38.1613 242.436 38.0568C242.371 38.0319 242.308 38.003 242.247 37.971C242.123 37.9152 242.003 37.8504 241.888 37.7774C241.589 37.6001 241.29 37.4136 240.985 37.2224C240.88 37.4172 240.775 37.6141 240.668 37.813C240.56 38.0108 240.457 38.2237 240.338 38.422L240.222 38.6153C240.194 38.661 240.168 38.708 240.136 38.7522C240.076 38.8422 240.015 38.9327 239.955 39.0242C239.524 39.6412 239.034 40.2149 238.492 40.7366C238.237 40.9747 237.989 41.1968 237.746 41.3943C237.503 41.5927 237.268 41.7687 237.05 41.9291C236.94 42.0081 236.835 42.0835 236.736 42.1548C236.634 42.2242 236.538 42.2899 236.448 42.3513C236.269 42.4787 236.108 42.58 235.982 42.6824C235.722 42.8668 235.586 43.0182 235.616 43.1195Z" fill="#5E3F26"/>
<path d="M214.916 39.1615C214.701 39.3616 214.626 39.6719 214.727 39.9483C214.869 40.212 215.219 40.2622 215.518 40.2812C215.815 40.3145 216.116 40.3052 216.411 40.2533C216.709 40.1989 216.97 40.019 217.127 39.7595C217.299 39.4002 217.207 38.9702 216.904 38.7116C216.297 38.1982 215.365 38.6484 214.916 39.1615Z" fill="#5E3F26"/>
<path fill-rule="evenodd" clip-rule="evenodd" d="M96.5395 313.035C90.1373 313.811 88.0116 312.829 81.6474 313.861C75.7221 314.821 72.2392 316.113 66.8323 312.495C65.0809 311.322 63.6914 309.402 63.7045 307.293C63.7142 305.723 64.4756 304.267 65.263 302.91C67.4602 299.123 70.0747 295.807 74.181 294.06C75.8463 293.352 77.5369 292.697 79.2135 292.016C84.772 289.758 83.168 289.939 88.7264 287.681L93.9011 285.579C96.9566 284.338 100.459 285.094 102.732 287.485L114.535 299.902L96.5395 313.035Z" fill="#354A4C"/>
<path d="M90.4837 302.627C90.3301 302.459 90.0332 302.443 89.6189 302.566C89.3769 302.64 89.1435 302.738 88.9222 302.861C88.6354 303.012 88.3598 303.183 88.0971 303.373C87.4202 303.861 86.7953 304.417 86.2321 305.033C85.9192 305.382 85.5903 305.752 85.2878 306.165C84.9743 306.569 84.6821 307.011 84.3912 307.469C84.1138 307.936 83.8514 308.396 83.6316 308.859C83.4002 309.315 83.2184 309.775 83.0479 310.212C82.7525 310.993 82.5377 311.802 82.4078 312.627C82.3568 312.947 82.3284 313.271 82.3233 313.595C82.3132 313.848 82.3304 314.101 82.3743 314.35C82.4511 314.776 82.5994 315.035 82.818 315.096C83.0363 315.158 83.3044 315.019 83.5984 314.727C83.7645 314.554 83.9208 314.371 84.067 314.181C84.2343 313.966 84.3986 313.715 84.5866 313.443C84.9467 312.892 85.3518 312.241 85.7831 311.52C86.2164 310.805 86.6927 310.02 87.1928 309.195C87.7026 308.377 88.1887 307.597 88.6306 306.888C89.0797 306.178 89.4777 305.522 89.8063 304.952C89.9641 304.662 90.1142 304.402 90.2305 304.155C90.3346 303.939 90.4265 303.717 90.5063 303.491C90.6341 303.096 90.6371 302.794 90.4837 302.627Z" fill="#171C22"/>
<path fill-rule="evenodd" clip-rule="evenodd" d="M188.971 353.55C190.904 359.709 190.328 361.982 192.506 368.057C194.533 373.713 196.439 376.905 193.875 382.889C193.045 384.827 191.413 386.546 189.339 386.919C187.796 387.196 186.226 386.713 184.75 386.187C180.629 384.717 176.895 382.75 174.428 379.028C173.428 377.518 172.476 375.974 171.5 374.449C168.266 369.391 168.737 370.937 165.503 365.879L162.492 361.17C160.714 358.39 160.816 354.804 162.748 352.129L172.782 338.241L188.971 353.55Z" fill="#354A4C"/>
<path d="M179.858 361.415C179.722 361.597 179.76 361.892 179.957 362.277C180.073 362.502 180.213 362.714 180.374 362.909C180.575 363.164 180.793 363.403 181.028 363.627C181.631 364.204 182.291 364.717 182.999 365.159C183.399 365.403 183.823 365.659 184.283 365.881C184.738 366.116 185.225 366.323 185.729 366.525C186.237 366.713 186.738 366.887 187.232 367.019C187.722 367.163 188.207 367.257 188.668 367.345C189.488 367.493 190.322 367.557 191.156 367.534C191.48 367.525 191.803 367.494 192.122 367.44C192.372 367.403 192.618 367.34 192.854 367.252C193.258 367.098 193.485 366.905 193.506 366.679C193.527 366.452 193.341 366.214 193 365.978C192.8 365.847 192.592 365.726 192.378 365.617C192.136 365.492 191.86 365.376 191.558 365.241C190.952 364.987 190.238 364.708 189.451 364.415C188.67 364.119 187.811 363.794 186.91 363.453C186.014 363.101 185.159 362.765 184.382 362.46C183.602 362.148 182.885 361.876 182.266 361.657C181.951 361.555 181.669 361.455 181.405 361.385C181.174 361.323 180.939 361.273 180.702 361.236C180.292 361.181 179.995 361.233 179.858 361.415Z" fill="#171C22"/>
<path fill-rule="evenodd" clip-rule="evenodd" d="M159.522 257.498C169.792 283.953 170.047 320.561 153.833 329.121C138.734 337.091 118.447 331.844 96.6375 313.952C90.6455 309.1 105.119 291.587 111.404 295.984C124.656 306.901 134.779 312.066 138.215 309.868C146.34 304.667 133.973 273.218 130.032 267.327C128.101 262.665 121.854 250.155 122.694 235.472C123.534 220.787 191.597 213.652 197.391 222.329C199.85 226.012 202.308 231.088 204.323 235.886C211.625 251.436 221.851 277.489 220.127 298.481C221.041 322.802 197.399 346.85 191.848 354.396C186.296 362.851 164.67 349.846 170.81 339.652C182.394 321.688 192.268 314.017 192.809 297.652C193.35 281.287 185.463 260.713 177.626 255.074C170.016 252.468 159.522 257.498 159.522 257.498Z" fill="#171C22"/>
<path d="M199.428 211.108C199.468 213.555 199.452 215.913 199.369 218.143C198.09 222.045 197.643 222.235 195.555 223.939C185.522 231.601 149.778 236.738 125.811 236.263C122.772 236.203 120.113 234.216 119.2 231.313C109.059 199.074 98.9217 145.557 95.2291 134.084C100.414 128.838 109.781 125.168 136.958 119.176C157.271 115.149 171.599 114.417 180.521 116.117C181.981 116.396 183.291 116.716 184.461 117.098C185.584 117.464 186.578 117.887 187.444 118.386C187.444 118.386 187.444 118.387 187.445 118.388C188.773 122.333 190.074 126.729 190.97 130.51C192.281 136.041 193.438 140.898 194.367 147.681C194.568 149.15 194.855 150.284 195.088 151.865C196.593 162.056 197.533 180.221 198.868 198.964L199.428 211.108Z" fill="#E24444"/>
<path d="M195.98 159.383C196.12 159.377 196.235 159.023 196.32 158.381C196.367 158.059 196.388 157.669 196.407 157.214C196.428 156.758 196.425 156.242 196.411 155.672C196.387 154.531 196.285 153.178 196.112 151.682C196.019 150.936 195.919 150.152 195.784 149.344C195.66 148.535 195.497 147.702 195.331 146.85C195.147 146 194.971 145.17 194.762 144.376C194.567 143.58 194.345 142.819 194.131 142.095C193.908 141.373 193.681 140.691 193.451 140.059C193.21 139.428 192.995 138.841 192.752 138.318C192.519 137.792 192.301 137.321 192.075 136.92C191.854 136.517 191.666 136.173 191.47 135.908C191.093 135.375 190.827 135.116 190.701 135.178C190.575 135.241 190.599 135.616 190.744 136.229C190.824 136.531 190.901 136.911 191.015 137.338C191.134 137.763 191.252 138.254 191.391 138.792C191.54 139.325 191.67 139.923 191.835 140.553C191.986 141.189 192.148 141.868 192.317 142.583C192.477 143.301 192.655 144.051 192.819 144.835C192.997 145.615 193.154 146.43 193.335 147.26C193.501 148.094 193.663 148.908 193.819 149.695C193.971 150.483 194.117 151.243 194.257 151.967C194.529 153.419 194.773 154.727 194.979 155.825C195.087 156.375 195.186 156.872 195.272 157.309C195.361 157.747 195.455 158.123 195.529 158.431C195.686 159.047 195.839 159.389 195.98 159.383Z" fill="#171C22"/>
<path d="M90.8858 160.202C90.9143 160.34 91.186 160.418 91.6573 160.44C91.8931 160.452 92.1781 160.449 92.5055 160.424C92.8333 160.4 93.2064 160.368 93.613 160.306C94.4295 160.195 95.3911 160.001 96.4449 159.73C96.9698 159.588 97.5215 159.439 98.0838 159.253C98.6491 159.076 99.226 158.868 99.8144 158.649C100.399 158.42 100.968 158.191 101.508 157.947C102.051 157.711 102.562 157.455 103.048 157.212C104.015 156.712 104.862 156.216 105.545 155.755C105.89 155.53 106.19 155.306 106.45 155.105C106.711 154.906 106.926 154.718 107.094 154.552C107.431 154.222 107.582 153.982 107.511 153.86C107.441 153.738 107.156 153.745 106.706 153.859C106.481 153.918 106.214 154.001 105.907 154.102C105.601 154.204 105.262 154.335 104.884 154.474C104.134 154.761 103.249 155.109 102.272 155.5C101.783 155.692 101.269 155.894 100.737 156.103C100.205 156.31 99.6534 156.524 99.0884 156.743C98.5213 156.956 97.9676 157.163 97.4325 157.364C96.896 157.562 96.3787 157.754 95.8858 157.936C94.897 158.295 94.0048 158.625 93.2541 158.91C92.8804 159.058 92.5396 159.187 92.2433 159.315C91.947 159.444 91.6923 159.559 91.4858 159.665C91.0742 159.879 90.8574 160.064 90.8858 160.202Z" fill="#171C22"/>
<path d="M168.727 247.743C168.867 247.756 169.014 247.577 169.161 247.235C169.235 247.065 169.307 246.854 169.368 246.607C169.431 246.359 169.498 246.075 169.543 245.76C169.647 245.128 169.705 244.369 169.707 243.525C169.699 243.103 169.693 242.659 169.65 242.201C169.617 241.742 169.554 241.271 169.484 240.788C169.4 240.308 169.314 239.839 169.203 239.393C169.102 238.945 168.97 238.521 168.846 238.118C168.583 237.316 168.292 236.612 167.997 236.044C167.856 235.758 167.704 235.51 167.568 235.294C167.432 235.078 167.299 234.899 167.175 234.761C166.93 234.482 166.735 234.358 166.606 234.413C166.476 234.468 166.424 234.697 166.439 235.057C166.448 235.237 166.471 235.45 166.501 235.695C166.533 235.94 166.585 236.21 166.634 236.511C166.746 237.102 166.879 237.806 167.028 238.587C167.095 238.976 167.181 239.38 167.249 239.804C167.32 240.225 167.395 240.662 167.471 241.109C167.538 241.558 167.602 241.996 167.665 242.419C167.732 242.843 167.776 243.254 167.833 243.645C167.934 244.434 168.025 245.144 168.102 245.74C168.15 246.041 168.184 246.315 168.23 246.557C168.277 246.8 168.321 247.01 168.369 247.183C168.467 247.53 168.587 247.731 168.727 247.743Z" fill="#354A4C"/>
<path d="M172.341 254.353C172.364 254.492 172.522 254.604 172.78 254.688C172.909 254.729 173.064 254.764 173.241 254.8C173.417 254.834 173.615 254.857 173.833 254.887C174.267 254.937 174.776 254.983 175.335 255.024C175.892 255.068 176.503 255.116 177.145 255.166C177.787 255.223 178.398 255.276 178.954 255.325C179.513 255.377 180.023 255.415 180.459 255.438C180.679 255.444 180.877 255.454 181.057 255.45C181.237 255.444 181.396 255.435 181.53 255.415C181.798 255.375 181.972 255.291 182.018 255.158C182.064 255.025 181.977 254.855 181.774 254.66C181.673 254.561 181.542 254.458 181.383 254.356C181.224 254.254 181.04 254.143 180.828 254.043C180.407 253.834 179.885 253.639 179.29 253.475C178.991 253.4 178.676 253.321 178.344 253.268C178.014 253.207 177.668 253.168 177.314 253.133C176.959 253.108 176.611 253.09 176.276 253.096C175.94 253.094 175.616 253.119 175.309 253.145C174.695 253.207 174.148 253.313 173.699 253.451C173.473 253.514 173.273 253.593 173.1 253.668C172.926 253.742 172.78 253.822 172.664 253.903C172.431 254.061 172.318 254.214 172.341 254.353Z" fill="#354A4C"/>
<path d="M188.213 258.628C188.673 258.304 188.554 257.392 187.946 256.592C187.338 255.792 186.492 255.434 186.058 255.792C185.623 256.15 185.743 257.062 186.325 257.828C186.907 258.594 187.752 258.951 188.213 258.628Z" fill="#354A4C"/>
<path d="M191.96 264.683C192.457 264.419 192.454 263.5 191.953 262.63C191.452 261.759 190.658 261.297 190.181 261.596C189.705 261.896 189.707 262.815 190.188 263.649C190.669 264.484 191.463 264.946 191.96 264.683Z" fill="#354A4C"/>
<path d="M194.937 271.152C195.462 270.95 195.571 270.038 195.179 269.113C194.788 268.189 194.056 267.634 193.546 267.872C193.037 268.11 192.928 269.023 193.304 269.911C193.68 270.798 194.412 271.354 194.937 271.152Z" fill="#354A4C"/>
<path d="M197.127 277.93C197.673 277.791 197.888 276.897 197.607 275.934C197.327 274.971 196.665 274.333 196.131 274.509C195.596 274.686 195.381 275.579 195.651 276.505C195.921 277.432 196.582 278.069 197.127 277.93Z" fill="#354A4C"/>
<path d="M198.522 284.915C199.08 284.839 199.396 283.976 199.228 282.987C199.059 281.998 198.475 281.289 197.924 281.403C197.373 281.516 197.057 282.379 197.219 283.33C197.381 284.281 197.965 284.991 198.522 284.915Z" fill="#354A4C"/>
<path d="M199.116 292.013C199.678 292.002 200.091 291.18 200.036 290.178C199.98 289.177 199.481 288.406 198.92 288.456C198.36 288.506 197.948 289.327 198.001 290.291C198.054 291.254 198.554 292.026 199.116 292.013Z" fill="#354A4C"/>
<path d="M198.895 299.134C199.455 299.187 199.958 298.418 200.019 297.417C200.078 296.415 199.671 295.592 199.108 295.577C198.545 295.563 198.042 296.331 197.984 297.294C197.926 298.257 198.334 299.081 198.895 299.134Z" fill="#354A4C"/>
<path d="M197.846 306.179C198.395 306.298 198.986 305.594 199.163 304.606C199.34 303.618 199.032 302.752 198.475 302.672C197.918 302.592 197.327 303.297 197.157 304.245C196.987 305.194 197.296 306.06 197.846 306.179Z" fill="#354A4C"/>
<path d="M195.955 313.047C196.487 313.233 197.158 312.606 197.454 311.646C197.751 310.686 197.55 309.789 197.007 309.642C196.463 309.496 195.792 310.123 195.508 311.043C195.223 311.963 195.424 312.86 195.955 313.047Z" fill="#354A4C"/>
<path d="M193.218 319.621C193.469 319.745 193.791 319.681 194.089 319.462C194.389 319.245 194.68 318.88 194.886 318.423C195.3 317.507 195.214 316.591 194.693 316.378C194.172 316.164 193.428 316.701 193.032 317.578C192.833 318.018 192.756 318.464 192.791 318.834C192.829 319.206 192.965 319.495 193.218 319.621Z" fill="#354A4C"/>
<path d="M189.716 325.822C190.19 326.125 190.991 325.677 191.506 324.819C192.021 323.962 192.039 323.043 191.549 322.767C191.058 322.491 190.257 322.94 189.759 323.769C189.261 324.599 189.242 325.518 189.716 325.822Z" fill="#354A4C"/>
<path d="M185.658 331.675C186.107 332.014 186.943 331.636 187.526 330.829C188.11 330.022 188.207 329.108 187.744 328.788C187.281 328.468 186.444 328.847 185.875 329.634C185.306 330.422 185.209 331.336 185.658 331.675Z" fill="#354A4C"/>
<path d="M181.231 337.255C181.662 337.616 182.52 337.286 183.145 336.518C183.771 335.749 183.92 334.843 183.479 334.493C183.038 334.143 182.181 334.472 181.565 335.23C180.948 335.987 180.799 336.893 181.231 337.255Z" fill="#354A4C"/>
<path d="M176.6 342.666C177.024 343.037 177.89 342.734 178.536 341.988C179.182 341.243 179.359 340.341 178.932 339.974C178.505 339.608 177.638 339.911 176.996 340.652C176.354 341.394 176.176 342.295 176.6 342.666Z" fill="#354A4C"/>
<path fill-rule="evenodd" clip-rule="evenodd" d="M151.18 117.16L148.599 108.599C156.371 105.119 169.99 97.8283 164.324 79.0334C160.25 65.5224 156.176 46.6227 155.01 43.5919C147.463 21.7166 69.8305 31.3503 116.236 98.65C120.05 102.679 124.746 116.846 127.567 126.483C128.777 130.614 136.375 131.886 143.31 128.776C149.736 125.894 152.309 120.906 151.18 117.16Z" fill="#B39370"/>
<path d="M136.036 109.448C136.004 109.585 136.123 109.748 136.375 109.925C136.524 110.03 136.683 110.119 136.85 110.192C137.063 110.292 137.283 110.378 137.508 110.448C138.089 110.632 138.687 110.758 139.293 110.825C139.635 110.858 139.996 110.893 140.37 110.893C140.745 110.904 141.133 110.886 141.529 110.861C141.925 110.823 142.31 110.78 142.679 110.711C143.048 110.651 143.399 110.559 143.731 110.473C144.319 110.312 144.89 110.093 145.436 109.819C145.646 109.715 145.85 109.596 146.045 109.463C146.199 109.365 146.342 109.252 146.472 109.125C146.693 108.91 146.785 108.731 146.732 108.601C146.679 108.47 146.487 108.4 146.192 108.382C146.045 108.375 145.872 108.378 145.674 108.385C145.476 108.394 145.259 108.42 145.018 108.439C144.547 108.493 143.987 108.558 143.364 108.63C143.055 108.659 142.735 108.705 142.401 108.731C142.067 108.762 141.722 108.794 141.368 108.827C141.014 108.851 140.668 108.873 140.334 108.895C139.999 108.921 139.675 108.927 139.366 108.946C138.74 108.973 138.176 108.998 137.703 109.019C137.461 109.038 137.243 109.046 137.046 109.069C136.85 109.093 136.678 109.117 136.535 109.147C136.247 109.212 136.068 109.311 136.036 109.448Z" fill="#5E3F26"/>
<path d="M151.134 117.007C157.885 120.553 161.545 127.498 163.103 131.189C163.46 132.034 162.691 132.918 161.805 132.681C157.846 131.62 149.039 129.384 142.516 129.111C136.828 133.029 130.964 139.515 128.327 142.531C127.724 143.221 126.591 142.913 126.421 142.011C125.76 138.505 124.694 130.858 126.244 122.094C129.088 134.526 142.516 129.111 142.516 129.111C142.516 129.111 153.168 125.059 151.134 117.007Z" fill="#ECECEC"/>
<path d="M116.758 75.6201C116.626 75.2875 116.434 74.9821 116.19 74.7194C116.096 74.6039 115.969 74.5191 115.826 74.4759C115.682 74.4326 115.529 74.4328 115.385 74.4764C115.087 74.6162 114.955 75.0427 114.888 75.4519C114.773 76.1789 114.773 76.9188 114.888 77.6449C114.957 78.216 115.148 78.7654 115.448 79.2566C116.089 80.2136 117.104 80.0924 117.385 79.0316C117.637 78.0797 117.16 76.527 116.758 75.6201Z" fill="#171C22"/>
<path fill-rule="evenodd" clip-rule="evenodd" d="M84.5146 45.9953C83.6938 45.5273 83.0219 44.8399 82.5749 44.011C82.1279 43.182 81.9236 42.2445 81.9852 41.3044C82.1795 39.0452 84.0452 37.1185 86.4987 36.779C85.6273 34.2156 86.455 31.4391 88.4812 29.9314C90.9687 28.0803 93.9531 29.1175 94.1697 29.1969C94.43 28.0329 94.9225 26.9317 95.6179 25.9587C96.3134 24.9856 97.1978 24.1604 98.2187 23.5318C101.676 21.4658 105.186 22.6358 105.658 22.8017C105.686 21.3955 106.141 20.029 106.961 18.8802C107.782 17.7314 108.931 16.8538 110.259 16.3617C111.586 15.8696 113.031 15.7859 114.404 16.1215C115.777 16.4571 117.015 17.1964 117.956 18.2431C118.11 17.0933 118.611 16.0157 119.394 15.1534C120.177 14.2911 121.205 13.6848 122.34 13.4149C123.476 13.145 124.666 13.2243 125.753 13.6423C126.839 14.0602 127.771 14.7971 128.424 15.7552C129.432 12.9775 132.145 11.2351 134.916 11.4901C136.092 11.6179 137.208 12.0723 138.134 12.8012C139.061 13.5301 139.761 14.5041 140.156 15.6119C141.693 12.1012 145.371 10.3051 148.507 11.1634C150.791 11.7882 152.564 13.7584 153.203 16.2216C153.675 16.0887 156.292 15.3938 158.129 16.7966C160.331 18.4776 160.787 22.6973 158.123 26.2723C158.378 26.2264 160.931 25.7991 162.198 27.2331C163.578 28.7962 163.168 32.2719 160.185 34.5624C162.039 34.6024 163.431 36.098 163.398 37.6491C163.362 39.3588 161.601 40.9015 159.567 40.5702C160.182 40.9907 161.479 42.0177 161.623 43.492C161.84 45.709 159.402 48.4028 155.387 49.0119C155.267 48.7298 155.147 48.4544 155.032 48.181C154.739 47.6256 154.49 47.0482 154.288 46.4541C154.16 46.1563 154.033 45.8646 153.909 45.5789C153.588 44.932 153.183 44.3709 152.589 44.1157C150.774 43.3354 148.266 45.873 146.516 47.2117C138.89 53.0435 130.233 47.8701 125.186 51.336C121.75 53.6956 119.528 60.3751 124.12 78.8413C124.283 81.3889 121.425 80.8463 120.635 78.8469C119.56 76.52 119.527 73.8105 118.404 71.5056C116.978 68.4917 113.65 67.7388 111.879 69.2645C106.826 75.4198 119.612 92.723 113.908 95.8724C113.036 95.8114 112.681 94.9871 112.296 94.3163C111.92 93.6607 111.526 93.0359 111.123 92.4351C110.129 92.9707 107.883 92.5515 106.989 91.292C106.144 90.1021 106.7 88.3722 106.971 87.6649C105.14 89.0011 102.697 88.7156 101.452 87.2489C100.49 86.1161 100.342 84.3958 101.088 82.9251C99.6808 83.8471 97.954 83.9107 96.8448 83.1147C95.3192 82.0204 94.9652 79.3028 96.6803 77.3543L96.6662 77.3344C95.3726 78.0471 93.8741 78.0825 92.9213 77.3763C91.5301 76.3481 91.2498 73.7083 93.0235 71.8222C92.8637 71.8405 90.3172 72.0938 88.9786 70.3798C87.6592 68.6902 88.0132 65.729 90.2588 63.8787C87.4614 64.219 85.1091 62.5392 84.7303 60.4647C84.3514 58.3901 86.09 56.7239 86.2364 56.5885C83.5704 56.8539 81.1388 55.4892 80.3033 53.4413C79.2123 50.7574 80.9155 47.0539 84.5146 45.9953Z" fill="#171C22"/>
<path d="M141.867 27.9482C141.918 27.9583 141.987 27.8997 142.067 27.7935C142.18 27.6497 142.304 27.5151 142.438 27.391C142.644 27.2089 142.878 27.0596 143.13 26.9486C143.469 26.8017 143.828 26.705 144.195 26.6614C144.408 26.6344 144.622 26.6246 144.837 26.6319C145.073 26.6374 145.309 26.6592 145.542 26.697C146.036 26.7722 146.511 26.9384 146.943 27.1869C147.159 27.3144 147.358 27.4702 147.533 27.6501C147.702 27.8305 147.84 28.037 147.943 28.2616C148.049 28.4932 148.117 28.7408 148.142 28.9945C148.144 29.0571 148.15 29.12 148.149 29.1821L148.146 29.2812C148.145 29.3294 148.139 29.3775 148.13 29.4247L148.089 29.5642L148.007 29.8441C147.969 29.944 147.882 30.0755 147.822 30.1901L147.387 30.9634L146.963 31.7175L148.963 31.0513C149.137 30.99 149.302 30.9448 149.467 30.8988C149.632 30.8528 149.802 30.7999 149.954 30.771C150.102 30.7354 150.247 30.711 150.391 30.6839C150.882 30.5822 151.391 30.6098 151.867 30.7642C152.05 30.8387 152.217 30.9482 152.357 31.0865C152.488 31.2252 152.59 31.3881 152.658 31.5659C152.79 31.9397 152.826 32.3405 152.763 32.7323C152.704 33.0903 152.598 33.4392 152.447 33.7699C152.312 34.079 152.171 34.3472 152.058 34.5714C151.829 35.0202 151.721 35.2984 151.803 35.3619C151.885 35.4254 152.136 35.2726 152.52 34.9123C152.756 34.6879 152.971 34.4426 153.163 34.1796C153.436 33.8121 153.645 33.4022 153.783 32.9668C153.962 32.394 153.979 31.7839 153.834 31.203C153.741 30.8524 153.577 30.5249 153.35 30.2408C153.101 29.9407 152.791 29.6967 152.439 29.5249C151.734 29.2201 150.954 29.1231 150.193 29.2451C150.012 29.271 149.828 29.2974 149.65 29.3351C149.637 29.3359 149.642 29.3329 149.639 29.3321C149.639 29.331 149.639 29.3298 149.639 29.3286C149.64 29.3275 149.641 29.3265 149.642 29.3258V29.3258C149.641 29.3307 149.641 29.3144 149.641 29.337L149.645 29.1749C149.645 29.0629 149.636 28.953 149.628 28.8432C149.58 28.4195 149.458 28.0075 149.268 27.626C149.085 27.2575 148.84 26.9234 148.543 26.6384C148.266 26.3774 147.953 26.1569 147.614 25.9836C147.012 25.6814 146.353 25.5057 145.679 25.4675C145.384 25.4492 145.088 25.454 144.794 25.482C144.519 25.5063 144.246 25.5556 143.98 25.6293C143.518 25.7525 143.083 25.958 142.695 26.2359C142.396 26.4502 142.148 26.7269 141.968 27.0463C141.854 27.2462 141.789 27.4701 141.778 27.6995C141.786 27.8569 141.816 27.9366 141.867 27.9482Z" fill="#A2A2A2"/>
<path d="M101.488 71.7309C101.471 71.6974 101.398 71.6901 101.277 71.705C101.157 71.72 100.985 71.7493 100.766 71.7724C100.154 71.8481 99.5334 71.7852 98.9506 71.5885C98.5576 71.456 98.1934 71.2516 97.8766 70.9857C97.5183 70.6771 97.233 70.2936 97.041 69.8625C96.8224 69.3829 96.7238 68.8575 96.7536 68.3311C96.7646 68.0709 96.8188 67.8143 96.9141 67.5714C96.966 67.4573 97.0287 67.3483 97.1012 67.2459C97.1384 67.1967 97.1781 67.1494 97.2201 67.1042L97.2767 67.0444C97.313 67.0136 97.3537 66.9884 97.3975 66.9695L97.5294 66.8991L97.5953 66.8638C97.6251 66.8558 97.6126 66.8292 97.7164 66.8532L97.8943 66.4164L97.9552 66.2779C97.9663 66.2519 97.9707 66.2459 97.9786 66.2291L97.9998 66.1867C98.0097 66.168 98.0213 66.1502 98.0344 66.1337C98.0406 66.132 98.0483 66.1236 98.0481 66.1387C98.0513 66.155 98.0581 66.1705 98.0681 66.1839L98.0721 66.1909L98.0731 66.1948L98.0737 66.1968C97.9215 66.1917 99.4076 66.2378 98.7777 66.2177L98.6869 66.1965L98.5046 66.1541L98.137 66.0685C98.0457 66.0588 98.0835 66.0286 98.0865 66.0039L98.1089 65.9275L98.1553 65.7735L98.2471 65.4968L97.9428 65.3844L97.7908 65.3278L97.6624 65.2616L97.1442 64.9957C97.0996 64.9733 97.0589 64.9531 97.0154 64.9258L96.9458 64.8774L96.8424 64.8057C96.7718 64.7596 96.7039 64.7095 96.6391 64.6557C96.5046 64.5527 96.3758 64.4425 96.2533 64.3256C96.1297 64.2087 96.0125 64.0854 95.9022 63.956L95.7399 63.76L95.5937 63.5519C95.4981 63.4118 95.4119 63.2656 95.3356 63.1143C95.2585 62.9642 95.1908 62.8094 95.133 62.6509C95.0785 62.4924 95.0351 62.3303 95.003 62.1658C94.9551 61.938 94.9352 61.7052 94.9439 61.4725C94.9542 61.2468 94.9903 61.0229 95.0516 60.8051L95.1647 60.4811C95.2165 60.3774 95.2613 60.2723 95.3148 60.1715C95.4263 59.9719 95.5561 59.7829 95.7024 59.6069C95.8464 59.436 96.0075 59.2802 96.1833 59.1419C96.3506 59.0079 96.5333 58.8942 96.7276 58.8032C96.819 58.756 96.9146 58.7177 97.0133 58.6887L97.1375 58.6491C97.2015 58.6327 97.2664 58.6198 97.3319 58.6105C97.4722 58.5974 97.6514 58.6192 97.8076 58.6213L98.2895 58.6419L98.8562 58.6996L99.8879 58.8066L99.7413 58.6399L99.6691 58.5575L99.5735 58.455C99.4457 58.3186 99.3189 58.1829 99.1931 58.048L98.4426 57.2424C98.2031 56.9835 97.9734 56.7137 97.8001 56.4901L97.6343 56.2741C97.5895 56.2104 97.5406 56.1495 97.4995 56.0839C97.1688 55.6271 96.935 55.1081 96.8121 54.5582C96.7129 54.0882 96.7355 53.6005 96.8779 53.1407C96.9935 52.7662 97.2253 52.4372 97.5401 52.2009C97.8149 52.0143 98.1334 51.9013 98.4645 51.8729C98.7195 51.8501 98.9764 51.8798 99.2189 51.9603C99.3771 52.0153 99.5282 52.0885 99.6693 52.1782C99.767 52.2457 99.8384 52.2759 99.8708 52.255C99.9032 52.234 99.8958 52.1615 99.8409 52.0307C99.7441 51.8464 99.603 51.6888 99.43 51.572C99.1486 51.3792 98.8218 51.2616 98.4809 51.2306C98.0119 51.1845 97.5389 51.2734 97.1184 51.4867C96.5927 51.7736 96.1792 52.2279 95.9447 52.7762C95.6794 53.3929 95.5853 54.0684 95.6721 54.7322C95.7728 55.457 96.028 56.1516 96.4207 56.7696C96.4678 56.8501 96.5197 56.9266 96.5696 57.006L96.7079 57.2103C96.7245 57.2344 96.7388 57.26 96.7507 57.2868L96.7697 57.3263C96.7752 57.3377 96.7848 57.3498 96.7521 57.3394C96.7284 57.3337 96.7041 57.3302 96.6797 57.3289L96.666 57.3284C96.666 57.3284 96.6603 57.3299 96.6614 57.3272C96.6583 57.328 96.6718 57.3244 96.6555 57.3288L96.5967 57.3445C96.4402 57.3872 96.2876 57.443 96.1405 57.5114C95.843 57.6406 95.562 57.8049 95.3036 58.0005C95.0431 58.1954 94.8038 58.4169 94.5896 58.6612C94.3735 58.9101 94.1824 59.1792 94.0188 59.4647C93.9386 59.6101 93.8689 59.7629 93.795 59.9138C93.7357 60.0716 93.674 60.2297 93.6216 60.392C93.5232 60.7263 93.465 61.0709 93.4482 61.4185C93.4394 61.5944 93.4433 61.7706 93.4599 61.9458C93.4715 62.1182 93.4955 62.2894 93.5318 62.4582C93.577 62.6942 93.6393 62.9265 93.718 63.1534C93.7988 63.3747 93.894 63.5905 94.003 63.7994C94.1085 64.0047 94.2277 64.2028 94.3597 64.3924L94.5607 64.6678L94.7779 64.9257C95.0683 65.2565 95.3935 65.5554 95.7481 65.8174C95.8327 65.884 95.9208 65.9462 96.0119 66.0039C96.0878 66.0542 96.2351 66.1515 96.1947 66.1234L96.2194 66.1291L96.2792 66.143C96.2823 66.1421 96.2979 66.1475 96.2931 66.1452C96.2918 66.1439 96.2902 66.143 96.2885 66.1426C96.2836 66.142 96.2786 66.1433 96.2747 66.1463C96.2632 66.1535 96.2534 66.1632 96.2461 66.1746L96.2394 66.1848L96.236 66.1899C96.2404 66.1848 96.2249 66.2036 96.2457 66.1789L96.2315 66.1956L96.2031 66.2292C96.1287 66.3171 96.0593 66.4089 95.9952 66.5044C95.8744 66.6914 95.7731 66.8901 95.6931 67.0975C95.5566 67.4852 95.489 67.8933 95.4933 68.3035C95.4936 69.0272 95.6772 69.7385 96.027 70.3719C96.3292 70.9282 96.7579 71.4065 97.2791 71.7688C97.7185 72.0682 98.2152 72.2751 98.7387 72.3766C99.4534 72.5282 100.198 72.463 100.877 72.1896C101.053 72.1201 101.217 72.0255 101.366 71.9089C101.465 71.8225 101.505 71.7644 101.488 71.7309Z" fill="#A2A2A2"/>
<path d="M90.4654 47.8605C90.4977 47.8393 90.508 47.7808 90.5014 47.6955C90.4948 47.6102 90.4772 47.4924 90.4722 47.3489C90.4622 47.1772 90.4741 47.0048 90.5075 46.8359C90.5498 46.6148 90.6264 46.4015 90.7346 46.2036C90.8631 45.9667 91.0336 45.7547 91.2379 45.5778C91.3477 45.4833 91.4687 45.4025 91.5983 45.3372C91.7406 45.2622 91.8903 45.202 92.045 45.1577C92.3939 45.0606 92.757 45.0254 93.1177 45.0534C93.2218 45.0591 93.2973 45.0685 93.428 45.0859L93.7373 45.1374C93.8454 45.1593 93.9667 45.1957 94.0824 45.2245C94.5584 45.3613 95.0957 45.5398 95.5723 45.6824C95.4566 45.3188 95.3397 44.951 95.2215 44.5789L95.1369 44.2948L95.0937 44.1516L95.0723 44.0798L95.0661 44.0216L95.0406 43.7868L95.0278 43.6684C95.0262 43.6509 95.0224 43.6244 95.0223 43.6139L95.024 43.5877C95.0324 43.3029 95.0866 43.021 95.1845 42.7529C95.2335 42.6151 95.2948 42.4819 95.3676 42.3548C95.4377 42.226 95.5205 42.1045 95.6148 41.9919C95.7067 41.8788 95.8093 41.7745 95.9209 41.6806C95.9757 41.6329 96.0369 41.5944 96.0935 41.549L96.2805 41.4366L96.4512 41.3535L96.6292 41.2842L96.8133 41.2295L97.0018 41.1892C97.1282 41.1686 97.2558 41.156 97.3837 41.1515C97.5114 41.1484 97.6391 41.1541 97.7659 41.1688C97.8908 41.1814 98.0144 41.204 98.1356 41.2362C98.1958 41.2493 98.2551 41.2667 98.3129 41.2881C98.3949 41.3117 98.4737 41.3454 98.5473 41.3884L98.7201 41.4777L98.8063 41.5223C98.8382 41.5437 98.8749 41.5746 98.9085 41.6L99.3225 41.9219C99.59 42.1406 99.855 42.3573 100.118 42.5719C100.187 42.0336 100.243 41.4832 100.331 40.9581C100.352 40.8279 100.368 40.6922 100.393 40.5696C100.4 40.5321 100.41 40.4953 100.424 40.4596L100.437 40.4199L100.461 40.3433C100.489 40.2408 100.525 40.1403 100.567 40.0428C100.719 39.6622 100.926 39.3051 101.18 38.9827C101.407 38.6869 101.667 38.4172 101.955 38.1787C102.206 37.9719 102.476 37.7893 102.762 37.6332L102.953 37.5269L103.142 37.4431C103.256 37.3869 103.373 37.3385 103.493 37.2983C103.716 37.2086 103.915 37.1595 104.08 37.107C104.245 37.0545 104.376 37.031 104.467 36.9893C104.557 36.9476 104.608 36.9125 104.611 36.8726C104.613 36.8327 104.568 36.7941 104.475 36.7534C104.339 36.6988 104.196 36.6632 104.05 36.6476C103.818 36.6207 103.584 36.6195 103.351 36.644C103.203 36.6538 103.056 36.6761 102.911 36.7107L102.67 36.762L102.423 36.8409C102.048 36.9632 101.69 37.1297 101.355 37.3367C100.96 37.5814 100.598 37.8758 100.279 38.2128C99.9096 38.5956 99.6025 39.0337 99.3695 39.5109C99.0486 40.248 99.1461 40.0279 99.1055 40.081L99.0816 40.0514L99.0727 40.0409C99.0787 40.0417 99.0304 40.0181 99.0124 40.008C99.015 40.0043 98.8956 39.9594 98.8096 39.9267C98.7193 39.8911 98.6268 39.8607 98.5328 39.8357C98.3447 39.78 98.1523 39.7395 97.9576 39.7144C97.7604 39.6873 97.5613 39.6746 97.3622 39.6767C97.1594 39.6798 96.957 39.697 96.7566 39.7282L96.4544 39.7867L96.1539 39.8738L95.8582 39.9868C95.7613 40.0302 95.6658 40.0791 95.5699 40.1264C95.4606 40.1856 95.3547 40.2538 95.2497 40.3202C95.1493 40.3953 95.0476 40.466 94.9551 40.5462C94.7704 40.7035 94.6016 40.8785 94.4512 41.0685C94.3038 41.2517 94.1748 41.4488 94.0661 41.657C93.9572 41.8584 93.8669 42.0691 93.7964 42.2866C93.656 42.7088 93.5881 43.1511 93.5954 43.5951C93.5984 43.7185 93.6075 43.7065 93.6126 43.7231L93.6386 43.7718C93.6367 43.7828 93.6146 43.7801 93.5929 43.7859C93.5716 43.7893 93.55 43.7909 93.5284 43.7906C93.4261 43.788 93.2702 43.7789 93.1449 43.7841C92.6329 43.7883 92.1262 43.89 91.652 44.0835C91.4312 44.175 91.2212 44.2906 91.026 44.4282C90.8381 44.5578 90.6678 44.7111 90.5195 44.8842C90.2642 45.1817 90.0736 45.5284 89.9597 45.9023C89.8675 46.1996 89.8345 46.5117 89.8624 46.8211C89.8806 47.0491 89.9436 47.2712 90.0479 47.4749C90.1081 47.602 90.1954 47.7145 90.3036 47.8048C90.3783 47.8653 90.4334 47.8817 90.4654 47.8605Z" fill="#A2A2A2"/>
<path d="M107.368 61.6586C107.441 61.5773 107.343 61.3752 107.189 61.0522C106.979 60.6177 106.831 60.1558 106.75 59.68C106.638 59.0216 106.712 58.3445 106.964 57.7241C107.119 57.3777 107.33 57.0592 107.591 56.7819C107.875 56.4843 108.209 56.2374 108.578 56.0522C108.678 56.0009 108.781 55.9553 108.886 55.9157C108.978 55.8823 109.072 55.8544 109.168 55.8321C109.289 55.7916 109.415 55.7649 109.543 55.7526L110 55.7047L110.471 55.6648L111.349 55.591C111.019 55.2374 110.694 54.8898 110.374 54.5479L110.251 54.4157L110.19 54.3503L110.148 54.2914L109.983 54.059L109.821 53.8307C109.802 53.8081 109.787 53.7828 109.776 53.7557L109.751 53.7026C109.612 53.4313 109.514 53.1408 109.461 52.8407C109.409 52.5634 109.388 52.2809 109.398 51.9987C109.41 51.7503 109.445 51.5033 109.502 51.2611C109.524 51.1537 109.554 51.0479 109.59 50.9445C109.617 50.8494 109.651 50.7562 109.69 50.6654C109.755 50.4887 109.83 50.3454 109.887 50.2185C109.938 50.1195 109.982 50.0176 110.02 49.9135C110.045 49.8327 110.046 49.7726 110.017 49.7384C109.988 49.7042 109.932 49.6975 109.846 49.7196C109.725 49.7532 109.611 49.8072 109.508 49.8792C109.345 49.9897 109.197 50.1209 109.068 50.2693C108.983 50.3601 108.906 50.4583 108.838 50.5626C108.755 50.6765 108.682 50.7974 108.62 50.9239C108.469 51.2149 108.357 51.5238 108.285 51.843C108.202 52.218 108.172 52.6023 108.195 52.9851C108.218 53.4243 108.314 53.8563 108.48 54.2634L108.534 54.4022L108.543 54.4296C108.548 54.4481 108.557 54.4696 108.553 54.4676C108.551 54.4752 108.548 54.4776 108.543 54.4782C108.533 54.4766 108.524 54.4739 108.516 54.4699C108.501 54.473 108.487 54.4768 108.472 54.4815C108.433 54.4921 108.395 54.5056 108.358 54.522C108.203 54.5788 108.052 54.6448 107.904 54.7196C107.369 54.9885 106.89 55.3582 106.496 55.8081C106.128 56.232 105.846 56.7221 105.666 57.2516C105.51 57.7275 105.444 58.2276 105.47 58.7267C105.492 59.1492 105.578 59.5657 105.726 59.962C105.927 60.5271 106.274 61.0288 106.733 61.4166C107.068 61.6757 107.305 61.7319 107.368 61.6586Z" fill="#A2A2A2"/>
<path d="M118.745 29.4981C118.848 29.5344 119 29.3677 119.246 29.1053C119.574 28.7482 119.951 28.4384 120.365 28.1853C120.939 27.8347 121.599 27.6489 122.272 27.6486C122.653 27.661 123.028 27.7367 123.383 27.8727C123.766 28.0236 124.119 28.2389 124.428 28.5094C124.513 28.5823 124.594 28.6601 124.669 28.7423C124.735 28.8148 124.795 28.8912 124.851 28.971C124.934 29.0681 125.005 29.174 125.064 29.2868L125.277 29.6907L125.489 30.1129C125.622 30.3767 125.752 30.6372 125.881 30.8944L126.497 29.6039L126.573 29.4406L126.612 29.3601L126.652 29.2998L126.808 29.0604L126.961 28.8244C126.976 28.7987 126.994 28.7752 127.015 28.7547L127.055 28.7117C127.257 28.4818 127.492 28.2831 127.753 28.1219C127.993 27.9694 128.249 27.8439 128.517 27.7476C128.753 27.6649 128.997 27.6043 129.244 27.5665C129.352 27.5462 129.462 27.5336 129.572 27.5289C129.671 27.5179 129.771 27.5136 129.87 27.516C130.059 27.5097 130.221 27.5257 130.36 27.5302C130.471 27.5396 130.583 27.5426 130.694 27.5392C130.778 27.5313 130.835 27.5093 130.857 27.47C130.878 27.4306 130.863 27.3759 130.812 27.3046C130.737 27.2058 130.644 27.1208 130.539 27.0533C130.376 26.9442 130.198 26.8569 130.012 26.7934C129.896 26.7489 129.775 26.7147 129.653 26.6912C129.516 26.6574 129.376 26.6358 129.235 26.6264C128.908 26.5964 128.578 26.6082 128.253 26.6615C127.872 26.7262 127.502 26.8427 127.153 27.0077C126.751 27.1927 126.383 27.4432 126.064 27.7487L125.954 27.8506L125.931 27.8699C125.916 27.8822 125.899 27.8976 125.899 27.8937C125.891 27.894 125.888 27.8919 125.886 27.888C125.883 27.8784 125.883 27.8686 125.883 27.8588C125.889 27.8652 125.866 27.8359 125.856 27.8232C125.832 27.7911 125.805 27.761 125.776 27.7332C125.666 27.6115 125.549 27.4965 125.424 27.3886C124.976 26.9953 124.454 26.6927 123.889 26.4975C123.358 26.3178 122.796 26.2419 122.235 26.2738C121.733 26.309 121.241 26.4355 120.785 26.6471C120.398 26.8255 120.041 27.0614 119.725 27.3465C119.271 27.7437 118.93 28.2527 118.738 28.822C118.618 29.2273 118.653 29.4681 118.745 29.4981Z" fill="#A2A2A2"/>
<path d="M147.311 86.5771C146.765 86.1735 146.095 85.9754 145.418 86.0176C145.273 86.0354 145.152 86.1352 145.107 86.2736C145.054 86.4464 145.151 86.6293 145.324 86.6822C145.328 86.6834 145.332 86.6845 145.335 86.6854C145.82 86.821 146.271 87.0548 146.661 87.3726C147.022 87.7002 147.295 88.1124 147.457 88.5718C147.611 89.0311 147.649 89.5219 147.566 89.9993C147.467 90.502 147.247 90.9731 146.925 91.3713C146.811 91.506 146.828 91.7078 146.962 91.8219C147.074 91.9167 147.236 91.9234 147.355 91.8382C147.914 91.4575 148.329 90.9005 148.535 90.2561C148.715 89.7063 148.74 89.1176 148.609 88.5541C149.515 88.3442 150.411 88.107 151.298 87.8423C152.24 87.5593 153.155 87.2854 154.088 86.9749C155.021 86.6645 155.927 86.3631 156.842 85.9978C157.574 85.7238 158.305 85.4498 159.028 85.1483C159.274 85.6596 159.641 86.1029 160.098 86.4393C160.649 86.8319 161.315 87.029 161.991 86.9988C162.13 86.9887 162.245 86.8881 162.274 86.752C162.311 86.5771 162.213 86.4019 162.046 86.3401C161.549 86.2141 161.091 85.9688 160.711 85.6255C160.347 85.3021 160.081 84.8836 159.943 84.4172C159.783 83.955 159.755 83.4576 159.861 82.9805C159.964 82.4855 160.187 82.0236 160.511 81.6359C160.595 81.5166 160.602 81.3597 160.53 81.2333C160.429 81.0817 160.225 81.0403 160.073 81.1408C160.073 81.141 160.073 81.1412 160.072 81.1415C159.513 81.5221 159.098 82.0791 158.892 82.7237C158.709 83.2632 158.681 83.8431 158.809 84.3982C158.05 84.5899 157.291 84.7815 156.55 85.028C155.607 85.3111 154.693 85.585 153.76 85.8954C152.827 86.2059 151.93 86.5347 151.006 86.8726C150.137 87.1922 149.277 87.5394 148.454 87.9049C148.18 87.3802 147.789 86.9259 147.311 86.5771Z" fill="#171C22"/>
<path d="M141.569 69.9212C141.566 69.9108 141.562 69.9011 141.56 69.8907C141.557 69.8804 141.555 69.8701 141.553 69.8598C141.539 69.8076 141.52 69.7596 141.506 69.7081C141.47 69.5842 141.433 69.4611 141.392 69.3413C141.159 68.6238 140.811 67.9482 140.362 67.34L140.332 67.3479C139.376 66.1165 138.1 65.4647 136.917 65.771C135.734 66.0773 134.935 67.2665 134.697 68.8068L134.667 68.8147C134.569 69.5643 134.593 70.3237 134.738 71.0642C134.76 71.189 134.787 71.3144 134.816 71.4401C134.829 71.4922 134.835 71.5434 134.849 71.5956C134.852 71.6059 134.855 71.6157 134.858 71.626C134.86 71.6364 134.862 71.6466 134.865 71.657C134.878 71.7091 134.897 71.7572 134.912 71.8086C134.948 71.9326 134.984 72.0556 135.025 72.1755C135.259 72.893 135.606 73.5685 136.055 74.1768L136.086 74.1689C137.041 75.4002 138.317 76.0521 139.5 75.7458C140.683 75.4394 141.482 74.2502 141.72 72.7099L141.751 72.7021C141.848 71.9524 141.824 71.1931 141.68 70.4525C141.658 70.3277 141.63 70.2023 141.601 70.0766C141.589 70.0246 141.582 69.9733 141.569 69.9212Z" fill="#171C22"/>
<path d="M156.561 66.0394C156.558 66.029 156.554 66.0192 156.552 66.0089C156.549 65.9985 156.547 65.9883 156.545 65.978C156.531 65.9258 156.512 65.8777 156.498 65.8263C156.462 65.7023 156.425 65.5792 156.384 65.4595C156.151 64.7419 155.803 64.0664 155.354 63.4582L155.324 63.4661C154.369 62.2347 153.093 61.5829 151.909 61.8892C150.726 62.1955 149.927 63.3847 149.689 64.925L149.659 64.9329C149.562 65.6825 149.586 66.4418 149.73 67.1824C149.752 67.3071 149.78 67.4326 149.809 67.5583C149.821 67.6103 149.828 67.6616 149.841 67.7137C149.844 67.7241 149.847 67.7338 149.85 67.7442C149.853 67.7545 149.854 67.7648 149.857 67.7752C149.87 67.8272 149.889 67.8754 149.904 67.9268C149.94 68.0507 149.976 68.1738 150.018 68.2936C150.251 69.0112 150.598 69.6867 151.047 70.2949L151.078 70.2871C152.033 71.5184 153.309 72.1702 154.492 71.8639C155.675 71.5576 156.475 70.3684 156.712 68.8281L156.743 68.8202C156.84 68.0706 156.816 67.3113 156.672 66.5707C156.65 66.4459 156.622 66.3205 156.593 66.1948C156.581 66.1428 156.574 66.0915 156.561 66.0394Z" fill="#171C22"/>
<path d="M137.267 72.0634C138.06 71.8581 138.538 71.0581 138.336 70.2765C138.133 69.4948 137.327 69.0276 136.534 69.2328C135.741 69.4381 135.263 70.2381 135.465 71.0197C135.667 71.8014 136.474 72.2686 137.267 72.0634Z" fill="#ECECEC"/>
<path d="M138.177 68.202C138.654 68.0784 138.942 67.5969 138.821 67.1264C138.699 66.6559 138.213 66.3747 137.736 66.4982C137.259 66.6218 136.971 67.1033 137.093 67.5738C137.214 68.0443 137.7 68.3255 138.177 68.202Z" fill="#ECECEC"/>
<path d="M152.243 68.1854C153.036 67.9802 153.514 67.1802 153.312 66.3985C153.109 65.6169 152.303 65.1497 151.51 65.3549C150.717 65.5602 150.239 66.3602 150.441 67.1418C150.644 67.9234 151.45 68.3907 152.243 68.1854Z" fill="#ECECEC"/>
<path d="M153.153 64.3243C153.63 64.2008 153.918 63.7192 153.796 63.2487C153.674 62.7782 153.189 62.497 152.712 62.6205C152.234 62.7441 151.946 63.2256 152.068 63.6961C152.19 64.1666 152.676 64.4479 153.153 64.3243Z" fill="#ECECEC"/>
<path d="M139.933 63.6037C139.901 63.6215 139.866 63.6329 139.83 63.6374C139.794 63.6419 139.757 63.6394 139.722 63.6299C139.618 63.6049 139.517 63.5687 139.421 63.522C139.305 63.469 139.175 63.4012 139.027 63.3282C138.88 63.2545 138.716 63.1735 138.535 63.095C138.357 63.0137 138.157 62.9394 137.946 62.866C137.723 62.7936 137.495 62.7348 137.264 62.6897C137.016 62.6416 136.765 62.6137 136.512 62.6061C136.249 62.5992 135.986 62.615 135.725 62.6534C135.466 62.6987 135.211 62.7662 134.963 62.8552C134.725 62.9416 134.495 63.047 134.274 63.1705C134.069 63.2856 133.87 63.413 133.68 63.5518C133.502 63.6876 133.336 63.8209 133.191 63.9542C133.043 64.0856 132.913 64.2137 132.796 64.3299C132.677 64.4458 132.575 64.551 132.481 64.6377C132.404 64.7122 132.319 64.7783 132.228 64.8348C132.166 64.8751 132.091 64.8898 132.02 64.8758C131.986 64.8635 131.955 64.8436 131.93 64.8176C131.905 64.7917 131.887 64.7604 131.876 64.7262C131.834 64.6162 131.815 64.4988 131.819 64.381C131.821 64.2057 131.845 64.0312 131.891 63.8617C131.951 63.6369 132.034 63.4191 132.142 63.2121C132.272 62.9585 132.428 62.7188 132.608 62.497C133.058 61.9519 133.628 61.5161 134.275 61.2235C134.648 61.0559 135.04 60.9366 135.443 60.8684C135.847 60.8068 136.258 60.7971 136.663 60.8395C137.368 60.915 138.044 61.1504 138.64 61.5274C138.879 61.6817 139.102 61.8605 139.304 62.0607C139.47 62.2238 139.616 62.4046 139.742 62.5997C139.838 62.7463 139.915 62.9045 139.971 63.0705C140.011 63.1812 140.029 63.2988 140.023 63.4165C140.023 63.4524 140.015 63.4879 140 63.5204C139.984 63.5528 139.961 63.5813 139.933 63.6037V63.6037Z" fill="#171C22"/>
<path d="M156.462 58.9329C156.429 58.9527 156.392 58.9652 156.354 58.9697C156.316 58.9741 156.278 58.9704 156.241 58.9588C156.123 58.9273 156.007 58.8845 155.897 58.8308C155.762 58.7687 155.607 58.6894 155.429 58.6051C155.251 58.5199 155.052 58.4267 154.831 58.3378C154.611 58.2456 154.366 58.1632 154.106 58.0834C153.829 58.0053 153.547 57.945 153.262 57.9029C152.955 57.8575 152.644 57.8384 152.332 57.8455C151.678 57.8547 151.031 57.9992 150.434 58.2694C150.15 58.3955 149.876 58.5452 149.617 58.7171C149.377 58.8764 149.147 59.0509 148.93 59.2395C148.728 59.4226 148.54 59.6016 148.381 59.7785C148.218 59.9532 148.078 60.1221 147.953 60.2748C147.827 60.4272 147.721 60.5648 147.624 60.6786C147.547 60.774 147.461 60.8619 147.367 60.9409C147.339 60.9669 147.306 60.9866 147.269 60.9988C147.233 61.0109 147.195 61.0152 147.157 61.0112C147.121 60.9988 147.088 60.9777 147.063 60.9499C147.037 60.922 147.019 60.8883 147.01 60.8517C146.965 60.7258 146.944 60.5926 146.949 60.459C146.95 60.2565 146.975 60.0547 147.023 59.8577C147.085 59.5959 147.175 59.3409 147.29 59.097C147.43 58.7982 147.6 58.5138 147.797 58.2481C148.029 57.9418 148.292 57.6602 148.582 57.4077C148.907 57.125 149.266 56.8814 149.649 56.682C150.485 56.2401 151.426 56.0299 152.371 56.0739C152.803 56.0913 153.23 56.1595 153.644 56.2771C154.014 56.3821 154.372 56.5251 154.711 56.704C155.002 56.8607 155.276 57.0459 155.53 57.2567C155.738 57.4285 155.926 57.6212 156.094 57.8319C156.221 57.9895 156.329 58.1616 156.416 58.3444C156.476 58.4636 156.514 58.593 156.527 58.726C156.534 58.763 156.532 58.8013 156.521 58.8374C156.509 58.8735 156.489 58.9063 156.462 58.9329V58.9329Z" fill="#171C22"/>
</svg>
