<svg width="744" height="300" viewBox="0 0 744 300" fill="none" xmlns="http://www.w3.org/2000/svg">
<path d="M743.574 164.436C742.742 163.246 741.671 162.413 740.839 161.223C740.006 160.033 739.412 158.724 738.579 157.653C737.747 156.582 736.32 155.868 735.488 154.678C734.655 153.488 733.942 152.298 733.109 151.227C732.277 150.155 731.563 148.846 730.731 147.656C729.898 146.466 728.828 145.514 727.996 144.443C727.163 143.372 726.331 142.182 725.498 140.992C724.666 139.802 723.953 138.612 723.12 137.541C722.288 136.47 721.812 135.042 720.98 133.852C720.147 132.662 719.077 131.71 718.244 130.52C717.412 129.33 716.817 128.021 715.985 126.95C715.153 125.879 714.677 124.451 713.844 123.261C713.012 122.07 711.704 121.237 710.872 120.166C710.039 119.095 708.731 118.143 707.899 117.072C707.066 116.001 706.947 114.216 706.115 113.145C705.282 112.074 704.093 111.122 703.261 110.051C702.428 108.98 701.358 107.909 700.526 106.838C699.693 105.767 699.099 104.339 698.266 103.268C697.434 102.197 696.839 100.769 696.007 99.6977C695.174 98.6267 693.509 98.0316 692.677 96.8416C691.845 95.6516 691.131 94.4615 690.299 93.2715C689.466 92.0814 688.515 91.0104 687.682 89.9394C686.85 88.8683 686.374 87.3213 685.542 86.2502C684.709 85.1792 683.996 83.8701 683.164 82.6801C682.331 81.4901 681.261 80.538 680.428 79.467C679.596 78.396 678.764 77.2059 677.931 76.1349C677.099 75.0638 675.791 74.2308 674.839 73.1598C673.888 72.0887 673.174 70.8987 672.342 69.7086C671.51 68.5186 671.153 67.0906 670.201 65.9005C669.25 64.7105 668.061 63.9964 667.229 62.9254C666.396 61.8544 665.445 60.6643 664.612 59.5933C663.78 58.5223 662.71 57.4512 661.877 56.3802C661.045 55.3091 660.569 53.8811 659.618 52.8101C658.666 51.739 657.477 51.025 656.526 50.073C655.575 49.1209 654.504 48.1689 653.553 47.2169C652.602 46.2648 652.126 44.8368 651.175 43.7657C650.223 42.6947 649.51 41.5047 648.558 40.5526C647.607 39.6006 646.061 39.1246 645.11 38.1725C644.158 37.2205 643.326 36.1495 642.375 35.0784C641.423 34.0074 640.591 32.9364 639.758 31.8653C638.807 30.7943 638.212 29.4852 637.261 28.4142C636.31 27.3432 635.002 26.6291 634.05 25.5581C633.099 24.4871 632.742 22.94 631.91 21.869C631.077 20.7979 629.888 19.9649 628.937 18.8939C627.986 17.8228 626.796 16.9898 625.845 15.9188C624.894 14.8477 624.18 13.6577 623.348 12.5866C622.515 11.5156 622.04 9.96855 621.088 9.01652C620.137 8.06449 619.186 6.99345 618.234 5.92241C617.045 4.49436 615.856 3.06631 614.667 1.63826C613.715 0.805231 612.526 0.21021 611.218 0.0912056C609.91 -0.146803 608.602 0.0912057 607.413 0.686227C606.223 1.40025 605.153 2.35229 603.964 3.18531C602.775 4.01834 602.061 5.44639 600.872 6.27942C599.683 7.11245 598.018 7.11245 596.829 7.82648C595.64 8.5405 594.807 9.96855 593.618 10.6826C592.429 11.3966 590.883 11.6346 589.694 12.4676C588.505 13.3007 587.791 14.7287 586.602 15.4427C585.413 16.1568 584.461 17.3468 583.272 18.0608C582.083 18.7749 580.537 19.0129 579.348 19.8459C578.159 20.6789 577.089 21.631 575.899 22.464C574.71 23.297 573.521 24.011 572.332 24.8441C571.143 25.6771 569.834 26.2721 568.764 27.1052C567.694 27.9382 566.386 28.6522 565.197 29.4852C564.008 30.3183 562.937 31.1513 561.748 31.9843C560.559 32.8174 559.37 33.5314 558.181 34.3644C556.991 35.1974 556.159 36.5065 554.97 37.3395C553.781 38.1725 552.71 39.1246 551.64 39.9576C550.57 40.7906 549.024 41.1476 547.835 41.9807C546.645 42.8137 545.218 43.2897 544.148 44.1227C543.078 44.9558 542.008 45.9078 540.818 46.7408C539.629 47.5739 538.44 48.2879 537.251 49.2399C536.062 50.192 535.229 51.263 534.04 52.096C532.851 52.9291 531.662 53.7621 530.591 54.5951C529.521 55.4281 528.213 56.2612 527.143 57.0942C526.073 57.9272 525.24 59.3553 524.17 60.1883C523.1 61.0213 521.91 61.8544 520.721 62.8064C519.532 63.7584 518.462 64.5915 517.392 65.4245C516.321 66.2575 515.013 67.0906 513.943 67.9236C512.873 68.7566 511.802 69.8277 510.613 70.6607C509.424 71.4937 508.592 72.5647 507.402 73.5168C506.213 74.4688 504.667 74.5878 503.478 75.5399C502.408 76.3729 501.813 78.0389 500.743 78.991C499.673 79.943 498.365 80.538 497.294 81.4901C496.224 82.4421 495.273 83.5131 494.084 84.3462C492.894 85.1792 491.348 85.4172 490.159 86.3692C488.97 87.3213 488.019 88.2733 486.949 89.2253C485.878 90.1774 484.808 91.0104 483.619 91.9624C482.43 92.9145 481.359 93.7475 480.289 94.6995C479.219 95.6516 478.505 96.9606 477.435 97.9126C476.365 98.8647 474.938 99.3407 473.868 100.293C472.797 101.245 471.846 102.316 470.776 103.149C469.705 103.982 468.754 105.172 467.684 106.005C466.613 106.838 465.186 107.433 464.116 108.385C463.046 109.337 462.451 110.765 461.381 111.717C460.311 112.669 458.884 113.145 457.814 114.097C456.743 115.049 455.554 115.882 454.484 116.834C453.414 117.786 452.7 119.214 451.63 120.047C450.56 120.88 449.37 121.832 448.3 122.785C447.23 123.737 446.278 125.046 445.208 125.998C444.019 125.165 442.949 123.856 441.76 123.023C440.57 122.189 439.143 121.832 437.954 120.999C436.765 120.166 435.695 119.214 434.387 118.5C433.079 117.786 431.77 117.191 430.581 116.477C429.392 115.763 428.441 114.573 427.252 113.74C426.062 112.907 424.992 111.955 423.684 111.241C422.376 110.527 420.949 110.051 419.76 109.337C418.571 108.623 417.619 107.314 416.43 106.481C415.241 105.648 414.052 104.815 412.862 103.982C411.673 103.149 410.127 102.911 408.938 102.078C407.749 101.245 406.798 100.055 405.608 99.3407C404.419 98.6267 403.349 97.5556 402.041 96.8416C400.733 96.1276 399.544 95.4135 398.354 94.5805C397.165 93.7475 395.619 93.3905 394.43 92.5575C393.241 91.7244 391.933 91.1294 390.744 90.2964C389.555 89.4633 388.841 87.9163 387.652 87.0833C386.463 86.2502 385.036 85.8932 383.728 85.0602C382.419 84.2272 380.992 83.9892 379.803 83.1561C378.614 82.3231 377.544 81.252 376.355 80.538C375.165 79.824 374.333 78.3959 373.144 77.5629C371.955 76.7299 370.171 76.8489 368.982 76.0159C367.792 75.1828 366.841 73.9928 365.652 73.1598C364.463 72.3267 363.155 71.7317 361.965 70.8987C360.776 70.0657 359.825 68.9946 358.636 68.1616C357.447 67.3286 356.376 66.3765 355.187 65.5435C353.998 64.7105 352.571 64.3535 351.263 63.5204C349.955 62.6874 348.884 61.8544 347.695 61.0213C346.506 60.1883 345.317 59.3553 344.128 58.5223C342.463 57.5702 340.441 57.5702 338.776 58.5223C337.587 59.2363 336.755 60.5453 335.566 61.2594C334.376 61.9734 332.831 62.2114 331.641 62.8064L328.074 64.9485C326.885 65.6625 325.577 66.1385 324.387 66.8525C323.198 67.5666 322.128 68.5186 320.939 69.2326C319.75 69.9467 318.798 71.0177 317.49 71.7317C316.182 72.4457 314.755 72.4457 313.447 73.1598C312.139 73.8738 311.187 74.7068 309.998 75.4208C308.809 76.1349 307.977 77.3249 306.669 78.0389C305.36 78.753 304.052 78.991 302.863 79.705C301.674 80.419 300.485 81.2521 299.296 81.8471C298.106 82.4421 296.917 83.1561 295.609 83.8701C294.301 84.5842 292.874 84.5842 291.685 85.2982C290.496 86.0122 289.544 87.2023 288.355 87.9163C287.166 88.6303 285.739 88.8683 284.55 89.5823C283.361 90.2964 282.409 91.1294 281.22 91.7244C280.031 90.8914 278.961 90.1774 277.771 89.3443C276.582 88.5113 275.036 88.2733 273.847 87.5593C272.658 86.8452 271.469 86.0122 270.28 85.1792C269.09 84.3462 268.377 82.7991 267.188 81.9661C265.999 81.1331 264.809 80.419 263.62 79.586C262.431 78.753 261.242 77.9199 260.053 77.0869C258.863 76.2539 257.436 75.8969 256.247 75.0638C255.058 74.2308 253.631 73.8738 252.442 73.0408C251.253 72.2077 250.063 71.3747 248.874 70.5417C247.685 69.7086 247.091 68.0426 245.901 67.2096C244.712 66.3765 243.404 65.7815 242.215 64.9485C241.026 64.1154 239.837 63.2824 238.647 62.4494C237.458 61.6164 236.15 61.0213 234.961 60.1883C233.772 59.3553 232.701 58.4033 231.512 57.5702C230.323 56.7372 228.658 56.7372 227.469 55.9042C226.28 55.0711 225.447 53.7621 224.258 52.9291C223.069 52.096 221.761 51.501 220.572 50.668C219.383 49.8349 217.956 49.3589 216.766 48.6449C215.577 47.9309 214.507 46.8598 213.318 46.0268C212.129 45.1938 210.939 44.3608 209.75 43.5277C208.561 42.6947 207.253 42.0997 206.064 41.2666C204.875 40.4336 203.685 39.6006 202.496 38.7676C201.307 37.9345 200.475 36.6255 199.285 35.7925C198.096 34.9594 196.788 34.3644 195.599 33.5314C194.41 32.6984 192.983 32.2223 191.794 31.5083C190.604 30.7943 190.01 29.0092 188.821 28.1762C187.631 27.3432 186.323 26.6291 185.134 25.9151C183.945 25.2011 182.756 24.2491 181.567 23.416C180.14 22.702 178.475 22.94 177.167 23.773C175.977 24.6061 175.026 25.6771 173.956 26.5101C172.886 27.3432 171.34 27.8192 170.269 28.6522C169.199 29.4852 168.248 30.7943 167.177 31.6273C166.107 32.4603 165.156 33.2934 163.967 34.1264C162.778 34.9594 161.35 35.3164 160.161 36.1495C158.972 36.9825 158.378 38.5296 157.188 39.3626C155.999 40.1956 154.81 41.0286 153.74 41.8617C152.669 42.6947 151.361 43.4087 150.172 44.2418C148.983 45.0748 147.556 45.4318 146.367 46.2648C145.178 47.0979 144.345 48.2879 143.156 49.1209C141.967 49.954 140.659 50.43 139.47 51.263C138.28 52.096 137.448 53.2861 136.378 54.1191C135.307 54.9521 134.356 56.1422 133.286 56.9752C132.216 57.8082 130.67 58.1652 129.599 59.1173C128.529 60.0693 127.578 61.2594 126.507 62.0924C125.437 62.9254 124.129 63.6394 122.94 64.4725C121.751 65.3055 120.205 65.5435 119.135 66.3765C118.064 67.2096 116.875 68.1616 115.805 68.9946C114.735 69.8277 113.902 71.2557 112.832 72.0887C111.762 72.9218 110.691 73.9928 109.621 74.8258C108.551 75.6589 107.362 76.6109 106.291 77.4439C105.221 78.2769 103.913 79.11 102.843 79.943C101.772 80.776 100.583 81.6091 99.513 82.5611C98.4428 83.5131 96.659 83.3941 95.4698 84.2272C94.2806 85.0602 93.8049 86.7262 92.6158 87.5593C91.4266 88.3923 89.9996 88.7493 88.8104 89.5823C87.6212 90.4154 86.3131 91.0104 85.1239 91.8434C83.9347 92.6765 82.9834 93.6285 81.7942 94.4615C80.605 95.2945 79.6537 96.2466 78.4645 97.0796C77.2753 97.9126 76.2051 98.8647 75.1348 99.6977C74.0645 100.531 72.3997 100.888 71.2105 101.721C70.0213 102.554 69.3078 103.982 68.2375 104.815C67.1673 105.648 65.9781 106.6 64.9078 107.433C63.8376 108.266 62.2916 108.742 61.2214 109.575C60.1511 110.408 58.9619 111.36 57.8917 112.193C56.8214 113.026 55.5133 113.74 54.3241 114.573C53.1349 115.406 52.6593 117.191 51.589 118.024C50.5187 118.857 49.2106 119.571 48.0214 120.404C46.8323 121.237 45.5242 121.832 44.4539 122.666C43.3836 123.499 42.1944 124.332 41.1242 125.284C40.0539 126.236 38.8647 127.069 37.7945 127.902C36.7242 128.735 35.1783 129.211 34.108 130.044C33.0377 130.877 32.3242 132.424 31.254 133.257C30.1837 134.09 28.7567 134.685 27.6864 135.637C26.6162 136.589 25.3081 137.303 24.2378 138.136C23.1675 138.969 22.5729 140.516 21.3838 141.468C20.1946 142.42 19.1243 143.134 17.9351 143.967C16.746 144.8 15.5568 145.514 14.4865 146.347C13.4162 147.18 12.4649 148.37 11.3946 149.322C10.3244 150.274 8.5406 150.274 7.47033 151.227C6.40007 152.179 5.44872 153.25 4.25954 154.083C3.07036 154.916 2.35685 156.225 1.28659 157.177C0.0974035 158.129 -0.378269 159.557 0.33524 160.509C1.28659 161.461 2.95144 161.58 4.0217 160.747C5.21089 159.914 6.16223 158.962 7.35141 158.129C8.5406 157.296 9.96761 157.058 11.1568 156.225C12.346 155.392 13.4162 154.559 14.4865 153.726C15.5568 152.893 16.9838 152.536 18.173 151.703C19.3622 150.869 19.9567 149.441 21.1459 148.608C22.3351 147.775 23.5243 147.061 24.7135 146.347C25.9027 145.633 26.854 144.562 28.0432 143.729C29.2324 142.896 30.6594 142.539 31.7296 141.706C32.7999 140.873 33.6323 139.564 34.8215 138.85C36.0107 138.136 37.3188 137.541 38.508 136.708C39.6972 135.875 40.5296 134.804 41.7188 133.971C42.908 133.138 44.335 132.781 45.5242 131.948C46.7133 131.115 47.7836 130.401 48.9728 129.568C50.162 128.735 51.1133 127.783 52.3025 126.95C53.4917 126.117 54.6809 125.522 55.87 124.689C57.0592 123.856 57.7727 122.547 58.9619 121.713C60.1511 120.88 61.5781 120.523 62.6484 119.69C63.7186 118.857 64.67 117.786 65.8592 116.953C67.0484 116.12 68.1186 115.287 69.3078 114.454C70.497 113.621 71.5672 112.788 72.6375 111.955C73.7078 111.122 75.3726 110.884 76.4429 110.051C77.5132 109.218 78.4645 108.028 79.6537 107.195C80.8429 106.362 81.6753 105.291 82.8645 104.458C84.0537 103.625 85.005 102.673 86.1942 101.84C87.3834 101.007 88.5725 100.412 89.7617 99.5787C90.9509 98.7457 91.9023 98.1506 93.0914 97.3176C92.8536 98.6267 93.0914 99.9357 92.8536 101.245C92.6158 102.554 92.259 103.982 91.7833 105.172C91.3077 106.481 91.1887 107.909 90.7131 109.218C90.2374 110.527 89.2861 111.717 88.8104 113.026C88.3347 114.335 87.9779 115.763 87.5023 117.072C87.0266 118.381 86.1942 119.571 85.7185 120.88C85.2428 122.189 85.2428 123.737 84.7672 125.046C84.2915 126.355 82.8645 127.307 82.3888 128.616C81.9131 129.925 82.151 131.472 81.6753 132.9C81.1996 134.328 80.1293 135.28 79.6537 136.589C79.178 137.898 78.7023 139.207 78.2267 140.516C77.751 141.825 77.5132 143.253 77.0375 144.562C76.5618 145.871 76.4429 147.299 75.9672 148.608C75.4915 149.917 74.897 151.227 74.3024 152.536C73.7078 153.845 73.351 155.154 72.8753 156.463C72.3997 157.772 71.3294 158.962 70.8537 160.271C71.3294 160.271 72.0429 160.271 72.6375 160.271C72.8753 160.271 72.9943 160.39 73.2321 160.271C74.5402 159.914 75.7294 159.557 77.0375 159.2C78.3456 158.843 79.5348 158.605 80.8429 158.248C82.151 157.891 83.3401 157.534 84.6482 157.296C85.9563 157.058 87.2644 156.582 88.5725 156.344C89.8806 156.106 91.3077 156.701 92.6158 156.463C93.9239 156.225 95.232 155.273 96.5401 155.035C97.8482 154.797 99.2752 154.916 100.702 154.797C102.129 154.678 103.437 154.559 104.864 154.559C106.054 154.559 107.243 155.154 108.432 155.154C109.621 155.154 110.81 155.392 111.999 155.392C113.189 155.392 114.378 155.035 115.567 155.035C115.686 155.035 115.686 154.202 115.805 154.202C116.637 154.083 117.47 154.559 118.302 154.44C119.491 154.202 120.799 155.154 120.324 156.582C119.848 158.01 119.61 159.557 119.135 160.866C118.659 162.175 118.302 163.722 117.826 165.15C117.351 166.578 116.399 167.768 115.924 169.196C115.448 170.624 115.091 172.052 114.735 173.48C114.378 174.908 114.259 176.455 113.783 177.883C113.308 179.311 112.237 180.502 111.881 181.93C111.524 183.358 111.881 184.905 111.405 186.333C110.929 187.761 109.978 188.951 109.621 190.379C109.264 191.807 109.264 193.235 108.908 194.663C108.551 196.091 108.075 197.519 107.718 198.828C107.362 200.137 106.291 201.446 105.816 202.874C105.34 204.302 105.102 205.73 104.626 207.039C104.151 208.349 104.745 210.015 104.27 211.443C103.794 212.871 102.843 214.061 102.486 215.489C102.129 216.917 102.367 218.464 101.891 219.892C101.416 221.32 100.464 222.51 100.108 223.938C99.7509 225.366 100.108 227.032 99.7509 228.341C99.3941 229.65 98.4428 230.721 98.086 232.03C97.7292 233.339 96.8968 234.41 96.5401 235.719C96.1833 237.029 95.8266 238.219 95.4698 239.528C95.113 240.837 95.7076 242.265 95.3509 243.574C94.9941 244.883 94.6374 246.073 94.3995 247.382C94.1617 248.691 93.3293 249.524 92.9725 250.714C94.0428 249.048 95.3509 247.858 96.659 246.311C97.0157 245.597 97.7292 245.002 98.2049 244.169C98.9184 242.979 99.6319 241.789 100.345 240.599C101.059 239.409 102.248 238.457 102.962 237.386C103.675 236.314 104.151 234.886 104.983 233.696C105.816 232.506 106.529 231.316 107.362 230.245C108.313 229.055 109.621 228.341 110.572 227.151C111.524 225.961 111.999 224.533 112.951 223.343C113.902 222.153 115.21 221.439 116.162 220.249C117.113 219.059 117.589 217.631 118.54 216.441C119.491 215.251 120.799 214.537 121.751 213.347C122.702 212.157 123.178 210.61 124.129 209.539C125.08 208.468 126.507 207.754 127.459 206.563C128.41 205.373 129.48 204.421 130.551 203.35C131.621 202.279 132.453 201.089 133.405 200.018C134.356 198.947 135.07 197.519 136.021 196.448C136.972 195.377 138.161 194.425 139.232 193.354C140.302 192.283 141.491 191.45 142.561 190.379C143.632 189.308 144.226 187.88 145.297 186.809C146.367 185.738 147.913 185.262 148.983 184.191C149.102 184.072 148.745 183.834 148.864 183.715C148.864 182.763 148.745 181.93 148.745 180.978C148.745 179.669 148.745 178.24 148.745 176.931C148.745 175.622 149.696 174.313 149.815 172.885C149.934 171.457 149.697 170.148 149.697 168.839C149.697 167.53 150.053 166.102 150.053 164.793C150.053 163.484 149.578 162.056 149.578 160.747C149.578 159.438 150.172 158.129 150.291 156.701C150.41 155.273 150.529 154.083 150.648 152.655C150.767 151.227 150.648 149.917 150.886 148.608C151.005 147.18 151.48 145.871 151.599 144.443C151.718 143.015 151.837 141.706 152.075 140.278C152.313 138.85 152.669 137.541 152.907 136.232C153.145 134.923 153.74 133.614 154.096 132.186C154.453 130.758 154.572 129.449 155.048 128.14C155.524 126.831 156.594 125.76 157.188 124.57C157.783 123.38 157.902 121.832 158.615 120.642C159.805 119.69 161.113 119.095 162.659 118.857C163.967 118.5 165.632 119.095 167.177 118.738C168.605 118.381 169.794 117.31 171.221 116.953C172.767 116.477 174.313 116.12 175.383 115.763C176.691 115.168 177.88 114.454 179.188 113.859C180.496 113.264 181.686 112.55 182.994 111.955C184.302 111.36 185.61 110.765 186.918 110.17C187.869 109.575 188.94 108.861 190.129 108.147C191.199 107.433 192.269 106.719 193.339 106.124C194.41 105.41 195.361 104.696 196.312 103.982C196.788 103.268 198.215 102.554 199.523 101.245C200.356 100.412 201.188 99.1027 202.377 98.0316C203.329 97.0796 203.923 95.6516 205.112 94.6995C206.183 93.7475 207.491 93.2715 208.68 92.3194C209.75 91.3674 210.583 90.1774 211.653 89.2253C212.723 88.2733 214.388 88.1543 215.458 87.2023C216.529 86.2502 217.242 84.9412 218.312 83.9891C219.383 83.0371 220.334 81.9661 221.404 81.133C222.474 80.181 223.426 79.11 224.496 78.277C225.685 77.3249 226.874 76.6109 227.945 75.7779C229.134 74.8258 230.085 73.7548 231.037 72.9218C232.226 71.8507 233.653 71.4937 234.485 70.6607C235.674 71.4937 236.982 71.8507 238.053 72.5647C239.123 73.2788 240.312 74.1118 241.501 74.9448C242.691 75.7779 243.761 76.6109 244.831 77.4439C245.901 78.2769 246.615 79.705 247.804 80.538C248.993 81.3711 250.301 81.8471 251.372 82.6801C252.442 83.5131 253.393 84.5842 254.582 85.4172C255.772 86.2502 256.961 86.8452 258.15 87.6783C259.339 88.5113 260.528 89.1063 261.599 89.9394C262.669 90.7724 264.096 91.2484 265.166 92.0814C266.236 92.9145 267.188 93.9855 268.377 94.8185C269.566 95.6516 270.993 95.8896 272.182 96.7226C273.371 97.5556 274.085 98.7457 275.274 99.5787C275.512 99.9357 275.75 100.174 275.988 100.412C276.82 101.007 278.128 100.769 278.961 101.364C279.198 101.483 279.198 101.959 279.436 102.078C280.388 102.792 281.458 103.625 282.766 104.458C283.836 105.172 285.025 105.886 286.215 106.719C287.285 107.433 288.474 108.266 289.663 108.98C290.852 109.694 292.279 109.932 293.469 110.646C294.658 111.36 295.728 112.074 296.917 112.907C298.106 113.621 298.82 115.049 300.009 115.882C301.198 116.715 302.506 117.191 303.696 117.905C304.885 118.619 306.193 119.214 307.263 119.928C308.333 120.642 309.998 120.88 311.069 121.594C312.258 122.308 313.328 123.261 314.517 123.975C315.706 124.689 316.539 126.117 317.728 126.831C318.917 127.545 320.344 127.902 321.533 128.616C322.841 129.33 324.15 129.806 325.339 130.401C326.766 131.115 328.074 131.472 329.144 131.948C330.928 132.9 331.998 133.852 332.712 133.971C334.139 133.495 335.566 132.9 336.993 132.305C338.301 131.472 339.371 130.282 340.56 129.449C341.749 128.616 342.939 127.545 344.128 126.712C345.317 125.879 346.625 125.165 347.933 124.332C349.241 123.499 350.549 122.189 351.739 121.356C352.809 122.427 353.76 123.975 354.83 125.046C355.901 126.117 356.733 127.307 357.803 128.378C358.874 129.449 360.301 130.044 361.371 131.115C362.441 132.186 363.155 133.495 364.225 134.566C365.295 135.637 366.603 136.351 367.555 137.422C368.506 138.493 369.101 140.04 370.052 141.111C371.003 142.182 372.43 142.777 373.382 143.848C374.333 144.919 375.403 145.871 376.355 146.942C377.306 148.013 378.138 149.084 379.09 150.274C380.041 151.465 381.111 152.298 381.944 153.488C382.895 154.559 382.895 156.344 383.846 157.415C384.798 158.486 385.749 159.557 386.582 160.628C387.414 161.699 388.841 162.413 389.792 163.484C390.625 164.436 391.814 164.793 393.003 164.555C393.122 163.008 393.36 161.58 393.598 160.033C393.836 158.724 393.836 157.177 394.192 155.63C394.549 154.321 394.906 152.774 395.263 151.346C395.619 149.917 395.857 148.489 396.214 147.061C396.571 145.633 397.879 144.443 398.236 143.015C398.592 141.587 398.117 139.921 398.473 138.493C398.83 137.065 399.663 135.756 400.138 134.328C400.495 132.9 401.208 131.472 401.565 130.163C402.041 128.735 402.16 127.188 402.636 125.879C403.111 124.451 403.111 122.904 403.468 121.475C403.944 119.928 405.133 118.738 405.49 117.429C405.965 115.763 406.084 113.978 406.322 112.907C407.511 113.74 408.463 115.168 409.652 115.882C410.841 116.596 412.268 117.072 413.457 117.905C414.646 118.738 416.192 119.095 417.381 119.928C418.571 120.761 419.284 122.308 420.473 123.142C421.662 123.975 423.208 124.213 424.516 124.927C425.825 125.641 426.895 126.593 428.084 127.426C429.273 128.259 430.343 129.211 431.652 129.925C432.96 130.639 434.03 131.472 435.219 132.305C436.408 133.138 437.597 133.852 438.787 134.685C439.976 135.518 441.046 136.47 442.235 137.303C443.306 138.017 444.495 138.255 445.803 138.136C446.992 137.898 448.181 137.422 449.133 136.589C450.203 135.637 451.035 134.328 452.105 133.376C453.176 132.424 454.603 131.829 455.673 130.877C456.743 129.925 457.576 128.735 458.646 127.783C459.716 126.831 460.43 125.403 461.5 124.451C462.57 123.499 463.759 122.666 464.83 121.713C465.9 120.761 466.851 119.571 467.922 118.738C468.992 117.905 470.181 117.072 471.37 116.12C472.559 115.168 473.749 114.454 474.819 113.502C475.889 112.55 477.316 112.074 478.386 111.122C479.457 110.17 480.527 109.218 481.597 108.266C482.667 107.314 483.738 106.362 484.927 105.529C486.116 104.696 486.949 103.506 488.019 102.554C489.089 101.602 489.803 100.293 490.992 99.3407C492.181 98.3887 493.37 97.6746 494.44 96.8416C495.511 96.0086 496.819 95.1755 497.889 94.2235C498.959 93.2715 500.386 92.7955 501.575 91.8434C502.765 90.8914 503.478 89.5823 504.548 88.6303C505.619 87.6783 506.927 86.9643 507.997 86.1312C509.067 85.2982 510.375 84.4652 511.446 83.6321C512.516 82.7991 513.467 81.4901 514.538 80.657C515.608 79.824 517.154 79.348 518.224 78.396C519.294 77.4439 520.365 76.4919 521.554 75.6589C522.743 74.8258 523.575 73.6358 524.765 72.6838C525.954 71.7317 527.381 71.3747 528.57 70.5417C529.759 69.7086 530.591 68.5186 531.781 67.5666C532.97 66.6145 533.683 65.3055 534.873 64.4725C536.062 63.6394 537.251 62.8064 538.321 61.9734C539.391 61.1403 540.581 60.1883 541.651 59.3553C542.721 58.5223 544.029 57.8082 545.218 56.9752C546.408 56.1422 547.835 55.7852 549.024 54.9521C550.213 54.1191 551.045 52.8101 552.116 51.977C553.186 51.144 554.494 50.311 555.683 49.4779C556.872 48.6449 557.824 47.5739 559.013 46.7408C560.202 45.9078 561.629 45.5508 562.818 44.7178C564.008 43.8847 564.84 42.5757 566.029 41.7427C567.218 40.9096 568.883 40.7906 570.072 39.9576C571.262 39.1246 572.213 38.0535 573.402 37.2205C574.591 36.3875 575.662 35.4354 576.851 34.7214C578.04 34.0074 578.872 32.6983 580.061 31.8653C581.251 31.0323 582.678 30.5563 583.867 29.8423C585.056 29.1282 586.245 28.1762 587.434 27.4622C588.624 26.7481 589.575 25.5581 590.764 24.7251C591.953 23.892 593.499 23.773 594.688 22.94C595.878 22.107 597.186 21.631 598.375 20.7979C599.564 19.9649 600.515 18.7749 601.705 17.9418C602.894 17.1088 604.083 16.2758 605.272 15.5617C606.461 14.8477 608.007 13.6577 609.196 12.8247C608.959 14.0147 608.959 15.7998 608.721 16.9898C608.483 18.1798 607.532 19.2509 607.175 20.4409C606.818 21.631 606.699 22.821 606.342 24.011C606.105 25.4391 605.272 26.6291 604.915 28.0572C604.559 29.4852 604.796 30.9133 604.44 32.3413C604.083 33.7694 603.132 34.9594 602.656 36.2685C602.18 37.5775 601.942 39.0056 601.467 40.4336C600.991 41.8617 600.753 43.1707 600.278 44.5988C599.802 46.0268 599.326 47.3359 598.851 48.6449C598.375 49.954 597.899 51.382 597.424 52.691C596.948 54.0001 596.948 55.5471 596.472 56.8562C595.997 58.1652 595.402 59.4743 595.045 60.9023C594.688 62.3304 594.213 63.6394 593.856 65.0675C593.499 66.4955 593.499 67.9236 593.142 69.3516C592.786 70.7797 592.667 72.2077 592.31 73.5168C591.953 74.8258 591.597 76.2539 591.359 77.6819C591.121 79.11 589.932 80.419 589.813 81.7281C589.694 83.0371 589.932 84.5842 589.813 86.0122C589.694 87.4403 589.456 88.8683 589.456 90.2964C589.456 91.7244 589.337 93.1525 589.456 94.5805C589.575 96.0086 589.813 97.4366 590.051 98.8647C590.288 100.293 590.764 101.602 591.121 103.03C591.478 104.458 592.31 105.648 592.786 106.957C593.261 108.266 593.737 109.575 594.332 110.884C594.926 112.193 594.926 113.74 595.64 115.049C596.353 116.239 597.305 117.31 598.137 118.5C598.969 119.69 599.326 121.118 600.159 122.189C600.991 123.261 601.823 124.451 602.656 125.522C603.488 126.593 605.034 127.188 605.986 128.259C606.937 129.33 607.769 130.401 608.721 131.472C609.672 132.543 610.386 133.852 611.337 134.804C612.288 135.756 613.002 137.184 613.953 138.136C614.905 139.088 616.688 139.326 617.759 140.278C618.829 141.23 619.423 142.539 620.375 143.61C621.326 144.681 622.04 145.99 622.991 146.942C623.942 147.894 625.369 148.489 626.44 149.441C627.51 150.393 628.699 151.108 629.769 152.06C630.84 153.131 632.029 153.964 633.099 155.035C634.169 156.106 634.764 157.653 635.834 158.605C636.904 159.557 638.212 160.39 639.283 161.342C640.353 162.294 641.78 162.889 642.969 163.96C644.158 165.031 644.753 166.34 645.942 167.292C647.131 168.244 648.321 169.077 649.51 169.91C650.699 170.743 651.888 171.695 653.077 172.528C654.266 173.361 655.337 174.551 656.407 175.384C657.477 176.217 658.666 177.288 659.856 178.121C661.045 178.954 662.353 179.669 663.542 180.502C664.731 181.335 665.683 182.525 666.991 183.358C668.299 184.191 669.964 184.191 671.153 185.024C672.58 186.095 674.483 185.976 675.672 184.786C676.98 183.477 677.218 181.573 676.385 179.907C675.672 178.716 674.483 177.645 673.769 176.455C673.056 175.265 673.056 173.599 672.342 172.29C671.628 170.981 670.201 170.148 669.488 168.958C668.774 167.768 668.418 166.221 667.704 165.031C666.991 163.841 666.753 162.294 666.039 160.985C665.326 159.676 663.899 158.843 663.304 157.534C662.71 156.225 662.353 154.797 661.639 153.488C660.926 152.179 660.093 150.989 659.499 149.679C658.904 148.37 658.429 147.061 657.834 145.752C657.239 144.443 656.883 143.015 656.407 141.706C655.931 140.397 655.099 139.088 654.623 137.779C654.147 136.47 653.196 135.161 652.72 133.852C652.245 132.543 652.126 130.996 651.65 129.687C651.175 128.378 650.699 126.95 650.342 125.522C649.985 124.094 649.985 122.666 649.629 121.237C649.272 119.809 649.153 118.381 648.915 116.953C648.677 115.525 648.202 114.097 648.083 112.669C647.964 111.241 647.488 109.813 647.369 108.385C647.25 106.957 647.25 105.529 647.25 104.101C647.25 102.673 647.131 101.245 647.25 99.8167C647.369 98.3887 646.775 96.9606 646.893 95.4135C647.012 93.8665 647.607 92.5574 647.845 91.1294C647.964 89.9394 647.726 88.6303 647.845 87.4403C647.964 86.2502 648.558 85.0602 648.796 83.8701C649.034 82.6801 649.866 81.6091 650.223 80.419C650.818 78.872 651.531 77.4439 652.483 76.1349C653.315 74.9448 654.742 73.7548 655.693 72.4457C656.645 71.1367 657.12 68.9946 657.834 67.6856C658.904 68.8756 660.212 70.1847 661.164 71.2557C662.115 72.3267 663.066 73.6358 664.137 74.8258C665.207 76.0159 666.158 77.2059 667.11 78.396C668.061 79.467 668.537 80.895 669.369 82.0851C670.201 83.2751 671.51 83.9891 672.461 85.0602C673.412 86.1312 674.482 87.0833 675.434 88.1543C676.385 89.2253 677.455 90.1774 678.407 91.2484C679.239 92.3194 679.596 93.8665 680.428 94.9375C681.261 96.0086 681.974 97.1986 682.807 98.2696C683.639 99.3407 684.828 100.174 685.661 101.245C686.493 102.316 687.326 103.387 688.158 104.458C688.991 105.529 690.18 106.362 691.012 107.433C691.845 108.504 692.439 109.813 693.272 110.884C694.104 111.955 694.818 113.145 695.65 114.216C696.482 115.287 698.028 115.763 698.861 116.834C699.812 118.024 700.526 119.214 701.358 120.404C702.19 121.594 703.142 122.666 704.093 123.856C705.045 125.046 705.877 126.117 706.828 127.307C707.78 128.497 708.731 129.568 709.682 130.639C710.634 131.71 710.753 133.495 711.704 134.566C712.655 135.637 713.963 136.47 714.915 137.541C715.866 138.612 717.055 139.564 717.888 140.754C718.72 141.944 719.077 143.491 720.028 144.681C720.98 145.871 721.812 146.942 722.763 148.132C723.715 149.322 724.666 150.393 725.498 151.465C726.45 152.536 727.282 153.726 728.234 154.916C729.185 156.106 730.731 156.701 731.682 157.772C732.634 158.843 733.466 160.033 734.417 161.223C735.369 162.413 735.725 163.841 736.677 165.031C737.628 166.221 739.293 166.578 740.244 167.768C741.196 168.958 742.504 169.315 743.455 168.601C743.931 167.292 744.288 165.626 743.574 164.436Z" fill="#222831"/>
<path d="M71.5671 214.894C72.0428 211.324 66.8104 210.134 66.0969 213.704C65.3834 217.275 64.432 220.726 63.2429 224.177C62.1726 227.509 60.151 230.96 59.7942 234.411C59.5564 237.148 62.8861 239.647 65.1456 237.148C69.6644 231.555 70.7347 221.797 71.5671 214.894Z" fill="#222831"/>
<path d="M40.8863 223.581C41.1241 222.034 40.1728 220.487 38.5079 220.249C36.962 220.011 35.535 220.963 35.1782 222.391C34.4647 224.89 33.0377 227.985 33.5134 230.722C33.6323 232.269 35.0593 233.459 36.7242 233.34C37.6755 233.221 38.5079 232.745 38.9836 231.912C40.5296 229.651 40.5295 226.2 40.8863 223.581Z" fill="#222831"/>
<path d="M66.2159 286.418C65.7402 284.871 64.1942 284.038 62.6483 284.514C61.697 284.752 60.9835 285.466 60.7456 286.418C59.9132 289.75 60.5078 293.558 60.6267 296.89C60.6267 298.437 61.9348 299.627 63.4807 299.627C65.0267 299.627 66.2159 298.437 66.2159 296.89C66.4537 293.558 67.1672 289.75 66.2159 286.418Z" fill="#222831"/>
<path d="M280.388 118.739C279.912 115.883 275.036 116.478 275.274 119.453C275.393 125.046 275.988 130.52 277.177 135.994C277.89 138.97 282.409 138.256 282.409 135.28C282.409 129.687 281.339 124.213 280.388 118.739Z" fill="#222831"/>
<path d="M318.679 190.495C318.204 187.163 317.252 183.95 316.539 180.737C315.706 177.286 310.474 178.833 311.306 182.165C312.02 185.378 312.733 188.71 313.685 191.924C314.755 195.137 319.155 193.709 318.679 190.495Z" fill="#222831"/>
<path d="M342.701 152.415C341.749 149.083 336.874 150.511 337.587 153.843C339.728 163.125 340.798 172.646 343.058 181.809C343.771 184.784 348.766 184.189 348.528 181.095C347.933 171.337 345.317 161.697 342.701 152.415Z" fill="#222831"/>
<path d="M367.198 203.942C366.841 202.871 366.365 201.8 366.009 200.729C365.652 199.42 364.225 198.587 362.917 198.944C361.609 199.301 360.776 200.729 361.133 202.038C361.609 203.347 362.084 204.656 362.679 205.846C363.392 207.037 364.938 207.394 366.128 206.68C366.96 206.084 367.436 205.013 367.198 203.942Z" fill="#222831"/>
<path d="M578.635 125.283C577.802 122.546 573.164 122.903 573.402 125.997C574.116 133.613 575.067 142.419 577.802 149.56C578.872 152.416 583.51 152.297 583.391 148.845C583.391 140.991 580.894 132.542 578.635 125.283Z" fill="#222831"/>
<path d="M600.397 179.551C599.921 176.814 598.494 174.077 597.542 171.459C596.353 168.365 591.478 169.555 592.548 172.887C593.499 175.743 594.094 179.075 595.64 181.574C597.186 184.43 600.872 182.407 600.397 179.551Z" fill="#222831"/>
<path d="M647.845 217.989C646.893 213.467 647.131 208.587 646.061 204.184C645.585 202.637 643.92 201.804 642.375 202.28C641.423 202.518 640.71 203.351 640.472 204.184C639.164 209.063 640.829 214.895 642.494 219.536C642.969 220.964 644.515 221.797 646.061 221.321C647.369 220.845 648.202 219.417 647.845 217.989Z" fill="#222831"/>
<path d="M698.504 158.842C697.672 155.39 692.32 156.818 693.153 160.27C693.51 162.65 694.104 164.911 694.937 167.172C695.293 168.481 696.601 169.195 697.909 169.076C699.218 168.957 700.169 167.767 700.288 166.458C699.812 163.959 699.337 161.341 698.504 158.842Z" fill="#222831"/>
<path d="M172.885 158.13C172.767 156.583 171.458 155.512 170.031 155.512C168.604 155.631 167.534 156.702 167.415 158.13C166.702 166.579 166.94 175.028 168.01 183.359C168.01 184.668 169.199 185.739 170.507 185.739C171.815 185.739 172.767 184.668 172.885 183.359C173.718 175.028 173.718 166.46 172.885 158.13Z" fill="#222831"/>
<path d="M186.561 165.271C186.442 164.319 186.085 163.367 185.729 162.534C185.134 161.582 184.183 161.106 183.113 161.225C182.042 161.344 181.21 162.058 180.853 163.129C180.734 164.2 180.734 165.152 180.853 166.223C180.853 166.818 180.972 167.413 181.091 168.008C181.329 168.722 181.686 169.317 182.161 169.912C182.875 170.626 183.826 170.864 184.777 170.626C185.729 170.388 186.442 169.674 186.68 168.722C186.918 167.532 186.918 166.342 186.561 165.271Z" fill="#222831"/>
<path d="M263.025 146.111C262.431 142.184 261.717 137.9 259.815 134.329C258.269 131.473 254.344 133.496 254.939 136.352C255.653 140.161 256.961 143.731 257.674 147.539C258.15 148.967 259.577 149.919 261.123 149.443C262.431 149.086 263.382 147.658 263.025 146.111Z" fill="#222831"/>
</svg>
