<svg width="486" height="357" viewBox="0 0 486 357" fill="none" xmlns="http://www.w3.org/2000/svg">
<path d="M85.4502 170.888C85.7227 169.598 86.404 168.375 86.4721 167.085C86.4721 165.794 86.404 164.436 86.1996 163.145C85.9271 161.855 85.5864 160.632 85.1095 159.41C84.7008 158.119 84.6326 156.693 83.9514 155.606C83.2701 154.52 82.1119 153.705 81.0899 152.822C80.068 152.007 78.9779 151.328 77.7516 150.784C76.5934 150.105 75.299 149.562 74.0045 149.154C72.7101 148.815 71.3475 148.611 69.9849 148.339C68.6905 147.932 67.396 147.456 66.1697 146.845C64.6027 146.166 63.3083 145.555 62.7632 144.536C62.1501 143.245 62.0138 141.751 62.2863 140.325C62.4907 138.899 62.8995 137.608 63.5126 136.318C64.1939 135.095 65.0115 133.941 65.8972 132.854C66.6466 131.767 67.1235 130.477 67.7366 129.39C68.4861 128.303 69.1674 127.217 69.7124 126.062C70.1893 124.84 70.4618 123.617 70.6662 122.327C71.075 121.104 71.2794 119.814 71.3475 118.523C71.3475 117.301 71.2112 116.01 71.0068 114.788C70.7343 113.565 70.3255 112.343 69.8486 111.256C69.3717 110.101 68.8267 108.947 68.1454 107.928C67.3279 106.977 66.4422 106.094 65.4884 105.279C63.8533 103.717 61.1281 105.958 62.5588 107.724C63.4445 108.743 64.2621 109.762 64.9434 110.916C65.5565 112.071 66.1015 113.361 66.5103 114.652C66.851 115.942 67.0554 117.301 67.1235 118.659C67.1235 119.949 66.5785 121.24 66.2378 122.53C65.9653 123.821 65.5565 125.043 64.9434 126.198C64.3302 127.353 63.717 128.507 62.9676 129.662C62.2182 130.748 61.5369 131.903 60.8556 132.99C60.1062 134.076 59.4249 135.231 58.8799 136.454C58.3348 137.744 57.9261 139.17 57.7217 140.597C57.7217 142.023 57.9261 143.449 58.4711 144.807C58.8117 146.166 59.5612 147.456 60.515 148.475C61.4688 149.358 62.5588 150.037 63.7852 150.513C64.9434 151.124 66.1015 151.667 67.3279 152.007C68.6223 152.346 69.9168 152.482 71.1431 152.754C72.6419 153.093 74.0726 153.637 75.4352 154.248C76.8659 154.859 78.3648 155.403 79.4548 156.489C80.4086 157.508 80.7493 159.07 81.2943 160.632C81.7031 161.787 82.3844 162.874 82.5206 164.096C82.6569 165.319 82.3163 166.541 82.18 167.764C82.1119 168.986 81.9075 170.141 81.635 171.296C81.4306 172.45 81.0899 173.673 80.6812 174.759C80.2043 175.982 79.9317 177.272 79.3867 178.427C78.8417 179.582 78.1604 180.736 77.6153 181.891C77.0703 183.045 76.4572 184.2 75.844 185.355C75.2308 186.509 74.4133 187.528 73.8683 188.683C73.3232 189.837 72.9826 191.128 72.5057 192.282C72.0288 193.505 71.62 194.727 71.2794 195.95C70.9387 197.172 70.6662 198.463 70.5299 199.753C70.3937 201.044 70.3255 202.334 70.3937 203.625C70.4618 205.051 70.6662 206.409 71.0068 207.835C71.3475 209.194 71.7563 210.552 72.2332 211.911C72.7101 213.269 72.8463 214.695 73.4595 215.986C74.0726 217.276 75.2308 218.227 76.0484 219.382C77.5472 221.759 79.3867 223.932 81.5668 225.698C82.6569 226.581 83.6107 227.735 84.7689 228.483C86.404 229.501 87.971 226.445 86.404 225.426C85.1777 224.679 84.0195 223.864 82.9294 222.913C81.8394 221.962 80.5449 221.215 79.6592 220.061C78.8417 218.838 78.0923 217.616 77.4791 216.257C76.7978 214.967 76.2528 213.676 75.7759 212.318C75.1627 211.028 74.6858 209.669 74.3452 208.243C74.0045 206.817 73.8001 205.39 73.732 203.964C73.9364 201.247 74.3452 198.531 74.9583 195.882C75.2308 194.591 75.6396 193.369 76.0484 192.146C76.5253 190.992 77.4791 189.973 78.0923 188.818C78.7054 187.664 78.9098 186.305 79.523 185.219C80.1361 184.132 81.0899 183.113 81.7031 181.959C82.3163 180.804 82.725 179.582 83.2701 178.427C83.8151 177.272 84.3601 176.118 84.7689 174.895C85.0414 173.401 85.3139 172.111 85.4502 170.888Z" fill="#171C22"/>
<path d="M85.1785 17.6651C84.4972 16.85 83.884 15.9671 83.1346 15.22C82.3852 14.4729 81.6358 13.7258 80.8182 13.0466C80.0007 12.3674 79.1831 11.6883 78.3656 11.0091C77.548 10.3299 76.5942 9.85448 75.7085 9.24321C74.8229 8.63195 73.869 8.15652 72.9834 7.61318C72.0977 7.06984 71.212 6.45857 70.2582 5.98315C69.3044 5.50772 68.2825 5.10021 67.3287 4.6927C66.3749 4.28519 65.2848 4.21728 64.2629 3.87769C63.2409 3.5381 62.3552 2.85892 61.3333 2.65516C60.3114 2.38349 59.2213 2.51932 58.1312 2.38349C57.1093 2.31557 56.0192 2.31557 54.9973 2.31557C53.9754 2.17973 52.8853 2.11182 51.8634 2.11182C50.8414 2.17973 49.7514 2.38349 48.7294 2.58724C47.7075 2.72308 46.6856 2.99475 45.6636 3.26642C45.0505 2.99475 44.4373 2.85892 43.8241 3.06267C42.8022 3.47018 41.7803 4.01352 40.8265 4.55687C39.8727 5.10021 38.9189 5.77939 38.0332 6.45857C37.1475 7.06984 36.3981 7.95277 35.5124 8.63195C34.6949 9.37905 33.8092 10.0582 32.9916 10.8053C32.1741 11.5524 31.1522 12.1637 30.4027 12.9787C29.6533 13.7937 29.3808 15.0163 28.6995 15.8992C28.0182 16.7821 27.2007 17.5971 26.5875 18.4801C25.9743 19.4309 25.0887 20.2459 24.5436 21.1289C23.9986 22.0797 23.5898 23.1664 23.1129 24.1852C22.636 25.204 22.5679 26.3586 22.091 27.4453C21.6141 28.5319 20.7965 29.347 20.3878 30.3657C19.979 31.3845 19.7746 32.5391 19.5021 33.6258C19.2296 34.7125 18.9571 35.7992 18.6845 36.8859C18.412 37.9726 18.2076 39.0592 18.0032 40.2139C17.7989 41.3685 18.1395 42.4551 18.0032 43.6098C17.867 44.7644 17.6626 45.8511 17.6626 46.9377C17.6626 48.0244 17.5945 49.1111 17.6626 50.1978C17.7307 51.2845 17.6626 52.3712 17.7989 53.4579C17.9351 54.5446 18.0032 55.6313 18.2076 56.7179C18.412 57.8046 19.0252 58.7555 19.2296 59.8422C19.434 60.9289 19.7065 61.9476 20.0471 62.9664C20.3878 63.9852 20.524 65.0719 20.8647 66.0906C21.2053 67.1094 21.2734 68.264 21.6822 69.2828C22.091 70.3016 22.5679 71.2524 23.0448 72.2712C23.5217 73.2899 24.2711 74.105 24.8162 75.0558C25.3612 76.0067 25.9062 76.9575 26.4512 77.8405C26.9963 78.7234 27.6776 79.6743 28.2907 80.5572C28.9039 81.4401 29.6533 82.2551 30.3346 83.0702C31.0159 83.8852 31.5609 84.9039 32.2422 85.719C32.9235 86.534 33.7411 87.349 34.4905 88.0961C35.2399 88.8432 36.2618 89.3865 37.0794 90.0657C37.8969 90.7449 38.5782 91.6278 39.4639 92.307C40.3496 92.9862 41.4396 93.2579 42.3934 93.8691C43.211 94.4125 43.8241 95.1596 44.6417 95.635C45.4592 96.1104 46.2087 96.7896 47.0262 97.1971C47.8438 97.6046 48.7976 98.0121 49.6151 98.4196C50.4327 98.8271 51.3183 99.0988 52.204 99.4384C51.3865 100.525 50.9777 101.748 50.2283 102.902C49.4789 104.057 48.3207 104.804 47.5712 105.959C46.6174 107.317 47.1625 108.811 47.8438 109.83C48.5251 110.849 49.6151 112.071 51.114 112.071C52.204 112.071 53.3622 111.596 54.4523 111.528C55.5423 111.46 56.7005 111.392 57.7906 111.256C58.8807 111.12 60.0389 111.256 61.1289 111.052C62.219 110.849 63.2409 110.373 64.3991 110.169C65.5573 109.966 66.6474 110.169 67.7374 109.966C68.8275 109.762 69.7813 109.083 70.8714 108.743C71.9614 108.404 73.0515 108.404 74.1416 108.064C75.1635 107.724 76.2536 107.317 77.2755 106.977C78.1612 106.638 78.9106 105.891 79.2512 105.008C79.66 104.125 79.7281 103.174 79.4556 102.223C79.2512 101.272 78.8425 100.389 78.093 99.7101C77.4118 99.1667 76.6623 98.6913 75.8448 98.148C75.1635 97.6046 74.346 97.1292 73.5965 96.5859C74.5503 95.9746 75.5041 95.4312 76.3898 94.7521C77.2755 94.0729 78.0249 93.1899 78.8425 92.5108C79.66 91.8316 80.5457 91.1524 81.3632 90.3374C82.1808 89.5224 83.1346 88.979 83.884 88.164C84.6334 87.349 85.3147 86.4661 85.996 85.5831C86.6773 84.7002 87.4949 83.8852 88.108 83.0022C88.7212 82.1193 89.1981 81.1005 89.8112 80.1497C90.4244 79.1988 91.1057 78.3159 91.6507 77.365C92.1958 76.4142 92.6045 75.3275 93.0814 74.3766C93.5583 73.4258 93.6265 72.2033 94.0352 71.1845C94.444 70.1657 95.1253 69.2149 95.4659 68.1961C95.8066 67.1773 95.7385 65.9548 96.0791 64.936C96.3516 63.8493 96.9648 62.8306 97.1692 61.7439C97.3736 60.6572 97.5779 59.5026 97.7142 58.4159C97.8505 57.3292 97.5098 56.1746 97.5098 55.02C97.5098 53.8654 97.8505 52.7787 97.8505 51.692C97.8505 50.6053 97.5098 49.4507 97.4417 48.364C97.3736 47.2773 97.1692 46.1227 97.0329 45.036C96.8967 43.9493 97.1692 42.7268 96.8967 41.6401C96.6241 40.5534 95.8747 39.6026 95.6022 38.5159C95.3297 37.4292 94.9209 36.4104 94.5121 35.3238C94.1034 34.2371 94.2396 33.0145 93.8308 31.9958C93.4221 30.977 92.5364 30.0941 92.0595 29.0753C91.5826 28.0565 91.1738 27.0377 90.6288 26.019C90.0838 25.0002 89.675 23.9814 89.0618 23.0306C88.4487 22.0797 87.6992 21.1968 87.0179 20.3139C86.3367 19.4309 85.9279 18.548 85.1785 17.6651Z" fill="#354A4C"/>
<path d="M80.3411 43.2706C80.1367 42.116 79.5235 41.0972 79.251 39.9426C78.9785 38.788 79.0466 37.5655 78.6379 36.4788C78.2972 35.3921 77.5478 34.4412 77.0709 33.3545C76.594 32.2679 75.9808 31.317 75.4358 30.2982C74.8908 29.2795 74.3457 28.2607 73.7326 27.3098C73.1194 26.359 72.5744 25.3402 71.8931 24.3894C71.2118 23.4385 70.6668 22.4197 69.9173 21.5368C69.1679 20.6539 68.3504 19.8388 67.4647 19.0238C66.1702 17.8013 63.5813 19.9747 64.7395 21.333C65.4208 22.1481 65.9659 22.9631 66.579 23.846C67.1922 24.7289 67.8735 25.476 68.4185 26.359C68.9635 27.2419 69.7811 27.989 70.1899 28.9399C70.5986 29.8907 71.1437 30.8416 71.5524 31.7924C71.9612 32.7433 72.3019 33.762 72.6425 34.7129C72.9831 35.6638 72.7106 36.8863 72.915 37.9051C73.1194 38.9238 73.937 39.8068 74.1413 40.8255C74.3457 41.8443 74.2776 42.931 74.3457 43.9498C74.4139 44.9685 74.3457 45.9873 74.3457 47.0061C74.3457 48.0248 74.6864 49.0436 74.6182 50.0624C74.5501 51.0812 74.3457 52.0999 74.2095 53.0508C74.0732 54.0016 74.1413 55.0883 73.937 56.0392C73.8007 56.99 73.3919 57.9409 73.1194 58.8917C72.8469 59.8426 72.4381 60.7255 72.1656 61.6764C71.825 62.6951 71.5524 63.7139 71.1437 64.7327C70.6668 65.6835 70.258 66.7702 70.0536 67.789C69.9173 69.1474 70.5986 70.5057 71.825 71.2528C73.0513 71.7962 74.5501 71.5245 75.5039 70.5057C76.3896 69.6228 77.139 68.6719 77.7522 67.5853C78.2972 66.4986 78.3653 65.2081 78.706 64.0535C79.0466 62.8989 79.6598 61.7443 79.8642 60.5897C80.1367 59.2992 79.9323 58.0088 80.0686 56.9221C80.2048 55.7675 80.6817 54.6808 80.7499 53.5262C80.818 52.3716 80.7499 51.217 80.7499 50.0624C80.7499 48.9078 80.7499 47.7532 80.6136 46.5986C80.4773 45.444 80.5455 44.4252 80.3411 43.2706Z" fill="#171C22"/>
<path d="M428.617 167.425C429.298 166.27 429.843 165.115 430.252 163.825C430.66 162.602 431.001 161.312 431.137 159.954C431.274 158.663 431.205 157.305 430.933 156.014C430.728 154.724 430.388 153.501 429.775 152.347C429.162 151.192 428.685 149.97 427.663 149.019C426.777 148.272 425.823 147.66 424.801 147.049C423.847 146.438 422.689 146.098 421.667 145.555C420.645 145.012 420.1 143.789 419.215 143.042C417.716 141.752 417.171 140.597 417.307 139.171C417.511 137.676 418.193 136.25 419.283 135.096C420.237 133.873 421.327 132.718 422.485 131.7C423.643 130.749 424.733 129.798 425.755 128.711C426.913 127.76 427.935 126.674 428.821 125.519C429.57 124.229 430.115 122.87 430.388 121.376C430.797 120.018 431.001 118.659 431.069 117.233C431.205 115.807 431.205 114.381 431.001 113.022C430.66 111.664 429.775 110.509 429.025 109.287C428.14 107.657 425.619 108.607 426.368 110.441C426.913 111.868 427.254 113.362 427.39 114.856C427.458 116.35 427.322 117.844 426.913 119.271C426.709 120.765 426.232 122.191 425.483 123.482C424.597 124.704 423.575 125.723 422.349 126.606C421.259 127.557 420.168 128.643 419.01 129.594C417.852 130.545 416.898 131.7 416.013 132.854C415.195 133.737 414.446 134.756 413.901 135.775C413.492 136.929 413.356 138.152 413.424 139.306C413.356 140.529 413.628 141.684 414.105 142.77C414.786 144.332 415.808 145.691 417.103 146.71C418.465 147.66 419.896 148.475 421.395 149.223C422.553 149.902 423.847 150.241 424.801 151.056C425.823 151.871 426.709 152.822 427.39 153.977C428.003 155.199 428.276 156.49 428.344 157.78C428.344 159.206 428.14 160.565 427.799 161.923C427.458 163.282 426.913 164.572 426.3 165.795C425.619 167.017 424.393 167.832 423.507 168.851C422.621 170.005 422.076 171.432 421.054 172.518C420.032 173.605 418.806 174.352 417.784 175.439C416.762 176.526 415.604 177.409 414.65 178.495C413.696 179.582 412.811 180.736 411.925 181.959C411.107 183.182 410.358 184.404 409.677 185.762C408.995 187.053 408.518 188.411 408.11 189.838C407.633 191.196 407.292 192.554 407.088 193.913C406.951 195.339 407.292 196.765 407.428 198.124C407.565 199.482 407.769 200.908 408.11 202.267C408.314 203.625 408.655 205.051 409.063 206.342C409.609 207.632 410.29 208.855 411.039 210.077C411.72 211.3 412.538 212.454 413.424 213.541C414.514 214.763 416.217 212.998 415.195 211.775C414.309 210.62 413.56 209.398 412.879 208.175C412.266 206.885 411.72 205.527 411.38 204.168C410.494 201.451 410.085 198.599 410.222 195.814C410.358 194.388 410.699 193.03 411.107 191.671C411.448 190.313 411.448 188.819 412.061 187.528C412.742 186.238 413.56 185.015 414.446 183.861C415.331 182.706 416.285 181.619 417.307 180.601C418.329 179.514 419.01 178.156 420.032 177.137C421.054 176.118 422.212 175.167 423.234 174.148C424.324 173.13 425.278 172.111 426.232 171.024C427.254 169.938 428.003 168.715 428.617 167.425Z" fill="#171C22"/>
<path d="M466.905 43.6098C466.564 42.7948 466.292 41.9119 465.815 41.0969C465.406 40.2819 464.929 39.5348 464.521 38.7197C464.044 37.9726 463.567 37.2255 463.022 36.4784C462.477 35.7313 461.864 35.0522 461.319 34.373C460.773 33.6938 460.092 33.0146 459.547 32.4034C459.002 31.7921 458.389 31.045 457.776 30.3658C457.163 29.6866 456.413 29.2112 455.732 28.6C455.051 27.9887 454.165 27.717 453.484 27.1737C452.802 26.6303 452.189 25.8832 451.44 25.4757C450.69 25.0682 449.737 24.7965 448.919 24.4569C448.101 24.1174 447.216 23.8457 446.398 23.6419C445.581 23.3023 444.763 22.9628 443.877 22.6911C442.992 22.4873 442.106 22.3515 441.22 22.2836C440.335 22.1477 439.449 22.0798 438.563 22.0798C438.223 21.6723 437.678 21.4006 437.133 21.4006C436.179 21.4686 435.225 21.6044 434.339 21.8761C433.386 22.0798 432.5 22.3515 431.614 22.6911C430.729 22.9628 429.911 23.4382 429.025 23.8457C428.14 24.2532 427.254 24.5249 426.436 25.0003C425.619 25.4757 424.597 25.6116 423.779 26.1549C422.962 26.6982 422.417 27.5812 421.667 28.1245C420.918 28.6679 420.032 29.1433 419.283 29.6866C418.533 30.2979 417.648 30.7054 416.967 31.3167C416.285 31.9279 415.672 32.743 415.059 33.4221C414.446 34.1013 414.037 35.0522 413.424 35.7993C412.811 36.5464 411.857 37.0218 411.312 37.7689C410.767 38.516 410.29 39.3989 409.745 40.146C409.2 40.8931 408.723 41.7761 408.314 42.5911C407.905 43.4061 407.36 44.2211 406.952 45.104C406.543 45.987 406.475 46.9378 406.134 47.8208C405.793 48.7037 405.316 49.5187 404.976 50.4017C404.703 51.2846 404.363 52.1675 404.158 53.0505C403.954 53.9334 403.613 54.8163 403.477 55.6993C403.341 56.5822 403.136 57.5331 403 58.416C402.864 59.2989 403.136 60.2498 403.068 61.2006C403 62.1515 402.932 63.0344 402.932 63.9174C402.932 64.8003 402.796 65.7511 402.796 66.6341C402.796 67.517 402.591 68.4679 402.659 69.4187C402.728 70.3696 402.864 71.2525 403 72.1354C403.136 73.0184 403.545 73.9013 403.75 74.7842C403.954 75.6672 404.158 76.5501 404.363 77.433C404.567 78.316 404.908 79.1989 405.18 80.0818C405.453 80.9648 405.861 81.7798 406.202 82.6627C406.543 83.5457 406.679 84.4286 407.088 85.2436C407.497 86.0586 407.837 86.9416 408.314 87.7566C408.723 88.5716 409.472 89.2508 409.949 89.9979C410.426 90.745 410.767 91.6279 411.312 92.375C411.857 93.1221 412.674 93.5975 413.288 94.3446C413.764 94.9559 414.173 95.703 414.65 96.3143C415.127 96.9255 415.604 97.6047 416.217 98.216C416.83 98.8272 417.443 99.3027 418.057 99.846C418.67 100.389 419.283 100.865 419.896 101.34C419.01 102.019 418.329 102.902 417.443 103.649C416.558 104.397 415.4 104.736 414.514 105.415C413.424 106.298 413.492 107.589 413.764 108.607C414.037 109.626 414.65 110.849 415.876 111.256C416.762 111.528 417.784 111.46 418.67 111.664C419.555 111.868 420.509 112.071 421.395 112.275C422.281 112.479 423.234 112.818 424.12 112.954C425.006 113.09 426.028 112.954 426.981 113.09C427.935 113.226 428.821 113.701 429.775 113.769C430.729 113.837 431.682 113.565 432.636 113.565C433.59 113.565 434.544 113.837 435.429 113.837C436.383 113.837 437.337 113.769 438.223 113.701C439.04 113.633 439.79 113.226 440.335 112.615C440.88 112.003 441.152 111.256 441.22 110.441C441.289 109.626 441.152 108.811 440.744 108.064C440.335 107.453 439.79 106.909 439.381 106.23C438.972 105.619 438.427 105.008 437.95 104.397C438.836 104.125 439.79 103.921 440.675 103.582C441.561 103.242 442.379 102.766 443.196 102.359C444.014 101.951 444.968 101.68 445.785 101.272C446.603 100.865 447.556 100.593 448.374 100.118C449.192 99.6423 449.941 99.0989 450.759 98.5556C451.576 98.0122 452.394 97.6047 453.143 96.9935C453.892 96.3822 454.506 95.703 455.255 95.0917C456.004 94.4805 456.754 93.9371 457.435 93.3259C458.116 92.7146 458.73 91.9675 459.343 91.2883C459.956 90.6091 460.365 89.6583 460.91 88.9791C461.455 88.2999 462.272 87.6887 462.817 86.9416C463.362 86.1945 463.635 85.2436 464.112 84.4286C464.589 83.6136 465.338 82.9344 465.815 82.1194C466.292 81.3044 466.701 80.4214 467.109 79.5385C467.518 78.6556 467.518 77.6368 467.791 76.7539C468.063 75.8709 468.608 75.0559 468.881 74.1051C469.153 73.1542 469.153 72.2034 469.358 71.3204C469.562 70.4375 469.698 69.4866 469.835 68.5358C469.971 67.5849 470.516 66.702 470.584 65.7511C470.652 64.8003 470.243 63.8494 470.312 62.8986C470.38 61.9477 470.312 60.9969 470.243 60.046C470.175 59.0952 470.652 58.1443 470.516 57.1935C470.38 56.2426 469.971 55.3597 469.835 54.4088C469.698 53.458 469.63 52.5071 469.426 51.6242C469.221 50.7412 469.221 49.7225 468.949 48.8395C468.676 47.9566 468.336 47.0057 467.995 46.1228C467.655 45.2399 467.314 44.4249 466.905 43.6098Z" fill="#70878A"/>
<path d="M456.549 63.0345C456.685 62.0836 456.481 61.0649 456.481 60.114C456.549 59.1632 456.89 58.1444 456.89 57.1935C456.89 56.2427 456.481 55.2239 456.413 54.2731C456.345 53.3222 456.004 52.3713 455.868 51.4205C455.731 50.4696 455.527 49.5188 455.255 48.5679C454.982 47.6171 454.846 46.6662 454.505 45.7154C454.165 44.7645 454.028 43.8137 453.619 42.9307C453.211 42.0478 452.734 41.1649 452.257 40.2819C451.576 38.9236 448.919 40.0782 449.464 41.5045C449.804 42.3195 450.077 43.1345 450.349 44.0174C450.622 44.9004 450.962 45.6475 451.167 46.5304C451.371 47.4133 451.848 48.2283 451.984 49.0434C452.121 49.8584 452.257 50.8092 452.393 51.6922C452.529 52.5751 452.529 53.458 452.529 54.341C452.529 55.2239 452.053 56.1068 451.984 56.9898C451.916 57.8727 452.325 58.8236 452.257 59.6386C452.189 60.4536 451.848 61.4045 451.644 62.2195C451.439 63.0345 451.099 63.8495 450.894 64.6645C450.69 65.4795 450.622 66.3625 450.349 67.1775C450.077 67.9925 449.6 68.7396 449.259 69.4867C448.919 70.2338 448.646 71.1167 448.305 71.8638C447.897 72.6109 447.352 73.2901 446.943 73.9693C446.534 74.6485 445.921 75.3277 445.444 76.0068C444.899 76.7539 444.49 77.501 443.877 78.2481C443.196 78.9273 442.651 79.6744 442.174 80.4894C441.765 81.5761 441.969 82.7986 442.719 83.6816C443.604 84.4287 444.831 84.5645 445.853 84.0212C446.807 83.5457 447.692 82.9345 448.442 82.1874C449.055 81.3724 449.6 80.4894 450.077 79.5386C450.622 78.6556 451.439 77.9085 451.916 77.0256C452.461 76.0748 452.598 74.9881 453.006 74.1051C453.415 73.2222 454.096 72.4072 454.437 71.5242C454.778 70.6413 454.982 69.6225 455.255 68.7396C455.527 67.8567 455.868 66.8379 456.072 65.887C456.277 64.9362 456.481 63.9853 456.549 63.0345Z" fill="#354A4C"/>
<path d="M338.891 28.8719C339.3 30.5699 337.597 31.317 336.847 32.6074C336.234 33.6262 336.098 34.4412 337.188 34.7808C338.482 35.2562 338.551 36.4108 338.755 37.3617C338.823 37.8371 338.482 38.3125 338.006 38.3804C337.937 38.3804 337.801 38.3804 337.733 38.3804C336.439 38.2446 335.008 38.4484 334.327 36.8862C333.918 36.0033 333.373 35.46 332.555 36.6825C332.01 37.4975 331.193 38.0408 330.239 38.1088C329.694 38.1767 329.149 38.5163 328.876 37.8371C328.672 37.2937 328.331 36.8183 328.876 36.0033C329.558 34.8487 330.579 34.0337 331.193 32.8791C331.601 32.132 330.716 31.7924 330.443 31.3849C330.103 30.9094 329.694 30.5019 329.217 30.1623C328.059 29.4832 328.604 28.804 329.353 28.4644C330.103 28.1248 330.375 26.9702 331.465 27.5135C331.942 27.7852 332.964 27.5815 332.419 28.7361C332.215 29.2794 332.896 29.619 333.373 29.9586C333.85 30.2982 334.122 29.7548 334.531 29.5511C335.553 28.9398 336.166 27.8531 337.392 27.4456C338.619 27.0381 339.028 27.3777 338.891 28.8719Z" fill="#70878A"/>
<path d="M192.958 34.3729C193.366 36.0708 191.663 36.8179 190.914 38.1084C190.301 39.1271 190.164 39.9422 191.254 40.2818C192.549 40.7572 192.617 41.9118 192.821 42.8626C192.89 43.3381 192.549 43.8135 192.072 43.8814C192.004 43.8814 191.868 43.8814 191.799 43.8814C190.505 43.7456 189.074 43.9493 188.393 42.3872C187.984 41.5043 187.439 40.9609 186.622 42.1835C186.077 42.9985 185.259 43.5418 184.305 43.6097C183.76 43.6777 183.215 44.0172 182.943 43.3381C182.738 42.7947 182.398 42.3193 182.943 41.5043C183.624 40.3497 184.646 39.5347 185.259 38.38C185.668 37.6329 184.782 37.2934 184.51 36.8858C184.169 36.4104 183.76 36.0029 183.283 35.6633C182.125 34.9841 182.67 34.305 183.42 33.9654C184.169 33.6258 184.442 32.4712 185.532 33.0145C186.008 33.2862 187.03 33.0824 186.485 34.237C186.281 34.7804 186.962 35.12 187.439 35.4596C187.916 35.7992 188.189 35.2558 188.597 35.0521C189.619 34.4408 190.232 33.3541 191.459 32.9466C192.685 32.5391 193.026 32.8787 192.958 34.3729Z" fill="#70878A"/>
<path d="M236.765 34.6449C235.743 37.2258 232.813 36.7504 230.701 37.7691C228.998 38.6521 228.112 39.535 229.202 40.9613C230.497 42.7271 229.611 44.2893 228.93 45.7835C228.589 46.5306 227.772 46.8022 227.022 46.5306C226.886 46.4626 226.75 46.3947 226.682 46.3268C225.047 45.0364 223.003 43.9497 223.48 41.3009C223.684 39.8067 223.48 38.5841 221.299 39.4671C219.869 40.0783 218.302 40.0104 216.939 39.3312C216.122 38.9237 215.168 38.9916 215.372 37.7691C215.577 36.8183 215.577 35.9353 217.007 35.2562C218.915 34.3732 221.027 34.1015 222.866 33.1507C224.093 32.5394 223.207 31.249 223.207 30.5019C223.207 29.619 223.071 28.6681 222.73 27.8531C221.776 25.8835 223.207 25.5439 224.365 25.7476C225.523 25.9514 227.09 24.6609 228.044 26.3589C228.453 27.106 229.952 27.7852 228.181 28.8719C227.431 29.3473 228.044 30.5019 228.385 31.3169C228.726 32.1319 229.543 31.7244 230.224 31.7923C232.132 31.8602 233.903 30.9094 235.879 31.5207C237.855 32.1319 238.264 32.7432 236.765 34.6449Z" fill="#70878A"/>
<path d="M304.962 53.3905C304.826 55.6997 302.305 56.1072 300.943 57.4655C299.785 58.6202 299.308 59.5031 300.534 60.386C302.033 61.4727 301.692 62.9669 301.556 64.3253C301.488 65.0044 300.875 65.4799 300.193 65.412C300.057 65.412 299.989 65.344 299.853 65.344C298.218 64.7328 296.31 64.3932 295.969 62.1519C295.765 60.8614 295.288 59.9785 293.721 61.269C292.767 62.084 291.473 62.4915 290.178 62.2877C289.429 62.1519 288.612 62.4236 288.543 61.4048C288.475 60.5898 288.203 59.9106 289.157 59.0277C290.451 57.8051 292.086 57.058 293.312 55.8355C294.13 55.0205 293.108 54.2734 292.904 53.6621C292.699 52.915 292.29 52.2359 291.814 51.6246C290.519 50.3341 291.541 49.655 292.631 49.5191C293.721 49.3833 294.539 47.957 295.697 49.0437C296.242 49.5191 297.536 49.7229 296.446 51.0133C295.969 51.5567 296.719 52.3717 297.196 52.915C297.673 53.4584 298.286 52.983 298.831 52.7792C300.33 52.3038 301.556 51.1492 303.327 51.1492C305.099 51.1492 305.644 51.4888 304.962 53.3905Z" fill="#70878A"/>
<path d="M170.885 73.9696C170.68 75.5996 170.339 77.0259 168.227 77.2976C167.001 77.4334 166.32 77.773 166.797 79.403C167.41 81.6443 167.206 81.6443 164.889 81.7122C164.344 81.7122 163.731 81.916 163.186 81.916C162.777 81.916 162.3 81.916 162.437 81.1689C162.709 79.403 162.096 78.7918 160.325 79.0634C159.78 79.1314 159.166 79.3351 158.621 79.403C158.076 79.471 157.463 80.0822 157.122 79.1993C156.782 78.3163 156.373 77.5013 157.122 76.8901C158.349 75.8713 159.098 74.3771 160.87 74.0375C161.346 73.9696 161.687 73.4942 161.551 73.0187C161.483 72.8829 161.415 72.6791 161.346 72.6112C160.597 71.7962 160.801 71.117 160.938 70.2341C161.21 68.3324 161.96 67.789 163.595 68.672C164.889 69.3512 166.116 70.0983 166.252 72C166.32 72.8829 167.614 73.0187 168.704 72.7471C169.726 72.3396 171.361 71.6604 170.885 73.9696Z" fill="#70878A"/>
<path d="M30.471 137.744C30.2666 139.374 29.9259 140.801 27.8139 141.072C26.5876 141.208 25.9063 141.548 26.3832 143.178C26.9964 145.419 26.792 145.419 24.4756 145.487C23.9306 145.487 23.3174 145.691 22.7724 145.691C22.3636 145.691 21.8867 145.691 22.023 144.944C22.2955 143.178 21.6823 142.566 19.911 142.838C19.3659 142.906 18.7528 143.11 18.2077 143.178C17.6627 143.246 17.0495 143.857 16.7089 142.974C16.3682 142.091 15.9595 141.344 16.7089 140.665C17.9352 139.646 18.6846 138.152 20.456 137.812C20.9329 137.744 21.2735 137.269 21.1373 136.793C21.0691 136.658 21.001 136.454 20.9329 136.386C20.1835 135.571 20.3879 134.892 20.5241 134.009C20.7966 132.107 21.546 131.564 23.1811 132.447C24.4756 133.126 25.7019 133.873 25.8382 135.775C25.9063 136.658 27.2008 136.793 28.2908 136.522C29.3128 136.114 30.9479 135.435 30.471 137.744Z" fill="#70878A"/>
<path d="M460.569 148.407C460.364 150.037 460.024 151.464 457.912 151.735C456.686 151.871 456.004 152.211 456.481 153.841C457.094 156.082 456.89 156.082 454.574 156.15C454.028 156.15 453.415 156.354 452.87 156.354C452.462 156.354 451.985 156.354 452.121 155.607C452.393 153.841 451.78 153.23 449.941 153.501C449.396 153.569 448.783 153.773 448.238 153.841C447.692 153.909 447.079 154.52 446.739 153.637C446.398 152.754 445.989 152.007 446.739 151.328C447.965 150.309 448.714 148.815 450.486 148.475C450.963 148.407 451.303 147.932 451.167 147.456C451.099 147.321 451.031 147.117 450.963 147.049C450.213 146.234 450.418 145.555 450.554 144.672C450.826 142.77 451.576 142.227 453.211 143.11C454.505 143.789 455.732 144.536 455.868 146.438C455.936 147.321 457.231 147.456 458.321 147.185C459.343 146.845 460.978 146.166 460.569 148.407Z" fill="#70878A"/>
<path d="M387.262 100.118C387.058 101.748 386.717 103.174 384.605 103.446C383.379 103.582 382.698 103.921 383.174 105.551C383.788 107.793 383.583 107.793 381.267 107.86C380.722 107.86 380.109 108.064 379.564 108.064C379.155 108.064 378.678 108.064 378.814 107.317C379.087 105.551 378.474 104.94 376.634 105.212C376.089 105.28 375.476 105.483 374.931 105.551C374.386 105.619 373.773 106.23 373.432 105.347C373.091 104.465 372.683 103.65 373.432 103.038C374.658 102.019 375.408 100.525 377.179 100.186C377.656 100.118 377.997 99.6424 377.86 99.1669C377.792 99.0311 377.724 98.8273 377.656 98.7594C376.907 97.9444 377.111 97.2652 377.247 96.3823C377.52 94.4806 378.269 93.9372 379.904 94.8202C381.199 95.4994 382.425 96.2465 382.561 98.1482C382.629 99.0311 383.924 99.1669 385.014 98.8953C386.104 98.5557 387.739 97.8086 387.262 100.118Z" fill="#70878A"/>
<path d="M96.3522 5.30427C94.9215 4.14966 93.082 5.84761 94.5127 7.07014C95.3302 7.74932 96.0115 8.56434 96.7609 9.31144C97.5104 10.0585 98.2598 10.8056 98.9411 11.6207C99.6224 12.4357 100.372 13.1828 100.985 14.0657C101.598 14.9486 102.007 15.8995 102.62 16.7824C103.233 17.6654 103.983 18.4125 104.528 19.3633C105.073 20.3142 105.481 21.265 105.958 22.2159C106.435 23.1667 107.048 24.0497 107.457 25.0005C107.866 25.9514 108.002 27.0381 108.343 28.0568C108.684 29.0756 109.092 30.0265 109.365 31.0452C109.637 32.064 109.501 33.1507 109.774 34.1695C110.046 35.1882 110.796 36.1391 110.932 37.1578C111.068 38.1766 110.727 39.3312 110.864 40.35C111 41.3688 111.068 42.4555 111.136 43.4742C111.136 44.4251 111.886 45.2401 112.839 45.2401C113.793 45.2401 114.611 44.493 114.611 43.5422V43.4742C114.679 42.3196 114.202 41.2329 114.134 40.1462C114.066 39.0596 114.202 37.9049 114.066 36.8183C113.929 35.7316 114.134 34.509 113.929 33.4224C113.725 32.3357 113.18 31.249 112.908 30.1623C112.635 29.0756 112.022 28.0568 111.681 27.0381C111.341 26.0193 110.796 25.0005 110.319 23.9817C109.842 22.963 109.433 21.9442 108.888 20.9254C108.343 19.9067 107.866 18.9558 107.321 17.937C106.776 16.9183 106.163 15.9674 105.55 15.0845C104.936 14.2015 104.051 13.3865 103.301 12.5715C102.552 11.7565 102.348 10.466 101.53 9.65103C100.712 8.83601 99.963 8.02099 99.1455 7.27389C98.3279 6.5268 97.1697 5.98345 96.3522 5.30427Z" fill="#354A4C"/>
<path d="M118.766 15.8315C118.221 15.0165 117.812 14.0656 117.267 13.2506C116.722 12.4356 115.972 11.6885 115.359 10.8735C114.269 9.5151 112.294 11.1451 113.179 12.6393C113.656 13.4543 114.065 14.3373 114.61 15.0844C115.155 15.8315 115.904 16.5107 116.381 17.2578C117.403 18.8878 119.856 17.4615 118.766 15.8315Z" fill="#354A4C"/>
<path d="M24.4746 92.7145C23.5889 92.0353 22.4307 91.6957 21.545 90.9486C20.6593 90.2015 20.1143 89.1828 19.2967 88.3677C18.4792 87.5527 17.5935 86.8736 16.8441 86.0585C16.0947 85.2435 15.1409 84.4964 14.4596 83.6135C13.7783 82.7305 13.2333 81.7118 12.552 80.7609C11.8707 79.8101 11.4619 78.7913 10.9169 77.8404C10.3718 76.8896 9.48617 76.0746 8.94114 75.1237C8.3961 74.1729 8.19172 72.9503 7.71481 71.9316C7.23791 70.9128 6.62475 69.962 6.21597 68.9432C5.53468 67.2452 2.46888 68.5357 3.08204 70.2336C3.49081 71.2524 4.1721 72.1353 4.58088 73.0862C4.98965 74.037 5.3303 75.1237 5.8072 76.0746C6.2841 77.0254 6.69288 78.0442 7.23791 78.9951C7.78294 79.9459 8.60049 80.693 9.21365 81.5759C9.82681 82.4589 10.2356 83.5456 10.9169 84.3606C11.5982 85.1756 12.1432 86.1944 12.8245 87.0094C13.5058 87.8244 14.3915 88.5036 15.1409 89.3186C15.8903 90.1336 16.9122 90.609 17.7298 91.2882C18.5473 91.9674 19.2286 92.8503 20.0462 93.5974C20.8637 94.3445 21.8175 94.82 22.7032 95.4991C23.5889 96.1783 24.1339 95.8387 24.5427 95.0916C24.9515 94.4804 25.224 93.3258 24.4746 92.7145Z" fill="#354A4C"/>
<path d="M441.356 3.94629C440.266 3.94629 439.176 4.21796 438.086 4.3538C436.996 4.48963 435.906 4.3538 434.816 4.48963C433.726 4.62547 432.636 4.82922 431.546 5.1009C430.456 5.37257 429.502 5.98383 428.48 6.32342C427.458 6.66301 426.3 6.79885 425.278 7.20636C424.256 7.61386 423.302 8.15721 422.348 8.63264C421.394 9.10806 420.372 9.65141 419.419 10.1268C418.465 10.6023 417.647 11.3494 416.693 11.9606C415.74 12.5719 414.513 12.7077 413.628 13.319C412.742 13.9302 412.061 14.8811 411.243 15.6282C410.426 16.3753 409.676 17.1224 408.859 17.8695C408.041 18.6166 407.224 19.2958 406.474 20.1108C405.725 20.9258 404.907 21.605 404.158 22.42C403.408 23.235 402.591 23.9821 401.909 24.8651C401.228 25.748 400.819 26.7668 400.206 27.7176C399.593 28.6685 398.912 29.4835 398.367 30.4343C397.822 31.3852 397.549 32.4719 397.072 33.4227C396.595 34.3736 395.914 35.2565 395.505 36.2753C395.097 37.2941 395.028 38.3808 394.688 39.4674C394.347 40.5541 394.007 41.505 393.802 42.5917C393.598 43.6784 393.325 44.6971 393.189 45.7838C392.916 47.4818 395.097 48.2289 395.71 46.463C396.05 45.4442 396.323 44.4255 396.732 43.4746C397.072 42.4558 397.549 41.505 397.958 40.5541C398.367 39.6033 398.844 38.6524 399.321 37.7016C399.797 36.7507 400.07 35.7319 400.547 34.7811C401.024 33.8302 401.637 33.0152 402.182 32.0644C402.727 31.1135 403.136 30.1627 403.681 29.2797C404.226 28.3968 405.18 27.7855 405.793 26.9026C406.406 26.0197 406.747 25.0009 407.428 24.1859C408.109 23.3709 409.131 22.8954 409.881 22.1483C410.63 21.4012 411.311 20.5862 412.061 19.907C412.878 19.1599 413.56 18.277 414.445 17.6657C415.331 16.9866 416.353 16.5111 417.239 15.9678C418.192 15.3565 419.214 15.0169 420.168 14.5415C421.122 14.0661 421.939 13.2511 422.961 12.7756C423.983 12.3002 425.073 12.2323 426.095 11.8248C427.117 11.4173 428.071 10.9418 429.093 10.6023C430.115 10.2627 431.137 9.85516 432.159 9.58349C433.181 9.31182 434.203 8.70055 435.225 8.42888C436.315 8.15721 437.405 8.15721 438.495 7.95346C439.585 7.7497 440.675 7.7497 441.765 7.54595C443.673 7.07052 443.128 3.94629 441.356 3.94629Z" fill="#70878A"/>
<path d="M403.477 7.47733C402.66 8.08859 401.978 8.83569 401.161 9.44695C400.343 10.0582 399.867 11.0091 399.049 11.6882C398.231 12.3674 397.414 12.8429 396.664 13.522C395.438 14.6766 397.278 17.1217 398.64 16.1029C399.458 15.4917 400.003 14.4729 400.82 13.7937C401.638 13.1145 402.66 12.707 403.409 12.0278C404.159 11.3487 404.772 10.4657 405.589 9.71862C407.02 8.4961 404.908 6.39064 403.477 7.47733Z" fill="#70878A"/>
<path d="M482.03 77.7051C481.621 78.7239 480.94 79.6068 480.463 80.5577C479.986 81.5085 479.577 82.5273 479.1 83.4781C478.623 84.429 477.806 85.1761 477.261 86.1269C476.716 87.0778 476.239 88.0286 475.626 88.9116C475.013 89.7945 474.672 90.8812 473.991 91.6962C473.309 92.5112 472.56 93.3262 471.879 94.1413C471.197 94.9563 470.244 95.5676 469.494 96.3146C468.745 97.0617 468.132 97.9447 467.314 98.6918C466.496 99.4389 465.883 100.254 465.066 101.069C464.521 101.544 464.384 102.359 464.861 102.903C464.93 103.039 465.066 103.106 465.134 103.174C465.747 103.718 466.769 104.193 467.587 103.582C468.472 102.903 469.222 102.02 470.039 101.273C470.857 100.526 471.811 99.8464 472.628 99.0314C473.446 98.2164 474.195 97.4013 474.945 96.5184C475.694 95.6355 476.307 94.6846 476.92 93.8017C477.533 92.9187 477.874 91.6962 478.487 90.7454C479.1 89.7945 479.85 88.9116 480.395 87.9607C480.94 87.0099 481.826 86.1949 482.302 85.1761C482.779 84.1573 482.916 82.9348 483.324 81.916C483.733 80.8972 484.551 80.0143 484.959 78.9276C485.573 77.2297 482.711 76.0071 482.03 77.7051Z" fill="#70878A"/>
<path d="M279.959 30.1623C277.166 30.5019 274.713 29.551 272.465 28.4644C269.808 27.3777 268.036 24.8647 267.9 22.0121C267.832 20.8575 268.513 19.8388 269.058 18.8879C270.217 16.6466 272.601 15.3562 275.054 15.6278C276.825 15.8316 278.46 16.6466 279.618 17.937C280.913 19.1596 282.003 20.6538 282.752 22.2838C282.957 22.7592 283.229 23.1667 283.911 23.0988C284.456 23.0988 284.932 22.6913 284.932 22.148C285.137 21.4009 285.478 20.7217 285.886 20.1104C286.499 18.7521 285.886 17.2579 286.499 15.8995C286.636 15.6278 286.363 15.4241 286.295 15.1524C285.954 14.5411 285.75 13.794 285.682 13.1149C285.546 11.9603 284.456 11.2132 284.115 10.1265C284.115 10.0586 284.047 10.0586 283.979 10.0586C282.344 9.71896 281.73 8.22477 280.504 7.34183C279.55 6.66265 278.46 5.91555 277.098 6.11931C276.689 6.11931 276.28 6.05139 275.871 5.98347C274.304 5.64388 274.236 5.50804 274.986 4.14968C275.463 3.13091 276.28 2.24798 277.302 1.70463C277.915 1.36504 278.596 1.22921 279.21 1.36504C280.232 1.5688 281.322 1.77255 282.412 1.9763C282.752 1.9763 283.025 2.11214 283.297 2.31589C285.001 3.74217 286.84 4.9647 288.68 6.18722C289.633 6.8664 289.906 7.95309 290.519 8.76811C291.882 10.6019 292.563 12.7753 292.427 15.0166C293.176 16.4429 292.154 17.8691 292.359 19.3633C292.427 20.0425 291.882 20.6538 291.677 21.4009C291.2 23.5742 289.974 25.476 288.271 26.9022C287.317 27.6493 286.363 29.0077 284.66 28.6002C284.387 28.5323 284.251 28.8039 284.115 29.0756C283.911 29.551 283.638 29.9585 283.434 30.434C282.275 33.4224 279.959 35.0524 276.961 35.8674C275.735 36.1391 274.441 36.0712 273.282 35.6637C272.601 35.4599 272.601 35.1203 273.078 34.7128C273.419 34.3732 273.896 34.1695 274.372 34.1695C277.234 34.1695 278.528 32.064 279.959 30.1623ZM279.55 24.4572C278.665 22.5555 277.643 21.0613 276.008 19.9746C275.599 19.635 275.054 19.3633 274.509 19.3633C273.419 19.3633 272.465 19.9746 271.988 20.9934C271.647 21.8084 271.988 22.6913 272.737 23.1667C273.487 23.6422 274.236 24.4572 275.394 24.1855C275.599 24.1176 275.871 24.1176 276.008 24.1855C277.03 25.2043 278.188 24.5251 279.55 24.4572Z" fill="#354A4C"/>
<path d="M360.76 77.5689C358.784 77.7727 357.081 77.0935 355.446 76.3464C353.606 75.5993 352.312 73.7655 352.244 71.7959C352.312 70.9809 352.584 70.2338 353.061 69.5546C353.879 67.9925 355.582 67.0416 357.353 67.2454C358.58 67.3812 359.738 67.9925 360.624 68.8754C361.577 69.7583 362.327 70.7771 362.872 71.9317C363.008 72.2713 363.212 72.543 363.689 72.4751C364.098 72.4751 364.371 72.2034 364.439 71.7959C364.575 71.2525 364.779 70.7771 365.12 70.3696C365.597 69.4187 365.12 68.3321 365.529 67.3812C365.597 67.1774 365.461 67.0416 365.393 66.9058C365.188 66.4303 364.984 65.9549 364.984 65.4795C364.916 64.6645 364.098 64.1211 363.894 63.374L363.826 63.3061C362.667 63.1024 362.191 62.0157 361.373 61.4044C360.692 60.7931 359.874 60.5215 358.988 60.5215C358.716 60.5215 358.375 60.5215 358.103 60.3856C357.013 60.1819 356.945 60.046 357.49 59.0952C357.83 58.3481 358.375 57.7368 359.125 57.3972C359.533 57.1256 360.01 57.0577 360.487 57.1256C361.237 57.2614 361.986 57.3972 362.736 57.601C362.94 57.601 363.144 57.6689 363.349 57.8048C364.575 58.8235 365.869 59.7065 367.164 60.5215C367.845 60.9969 368.05 61.744 368.458 62.3553C369.412 63.6457 369.889 65.2078 369.821 66.7699C370.366 67.7887 369.617 68.8075 369.753 69.8262C369.821 70.3017 369.412 70.7771 369.276 71.2525C368.935 72.8146 368.05 74.173 366.823 75.1918C366.142 75.7351 365.461 76.686 364.302 76.4143C364.098 76.3464 364.03 76.5501 363.894 76.7539C363.757 77.0935 363.553 77.4331 363.417 77.7727C362.599 79.8781 360.964 81.0327 358.852 81.644C357.966 81.8477 357.081 81.7798 356.263 81.5082C355.786 81.3723 355.786 81.1007 356.127 80.829C356.4 80.6252 356.672 80.4894 357.013 80.4215C358.784 80.3535 359.67 78.9273 360.76 77.5689ZM360.419 73.4938C359.942 72.2034 359.057 71.1167 357.898 70.3696C357.626 70.0979 357.217 69.9621 356.808 69.9621C356.059 69.9621 355.378 70.4375 355.037 71.1167C354.833 71.66 355.037 72.3392 355.582 72.6788C356.127 73.0184 356.672 73.5617 357.421 73.358C357.558 73.2901 357.762 73.2901 357.83 73.358C358.648 74.0372 359.465 73.5617 360.419 73.4938Z" fill="#354A4C"/>
<path d="M442.651 200.433C440.608 200.704 438.836 199.957 437.201 199.21C435.294 198.395 433.999 196.561 433.863 194.524C433.931 193.709 434.203 192.894 434.68 192.214C435.498 190.584 437.269 189.634 439.109 189.837C440.403 189.973 441.561 190.584 442.447 191.535C443.401 192.418 444.218 193.505 444.763 194.66C444.9 194.999 445.104 195.339 445.581 195.271C445.99 195.271 446.33 194.999 446.33 194.592C446.467 194.048 446.739 193.573 447.012 193.097C447.489 192.079 447.012 190.992 447.42 190.041C447.489 189.837 447.352 189.702 447.284 189.498C447.08 189.022 446.875 188.547 446.807 188.004C446.739 187.121 445.922 186.645 445.717 185.83C445.717 185.762 445.649 185.762 445.649 185.762C444.491 185.559 444.014 184.404 443.128 183.793C442.447 183.181 441.561 182.842 440.676 182.91C440.403 182.91 440.063 182.91 439.79 182.774C438.632 182.57 438.564 182.434 439.109 181.483C439.449 180.736 440.063 180.125 440.812 179.718C441.221 179.446 441.766 179.378 442.243 179.446C442.992 179.582 443.81 179.785 444.559 179.921C444.763 179.921 444.968 180.057 445.172 180.193C446.399 181.212 447.761 182.163 449.124 182.978C449.805 183.453 450.009 184.268 450.486 184.879C451.44 186.17 451.985 187.8 451.849 189.43C452.394 190.517 451.644 191.535 451.781 192.622C451.849 193.097 451.44 193.573 451.304 194.116C450.963 195.678 450.078 197.105 448.783 198.123C448.034 198.667 447.352 199.685 446.194 199.414C445.99 199.346 445.853 199.618 445.785 199.753C445.649 200.093 445.445 200.433 445.309 200.772C444.491 202.946 442.788 204.168 440.608 204.711C439.722 204.915 438.768 204.847 437.951 204.576C437.474 204.44 437.474 204.168 437.814 203.828C438.087 203.625 438.427 203.421 438.768 203.421C440.676 203.353 441.63 201.859 442.651 200.433ZM442.379 196.222C441.834 194.931 440.948 193.777 439.79 192.962C439.449 192.69 439.109 192.554 438.7 192.486C437.882 192.486 437.201 192.962 436.86 193.709C436.656 194.32 436.86 194.931 437.406 195.271C437.951 195.61 438.496 196.222 439.313 196.018C439.449 195.95 439.654 195.95 439.722 196.018C440.539 196.833 441.357 196.29 442.379 196.222Z" fill="#354A4C"/>
<path d="M120.946 105.551C121.287 105.687 121.628 105.891 121.832 106.162C122.173 106.57 122.036 106.842 121.559 106.91C120.606 107.045 119.652 106.842 118.766 106.434C116.654 105.279 115.155 103.717 114.815 101.204C114.747 100.797 114.678 100.457 114.542 100.05C114.474 99.8461 114.474 99.5744 114.201 99.6423C112.907 99.6423 112.43 98.4198 111.817 97.7406C110.795 96.3822 110.182 94.6843 110.182 92.9863C110.182 92.443 109.841 91.8317 109.977 91.3563C110.386 90.2696 109.841 89.0471 110.659 88.0962C110.931 86.3983 111.885 84.8362 113.18 83.6815C113.793 83.1382 114.201 82.3911 115.019 82.0515C116.654 81.5082 118.221 80.829 119.788 80.0819C119.992 80.014 120.265 79.9461 120.469 80.014C121.287 80.014 122.173 80.0819 122.99 80.0819C123.535 80.0819 124.012 80.3536 124.421 80.6932C125.102 81.3044 125.511 82.0515 125.715 82.9345C126.056 84.0891 125.92 84.157 124.693 84.157C124.353 84.157 124.08 84.157 123.74 84.0891C122.786 83.8174 121.832 83.9532 120.946 84.4286C119.924 84.9041 119.175 85.9228 117.88 85.8549C117.812 85.8549 117.812 85.8549 117.744 85.9228C117.335 86.6699 116.382 87.0095 116.041 87.8925C115.837 88.4358 115.564 88.9112 115.223 89.3188C115.087 89.4546 114.883 89.5904 114.951 89.7942C115.155 90.8809 114.406 91.8996 114.678 93.0542C114.883 93.5976 115.019 94.2089 115.019 94.7522C114.951 95.1597 115.223 95.5672 115.632 95.6351C116.109 95.8389 116.382 95.5672 116.654 95.2276C117.54 94.1409 118.562 93.1901 119.788 92.5109C120.946 91.7638 122.309 91.4242 123.671 91.5601C125.579 91.7638 127.214 93.1901 127.623 95.0918C127.964 95.9068 128.1 96.7897 127.964 97.6727C127.35 99.7781 125.579 101.408 123.399 101.748C121.491 102.155 119.447 102.495 117.404 101.748C118.289 103.242 118.902 105.008 120.946 105.551ZM118.834 97.3331C119.856 97.6727 120.606 98.3519 121.628 97.8085C121.696 97.7406 121.968 97.8085 122.104 97.8764C122.922 98.2839 123.603 97.8085 124.285 97.6048C124.898 97.401 125.307 96.7218 125.238 96.1106C125.102 95.2955 124.421 94.6164 123.603 94.4126C123.195 94.3447 122.718 94.4126 122.377 94.6164C120.878 95.1597 119.72 96.1106 118.834 97.3331Z" fill="#354A4C"/>
<path d="M162.641 23.7779C162.914 24.0496 163.05 24.3892 163.118 24.7288C163.186 25.2721 162.982 25.4079 162.505 25.2042C161.619 24.8646 160.802 24.2533 160.257 23.4383C158.894 21.4687 158.349 19.2953 159.235 16.9861C159.371 16.6465 159.439 16.239 159.575 15.8315C159.643 15.6277 159.712 15.424 159.507 15.2881C158.349 14.6769 158.485 13.3864 158.281 12.4356C158.008 10.7376 158.281 8.97177 159.098 7.47757C159.371 6.93423 159.303 6.32296 159.712 5.91545C160.597 5.16836 160.665 3.80999 161.892 3.33457C162.982 1.97621 164.481 1.02535 166.184 0.617844C167.001 0.41409 167.683 -0.0613363 168.568 0.00658176C170.272 0.278254 171.975 0.41409 173.678 0.482008C173.951 0.482008 174.155 0.617844 174.359 0.75368C175.109 1.16119 175.79 1.5687 176.539 1.97621C177.016 2.24788 177.289 2.65539 177.493 3.19873C177.766 4.01375 177.834 4.9646 177.561 5.77962C177.357 6.93423 177.153 7.00214 176.131 6.39088C175.858 6.25504 175.586 6.11921 175.313 5.84754C174.632 5.16835 173.678 4.82876 172.724 4.82876C171.634 4.76085 170.408 5.30419 169.318 4.62501C169.25 4.62501 169.25 4.62501 169.182 4.62501C168.432 5.10044 167.41 4.9646 166.797 5.57586C166.388 5.98337 165.911 6.25504 165.366 6.4588C165.162 6.52672 164.958 6.59463 164.889 6.73047C164.549 7.81716 163.459 8.3605 163.118 9.51511C163.05 10.1264 162.846 10.6697 162.641 11.2131C162.369 11.6206 162.505 12.1639 162.914 12.4356C163.186 12.6393 163.595 12.6393 163.867 12.4356C165.162 11.8922 166.525 11.5527 167.887 11.4847C169.25 11.3489 170.612 11.6885 171.77 12.4356C173.337 13.5223 174.087 15.5598 173.61 17.3936C173.542 18.2765 173.201 19.0916 172.656 19.8387C171.157 21.4687 168.773 22.012 166.729 21.3329C164.821 20.7895 162.914 20.1103 161.483 18.5482C161.347 20.5178 161.006 22.4195 162.641 23.7779ZM164.617 15.5598C165.366 16.3069 165.707 17.2578 166.865 17.2578C167.001 17.2578 167.138 17.3936 167.206 17.5294C167.683 18.2765 168.568 18.2086 169.25 18.2765C169.931 18.3445 170.544 18.0049 170.817 17.3936C171.089 16.5786 170.817 15.6957 170.203 15.1523C169.863 14.8806 169.454 14.7448 168.977 14.7448C167.478 14.609 165.979 14.8806 164.617 15.5598Z" fill="#354A4C"/>
<path d="M21.8866 194.184C22.2272 194.184 22.5679 194.32 22.8404 194.592C23.2492 194.931 23.181 195.203 22.7041 195.339C21.8184 195.678 20.7965 195.746 19.9108 195.542C17.5944 194.931 15.755 193.709 14.8693 191.399C14.733 191.06 14.5286 190.652 14.3242 190.313C14.2561 190.109 14.1199 189.905 13.9155 189.973C12.621 190.313 11.8716 189.226 11.1222 188.683C9.75961 187.596 8.87393 186.102 8.46515 184.472C8.3289 183.928 7.85199 183.453 7.92012 182.91C8.05638 181.755 7.23883 180.668 7.85199 179.582C7.71573 177.884 8.26077 176.118 9.2827 174.759C9.7596 174.08 9.96399 173.265 10.6453 172.722C12.076 171.771 13.4386 170.82 14.8012 169.734C15.0055 169.598 15.2099 169.53 15.4824 169.462C16.3 169.258 17.1175 169.122 17.9351 168.919C18.4801 168.851 18.957 168.919 19.4339 169.19C20.1833 169.598 20.8646 170.277 21.2053 171.024C21.8184 172.043 21.7503 172.179 20.524 172.45C20.2515 172.518 19.9108 172.586 19.5702 172.586C18.6164 172.586 17.6626 172.926 16.9813 173.537C16.0956 174.216 15.6187 175.371 14.3242 175.642C14.2561 175.642 14.2561 175.71 14.2561 175.71C14.0517 176.593 13.1661 177.137 13.0979 178.02C13.0298 178.563 12.8935 179.106 12.621 179.582C12.5529 179.785 12.3485 179.921 12.4848 180.125C12.9617 181.144 12.4848 182.298 12.9617 183.317C13.3023 183.793 13.5067 184.336 13.7111 184.879C13.7792 185.287 14.1199 185.626 14.5286 185.626C15.0055 185.694 15.2781 185.355 15.4143 185.015C15.9593 183.725 16.7769 182.638 17.7988 181.687C18.6845 180.668 19.979 180.057 21.3415 179.853C23.2492 179.65 25.1568 180.6 26.0424 182.366C26.5875 183.045 26.86 183.928 26.9281 184.811C26.86 186.985 25.4974 188.954 23.4535 189.837C21.6822 190.652 19.8427 191.467 17.6626 191.196C18.7526 192.554 19.7746 194.184 21.8866 194.184ZM17.9351 186.713C19.0252 186.781 19.9108 187.256 20.7284 186.509C20.7965 186.441 21.069 186.441 21.2053 186.509C22.091 186.713 22.636 186.102 23.2492 185.694C23.7942 185.355 24.0667 184.608 23.7942 183.996C23.4535 183.249 22.7041 182.774 21.8184 182.774C21.4097 182.774 21.0009 182.978 20.6602 183.249C19.3658 184.132 18.4801 185.287 17.9351 186.713Z" fill="#354A4C"/>
<path d="M94.1713 330.02C93.5582 328.866 93.3538 327.507 92.7406 326.285C92.1275 325.062 91.7187 323.84 91.1737 322.617C90.6286 321.395 89.743 320.376 89.1979 319.153C88.6529 317.931 88.5166 316.572 87.9716 315.35C87.4266 314.127 86.8815 312.905 86.4046 311.682C85.9277 310.46 84.9058 309.441 84.4289 308.218C83.952 306.996 83.6113 305.706 83.1344 304.483C82.6575 303.26 82.5213 301.902 82.0444 300.68C81.5675 299.457 80.9543 298.235 80.5455 297.012C80.1368 295.789 80.0005 294.431 79.5917 293.141C79.183 291.85 78.2973 290.764 77.9566 289.473C77.616 288.183 77.1391 286.96 76.7984 285.67C76.4578 284.379 76.3897 283.021 76.049 281.73C75.7084 280.44 75.2315 279.217 74.8908 277.927C74.5502 276.637 74.4139 275.346 74.0733 274.056C73.7326 272.765 73.2557 271.543 72.9832 270.252C72.9832 270.116 73.5282 269.981 73.5282 269.845C73.5282 269.437 72.847 269.234 72.6426 268.962C72.4382 268.283 72.0975 267.671 71.4844 267.671C71.1437 267.603 70.8712 268.079 70.5987 268.215C69.3042 268.622 67.8735 268.486 66.6472 268.894C65.4209 269.301 64.1946 270.116 62.9001 270.456C61.6057 270.796 60.3112 271.203 59.0168 271.543C57.7223 271.882 56.4279 272.086 55.1334 272.494C53.839 272.901 52.4764 272.901 51.1819 273.241C49.8875 273.58 48.593 273.92 47.2986 274.327C46.0041 274.735 44.7778 275.278 43.4833 275.618C42.1889 275.957 41.0307 276.772 39.7362 277.112C38.4418 277.452 37.0792 277.452 35.7848 277.859C34.4903 278.267 33.1959 278.47 31.9014 278.81C30.607 279.15 29.3806 279.625 28.0862 280.032C26.7917 280.44 25.6335 281.187 24.3391 281.595C23.0446 282.002 21.7502 282.138 20.4557 282.545C19.1613 282.953 17.8668 283.225 16.5724 283.632C15.2779 284.04 13.711 283.7 12.4165 284.108C11.1221 284.515 9.89574 285.058 8.60129 285.466C7.30684 285.873 6.01239 286.077 4.71793 286.485C3.42348 286.892 2.12903 287.164 0.834581 287.571C-0.119226 287.911 0.0170323 289.745 0.15329 290.424C-0.0510968 290.764 -0.0510968 291.239 0.15329 291.579C0.289548 291.918 0.289548 292.19 0.357677 292.529C0.289548 292.801 0.289548 293.141 0.357677 293.412C0.766452 294.703 1.1071 295.993 1.44774 297.284C1.78839 298.574 2.19716 299.865 2.53781 301.155C2.87845 302.445 3.696 303.6 4.03664 304.891C4.37729 306.181 4.30916 307.607 4.71793 308.898C5.12671 310.188 5.73987 311.411 6.14864 312.701C6.55742 313.992 7.17058 315.214 7.51122 316.504C7.85187 317.795 7.71561 319.221 8.12439 320.512C8.53316 321.802 8.8738 323.093 9.28258 324.383C9.69135 325.673 10.3726 326.896 10.7814 328.186C11.1902 329.477 11.3264 330.835 11.7352 332.126C12.144 333.416 12.2121 334.774 12.6209 336.065C13.0297 337.355 13.9154 338.51 14.3241 339.8C14.7329 341.091 14.8692 342.449 15.2779 343.74C15.6867 345.03 15.823 346.388 16.2317 347.679C16.6405 348.969 17.2537 350.192 17.6624 351.482C18.0712 352.773 18.48 354.063 18.8888 355.354C19.2294 356.44 20.5239 356.372 21.2733 355.897C21.6139 356.101 22.0227 356.101 22.4315 356.033C23.7941 355.761 25.1566 355.761 26.5192 355.489C27.8818 355.218 29.1763 354.674 30.4707 354.335C31.7652 353.995 33.1959 353.859 34.4903 353.52C35.7848 353.18 37.2155 352.977 38.5099 352.637C39.8044 352.297 41.0988 351.686 42.4614 351.346C43.824 351.007 45.0503 350.464 46.4129 350.124C47.7755 349.784 49.0699 349.513 50.4325 349.105C51.7951 348.698 53.0895 348.29 54.384 347.883C55.6784 347.475 57.041 347.203 58.3355 346.728C59.6299 346.253 60.8562 345.573 62.1507 345.166C63.4451 344.758 64.7396 344.283 66.0341 343.808C67.3285 343.332 68.7592 343.264 70.0537 342.789C71.3481 342.313 72.7107 342.042 74.0051 341.566C75.2996 341.091 76.5941 340.547 77.8204 340.072C79.0467 339.597 80.3411 338.917 81.5675 338.374C82.7938 337.831 84.2926 337.763 85.519 337.22C86.7453 336.676 88.1079 336.201 89.3342 335.657C90.5605 335.114 91.7868 334.299 93.0132 333.756C93.8988 333.348 94.3757 332.397 94.2395 331.446C94.5801 330.971 94.4439 330.428 94.1713 330.02Z" fill="#354A4C"/>
<path d="M104.187 327.779C103.573 326.557 103.301 325.198 102.688 323.976C102.075 322.753 101.666 321.463 101.053 320.24C100.439 319.018 99.6219 317.931 99.0088 316.709C98.3956 315.486 98.2593 314.06 97.7143 312.837C97.1693 311.615 96.6243 310.392 96.0792 309.102C95.5342 307.811 94.5804 306.793 94.0354 305.502C93.4903 304.212 93.2178 302.921 92.7409 301.631C92.264 300.34 92.0596 298.982 91.6508 297.692C91.2421 296.401 90.5608 295.179 90.0839 293.888C89.607 292.598 89.5388 291.239 89.1301 289.949C88.7213 288.659 87.8356 287.504 87.4268 286.213C87.0181 284.923 86.6093 283.633 86.2686 282.342C85.928 281.052 85.8599 279.625 85.5192 278.335C85.1786 277.045 84.7017 275.754 84.361 274.464C84.0204 273.173 83.816 271.815 83.5435 270.456C83.271 269.098 82.6578 267.876 82.3853 266.517C82.3853 266.381 82.9303 266.246 82.9303 266.11C82.9303 265.702 82.249 265.498 82.0446 265.159C81.8403 264.48 81.4996 263.868 80.8865 263.868C80.5458 263.8 80.2733 264.276 80.0008 264.412C78.7063 264.819 77.2756 264.683 75.9812 265.091C74.6867 265.498 73.5285 266.313 72.3022 266.653C71.0759 266.993 69.7133 267.4 68.4188 267.74C67.1244 268.079 65.8299 268.283 64.5355 268.691C63.241 269.098 61.8785 269.03 60.584 269.438C59.2896 269.845 57.9951 270.117 56.7007 270.524C55.4062 270.932 54.1799 271.475 52.8854 271.815C51.591 272.154 50.4328 272.969 49.1383 273.309C47.8439 273.649 46.4813 273.649 45.1869 274.056C43.8924 274.464 42.5979 274.599 41.3035 275.007C40.009 275.415 38.7827 275.822 37.4883 276.23C36.1938 276.637 35.0356 277.384 33.7412 277.792C32.4467 278.199 31.1523 278.335 29.8578 278.742C28.5634 279.15 27.2689 279.422 25.9745 279.829C24.68 280.237 23.4537 280.712 22.1592 281.12C20.8648 281.527 19.6385 282.07 18.344 282.478C17.0496 282.885 15.7551 283.089 14.4607 283.497C13.1662 283.904 11.8718 284.176 10.5773 284.583C9.75976 284.923 9.35099 285.806 9.62351 286.621C9.41912 287.028 9.41912 287.436 9.62351 287.844C9.75976 288.183 9.75976 288.523 9.82789 288.794C9.75976 289.066 9.75976 289.406 9.82789 289.677C10.2367 290.968 10.5773 292.326 10.9861 293.684C11.3949 295.043 11.7355 296.333 12.1443 297.692C12.5531 299.05 13.3025 300.205 13.6431 301.563C13.9838 302.921 13.9838 304.348 14.3244 305.638C14.6651 306.928 15.4145 308.219 15.7551 309.509C16.0958 310.8 16.7771 312.09 17.1858 313.381C17.5946 314.671 17.3902 316.165 17.799 317.524C18.2078 318.882 18.6165 320.173 18.9572 321.463C19.2978 322.753 20.0472 323.976 20.456 325.334C20.8648 326.693 21.0692 328.051 21.4098 329.341C21.7505 330.632 21.9549 332.058 22.3636 333.349C22.7724 334.639 23.6581 335.794 24.0669 337.152C24.4756 338.51 24.6119 339.869 25.0207 341.159C25.4294 342.45 25.5657 343.876 25.9745 345.166C26.3832 346.457 27.0645 347.747 27.4733 349.038C27.8821 350.328 28.2909 351.686 28.6996 352.977C29.0403 354.132 30.3347 354.064 31.0841 353.52C31.4248 353.724 31.8336 353.724 32.2423 353.656C33.6049 353.384 35.0356 353.384 36.3301 353.113C37.6245 352.841 38.9871 352.298 40.2816 351.958C41.576 351.619 43.0067 351.483 44.3012 351.143C45.5956 350.804 47.0263 350.6 48.3208 350.26C49.6152 349.921 50.9097 349.309 52.2723 348.97C53.6348 348.63 54.8612 348.087 56.2238 347.747C57.5863 347.408 58.8808 347.136 60.2434 346.728C61.6059 346.321 62.9004 345.913 64.1948 345.506C65.4893 345.098 66.8519 344.827 68.1463 344.419C69.4408 344.012 70.6671 343.265 71.9616 342.789C73.256 342.314 74.5505 341.906 75.8449 341.431C77.1394 340.955 78.5701 340.888 79.8645 340.48C81.159 340.073 82.5216 339.733 83.816 339.257C85.1105 338.782 86.4049 338.239 87.6312 337.763C88.8575 337.288 90.152 336.609 91.3783 336.065C92.6046 335.522 94.1035 335.454 95.3298 334.911C96.5561 334.367 97.9187 333.892 99.145 333.349C100.371 332.805 101.598 331.99 102.824 331.447C103.71 331.039 104.187 330.021 103.982 329.07C104.595 328.73 104.459 328.187 104.187 327.779Z" fill="#70878A"/>
<path d="M71.3478 291.783C70.6665 291.103 70.2577 290.085 69.5083 289.405C68.7589 288.726 67.6688 288.523 66.9194 287.843C66.17 287.164 65.6249 286.281 64.7392 285.806C63.8536 285.33 62.9679 284.855 62.0141 284.583C61.0603 284.312 60.0383 284.244 59.0845 284.244C58.1307 284.108 57.1088 284.176 56.155 284.312C55.8143 284.38 55.5418 284.787 55.2693 284.991C54.3155 284.923 53.2936 284.923 52.3398 284.923C51.386 284.991 50.4322 285.127 49.4783 285.33C48.5245 285.602 47.6389 285.874 46.6851 286.281C45.8675 286.757 45.05 287.3 44.2324 287.911C43.4149 288.387 42.3248 288.523 41.5072 289.066C40.6897 289.609 39.9403 290.221 39.1909 290.9C38.5096 291.579 37.8283 292.326 37.2832 293.141C36.0569 294.635 34.9669 296.333 34.1493 298.031C33.8087 298.914 33.468 299.865 33.1955 300.748C32.8549 301.563 32.0373 302.242 31.7648 303.193C31.4923 304.076 31.2879 304.959 31.0835 305.91C30.8791 306.793 31.2879 307.811 31.1516 308.762C31.0154 309.645 30.4022 310.528 30.266 311.411C30.1978 312.294 30.6066 313.245 30.6066 314.196C30.6066 315.146 30.4703 316.029 30.4703 316.912C30.4703 317.795 30.4703 318.746 30.5385 319.697C30.6066 320.648 30.4022 321.599 30.6066 322.482C30.7429 323.432 31.0154 324.315 31.2198 325.198C31.4923 326.081 31.7648 326.964 32.1054 327.847C32.378 328.73 32.7186 329.613 33.0592 330.428C33.468 331.243 33.9449 332.058 34.49 332.873C35.035 333.62 36.0569 334.028 36.6701 334.707C37.3514 335.454 37.692 336.473 38.3733 337.084C39.1227 337.695 40.2128 337.831 41.0303 338.307C41.8479 338.85 42.6654 339.257 43.5511 339.665C44.3687 340.14 45.2543 340.548 46.2081 340.887C47.162 341.159 48.1839 340.955 49.1377 341.091C50.0915 341.295 51.0453 341.431 51.9991 341.499C52.9529 341.567 53.9067 341.974 54.8605 341.906C55.8143 341.838 56.7 341.159 57.6538 341.023C58.6076 340.887 59.6296 341.227 60.5834 341.023C61.5372 340.819 62.491 340.548 63.3767 340.276C64.3305 340.004 65.148 339.461 66.0337 339.122C66.9194 338.714 67.7369 338.239 68.6226 337.831C69.372 337.288 70.1214 336.744 70.8709 336.133C71.6884 335.658 72.4378 335.114 73.1872 334.571C73.8685 333.892 74.4817 333.213 75.0267 332.466C75.708 331.854 76.3893 331.175 77.0025 330.496C77.6838 329.817 78.2969 329.07 78.842 328.323C79.3189 327.508 79.7276 326.625 80.1364 325.81C80.5452 324.927 80.5452 323.976 80.8177 323.025C81.499 321.259 82.044 319.493 82.3847 317.659C82.7253 315.826 82.6572 313.924 82.2484 312.022C82.1803 311.071 82.5209 310.121 82.3165 309.17C82.1121 308.151 81.3627 307.336 81.0902 306.453C80.8177 305.502 81.0221 304.347 80.6133 303.465C80.2045 302.582 79.2507 301.902 78.7738 301.087C78.2969 300.272 77.8881 299.322 77.3431 298.507C76.7981 297.691 76.2531 296.809 75.6399 296.061C75.0267 295.314 74.2092 294.703 73.5279 293.956C72.8466 293.209 72.029 292.462 71.3478 291.783Z" fill="#171C22"/>
<path d="M47.7753 301.019C47.5028 300.408 47.094 299.797 46.6853 299.253C46.2084 298.71 45.3908 298.71 44.8458 299.185C44.5733 299.457 44.437 299.729 44.437 300.136C44.5051 300.815 44.7095 301.495 44.982 302.174C45.1864 302.853 45.5271 303.464 45.9358 304.076C46.3446 304.619 47.0259 304.755 47.6391 304.483C48.2522 304.347 48.661 303.804 48.661 303.193C48.5248 302.378 48.1841 301.698 47.7753 301.019Z" fill="#70878A"/>
<path d="M57.109 296.877C57.0409 296.265 56.4278 295.79 55.8146 295.926C55.6783 295.926 55.6102 295.994 55.474 295.994C54.7927 296.062 54.3158 296.673 54.452 297.352C54.452 297.488 54.5201 297.556 54.5201 297.624C54.6564 298.167 54.9289 298.71 55.0652 299.322C55.2014 299.865 55.4058 300.408 55.6102 300.952C55.9509 301.631 56.4278 301.631 57.109 301.427C57.7903 301.223 58.6079 300.884 58.4716 300.137C58.4035 299.525 58.1991 298.982 57.9947 298.371C57.9266 297.827 57.3134 297.42 57.109 296.877Z" fill="#70878A"/>
<path d="M56.2241 327.236C55.8835 326.557 55.4747 325.945 54.9978 325.402C54.1803 324.519 52.4771 325.334 52.4771 326.489C52.5452 327.168 52.6814 327.915 52.954 328.526C53.2265 329.205 53.499 329.885 53.9759 330.428C54.4528 330.971 55.1341 331.243 55.8835 331.039C56.4967 330.768 56.8373 330.156 56.701 329.545C56.6329 328.73 56.4285 327.983 56.2241 327.236Z" fill="#70878A"/>
<path d="M66.5119 321.938C66.1712 320.987 65.2174 321.055 64.468 321.259C63.7186 321.462 63.0373 321.938 63.3098 322.889C63.4461 323.432 63.6505 324.043 63.7867 324.587C63.923 325.198 64.0592 325.741 64.2636 326.285C64.6724 326.896 65.4899 327.168 66.1712 326.896C66.8525 326.692 67.5338 326.081 67.4657 325.334C67.3976 324.723 67.2613 324.111 67.125 323.568C66.9888 323.025 66.7163 322.481 66.5119 321.938Z" fill="#70878A"/>
<path d="M43.6884 309.17C42.939 309.373 42.5302 310.053 42.7346 310.8C42.939 311.751 43.4159 312.634 43.6202 313.516C43.8246 314.264 44.4378 314.807 45.1872 314.603C45.9366 314.331 46.2773 313.516 46.0048 312.769C45.8004 311.818 45.9366 310.8 45.6641 309.917C45.5279 309.238 44.4378 308.966 43.6884 309.17Z" fill="#70878A"/>
<path d="M54.9969 305.978C54.7925 305.434 54.1794 305.163 53.7024 305.366C53.6343 305.366 53.6343 305.366 53.5662 305.434C52.953 305.638 52.2036 305.91 52.2036 306.725C52.2036 307.744 52.953 308.694 53.2937 309.509C53.5662 310.257 54.3156 311.072 55.1332 310.732C56.0188 310.392 56.5639 309.509 56.4276 308.559C56.3595 308.015 56.0188 307.879 55.8144 307.268C55.5419 306.793 55.3375 306.385 54.9969 305.978Z" fill="#70878A"/>
<path d="M64.2629 302.65C63.3772 302.989 62.9685 303.465 63.1728 304.28C63.3091 304.959 63.4454 305.638 63.6497 306.317C63.8541 307.064 64.5354 307.54 65.2848 307.472C66.0343 307.336 66.9199 306.589 66.8518 305.842C66.7837 305.027 66.1705 304.28 65.9661 303.465C65.8299 302.853 65.1486 302.446 64.5354 302.582C64.3992 302.582 64.331 302.582 64.2629 302.65Z" fill="#70878A"/>
<path d="M52.4758 314.807C52.1352 313.788 51.1814 313.653 50.3638 313.856C49.5463 314.128 49.2056 314.671 49.4781 315.69C49.6144 316.301 49.6144 316.981 49.7507 317.592C49.955 318.203 50.2276 318.746 50.5682 319.222C50.977 319.969 51.4539 320.241 52.1352 319.969C52.8165 319.765 53.2934 319.154 53.2252 318.407C53.2252 317.796 53.1571 317.116 53.0208 316.505C52.8846 316.03 52.6802 315.35 52.4758 314.807Z" fill="#70878A"/>
<path d="M62.559 310.732C61.6052 310.868 60.992 311.683 61.0601 312.566C61.1283 312.905 61.0601 313.245 61.0601 313.585C61.1283 314.196 60.9239 314.739 61.1283 315.282C61.537 315.894 62.2865 316.165 63.0359 316.097C63.7853 315.962 64.3303 315.418 64.6029 314.739C64.8072 314.06 64.3985 313.177 64.3303 312.498C64.3985 311.547 63.5809 310.8 62.559 310.732Z" fill="#70878A"/>
<path d="M47.3666 322.549C46.9578 321.802 45.6633 321.87 44.9821 322.346C44.2326 322.753 43.9601 323.636 44.3008 324.383C44.7095 325.13 45.2546 325.877 45.7996 326.624C46.2084 327.304 47.0259 327.575 47.7753 327.304C48.3885 327.032 49.0698 326.013 48.7973 325.266C48.3885 324.383 47.9116 323.432 47.3666 322.549Z" fill="#70878A"/>
<path d="M59.2897 319.833C58.9491 319.018 58.4041 318.271 57.4503 318.611C56.5646 318.882 56.0877 319.833 56.2921 320.716C56.4283 321.056 56.769 321.259 56.9052 321.599C57.0415 321.871 56.6327 322.278 56.769 322.55C56.9052 322.822 57.2459 322.957 57.4503 323.161C57.859 323.637 58.6766 323.365 59.1535 323.161C59.6985 322.889 60.2435 322.55 60.1754 321.871C60.2435 321.124 59.6304 320.58 59.2897 319.833Z" fill="#70878A"/>
<path d="M70.667 313.177C69.7132 313.584 69.1001 314.603 69.3044 315.622C69.5088 316.437 70.1901 317.048 70.5308 317.727C70.8714 318.338 71.689 318.882 72.3021 318.678C72.9834 318.338 73.3922 317.659 73.3241 316.912C73.2559 316.097 73.0515 315.282 72.779 314.535C72.5746 313.72 71.4846 312.905 70.667 313.177Z" fill="#70878A"/>
<path d="M44.6419 241.727C44.9144 242.203 45.0507 242.678 45.0507 243.153C45.0507 243.493 45.1869 243.833 45.4595 244.104C46.4133 244.987 46.6858 246.278 47.2989 247.432C47.3671 247.5 47.4352 247.636 47.4352 247.704C46.8902 248.926 47.7758 250.149 48.0484 251.304C48.3209 252.526 47.9802 253.613 48.1165 254.767C48.1165 255.379 48.2527 255.922 48.5253 256.465C48.934 257.077 48.934 257.824 48.5934 258.435C48.389 258.707 48.5934 261.152 48.6615 261.899C49.0022 264.887 49.6153 267.876 49.4791 270.796C49.4791 270.864 49.4791 270.864 49.4791 270.932C49.956 272.766 49.8197 274.599 49.7516 276.365C49.6835 277.112 49.6153 277.927 49.6835 278.675C49.7516 279.218 48.3209 280.372 47.844 280.305C47.5715 280.237 47.2989 279.965 47.2308 279.693C46.7539 278.946 46.1408 278.199 45.4595 277.656C44.5738 276.841 43.9606 275.89 43.5518 274.803C42.6662 272.154 41.0311 269.913 39.6004 267.468C39.3278 266.925 39.1916 266.449 38.9872 265.974C38.374 264.751 37.829 263.393 37.1477 262.17C36.6708 261.287 36.3302 260.337 36.0577 259.386C35.5126 257.348 34.5588 255.379 33.4006 253.545C33.2644 253.341 33.1281 253.137 33.06 252.866C32.6512 251.032 32.1743 249.266 31.7655 247.432C31.2205 245.53 31.2205 243.561 31.6293 241.659C32.1743 239.825 32.7193 237.856 34.3544 237.041C35.4445 236.497 36.6027 235.614 38.1697 236.497C39.3278 236.226 40.2817 237.177 41.1673 237.788C42.6662 238.739 43.8244 240.165 44.6419 241.727Z" fill="#354A4C"/>
<path d="M6.69394 268.215C6.89833 268.011 7.3071 267.875 7.64775 267.672C8.32904 267.196 9.14658 267.536 9.96413 268.079C10.9179 268.758 11.9399 269.302 13.0981 269.641C13.8475 269.777 14.4606 270.253 14.8013 270.932C15.0738 271.339 15.4145 271.679 15.8914 271.951C16.6408 272.426 17.3221 273.445 18.0715 273.649C18.6165 274.667 19.5703 274.803 20.1154 276.026C20.5923 276.773 21.2054 277.452 21.9548 277.927C22.7724 278.742 23.5218 279.693 24.2031 280.644C24.9525 281.595 25.6338 282.614 26.3832 283.565C26.5195 283.768 26.6557 283.904 26.8601 284.04C27.4733 284.312 27.8821 284.855 28.0183 285.534C28.2908 286.145 28.6996 286.757 29.2446 287.164C29.9259 287.775 30.4028 288.658 30.5391 289.541C30.7435 290.628 30.1303 290.832 29.9259 291.375C29.7215 291.851 29.3128 291.986 28.8359 291.783C28.1546 291.511 27.4733 290.968 26.8601 291.171C26.792 291.171 26.5876 290.968 26.4514 290.832C25.0888 289.338 23.6581 288.794 22.2274 288.115C21.8186 287.979 21.4779 287.843 21.1373 287.64C19.7747 286.553 18.2759 285.67 16.6408 285.127C15.8914 284.855 15.2782 284.447 14.7332 283.836C14.0519 283.089 13.3025 282.41 12.4849 281.935C12.2124 281.799 12.008 281.663 11.8717 281.391C10.6454 279.489 9.01033 278.267 7.71587 276.365C6.96646 275.143 6.28516 273.92 5.80826 272.562C5.05884 271.068 5.60387 268.623 6.69394 268.215Z" fill="#354A4C"/>
<path d="M82.3844 256.397C83.0656 256.805 83.1338 257.824 82.8613 259.046C82.5206 260.472 82.1118 261.899 81.5668 263.257C81.158 264.14 80.5449 265.159 79.9998 266.11C78.7054 268.555 76.934 271 75.3671 273.445C75.1627 273.784 74.8902 274.056 74.5495 274.396C74.0045 274.939 73.5276 275.618 73.1869 276.297C72.8463 276.977 72.3694 277.656 71.9606 278.199C71.2793 279.15 70.4618 279.422 69.7805 279.897C69.3036 280.237 69.0992 280.033 68.9629 279.625C68.4179 277.995 68.7586 275.89 68.8948 273.852C69.4398 272.969 69.4398 272.29 69.7124 271.475C70.3255 269.777 70.7343 268.079 71.3475 266.381C71.7562 265.023 72.3013 263.665 72.9144 262.374C73.9364 260.405 75.0946 258.299 77.2066 256.669C77.4791 256.397 77.8197 256.194 78.1604 256.058C80.068 255.175 81.4305 255.379 82.3844 256.397Z" fill="#354A4C"/>
<path d="M50.4325 333.552C49.615 333.484 48.8656 333.28 48.1162 333.009C47.3667 332.873 46.6173 332.601 45.8679 332.262C45.1866 331.854 44.5734 331.379 43.9603 330.835C43.3471 330.36 42.4614 330.156 41.9164 329.613C41.3714 329.069 41.0989 328.186 40.622 327.575C40.1451 326.964 39.7363 326.285 39.3275 325.606C38.9187 324.926 38.51 324.247 38.1693 323.5C37.8968 322.753 37.6243 322.006 37.488 321.191C37.3518 320.376 37.3518 319.561 37.3518 318.814C37.2155 317.999 37.1474 317.252 37.1474 316.437C37.0792 315.622 37.0111 314.807 37.0111 313.992C37.1474 313.177 37.488 312.429 37.6243 311.614C37.8968 310.46 36.1254 309.713 35.6485 310.867C35.3079 311.547 35.0354 312.226 34.7629 312.905C34.4903 313.584 34.286 314.331 34.1497 315.01C34.0816 315.757 34.0134 316.505 34.0134 317.252C33.9453 317.999 33.9453 318.746 33.9453 319.493C34.0134 320.24 34.5585 320.919 34.6947 321.598C34.831 322.278 34.6266 323.093 34.831 323.84C35.1035 324.519 35.4442 325.198 35.8529 325.809C36.1254 326.488 36.4661 327.1 36.8749 327.779C37.3518 328.458 37.8287 329.069 38.3737 329.681C38.7825 330.36 39.2594 331.039 39.7363 331.718C40.2813 332.329 40.8945 332.873 41.5076 333.416C42.1889 333.892 42.9383 334.231 43.6196 334.571C44.3009 334.978 44.846 335.793 45.5954 336.065C46.4129 336.269 47.2305 336.405 48.048 336.472C48.8656 336.472 49.6831 336.337 50.5007 336.133C51.4545 335.997 51.9314 335.522 51.9314 334.842C51.9314 334.163 51.3863 333.552 50.4325 333.552Z" fill="#171C22"/>
<path d="M60.9921 288.998C59.8339 288.727 58.9482 291.036 60.0383 291.511C60.7877 291.851 61.6734 291.851 62.4228 292.19C63.1722 292.53 63.9216 292.87 64.6029 293.277C65.2842 293.752 65.5567 294.635 66.1699 295.247C66.7831 295.722 67.3281 296.198 67.8731 296.741C68.35 297.352 68.7588 297.963 69.2357 298.643C69.7126 299.254 70.2576 299.797 70.8027 300.341C71.7565 301.359 73.1191 300.273 72.8465 299.118C72.6422 298.371 72.3015 297.692 71.8927 297.013C71.5521 296.333 71.2115 295.654 70.7345 294.975C70.2576 294.432 69.4401 294.16 68.8269 293.617C68.2819 293.141 67.8731 292.326 67.1918 291.919C66.5787 291.511 65.8974 291.104 65.2161 290.764C64.5348 290.424 63.7854 290.153 63.036 289.949C62.4228 289.542 61.7415 289.27 60.9921 288.998Z" fill="#171C22"/>
<path d="M359.465 330.836C359.261 331.786 359.806 332.737 360.692 333.145C361.986 333.688 363.076 334.503 364.371 335.047C365.665 335.59 366.891 336.065 368.186 336.609C369.48 337.152 370.911 337.288 372.137 337.763C373.364 338.239 374.658 338.986 375.884 339.461C377.111 339.937 378.405 340.48 379.7 340.955C380.994 341.431 382.357 341.703 383.651 342.178C384.946 342.653 386.376 342.721 387.671 343.197C388.965 343.672 390.26 344.08 391.554 344.555C392.848 345.031 394.075 345.71 395.369 346.117C396.664 346.525 398.026 346.864 399.321 347.272C400.615 347.679 401.978 348.087 403.272 348.494C404.567 348.902 405.929 349.106 407.292 349.513C408.654 349.921 409.881 350.396 411.243 350.736C412.606 351.075 413.832 351.686 415.195 352.026C416.557 352.366 417.92 352.569 419.214 352.909C420.509 353.249 421.94 353.384 423.234 353.724C424.528 354.064 425.891 354.607 427.185 354.879C428.48 355.15 429.911 355.15 431.273 355.422C431.682 355.558 432.091 355.49 432.431 355.286C433.181 355.762 434.475 355.829 434.816 354.743C435.225 353.452 435.633 352.162 436.042 350.871C436.451 349.581 437.064 348.358 437.473 347.068C437.882 345.778 438.018 344.419 438.427 343.129C438.836 341.838 438.972 340.48 439.312 339.19C439.653 337.899 440.607 336.745 441.016 335.454C441.424 334.164 441.493 332.805 441.901 331.515C442.31 330.224 442.446 328.866 442.855 327.576C443.264 326.285 443.945 325.063 444.354 323.772C444.763 322.482 445.103 321.191 445.512 319.901C445.921 318.61 445.717 317.184 446.125 315.894C446.534 314.603 447.147 313.381 447.488 312.09C447.829 310.8 448.51 309.577 448.919 308.287C449.327 306.996 449.191 305.57 449.6 304.28C450.009 302.989 450.758 301.835 451.099 300.544C451.439 299.254 451.848 297.963 452.189 296.673C452.529 295.382 452.938 294.092 453.279 292.801C453.347 292.53 453.347 292.19 453.279 291.919C453.415 291.579 453.415 291.239 453.483 290.968C453.688 290.628 453.688 290.153 453.483 289.813C453.688 289.134 453.756 287.3 452.802 286.961C451.508 286.553 450.213 286.281 448.919 285.874C447.624 285.466 446.33 285.263 445.035 284.855C443.741 284.448 442.515 283.904 441.22 283.497C439.926 283.089 438.359 283.429 437.064 283.021C435.77 282.614 434.475 282.342 433.181 281.935C431.886 281.527 430.592 281.391 429.298 280.984C428.003 280.576 426.845 279.829 425.55 279.422C424.256 279.014 423.03 278.607 421.735 278.199C420.441 277.792 419.146 277.588 417.852 277.248C416.557 276.909 415.195 276.909 413.9 276.501C412.606 276.094 411.448 275.347 410.153 275.007C408.859 274.667 407.632 274.056 406.338 273.717C405.044 273.377 403.749 273.037 402.455 272.63C401.16 272.222 399.798 272.222 398.503 271.883C397.209 271.543 395.914 271.339 394.62 270.932C393.325 270.524 392.031 270.185 390.736 269.845C389.442 269.506 388.284 268.623 386.989 268.283C385.695 267.943 384.264 268.011 383.038 267.604C382.697 267.536 382.425 266.993 382.152 267.061C381.539 267.061 381.198 267.672 380.994 268.351C380.79 268.623 380.108 268.894 380.108 269.234C380.108 269.37 380.653 269.506 380.653 269.641C380.381 270.932 379.836 272.154 379.563 273.445C379.291 274.735 379.086 276.026 378.746 277.316C378.405 278.607 377.928 279.829 377.588 281.12C377.247 282.41 377.179 283.768 376.838 285.059C376.498 286.349 376.089 287.572 375.68 288.862C375.271 290.153 374.454 291.239 374.045 292.53C373.636 293.82 373.5 295.111 373.091 296.401C372.682 297.692 372.001 298.846 371.592 300.069C371.183 301.291 370.979 302.65 370.502 303.872C370.025 305.095 369.753 306.385 369.208 307.608C368.663 308.83 367.709 309.849 367.232 311.071C366.755 312.294 366.142 313.517 365.665 314.739C365.188 315.962 364.984 317.32 364.439 318.542C363.894 319.765 363.008 320.784 362.463 322.006C361.918 323.229 361.441 324.451 360.896 325.674C360.351 326.896 360.078 328.187 359.465 329.409C359.533 329.885 359.397 330.36 359.465 330.836Z" fill="#354A4C"/>
<path d="M349.451 328.663C349.247 329.613 349.723 330.564 350.609 331.04C351.904 331.583 352.994 332.398 354.288 332.941C355.583 333.485 356.809 333.96 358.103 334.503C359.398 335.047 360.829 335.183 362.055 335.658C363.281 336.134 364.507 336.881 365.802 337.356C367.096 337.831 368.323 338.375 369.617 338.85C370.912 339.326 372.274 339.597 373.569 340.073C374.863 340.548 376.294 340.616 377.588 341.024C378.883 341.431 380.177 341.907 381.472 342.382C382.766 342.857 383.992 343.537 385.287 344.012C386.581 344.487 387.944 344.759 389.238 345.099C390.533 345.438 391.895 345.914 393.19 346.321C394.484 346.729 395.847 346.932 397.209 347.34C398.572 347.748 399.798 348.223 401.161 348.563C402.523 348.902 403.75 349.513 405.112 349.853C406.475 350.193 407.838 350.396 409.132 350.736C410.426 351.076 411.857 351.211 413.152 351.551C414.446 351.891 415.809 352.434 417.103 352.706C418.398 352.977 419.896 352.977 421.191 353.249C421.6 353.385 422.008 353.317 422.349 353.113C423.098 353.588 424.393 353.656 424.734 352.57C425.142 351.279 425.551 349.921 425.96 348.63C426.369 347.34 427.05 346.05 427.459 344.759C427.867 343.469 428.004 342.042 428.412 340.752C428.821 339.461 428.958 338.035 429.366 336.745C429.775 335.454 430.729 334.3 431.07 332.941C431.41 331.583 431.615 330.225 432.023 328.934C432.432 327.644 432.636 326.217 432.977 324.927C433.318 323.637 434.067 322.414 434.476 321.056C434.885 319.697 435.294 318.407 435.634 317.116C435.975 315.826 435.839 314.332 436.247 312.973C436.656 311.615 437.269 310.393 437.678 309.102C438.087 307.812 438.768 306.521 439.109 305.231C439.449 303.94 439.449 302.446 439.79 301.156C440.131 299.865 440.948 298.643 441.289 297.284C441.63 295.926 442.038 294.636 442.447 293.277C442.856 291.919 443.196 290.628 443.605 289.27C443.673 288.998 443.673 288.659 443.605 288.387C443.742 288.048 443.742 287.708 443.81 287.436C444.014 287.029 444.014 286.621 443.81 286.214C444.082 285.399 443.673 284.516 442.856 284.176C441.561 283.769 440.267 283.497 438.972 283.09C437.678 282.682 436.384 282.478 435.089 282.071C433.795 281.663 432.568 281.12 431.274 280.712C429.979 280.305 428.753 279.829 427.459 279.422C426.164 279.014 424.87 278.743 423.575 278.335C422.281 277.928 420.986 277.792 419.692 277.384C418.398 276.977 417.239 276.23 415.945 275.822C414.65 275.415 413.424 275.007 412.13 274.6C410.835 274.192 409.541 273.988 408.246 273.649C406.952 273.309 405.589 273.309 404.295 272.902C403 272.494 401.842 271.747 400.548 271.408C399.253 271.068 398.027 270.457 396.732 270.117C395.438 269.778 394.144 269.438 392.849 269.03C391.555 268.623 390.192 268.691 388.898 268.283C387.603 267.876 386.241 267.74 385.014 267.333C383.788 266.925 382.425 266.585 381.131 266.246C379.837 265.906 378.678 265.023 377.452 264.684C376.226 264.344 374.727 264.412 373.432 264.005C373.092 263.937 372.819 263.393 372.547 263.461C371.934 263.461 371.593 264.072 371.389 264.752C371.184 265.091 370.503 265.295 370.503 265.702C370.503 265.838 371.048 265.974 371.048 266.11C370.775 267.468 370.23 268.691 369.89 270.049C369.549 271.408 369.413 272.698 369.072 274.056C368.731 275.415 368.255 276.637 367.914 277.928C367.573 279.218 367.505 280.644 367.165 281.935C366.824 283.225 366.347 284.516 366.006 285.806C365.666 287.097 364.712 288.251 364.303 289.542C363.894 290.832 363.758 292.191 363.349 293.481C362.94 294.771 362.259 295.994 361.782 297.284C361.305 298.575 361.169 299.933 360.692 301.224C360.215 302.514 359.875 303.805 359.398 305.095C358.921 306.385 357.899 307.404 357.354 308.695C356.809 309.985 356.264 311.208 355.719 312.43C355.174 313.653 355.038 315.079 354.424 316.301C353.811 317.524 352.994 318.611 352.381 319.833C351.767 321.056 351.359 322.346 350.745 323.569C350.132 324.791 349.928 326.15 349.247 327.372C349.451 327.644 349.383 328.119 349.451 328.663Z" fill="#70878A"/>
<path d="M380.449 293.141C379.768 293.888 378.95 294.499 378.337 295.246C377.724 295.993 377.179 296.876 376.634 297.691C376.089 298.506 375.68 299.457 375.203 300.272C374.726 301.087 373.772 301.766 373.364 302.649C372.955 303.532 373.159 304.687 372.887 305.638C372.614 306.588 371.865 307.403 371.66 308.354C371.524 309.305 371.797 310.256 371.729 311.207C371.32 313.041 371.32 314.942 371.592 316.844C371.797 317.795 372.001 318.678 372.274 319.561C372.546 320.444 372.819 321.327 373.159 322.21C373.5 323.093 373.5 324.111 373.841 324.994C374.249 325.877 374.658 326.692 375.135 327.507C375.68 328.254 376.293 329.001 376.974 329.681C377.588 330.36 378.269 331.039 378.95 331.65C379.495 332.397 380.108 333.077 380.79 333.756C382.357 334.774 383.924 335.861 385.354 337.016C386.172 337.491 387.058 337.967 387.943 338.306C388.829 338.714 389.646 339.189 390.6 339.461C391.486 339.732 392.44 340.004 393.394 340.208C394.347 340.412 395.369 340.072 396.323 340.208C397.277 340.344 398.163 341.091 399.116 341.091C400.07 341.091 401.024 340.683 401.978 340.683C402.932 340.615 403.885 340.48 404.839 340.276C405.793 340.14 406.815 340.344 407.769 340.072C408.654 339.732 409.54 339.325 410.426 338.85C411.311 338.442 412.129 337.967 412.947 337.491C413.764 337.016 414.854 336.88 415.604 336.269C416.353 335.657 416.694 334.639 417.307 333.892C417.92 333.212 418.942 332.873 419.487 332.058C420.032 331.311 420.509 330.496 420.918 329.613C421.326 328.73 421.599 327.915 421.871 327.032C422.212 326.149 422.553 325.266 422.757 324.383C422.962 323.5 423.234 322.617 423.37 321.666C423.507 320.783 423.302 319.765 423.438 318.882C423.575 317.999 423.438 317.048 423.507 316.097C423.575 315.146 423.438 314.263 423.37 313.38C423.302 312.497 423.779 311.479 423.711 310.596C423.643 309.645 423.03 308.83 422.825 307.947C422.689 306.996 423.098 305.977 422.893 305.094C422.689 304.211 422.417 303.26 422.212 302.378C421.94 301.495 421.122 300.748 420.781 299.932C420.509 298.982 420.168 298.099 419.828 297.216C419.01 295.45 417.92 293.82 416.694 292.326C416.081 291.579 415.467 290.831 414.786 290.084C414.037 289.405 413.287 288.794 412.47 288.251C411.72 287.639 410.63 287.571 409.745 287.096C408.927 286.485 408.109 286.009 407.292 285.466C406.406 285.126 405.452 284.787 404.499 284.515C403.545 284.311 402.591 284.176 401.637 284.108C400.683 284.04 399.661 284.108 398.708 284.176C398.435 283.972 398.231 283.564 397.822 283.496C396.868 283.293 395.846 283.293 394.892 283.428C393.939 283.428 392.917 283.496 391.963 283.768C391.009 284.108 390.123 284.515 389.238 284.991C388.42 285.534 387.875 286.417 387.058 287.028C386.24 287.639 385.15 287.911 384.469 288.59C383.719 289.269 383.31 290.288 382.629 290.967C381.88 291.85 381.13 292.462 380.449 293.141Z" fill="#171C22"/>
<path d="M406.134 300.408C406.407 299.797 406.816 299.186 407.224 298.642C407.701 298.099 408.519 298.099 409.064 298.575C409.336 298.846 409.473 299.118 409.473 299.525C409.404 300.205 409.2 300.884 408.928 301.563C408.723 302.242 408.382 302.853 407.974 303.465C407.565 304.008 406.884 304.144 406.27 303.872C405.657 303.736 405.249 303.193 405.249 302.582C405.453 301.835 405.794 301.088 406.134 300.408Z" fill="#70878A"/>
<path d="M396.869 296.266C396.937 295.654 397.551 295.179 398.164 295.315C398.3 295.315 398.368 295.383 398.504 295.383C399.186 295.451 399.663 296.062 399.526 296.741C399.526 296.877 399.458 296.945 399.458 297.013C399.322 297.556 399.049 298.099 398.913 298.711C398.777 299.254 398.573 299.797 398.368 300.341C398.028 301.02 397.551 301.02 396.869 300.816C396.188 300.612 395.37 300.273 395.507 299.526C395.575 298.914 395.779 298.371 395.984 297.76C396.052 297.284 396.665 296.877 396.869 296.266Z" fill="#70878A"/>
<path d="M397.755 326.625C398.096 325.946 398.505 325.334 398.982 324.791C399.799 323.908 401.502 324.723 401.502 325.878C401.434 326.557 401.298 327.304 401.025 327.915C400.753 328.594 400.48 329.274 400.004 329.817C399.527 330.36 398.845 330.632 398.096 330.428C397.483 330.156 397.142 329.545 397.278 328.934C397.346 328.187 397.483 327.372 397.755 326.625Z" fill="#70878A"/>
<path d="M387.399 321.327C387.74 320.376 388.693 320.444 389.443 320.648C390.192 320.851 390.874 321.327 390.601 322.278C390.465 322.821 390.26 323.432 390.124 323.976C389.988 324.587 389.852 325.13 389.647 325.674C389.238 326.285 388.421 326.557 387.74 326.285C387.058 326.081 386.377 325.47 386.445 324.723C386.513 324.111 386.65 323.5 386.786 322.957C386.922 322.414 387.263 321.87 387.399 321.327Z" fill="#70878A"/>
<path d="M410.223 308.627C410.972 308.83 411.381 309.51 411.176 310.257C410.972 311.208 410.495 312.09 410.291 312.973C410.086 313.721 409.473 314.264 408.724 314.06C407.974 313.788 407.634 312.973 407.906 312.226C408.111 311.275 407.974 310.257 408.247 309.374C408.451 308.627 409.541 308.423 410.223 308.627Z" fill="#70878A"/>
<path d="M398.981 305.366C399.186 304.823 399.799 304.551 400.276 304.755C400.344 304.755 400.344 304.755 400.412 304.823C401.025 305.026 401.775 305.298 401.775 306.113C401.775 307.132 401.025 308.083 400.685 308.898C400.412 309.645 399.663 310.46 398.845 310.12C397.959 309.781 397.414 308.898 397.551 307.947C397.619 307.403 397.959 307.268 398.164 306.656C398.368 306.249 398.641 305.773 398.981 305.366Z" fill="#70878A"/>
<path d="M389.715 302.106C390.601 302.446 391.01 302.921 390.805 303.736C390.669 304.415 390.533 305.094 390.328 305.774C390.124 306.521 389.443 306.996 388.693 306.928C387.944 306.792 387.058 306.045 387.126 305.298C387.194 304.483 387.808 303.736 388.012 302.921C388.148 302.31 388.83 301.902 389.443 302.038C389.511 301.97 389.647 302.038 389.715 302.106Z" fill="#70878A"/>
<path d="M401.501 314.196C401.842 313.177 402.795 313.041 403.613 313.245C404.431 313.516 404.771 314.06 404.499 315.079C404.362 315.69 404.362 316.369 404.226 316.98C404.022 317.591 403.749 318.135 403.409 318.61C403 319.357 402.523 319.629 401.842 319.357C401.16 319.154 400.683 318.542 400.752 317.795C400.752 317.184 400.82 316.505 400.956 315.894C401.092 315.418 401.297 314.807 401.501 314.196Z" fill="#70878A"/>
<path d="M391.351 310.121C392.304 310.257 392.918 311.072 392.849 311.955C392.781 312.294 392.849 312.634 392.849 312.973C392.781 313.585 392.986 314.128 392.781 314.671C392.372 315.283 391.623 315.554 390.874 315.486C390.124 315.351 389.579 314.807 389.307 314.128C389.102 313.449 389.511 312.566 389.579 311.887C389.579 311.004 390.397 310.189 391.351 310.121Z" fill="#70878A"/>
<path d="M406.542 321.938C406.951 321.191 408.246 321.259 408.927 321.735C409.676 322.142 409.949 323.025 409.608 323.772C409.199 324.519 408.654 325.266 408.109 326.014C407.7 326.693 406.883 326.964 406.134 326.693C405.52 326.421 404.839 325.402 405.112 324.655C405.588 323.772 406.065 322.889 406.542 321.938Z" fill="#70878A"/>
<path d="M394.62 319.289C394.961 318.474 395.506 317.727 396.459 318.067C397.345 318.338 397.822 319.289 397.618 320.172C397.481 320.512 397.141 320.715 397.004 321.055C396.868 321.327 397.277 321.734 397.141 322.006C397.004 322.278 396.664 322.413 396.459 322.617C396.051 323.093 395.233 322.821 394.756 322.617C394.211 322.345 393.666 322.006 393.734 321.327C393.734 320.512 394.347 319.968 394.62 319.289Z" fill="#70878A"/>
<path d="M383.31 312.634C384.264 313.041 384.877 314.06 384.673 315.079C384.468 315.894 383.787 316.505 383.446 317.184C383.106 317.796 382.288 318.339 381.675 318.135C380.994 317.796 380.585 317.116 380.653 316.369C380.721 315.554 380.925 314.739 381.198 313.992C381.402 313.109 382.492 312.362 383.31 312.634Z" fill="#70878A"/>
<path d="M412.742 237.109C413.628 236.498 414.582 235.479 415.74 235.818C417.239 235.003 418.465 235.818 419.555 236.362C421.122 237.177 421.735 239.146 422.28 240.98C422.757 242.882 422.689 244.919 422.144 246.753C421.735 248.587 421.326 250.353 420.849 252.187C420.781 252.458 420.713 252.662 420.509 252.866C419.351 254.632 418.465 256.601 417.852 258.707C417.579 259.658 417.239 260.609 416.762 261.491C416.08 262.714 415.535 264.004 414.922 265.295C414.718 265.77 414.582 266.314 414.309 266.789C412.946 269.166 411.311 271.475 410.358 274.124C409.949 275.211 409.336 276.23 408.45 276.977C407.769 277.588 407.155 278.267 406.679 279.014C406.542 279.286 406.338 279.49 406.065 279.626C405.588 279.761 404.158 278.539 404.226 277.996C404.294 277.248 404.294 276.433 404.158 275.686C404.158 273.853 403.953 272.087 404.43 270.253C404.43 270.185 404.43 270.185 404.43 270.117C404.294 267.197 404.839 264.208 405.248 261.22C405.316 260.473 405.52 258.028 405.316 257.756C404.975 257.145 404.975 256.398 405.384 255.786C405.657 255.243 405.725 254.632 405.793 254.088C405.861 252.934 405.588 251.847 405.861 250.625C406.065 249.47 407.019 248.247 406.474 247.025C406.474 246.957 406.542 246.821 406.61 246.753C407.224 245.667 407.496 244.376 408.45 243.425C408.722 243.154 408.859 242.814 408.859 242.474C408.927 241.931 409.063 241.456 409.267 241.048C410.153 239.554 411.311 238.196 412.742 237.109Z" fill="#354A4C"/>
<path d="M448.237 272.019C447.76 273.377 447.079 274.6 446.33 275.822C445.035 277.724 443.4 278.946 442.174 280.848C442.038 281.052 441.833 281.256 441.561 281.392C440.743 281.935 439.926 282.546 439.312 283.293C438.767 283.837 438.154 284.312 437.405 284.584C435.77 285.195 434.203 286.01 432.908 287.097C432.568 287.3 432.227 287.504 431.818 287.572C430.387 288.251 428.957 288.795 427.594 290.289C427.458 290.425 427.254 290.628 427.185 290.628C426.572 290.425 425.823 290.968 425.21 291.24C424.665 291.443 424.256 291.308 424.12 290.832C423.915 290.221 423.302 290.085 423.506 288.998C423.643 288.115 424.12 287.232 424.801 286.621C425.346 286.214 425.755 285.67 426.027 284.991C426.095 284.312 426.572 283.769 427.185 283.497C427.39 283.361 427.594 283.225 427.662 283.022C428.412 282.071 429.093 281.052 429.842 280.101C430.524 279.15 431.273 278.199 432.091 277.384C432.84 276.909 433.453 276.23 433.93 275.483C434.475 274.26 435.429 274.124 435.974 273.106C436.792 272.97 437.405 271.883 438.154 271.408C438.563 271.204 438.972 270.796 439.244 270.389C439.585 269.71 440.198 269.234 440.947 269.098C442.038 268.759 443.128 268.215 444.081 267.536C444.899 266.993 445.717 266.653 446.398 267.129C446.738 267.332 447.147 267.4 447.352 267.672C448.374 268.08 448.919 270.457 448.237 272.019Z" fill="#354A4C"/>
<path d="M375.748 255.514C376.089 255.718 376.43 255.922 376.702 256.125C378.882 257.755 379.972 259.861 380.994 261.831C381.607 263.121 382.152 264.479 382.561 265.838C383.174 267.536 383.583 269.234 384.196 270.932C384.469 271.679 384.401 272.426 385.014 273.309C385.15 275.278 385.491 277.384 384.946 279.082C384.809 279.421 384.605 279.693 384.128 279.353C383.379 278.81 382.561 278.606 381.948 277.655C381.471 277.044 381.062 276.433 380.722 275.754C380.381 275.007 379.972 274.395 379.359 273.852C379.087 273.58 378.814 273.241 378.542 272.901C376.975 270.456 375.203 268.079 373.909 265.566C373.432 264.615 372.751 263.664 372.342 262.713C371.797 261.355 371.32 259.929 371.047 258.503C370.775 257.28 370.775 256.329 371.524 255.854C372.546 254.767 373.841 254.631 375.748 255.514Z" fill="#354A4C"/>
<path d="M403.545 332.941C404.363 332.873 405.112 332.669 405.862 332.398C406.611 332.262 407.36 331.99 408.11 331.651C408.791 331.243 409.404 330.768 410.017 330.224C410.631 329.749 411.516 329.545 412.061 329.002C412.606 328.459 412.879 327.576 413.356 326.964C413.833 326.353 414.241 325.674 414.65 324.995C415.059 324.316 415.468 323.636 415.808 322.889C416.081 322.142 416.353 321.395 416.49 320.58C416.626 319.765 416.626 318.95 416.626 318.203C416.762 317.388 416.83 316.641 416.83 315.826C416.898 315.011 416.967 314.196 416.967 313.381C416.83 312.566 416.49 311.819 416.353 311.004C416.081 309.849 417.852 309.102 418.329 310.257C418.67 310.936 418.942 311.615 419.215 312.294C419.487 312.973 419.692 313.72 419.828 314.4C419.896 315.147 419.964 315.894 419.964 316.641C420.032 317.388 420.032 318.135 420.032 318.882C419.964 319.629 419.419 320.308 419.283 320.988C419.147 321.667 419.351 322.482 419.147 323.229C418.874 323.908 418.534 324.587 418.125 325.198C417.852 325.878 417.512 326.489 417.103 327.168C416.626 327.847 416.149 328.459 415.604 329.07C415.195 329.749 414.718 330.428 414.241 331.107C413.696 331.719 413.083 332.262 412.47 332.805C411.789 333.281 411.039 333.62 410.358 333.96C409.677 334.367 409.132 335.182 408.382 335.454C407.565 335.658 406.747 335.794 405.93 335.862C405.112 335.862 404.295 335.726 403.477 335.522C402.523 335.386 402.046 334.911 402.046 334.232C402.046 333.552 402.591 333.009 403.545 332.941Z" fill="#171C22"/>
<path d="M392.986 288.454C394.144 288.183 395.03 290.492 393.94 290.967C393.19 291.307 392.305 291.307 391.555 291.646C390.806 291.986 390.056 292.326 389.375 292.733C388.694 293.209 388.421 294.091 387.808 294.703C387.195 295.178 386.65 295.654 386.105 296.197C385.628 296.808 385.219 297.419 384.742 298.099C384.265 298.71 383.72 299.253 383.175 299.797C382.222 300.815 380.859 299.729 381.132 298.574C381.336 297.827 381.677 297.148 382.085 296.469C382.426 295.789 382.767 295.11 383.244 294.431C383.72 293.888 384.538 293.616 385.151 293.073C385.696 292.597 386.105 291.782 386.786 291.375C387.399 290.967 388.081 290.56 388.762 290.22C389.443 289.881 390.193 289.609 390.942 289.405C391.487 288.998 392.237 288.658 392.986 288.454Z" fill="#171C22"/>
</svg>
