<svg width="1103" height="779" viewBox="0 0 1103 779" fill="none" xmlns="http://www.w3.org/2000/svg">
<path d="M671.767 593.752C612.568 582.299 554.007 567.734 496.326 550.119C467.664 541.392 439.003 531.793 410.342 521.321C381.681 510.849 353.888 499.505 326.095 488.16C269.726 464.569 215.153 436.861 162.813 405.257L158.47 402.639C161.185 483.839 189.106 562.153 238.326 626.613C287.545 691.074 355.597 738.453 432.952 762.116C510.307 785.779 593.09 784.542 669.71 758.576C746.329 732.61 812.948 683.217 860.236 617.313H852.42C791.718 613.816 731.345 605.942 671.767 593.752V593.752Z" fill="#222831"/>
<path d="M367.784 384.314C394.708 394.786 420.764 404.385 448.557 413.984C475.481 422.711 502.405 432.31 530.198 440.164C557.122 448.89 584.915 456.744 612.707 463.725C640.5 471.579 668.293 477.688 695.217 484.669C749.934 497.759 805.519 507.358 861.973 515.212C879.344 516.958 895.846 518.703 912.348 519.576C946.554 422.022 940.79 314.811 896.324 221.528C851.858 128.245 772.332 56.53 675.241 22.1607C578.15 -12.2086 471.447 -6.41733 378.606 38.2605C285.765 82.9383 214.39 162.843 180.184 260.396C176.709 270.868 173.235 282.213 170.63 293.557C184.526 301.411 198.422 309.265 213.187 317.119C262.693 340.681 314.804 364.243 367.784 384.314Z" fill="#222831"/>
<path d="M1099.08 489.905C1095.57 479.366 1090.6 469.378 1084.32 460.235C1073.45 445.971 1060.91 433.078 1046.97 421.838C1034.5 412.033 1021.45 402.999 1007.89 394.786C1001.19 390.915 993.249 389.843 985.775 391.802C978.301 393.762 971.893 398.594 967.933 405.257C964.451 411.03 963.068 417.837 964.018 424.519C964.968 431.202 968.193 437.347 973.144 441.909V441.909C983.547 450.616 993.14 460.255 1001.81 470.707C1009.72 479.363 1016.44 489.049 1021.78 499.505L1024.39 507.358L1022.65 508.231C1020.91 508.231 1020.91 509.104 1019.18 509.976L1016.57 510.849L1013.1 511.722C1002.68 515.094 991.884 517.146 980.961 517.83C967.933 518.703 954.905 519.576 942.746 519.576C932.324 519.576 921.901 518.703 911.479 518.703C894.977 517.83 877.607 516.085 861.105 514.34C805.022 507.122 749.359 496.927 694.349 483.797C666.556 477.688 638.763 470.707 611.839 462.853C584.046 454.999 557.122 447.145 529.329 439.291C502.405 430.565 474.613 422.711 447.688 413.111C420.764 403.512 393.84 393.913 366.916 383.441C314.25 363.445 262.649 340.725 212.319 315.374C198.423 308.392 183.658 299.666 169.761 291.812C160.208 285.703 150.654 280.467 141.1 274.359C130.186 267.505 119.74 259.925 109.833 251.67C101.172 244.713 93.3073 236.81 86.3832 228.108L84.6462 225.49L82.9091 223.745C82.0406 221.999 81.1721 221.127 81.1721 220.254C81.1721 220.139 81.1496 220.026 81.106 219.92C81.0623 219.814 80.9983 219.718 80.9177 219.637C80.837 219.556 80.7413 219.492 80.6359 219.448C80.5306 219.404 80.4176 219.381 80.3036 219.381V217.636C82.1139 215.899 84.161 214.43 86.3832 213.273C96.8115 207.782 107.906 203.675 119.387 201.056C132.509 197.518 145.858 194.894 159.339 193.202H160.208C167.332 192.08 173.795 188.358 178.359 182.748C182.923 177.138 185.269 170.035 184.946 162.796C184.623 155.557 181.656 148.693 176.611 143.515C171.566 138.338 164.798 135.211 157.602 134.734C141.691 133.861 125.744 133.861 109.833 134.734C92.0614 136.326 74.5562 140.137 57.722 146.078C47.4366 150.217 37.7868 155.799 29.0608 162.659C17.7538 172.221 9.08096 184.541 3.87361 198.438C-0.614978 212.857 -1.2144 228.215 2.13657 242.943C3.77393 248.89 5.805 254.721 8.21622 260.396C9.08475 263.014 10.8218 265.632 11.6903 268.25L15.1644 275.231C24.7039 291.066 36.0737 305.712 49.0368 318.864C60.356 330.817 72.5494 341.901 85.5147 352.025C108.917 370.463 133.269 387.649 158.471 403.512L162.813 406.13C215.56 437.284 270.411 464.694 326.964 488.16C354.757 500.377 383.418 510.849 411.21 521.321C439.872 531.793 468.533 541.392 497.194 550.119C554.517 567.572 613.576 582.407 672.636 594.624C732.457 606.956 793.151 614.542 854.157 617.313H861.973C890.927 618.913 919.959 618.33 948.826 615.568C965.156 614.159 981.394 611.828 997.463 608.587C1015.75 604.889 1033.53 599.03 1050.44 591.134L1057.39 587.643L1064.34 583.28C1069.34 579.984 1074 576.183 1078.24 571.935C1089.44 561.713 1097.31 548.33 1100.82 533.538C1104.17 519.103 1103.57 504.025 1099.08 489.905V489.905Z" fill="#A2A2A2"/>
<path d="M106.359 187.966C108.77 189.748 111.396 191.214 114.176 192.329C116.419 193.047 118.774 193.343 121.124 193.202C123.664 193.121 126.106 192.2 128.072 190.584C130.734 188.903 132.848 186.476 134.152 183.602V182.73C135.385 180.521 135.882 177.974 135.569 175.461C135.257 172.949 134.151 170.603 132.415 168.767C130.005 166.985 127.378 165.519 124.598 164.404C122.065 163.531 119.315 163.531 116.782 164.404C114.215 164.334 111.722 165.273 109.833 167.022C108.413 167.727 107.145 168.706 106.102 169.904C105.058 171.102 104.26 172.495 103.754 174.003C102.453 176.259 102.001 178.908 102.479 181.47C102.957 184.032 104.334 186.337 106.359 187.966V187.966Z" fill="#354A4C"/>
<path d="M82.0406 174.003C82.3705 173.659 82.6197 173.246 82.7699 172.793C82.9202 172.34 82.9678 171.859 82.9092 171.385C83.3832 169.192 83.0218 166.9 81.8963 164.961C80.7708 163.023 78.9629 161.578 76.8295 160.913V160.913C71.9462 160.041 66.9479 160.041 62.0646 160.913C56.969 161.653 52.1674 163.764 48.1683 167.022C43.5862 169.88 39.7224 173.763 36.8775 178.366C35.1379 180.556 33.8566 183.076 33.1104 185.775C32.3641 188.474 32.1684 191.297 32.5349 194.074C32.4763 194.548 32.5238 195.029 32.6741 195.482C32.8244 195.935 33.0736 196.349 33.4034 196.692C33.766 197.694 34.3316 198.61 35.0645 199.381C35.7975 200.152 36.6817 200.762 37.6613 201.172C38.641 201.583 39.6946 201.784 40.7557 201.764C41.8168 201.744 42.8621 201.503 43.8257 201.056V201.056L45.5627 200.183C49.9053 198.438 52.5109 196.692 55.1164 195.82C57.722 194.074 61.1961 192.329 63.8017 190.584C66.4072 188.838 69.8813 186.22 72.4869 184.475C75.904 181.206 79.0959 177.707 82.0406 174.003V174.003Z" fill="#354A4C"/>
<path d="M43.8256 237.707C41.7998 236.034 39.425 234.841 36.8774 234.217L35.1404 233.344C32.9275 232.508 30.4912 232.487 28.2647 233.286C26.0382 234.085 24.166 235.652 22.9811 237.707C21.3307 240.32 20.4292 243.34 20.3755 246.434C20.5369 249.128 21.1232 251.779 22.1125 254.288C23.0784 256.877 24.9241 259.041 27.3237 260.396C29.9855 262.077 32.9279 263.259 36.0089 263.887C38.5013 264.101 40.9994 263.547 43.1713 262.3C45.3432 261.053 47.0861 259.172 48.1682 256.906V256.033C49.1575 253.524 49.7438 250.873 49.9052 248.179C49.9052 246.434 49.0367 244.688 49.0367 242.943C46.8871 241.668 45.0942 239.867 43.8256 237.707V237.707Z" fill="#354A4C"/>
<path d="M155.865 323.228C154.366 319.184 152.321 315.366 149.785 311.883C147.089 309.051 144.186 306.426 141.1 304.029C138.009 301.601 134.465 299.821 130.678 298.793C126.543 297.089 122.12 296.2 117.65 296.175H115.045C112.863 297.043 111.056 298.657 109.944 300.733C108.832 302.808 108.485 305.212 108.965 307.52V307.52C110.464 311.564 112.509 315.381 115.045 318.864C117.485 321.949 120.421 324.603 123.73 326.718C127.007 329.076 130.496 331.121 134.152 332.827C138.287 334.531 142.71 335.419 147.18 335.445H149.785C151.001 335.07 152.128 334.452 153.098 333.627C154.068 332.802 154.862 331.787 155.43 330.645C155.998 329.502 156.33 328.256 156.405 326.981C156.48 325.706 156.296 324.429 155.865 323.228V323.228Z" fill="#354A4C"/>
<path d="M233.163 374.715C232.183 372.856 230.67 371.337 228.821 370.351C226.929 369.371 224.863 368.778 222.741 368.606C220.06 368.768 217.422 369.357 214.924 370.351V370.351C212.762 371.768 210.991 373.711 209.776 375.999C208.562 378.288 207.942 380.848 207.976 383.441C208.449 386.175 209.327 388.823 210.582 391.295C211.677 393.384 213.55 394.953 215.793 395.658C217.685 396.638 219.751 397.231 221.873 397.404C224.554 397.241 227.192 396.652 229.689 395.658C231.879 394.327 233.626 392.372 234.708 390.041C235.79 387.711 236.16 385.11 235.769 382.568V382.568C235.704 379.747 234.796 377.011 233.163 374.715V374.715Z" fill="#354A4C"/>
<path d="M389.497 413.112C388.517 411.253 387.004 409.734 385.155 408.748C383.263 407.768 381.196 407.175 379.075 407.003C376.267 407.069 373.544 407.981 371.258 409.621C369.096 411.037 367.325 412.98 366.11 415.269C364.895 417.557 364.276 420.117 364.31 422.711C364.783 425.445 365.661 428.092 366.916 430.565C368.011 432.654 369.884 434.222 372.127 434.928C374.019 435.908 376.085 436.501 378.207 436.673C380.888 436.511 383.526 435.922 386.023 434.928C388.213 433.596 389.959 431.641 391.042 429.311C392.124 426.98 392.493 424.38 392.103 421.838C392.173 418.726 391.261 415.671 389.497 413.112V413.112Z" fill="#354A4C"/>
<path d="M332.175 434.928C327.958 430.402 323.303 426.309 318.279 422.711C313.367 419.29 308.13 416.367 302.645 413.984C297.422 411.454 291.865 409.69 286.143 408.748C280.176 407.304 274.035 406.717 267.904 407.003V407.003C266.294 407.036 264.75 407.656 263.562 408.748C262.688 409.382 261.962 410.2 261.435 411.145C260.908 412.089 260.592 413.138 260.509 414.218C260.426 415.298 260.579 416.383 260.956 417.397C261.333 418.412 261.926 419.332 262.693 420.093V420.093C266.708 424.823 271.39 428.939 276.59 432.31C281.611 435.549 286.833 438.464 292.223 441.036C297.446 443.567 303.003 445.33 308.725 446.272C314.692 447.716 320.833 448.304 326.964 448.018C328.574 447.985 330.118 447.364 331.306 446.272C332.893 444.867 333.871 442.896 334.033 440.777C334.196 438.659 333.529 436.56 332.175 434.928Z" fill="#354A4C"/>
<path d="M577.098 489.905C570.943 485.291 564.231 481.479 557.122 478.561L536.278 470.707C529.29 468.044 521.994 466.285 514.565 465.471C507.129 464.023 499.552 463.438 491.983 463.726V463.726C490.967 463.699 489.961 463.924 489.052 464.38C488.143 464.837 487.36 465.511 486.772 466.343C485.433 467.982 484.775 470.077 484.937 472.191C485.099 474.305 486.067 476.275 487.64 477.688V477.688C493.678 482.262 500.067 486.348 506.748 489.905C513.39 493.281 520.379 495.914 527.592 497.759C534.541 499.505 541.489 501.25 549.305 502.995C556.776 504.14 564.351 504.433 571.887 503.868C572.903 503.894 573.909 503.67 574.818 503.213C575.727 502.756 576.51 502.082 577.098 501.25C578.007 500.612 578.748 499.763 579.261 498.776C579.773 497.788 580.04 496.691 580.04 495.578C580.04 494.464 579.773 493.367 579.261 492.379C578.748 491.392 578.007 490.543 577.098 489.905V489.905Z" fill="#354A4C"/>
<path d="M618.787 543.137C618.166 540.578 616.978 538.192 615.313 536.156C613.923 534.894 612.245 533.995 610.428 533.538C608.61 533.081 606.708 533.081 604.891 533.538C602.135 534.123 599.674 535.669 597.943 537.901V537.901C596.163 539.697 594.9 541.943 594.288 544.401C593.677 546.859 593.739 549.438 594.469 551.864C595.09 554.424 596.277 556.81 597.943 558.845C598.531 559.678 599.314 560.352 600.223 560.808C601.131 561.265 602.138 561.49 603.154 561.463C604.108 561.899 605.145 562.125 606.194 562.125C607.242 562.125 608.279 561.899 609.233 561.463C611.989 560.878 614.451 559.333 616.182 557.1C617.925 555.282 619.1 552.991 619.563 550.51C620.026 548.029 619.756 545.466 618.787 543.137V543.137Z" fill="#354A4C"/>
<path d="M706.508 509.104C704.962 506.395 702.895 504.022 700.428 502.123C698.786 500.537 696.624 499.606 694.349 499.505C692.115 498.628 689.635 498.628 687.401 499.505C684.621 500.619 681.994 502.085 679.584 503.868V503.868C677.558 505.497 676.182 507.801 675.703 510.363C675.225 512.926 675.678 515.575 676.978 517.83C678.524 520.539 680.591 522.912 683.058 524.812C684.946 526.56 687.439 527.5 690.006 527.43C692.24 528.306 694.72 528.306 696.954 527.43C699.888 526.669 702.579 525.167 704.771 523.066C706.507 521.231 707.613 518.885 707.925 516.372C708.238 513.859 707.741 511.312 706.508 509.104V509.104Z" fill="#354A4C"/>
<path d="M844.603 563.209C839.763 559.903 834.505 557.262 828.97 555.355C823.564 553.775 818.048 552.608 812.468 551.864C806.998 551.138 801.481 550.847 795.966 550.991C790.028 551.224 784.165 552.402 778.595 554.482V554.482C777.598 554.846 776.687 555.415 775.919 556.151C775.152 556.887 774.545 557.776 774.136 558.76C773.728 559.744 773.528 560.803 773.548 561.869C773.568 562.935 773.808 563.986 774.253 564.954C774.902 566.267 775.785 567.45 776.858 568.444C781.947 571.654 787.52 574.011 793.36 575.426C804.276 579.014 815.769 580.494 827.233 579.789C833.17 579.556 839.033 578.378 844.603 576.298C845.6 575.934 846.512 575.366 847.279 574.629C848.047 573.893 848.654 573.005 849.062 572.02C849.47 571.036 849.671 569.977 849.651 568.911C849.63 567.845 849.39 566.795 848.946 565.826C847.209 564.954 846.34 564.081 844.603 563.209Z" fill="#354A4C"/>
<path d="M988.778 575.426C985.609 573.491 982.046 572.298 978.355 571.935C975.231 571.058 971.926 571.058 968.802 571.935C965.448 571.98 962.16 572.881 959.248 574.553C955.761 576.068 952.537 578.13 949.694 580.662L948.826 581.534C947.998 582.472 947.381 583.577 947.017 584.775C946.653 585.974 946.549 587.237 946.714 588.479C946.879 589.72 947.308 590.912 947.972 591.973C948.636 593.033 949.52 593.937 950.563 594.624C953.483 597.161 957.136 598.69 960.985 598.988C968.014 600.778 975.456 599.843 981.829 596.37C985.352 594.549 988.574 592.195 991.383 589.388L992.252 588.516C992.945 587.445 993.406 586.24 993.606 584.979C993.806 583.718 993.74 582.428 993.413 581.194C993.085 579.96 992.503 578.809 991.705 577.815C990.907 576.822 989.909 576.008 988.778 575.426V575.426Z" fill="#354A4C"/>
<path d="M927.113 544.01C926.18 541.65 924.689 539.554 922.77 537.902C921.581 536.809 920.038 536.189 918.428 536.156C916.923 535.928 915.386 536.237 914.085 537.029L908.874 542.265L908.005 543.137C905.975 546.16 905.201 549.86 905.85 553.448C906.5 557.035 908.52 560.225 911.479 562.336C913.064 563.304 914.845 563.9 916.69 564.081C918.472 564.22 920.261 563.92 921.902 563.209C923.132 562.834 924.251 562.16 925.16 561.246C926.069 560.333 926.74 559.209 927.113 557.973C928.39 555.87 929.067 553.455 929.067 550.991C929.067 548.528 928.39 546.112 927.113 544.01V544.01Z" fill="#354A4C"/>
<path d="M1062.6 491.651C1061.57 491.53 1060.53 491.615 1059.54 491.901C1058.54 492.187 1057.62 492.669 1056.81 493.318C1056 493.968 1055.33 494.772 1054.83 495.684C1054.34 496.596 1054.02 497.598 1053.92 498.632V498.632V499.505C1053.17 504.825 1052.01 510.077 1050.44 515.212C1048.94 518.985 1046.89 522.514 1044.36 525.684C1041.11 529.39 1037.63 532.887 1033.94 536.156C1028.89 539.722 1024.23 543.817 1020.04 548.373V548.373C1019.28 549.028 1018.66 549.828 1018.22 550.727C1017.77 551.626 1017.5 552.606 1017.44 553.609C1017.35 555.662 1018.01 557.677 1019.28 559.281C1020.56 560.886 1022.37 561.971 1024.39 562.336C1032.49 562.796 1040.59 561.291 1048 557.95C1055.4 554.609 1061.9 549.529 1066.94 543.137C1072.98 536.084 1076.36 527.129 1076.5 517.83C1076.71 509.3 1073.94 500.965 1068.68 494.269C1066.95 492.819 1064.84 491.909 1062.6 491.651V491.651Z" fill="#354A4C"/>
<path d="M1038.28 466.344C1039.61 467.407 1041.07 468.288 1042.63 468.962C1044.86 469.838 1047.34 469.838 1049.57 468.962H1050.44C1052.79 468.565 1055 467.548 1056.83 466.015C1058.66 464.482 1060.05 462.487 1060.87 460.235C1061.58 457.982 1061.87 455.615 1061.73 453.254C1061.67 452.251 1061.4 451.271 1060.96 450.371C1060.51 449.472 1059.89 448.672 1059.13 448.018C1058.72 447.216 1058.1 446.546 1057.33 446.083C1056.56 445.62 1055.68 445.383 1054.79 445.4C1052.25 444.527 1049.5 444.527 1046.97 445.4C1044.55 445.957 1042.32 447.135 1040.5 448.817C1038.67 450.5 1037.31 452.63 1036.55 454.999V455.872C1035.83 458.125 1035.54 460.492 1035.68 462.853C1036.55 463.726 1037.41 465.471 1038.28 466.344Z" fill="#354A4C"/>
<path d="M1010.49 420.093C1008.46 418.419 1006.09 417.226 1003.54 416.602C1000.42 415.725 997.114 415.725 993.989 416.602C991.464 417.203 989.223 418.658 987.641 420.724C986.059 422.79 985.234 425.341 985.304 427.947V427.947C985.233 431.059 986.145 434.114 987.909 436.673C988.611 438.926 990.173 440.809 992.252 441.909C994.277 443.582 996.652 444.775 999.2 445.4C1002.32 446.276 1005.63 446.276 1008.75 445.4H1009.62C1012.15 444.799 1014.39 443.343 1015.97 441.277C1017.55 439.211 1018.38 436.661 1018.31 434.055C1018.38 430.943 1017.47 427.888 1015.7 425.329C1013.96 423.583 1012.23 420.965 1010.49 420.093Z" fill="#354A4C"/>
<path d="M291.354 289.194C318.279 304.029 345.203 317.119 372.996 329.336C400.788 341.553 428.581 352.898 457.242 363.37C485.903 373.842 514.565 383.441 543.226 392.168C600.81 409.905 659.394 424.184 718.667 434.928C748.197 440.164 778.595 444.527 808.994 447.145C839.631 450.491 870.567 449.905 901.057 445.4C901.969 445.285 902.85 444.991 903.65 444.534C904.449 444.078 905.151 443.467 905.716 442.738C906.28 442.009 906.696 441.175 906.94 440.284C907.184 439.393 907.251 438.463 907.137 437.546C907.023 436.629 906.73 435.744 906.275 434.941C905.821 434.137 905.213 433.432 904.487 432.865C903.762 432.298 902.932 431.88 902.045 431.635C901.158 431.39 900.232 431.323 899.32 431.437V431.437C869.983 432.304 840.627 430.552 811.599 426.201C782.069 421.838 753.408 416.602 723.878 410.493C665.687 398.276 608.365 382.568 551.911 365.115C495.457 347.662 439.003 328.464 383.418 306.647C355.625 295.303 328.701 283.958 301.777 270.868C275.277 258.75 249.977 244.141 226.215 227.235V227.235C224.67 226.08 222.759 225.531 220.84 225.692C218.921 225.853 217.126 226.712 215.793 228.108C214.661 229.667 214.126 231.583 214.285 233.506C214.445 235.43 215.288 237.231 216.662 238.58C239.594 258.209 264.649 275.187 291.354 289.194V289.194Z" fill="#A2A2A2"/>
<path d="M338.255 228.108C362.573 242.07 386.892 254.288 412.079 265.632C437.266 276.977 462.453 287.449 488.509 297.048C514.565 306.647 540.62 315.374 566.676 323.228C592.732 331.082 619.656 338.063 645.711 345.044C672.636 351.153 699.56 357.261 726.484 361.625C753.408 365.988 781.201 369.479 808.994 371.224C837.101 373.987 865.455 372.812 893.24 367.733C894.675 367.347 896.018 366.676 897.191 365.761C898.364 364.846 899.344 363.705 900.072 362.404C900.8 361.103 901.262 359.67 901.431 358.187C901.6 356.705 901.473 355.203 901.057 353.771C900.541 351.591 899.326 349.642 897.6 348.223C895.874 346.804 893.732 345.994 891.503 345.917H890.635C864.432 345.758 838.287 343.423 812.468 338.935C786.412 334.572 760.356 329.336 734.301 323.228C682.189 311.01 630.078 297.048 578.835 281.34C527.592 265.632 476.35 248.179 426.844 228.981C401.657 219.381 377.338 208.909 353.02 198.438C328.993 188.192 306.014 175.624 284.406 160.913V160.913C283.234 160.087 281.9 159.52 280.494 159.247C279.087 158.975 277.64 159.005 276.245 159.335C274.851 159.664 273.542 160.286 272.404 161.16C271.266 162.034 270.324 163.139 269.641 164.404C268.225 166.557 267.621 169.147 267.94 171.708C268.259 174.269 269.478 176.63 271.378 178.366C290.95 198.352 313.515 215.136 338.255 228.108Z" fill="#A2A2A2"/>
<path d="M433.792 132.116C452.031 142.588 470.27 151.314 489.377 160.041C508.485 168.767 527.592 175.749 546.7 183.602C565.807 190.584 585.783 197.565 604.891 203.674C644.162 215.936 684.203 225.556 724.747 232.471C744.723 235.962 765.567 238.58 786.412 240.325C807.26 241.937 828.219 241.352 848.946 238.58C850.788 238.348 852.464 237.391 853.604 235.918C854.744 234.445 855.256 232.578 855.025 230.726C854.795 228.874 853.842 227.191 852.376 226.045C850.91 224.899 849.051 224.386 847.209 224.617C827.408 224.607 807.646 222.855 788.149 219.381C768.173 215.891 749.066 212.4 729.09 208.037C690.006 199.31 650.923 188.838 612.708 176.621C574.493 164.404 536.278 152.187 498.931 137.352C479.824 130.37 461.585 122.516 443.346 113.79C425.266 106.107 408.082 96.4495 392.103 84.9921V84.9921C390.558 83.8369 388.647 83.288 386.728 83.4487C384.809 83.6094 383.014 84.4685 381.681 85.8648C380.549 87.4238 380.014 89.3402 380.173 91.2633C380.332 93.1864 381.176 94.9875 382.549 96.3367C398.563 109.737 415.709 121.708 433.792 132.116V132.116Z" fill="#A2A2A2"/>
<path d="M715.193 637.384C695.392 637.374 675.63 635.622 656.134 632.149C636.158 629.531 617.05 625.167 597.074 620.804C557.991 612.077 518.907 601.605 480.692 589.388C442.477 578.044 404.262 564.954 366.916 550.119C347.808 543.137 329.57 535.284 311.331 526.557C293.251 518.874 276.067 509.217 260.088 497.759V497.759C258.571 496.691 256.711 496.231 254.873 496.469C253.036 496.708 251.354 497.628 250.157 499.05C248.96 500.471 248.335 502.29 248.405 504.15C248.475 506.01 249.234 507.777 250.534 509.104V509.104C266.31 523.065 283.483 535.348 301.777 545.755C319.677 556.275 338.246 565.604 357.362 573.68C376.47 582.407 395.577 589.388 414.685 597.242C433.792 604.223 453.768 611.205 472.876 617.313C512.147 629.576 552.188 639.196 592.732 646.111C612.708 649.602 633.552 652.22 654.397 653.965C675.245 655.565 696.203 654.98 716.93 652.22C717.877 652.195 718.807 651.96 719.653 651.531C720.499 651.102 721.239 650.49 721.821 649.739C722.402 648.987 722.811 648.116 723.016 647.187C723.222 646.257 723.22 645.294 723.01 644.366C722.995 643.378 722.775 642.404 722.365 641.506C721.955 640.608 721.364 639.805 720.629 639.148C719.894 638.492 719.032 637.996 718.096 637.693C717.16 637.389 716.172 637.284 715.193 637.384V637.384Z" fill="#A2A2A2"/>
<path d="M531.935 102.445C540.404 108.512 549.417 113.771 558.859 118.153C576.916 127.504 595.819 135.102 615.313 140.842C634.575 146.953 654.339 151.334 674.373 153.932C684.795 154.805 695.217 155.677 705.639 155.677C716.49 155.572 727.285 154.106 737.775 151.314C739.209 150.928 740.552 150.257 741.726 149.342C742.899 148.427 743.878 147.285 744.606 145.985C745.334 144.684 745.796 143.251 745.966 141.768C746.135 140.286 746.008 138.784 745.591 137.352C745.119 135.306 744.033 133.455 742.48 132.051C740.926 130.646 738.981 129.755 736.906 129.498H734.301C726.484 127.752 716.93 126.007 708.245 123.389C699.56 120.771 690.006 118.153 681.321 116.408C663.082 111.172 645.711 105.936 627.473 100.7C609.234 95.464 591.863 89.3554 573.624 84.1195C564.939 81.5015 555.385 78.0109 546.7 75.3929C538.015 71.9022 529.33 69.2843 521.513 65.7936L520.644 64.921C519.279 64.3212 517.807 64.0038 516.317 63.9877C514.827 63.9716 513.35 64.257 511.972 64.8271C510.594 65.3971 509.344 66.2401 508.298 67.3057C507.251 68.3713 506.429 69.6378 505.879 71.0296C505.099 72.8975 504.848 74.9459 505.155 76.9481C505.461 78.9504 506.313 80.8283 507.616 82.3741C515.145 89.7413 523.28 96.4557 531.935 102.445V102.445Z" fill="#A2A2A2"/>
<path d="M588.389 696.725H586.652C576.23 694.98 565.807 693.234 555.385 690.616C544.963 687.998 533.672 685.38 523.25 682.762C501.537 676.654 480.692 670.545 458.979 663.564C437.266 656.583 416.422 650.474 395.577 643.493C385.155 640.002 374.732 636.512 364.31 632.148C354.756 628.658 344.334 624.294 334.78 619.931H333.912C331.249 618.761 328.242 618.65 325.501 619.622C322.76 620.594 320.489 622.576 319.147 625.167C318.125 627.129 317.743 629.365 318.054 631.557C318.366 633.75 319.356 635.788 320.884 637.384C329.395 646.689 339.022 654.897 349.545 661.819C359.968 668.8 369.521 674.036 380.812 680.145C423.151 701.123 468.629 714.979 515.433 721.159C527.224 722.899 539.125 723.774 551.042 723.777C563.634 724.103 576.208 722.634 588.389 719.414C589.832 719.073 591.183 718.418 592.346 717.494C593.509 716.57 594.456 715.401 595.119 714.068C595.782 712.736 596.145 711.274 596.183 709.784C596.22 708.295 595.932 706.816 595.337 705.452C596.206 700.216 592.731 697.598 588.389 696.725V696.725Z" fill="#A2A2A2"/>
</svg>
