<svg width="1075" height="518" viewBox="0 0 1075 518" fill="none" xmlns="http://www.w3.org/2000/svg">
<path d="M1065.1 517.281L9.90897 517.6C7.95398 517.6 6.04251 517.092 4.4153 516.139C2.78809 515.186 1.5179 513.831 0.764698 512.245C0.0114957 510.659 -0.191037 508.912 0.182607 507.225C0.556251 505.537 1.48936 503.985 2.86443 502.763L231.947 299.183C232.868 298.365 233.964 297.715 235.173 297.272C236.382 296.828 237.678 296.6 238.988 296.6H833.589C836.213 296.6 838.731 297.516 840.588 299.146L1072.09 502.408C1073.48 503.625 1074.43 505.177 1074.81 506.867C1075.19 508.556 1075 510.308 1074.25 511.9C1073.5 513.492 1072.23 514.853 1070.6 515.811C1068.97 516.769 1067.06 517.281 1065.1 517.281V517.281Z" fill="#354A4C"/>
<path d="M71.142 493.492C69.0355 493.492 66.975 492.95 65.2148 491.932C63.4546 490.915 62.0717 489.466 61.2365 487.766C60.4012 486.065 60.1503 484.187 60.5147 482.362C60.879 480.538 61.8427 478.847 63.2868 477.498L243.3 309.393C244.314 308.453 245.536 307.703 246.89 307.19C248.244 306.677 249.702 306.412 251.177 306.409L822.186 307.394C823.657 307.399 825.111 307.666 826.46 308.181C827.809 308.696 829.025 309.447 830.034 310.388L1007.49 476.549C1008.93 477.898 1009.89 479.588 1010.26 481.41C1010.62 483.233 1010.37 485.109 1009.53 486.808C1008.7 488.506 1007.32 489.953 1005.56 490.971C1003.8 491.988 1001.74 492.531 999.639 492.533L71.156 493.492H71.142ZM999.634 487.548V490.041V487.548C1000.63 487.547 1001.61 487.29 1002.44 486.807C1003.28 486.324 1003.93 485.637 1004.33 484.831C1004.73 484.025 1004.85 483.134 1004.67 482.269C1004.5 481.404 1004.05 480.602 1003.36 479.962L825.904 313.8C825.425 313.354 824.848 312.997 824.208 312.753C823.568 312.509 822.878 312.382 822.18 312.38L251.169 311.395H251.159C250.46 311.396 249.769 311.522 249.128 311.765C248.487 312.009 247.909 312.364 247.43 312.811L67.4144 480.917C66.7289 481.557 66.2714 482.359 66.0985 483.225C65.9255 484.091 66.0446 484.982 66.441 485.789C66.8374 486.597 67.4939 487.284 68.3294 487.767C69.1649 488.25 70.1428 488.507 71.1427 488.507H71.1496L999.634 487.548Z" fill="#ECECEC"/>
<path d="M410.849 391.157C413.031 391.157 415.235 390.52 417.168 389.191C422.245 385.702 423.526 378.766 420.031 373.698L340.764 258.767C337.269 253.699 330.32 252.42 325.244 255.909C320.167 259.398 318.886 266.335 322.381 271.402L401.648 386.333C403.812 389.471 407.301 391.157 410.849 391.157Z" fill="#171C22"/>
<path d="M252.068 391.157C255.616 391.157 259.105 389.472 261.269 386.333L340.536 271.402C344.032 266.335 342.75 259.398 337.673 255.909C332.597 252.42 325.648 253.699 322.153 258.767L242.886 373.698C239.391 378.766 240.673 385.703 245.749 389.192C247.682 390.52 249.886 391.157 252.068 391.157Z" fill="#171C22"/>
<path d="M254.034 327.622C255.971 327.622 257.915 326.934 259.466 325.537L319.936 271.102C323.265 268.105 323.53 262.982 320.528 259.659C317.527 256.335 312.394 256.071 309.066 259.068L248.596 313.503C245.267 316.499 245.002 321.623 248.004 324.946C249.606 326.72 251.816 327.622 254.034 327.622Z" fill="#171C22"/>
<path d="M233.671 62.2269C234.546 56.0442 240.394 51.0415 246.613 51.0415C297.088 51.0415 347.562 51.0415 398.036 51.0415C398.253 51.0415 398.468 51.0492 398.679 51.0609C398.737 51.0642 398.794 51.0699 398.851 51.0739C399.003 51.0849 399.153 51.0978 399.302 51.1148C399.388 51.1246 399.472 51.1363 399.558 51.1476C399.655 51.161 399.751 51.1752 399.847 51.191C406.313 52.2313 411.311 58.6146 414.988 63.0258L406.617 69.6577C398.744 130.095 399.076 191.328 407.621 251.696C408.494 257.878 404.26 262.881 398.037 262.881C353.565 262.881 309.094 262.881 264.622 262.881L259.069 266.976L249.066 269.299C243.446 265.659 235.258 260.92 234.082 253.516C234.082 253.515 234.082 253.515 234.082 253.515C233.899 252.923 233.759 252.316 233.672 251.696C224.776 188.852 224.776 125.071 233.671 62.2269Z" fill="#171C22"/>
<path d="M255.947 271.388C306.421 271.388 356.895 271.388 407.37 271.388C413.593 271.388 417.828 266.386 416.954 260.203C408.059 197.36 408.059 133.578 416.954 70.7342C417.83 64.5503 413.592 59.548 407.37 59.5488C356.895 59.5488 306.421 59.5488 255.947 59.5488C249.728 59.5484 243.879 64.5515 243.004 70.7338C234.109 133.577 234.109 197.359 243.004 260.203C243.878 266.387 249.728 271.388 255.947 271.388Z" fill="#62C370"/>
<path d="M404.993 259.64C396.352 197.137 396.352 133.801 404.993 71.2966H255.946C255.535 71.3209 254.747 71.9833 254.655 72.3868C245.913 134.148 245.913 196.788 254.657 258.559C254.748 258.955 255.534 259.614 255.951 259.64H255.946H404.993V259.64Z" fill="#ECECEC"/>
<path d="M395.625 82.6551C393.635 82.6551 392.022 81.0446 392.022 79.0581C392.022 77.0716 393.635 75.4612 395.625 75.4612C397.615 75.4612 399.228 77.0716 399.228 79.0581C399.228 81.0446 397.615 82.6551 395.625 82.6551Z" fill="#171C22"/>
<path d="M261.845 82.6551C259.855 82.6551 258.242 81.0446 258.242 79.0581C258.242 77.0716 259.855 75.4612 261.845 75.4612C263.835 75.4612 265.448 77.0716 265.448 79.0581C265.448 81.0446 263.835 82.6551 261.845 82.6551Z" fill="#171C22"/>
<path d="M699.891 161.615C701.654 160.84 703.649 160.784 705.476 160.177C707.304 159.57 709.115 158.071 709.043 156.143C708.993 154.823 708.033 153.666 706.866 153.051C705.699 152.437 704.35 152.277 703.033 152.213C700.366 152.083 697.649 152.311 695.137 153.217C692.624 154.123 690.32 155.748 688.889 158.008C687.459 160.268 686.987 163.188 687.93 165.692C688.475 167.137 689.544 168.457 691.006 168.949C693.295 169.719 694.448 168.401 695.237 166.587C696.152 164.486 697.765 162.55 699.891 161.615Z" fill="#B39370"/>
<path d="M804.267 437.969H780.288V457.087H804.267V437.969Z" fill="#B39370"/>
<path d="M792.426 450.618C799.106 450.741 803.225 451.252 805.765 451.803L805.933 451.854C806.425 452.042 806.723 452.545 806.651 453.068C806.401 454.709 806.256 456.33 806.143 457.934C805.953 457.824 805.753 457.733 805.545 457.662C803.632 457.04 799.779 456.31 792.058 456.184C784.689 456.047 780.831 456.81 778.823 457.565C778.697 456.037 778.594 454.521 778.567 453.031C778.551 452.467 778.855 451.943 779.352 451.677C779.474 451.611 779.603 451.56 779.737 451.525C782.281 450.919 786.293 450.489 792.426 450.618Z" fill="#ECECEC"/>
<path d="M778.698 457.496C778.493 457.568 778.308 457.644 778.137 457.722C777.194 458.162 776.496 458.999 776.231 460.007L776.107 460.505C776.942 460.101 777.817 459.783 778.717 459.556C779.889 459.264 781.089 459.097 782.297 459.057C783.506 459.003 784.719 459.104 785.903 459.357C787.106 459.602 788.253 460.07 789.284 460.738C789.362 460.788 789.415 460.868 789.43 460.959V460.96C789.474 461.146 789.358 461.332 789.173 461.375C788.025 461.548 786.867 461.641 785.707 461.653C784.585 461.67 783.484 461.668 782.376 461.662C781.268 461.657 780.076 461.69 779.035 461.688C777.995 461.686 776.931 461.708 775.856 461.7C775.775 462.079 775.693 462.458 775.622 462.844C775.583 463.019 775.562 463.19 775.527 463.369C774.668 463.878 773.894 464.349 773.193 464.788L773.485 464.701C774.656 464.404 775.857 464.237 777.065 464.202C778.284 464.151 779.504 464.26 780.695 464.525C781.898 464.77 783.045 465.236 784.08 465.9C784.154 465.955 784.205 466.036 784.222 466.127C784.224 466.132 784.225 466.138 784.227 466.144C784.264 466.324 784.148 466.5 783.969 466.537C782.82 466.705 781.662 466.798 780.502 466.815C779.381 466.832 778.279 466.83 777.172 466.824C776.064 466.819 774.954 466.842 773.834 466.845C772.714 466.847 771.568 466.879 770.41 466.857C770.359 466.854 770.31 466.841 770.264 466.82C766.867 469.275 766.904 470.303 766.895 472.186C766.87 474.65 768.458 474.869 768.458 474.869C786.162 477.096 802.658 475.385 807.84 474.724C808.805 474.596 809.529 473.775 809.537 472.8C809.542 472.013 809.538 471.128 809.495 470.517C809.427 469.193 809.28 467.897 809.106 466.545C808.932 465.193 808.703 463.892 808.418 462.571C808.239 461.723 808.04 460.87 807.799 460.022C807.471 458.911 806.629 458.028 805.537 457.649C803.614 457.044 799.76 456.314 792.05 456.172C784.693 456.042 780.834 456.805 778.698 457.496ZM797.694 466.159C797.621 463.258 799.294 460.829 801.49 460.759C803.686 460.689 805.521 462.996 805.616 465.911C805.711 468.825 804.006 471.243 801.814 471.307C799.621 471.371 797.778 469.066 797.683 466.152L797.694 466.159Z" fill="#171C22"/>
<path d="M782.425 459.122C783.635 459.068 784.847 459.169 786.031 459.422C787.235 459.667 788.381 460.135 789.412 460.803C789.49 460.852 789.544 460.933 789.559 461.024C789.602 461.21 789.487 461.396 789.302 461.44H789.301C788.154 461.613 786.996 461.706 785.835 461.718C784.714 461.735 783.609 461.738 782.504 461.727C781.4 461.716 780.285 461.737 779.164 461.753C778.042 461.77 777.06 461.773 775.985 461.765L775.748 461.764L775.72 461.746C775.494 461.736 775.319 461.543 775.331 461.316C775.337 461.186 775.404 461.067 775.512 460.995C775.763 460.836 776.019 460.696 776.276 460.564C777.112 460.16 777.986 459.843 778.886 459.616C780.046 459.328 781.232 459.163 782.425 459.122Z" fill="#ECECEC"/>
<path d="M777.157 464.251C778.376 464.201 779.597 464.309 780.787 464.574C781.991 464.82 783.138 465.286 784.172 465.949C784.246 466.005 784.297 466.086 784.315 466.176C784.361 466.354 784.256 466.536 784.078 466.583C784.073 466.584 784.067 466.585 784.061 466.587C782.913 466.755 781.755 466.848 780.595 466.865C779.473 466.881 778.368 466.885 777.264 466.874C776.16 466.863 775.045 466.883 773.927 466.894C772.809 466.906 771.661 466.929 770.502 466.907C770.452 466.904 770.403 466.891 770.357 466.87C770.277 466.85 770.205 466.805 770.152 466.742C770.032 466.551 770.089 466.298 770.28 466.177C771.243 465.6 772.286 465.167 773.374 464.892L773.665 464.805C774.806 464.497 775.977 464.311 777.157 464.251Z" fill="#ECECEC"/>
<path d="M801.79 471.348C803.972 471.283 805.672 468.879 805.585 465.978C805.499 463.078 803.66 460.78 801.477 460.845C799.295 460.91 797.595 463.314 797.681 466.214C797.768 469.115 799.607 471.413 801.79 471.348Z" fill="#ECECEC"/>
<path d="M845.625 457.969L869.297 454.132L866.25 435.259L842.578 439.096L845.625 457.969Z" fill="#B39370"/>
<path d="M856.28 449.712C849.705 450.903 845.721 452.067 843.302 453.017L843.144 453.094C842.688 453.358 842.475 453.903 842.628 454.407C843.137 455.987 843.539 457.564 843.905 459.129C844.076 458.991 844.259 458.869 844.452 458.765C846.242 457.845 849.929 456.508 857.531 455.148C864.783 453.833 868.714 453.969 870.816 454.393C870.696 452.864 870.557 451.352 870.346 449.876C870.272 449.317 869.888 448.848 869.355 448.665C869.224 448.619 869.089 448.59 868.951 448.577C866.344 448.385 862.314 448.603 856.28 449.712Z" fill="#ECECEC"/>
<path d="M857.536 455.135C849.948 456.509 846.26 457.846 844.458 458.751C843.44 459.3 842.75 460.307 842.604 461.456C842.501 462.332 842.44 463.206 842.399 464.072C842.328 465.421 842.31 466.742 842.353 468.104C842.397 469.466 842.459 470.77 842.602 472.088C842.656 472.698 842.794 473.572 842.925 474.348C843.088 475.31 843.933 476.003 844.906 475.975C850.128 475.799 866.684 474.848 883.806 469.817C883.806 469.817 885.338 469.346 884.921 466.918C884.612 465.061 884.485 464.039 880.74 462.16C880.698 462.188 880.651 462.208 880.602 462.219C879.462 462.426 878.326 462.578 877.22 462.755C876.114 462.932 875.014 463.087 873.922 463.269C872.83 463.452 871.742 463.63 870.633 463.793C869.485 463.962 868.327 464.056 867.166 464.073C866.983 464.065 866.841 463.91 866.849 463.726C866.849 463.72 866.85 463.715 866.85 463.709C866.854 463.616 866.891 463.528 866.955 463.462C867.871 462.642 868.929 461.998 870.078 461.563C871.211 461.11 872.398 460.808 873.61 460.663C874.808 460.504 876.02 460.477 877.223 460.582L877.525 460.622C876.763 460.3 875.924 459.96 874.994 459.594C874.932 459.423 874.884 459.258 874.817 459.092C874.686 458.722 874.545 458.361 874.404 457.999C873.344 458.18 872.291 458.328 871.264 458.497C870.237 458.665 869.054 458.823 867.961 459.005C866.869 459.188 865.781 459.366 864.672 459.529C863.525 459.703 862.366 459.797 861.206 459.809C861.016 459.796 860.872 459.631 860.885 459.441V459.44C860.886 459.348 860.925 459.26 860.994 459.198C861.906 458.374 862.963 457.728 864.112 457.294C865.241 456.854 866.421 456.561 867.624 456.421C868.823 456.266 870.034 456.239 871.238 456.34C872.162 456.42 873.076 456.594 873.966 456.859L873.763 456.387C873.342 455.435 872.519 454.72 871.518 454.436C871.337 454.387 871.142 454.341 870.927 454.303C868.71 453.964 864.779 453.828 857.536 455.135ZM853.568 465.888C853.938 468.78 852.486 471.35 850.311 471.638C848.137 471.925 846.069 469.811 845.698 466.919C845.328 464.027 846.771 461.455 848.95 461.173C851.129 460.891 853.167 463.021 853.558 465.896L853.568 465.888Z" fill="#171C22"/>
<path d="M867.509 456.506C866.306 456.646 865.125 456.94 863.997 457.38C862.848 457.814 861.79 458.46 860.879 459.284C860.81 459.346 860.77 459.434 860.77 459.526C860.756 459.716 860.9 459.882 861.09 459.895H861.09C862.251 459.882 863.409 459.789 864.556 459.615C865.666 459.452 866.757 459.279 867.845 459.091C868.933 458.904 870.038 458.745 871.147 458.582C872.257 458.42 873.227 458.265 874.287 458.085L874.521 458.046L874.545 458.025C874.767 457.977 874.908 457.759 874.862 457.537C874.835 457.41 874.749 457.303 874.632 457.249C874.358 457.133 874.083 457.035 873.808 456.947C872.919 456.682 872.005 456.508 871.081 456.428C869.891 456.329 868.693 456.356 867.509 456.506Z" fill="#ECECEC"/>
<path d="M873.527 460.727C872.315 460.871 871.128 461.174 869.995 461.626C868.846 462.062 867.788 462.705 866.873 463.526C866.808 463.592 866.771 463.68 866.768 463.773C866.75 463.956 866.884 464.118 867.066 464.136C867.072 464.136 867.078 464.137 867.084 464.137C868.244 464.12 869.402 464.026 870.55 463.857C871.659 463.694 872.751 463.521 873.839 463.333C874.927 463.146 876.032 462.987 877.137 462.819C878.242 462.651 879.379 462.49 880.519 462.283C880.569 462.272 880.615 462.252 880.657 462.224C880.733 462.191 880.797 462.136 880.839 462.065C880.927 461.857 880.83 461.617 880.623 461.528C879.58 461.113 878.482 460.852 877.364 460.755L877.062 460.715C875.887 460.592 874.702 460.596 873.527 460.727Z" fill="#ECECEC"/>
<path d="M850.328 471.653C852.493 471.368 853.943 468.805 853.566 465.928C853.189 463.051 851.128 460.95 848.963 461.235C846.798 461.52 845.349 464.083 845.726 466.959C846.103 469.836 848.163 471.937 850.328 471.653Z" fill="#ECECEC"/>
<path d="M870.605 436.087C867.557 421.473 864.889 406.799 862.332 392.109C859.717 377.035 857.275 361.935 854.963 346.816C852.654 331.695 850.438 316.56 848.415 301.396C846.369 286.235 844.443 271.055 842.882 255.819L805.818 258.001L773.699 258.548C774.732 273.652 775.398 288.763 775.942 303.875C776.508 318.987 776.881 334.102 777.158 349.219C777.433 364.335 777.576 379.455 777.544 394.577C777.505 409.289 777.353 424.003 776.819 438.724C776.792 439.472 777.254 440.147 777.957 440.401C787.781 443.95 797.695 443.614 807.688 439.875C808.402 439.609 808.857 438.906 808.803 438.145C807.773 423.463 807.123 408.774 806.586 394.083C806.041 378.971 805.672 363.855 805.434 348.738C805.225 335.35 805.134 309.939 805.116 304.226C805.114 303.541 805.606 302.955 806.28 302.836C810.126 302.159 814.086 302.25 818.141 302.995C818.723 303.102 819.18 303.554 819.282 304.137C819.382 304.71 819.483 305.283 819.582 305.857C822.219 320.927 824.664 336.026 827.015 351.14C829.363 366.255 831.581 381.389 833.627 396.551C835.608 411.297 837.478 426.06 838.971 440.881C839.047 441.639 839.614 442.25 840.361 442.393C851.599 444.548 861.496 443.22 869.849 437.884C870.449 437.501 870.751 436.786 870.605 436.087Z" fill="#222831"/>
<path d="M692.354 160.82C690.996 159.498 689.271 158.697 687.496 158.166C687.229 157.984 686.912 157.818 686.531 157.675C682.76 156.263 678.308 155.652 674.286 155.125C665.561 153.98 656.627 154.146 647.987 155.61C643.131 156.434 638.367 157.667 633.793 159.309C632.831 159.653 631.862 160.025 631.074 160.619C630.286 161.213 629.695 162.072 629.715 162.989C629.749 164.47 631.375 165.62 633.031 165.889C634.688 166.157 636.373 165.774 638.015 165.463C641.371 164.827 647.893 164.629 647.996 164.64C657.962 165.683 663.863 167.132 666.204 168.752C667.761 169.829 669.584 170.495 671.229 171.431C676.127 174.219 682.024 174.946 687.434 173.431C689.064 172.974 690.674 172.307 692.007 171.189C693.34 170.071 694.377 168.456 694.592 166.66C694.853 164.475 693.858 162.285 692.354 160.82Z" fill="#B39370"/>
<path d="M693.792 168.93L675.73 164.614L672.197 179.453L690.26 183.769L693.792 168.93Z" fill="#B39370"/>
<path d="M786.491 146.476C782.055 146.534 774.769 147.216 768.392 150.513C766.246 151.623 764.202 153.026 762.405 154.804C757.969 159.186 755.214 165.723 753.311 170.931C752.518 173.098 751.78 175.3 750.997 177.625C749.183 183.028 747.306 188.613 744.614 194.143C739.484 204.699 732.588 212.243 724.119 216.571C718.938 219.218 713.194 220.512 707.449 220.512C699.244 220.512 691.045 217.869 684.504 212.746C673.689 204.271 668.356 189.745 671.011 176.279C671.145 175.6 671.727 175.104 672.417 175.073C679.618 174.746 686.199 176.414 692.271 179.722C692.828 180.025 693.127 180.642 693.035 181.271C692.303 186.249 694.462 191.858 698.4 194.945C702.607 198.242 709.113 198.869 713.87 196.437C718.863 193.886 722.318 188.401 724.338 184.244C726.392 180.022 727.96 175.355 729.621 170.414C730.418 168.052 731.238 165.607 732.133 163.159C734.847 155.735 738.941 146.247 746.568 138.714C753.195 132.164 762.083 127.617 772.339 125.408C776.727 124.463 781.366 123.943 786.189 123.88C786.19 123.88 786.19 123.88 786.19 123.881L786.446 143.128L786.491 146.476Z" fill="#ECECEC"/>
<path d="M753.914 268.482C754.601 270.856 755.503 273.383 757.528 274.738C759.34 275.95 761.729 275.948 763.787 275.26C765.845 274.572 767.648 273.278 769.418 272.001C771.853 270.245 774.363 268.407 775.869 265.776C777.379 263.139 777.715 259.988 777.934 256.939C778.687 246.486 778.448 235.958 777.224 225.551C776.948 223.211 776.455 220.59 774.533 219.288C772.493 217.906 769.752 218.637 767.518 219.661C761.44 222.446 756.245 227.157 752.709 232.922C751.068 235.598 749.79 238.066 749.896 241.243C750.041 245.593 750.274 249.905 750.876 254.218C751.549 259.04 752.564 263.812 753.914 268.482Z" fill="#70878A"/>
<path d="M758.516 200.194C754.387 203.477 750.736 207.504 748.583 212.325C745.645 218.903 745.703 226.411 746.371 233.587C746.559 235.606 746.917 237.854 748.533 239.075C749.754 239.998 751.446 240.087 752.919 239.677C754.393 239.266 755.7 238.419 756.982 237.583C763.47 233.354 770.252 228.801 773.69 221.852C777.168 214.822 776.624 206.546 775.87 198.735C775.722 197.195 775.559 195.62 774.91 194.216C772.952 189.983 770.089 192.692 767.221 194.377C764.209 196.144 761.252 198.018 758.516 200.194Z" fill="#354A4C"/>
<path d="M779.05 267.221L786.811 285.152C787.752 287.325 790.549 287.921 792.291 286.32L809.465 270.531L826.006 286.53C827.615 288.086 830.254 287.714 831.373 285.774L843.091 265.438L779.05 267.221Z" fill="#ECECEC"/>
<path d="M854.067 133.101C853.554 136.357 853.028 147.01 852.918 148.828C852.847 150.013 852.771 151.194 852.7 152.365C852.628 153.505 852.556 154.639 852.484 155.769C851.996 163.295 851.48 170.588 850.947 177.755C850.171 188.15 849.364 198.279 848.565 208.472C847.358 223.843 846.172 239.361 845.151 256.153C845.021 258.3 849.48 262.977 846.494 267.576C845.212 269.548 840.462 271.407 838.162 271.972C823.241 275.626 807.655 276.584 792.392 274.783C784.799 273.89 774.195 271.335 771.796 263.107C771.013 260.433 771.409 257.437 771.105 254.687C770.569 249.883 769.602 245.107 768.962 240.313C768.269 235.102 767.787 229.88 767.459 224.648C767.131 219.481 766.956 214.307 766.874 209.126C766.717 199.265 766.898 189.383 767.021 179.504C767.141 169.828 767.599 160.155 768.392 150.513C768.542 148.66 768.706 146.808 768.884 144.959C769.062 143.079 769.273 141.158 769.625 139.282C770.336 135.005 771.129 130.081 772.339 125.407C776.645 124.479 781.193 123.962 785.92 123.883C786.439 123.784 786.962 123.692 787.485 123.613C788.322 123.479 789.159 123.366 789.99 123.271C804.962 121.493 820.275 122.541 834.861 126.339C835.329 126.458 835.797 126.585 836.265 126.712C836.587 126.801 836.908 126.89 837.232 126.986C840.12 127.821 843.059 128.896 845.598 130.43L845.602 130.423C847.574 131.636 850.673 132.457 854.067 133.101Z" fill="#E24444"/>
<path d="M843.743 170.672C843.454 170.659 843.745 170.737 843.454 170.659C841.305 170.082 839.766 167.193 840.342 165.038C841.482 160.773 840.725 156.019 838.316 152.321C837.1 150.454 837.625 147.953 839.489 146.734C841.352 145.515 843.849 146.041 845.065 147.908C848.706 153.497 849.919 161.818 848.196 168.265C847.698 170.127 845.589 170.753 843.743 170.672Z" fill="#B39370"/>
<path d="M834.861 126.338C834.847 126.362 834.833 126.383 834.82 126.407C834.505 126.955 834.188 127.503 833.866 128.05C826.111 141.278 816.498 154.923 803.869 164.038C802.313 165.161 800.357 166.074 798.389 165.723C794.554 165.04 792.764 159.626 791.374 156.454C788.094 148.967 786.444 140.448 786.166 132.297C786.081 129.824 786.293 126.274 787.485 123.613C788.323 123.48 789.16 123.367 789.99 123.271C804.962 121.493 820.275 122.541 834.861 126.338Z" fill="#ECECEC"/>
<path d="M849.364 133.426C841.333 152.358 830.196 169.851 816.198 185.51C802.019 201.37 785.643 214.519 767.459 224.647C765.191 219.486 764.332 214.314 766.874 209.126C798.014 190.006 823.163 160.723 837.232 126.985C842.787 125.059 847.237 127.396 849.364 133.426Z" fill="#354A4C"/>
<path d="M826.755 173.017C824.407 173.017 822.478 171.136 822.425 168.772C822.391 167.259 821.785 165.752 820.763 164.638C819.74 163.524 818.292 162.793 816.79 162.632C815.942 162.54 815.184 162.653 814.713 162.941C812.671 164.19 810.003 163.544 808.757 161.497C807.51 159.45 808.155 156.778 810.198 155.528C812.325 154.228 814.924 153.698 817.712 153.996C821.279 154.379 824.716 156.115 827.144 158.761C829.571 161.407 831.009 164.984 831.09 168.577C831.144 170.974 829.248 172.962 826.855 173.015C826.822 173.016 826.788 173.017 826.755 173.017Z" fill="#B39370"/>
<path d="M832.532 171.168C830.168 171.169 828.235 169.266 828.2 166.89C828.16 164.089 826.786 161.253 824.617 159.488C822.447 157.722 819.395 156.958 816.651 157.492C814.301 157.949 812.026 156.413 811.57 154.059C811.113 151.705 812.647 149.425 814.997 148.968C820.27 147.94 825.909 149.353 830.08 152.746C834.251 156.14 836.788 161.38 836.866 166.763C836.901 169.161 834.989 171.133 832.596 171.168C832.575 171.168 832.554 171.168 832.532 171.168Z" fill="#B39370"/>
<path d="M835.371 165.288C833.469 165.288 831.724 164.023 831.195 162.097C830.055 157.944 826.3 154.534 822.063 153.804C819.705 153.397 818.121 151.152 818.527 148.788C818.932 146.425 821.172 144.839 823.533 145.245C831.082 146.546 837.52 152.392 839.552 159.792C840.187 162.104 838.831 164.494 836.524 165.131C836.139 165.237 835.752 165.288 835.371 165.288Z" fill="#B39370"/>
<path d="M826.349 176.651C824.536 176.651 822.847 175.503 822.24 173.686C821.821 172.433 820.858 171.347 819.664 170.783C818.471 170.219 817.023 170.165 815.791 170.639C813.556 171.498 811.05 170.379 810.192 168.141C809.335 165.902 810.451 163.391 812.686 162.531C816.132 161.206 820.023 161.351 823.361 162.929C826.7 164.506 829.286 167.422 830.458 170.929C831.218 173.203 829.994 175.664 827.725 176.425C827.269 176.578 826.804 176.651 826.349 176.651Z" fill="#B39370"/>
<path d="M822.551 174.396C825.354 181.902 829.602 185.969 836.221 188.37C846.085 191.947 853.688 177.506 848.225 167.151C842.959 157.168 842.853 167.733 839.552 159.793C836.25 151.854 822.551 174.396 822.551 174.396Z" fill="#B39370"/>
<path d="M918.861 184.381C917.58 198.269 907.321 210.924 893.326 215.872C888.692 217.512 883.72 218.32 878.641 218.32C870.949 218.32 863.003 216.464 855.574 212.807C852.871 211.475 850.571 210.017 848.565 208.472C843.527 204.586 840.339 200.148 837.229 195.817C836.255 194.464 835.254 193.067 834.169 191.654C833.947 191.364 833.947 190.956 834.174 190.67C839.438 184.059 845.038 179.772 850.947 177.755C851.293 177.483 851.797 177.546 852.064 177.896C853.359 179.587 854.509 181.189 855.536 182.617C859.384 187.976 861.267 190.435 865.515 192.523C872.442 195.93 879.844 196.673 885.818 194.561C891.481 192.558 895.93 187.404 896.402 182.302C896.873 177.18 893.682 171.164 888.272 166.969C881.799 161.956 872.842 159.491 865.765 157.902C863.523 157.402 860.779 157.005 857.874 156.584C856.117 156.331 854.313 156.07 852.484 155.769C852.556 154.639 852.628 153.506 852.7 152.366C852.772 151.194 852.847 150.013 852.918 148.828C852.925 148.743 852.929 148.64 852.936 148.517C852.942 148.448 852.946 148.38 852.949 148.308C852.949 148.287 852.949 148.27 852.953 148.25C852.959 148.147 852.963 148.041 852.97 147.938C852.983 147.712 852.994 147.49 853.007 147.264C853.014 147.099 853.024 146.921 853.031 146.74C853.243 142.956 853.66 135.69 854.067 133.102C856.36 133.533 858.79 133.886 861.096 134.218C864.295 134.68 867.6 135.156 870.689 135.851C880.049 137.95 892.075 141.35 902.068 149.092C913.609 158.036 920.044 171.557 918.861 184.381Z" fill="#ECECEC"/>
<path d="M799.34 162.157C799.023 162.168 798.666 160.716 798.468 158.337C798.269 155.96 798.258 152.656 798.616 149.033C798.977 145.411 799.637 142.173 800.3 139.883C800.962 137.589 801.597 136.236 801.905 136.309C802.555 136.471 801.639 142.197 800.952 149.266C800.236 156.332 800.01 162.127 799.34 162.157Z" fill="#171C22"/>
<path d="M820.063 135.113C820.435 135.645 816.384 139.128 811.016 142.892C810.687 143.12 810.34 143.377 809.907 143.619C809.479 143.856 808.951 144.082 808.331 144.132C807.71 144.184 807.083 144.015 806.615 143.752C806.141 143.49 805.789 143.167 805.502 142.857C805.214 142.544 804.982 142.234 804.778 141.942C804.587 141.661 804.402 141.388 804.223 141.124C803.872 140.597 803.551 140.101 803.266 139.642C802.126 137.807 801.549 136.573 801.806 136.375C802.063 136.177 803.105 137.052 804.582 138.628C804.952 139.022 805.348 139.459 805.767 139.935C805.973 140.172 806.186 140.417 806.406 140.67C806.614 140.91 806.824 141.135 807.036 141.328C807.246 141.522 807.461 141.673 807.646 141.756C807.834 141.84 807.974 141.855 808.124 141.836C808.277 141.816 808.493 141.736 808.757 141.581C809.019 141.43 809.326 141.205 809.67 140.965C815.038 137.201 819.692 134.58 820.063 135.113Z" fill="#171C22"/>
<path d="M789.964 132.073C790.51 131.722 793.212 134.966 796.001 139.318L796.108 139.486L796.135 139.528C796.141 139.538 796.137 139.531 796.138 139.533L796.138 139.533L796.136 139.536C796.135 139.54 796.134 139.546 796.135 139.557C796.136 139.563 796.141 139.569 796.15 139.573C796.155 139.574 796.161 139.576 796.168 139.576H796.174L796.253 139.518L796.409 139.402C796.823 139.096 797.225 138.807 797.61 138.539C798.381 138.001 799.084 137.543 799.69 137.183C800.901 136.465 801.722 136.142 801.905 136.368C802.088 136.594 801.602 137.332 800.648 138.369C800.172 138.889 799.578 139.482 798.893 140.125C798.55 140.446 798.184 140.78 797.799 141.123L797.653 141.252L797.433 141.441C797.235 141.608 797.036 141.776 796.834 141.946C796.423 142.288 796.006 142.636 795.582 142.989C795.077 142.209 794.556 141.407 794.025 140.588C791.237 136.236 789.418 132.424 789.964 132.073Z" fill="#171C22"/>
<path d="M857.847 188.752C858.107 188.928 857.773 189.981 856.849 191.464C856.39 192.207 855.771 193.042 855.019 193.917C854.259 194.784 853.362 195.686 852.346 196.549C851.325 197.405 850.285 198.138 849.303 198.741C848.315 199.336 847.388 199.805 846.58 200.132C844.964 200.793 843.872 200.943 843.743 200.657C843.473 200.035 847.042 197.982 850.833 194.75C854.655 191.555 857.282 188.38 857.847 188.752Z" fill="#171C22"/>
<path d="M842.555 196.821C843.123 196.509 842.828 194.872 841.895 193.164C840.962 191.456 839.745 190.325 839.176 190.637C838.607 190.949 838.903 192.586 839.836 194.294C840.769 196.002 841.986 197.133 842.555 196.821Z" fill="#171C22"/>
<path d="M689.137 189.984C689.215 190.286 688.356 190.836 686.81 191.276C686.039 191.498 685.097 191.67 684.039 191.77C682.982 191.857 681.808 191.865 680.586 191.749C679.365 191.623 678.216 191.384 677.196 191.09C676.178 190.784 675.288 190.431 674.576 190.06C673.146 189.325 672.412 188.617 672.548 188.336C672.692 188.032 673.658 188.195 675.126 188.491C675.86 188.643 676.729 188.809 677.688 188.979C678.65 189.137 679.704 189.292 680.817 189.407C681.931 189.514 682.996 189.569 683.97 189.604C684.944 189.626 685.828 189.633 686.577 189.629C688.076 189.627 689.055 189.658 689.137 189.984Z" fill="#171C22"/>
<path d="M689.002 187.853C689.65 187.833 690.132 186.361 690.079 184.565C690.026 182.769 689.457 181.328 688.809 181.347C688.161 181.367 687.679 182.839 687.732 184.635C687.785 186.431 688.354 187.872 689.002 187.853Z" fill="#171C22"/>
<path d="M778.463 261.043C778.304 261.502 777.25 261.554 776.133 261.092C775.014 260.631 774.303 259.845 774.516 259.408C774.73 258.969 775.74 259.023 776.804 259.461C777.868 259.901 778.623 260.581 778.463 261.043Z" fill="#9E2F2F"/>
<path d="M789.228 263.731C789.151 264.208 787.316 264.316 785.144 263.841C782.97 263.369 781.345 262.477 781.485 262.012C781.626 261.544 783.41 261.66 785.521 262.118C787.631 262.58 789.307 263.246 789.228 263.731Z" fill="#9E2F2F"/>
<path d="M800.259 264.989C800.234 265.474 798.421 265.773 796.219 265.555C794.016 265.34 792.296 264.693 792.365 264.213C792.435 263.728 794.232 263.588 796.391 263.799C798.549 264.013 800.285 264.501 800.259 264.989Z" fill="#9E2F2F"/>
<path d="M811.361 265.056C811.387 265.54 809.617 266.031 807.404 266.05C805.191 266.072 803.412 265.614 803.429 265.13C803.447 264.641 805.219 264.308 807.388 264.286C809.557 264.267 811.335 264.568 811.361 265.056Z" fill="#9E2F2F"/>
<path d="M822.409 263.942C822.486 264.421 820.777 265.097 818.579 265.351C816.381 265.608 814.563 265.342 814.529 264.858C814.494 264.37 816.221 263.851 818.376 263.599C820.531 263.349 822.331 263.459 822.409 263.942Z" fill="#9E2F2F"/>
<path d="M833.275 261.657C833.403 262.125 831.776 262.98 829.617 263.467C827.458 263.957 825.622 263.886 825.537 263.408C825.451 262.927 827.113 262.227 829.229 261.746C831.345 261.269 833.146 261.185 833.275 261.657Z" fill="#9E2F2F"/>
<path d="M840.39 259.477C840.551 259.937 839.762 260.607 838.628 260.974C837.494 261.341 836.463 261.259 836.325 260.792C836.187 260.324 836.976 259.654 838.087 259.295C839.198 258.936 840.229 259.017 840.39 259.477Z" fill="#9E2F2F"/>
<path d="M806.624 283.816C807.108 283.766 807.403 282.773 807.282 281.597C807.162 280.421 806.672 279.509 806.189 279.558C805.705 279.608 805.411 280.601 805.531 281.777C805.651 282.953 806.141 283.866 806.624 283.816Z" fill="#ECECEC"/>
<path d="M807.346 290.846C807.829 290.797 808.106 289.632 807.964 288.245C807.822 286.858 807.315 285.774 806.832 285.823C806.348 285.873 806.071 287.038 806.213 288.425C806.355 289.812 806.862 290.896 807.346 290.846Z" fill="#ECECEC"/>
<path d="M807.987 297.113C808.471 297.064 808.765 296.07 808.645 294.894C808.525 293.719 808.035 292.806 807.551 292.855C807.068 292.905 806.773 293.898 806.893 295.074C807.014 296.25 807.503 297.163 807.987 297.113Z" fill="#ECECEC"/>
<path d="M812.423 283.577C812.906 283.53 813.206 282.538 813.092 281.362C812.978 280.185 812.493 279.27 812.009 279.317C811.526 279.364 811.226 280.356 811.34 281.532C811.454 282.708 811.939 283.624 812.423 283.577Z" fill="#ECECEC"/>
<path d="M813.279 292.406C813.763 292.359 814.018 290.909 813.85 289.167C813.681 287.426 813.151 286.052 812.668 286.1C812.184 286.147 811.928 287.597 812.097 289.338C812.266 291.079 812.795 292.453 813.279 292.406Z" fill="#ECECEC"/>
<path d="M813.936 299.189C814.42 299.142 814.72 298.15 814.606 296.974C814.492 295.797 814.007 294.882 813.523 294.929C813.039 294.976 812.74 295.968 812.854 297.144C812.968 298.321 813.453 299.236 813.936 299.189Z" fill="#ECECEC"/>
<path d="M825.588 317.108C826.068 317.026 826.138 315.071 825.746 312.741C825.353 310.41 824.646 308.587 824.167 308.668C823.687 308.749 823.616 310.704 824.009 313.034C824.401 315.365 825.108 317.189 825.588 317.108Z" fill="#ECECEC"/>
<path d="M827.56 328.92C828.039 328.841 828.115 326.886 827.728 324.554C827.341 322.223 826.638 320.397 826.159 320.477C825.679 320.557 825.604 322.512 825.991 324.844C826.378 327.175 827.08 329 827.56 328.92Z" fill="#ECECEC"/>
<path d="M829.488 340.732C829.967 340.653 830.047 338.698 829.665 336.365C829.283 334.033 828.584 332.206 828.104 332.284C827.625 332.363 827.545 334.318 827.927 336.651C828.309 338.984 829.008 340.811 829.488 340.732Z" fill="#ECECEC"/>
<path d="M831.41 352.578C831.891 352.5 831.974 350.545 831.598 348.211C831.221 345.878 830.526 344.049 830.046 344.127C829.566 344.204 829.482 346.159 829.859 348.493C830.236 350.827 830.93 352.656 831.41 352.578Z" fill="#ECECEC"/>
<path d="M833.285 364.415C833.765 364.338 833.854 362.385 833.483 360.052C833.112 357.718 832.423 355.889 831.942 355.966C831.462 356.042 831.373 357.996 831.744 360.329C832.115 362.662 832.804 364.491 833.285 364.415Z" fill="#ECECEC"/>
<path d="M835.129 376.228C835.609 376.153 835.703 374.199 835.339 371.863C834.975 369.527 834.291 367.695 833.81 367.77C833.33 367.845 833.236 369.8 833.6 372.135C833.964 374.471 834.648 376.303 835.129 376.228Z" fill="#ECECEC"/>
<path d="M836.946 388.095C837.427 388.021 837.528 386.068 837.172 383.731C836.817 381.394 836.139 379.559 835.658 379.632C835.178 379.706 835.076 381.66 835.432 383.996C835.787 386.333 836.465 388.168 836.946 388.095Z" fill="#ECECEC"/>
<path d="M838.704 399.946C839.185 399.874 839.296 397.921 838.952 395.582C838.607 393.243 837.938 391.405 837.457 391.476C836.976 391.547 836.865 393.501 837.21 395.84C837.554 398.178 838.223 400.017 838.704 399.946Z" fill="#ECECEC"/>
<path d="M840.356 411.793C840.838 411.725 840.962 409.772 840.633 407.432C840.304 405.091 839.648 403.248 839.166 403.316C838.684 403.384 838.56 405.337 838.889 407.677C839.218 410.018 839.874 411.861 840.356 411.793Z" fill="#ECECEC"/>
<path d="M841.939 423.69C841.456 423.749 840.819 421.899 840.516 419.558C840.213 417.217 840.358 415.266 840.84 415.2C841.321 415.135 841.958 416.984 842.262 419.332C842.566 421.679 842.421 423.63 841.939 423.69Z" fill="#ECECEC"/>
<path d="M843.258 435.602C842.773 435.645 842.178 433.781 841.928 431.437C841.678 429.094 841.867 427.147 842.35 427.089C842.833 427.031 843.428 428.895 843.679 431.253C843.931 433.612 843.742 435.558 843.258 435.602Z" fill="#ECECEC"/>
<path d="M827.056 304.262C827.165 303.621 825.625 302.824 823.617 302.481C821.608 302.137 819.892 302.378 819.783 303.018C819.674 303.659 821.213 304.456 823.222 304.799C825.23 305.143 826.947 304.902 827.056 304.262Z" fill="#ECECEC"/>
<path d="M753.417 235.132C753.485 235.359 753.322 235.653 752.908 235.89C752.497 236.121 751.837 236.255 751.119 236.101C750.401 235.946 749.805 235.508 749.554 235.065C749.291 234.622 749.341 234.259 749.537 234.13C749.743 233.992 750.041 234.051 750.364 234.117C750.655 234.184 751.054 234.276 751.494 234.377C751.934 234.47 752.359 234.555 752.709 234.658C753.056 234.758 753.347 234.894 753.417 235.132Z" fill="#70878A"/>
<path d="M759.898 231.126C760.172 231.528 759.385 232.544 758.141 233.395C756.908 234.246 755.628 234.61 755.381 234.191C755.133 233.77 755.9 232.798 757.149 231.937C758.393 231.087 759.624 230.723 759.898 231.126Z" fill="#70878A"/>
<path d="M763.959 229.432C764.934 228.766 765.501 227.9 765.227 227.497C764.953 227.095 763.941 227.308 762.967 227.974C761.992 228.64 761.424 229.506 761.698 229.909C761.972 230.311 762.984 230.098 763.959 229.432Z" fill="#70878A"/>
<path d="M782.176 130.425C781.69 130.436 781.295 129.478 781.294 128.285C781.294 127.092 781.688 126.133 782.173 126.144C782.659 126.155 783.055 127.113 783.055 128.284C783.056 129.455 782.662 130.413 782.176 130.425Z" fill="#9E2F2F"/>
<path d="M782.889 141.008C782.407 141.067 781.811 139.414 781.641 137.308C781.47 135.202 781.793 133.474 782.277 133.454C782.764 133.434 783.228 135.098 783.396 137.165C783.563 139.232 783.373 140.949 782.889 141.008Z" fill="#9E2F2F"/>
<path d="M784.6 151.476C784.126 151.58 783.376 149.991 783.008 147.911C782.638 145.831 782.796 144.08 783.276 144.014C783.76 143.948 784.378 145.56 784.742 147.602C785.103 149.644 785.076 151.371 784.6 151.476Z" fill="#9E2F2F"/>
<path d="M787.371 161.71C786.917 161.894 785.931 160.388 785.374 158.338C784.835 156.293 784.8 154.544 785.271 154.432C785.746 154.32 786.543 155.86 787.07 157.863C787.611 159.854 787.82 161.528 787.371 161.71Z" fill="#9E2F2F"/>
<path d="M793.765 169.854C793.658 170.068 793.164 170.082 792.467 169.821C791.775 169.563 790.886 169.01 790.121 168.171C789.362 167.346 788.868 166.454 788.631 165.766C788.392 165.075 788.393 164.589 788.606 164.476C789.052 164.249 790.107 165.553 791.416 166.975C792.692 168.389 793.975 169.403 793.765 169.854Z" fill="#9E2F2F"/>
<path d="M800.802 170.283C800.905 170.5 800.777 170.813 800.43 171.107C800.087 171.4 799.518 171.657 798.857 171.735C798.197 171.812 797.595 171.697 797.196 171.502C796.793 171.308 796.587 171.045 796.626 170.807C796.665 170.564 796.931 170.388 797.298 170.259C797.668 170.131 798.14 170.042 798.652 169.982C799.164 169.921 799.632 169.897 800.016 169.93C800.397 169.964 800.698 170.06 800.802 170.283Z" fill="#9E2F2F"/>
<path d="M827.861 169.136C827.626 169.242 827.109 168.499 826.176 167.482C825.251 166.463 823.844 165.187 822.014 164.28C820.182 163.374 818.317 163.029 816.947 162.912C815.574 162.787 814.671 162.826 814.612 162.574C814.554 162.356 815.392 161.867 816.918 161.664C818.426 161.456 820.646 161.634 822.794 162.698C824.942 163.761 826.431 165.42 827.182 166.747C827.949 168.085 828.07 169.049 827.861 169.136Z" fill="#5E3F26"/>
<path d="M828.932 162.463C828.526 162.779 826.28 160.348 822.817 158.419C819.383 156.439 816.146 155.762 816.208 155.252C816.236 155.022 817.113 154.887 818.51 155.074C819.208 155.164 820.027 155.356 820.914 155.646C821.796 155.947 822.743 156.354 823.684 156.883C824.621 157.419 825.458 158.022 826.17 158.624C826.875 159.236 827.461 159.841 827.897 160.394C828.777 161.498 829.114 162.321 828.932 162.463Z" fill="#5E3F26"/>
<path d="M832.727 160.634C832.255 160.826 830.914 158.39 828.568 156.036C826.256 153.647 823.847 152.265 824.046 151.796C824.14 151.582 824.898 151.655 826.004 152.124C826.556 152.355 827.184 152.699 827.843 153.142C828.496 153.592 829.177 154.146 829.823 154.799C830.464 155.457 831.006 156.147 831.445 156.809C831.876 157.476 832.21 158.11 832.431 158.668C832.881 159.783 832.942 160.543 832.727 160.634Z" fill="#5E3F26"/>
<path d="M847.858 167.349C847.646 167.483 847.238 167.223 846.685 166.813C846.131 166.399 845.409 165.846 844.564 165.311C843.716 164.781 842.905 164.371 842.292 164.051C841.682 163.73 841.272 163.475 841.3 163.226C841.325 162.992 841.811 162.807 842.604 162.844C843.391 162.877 844.473 163.173 845.5 163.817C846.525 164.463 847.262 165.31 847.634 166.006C848.012 166.705 848.057 167.225 847.858 167.349Z" fill="#5E3F26"/>
<path d="M810.795 158.967C810.862 158.43 811.315 157.997 811.829 157.833C812.343 157.669 812.905 157.735 813.424 157.883C813.671 157.953 813.918 158.045 814.116 158.208C814.314 158.372 814.459 158.618 814.445 158.875C814.421 159.347 813.918 159.632 813.467 159.772C812.653 160.025 810.603 160.512 810.795 158.967Z" fill="#5E3F26"/>
<path d="M817.175 150.901C817.609 150.98 818.072 151.22 818.181 151.648C818.267 151.987 818.099 152.35 817.844 152.59C817.589 152.829 817.259 152.969 816.937 153.103C816.545 153.268 816.144 153.435 815.72 153.472C815.296 153.508 814.836 153.394 814.554 153.074C813.359 151.718 816.251 150.734 817.175 150.901Z" fill="#5E3F26"/>
<path d="M824.345 147.439C824.584 147.652 824.788 147.966 824.704 148.274C824.626 148.566 824.323 148.735 824.034 148.824C823.423 149.011 822.749 148.98 822.158 148.736C821.42 148.432 821.112 147.549 821.859 147.06C822.562 146.599 823.773 146.929 824.345 147.439Z" fill="#5E3F26"/>
<path d="M812.7 164.398C813.232 164.107 813.891 164.06 814.459 164.272C814.879 164.429 815.275 164.778 815.297 165.227C815.312 165.534 815.146 165.828 814.92 166.034C814.693 166.24 814.41 166.372 814.127 166.492C813.691 166.677 813.222 166.843 812.752 166.782C811.205 166.579 811.696 164.949 812.7 164.398Z" fill="#5E3F26"/>
<path d="M692.293 163.78C692.063 163.876 691.703 163.554 691.23 163.052C690.757 162.546 690.149 161.866 689.424 161.172C688.696 160.481 687.989 159.907 687.461 159.458C686.936 159.009 686.597 158.665 686.682 158.43C686.761 158.208 687.274 158.141 688.032 158.349C688.786 158.554 689.769 159.067 690.638 159.894C691.506 160.723 692.066 161.681 692.307 162.425C692.553 163.174 692.511 163.69 692.293 163.78Z" fill="#5E3F26"/>
<path d="M691.416 170.266C691.567 170.435 691.096 171.189 689.992 172.07C689.716 172.288 689.405 172.518 689.048 172.729C688.701 172.959 688.304 173.155 687.886 173.366C687.039 173.758 686.062 174.102 685.004 174.326C683.944 174.539 682.911 174.609 681.978 174.583C681.511 174.555 681.069 174.532 680.66 174.459C680.249 174.405 679.873 174.317 679.533 174.226C678.171 173.854 677.441 173.347 677.513 173.132C677.592 172.886 678.43 172.956 679.717 172.992C680.039 173 680.389 173.013 680.765 173C681.14 173.007 681.54 172.974 681.958 172.958C682.794 172.895 683.705 172.787 684.65 172.598C685.592 172.398 686.471 172.137 687.265 171.864C687.655 171.713 688.035 171.585 688.377 171.43C688.727 171.293 689.044 171.144 689.337 171.009C690.506 170.467 691.247 170.07 691.416 170.266Z" fill="#5E3F26"/>
<path fill-rule="evenodd" clip-rule="evenodd" d="M794.277 124.791V114.658C784.693 113.432 767.507 109.987 767.507 87.7427C767.507 78.5817 766.884 62.5594 766.351 50.5431C765.683 35.4784 776.614 22.2967 791.577 20.3835C795.651 19.8521 799.788 20.0423 803.796 20.9454C815.642 23.6387 822.576 31.886 824.849 34.859C824.849 34.8517 824.851 34.851 824.851 34.8507C825.073 34.7468 837.086 59.4527 823.695 101.477C821.916 107.058 822.895 115.786 822.986 127.164C823.025 132.041 815.186 135.912 806.633 134.812C798.707 133.792 794.277 129.224 794.277 124.791Z" fill="#B39370"/>
<path d="M808.205 111.46C808.287 111.603 808.213 111.822 807.999 112.101C807.873 112.265 807.73 112.416 807.573 112.551C807.375 112.731 807.164 112.897 806.943 113.049C806.373 113.443 805.764 113.778 805.127 114.051C804.766 114.2 804.385 114.358 803.978 114.481C803.574 114.616 803.147 114.723 802.707 114.827C802.264 114.916 801.83 114.996 801.406 115.041C800.985 115.097 800.573 115.112 800.183 115.126C799.49 115.143 798.797 115.09 798.114 114.969C797.85 114.923 797.59 114.859 797.334 114.777C797.135 114.72 796.943 114.642 796.76 114.545C796.448 114.38 796.291 114.211 796.306 114.048C796.322 113.884 796.508 113.741 796.822 113.621C796.979 113.562 797.168 113.508 797.386 113.448C797.603 113.388 797.847 113.344 798.115 113.286C798.652 113.182 799.281 113.067 799.972 112.944C800.316 112.874 800.679 112.818 801.05 112.736L802.201 112.501L803.344 112.237C803.716 112.157 804.069 112.057 804.411 111.978C805.091 111.805 805.711 111.647 806.242 111.519C806.511 111.462 806.751 111.401 806.973 111.363C807.194 111.325 807.39 111.298 807.558 111.285C807.895 111.265 808.123 111.32 808.205 111.46Z" fill="#5E3F26"/>
<path d="M818.455 69.2354C818.504 68.818 818.629 68.4131 818.826 68.041C818.898 67.8813 819.016 67.7466 819.165 67.6539C819.315 67.5612 819.489 67.5149 819.665 67.5208C820.045 67.5887 820.326 68.0322 820.526 68.476C820.877 69.2658 821.102 70.1052 821.192 70.9639C821.287 71.6328 821.238 72.314 821.047 72.9624C820.61 74.2431 819.422 74.4139 818.781 73.2959C818.206 72.2928 818.275 70.3863 818.455 69.2354Z" fill="#171C22"/>
<path fill-rule="evenodd" clip-rule="evenodd" d="M846.028 25.8278C846.817 25.0474 847.37 24.0634 847.625 22.9872C847.88 21.9109 847.827 20.7853 847.471 19.7375C846.564 17.2336 843.862 15.6151 840.975 15.9758C841.185 12.8029 839.402 9.90484 836.645 8.81032C833.26 7.46654 830.19 9.5503 829.969 9.70617C829.32 8.46485 828.426 7.36541 827.341 6.47294C826.257 5.58047 825.003 4.91311 823.653 4.51036C819.104 3.21752 815.478 5.61167 814.992 5.94345C814.533 4.35691 813.602 2.9447 812.322 1.89096C811.042 0.837216 809.471 0.190852 807.816 0.0361511C806.16 -0.11855 804.496 0.225591 803.04 1.0237C801.584 1.8218 800.405 3.03684 799.655 4.51036C799.131 3.25264 798.235 2.18268 797.085 1.44244C795.934 0.702202 794.585 0.326676 793.214 0.36569C791.844 0.404703 790.518 0.856412 789.412 1.66088C788.307 2.46535 787.474 3.58456 787.024 4.86999C785.036 2.0252 781.429 0.873294 778.363 2.00483C777.067 2.50743 775.94 3.36184 775.111 4.47037C774.281 5.5789 773.782 6.89681 773.672 8.27342C770.861 4.75793 766.142 3.83864 762.845 5.76551C760.445 7.16838 759.032 9.94253 759.056 12.931C758.481 12.9235 755.3 12.931 753.643 15.0806C751.656 17.6568 752.422 22.5823 756.53 25.8281C756.226 25.8536 753.2 26.145 752.199 28.1567C751.109 30.3495 752.631 34.1676 756.711 35.8594C754.619 36.4683 753.495 38.5881 754.004 40.3377C754.564 42.2662 757.031 43.481 759.238 42.487C758.668 43.1509 757.509 44.71 757.794 46.4263C758.222 49.0072 761.806 51.3222 766.545 50.7928C766.596 50.4362 766.648 50.0875 766.696 49.7421C766.859 49.0231 766.966 48.2926 767.015 47.5571C767.07 47.1802 767.125 46.8108 767.179 46.449C767.346 45.6177 767.635 44.858 768.231 44.388C770.054 42.9509 773.67 45.0672 776.062 46.0541C786.486 50.3517 794.733 41.8516 801.513 44.2491C806.127 45.8816 810.679 52.7835 811.083 75.1275C811.673 78.0671 814.749 76.583 815.037 74.0748C815.55 71.1081 814.764 68.0246 815.337 65.0684C816.038 61.216 819.585 59.3503 822.058 60.5426C829.661 65.9894 820.416 89.505 827.844 91.3439C828.815 91.0097 828.967 89.9668 829.2 89.0886C829.428 88.2305 829.684 87.4022 829.959 86.598C831.249 86.9037 833.67 85.7453 834.301 84.0446C834.898 82.438 833.741 80.6446 833.219 79.9247C835.703 80.8837 838.387 79.8173 839.354 77.775C840.1 76.1976 839.745 74.2011 838.452 72.7595C840.329 73.3776 842.307 72.9249 843.323 71.6847C844.721 69.9796 844.297 66.7891 841.759 65.1L841.769 65.0731C843.453 65.4885 845.164 65.0731 846.03 63.9824C847.295 62.393 846.811 59.3133 844.226 57.7127C844.412 57.6849 847.378 57.1983 848.376 54.8469C849.359 52.5292 848.057 49.2775 844.947 47.8611C848.224 47.3969 850.382 44.7762 850.181 42.3077C849.98 39.8392 847.502 38.4774 847.294 38.3684C850.4 37.859 852.743 35.5718 853.068 32.9946C853.49 29.6183 850.432 25.9348 846.028 25.8278Z" fill="#171C22"/>
<path d="M775.48 22.7883C775.426 22.8151 775.329 22.7696 775.206 22.6735C775.035 22.5447 774.853 22.4298 774.663 22.3299C774.374 22.1859 774.064 22.0875 773.744 22.0382C773.314 21.9747 772.878 21.974 772.448 22.0361C772.198 22.0703 771.952 22.1243 771.711 22.1978C771.444 22.2759 771.184 22.3723 770.931 22.4861C770.393 22.7215 769.905 23.0543 769.491 23.4675C769.284 23.6781 769.106 23.9152 768.962 24.1725C768.825 24.4284 768.731 24.7047 768.683 24.9906C768.632 25.2857 768.631 25.5872 768.679 25.8827C768.696 25.9544 768.709 26.0274 768.728 26.0977L768.762 26.2091C768.778 26.2635 768.799 26.3163 768.824 26.367L768.913 26.5127L769.091 26.8054C769.164 26.9073 769.303 27.0299 769.406 27.1416L770.135 27.8867L770.844 28.6134L768.374 28.4653C768.158 28.4487 767.957 28.4477 767.755 28.4456C767.554 28.4436 767.345 28.4355 767.164 28.4487C766.985 28.4534 766.813 28.4697 766.642 28.4827C766.054 28.5166 765.485 28.7027 764.991 29.0226C764.806 29.1628 764.651 29.3376 764.534 29.5371C764.427 29.7342 764.361 29.9501 764.338 30.1725C764.302 30.6366 764.383 31.1022 764.574 31.5275C764.749 31.9157 764.976 32.2792 765.248 32.6084C765.495 32.9181 765.736 33.1796 765.932 33.3997C766.329 33.8391 766.535 34.122 766.462 34.2188C766.389 34.3155 766.057 34.2188 765.512 33.9267C765.176 33.7439 764.857 33.5311 764.56 33.291C764.138 32.957 763.776 32.5557 763.488 32.1034C763.111 31.5081 762.905 30.8214 762.894 30.1181C762.893 29.6922 762.98 29.2706 763.15 28.8796C763.341 28.4635 763.619 28.0923 763.966 27.7906C764.674 27.2304 765.528 26.8833 766.429 26.7905C766.643 26.7646 766.859 26.7388 767.073 26.7273C767.088 26.7242 767.08 26.7225 767.084 26.7208C767.084 26.7194 767.083 26.718 767.082 26.7169C767.082 26.7157 767.08 26.7148 767.079 26.7144V26.7144C767.081 26.7198 767.076 26.7011 767.083 26.7269L767.029 26.5442C766.995 26.4172 766.973 26.2895 766.948 26.1625C766.874 25.6674 766.886 25.1631 766.986 24.6724C767.081 24.1989 767.258 23.7454 767.509 23.3317C767.743 22.9514 768.031 22.6062 768.364 22.3064C768.955 21.7806 769.649 21.3811 770.402 21.1328C770.73 21.0225 771.067 20.9381 771.41 20.8805C771.729 20.8242 772.054 20.7973 772.378 20.8C772.939 20.7994 773.496 20.9003 774.02 21.0975C774.424 21.2499 774.79 21.4883 775.091 21.796C775.282 21.9879 775.424 22.2221 775.505 22.4793C775.545 22.66 775.534 22.7598 775.48 22.7883Z" fill="#A2A2A2"/>
<path d="M834.595 60.1823C834.604 60.1391 834.685 60.1086 834.826 60.0889C834.968 60.0692 835.172 60.0502 835.427 60.0098C836.144 59.9097 836.829 59.6497 837.431 59.2494C837.836 58.9796 838.187 58.637 838.466 58.2391C838.779 57.78 838.986 57.2583 839.072 56.7109C839.175 56.1004 839.127 55.4745 838.933 54.8863C838.841 54.5945 838.702 54.3198 838.52 54.0733C838.426 53.9597 838.322 53.8551 838.209 53.7609C838.151 53.7164 838.092 53.6748 838.031 53.6362L837.948 53.5856C837.898 53.5618 837.844 53.5455 837.789 53.5374L837.618 53.4977L837.532 53.4776C837.496 53.4776 837.502 53.4437 837.391 53.5024L837.057 53.0609L836.946 52.9224C836.925 52.8962 836.918 52.8908 836.904 52.8742L836.867 52.8324C836.85 52.8142 836.832 52.7976 836.812 52.7828C836.804 52.7828 836.793 52.7757 836.798 52.7927C836.799 52.8122 836.796 52.8318 836.789 52.8501L836.787 52.8592V52.864V52.8664C836.958 52.8144 835.286 53.3184 835.994 53.1041L836.091 53.0525L836.285 52.9489L836.676 52.74C836.776 52.7013 836.724 52.6786 836.713 52.6514L836.665 52.5716L836.565 52.411L836.377 52.125L836.688 51.905L836.843 51.7946L836.969 51.6805L837.476 51.2214C837.52 51.1823 837.56 51.147 837.601 51.1028L837.665 51.0268L837.76 50.914C837.827 50.8403 837.888 50.7628 837.946 50.6821C838.067 50.5243 838.179 50.3602 838.283 50.1904C838.388 50.0202 838.483 49.8446 838.569 49.6643L838.693 49.3926L838.796 49.1121C838.862 48.9242 838.915 48.7321 838.956 48.5372C838.998 48.3435 839.027 48.1474 839.045 47.95C839.058 47.7537 839.058 47.5566 839.045 47.3602C839.03 47.0872 838.982 46.817 838.901 46.5557C838.821 46.3028 838.712 46.0597 838.576 45.8313L838.349 45.4982C838.259 45.3963 838.176 45.2907 838.085 45.1925C837.898 45 837.693 44.8251 837.473 44.6699C837.258 44.5198 837.028 44.392 836.787 44.2885C836.556 44.1874 836.314 44.1139 836.066 44.0698C835.948 44.044 835.828 44.0296 835.707 44.0267L835.554 44.0196C835.477 44.0204 835.399 44.0255 835.322 44.0348C835.159 44.0627 834.962 44.1418 834.786 44.1917L834.245 44.3615L833.62 44.5993L832.482 45.0343L832.598 44.8006L832.655 44.6852L832.732 44.5398C832.835 44.3463 832.938 44.1538 833.04 43.9625L833.646 42.8204C833.839 42.454 834.018 42.0781 834.146 41.7718L834.269 41.4763C834.3 41.3904 834.337 41.3065 834.364 41.2196C834.6 40.6008 834.708 39.941 834.68 39.2798C834.65 38.7165 834.476 38.1701 834.174 37.6919C833.929 37.3021 833.567 36.9994 833.138 36.8269C832.769 36.6988 832.374 36.6675 831.989 36.7359C831.693 36.7875 831.411 36.8993 831.16 37.0643C830.997 37.1748 830.848 37.3037 830.715 37.4484C830.625 37.5547 830.553 37.6107 830.51 37.5968C830.467 37.5829 830.453 37.4983 830.476 37.3333C830.53 37.0948 830.642 36.8731 830.803 36.688C831.063 36.3837 831.398 36.151 831.775 36.0122C832.293 35.8174 832.857 35.7745 833.399 35.8886C834.082 36.0543 834.69 36.444 835.122 36.9947C835.611 37.6136 835.923 38.3513 836.026 39.1307C836.132 39.9836 836.054 40.8491 835.796 41.6696C835.767 41.7752 835.732 41.8777 835.699 41.983L835.604 42.2567C835.593 42.2892 835.584 42.3226 835.579 42.3566L835.569 42.4072C835.567 42.4218 835.56 42.4384 835.593 42.4167C835.619 42.403 835.645 42.3917 835.672 42.3827L835.688 42.378C835.688 42.378 835.695 42.378 835.693 42.3752C835.696 42.3752 835.68 42.3752 835.7 42.3752H835.771C835.962 42.3761 836.152 42.393 836.339 42.4258C836.716 42.4821 837.085 42.583 837.438 42.7264C837.792 42.8683 838.131 43.0467 838.448 43.2589C838.769 43.4755 839.068 43.7226 839.34 43.9968C839.475 44.1374 839.601 44.2895 839.731 44.4383C839.846 44.5993 839.964 44.7599 840.073 44.928C840.286 45.2773 840.457 45.6505 840.581 46.0398C840.645 46.2367 840.694 46.4378 840.728 46.6416C840.768 46.8406 840.792 47.0422 840.803 47.2447C840.823 47.5261 840.823 47.8086 840.803 48.09C840.778 48.3655 840.736 48.6393 840.676 48.9094C840.618 49.1744 840.543 49.4353 840.451 49.6905L840.307 50.064L840.139 50.4226C839.91 50.8862 839.632 51.3241 839.309 51.7291C839.234 51.8304 839.153 51.9277 839.067 52.0208C838.996 52.1009 838.859 52.2561 838.896 52.212L838.87 52.2259L838.806 52.2598C838.802 52.2598 838.786 52.2707 838.791 52.2666C838.792 52.2648 838.793 52.2632 838.795 52.2622C838.801 52.2601 838.807 52.2601 838.812 52.2622C838.827 52.2669 838.841 52.2749 838.853 52.2857L838.864 52.2952L838.869 52.2999C838.863 52.2955 838.886 52.3121 838.855 52.2904L838.876 52.305L838.918 52.3346C839.03 52.4116 839.136 52.4947 839.238 52.5835C839.432 52.7589 839.607 52.9536 839.761 53.1645C840.034 53.5629 840.234 54.0053 840.354 54.472C840.574 55.293 840.582 56.1557 840.377 56.9806C840.204 57.7035 839.863 58.3764 839.382 58.9458C838.974 59.4191 838.474 59.8047 837.911 60.079C837.146 60.4682 836.281 60.6207 835.428 60.5168C835.208 60.4914 834.992 60.4342 834.788 60.347C834.65 60.279 834.586 60.2254 834.595 60.1823Z" fill="#A2A2A2"/>
<path d="M839.843 29.753C839.8 29.7387 839.771 29.6756 839.752 29.5767C839.734 29.4779 839.718 29.339 839.68 29.1746C839.639 28.9768 839.573 28.7849 839.484 28.6034C839.369 28.3655 839.217 28.1468 839.034 27.9552C838.816 27.7255 838.559 27.5368 838.273 27.3982C838.12 27.3244 837.958 27.2695 837.791 27.2349C837.607 27.193 837.419 27.1702 837.23 27.167C836.804 27.1629 836.382 27.2333 835.981 27.3748C835.865 27.4128 835.782 27.4464 835.639 27.5059L835.304 27.6584C835.188 27.7161 835.061 27.7942 834.939 27.8621C834.44 28.162 833.885 28.5277 833.388 28.8344C833.409 28.3868 833.429 27.934 833.45 27.476L833.46 27.1279L833.465 26.9523L833.468 26.8644L833.457 26.7965L833.415 26.5224L833.393 26.3842C833.39 26.3638 833.386 26.3326 833.383 26.3207L833.373 26.2915C833.277 25.9709 833.13 25.6677 832.937 25.3933C832.84 25.2518 832.73 25.1193 832.609 24.9973C832.49 24.8725 832.359 24.7598 832.218 24.6607C832.079 24.5604 831.931 24.4733 831.776 24.4006C831.699 24.3633 831.618 24.3381 831.54 24.3038L831.294 24.2332L831.075 24.1907L830.852 24.1663L830.627 24.1602L830.4 24.1717C830.251 24.1868 830.102 24.2113 829.956 24.2451C829.81 24.2803 829.667 24.3257 829.527 24.3809C829.39 24.4332 829.256 24.4963 829.129 24.5697C829.064 24.6029 829.002 24.6406 828.943 24.6825C828.857 24.7342 828.778 24.7964 828.708 24.8676L828.539 25.0214L828.455 25.0981C828.425 25.1321 828.393 25.1783 828.362 25.2173L827.99 25.7084C827.753 26.0378 827.519 26.3642 827.286 26.6875C827.044 26.0979 826.813 25.4904 826.553 24.9216C826.49 24.7803 826.431 24.6312 826.365 24.4998C826.346 24.4593 826.323 24.4206 826.296 24.3843L826.27 24.3432L826.219 24.2638C826.156 24.1559 826.085 24.0528 826.007 23.9551C825.719 23.5695 825.377 23.2272 824.99 22.9387C824.642 22.6723 824.265 22.4454 823.866 22.2622C823.519 22.104 823.157 21.9789 822.785 21.8886L822.536 21.8261L822.296 21.7884C822.15 21.7592 822.002 21.7401 821.853 21.7311C821.573 21.6971 821.333 21.7019 821.13 21.6923C820.927 21.6828 820.771 21.6961 820.656 21.6764C820.54 21.6567 820.472 21.6322 820.457 21.5877C820.442 21.5433 820.481 21.4859 820.575 21.4112C820.712 21.308 820.863 21.2242 821.024 21.1622C821.279 21.0611 821.545 20.9885 821.816 20.9456C821.987 20.9116 822.161 20.8922 822.335 20.8875L822.624 20.8726L822.929 20.8868C823.391 20.9117 823.848 20.9915 824.292 21.1245C824.814 21.282 825.313 21.5062 825.778 21.7915C826.313 22.1134 826.795 22.517 827.204 22.9876C827.792 23.7262 827.615 23.5061 827.677 23.554L827.695 23.5133L827.702 23.4987C827.696 23.5014 827.743 23.4599 827.761 23.443C827.756 23.4396 827.878 23.3523 827.966 23.2891C828.058 23.2212 828.153 23.1586 828.252 23.1017C828.449 22.9814 828.655 22.8769 828.868 22.7892C829.083 22.6985 829.305 22.6237 829.532 22.5654C829.763 22.5074 829.998 22.4654 830.235 22.4398L830.595 22.4143L830.962 22.4218L831.332 22.4602C831.455 22.4799 831.579 22.5064 831.702 22.5308C831.844 22.5648 831.985 22.6099 832.124 22.6534C832.261 22.7081 832.397 22.7573 832.527 22.8201C832.784 22.9425 833.029 23.0897 833.257 23.2596C833.48 23.4225 833.686 23.6069 833.873 23.8101C834.058 24.0054 834.224 24.2171 834.37 24.4424C834.658 24.8786 834.869 25.3597 834.996 25.8656C835.03 26.0066 835.016 25.9957 835.015 26.0161L835.001 26.0792C835.006 26.0911 835.031 26.0813 835.057 26.0813C835.082 26.0787 835.107 26.0739 835.131 26.067C835.247 26.0331 835.421 25.9753 835.565 25.9431C836.147 25.7923 836.752 25.7536 837.349 25.829C837.627 25.8656 837.901 25.933 838.164 26.0297C838.417 26.1196 838.656 26.2418 838.877 26.393C839.257 26.6529 839.579 26.9883 839.822 27.3778C840.017 27.6871 840.149 28.031 840.211 28.3905C840.26 28.6547 840.256 28.9259 840.2 29.1886C840.17 29.3511 840.105 29.5053 840.01 29.6406C839.944 29.7319 839.886 29.7672 839.843 29.753Z" fill="#A2A2A2"/>
<path d="M824.862 50.5435C824.756 50.4732 824.806 50.2141 824.881 49.8012C824.988 49.2443 825.015 48.6754 824.962 48.111C824.889 47.33 824.599 46.5845 824.125 45.9573C823.844 45.6112 823.507 45.3143 823.128 45.0788C822.715 44.8277 822.261 44.6492 821.786 44.551C821.657 44.5233 821.527 44.5028 821.395 44.4899C821.281 44.48 821.165 44.477 821.05 44.4808C820.9 44.4717 820.749 44.4797 820.601 44.5045L820.068 44.5891L819.52 44.6872L818.502 44.8703C818.77 44.3688 819.033 43.8756 819.291 43.3906L819.391 43.2032L819.44 43.1105L819.47 43.031L819.586 42.7172L819.701 42.4089C819.715 42.3775 819.725 42.3442 819.729 42.3101L819.742 42.2421C819.817 41.8922 819.839 41.533 819.808 41.1765C819.783 40.8459 819.721 40.5191 819.623 40.2022C819.535 39.9238 819.42 39.6542 819.281 39.397C819.224 39.2818 819.158 39.1707 819.085 39.0645C819.026 38.9649 818.96 38.8693 818.887 38.7783C818.76 38.5976 818.631 38.458 818.527 38.3314C818.44 38.2343 818.359 38.1323 818.284 38.0257C818.232 37.9415 818.212 37.8736 818.235 37.826C818.257 37.7785 818.319 37.7537 818.423 37.7527C818.57 37.7541 818.716 37.7806 818.854 37.8311C819.073 37.907 819.281 38.0107 819.473 38.1398C819.597 38.217 819.714 38.3049 819.823 38.4027C819.952 38.5067 820.071 38.6217 820.179 38.7463C820.439 39.0306 820.661 39.3467 820.84 39.687C821.047 40.0874 821.198 40.5142 821.288 40.9554C821.396 41.4604 821.418 41.9798 821.354 42.4921L821.335 42.666L821.332 42.6999C821.332 42.7223 821.329 42.7495 821.332 42.7461C821.338 42.7539 821.342 42.7556 821.348 42.7549C821.358 42.7503 821.367 42.7444 821.376 42.7373C821.393 42.7362 821.411 42.7362 821.429 42.7373C821.476 42.7374 821.524 42.7411 821.571 42.7485C821.764 42.7658 821.956 42.7946 822.145 42.8347C822.835 42.9769 823.49 43.2508 824.074 43.6413C824.62 44.0104 825.089 44.4808 825.455 45.0265C825.776 45.5192 826.003 46.0663 826.124 46.6406C826.228 47.1264 826.257 47.6251 826.21 48.1195C826.154 48.8216 825.912 49.4965 825.509 50.0759C825.209 50.4716 824.957 50.6074 824.862 50.5435Z" fill="#A2A2A2"/>
<path d="M802.181 17.5178C802.076 17.5901 801.852 17.4475 801.494 17.2244C801.013 16.919 800.491 16.6822 799.944 16.5211C799.186 16.2978 798.381 16.2877 797.618 16.4919C797.19 16.6216 796.787 16.8216 796.426 17.0838C796.037 17.3713 795.702 17.723 795.434 18.1237C795.359 18.2322 795.292 18.3449 795.231 18.4612C795.179 18.5634 795.133 18.6685 795.094 18.776C795.03 18.9111 794.981 19.053 794.949 19.1988L794.83 19.7218L794.718 20.2651C794.647 20.6047 794.578 20.94 794.51 21.271L793.42 19.9941L793.283 19.8322L793.214 19.7527L793.151 19.6963L792.901 19.4722L792.655 19.2511C792.632 19.2262 792.604 19.2051 792.574 19.1883L792.515 19.1516C792.216 18.9523 791.889 18.7984 791.544 18.6949C791.225 18.5948 790.897 18.5302 790.564 18.5023C790.271 18.4804 789.976 18.4856 789.684 18.5179C789.555 18.5279 789.426 18.5469 789.3 18.575C789.184 18.5926 789.07 18.6181 788.958 18.651C788.742 18.7013 788.563 18.7685 788.406 18.8161C788.283 18.8604 788.158 18.8977 788.03 18.9278C787.932 18.9445 787.862 18.9366 787.825 18.8986C787.788 18.8606 787.789 18.794 787.825 18.6976C787.881 18.5624 787.96 18.4379 788.059 18.3294C788.211 18.156 788.385 18.003 788.578 17.8744C788.696 17.7885 788.822 17.7132 788.954 17.6492C789.099 17.5693 789.251 17.5023 789.408 17.4489C789.77 17.3153 790.148 17.2283 790.533 17.1901C790.984 17.1478 791.44 17.1675 791.886 17.2485C792.398 17.3362 792.892 17.5083 793.347 17.7579L793.502 17.8401L793.534 17.855C793.555 17.8645 793.579 17.8768 793.578 17.8724C793.587 17.8703 793.59 17.8669 793.591 17.8618C793.591 17.8503 793.589 17.8388 793.585 17.8279C793.58 17.837 793.598 17.7966 793.605 17.7793C793.623 17.7356 793.644 17.6933 793.668 17.653C793.756 17.4814 793.855 17.3152 793.963 17.1551C794.352 16.5727 794.851 16.0708 795.434 15.6775C795.982 15.3122 796.596 15.0553 797.242 14.9209C797.822 14.8082 798.418 14.8023 799.001 14.9036C799.494 14.9885 799.971 15.1474 800.415 15.375C801.051 15.6874 801.592 16.1614 801.984 16.7486C802.243 17.1721 802.276 17.456 802.181 17.5178Z" fill="#A2A2A2"/>
<path d="M612.087 139.453C612.087 139.453 617.222 141.725 617.326 141.828C617.372 141.874 617.616 142.607 617.87 143.399C645.405 137.152 671.787 132.276 693.583 131.383C695.058 131.324 696.487 131.875 697.556 132.886C705.4 140.291 716.952 147.994 730.358 155.689L734.381 153.427C734.381 153.427 734.484 156.21 734.04 158.755C733.731 160.519 733.158 162.168 732.104 162.695C731.876 162.81 731.628 162.872 731.355 162.872C704.422 166.145 677.658 172.844 653.499 180.401C650.423 181.365 647.064 180.568 644.75 178.334L612.335 147.058C612.056 146.788 611.911 146.453 611.881 146.115C611.397 144.1 612.087 140.124 612.087 139.453Z" fill="#4D6A6D"/>
<path d="M613.255 138.121C642.524 131.351 670.724 125.946 693.79 125.002C695.265 124.942 696.693 125.493 697.764 126.503C706.034 134.31 718.423 142.448 732.761 150.558C735.447 152.078 734.629 156.118 731.561 156.491C704.628 159.764 677.866 166.463 653.706 174.02C650.629 174.982 647.272 174.187 644.956 171.953L612.541 140.675C611.679 139.843 612.085 138.392 613.255 138.121Z" fill="#354A4C"/>
<path d="M697.154 65.5351C696.823 64.6293 695.933 64.0529 694.961 64.0941C685.736 64.5676 652.414 66.8321 613.837 76.4253C612.907 76.6517 612.245 77.4546 612.162 78.3809C611.624 85.092 609.783 112.101 612.059 137.402C612.141 138.411 612.927 139.234 613.941 139.378C614.127 139.378 614.292 139.399 614.479 139.399C614.582 139.399 614.686 139.378 614.789 139.358C648.815 131.37 686.026 127.253 695.292 126.285C696.492 126.162 697.381 125.091 697.257 123.897C695.044 99.626 696.657 74.3255 697.257 66.4614C697.299 66.1527 697.257 65.8439 697.154 65.5351ZM615.844 131.802C614.479 111.607 615.492 91.3709 616.133 82.0041C616.216 80.8924 617.002 79.966 618.078 79.6984C649.559 72.1433 677.111 69.4876 689.997 68.5818C691.404 68.4789 692.624 69.5494 692.727 70.9493C692.727 71.0521 692.727 71.1757 692.727 71.2787C692.107 81.3659 691.321 100.635 692.727 119.862C692.831 121.221 691.817 122.436 690.452 122.58C677.111 124.062 647.574 127.747 618.946 134.087C617.561 134.396 616.195 133.532 615.885 132.152C615.864 132.049 615.844 131.926 615.844 131.802Z" fill="#4D6A6D"/>
<path d="M658.971 128.55C658.453 128.488 657.916 128.488 657.398 128.529C656.881 128.571 656.364 128.612 655.847 128.694C655.33 128.776 654.834 128.879 654.317 129.003C653.799 129.126 653.303 129.291 652.827 129.497C652.558 129.62 652.455 129.909 652.558 130.176C652.641 130.341 652.786 130.464 652.972 130.485C653.489 130.526 654.027 130.547 654.544 130.506C655.061 130.464 655.578 130.403 656.095 130.341C656.613 130.279 657.109 130.156 657.626 130.032C658.143 129.909 658.64 129.744 659.115 129.517C659.364 129.415 659.467 129.126 659.364 128.859C659.281 128.674 659.136 128.571 658.971 128.55Z" fill="#ECECEC"/>
<path d="M605.17 74.5727C604.653 81.2838 602.853 108.581 605.108 133.882C605.397 137.134 609.348 139.172 613.94 139.399C612.927 139.255 612.161 138.431 612.058 137.423C609.803 112.122 611.644 85.1128 612.161 78.4017C612.244 77.4548 612.906 76.6725 613.837 76.4461C652.413 66.8528 685.735 64.5883 694.961 64.1148C695.933 64.0737 696.801 64.6501 697.153 65.5353C695.891 61.3151 691.217 60.1005 687.949 60.2858C678.723 60.7593 645.401 63.0237 606.845 72.6169C605.914 72.8434 605.232 73.6256 605.17 74.5727Z" fill="#354A4C"/>
<path d="M616.133 82.0042C615.492 91.3504 614.479 111.587 615.844 131.802C615.947 133.202 617.168 134.273 618.574 134.17C618.698 134.17 618.822 134.149 618.946 134.108C647.573 127.768 677.09 124.083 690.452 122.6C691.817 122.456 692.831 121.262 692.727 119.883C691.321 100.655 692.107 81.3867 692.727 71.2994C692.81 69.8995 691.734 68.6849 690.328 68.6025C690.225 68.6025 690.1 68.6025 689.997 68.6025C677.131 69.5084 649.58 72.1639 618.078 79.7191C617.002 79.9868 616.216 80.9133 616.133 82.0042Z" fill="#354A4C"/>
<path d="M611.004 75.8079C610.797 75.4992 610.548 75.2315 610.259 75.0256C609.969 74.8197 609.68 74.6345 609.349 74.4903C609.018 74.3462 608.687 74.2433 608.335 74.1816C607.984 74.1198 607.611 74.1198 607.26 74.1816C606.97 74.2433 606.784 74.511 606.825 74.7991C606.846 74.9226 606.929 75.0461 607.032 75.1285L607.074 75.1491C607.322 75.3344 607.591 75.4785 607.88 75.6227C608.149 75.7668 608.418 75.8903 608.687 75.9932C608.956 76.0961 609.245 76.2196 609.535 76.3226C609.825 76.4255 610.135 76.5079 610.445 76.5696L610.507 76.5902C610.776 76.6314 611.045 76.4461 611.086 76.1785C611.086 76.0344 611.066 75.9109 611.004 75.8079Z" fill="#4D6A6D"/>
<path d="M693.054 130.367C693.492 130.29 693.95 130.242 694.32 130.309C694.869 130.408 695.128 130.742 695.373 130.936C695.867 131.329 696.378 131.719 696.881 132.11C697.177 132.34 697.483 132.597 697.346 132.83C697.198 133.085 696.579 133.22 695.986 133.324C695.951 133.33 695.916 133.336 695.881 133.342C694.842 133.52 693.802 133.698 692.76 133.876C692.331 133.949 691.857 134.024 691.374 133.964C690.705 133.881 690.324 133.584 690.039 133.322C689.49 132.823 688.943 132.322 688.396 131.822C688.237 131.677 688.075 131.516 688.182 131.376C688.292 131.233 688.652 131.158 688.995 131.098C689.01 131.095 689.025 131.093 689.04 131.09C690.007 130.924 690.974 130.757 691.938 130.591C691.946 130.589 691.955 130.588 691.964 130.586C692.107 130.561 692.276 130.525 692.457 130.486C692.644 130.446 692.847 130.403 693.054 130.367Z" fill="#4D6A6D"/>
<path d="M682.814 132.165C683.253 132.088 683.71 132.039 684.08 132.106C684.629 132.206 684.889 132.539 685.134 132.734C685.628 133.126 686.139 133.517 686.641 133.908C686.937 134.138 687.245 134.394 687.108 134.628C686.958 134.883 686.34 135.017 685.748 135.121C685.713 135.127 685.678 135.133 685.643 135.139C684.603 135.318 683.562 135.496 682.52 135.674C682.091 135.747 681.618 135.822 681.136 135.762C680.465 135.679 680.086 135.382 679.799 135.12C679.252 134.62 678.705 134.12 678.158 133.62C677.999 133.475 677.837 133.314 677.943 133.174C678.054 133.03 678.414 132.956 678.757 132.895C678.772 132.893 678.787 132.89 678.802 132.888C679.768 132.721 680.734 132.555 681.7 132.388C681.708 132.387 681.717 132.386 681.725 132.384C681.868 132.359 682.036 132.323 682.219 132.284C682.405 132.244 682.608 132.201 682.814 132.165Z" fill="#4D6A6D"/>
<path d="M672.576 133.961C673.014 133.884 673.472 133.836 673.842 133.903C674.391 134.002 674.649 134.336 674.895 134.53C675.388 134.923 675.9 135.313 676.403 135.704C676.699 135.935 677.005 136.191 676.868 136.424C676.72 136.679 676.101 136.814 675.508 136.918C675.473 136.924 675.438 136.93 675.403 136.936C674.364 137.114 673.324 137.292 672.282 137.47C671.853 137.544 671.379 137.618 670.896 137.559C670.227 137.475 669.846 137.178 669.561 136.917C669.012 136.417 668.465 135.917 667.918 135.416C667.761 135.272 667.597 135.111 667.703 134.971C667.815 134.827 668.174 134.752 668.517 134.692C668.532 134.689 668.547 134.687 668.562 134.684C669.529 134.518 670.495 134.352 671.461 134.185C671.47 134.183 671.478 134.182 671.487 134.18C671.63 134.155 671.798 134.119 671.981 134.08C672.167 134.04 672.37 133.997 672.576 133.961Z" fill="#4D6A6D"/>
<path d="M662.336 135.758C662.774 135.681 663.232 135.633 663.602 135.7C664.151 135.799 664.411 136.132 664.655 136.327C665.15 136.719 665.66 137.11 666.163 137.501C666.459 137.732 666.767 137.988 666.629 138.221C666.48 138.476 665.862 138.61 665.27 138.714C665.234 138.721 665.2 138.727 665.165 138.733C664.124 138.911 663.084 139.089 662.044 139.267C661.615 139.34 661.139 139.415 660.658 139.355C659.987 139.272 659.607 138.975 659.321 138.714C658.774 138.213 658.227 137.713 657.68 137.213C657.521 137.068 657.359 136.907 657.465 136.767C657.576 136.624 657.936 136.549 658.278 136.489C658.293 136.486 658.308 136.483 658.323 136.481C659.29 136.315 660.255 136.149 661.221 135.982C661.23 135.98 661.238 135.979 661.247 135.977C661.39 135.952 661.558 135.916 661.741 135.877C661.927 135.837 662.13 135.794 662.336 135.758Z" fill="#4D6A6D"/>
<path d="M652.098 137.555C652.536 137.478 652.994 137.429 653.364 137.496C653.913 137.595 654.171 137.929 654.417 138.124C654.91 138.516 655.422 138.906 655.925 139.297C656.221 139.528 656.526 139.785 656.389 140.018C656.242 140.273 655.622 140.407 655.029 140.511C654.994 140.517 654.959 140.524 654.925 140.529C653.886 140.708 652.845 140.886 651.804 141.064C651.375 141.137 650.901 141.212 650.418 141.152C649.748 141.069 649.367 140.772 649.082 140.51C648.535 140.01 647.987 139.51 647.439 139.01C647.282 138.865 647.118 138.704 647.225 138.564C647.337 138.42 647.696 138.346 648.04 138.285C648.055 138.283 648.07 138.28 648.085 138.277C649.05 138.111 650.017 137.945 650.983 137.778C650.991 137.777 651 137.775 651.008 137.774C651.151 137.749 651.319 137.713 651.502 137.673C651.689 137.634 651.891 137.591 652.098 137.555Z" fill="#4D6A6D"/>
<path d="M641.858 139.352C642.296 139.275 642.754 139.226 643.123 139.293C643.672 139.392 643.932 139.726 644.177 139.921C644.671 140.313 645.183 140.703 645.685 141.094C645.98 141.325 646.288 141.581 646.151 141.815C646.001 142.07 645.383 142.204 644.791 142.308C644.756 142.314 644.721 142.32 644.686 142.326C643.646 142.504 642.605 142.683 641.565 142.86C641.136 142.934 640.661 143.009 640.179 142.949C639.51 142.866 639.129 142.569 638.842 142.307C638.295 141.807 637.748 141.307 637.201 140.807C637.042 140.662 636.88 140.501 636.986 140.361C637.097 140.217 637.457 140.142 637.8 140.082C637.815 140.08 637.83 140.077 637.845 140.074C638.812 139.908 639.777 139.742 640.743 139.575C640.751 139.574 640.76 139.572 640.768 139.571C640.911 139.546 641.079 139.51 641.262 139.47C641.449 139.43 641.651 139.388 641.858 139.352Z" fill="#4D6A6D"/>
<path d="M631.62 141.149C632.058 141.072 632.516 141.024 632.885 141.091C633.434 141.19 633.693 141.524 633.939 141.718C634.432 142.11 634.944 142.501 635.446 142.892C635.742 143.122 636.048 143.379 635.911 143.612C635.763 143.867 635.145 144.001 634.551 144.105C634.516 144.112 634.481 144.118 634.446 144.124C633.407 144.302 632.367 144.48 631.325 144.658C630.896 144.731 630.423 144.806 629.94 144.746C629.27 144.663 628.889 144.366 628.604 144.104C628.057 143.604 627.508 143.104 626.961 142.604C626.804 142.459 626.64 142.298 626.747 142.158C626.859 142.014 627.218 141.94 627.561 141.879C627.576 141.877 627.591 141.874 627.607 141.872C628.572 141.706 629.539 141.539 630.505 141.372C630.513 141.371 630.522 141.37 630.53 141.368C630.673 141.343 630.841 141.307 631.024 141.268C631.211 141.228 631.413 141.185 631.62 141.149Z" fill="#4D6A6D"/>
<path d="M703.919 138.836C704.358 138.759 704.815 138.71 705.185 138.777C705.734 138.876 705.994 139.21 706.239 139.405C706.733 139.797 707.244 140.187 707.746 140.578C708.042 140.809 708.349 141.066 708.213 141.299C708.063 141.554 707.445 141.688 706.853 141.792C706.818 141.798 706.783 141.804 706.748 141.81C705.707 141.988 704.667 142.167 703.626 142.345C703.197 142.419 702.722 142.493 702.239 142.433C701.57 142.35 701.19 142.052 700.904 141.791C700.357 141.291 699.81 140.791 699.262 140.291C699.104 140.146 698.94 139.985 699.047 139.846C699.159 139.701 699.517 139.626 699.861 139.566C699.876 139.563 699.891 139.561 699.906 139.558C700.872 139.392 701.838 139.226 702.804 139.059C702.813 139.058 702.821 139.056 702.83 139.055C702.973 139.03 703.141 138.994 703.324 138.954C703.51 138.915 703.713 138.872 703.919 138.836Z" fill="#4D6A6D"/>
<path d="M693.68 140.633C694.119 140.556 694.576 140.507 694.945 140.574C695.494 140.674 695.754 141.007 695.998 141.202C696.493 141.594 697.005 141.984 697.506 142.376C697.804 142.606 698.11 142.863 697.973 143.097C697.823 143.351 697.205 143.485 696.613 143.589C696.578 143.595 696.543 143.601 696.508 143.607C695.467 143.786 694.427 143.964 693.388 144.142C692.959 144.216 692.484 144.29 692.001 144.23C691.331 144.147 690.95 143.85 690.664 143.588C690.117 143.088 689.57 142.588 689.023 142.089C688.864 141.943 688.702 141.782 688.809 141.643C688.919 141.498 689.279 141.424 689.621 141.364C689.636 141.361 689.651 141.358 689.667 141.356C690.633 141.189 691.6 141.023 692.564 140.856C692.573 140.855 692.581 140.854 692.59 140.852C692.733 140.827 692.902 140.791 693.084 140.752C693.271 140.712 693.473 140.669 693.68 140.633Z" fill="#4D6A6D"/>
<path d="M683.441 142.429C683.879 142.353 684.337 142.304 684.707 142.371C685.256 142.47 685.516 142.804 685.76 142.998C686.255 143.391 686.765 143.781 687.268 144.172C687.564 144.403 687.87 144.66 687.735 144.893C687.585 145.148 686.967 145.282 686.374 145.386C686.339 145.392 686.304 145.398 686.269 145.404C685.337 145.563 661.846 149.682 656.183 150.672C656.009 150.712 655.823 150.747 655.64 150.779C655.611 150.784 655.581 150.79 655.551 150.795C654.511 150.973 653.472 151.151 652.431 151.329C652.002 151.403 651.527 151.477 651.044 151.417C650.375 151.334 649.994 151.037 649.707 150.776C649.16 150.276 648.613 149.775 648.067 149.276C647.907 149.131 647.745 148.969 647.852 148.83C647.962 148.686 648.322 148.611 648.665 148.551C648.68 148.548 648.695 148.546 648.71 148.543C649.438 148.418 650.164 148.293 650.89 148.168C651.012 148.14 651.143 148.116 651.27 148.094C651.346 148.081 651.592 148.038 651.98 147.97C652.204 147.923 652.458 147.867 652.718 147.821C652.896 147.79 653.078 147.763 653.255 147.747C660.005 146.565 681.497 142.796 682.326 142.653C682.334 142.652 682.343 142.65 682.351 142.649C682.494 142.624 682.662 142.588 682.845 142.548C683.032 142.508 683.234 142.466 683.441 142.429Z" fill="#4D6A6D"/>
<path d="M694.209 148.701C694.548 148.642 694.971 148.657 695.54 148.924C696.382 149.318 697.397 150.195 698.098 150.733C699.508 151.817 700.932 152.9 702.35 153.984C703.185 154.623 704.089 155.328 704.432 155.849C704.807 156.417 704.388 156.564 703.931 156.644C703.903 156.649 703.875 156.654 703.846 156.658C703.117 156.775 684.96 159.951 680.576 160.709C680.464 160.755 680.329 160.786 680.19 160.81C680.165 160.815 680.139 160.819 680.114 160.823C679.302 160.954 678.488 161.085 677.674 161.214C677.339 161.268 676.954 161.312 676.272 161.03C675.322 160.639 674.248 159.815 673.356 159.105C671.653 157.747 669.953 156.389 668.25 155.031C667.755 154.637 667.223 154.204 667.046 153.899C666.867 153.588 667.11 153.51 667.372 153.464C667.387 153.461 667.402 153.459 667.418 153.456C667.984 153.363 668.55 153.27 669.117 153.178C669.181 153.15 669.26 153.132 669.341 153.118C669.359 153.115 669.377 153.112 669.396 153.109C669.454 153.099 669.644 153.066 669.946 153.014C670.101 152.964 670.273 152.902 670.474 152.867C670.611 152.843 670.763 152.831 670.932 152.843C676.153 151.934 692.764 149.027 693.41 148.921C693.415 148.92 693.419 148.92 693.424 148.919C693.535 148.899 693.651 148.859 693.778 148.817C693.907 148.774 694.049 148.729 694.209 148.701Z" fill="#ECECEC"/>
<path d="M642.484 149.617C642.922 149.54 643.38 149.492 643.75 149.559C644.299 149.658 644.559 149.991 644.803 150.186C645.298 150.578 645.808 150.969 646.311 151.36C646.607 151.591 646.914 151.848 646.778 152.081C646.628 152.335 646.01 152.469 645.418 152.573C645.383 152.58 645.348 152.586 645.313 152.592C644.272 152.77 643.232 152.948 642.191 153.127C641.762 153.2 641.287 153.274 640.806 153.214C640.135 153.131 639.755 152.834 639.469 152.572C638.922 152.072 638.375 151.572 637.828 151.073C637.669 150.927 637.507 150.766 637.614 150.627C637.724 150.482 638.084 150.408 638.426 150.348C638.441 150.345 638.456 150.342 638.471 150.34C639.438 150.173 640.403 150.008 641.369 149.841C641.378 149.839 641.386 149.838 641.395 149.836C641.538 149.811 641.706 149.775 641.889 149.736C642.075 149.696 642.278 149.653 642.484 149.617Z" fill="#4D6A6D"/>
<path d="M692.78 135.45C693.218 135.373 693.675 135.325 694.043 135.391C694.59 135.491 694.85 135.825 695.095 136.019C695.59 136.412 696.101 136.802 696.602 137.193C696.9 137.423 697.207 137.68 697.069 137.913C696.919 138.168 696.301 138.303 695.709 138.407C695.674 138.413 695.639 138.419 695.604 138.425C694.564 138.603 693.525 138.781 692.484 138.96C692.055 139.033 691.58 139.107 691.097 139.047C690.428 138.964 690.047 138.667 689.76 138.406C689.213 137.906 688.666 137.405 688.119 136.905C687.96 136.761 687.798 136.599 687.905 136.46C688.015 136.316 688.375 136.241 688.718 136.181C688.733 136.178 688.748 136.176 688.763 136.173C689.729 136.007 690.696 135.841 691.661 135.675C691.669 135.673 691.677 135.672 691.685 135.671C691.828 135.645 691.994 135.609 692.178 135.57C692.366 135.53 692.571 135.486 692.78 135.45Z" fill="#4D6A6D"/>
<path d="M682.541 137.247C682.978 137.17 683.435 137.122 683.803 137.189C684.352 137.288 684.612 137.622 684.856 137.816C685.352 138.209 685.861 138.599 686.364 138.99C686.66 139.221 686.967 139.478 686.83 139.71C686.681 139.965 686.063 140.1 685.47 140.204C685.435 140.21 685.4 140.216 685.366 140.222C684.325 140.4 683.285 140.579 682.244 140.757C681.815 140.83 681.34 140.904 680.857 140.845C680.188 140.762 679.808 140.464 679.522 140.203C678.975 139.703 678.428 139.202 677.881 138.702C677.722 138.558 677.56 138.396 677.665 138.257C677.777 138.113 678.135 138.038 678.479 137.978C678.494 137.975 678.509 137.973 678.524 137.97C679.49 137.804 680.456 137.638 681.423 137.472C681.431 137.47 681.439 137.469 681.446 137.468C681.589 137.442 681.756 137.406 681.94 137.367C682.128 137.327 682.332 137.283 682.541 137.247Z" fill="#4D6A6D"/>
<path d="M672.301 139.044C672.739 138.967 673.196 138.919 673.564 138.985C674.112 139.085 674.372 139.419 674.618 139.613C675.112 140.006 675.623 140.396 676.124 140.787C676.422 141.017 676.728 141.274 676.59 141.507C676.441 141.762 675.823 141.896 675.23 142C675.195 142.007 675.16 142.013 675.126 142.019C674.085 142.197 673.046 142.375 672.006 142.553C671.576 142.627 671.102 142.701 670.619 142.641C669.949 142.558 669.568 142.261 669.281 142C668.734 141.499 668.187 140.999 667.64 140.499C667.482 140.355 667.319 140.193 667.427 140.054C667.536 139.91 667.897 139.835 668.239 139.775C668.254 139.772 668.269 139.77 668.284 139.767C669.251 139.601 670.218 139.434 671.183 139.268C671.191 139.267 671.198 139.266 671.206 139.264C671.349 139.239 671.516 139.203 671.699 139.164C671.888 139.124 672.092 139.08 672.301 139.044Z" fill="#4D6A6D"/>
<path d="M662.063 140.841C662.5 140.764 662.956 140.716 663.324 140.783C663.874 140.882 664.134 141.215 664.378 141.41C664.874 141.803 665.383 142.193 665.886 142.584C666.182 142.815 666.488 143.072 666.352 143.304C666.203 143.559 665.585 143.693 664.992 143.797C664.957 143.804 664.922 143.81 664.887 143.816C663.847 143.994 662.806 144.172 661.766 144.351C661.336 144.424 660.862 144.498 660.38 144.438C659.709 144.355 659.33 144.058 659.043 143.796C658.496 143.296 657.949 142.796 657.402 142.296C657.243 142.151 657.081 141.99 657.189 141.851C657.298 141.706 657.657 141.632 658.001 141.572C658.016 141.569 658.031 141.566 658.046 141.564C659.013 141.397 659.978 141.232 660.945 141.065C660.952 141.064 660.96 141.063 660.968 141.061C661.111 141.036 661.278 141 661.461 140.961C661.649 140.92 661.854 140.877 662.063 140.841Z" fill="#4D6A6D"/>
<path d="M651.823 142.637C652.261 142.561 652.718 142.513 653.086 142.579C653.634 142.679 653.894 143.012 654.14 143.207C654.634 143.6 655.144 143.989 655.646 144.381C655.943 144.611 656.25 144.868 656.112 145.101C655.964 145.356 655.345 145.49 654.752 145.594C654.717 145.6 654.682 145.606 654.647 145.612C653.607 145.791 652.568 145.969 651.527 146.147C651.098 146.221 650.624 146.295 650.14 146.235C649.471 146.152 649.09 145.855 648.803 145.593C648.256 145.093 647.709 144.593 647.162 144.093C647.003 143.948 646.841 143.787 646.949 143.648C647.058 143.503 647.418 143.429 647.761 143.369C647.776 143.366 647.791 143.363 647.806 143.361C648.773 143.194 649.74 143.028 650.705 142.862C650.712 142.861 650.72 142.86 650.728 142.858C650.871 142.833 651.038 142.797 651.221 142.758C651.409 142.717 651.614 142.674 651.823 142.637Z" fill="#4D6A6D"/>
<path d="M641.585 144.434C642.022 144.357 642.478 144.309 642.846 144.376C643.396 144.475 643.655 144.809 643.9 145.003C644.395 145.396 644.905 145.786 645.408 146.177C645.703 146.408 646.012 146.665 645.874 146.897C645.724 147.152 645.106 147.287 644.514 147.391C644.479 147.397 644.444 147.403 644.409 147.409C643.369 147.587 642.328 147.766 641.287 147.944C640.858 148.017 640.384 148.091 639.902 148.031C639.231 147.949 638.852 147.651 638.565 147.39C638.018 146.89 637.471 146.389 636.924 145.889C636.765 145.745 636.603 145.583 636.71 145.444C636.82 145.3 637.18 145.225 637.523 145.165C637.538 145.162 637.553 145.16 637.568 145.157C638.535 144.991 639.5 144.825 640.466 144.659C640.474 144.657 640.482 144.656 640.489 144.655C640.633 144.629 640.799 144.593 640.983 144.554C641.171 144.514 641.376 144.471 641.585 144.434Z" fill="#4D6A6D"/>
<path d="M631.345 146.231C631.782 146.155 632.24 146.107 632.608 146.173C633.155 146.273 633.415 146.606 633.661 146.801C634.155 147.194 634.666 147.583 635.169 147.974C635.465 148.205 635.772 148.462 635.634 148.695C635.486 148.95 634.866 149.084 634.274 149.188C634.239 149.194 634.204 149.2 634.169 149.206C633.13 149.384 632.089 149.563 631.049 149.741C630.62 149.815 630.145 149.889 629.662 149.829C628.993 149.746 628.611 149.449 628.326 149.187C627.778 148.687 627.231 148.187 626.684 147.687C626.525 147.542 626.363 147.381 626.47 147.242C626.58 147.097 626.94 147.023 627.282 146.963C627.297 146.96 627.313 146.957 627.327 146.955C628.294 146.788 629.261 146.622 630.226 146.456C630.234 146.455 630.242 146.454 630.249 146.452C630.393 146.427 630.559 146.391 630.743 146.352C630.931 146.311 631.136 146.268 631.345 146.231Z" fill="#4D6A6D"/>
<path d="M792.344 65.6807C792.522 65.6285 792.704 65.5873 792.888 65.5575C793.239 65.4963 793.687 65.4039 794.262 65.3428C795.642 65.1845 797.029 65.1023 798.419 65.0969C799.807 65.0665 801.196 65.1281 802.575 65.2812C803.151 65.3428 803.631 65.4039 803.95 65.4655C804.27 65.5272 804.462 65.5575 804.462 65.5575C804.609 65.5959 804.735 65.6881 804.812 65.8144C804.89 65.9406 804.913 66.091 804.876 66.2332C804.843 66.3251 804.788 66.4086 804.716 66.4774C804.645 66.5463 804.558 66.5987 804.462 66.6307C804.462 66.6307 804.27 66.661 803.95 66.7226C803.631 66.7842 803.151 66.8453 802.575 66.9069C801.239 67.06 799.892 67.1216 798.546 67.0913C798.451 69.1781 797.939 70.7143 795.605 70.7143C793.079 70.7143 792.695 68.9336 792.663 66.5691L792.376 66.5075C792.316 66.4923 792.261 66.4658 792.212 66.4296C792.164 66.3934 792.123 66.3481 792.093 66.2965C792.064 66.2449 792.045 66.1881 792.038 66.1294C792.032 66.0707 792.038 66.0114 792.056 65.9549C792.077 65.8898 792.114 65.8304 792.164 65.7823C792.214 65.7341 792.276 65.6985 792.344 65.6787V65.6807Z" fill="#171C22"/>
<path d="M770.68 65.6804C770.848 65.6302 771.019 65.589 771.191 65.5572C771.511 65.4961 771.991 65.4037 772.566 65.3426C773.945 65.1842 775.333 65.1021 776.723 65.0966C778.111 65.0663 779.5 65.1279 780.879 65.281C781.456 65.3426 781.903 65.4037 782.254 65.4653C782.574 65.5269 782.766 65.5572 782.766 65.5572C782.862 65.5892 782.949 65.6416 783.02 65.7105C783.092 65.7793 783.147 65.8628 783.18 65.9547C783.217 66.0969 783.194 66.2473 783.116 66.3735C783.039 66.4998 782.913 66.592 782.766 66.6304C782.766 66.6304 782.574 66.6607 782.254 66.7223C781.935 66.784 781.455 66.8451 780.879 66.9067C779.543 67.0598 778.196 67.1214 776.85 67.091C776.755 69.1778 776.243 70.7141 773.909 70.7141C771.383 70.7141 770.999 68.9334 770.967 66.5688L770.68 66.5072C770.62 66.4921 770.565 66.4656 770.516 66.4294C770.468 66.3931 770.427 66.3478 770.397 66.2963C770.368 66.2447 770.349 66.1878 770.342 66.1292C770.336 66.0705 770.342 66.0111 770.36 65.9547C770.382 65.8853 770.424 65.823 770.48 65.7744C770.537 65.7258 770.605 65.6927 770.68 65.6785V65.6804Z" fill="#171C22"/>
<path d="M778.19 90.1684C778.144 90.0331 778.098 89.9435 778.052 89.8045C778.016 89.6962 777.97 89.5911 777.916 89.4901C777.873 89.3761 777.811 89.2697 777.734 89.1749C777.628 88.971 777.505 88.7762 777.365 88.5927L777.183 88.3226C777.138 88.2775 777.093 88.188 777.001 88.1428C776.956 88.0977 776.91 88.0075 776.865 87.9631C776.798 87.8923 776.722 87.8315 776.637 87.7826C776.364 87.5577 776.227 87.423 776.227 87.423C776.067 87.2717 775.974 87.0652 775.965 86.8471C775.957 86.629 776.035 86.4162 776.182 86.2534C776.271 86.1647 776.378 86.095 776.495 86.0485C776.613 86.0021 776.739 85.9799 776.865 85.9833C777.048 85.9884 777.23 86.0034 777.411 86.0284C777.503 86.0284 777.593 86.0736 777.685 86.0736C777.809 86.1113 777.93 86.1562 778.049 86.2082C778.194 86.284 778.346 86.3445 778.504 86.3887C778.648 86.4679 778.785 86.558 778.915 86.658C779.051 86.7483 779.233 86.8829 779.37 86.9732L779.826 87.3779C779.973 87.5338 780.11 87.6991 780.236 87.8728C780.373 88.042 780.495 88.2227 780.6 88.4129C780.833 88.8198 781.002 89.2597 781.101 89.7172C781.153 89.8926 781.184 90.0737 781.192 90.2565C781.556 90.2121 781.966 90.1219 782.467 90.0767C786.398 89.582 790.373 89.5368 794.315 89.9421C794.77 89.9872 795.226 90.0767 795.59 90.1219C795.598 89.983 795.629 89.8464 795.681 89.7172C795.779 89.2601 795.947 88.8205 796.179 88.4136C796.275 88.2168 796.399 88.0349 796.548 87.8735C796.673 87.6998 796.81 87.5345 796.958 87.3786L797.413 86.9739C797.546 86.8443 797.7 86.7377 797.869 86.6588L798.279 86.3895C798.422 86.3102 798.575 86.2495 798.734 86.209L799.145 86.0743C799.23 86.0375 799.324 86.022 799.417 86.0292C799.598 86.0026 799.781 85.9875 799.964 85.984C800.187 85.9694 800.407 86.0411 800.577 86.184C800.747 86.3268 800.854 86.5295 800.875 86.749C800.879 86.874 800.856 86.9983 800.809 87.1143C800.762 87.2303 800.691 87.3357 800.602 87.4237C800.602 87.4237 800.465 87.5584 800.192 87.7833C800.105 87.8292 800.028 87.8903 799.964 87.9638C799.918 88.0082 799.873 88.0984 799.828 88.1436C799.783 88.1887 799.736 88.2782 799.645 88.3234L799.463 88.5934C799.316 88.7704 799.193 88.9662 799.099 89.1757C799.053 89.2659 798.962 89.4006 798.917 89.4908C798.871 89.6255 798.78 89.7157 798.78 89.8053C798.742 89.9292 798.696 90.0508 798.643 90.1692C798.598 90.3038 798.598 90.4392 798.552 90.5287C798.497 90.7802 798.466 91.0364 798.461 91.2937V91.9684L798.506 92.1031V92.2384C798.499 92.3018 798.516 92.3655 798.552 92.4182C798.604 92.5318 798.635 92.6535 798.643 92.7778C798.689 92.9132 798.734 93.0027 798.78 93.1417C798.817 93.2499 798.863 93.3551 798.917 93.4561C798.962 93.5464 799.053 93.681 799.099 93.7713C799.145 93.8616 799.235 93.9511 799.281 94.0413L799.463 94.3114L799.645 94.5363C799.691 94.6258 799.782 94.6709 799.828 94.7612C799.88 94.8166 799.941 94.8622 800.01 94.8958C800.137 94.9946 800.258 95.0998 800.374 95.211L800.465 95.3005C800.528 95.3669 800.576 95.4449 800.607 95.5298C800.638 95.6148 800.652 95.7051 800.647 95.7954C800.643 95.8787 800.622 95.9603 800.585 96.0352C800.548 96.1101 800.496 96.1768 800.432 96.2313C800.368 96.2857 800.294 96.3268 800.213 96.352C800.133 96.3772 800.048 96.3859 799.964 96.3777V96.3777C799.765 96.3699 799.567 96.3398 799.375 96.2882C799.283 96.2882 799.147 96.2431 799.055 96.2431C798.919 96.1979 798.828 96.1528 798.691 96.1084L798.281 95.9279L797.871 95.6586C797.709 95.5687 797.556 95.4632 797.415 95.3435C797.274 95.1975 797.122 95.0622 796.96 94.9388C796.812 94.7829 796.676 94.6175 796.55 94.4438C796.411 94.2748 796.288 94.0941 796.182 93.9038C796.091 93.724 795.954 93.4991 795.863 93.2742C795.81 93.1573 795.764 93.0372 795.726 92.9146C795.68 92.799 795.65 92.6778 795.635 92.5543L795.544 92.2399C795.18 92.285 794.724 92.3746 794.223 92.4197C792.258 92.6443 790.28 92.7345 788.302 92.6897C786.323 92.6819 784.345 92.5604 782.38 92.3258C781.925 92.2814 781.469 92.1911 781.105 92.146V92.1911L781.014 92.5958C780.968 92.7312 780.968 92.8659 780.922 92.9597C780.877 93.0944 780.831 93.1847 780.786 93.3193C780.695 93.5442 780.558 93.724 780.467 93.9489C780.361 94.1388 780.24 94.3195 780.103 94.489C779.966 94.6687 779.829 94.8034 779.692 94.9839C779.551 95.1298 779.399 95.2651 779.237 95.3886C779.104 95.5184 778.95 95.6247 778.781 95.703L778.372 95.973L777.962 96.1528C777.825 96.1979 777.734 96.2431 777.597 96.2882C777.495 96.3252 777.387 96.3406 777.279 96.3333C777.086 96.3846 776.888 96.4146 776.689 96.4228C776.604 96.4346 776.518 96.4283 776.436 96.4045C776.354 96.3806 776.278 96.3398 776.214 96.2847C776.149 96.2295 776.097 96.1614 776.061 96.0848C776.025 96.0082 776.006 95.9249 776.006 95.8406C776.001 95.7502 776.015 95.6598 776.046 95.5748C776.078 95.4898 776.126 95.4118 776.188 95.3456L776.279 95.2554C776.279 95.2554 776.416 95.1207 776.648 94.941C776.693 94.8958 776.784 94.8507 776.83 94.8056C776.875 94.716 776.966 94.6709 777.012 94.5807L777.194 94.3558L777.376 94.0865C777.452 94.0075 777.514 93.9161 777.559 93.8164C777.601 93.7022 777.663 93.5957 777.741 93.5013C777.805 93.4055 777.851 93.299 777.877 93.1868C777.923 93.0515 777.968 92.9619 778.014 92.8229C778.06 92.6839 778.059 92.598 778.105 92.4634C778.105 92.4182 778.15 92.3731 778.15 92.2836V92.1475L778.196 92.0128V91.3381C778.188 91.081 778.158 90.825 778.105 90.5731C778.176 90.4505 778.205 90.3088 778.19 90.1684V90.1684Z" fill="#171C22"/>
</svg>
