<svg width="266" height="250" viewBox="0 0 266 250" fill="none" xmlns="http://www.w3.org/2000/svg">
<path d="M14.2516 221.102C16.2047 222.2 18.0796 223.612 19.642 225.259C23.4699 229.337 25.501 234.592 25.3448 239.455C25.3448 240.396 25.1885 241.337 25.0323 242.199C26.5947 242.435 28.2352 242.592 29.8758 242.592C34.4849 245.572 39.4846 247.768 44.7187 249.336C47.8435 250.278 51.2808 250.199 54.2494 249.023C59.9522 245.18 66.9831 228.553 46.9061 204.789C26.8291 180.947 9.33004 180.947 5.11153 184.555C1.5961 187.535 -0.2788 191.927 0.0336823 196.476C0.346165 200.79 1.43985 206.593 4.79904 213.573C4.48656 215.299 4.40844 217.103 4.40844 218.828C5.50213 218.75 6.5177 218.75 7.61139 218.906C8.86132 219.063 9.95501 219.377 11.2831 219.769C11.1268 221.259 11.1268 222.828 11.0487 224.318C10.9706 225.573 11.0487 226.828 11.1268 228.161C11.1268 228.161 11.4393 227.22 12.0643 225.73C12.6111 224.475 13.2361 222.828 14.1735 221.024" fill="#171C22"/>
<path d="M19.642 225.259C18.0796 223.612 16.2828 222.2 14.2517 221.102C13.4705 220.71 12.2987 220.161 11.2831 219.769C10.1113 219.377 8.86136 219.063 7.61143 218.906C6.51774 218.75 5.50217 218.75 4.40848 218.828C4.56472 224.396 6.20525 229.965 10.0332 234.357C13.8611 238.749 19.642 241.337 25.1886 242.199C25.3448 241.258 25.5792 240.396 25.5792 239.455C25.8917 234.592 23.4699 229.337 19.642 225.259Z" fill="#E24444"/>
<path d="M171.04 99.7747C136.432 58.757 106.59 58.1296 99.3251 64.3254C93.3098 69.4232 90.1068 77.266 90.5756 85.1088C90.7318 87.0694 90.9662 89.4223 91.2786 91.6967L99.5594 84.5598C102.059 82.4422 105.34 81.4227 108.543 81.8148C117.293 82.7559 134.87 87.8537 154.4 110.99C174.243 134.518 176.04 153.498 175.415 162.438C175.18 165.654 173.462 168.477 170.962 170.595L165.025 175.614C165.728 175.85 166.665 176.163 167.29 176.399C172.68 177.889 178.305 177.575 183.461 175.536C193.382 168.791 205.569 140.871 171.04 99.7747Z" fill="#171C22"/>
<path d="M110.496 221.416C113.543 219.299 116.98 214.279 118.074 206.436C119.324 197.104 117.137 181.653 99.8719 161.184C78.2325 135.459 60.1866 130.754 53.4682 130.205C48.8591 129.813 45.4999 130.44 43.4688 132.244C43.3907 132.322 42.5313 133.028 42.2189 133.342C37.4535 137.42 34.8755 143.537 35.3442 149.812C35.5005 152.478 36.0473 155.537 36.5942 158.125L44.0156 151.537C47.9998 148.165 53.2339 147.067 58.2336 148.478C65.1863 150.439 75.1858 155.38 86.2789 168.477C97.6845 181.889 101.044 193.261 101.591 200.633C101.981 205.652 99.95 210.515 96.1221 213.809L89.1694 219.926C91.6693 220.946 94.1691 221.808 96.7471 222.514C100.966 223.691 105.34 223.534 109.403 221.887C109.325 221.965 110.184 221.573 110.496 221.416Z" fill="#171C22"/>
<path d="M46.9842 204.789C26.9072 180.947 9.40814 180.947 5.18962 184.555C1.67419 187.535 -0.200706 191.927 0.111777 196.476C0.42426 200.79 1.51795 206.593 4.87714 213.573C4.56466 215.299 4.48653 217.103 4.48653 218.828C5.58022 218.75 6.59579 218.75 7.68948 218.906C8.93941 219.063 10.1893 219.299 11.3612 219.769C11.6736 216.24 12.2986 212.711 13.1579 209.338C10.5799 209.181 7.92385 209.495 5.5021 210.515C6.75203 205.731 9.17378 201.417 12.2986 198.751C17.5327 194.123 29.407 198.986 38.7815 209.73C48.156 220.397 51.5152 232.788 46.2811 237.494C43 240.474 37.9222 242.356 32.4537 242.67V242.513C37.2191 235.847 35.9692 225.494 29.2508 217.808L22.5324 220.397L24.9542 213.809C23.6261 212.868 22.2199 212.083 20.8138 211.299C18.2358 213.887 15.9703 217.73 14.3297 221.102C16.2828 222.2 18.1577 223.612 19.7201 225.259C23.548 229.337 25.5791 234.592 25.4229 239.455C25.4229 240.396 25.2666 241.337 25.1104 242.199C26.6728 242.435 28.3133 242.592 29.9539 242.592C34.563 245.572 39.5627 247.768 44.7968 249.336C47.9216 250.278 51.3589 250.199 54.3275 249.023C59.9522 245.18 67.0612 228.553 46.9842 204.789Z" fill="#171C22"/>
<path d="M175.493 162.438C176.118 153.576 174.399 134.44 154.635 110.911C135.104 87.7753 117.293 82.6775 108.543 81.7364C105.262 81.3442 101.981 82.3638 99.4813 84.4813L91.3568 91.4614L43.5469 132.244C45.8124 130.989 49.3279 130.44 53.2339 130.754C59.9523 131.303 77.92 135.381 99.6376 161.184C116.98 181.732 119.09 197.26 117.84 206.672C116.824 214.122 113.543 219.063 110.496 221.416C112.215 220.632 113.777 219.691 115.262 218.436L165.415 175.614L171.352 170.595C173.696 168.634 175.258 165.654 175.493 162.438Z" fill="#4D6A6D"/>
<path d="M239.708 36.6405C215.256 7.70063 193.07 1.34798 182.055 0.0931392C177.914 -0.377427 173.774 0.955844 170.571 3.62239L99.2469 64.4039C106.512 58.2081 136.12 58.6786 170.727 99.6963C205.335 140.714 193.46 168.713 183.539 175.458C186.039 174.438 188.304 173.105 190.336 171.379L260.488 111.617C263.613 108.872 265.644 105.029 265.878 100.951C266.66 89.5792 264.316 65.894 239.708 36.6405Z" fill="#4D6A6D"/>
<path d="M101.747 200.79C101.122 193.339 97.9189 181.967 86.6695 168.477C75.6545 155.458 65.4207 150.282 58.3898 148.322C53.3901 146.91 47.9998 148.165 44.0937 151.537L36.6723 157.89L5.26776 184.634C9.48628 181.026 26.6728 181.34 46.7498 205.103C66.8269 228.945 59.9522 245.101 54.2494 249.023C55.6556 248.395 56.9837 247.611 58.1555 246.67L89.4037 220.083L96.3565 214.122C100.106 210.672 102.137 205.809 101.747 200.79Z" fill="#4D6A6D"/>
<path d="M11.2049 228.161C11.2049 228.161 11.5174 227.22 12.1424 225.73C12.6892 224.475 13.3142 222.828 14.2517 221.024C15.8922 217.73 18.0796 213.809 20.7357 211.221C22.1418 211.848 23.548 212.711 24.8761 213.73L22.4543 220.318L29.1727 217.73C35.8911 225.494 37.141 235.768 32.3757 242.435V242.592C37.8441 242.199 42.9219 240.317 46.203 237.415C51.359 232.788 48.0779 220.397 38.7034 209.73C29.3289 199.064 17.5327 194.202 12.2986 198.751C9.17381 201.495 6.75207 205.731 5.50214 210.515C7.92388 209.495 10.58 209.103 13.158 209.338C12.2205 212.789 11.6737 216.318 11.3612 219.769C11.2049 221.259 11.2049 222.828 11.1268 224.318C11.0487 225.573 11.1268 226.828 11.2049 228.161Z" fill="#ECECEC"/>
<path d="M235.489 111.147L235.099 111.304C234.864 111.461 234.552 111.539 234.318 111.617L234.161 111.696C233.849 111.853 233.536 111.931 233.224 112.01L232.833 112.166L232.208 112.323L231.74 112.48L231.115 112.637L230.646 112.794L230.021 112.951L229.63 113.029C229.24 113.108 229.005 113.108 228.615 113.186H228.302L227.521 113.264H226.974H226.584C225.959 113.264 225.412 113.264 224.865 113.186H223.849C223.537 113.186 223.224 113.108 222.912 113.029C222.287 112.872 221.662 112.872 221.037 112.715C216.115 111.539 211.584 108.872 208.303 104.951C206.663 102.99 205.335 100.873 204.397 98.52C203.46 96.1671 202.913 93.6574 202.757 91.1478C202.522 87.6969 203.147 84.2461 204.397 81.0306C204.397 80.9522 204.475 80.8737 204.475 80.8737C204.554 80.6384 204.632 80.4816 204.788 80.2463C204.866 80.0895 204.944 80.011 204.944 79.8542C204.944 79.6973 205.1 79.462 205.179 79.3052L205.413 78.913C205.491 78.7562 205.569 78.5993 205.647 78.4425C205.725 78.2856 205.804 78.0503 205.96 77.8935C206.116 77.7366 206.116 77.6582 206.194 77.5013C210.413 70.5213 217.99 66.2862 226.115 66.2862C226.506 66.2862 226.896 66.2862 227.287 66.2862C211.819 65.345 199.944 77.2661 196.585 84.1677C195.648 86.1284 194.945 88.2459 194.476 90.4419L198.304 87.1479C198.148 88.5596 197.991 89.8929 198.07 91.2262V92.4026C198.07 92.7947 198.148 93.1869 198.226 93.579V93.6574L195.023 96.4024C194.71 96.6377 194.398 96.7946 194.007 96.873C194.164 98.8337 194.554 100.716 195.179 102.598L199.476 98.9905C199.632 99.3827 199.788 99.8532 199.866 100.245C200.257 101.422 200.804 102.52 201.429 103.539L197.21 107.069C198.148 108.559 199.163 110.049 200.413 111.304L204.475 107.931L204.632 108.088C205.179 108.637 205.725 109.186 206.194 109.735L207.913 111.225L207.991 111.304L204.163 114.519C205.725 115.617 207.366 116.48 209.163 117.107L212.522 114.206L212.678 114.362C213.069 114.519 213.381 114.676 213.694 114.833L214.709 115.225L215.256 115.46L215.803 115.617C216.428 115.774 216.975 116.009 217.678 116.166L214.944 118.441C215.725 118.519 216.428 118.597 217.209 118.597C218.147 118.597 219.162 118.519 220.021 118.441H220.1C224.709 118.127 229.318 116.794 233.458 114.676C234.083 114.362 234.63 114.049 235.177 113.735C241.505 110.049 246.739 104.402 248.223 97.1867C246.192 103.382 241.583 108.48 235.489 111.147Z" fill="#171C22"/>
<path d="M215.881 115.46L215.334 115.303L214.787 115.068L213.772 114.676C213.381 114.519 213.069 114.362 212.756 114.205L212.6 114.049L209.241 116.95C211.116 117.656 213.069 118.127 215.1 118.284L217.834 116.009C217.053 115.852 216.506 115.696 215.881 115.46Z" fill="#62C370"/>
<path d="M207.913 111.147L206.194 109.657C205.647 109.108 205.1 108.559 204.632 108.01L204.476 107.853L200.413 111.225C201.585 112.402 202.757 113.5 204.163 114.362L207.913 111.147Z" fill="#62C370"/>
<path d="M199.866 100.088C199.71 99.6963 199.554 99.2258 199.476 98.8336L195.179 102.441C195.726 104.01 196.351 105.578 197.288 106.99L201.507 103.461C200.882 102.441 200.335 101.265 199.866 100.088Z" fill="#62C370"/>
<path d="M198.304 93.4221C198.304 93.03 198.148 92.5594 198.148 92.2457V91.0693C198.07 89.6576 198.226 88.3243 198.382 86.9911L194.554 90.285C194.164 91.8536 193.929 93.4221 193.929 94.9907C193.929 95.6181 193.929 96.1671 194.007 96.7161C194.398 96.6377 194.71 96.4808 195.023 96.2455L198.304 93.4221Z" fill="#62C370"/>
<path d="M227.365 66.1293C226.974 66.1293 226.584 66.1293 226.193 66.1293C218.068 66.1293 210.491 70.3644 206.272 77.3444C206.194 77.5013 206.116 77.5797 206.038 77.7366C205.96 77.8934 205.882 78.1287 205.725 78.2856C205.569 78.4424 205.569 78.5993 205.491 78.7561L205.257 79.1483C205.1 79.3051 205.1 79.5404 205.022 79.6973C204.944 79.8541 204.866 79.9325 204.866 80.0894C204.71 80.2463 204.71 80.4815 204.554 80.7168C204.554 80.7953 204.475 80.8737 204.475 80.8737C203.147 84.0892 202.601 87.54 202.835 90.9909C202.991 93.5005 203.46 96.0102 204.475 98.3631C205.413 100.716 206.741 102.912 208.382 104.794C211.663 108.637 216.115 111.382 221.115 112.558C221.74 112.715 222.365 112.794 222.99 112.872C223.303 112.951 223.615 113.029 223.928 113.029L224.865 113.107C225.49 113.186 226.037 113.186 226.584 113.186H226.974H227.443L228.224 113.107H228.537C228.927 113.029 229.162 113.029 229.552 112.951L229.943 112.872L230.568 112.715L231.036 112.558L231.661 112.402L232.13 112.245L232.755 112.088L233.146 111.931C233.458 111.774 233.771 111.696 234.083 111.617L234.239 111.539C234.474 111.382 234.786 111.382 235.021 111.225L235.411 111.068C247.207 105.892 252.598 92.0888 247.442 80.1678C244.083 72.0898 236.271 66.5998 227.365 66.1293ZM227.365 94.3632C224.084 94.3632 221.35 91.6967 221.35 88.4027C221.35 85.1088 224.006 82.3638 227.287 82.3638C230.568 82.3638 233.302 85.0303 233.302 88.3243C233.302 91.6183 230.724 94.3632 227.365 94.3632Z" fill="#62C370"/>
<path d="M186.586 68.9526C191.591 68.9526 195.648 64.8795 195.648 59.855C195.648 54.8306 191.591 50.7574 186.586 50.7574C181.581 50.7574 177.524 54.8306 177.524 59.855C177.524 64.8795 181.581 68.9526 186.586 68.9526Z" fill="#62C370"/>
<path d="M227.365 94.3633C230.644 94.3633 233.302 91.6947 233.302 88.4028C233.302 85.1109 230.644 82.4423 227.365 82.4423C224.086 82.4423 221.428 85.1109 221.428 88.4028C221.428 91.6947 224.086 94.3633 227.365 94.3633Z" fill="#171C22"/>
<path d="M52.5308 157.262C52.3745 157.262 52.1402 157.262 51.9839 157.184C51.4371 157.027 50.8902 156.949 50.3434 156.87C49.0153 156.713 48.0779 155.458 48.2341 154.125C48.3904 152.792 49.6403 151.851 50.9684 152.008C51.0465 152.008 51.1246 152.008 51.1246 152.008C51.7496 152.164 52.3745 152.243 53.0776 152.4C54.4057 152.713 55.1869 153.968 54.8744 155.302C54.64 156.478 53.6245 157.262 52.5308 157.262Z" fill="#171C22"/>
<path d="M92.5286 196.476C91.513 196.476 90.5756 195.849 90.2631 194.829C89.8725 193.653 89.4038 192.555 88.8569 191.378C88.3101 190.202 88.8569 188.712 90.0287 188.163C91.2006 187.614 92.6849 188.163 93.2317 189.339C93.8567 190.672 94.3254 191.927 94.716 193.182C95.1066 194.437 94.4816 195.849 93.2317 196.241C92.9973 196.476 92.763 196.476 92.5286 196.476ZM85.8102 183.692C85.029 183.692 84.3259 183.3 83.8572 182.673C83.1541 181.653 82.3729 180.634 81.5917 179.614C80.8105 178.516 81.0449 177.026 82.1386 176.242C83.1541 175.536 84.5603 175.693 85.4196 176.634C86.279 177.732 87.1383 178.83 87.8414 179.928C88.6226 181.026 88.3101 182.516 87.2164 183.3C86.7477 183.536 86.279 183.692 85.8102 183.692ZM76.592 172.634C75.967 172.634 75.3421 172.399 74.8733 171.928C73.9359 170.987 73.0766 170.124 72.1391 169.262C71.2017 168.321 71.1235 166.83 71.9829 165.811C72.9203 164.87 74.4046 164.791 75.4202 165.654C76.3576 166.595 77.3732 167.536 78.3106 168.477C79.2481 169.419 79.2481 170.987 78.2325 171.928C77.8419 172.32 77.217 172.634 76.592 172.634ZM65.577 163.301C65.1083 163.301 64.6395 163.144 64.2489 162.909C63.1552 162.203 62.1397 161.497 61.046 160.948C59.8742 160.321 59.4836 158.831 60.1085 157.654C60.7335 156.478 62.2178 156.086 63.3896 156.713C64.5614 157.341 65.7332 158.125 66.905 158.909C67.9987 159.615 68.3112 161.184 67.53 162.282C67.1394 162.831 66.4363 163.301 65.577 163.301Z" fill="#171C22"/>
<path d="M94.091 208.632H93.8566C92.5285 208.476 91.5911 207.299 91.6692 205.966C91.7473 205.417 91.7473 204.868 91.7473 204.319C91.7473 202.986 92.841 201.966 94.1691 201.966H94.2472C95.5752 201.966 96.6689 203.143 96.5908 204.476C96.5908 205.103 96.5127 205.809 96.4346 206.436C96.4346 207.691 95.419 208.632 94.091 208.632Z" fill="#171C22"/>
<path d="M106.122 92.0889C105.965 92.0889 105.731 92.0889 105.653 92.0105C105.106 91.8536 104.481 91.7752 103.934 91.6968C102.606 91.5399 101.669 90.2851 101.825 88.9518C101.981 87.6185 103.231 86.6774 104.559 86.8342C104.637 86.8342 104.715 86.8342 104.715 86.8342C105.34 86.9911 105.965 87.0695 106.59 87.2264C107.918 87.4617 108.778 88.7949 108.465 90.0498C108.309 91.3046 107.293 92.0889 106.122 92.0889Z" fill="#171C22"/>
<path d="M167.29 156.164C166.118 156.164 165.181 155.38 164.946 154.204C164.712 153.106 164.478 151.929 164.165 150.91C163.775 149.655 164.556 148.322 165.884 147.929C167.134 147.537 168.462 148.322 168.852 149.655C169.243 150.831 169.477 152.164 169.79 153.341C170.024 154.674 169.165 155.929 167.915 156.164C167.603 156.086 167.368 156.164 167.29 156.164ZM163.15 143.616C162.212 143.616 161.353 143.067 160.962 142.204C160.494 141.185 160.025 140.165 159.478 139.067C158.853 137.891 159.322 136.401 160.494 135.773C161.665 135.146 163.15 135.616 163.775 136.793C164.4 137.891 164.946 139.067 165.415 140.087C165.962 141.263 165.493 142.753 164.243 143.302C163.775 143.616 163.462 143.616 163.15 143.616ZM156.588 132.165C155.806 132.165 155.025 131.773 154.635 131.067C154.01 130.126 153.306 129.107 152.681 128.166C151.822 127.146 152.057 125.578 153.072 124.793C154.088 123.931 155.65 124.166 156.431 125.185C156.509 125.264 156.509 125.342 156.588 125.342C157.291 126.362 158.072 127.303 158.697 128.401C159.4 129.499 159.166 130.989 158.072 131.773C157.603 132.009 157.134 132.244 156.588 132.165ZM148.619 121.656C147.916 121.656 147.291 121.342 146.822 120.793C146.041 119.852 145.26 118.99 144.479 118.127C143.541 117.186 143.541 115.617 144.557 114.676C145.494 113.735 147.057 113.735 147.994 114.754C148.072 114.833 148.072 114.833 148.151 114.911C148.932 115.852 149.791 116.715 150.572 117.656C151.432 118.676 151.275 120.166 150.338 121.029C149.791 121.499 149.244 121.735 148.619 121.656ZM139.557 112.166C138.932 112.166 138.385 111.931 137.839 111.539C136.979 110.676 136.12 109.892 135.261 109.108C134.323 108.167 134.167 106.676 135.104 105.735C136.042 104.794 137.526 104.637 138.464 105.578C139.401 106.363 140.26 107.225 141.198 108.088C142.135 109.029 142.135 110.598 141.276 111.539C140.807 111.853 140.26 112.088 139.557 112.166ZM129.558 103.539C129.011 103.539 128.542 103.382 128.152 103.069C127.214 102.363 126.277 101.657 125.339 101.03C124.167 100.324 123.933 98.8336 124.558 97.7357C125.261 96.5592 126.745 96.2455 127.839 96.9514C127.917 97.0298 127.995 97.0298 127.995 97.1082C128.933 97.7357 129.948 98.5199 131.042 99.2258C132.136 100.01 132.292 101.5 131.511 102.598C131.12 103.226 130.339 103.539 129.558 103.539ZM118.543 96.6377C118.152 96.6377 117.84 96.5592 117.449 96.4024C116.434 95.8534 115.34 95.3828 114.324 94.9123C113.074 94.4417 112.449 93.03 112.918 91.7752C113.387 90.5203 114.793 89.8929 116.043 90.3634C116.121 90.3634 116.199 90.4419 116.199 90.4419C117.371 90.9124 118.465 91.4614 119.558 92.0104C120.73 92.6379 121.277 94.0496 120.652 95.3044C120.261 96.0887 119.402 96.6377 118.543 96.6377Z" fill="#171C22"/>
<path d="M167.915 167.536H167.681C166.353 167.379 165.415 166.203 165.493 164.87C165.571 164.321 165.65 163.693 165.65 163.144C165.728 161.811 166.821 160.792 168.149 160.87C169.477 160.948 170.493 162.046 170.415 163.38C170.415 164.007 170.337 164.635 170.259 165.34C170.259 166.517 169.243 167.536 167.915 167.536Z" fill="#171C22"/>
</svg>
