<svg width="591" height="500" viewBox="0 0 591 500" fill="none" xmlns="http://www.w3.org/2000/svg">
<path d="M388.842 464.446C394.024 444.811 342.206 414.166 273.103 396C204 377.834 143.781 379.025 138.599 398.661C133.417 418.296 185.235 448.94 254.338 467.107C323.441 485.273 383.661 484.082 388.842 464.446Z" fill="#171C22"/>
<path d="M589.804 171.736C589.463 158.978 580.306 147.59 567.818 144.082C397.672 96.309 225.507 48.5932 51.3166 1.07478C47.684 0.0854337 44.1801 -0.192318 40.9108 0.124457C40.9062 0.124457 40.9016 0.124457 40.8981 0.124457C27.4771 0.124457 15.029 14.5205 7.99019 20.8915L6.40442 34.2236L22.1207 49.1441L22.7681 49.1705C31.9677 136.21 32.7186 223.852 25.0117 310.871C23.8928 323.583 31.3433 334.921 43.3395 338.413C198.5 383.552 351.826 428.526 503.367 473.222C502.338 477.81 501.55 481.519 501.55 481.519L526.238 494.944C536.585 490.117 553.135 479.692 561.797 467.946C563.249 466.042 564.496 463.984 565.493 461.799C565.512 461.76 565.533 461.722 565.55 461.683C565.554 461.673 565.558 461.662 565.562 461.652C566.526 459.51 567.255 457.251 567.691 454.896C584.994 361.426 592.38 266.517 589.804 171.736Z" fill="#E24444"/>
<path d="M507.831 495.909C348.334 448.839 186.827 401.447 23.3087 353.877C11.3114 350.385 3.86202 339.047 4.98092 326.334C13.3456 231.886 11.7736 136.704 0.217851 42.3556C-2.00269 24.2731 13.0616 11.5746 31.2847 16.5397C205.475 64.0569 377.641 111.774 547.787 159.546C560.275 163.053 569.432 174.441 569.774 187.199C572.351 281.98 564.963 376.89 547.663 470.359C544.341 488.274 524.477 500.823 507.831 495.909Z" fill="#171C22"/>
<path d="M515.234 474.026C514.905 474.015 514.609 473.972 514.353 473.897C341.777 422.968 183.261 376.501 29.7438 331.84C27.8429 331.287 27.8153 329.211 27.8912 328.343C36.3905 232.379 34.761 135.217 23.0465 39.5711C22.9833 39.0592 22.9925 38.6816 23.0201 38.4359C23.1558 38.4187 23.3374 38.4073 23.5743 38.4141C24.0665 38.4291 24.6219 38.5209 25.2279 38.685C192.548 84.328 366.269 132.427 541.557 181.644C544.415 182.447 546.71 185.157 546.782 187.814C549.313 280.938 542 374.594 525.045 466.19C524.253 470.467 518.898 474.137 515.234 474.026Z" fill="#ECECEC"/>
<path d="M363.706 454.877C364.338 452.793 320.833 437.795 266.535 421.379C212.236 404.962 167.706 393.343 167.073 395.426C166.441 397.51 209.946 412.508 264.245 428.924C318.543 445.341 363.073 456.96 363.706 454.877Z" fill="#E24444"/>
<path d="M199.336 223.43C153.783 209.362 107.562 195.217 60.675 181.039C62.7909 147.705 61.2247 114.198 55.9763 81.124C105.995 95.1918 155.348 109.338 204.035 123.516C206.151 156.849 204.585 190.357 199.336 223.43Z" fill="#E24444"/>
<path d="M509.844 367.95C441.195 345.296 371.407 322.507 300.479 299.669C305.059 250.482 304.35 201.067 298.355 152.275C372.447 174.929 445.398 197.719 517.21 220.556C520.042 269.742 517.587 319.158 509.844 367.95Z" fill="#171C22"/>
<path d="M493.722 412.995C446.628 397.761 398.753 382.434 350.096 367.074C353.612 334.905 353.702 302.594 350.363 270.688C400.382 284.755 449.734 298.901 498.422 313.079C500.537 346.414 498.97 379.921 493.722 412.995Z" fill="#62C370"/>
<path d="M189.487 253.725C189.017 253.725 188.538 253.652 188.068 253.5C146.019 239.892 108.117 228.153 72.195 217.611C69.7571 216.896 68.3622 214.345 69.0787 211.912C69.7962 209.478 72.3572 208.086 74.7893 208.802C110.794 219.367 148.774 231.13 190.905 244.764C193.322 245.547 194.646 248.136 193.861 250.548C193.231 252.49 191.427 253.725 189.487 253.725Z" fill="#171C22"/>
<path d="M189.487 287.53C189.017 287.53 188.538 287.458 188.068 287.305C146.023 273.698 108.12 261.959 72.195 251.416C69.7571 250.701 68.3622 248.15 69.0787 245.717C69.7962 243.284 72.3572 241.893 74.7893 242.608C110.797 253.175 148.779 264.938 190.905 278.569C193.322 279.352 194.646 281.941 193.861 284.353C193.231 286.295 191.427 287.53 189.487 287.53Z" fill="#171C22"/>
<path d="M189.487 321.338C189.017 321.338 188.538 321.266 188.068 321.113C146.015 307.504 108.112 295.765 72.195 285.224C69.7571 284.509 68.3622 281.958 69.0787 279.525C69.7962 277.092 72.3572 275.699 74.7893 276.416C110.788 286.979 148.77 298.744 190.905 312.378C193.322 313.16 194.646 315.75 193.861 318.161C193.231 320.103 191.427 321.338 189.487 321.338Z" fill="#171C22"/>
<path d="M189.487 355.147C189.017 355.147 188.538 355.075 188.068 354.922C146.019 341.315 108.117 329.576 72.195 319.034C69.7571 318.319 68.3622 315.767 69.0787 313.334C69.7962 310.901 72.3572 309.51 74.7893 310.225C110.794 320.79 148.774 332.553 190.905 346.187C193.322 346.969 194.646 349.559 193.861 351.97C193.231 353.912 191.427 355.147 189.487 355.147Z" fill="#171C22"/>
</svg>
