<svg width="178" height="160" viewBox="0 0 178 160" fill="none" xmlns="http://www.w3.org/2000/svg">
<path d="M109.896 90.2308C109.716 88.481 109.727 86.3088 111.166 85.4567C112.389 84.7325 113.892 85.4459 115.123 86.1541C120.117 89.0273 125.112 91.9004 130.106 94.7736C131.259 95.4371 132.43 96.114 133.364 97.0965C134.298 98.0791 134.979 99.4271 134.905 100.827C134.831 102.208 134.031 103.451 133.021 104.314C132.01 105.178 130.799 105.719 129.606 106.25C125.551 108.054 121.496 109.857 117.441 111.66C115.553 112.499 113.169 113.052 111.791 110.933C110.958 109.653 111.405 108.163 111.451 106.72C111.619 101.323 110.447 95.5981 109.896 90.2308Z" fill="#B39370"/>
<path d="M46.0693 119.367C49.397 119.367 52.7799 117.508 63.4085 99.1777C75.3183 78.6375 76.8946 61.7841 76.8946 61.7841C76.8946 61.7841 72.974 58.0494 67.5307 63.0704C54.6513 74.9507 44.493 114.627 36.7866 117.962C39.9392 119.191 46.0693 119.367 46.0693 119.367Z" fill="#B39370"/>
<path d="M80.0591 60.4485C74.0025 60.7048 67.3959 63.0011 64.7131 68.3634C63.2313 71.3251 63.1771 74.8044 63.7362 78.0609C64.2953 81.3174 65.4264 84.4483 66.2287 87.6549C67.7945 93.9126 68.0948 100.476 67.1069 106.847C66.6646 109.699 65.965 112.559 66.2181 115.434C66.6114 119.899 69.4716 124.077 73.5236 126.106C77.5756 128.134 82.6831 127.944 86.5689 125.621C91.2303 129.418 97.8349 130.761 103.639 129.091C109.443 127.421 114.28 122.787 116.14 117.112C118.197 110.839 116.712 104.033 115.216 97.6066C114.167 93.1019 113.118 88.5971 112.069 84.0924C111.247 80.5641 110.917 76.2197 109.153 72.997C107.923 70.7483 105.343 69.1332 103.323 67.6403C100.155 65.2985 96.6004 63.4727 92.8432 62.2431C88.6515 60.8711 84.4485 60.4485 80.0591 60.4485Z" fill="#354A4C"/>
<path d="M156.967 82.6457C156.796 82.2468 156.637 81.8139 156.285 81.5617C155.933 81.3095 155.36 81.321 155.138 81.6938C155.317 80.8204 154.911 79.8561 154.161 79.3764C153.411 78.8968 152.367 78.9332 151.652 79.4641C151.506 78.3649 150.687 77.384 149.633 77.0454C148.58 76.7068 147.345 77.0277 146.588 77.8366C146.645 76.8623 145.303 76.2726 144.455 76.7519C143.606 77.2311 143.297 78.3351 143.4 79.3057C143.502 80.2762 143.924 81.1794 144.2 82.1153C144.9 84.4858 144.363 86.3228 143.736 88.3798C143.548 88.997 143.128 89.5156 142.569 89.8351C142.566 89.8367 142.563 89.8383 142.56 89.84C139.437 91.6242 136.314 93.4084 133.191 95.1925C127.817 98.2624 122.511 101.756 116.947 104.461C115.431 105.198 113.602 105.061 112.159 105.859C110.212 106.936 109.379 109.716 109.268 111.783C109.119 114.53 109.968 117.222 110.806 119.842C111.296 121.373 112.136 123.191 113.738 123.275C114.421 123.311 115.069 122.997 115.68 122.69C126.253 117.377 150.422 103.807 151.443 103.165C153.925 101.606 156.588 99.8189 157.458 97.0158C157.745 96.0897 158.75 86.8245 156.967 82.6457Z" fill="#B39370"/>
<path d="M27.848 111.771C27.3657 111.158 26.8939 110.425 27.021 109.654C27.2181 108.458 28.6532 107.973 29.851 107.804C34.6579 107.128 39.6358 107.715 44.1555 109.489C46.1974 110.29 48.2574 111.436 49.307 113.366C50.2734 115.143 49.9675 118.089 48.1368 119.279C46.3982 120.408 43.0308 119.836 41.1098 119.513C35.9577 118.646 31.0927 115.899 27.848 111.771Z" fill="#B39370"/>
<path d="M96.4481 86.4363C95.2748 83.2579 94.8849 79.6918 95.9472 76.4744C97.0095 73.257 99.6893 70.4819 103.013 69.8596C106.436 69.2185 108.4 71.8395 110.744 74.4207C113.089 77.002 116.116 81.1289 117.631 84.1727C121.9 92.7446 120.329 101.611 121.458 111.125C122.586 120.638 124.32 130.304 129.011 138.651C129.912 140.254 130.956 142.016 130.548 143.81C130.209 145.297 128.872 146.424 127.398 146.805C125.924 147.186 124.346 146.915 122.926 146.366C119.852 145.178 117.381 142.742 115.601 139.963C113.822 137.183 112.668 134.055 111.592 130.934C108.83 122.924 106.486 114.77 104.569 106.515C103.782 103.121 103.713 98.2733 101.923 95.2984C100.094 92.26 97.7322 89.915 96.4481 86.4363Z" fill="#B39370"/>
<path d="M134.781 134.687C136.617 135.383 137.762 137.181 138.776 138.867C139.075 139.364 139.386 139.936 139.232 140.496C139.027 141.242 138.136 141.531 137.372 141.637C134.307 142.059 131.105 141.411 128.443 139.83C122.945 136.565 131.856 133.58 134.781 134.687Z" fill="#B39370"/>
<path d="M142.919 152.996C142.462 153.026 141.992 152.896 141.599 152.597C137.702 149.623 132.657 147.59 127.396 146.871C126.318 146.723 125.563 145.728 125.71 144.647C125.857 143.566 126.85 142.81 127.928 142.957C133.853 143.767 139.556 146.074 143.986 149.454C144.852 150.114 145.02 151.353 144.36 152.221C144.001 152.695 143.469 152.96 142.919 152.996Z" fill="#B39370"/>
<path d="M147.502 148.977C147.144 149.033 146.766 148.99 146.41 148.833C142.185 146.972 137.367 146.066 132.478 146.211C131.39 146.243 130.482 145.385 130.45 144.295C130.418 143.205 131.277 142.295 132.361 142.262C137.832 142.1 143.238 143.122 147.995 145.217C148.991 145.655 149.444 146.82 149.006 147.819C148.725 148.46 148.145 148.877 147.502 148.977Z" fill="#B39370"/>
<path d="M149.794 145.01C149.516 145.042 149.228 145.015 148.946 144.92C143.556 143.115 137.447 142.929 131.747 144.396C130.694 144.667 129.619 144.031 129.349 142.974C129.078 141.917 129.714 140.841 130.768 140.57C137.194 138.917 144.093 139.131 150.194 141.174C151.226 141.519 151.783 142.638 151.439 143.672C151.188 144.424 150.531 144.925 149.794 145.01Z" fill="#B39370"/>
<path d="M130.313 143.298C129.526 143.403 128.72 143.022 128.32 142.28C127.802 141.321 128.158 140.122 129.115 139.603C135.302 136.247 143.107 135.147 149.992 136.661C151.055 136.895 151.727 137.948 151.494 139.013C151.261 140.079 150.21 140.753 149.147 140.519C143.159 139.202 136.371 140.159 130.99 143.077C130.773 143.195 130.544 143.268 130.313 143.298Z" fill="#B39370"/>
<path d="M136.679 137.768C137.447 137.848 138.259 137.962 138.851 138.417C139.601 138.995 139.806 140.008 139.594 140.883C139.382 141.758 138.822 142.526 138.246 143.251C137.071 144.729 135.702 146.181 133.855 146.877C131.972 147.587 129.851 147.421 127.824 147.243C126.05 147.088 124.147 146.882 122.817 145.798C121.458 144.691 121.019 142.818 121.504 141.214C121.86 140.038 122.674 138.949 123.703 138.174C124.6 137.497 125.375 137.69 126.459 137.643C129.892 137.493 133.253 137.41 136.679 137.768Z" fill="#B39370"/>
<path d="M77.8304 43.366C77.3252 39.7227 76.2283 36.175 75.8389 32.5174C75.4496 28.8598 75.8577 24.9186 78.057 21.9739C80.3663 18.8821 84.39 17.3688 88.2407 17.5072C92.0914 17.6458 95.7691 19.2646 98.9445 21.4525C103.493 24.5863 107.28 29.1129 108.594 34.4858C109.909 39.8586 108.388 46.0707 104.097 49.5492C102.813 50.5896 101.336 51.3634 100.009 52.3465C98.6807 53.3295 97.4625 54.5956 97.0242 56.1908C96.6672 57.4906 96.8617 58.8677 96.9065 60.215C96.9512 61.5625 96.7996 63.0218 95.9084 64.0315C94.7724 65.3189 92.8508 65.4557 91.1367 65.5005C88.3534 65.5733 85.5556 65.6452 82.7974 65.2647C81.0661 65.0259 78.0657 64.778 76.8081 63.3847C75.6463 62.0977 76.4369 60.2231 76.7984 58.7728C78.0494 53.7532 78.5434 48.5083 77.8304 43.366Z" fill="#B39370"/>
<path d="M105.309 31.4443C105.822 30.9768 105.482 29.7639 104.549 28.7351C103.616 27.7064 102.444 27.2514 101.931 27.7189C101.417 28.1864 101.758 29.3994 102.691 30.4281C103.623 31.4569 104.796 31.9118 105.309 31.4443Z" fill="#171C22"/>
<path d="M86.0933 58.9637C78.1032 57.1605 68.4429 55.7882 58.0405 73.4489C57.2826 74.7354 57.3327 76.346 58.1491 77.596C60.777 81.6196 63.1168 84.7454 66.2287 86.5462C67.0559 91.6509 66.6271 97.3653 66.23 100.716C65.9739 102.877 66.794 105.029 68.4392 106.448C72.9888 110.374 83.991 116.341 105.502 110.388C104.126 104.084 103.308 99.1218 103.308 99.1218C103.308 99.1218 111.48 100.541 119.031 95.2941C120.444 94.3122 121.078 92.5406 120.578 90.8918C117.959 82.2575 110.645 64.5046 86.0933 58.9637Z" fill="#E24444"/>
<path d="M69.0674 103.558C68.8768 103.719 68.5388 103.604 68.3132 103.299C68.0876 102.995 68.0746 102.638 68.2835 102.502C68.4924 102.365 68.8304 102.481 69.0377 102.76C69.2449 103.039 69.2579 103.397 69.0674 103.558Z" fill="#ECECEC"/>
<path d="M72.145 106.329C72.0096 106.537 71.3631 106.355 70.7496 105.854C70.1346 105.354 69.8258 104.753 70.0029 104.579C70.1818 104.403 70.7455 104.687 71.3189 105.152C71.891 105.619 72.2829 106.119 72.145 106.329Z" fill="#ECECEC"/>
<path d="M75.8223 108.239C75.7775 108.355 75.5928 108.401 75.3265 108.381C75.0602 108.361 74.7121 108.273 74.3587 108.104C73.6467 107.771 73.196 107.274 73.3214 107.06C73.4475 106.843 74.0694 106.971 74.7419 107.285C75.078 107.446 75.3705 107.62 75.5684 107.789C75.7653 107.958 75.867 108.122 75.8223 108.239Z" fill="#ECECEC"/>
<path d="M79.8047 109.393C79.7564 109.637 79.099 109.713 78.3446 109.518C77.5895 109.324 77.0498 108.934 77.1276 108.698C77.2057 108.46 77.8444 108.456 78.5699 108.642C79.2951 108.83 79.8537 109.147 79.8047 109.393Z" fill="#ECECEC"/>
<path d="M83.9082 110.002C83.896 110.125 83.7303 110.225 83.4712 110.276C83.2126 110.324 82.86 110.328 82.4773 110.277C81.7106 110.174 81.1231 109.891 81.1649 109.645C81.2068 109.399 81.847 109.28 82.5947 109.38C82.9692 109.43 83.3021 109.526 83.5397 109.64C83.7776 109.751 83.9206 109.877 83.9082 110.002Z" fill="#ECECEC"/>
<path d="M88.0496 110.249C88.0458 110.499 87.4179 110.673 86.6471 110.637C85.8762 110.601 85.2671 110.37 85.2863 110.121C85.3057 109.872 85.9336 109.698 86.6888 109.734C87.4441 109.769 88.0534 110 88.0496 110.249Z" fill="#ECECEC"/>
<path d="M92.1979 110.168C92.2138 110.417 91.6014 110.64 90.8301 110.665C90.0588 110.691 89.4333 110.509 89.4329 110.259C89.4324 110.009 90.0448 109.786 90.8006 109.761C91.5565 109.737 92.1821 109.919 92.1979 110.168Z" fill="#ECECEC"/>
<path d="M96.3268 109.76C96.3621 110.007 95.7692 110.278 95.0024 110.364C94.2355 110.45 93.5976 110.317 93.5776 110.068C93.5576 109.819 94.1505 109.549 94.902 109.465C95.6535 109.38 96.2914 109.513 96.3268 109.76Z" fill="#ECECEC"/>
<path d="M100.411 109.027C100.465 109.271 99.8956 109.587 99.1379 109.733C98.3802 109.88 97.7338 109.798 97.6943 109.552C97.6548 109.305 98.2246 108.989 98.9671 108.845C99.7096 108.702 100.356 108.783 100.411 109.027Z" fill="#ECECEC"/>
<path d="M103.028 108.378C103.095 108.618 102.861 108.889 102.507 108.982C102.152 109.075 101.817 108.953 101.757 108.711C101.698 108.468 101.931 108.198 102.278 108.107C102.626 108.016 102.961 108.137 103.028 108.378Z" fill="#ECECEC"/>
<path d="M102.149 96.3849C102.517 96.3196 102.477 94.3533 102.06 91.9931C101.643 89.633 101.007 87.7726 100.638 87.838C100.27 87.9033 100.31 89.8696 100.727 92.2298C101.144 94.59 101.781 96.4503 102.149 96.3849Z" fill="#ECECEC"/>
<path d="M66.5183 85.4298C66.889 85.3818 66.931 83.3378 66.612 80.8646C66.293 78.3913 65.7339 76.4253 65.3632 76.4733C64.9924 76.5214 64.9505 78.5653 65.2694 81.0385C65.5884 83.5118 66.1475 85.4778 66.5183 85.4298Z" fill="#ECECEC"/>
<path d="M105.615 96.7254C105.608 96.9751 105.301 97.1578 104.93 97.1329C104.558 97.1081 104.278 96.8862 104.304 96.6378C104.331 96.3894 104.638 96.2068 104.99 96.2303C105.342 96.2539 105.622 96.4757 105.615 96.7254Z" fill="#ECECEC"/>
<path d="M109.565 96.4734C109.608 96.7184 109.044 97.021 108.298 97.0922C107.553 97.1647 106.941 96.9752 106.936 96.7265C106.931 96.4756 107.504 96.2608 108.212 96.1918C108.92 96.1243 109.523 96.226 109.565 96.4734Z" fill="#ECECEC"/>
<path d="M113.399 95.4775C113.486 95.7104 112.988 96.1132 112.269 96.3236C111.551 96.5351 110.915 96.4652 110.863 96.2219C110.811 95.9767 111.333 95.6567 112.016 95.4554C112.699 95.2557 113.311 95.2426 113.399 95.4775Z" fill="#ECECEC"/>
<path d="M116.977 93.7785C117.107 93.9905 116.694 94.4809 116.027 94.8229C115.361 95.1661 114.723 95.2165 114.627 94.9873C114.529 94.7561 114.982 94.3441 115.615 94.018C116.248 93.6934 116.846 93.5645 116.977 93.7785Z" fill="#ECECEC"/>
<path d="M119.144 92.2814C119.3 92.4764 119.183 92.8145 118.884 93.0364C118.584 93.2583 118.227 93.2704 118.087 93.0639C117.947 92.8573 118.063 92.5191 118.347 92.3089C118.631 92.0986 118.988 92.0865 119.144 92.2814Z" fill="#ECECEC"/>
<path d="M59.321 76.272C59.1071 76.4001 58.7911 76.2337 58.6159 75.8999C58.4407 75.566 58.4831 75.2108 58.7096 75.1069C58.9362 75.0029 59.2523 75.1693 59.4147 75.4789C59.5771 75.7885 59.5349 76.1437 59.321 76.272Z" fill="#ECECEC"/>
<path d="M61.9942 79.5984C61.8299 79.7838 61.2011 79.4918 60.6589 78.8797C60.1153 78.2687 59.899 77.6087 60.1018 77.4667C60.3071 77.3219 60.8274 77.7108 61.3331 78.2783C61.8367 78.8477 62.1615 79.4108 61.9942 79.5984Z" fill="#ECECEC"/>
<path d="M64.1711 81.2587C64.0418 81.4722 63.6849 81.4731 63.3744 81.2599C63.0639 81.0466 62.9357 80.7127 63.0876 80.5147C63.2394 80.3167 63.5964 80.3159 63.8843 80.5135C64.1723 80.7112 64.3005 81.0452 64.1711 81.2587Z" fill="#ECECEC"/>
<path d="M89.6531 127.304C89.6071 127.386 89.408 127.366 89.0772 127.254C88.9946 127.226 88.9038 127.192 88.8052 127.152C88.7088 127.11 88.6098 127.055 88.5013 126.997C88.2878 126.877 88.0353 126.747 87.791 126.557C87.6661 126.464 87.5353 126.367 87.399 126.266C87.2644 126.162 87.139 126.038 87.002 125.917C86.7225 125.677 86.4659 125.381 86.1906 125.073C85.6666 124.435 85.1631 123.669 84.7627 122.8C84.3735 121.926 84.1292 121.042 83.9952 120.227C83.9444 119.816 83.8913 119.428 83.8953 119.059C83.8939 118.875 83.8836 118.699 83.8941 118.529C83.9077 118.36 83.9209 118.197 83.9334 118.042C83.9516 117.733 84.0198 117.456 84.0705 117.216C84.0985 117.097 84.1219 116.985 84.1536 116.885C84.1887 116.784 84.2232 116.694 84.2565 116.613C84.3898 116.289 84.5061 116.126 84.5976 116.145C84.7968 116.187 84.7782 116.923 84.8906 118.046C84.9056 118.186 84.9213 118.333 84.9377 118.486C84.9541 118.638 84.9892 118.795 85.0133 118.958C85.0542 119.284 85.1433 119.625 85.2189 119.984C85.4029 120.697 85.6517 121.465 85.9953 122.239C86.3504 123.007 86.7635 123.7 87.1779 124.309C87.3982 124.602 87.5957 124.894 87.8139 125.139C87.9202 125.264 88.015 125.394 88.1186 125.507C88.2227 125.62 88.3225 125.728 88.4178 125.832C89.1877 126.656 89.7529 127.126 89.6531 127.304Z" fill="#4D6A6D"/>
<path d="M134.91 145.028C134.929 144.784 136.006 144.679 137.25 145.072C138.495 145.46 139.319 146.163 139.196 146.374C139.071 146.596 138.123 146.289 136.98 145.935C135.84 145.573 134.886 145.282 134.91 145.028Z" fill="#5E3F26"/>
<path d="M141.624 142.844C141.659 142.597 140.585 142.237 139.224 142.041C137.863 141.845 136.732 141.886 136.696 142.134C136.661 142.381 137.735 142.74 139.096 142.937C140.456 143.133 141.588 143.091 141.624 142.844Z" fill="#5E3F26"/>
<path d="M138.588 139.33C138.564 139.086 139.666 138.789 141.041 138.914C142.416 139.034 143.448 139.523 143.382 139.759C143.317 140.005 142.248 139.927 140.961 139.815C139.674 139.696 138.608 139.584 138.588 139.33Z" fill="#5E3F26"/>
<path d="M141.48 144.037C141.503 144.161 141.442 144.286 141.369 144.403C141.293 144.521 141.201 144.635 141.091 144.745C140.981 144.858 140.869 144.951 140.752 145.028C140.636 145.103 140.512 145.165 140.388 145.144C140.268 145.124 140.168 145.001 140.157 144.797C140.145 144.596 140.238 144.322 140.449 144.109C140.659 143.896 140.93 143.8 141.131 143.81C141.335 143.817 141.458 143.916 141.48 144.037Z" fill="#5E3F26"/>
<path d="M142.173 145.632C142.427 145.414 142.501 145.083 142.339 144.894C142.177 144.704 141.84 144.727 141.586 144.945C141.332 145.163 141.257 145.494 141.42 145.684C141.582 145.873 141.919 145.85 142.173 145.632Z" fill="#5E3F26"/>
<path d="M143.587 140.227C143.64 140.341 143.58 140.491 143.482 140.654C143.381 140.818 143.243 141 143.088 141.196C142.934 141.393 142.791 141.571 142.656 141.708C142.521 141.842 142.391 141.936 142.267 141.912C142.147 141.888 142.056 141.736 142.055 141.492C142.053 141.25 142.154 140.923 142.378 140.637C142.602 140.351 142.895 140.176 143.129 140.12C143.366 140.063 143.536 140.115 143.587 140.227Z" fill="#5E3F26"/>
<path d="M144.719 141.757C145.014 141.288 145.082 140.799 144.871 140.666C144.661 140.533 144.25 140.805 143.955 141.275C143.66 141.744 143.591 142.233 143.802 142.366C144.013 142.499 144.423 142.227 144.719 141.757Z" fill="#5E3F26"/>
<path d="M137.803 147.73C137.825 147.854 137.782 147.975 137.74 148.082C137.695 148.188 137.644 148.28 137.57 148.358C137.497 148.438 137.41 148.494 137.306 148.547C137.204 148.597 137.085 148.648 136.96 148.634C136.839 148.621 136.73 148.523 136.701 148.346C136.67 148.172 136.735 147.929 136.91 147.741C137.085 147.552 137.323 147.471 137.498 147.49C137.677 147.507 137.782 147.609 137.803 147.73Z" fill="#5E3F26"/>
<path d="M143.657 136.739C143.735 136.838 143.723 136.988 143.677 137.15C143.629 137.314 143.548 137.494 143.445 137.681C143.343 137.869 143.235 138.034 143.124 138.163C143.012 138.289 142.892 138.379 142.767 138.368C142.645 138.357 142.538 138.233 142.501 138.022C142.462 137.814 142.503 137.521 142.653 137.246C142.804 136.971 143.028 136.779 143.224 136.7C143.421 136.618 143.582 136.641 143.657 136.739Z" fill="#5E3F26"/>
<path d="M144.687 138.206C144.814 137.879 144.729 137.54 144.497 137.45C144.264 137.359 143.973 137.551 143.846 137.878C143.719 138.205 143.804 138.544 144.037 138.634C144.269 138.725 144.56 138.533 144.687 138.206Z" fill="#5E3F26"/>
<path d="M143.438 151.204C143.583 150.812 143.207 150.31 142.598 150.084C141.988 149.857 141.377 149.992 141.232 150.384C141.087 150.776 141.463 151.277 142.072 151.504C142.682 151.73 143.293 151.596 143.438 151.204Z" fill="#5E3F26"/>
<path d="M148.034 146.941C148.179 146.549 147.803 146.047 147.193 145.821C146.584 145.595 145.973 145.729 145.828 146.121C145.683 146.513 146.059 147.014 146.668 147.241C147.277 147.467 147.889 147.333 148.034 146.941Z" fill="#5E3F26"/>
<path d="M150.661 142.901C150.806 142.509 150.43 142.007 149.821 141.781C149.212 141.554 148.6 141.689 148.455 142.081C148.31 142.473 148.686 142.974 149.296 143.201C149.905 143.427 150.516 143.293 150.661 142.901Z" fill="#5E3F26"/>
<path d="M150.661 138.457C150.806 138.065 150.43 137.563 149.821 137.337C149.212 137.11 148.6 137.245 148.455 137.637C148.31 138.029 148.686 138.53 149.296 138.757C149.905 138.983 150.516 138.849 150.661 138.457Z" fill="#5E3F26"/>
<path d="M133.96 137.692C135.646 137.397 136.978 136.959 136.936 136.713C136.893 136.466 135.491 136.506 133.805 136.801C132.119 137.095 130.787 137.534 130.83 137.78C130.873 138.026 132.274 137.987 133.96 137.692Z" fill="#5E3F26"/>
<path d="M147.134 81.0993C147.376 81.039 147.455 80.5184 147.311 79.9365C147.166 79.3545 146.853 78.9315 146.612 78.9918C146.37 79.052 146.291 79.5726 146.435 80.1546C146.579 80.7366 146.892 81.1595 147.134 81.0993Z" fill="#5E3F26"/>
<path d="M151.642 82.1418C151.886 82.0891 151.994 81.6338 151.885 81.1249C151.775 80.6161 151.489 80.2463 151.245 80.299C151.001 80.3518 150.893 80.807 151.002 81.3159C151.112 81.8248 151.398 82.1945 151.642 82.1418Z" fill="#5E3F26"/>
<path d="M155.026 83.8671C155.272 83.8262 155.412 83.4392 155.34 83.0028C155.267 82.5665 155.009 82.2459 154.764 82.2869C154.518 82.3279 154.377 82.7148 154.449 83.1512C154.522 83.5876 154.78 83.9081 155.026 83.8671Z" fill="#5E3F26"/>
<path d="M144.845 79.283C145.217 79.283 145.518 78.8859 145.518 78.3961C145.518 77.9063 145.217 77.5093 144.845 77.5093C144.474 77.5093 144.172 77.9063 144.172 78.3961C144.172 78.8859 144.474 79.283 144.845 79.283Z" fill="#5E3F26"/>
<path d="M148.95 79.8726C149.322 79.8726 149.623 79.4755 149.623 78.9857C149.623 78.4959 149.322 78.0989 148.95 78.0989C148.578 78.0989 148.277 78.4959 148.277 78.9857C148.277 79.4755 148.578 79.8726 148.95 79.8726Z" fill="#5E3F26"/>
<path d="M153.285 81.8132C153.657 81.8132 153.958 81.4162 153.958 80.9264C153.958 80.4366 153.657 80.0396 153.285 80.0396C152.913 80.0396 152.612 80.4366 152.612 80.9264C152.612 81.4162 152.913 81.8132 153.285 81.8132Z" fill="#5E3F26"/>
<path d="M35.2806 111.176C35.0889 111.355 33.9491 110.361 32.2972 109.625C30.6565 108.864 29.1601 108.659 29.1678 108.397C29.1724 108.278 29.5691 108.17 30.219 108.192C30.8659 108.213 31.7623 108.39 32.67 108.801C33.5767 109.215 34.2998 109.775 34.7415 110.249C35.1864 110.724 35.3671 111.094 35.2806 111.176Z" fill="#5E3F26"/>
<path d="M39.8802 109.682C39.6923 109.857 38.9861 109.385 38.0625 109.01C37.1461 108.618 36.3139 108.45 36.3049 108.193C36.3046 108.071 36.5336 107.951 36.9239 107.916C37.3114 107.88 37.858 107.946 38.4089 108.175C38.9594 108.405 39.3918 108.746 39.6396 109.047C39.8899 109.349 39.9664 109.597 39.8802 109.682Z" fill="#5E3F26"/>
<path d="M32.2354 111.041C32.2568 111.166 32.1642 111.294 32.0497 111.429C31.9321 111.565 31.7889 111.713 31.6355 111.881C31.4844 112.051 31.3509 112.208 31.228 112.339C31.1049 112.467 30.9876 112.572 30.8609 112.563C30.7403 112.555 30.6283 112.411 30.6164 112.156C30.6025 111.906 30.711 111.557 30.9664 111.274C31.2219 110.991 31.5574 110.848 31.8075 110.837C32.0614 110.824 32.216 110.921 32.2354 111.041Z" fill="#5E3F26"/>
<path d="M29.8399 110.776C30.0696 110.377 29.8314 109.809 29.3079 109.506C28.7844 109.203 28.1737 109.28 27.944 109.679C27.7143 110.078 27.9525 110.647 28.476 110.95C28.9996 111.253 29.6102 111.175 29.8399 110.776Z" fill="#5E3F26"/>
<path d="M35.9196 109.373C36.1018 109.056 35.9129 108.605 35.4977 108.365C35.0825 108.125 34.5982 108.186 34.416 108.503C34.2339 108.819 34.4228 109.27 34.838 109.51C35.2532 109.751 35.7374 109.689 35.9196 109.373Z" fill="#5E3F26"/>
<path d="M122.413 118.036C122.06 118.113 120.728 113.192 120.108 106.952C119.472 100.714 119.796 95.6252 120.157 95.6299C120.544 95.6295 120.826 100.657 121.455 106.816C122.066 112.976 122.792 117.959 122.413 118.036Z" fill="#5E3F26"/>
<path d="M125.509 99.9405C128.384 98.338 130.566 96.7735 130.385 96.446C130.203 96.1185 127.726 97.1522 124.851 98.7547C121.977 100.357 119.795 101.922 119.976 102.249C120.158 102.577 122.635 101.543 125.509 99.9405Z" fill="#5E3F26"/>
<path d="M90.4187 29.9638C90.4105 29.774 90.4375 29.5842 90.4984 29.4041C90.5191 29.3277 90.5622 29.2592 90.6221 29.2072C90.682 29.1552 90.7561 29.1221 90.8349 29.1122C91.0094 29.1155 91.1655 29.2937 91.2864 29.4777C91.499 29.8055 91.6588 30.1644 91.7601 30.5415C91.8501 30.8333 91.8766 31.141 91.8378 31.4441C91.7346 32.047 91.2182 32.2077 90.8531 31.754C90.5254 31.3463 90.4205 30.4897 90.4187 29.9638Z" fill="#171C22"/>
<path fill-rule="evenodd" clip-rule="evenodd" d="M101.159 12.2899C100.476 11.5379 99.1277 11.7836 98.993 11.8099C100.374 9.89216 100.098 7.65544 98.9178 6.77921C97.934 6.04867 96.5536 6.43636 96.3051 6.51059C95.9464 5.20765 94.9912 4.17478 93.7771 3.86001C92.1095 3.42795 90.1768 4.40841 89.3922 6.28365C89.1742 5.69842 88.7952 5.1865 88.2985 4.80641C87.8018 4.42632 87.2076 4.1934 86.5836 4.13429C85.1145 4.01975 83.6927 4.96484 83.1819 6.44708C82.8279 5.94342 82.3283 5.55924 81.7495 5.34551C81.1707 5.13178 80.54 5.09861 79.9411 5.25038C79.3421 5.40216 78.8032 5.73171 78.3959 6.19533C77.9886 6.65895 77.7321 7.23471 77.6604 7.84623C77.1534 7.29743 76.4918 6.91397 75.762 6.74587C75.0322 6.57777 74.268 6.63283 73.5692 6.90386C72.8703 7.17489 72.2691 7.64932 71.8441 8.26527C71.419 8.88122 71.1898 9.61011 71.1864 10.3569C70.936 10.2723 69.0671 9.67744 67.2539 10.8C66.7185 11.1413 66.2571 11.586 65.8969 12.1078C65.5367 12.6295 65.2851 13.2178 65.1569 13.8377C65.0416 13.7971 63.4529 13.2688 62.1513 14.2699C61.0912 15.0844 60.6754 16.5652 61.1579 17.9192C59.8617 18.1176 58.8898 19.1537 58.8057 20.3553C58.7809 20.8548 58.8969 21.351 59.1404 21.7877C59.3839 22.2245 59.7453 22.5844 60.1837 22.8268C58.287 23.4155 57.4155 25.3944 58.017 26.8101C58.4763 27.891 59.7749 28.5982 61.1844 28.4369C61.108 28.5103 60.2022 29.4094 60.4189 30.506C60.6356 31.6026 61.8955 32.4792 63.3743 32.2775C62.2005 33.2763 62.0372 34.8513 62.7503 35.7384C63.4732 36.6384 64.8193 36.4852 64.9039 36.4743C63.9802 37.4887 64.1512 38.8878 64.8956 39.4236C65.4058 39.7908 66.199 39.7616 66.8781 39.3735L66.8857 39.384C65.9936 40.4312 66.2037 41.8715 67.0204 42.441C67.6144 42.8554 68.528 42.8088 69.2657 42.3089C68.8827 43.0951 68.9751 44.0074 69.4939 44.6018C70.1397 45.3418 71.3621 45.4911 72.3077 44.8582L72.3696 44.927C72.2286 45.361 72.0522 46.1505 72.4589 46.7071C72.8366 47.2237 73.6448 47.4614 74.2298 47.4027C74.0505 47.6802 73.9505 48.001 73.9407 48.3306C73.9308 48.6602 74.0115 48.986 74.1739 49.2729C74.5988 49.9793 75.5386 50.302 76.4058 49.9864C76.8189 51.1119 77.4393 51.4476 77.697 51.5565C78.3691 51.841 79.1784 51.6141 80.7975 51.1605C81.3551 51.0045 81.8492 50.8409 82.0402 50.77C83.069 50.3882 89.3919 47.4663 91.1201 42.2521C93.2457 35.8392 87.2675 29.4145 89.7266 27.365C89.849 27.2631 90.4035 26.8008 90.9951 26.9208C92.6693 27.2597 92.5355 31.8267 94.1525 32.087C94.6524 32.1674 95.0867 31.7991 95.1196 31.7703C96.5807 30.4954 93.7823 26.9748 95.1496 25.0254C96.334 23.3367 99.6772 24.241 100.822 22.2992C101.042 21.9528 101.148 21.5476 101.127 21.1391C101.05 20.1276 100.078 19.5122 99.8759 19.3894C100.955 19.5502 101.875 18.7181 101.88 17.8101C101.884 16.9864 101.135 16.2027 100.153 16.1952C101.714 14.9581 101.902 13.1093 101.159 12.2899Z" fill="#171C22"/>
<path d="M94.4293 12.2439C94.4034 12.2358 94.3915 12.1918 94.3967 12.1079C94.4146 11.9873 94.4611 11.8727 94.5323 11.7734C94.6447 11.6146 94.7905 11.4822 94.9597 11.3855C95.1791 11.2602 95.4196 11.1757 95.6694 11.1361C95.8137 11.1119 95.96 11.1009 96.1064 11.1033C96.2628 11.1047 96.4188 11.1185 96.5729 11.1444C96.926 11.2017 97.2632 11.3309 97.5638 11.5238C97.7331 11.6341 97.8858 11.7677 98.0175 11.9207C98.1582 12.0879 98.2689 12.2779 98.3449 12.4826C98.4243 12.6947 98.4659 12.919 98.4678 13.1455C98.4662 13.2039 98.4648 13.2626 98.4592 13.3215L98.4482 13.4069C98.4494 13.3951 98.4487 13.4037 98.4489 13.401C98.4489 13.401 98.447 13.4027 98.4476 13.4042C98.4481 13.4057 98.4457 13.4062 98.4526 13.4065C98.5488 13.3965 98.647 13.3925 98.7438 13.3888C99.1513 13.3665 99.5565 13.4608 99.9115 13.6607C100.087 13.7708 100.237 13.9168 100.352 14.0891C100.456 14.2516 100.525 14.4337 100.554 14.624C100.6 14.9388 100.557 15.26 100.431 15.5526C100.335 15.7753 100.202 15.9804 100.038 16.1596C99.9226 16.2878 99.7959 16.4055 99.6594 16.511C99.4374 16.68 99.2955 16.7456 99.2573 16.7089C99.2191 16.6722 99.2897 16.5299 99.4349 16.3055C99.5066 16.1931 99.5951 16.0593 99.683 15.9036C99.7806 15.7373 99.8557 15.5589 99.9063 15.373C99.9608 15.1695 99.9637 14.9558 99.9146 14.7511C99.8885 14.6534 99.8435 14.5618 99.7822 14.4814C99.7158 14.4006 99.6341 14.3336 99.5418 14.284C99.2994 14.1763 99.0328 14.1336 98.7685 14.1602C98.6914 14.1662 98.6141 14.171 98.5339 14.1821C98.4522 14.1891 98.359 14.208 98.2705 14.2227C98.182 14.2375 98.0915 14.2527 97.9965 14.2755L96.9073 14.517L97.1716 14.1419L97.4426 13.7576C97.4842 13.7021 97.5231 13.6444 97.5589 13.585L97.6174 13.4418L97.6464 13.3703C97.6542 13.3459 97.6597 13.3209 97.6628 13.2955L97.6701 13.2433C97.6737 13.2106 97.6743 13.177 97.6765 13.1439C97.6769 13.0085 97.6549 12.874 97.6113 12.7458C97.5699 12.6215 97.5083 12.5047 97.4291 12.4002C97.3468 12.2954 97.2509 12.202 97.1438 12.1224C96.9299 11.9672 96.6887 11.8531 96.4326 11.7861C96.3119 11.7534 96.1891 11.7289 96.0649 11.7129C95.9525 11.6973 95.8389 11.6906 95.7253 11.6931C95.5295 11.6959 95.3352 11.7272 95.1484 11.7859C95.0097 11.8307 94.8787 11.8967 94.7602 11.9815C94.6827 12.0396 94.61 12.1039 94.5427 12.1736C94.4952 12.225 94.4555 12.2522 94.4293 12.2439Z" fill="#A2A2A2"/>
<path d="M70.7785 33.1405C70.7855 33.1592 70.7612 33.1879 70.7045 33.2271C70.6199 33.2805 70.5281 33.3213 70.4317 33.3484C70.0594 33.4551 69.6636 33.4482 69.2955 33.3286C69.0254 33.2461 68.7751 33.1094 68.56 32.927C68.3052 32.707 68.1055 32.4307 67.9768 32.1201C67.827 31.7663 67.769 31.3805 67.8083 30.9982C67.828 30.7805 67.8858 30.5678 67.979 30.3697C68.0325 30.2646 68.0966 30.1653 68.1704 30.0732C68.2094 30.0264 68.2509 29.9817 68.2948 29.9394L68.3116 29.9232L68.3201 29.9152C68.3077 29.9271 68.3168 29.918 68.3142 29.9205L68.3163 29.9178L68.3204 29.9129C68.3249 29.9073 68.3305 29.9028 68.337 29.8996C68.3382 29.899 68.3394 29.8987 68.3407 29.8986C68.342 29.8985 68.3433 29.8987 68.3446 29.8991C68.345 29.8992 68.3455 29.8994 68.3459 29.8997C68.3463 29.9 68.3466 29.9004 68.3469 29.9008C68.3493 29.9023 68.3416 29.8993 68.3397 29.8988L68.3089 29.8882L68.2962 29.8838C68.3157 29.9009 68.2426 29.8415 68.2065 29.8106C68.1617 29.7751 68.1187 29.7374 68.0777 29.6976C67.9054 29.5396 67.7504 29.3638 67.6156 29.173L67.5151 29.0247L67.4242 28.8681C67.365 28.7607 67.3131 28.6496 67.2687 28.5353C67.2227 28.4189 67.1844 28.2997 67.154 28.1784C67.1246 28.0543 67.1042 27.9282 67.0929 27.8012C67.083 27.71 67.0796 27.6183 67.083 27.5266C67.0839 27.4331 67.0914 27.3399 67.1056 27.2474C67.1333 27.0647 67.1828 26.8859 67.253 26.7148C67.2891 26.6313 67.3304 26.5519 67.3703 26.4717C67.4175 26.3962 67.4624 26.3194 67.5125 26.2469C67.6142 26.1051 67.7296 25.9736 67.8569 25.854C67.9831 25.7368 68.1212 25.633 68.2689 25.5443C68.4157 25.4553 68.5726 25.3841 68.7363 25.3323C68.8175 25.3043 68.9009 25.2833 68.9857 25.2694L69.0175 25.2643C69.0265 25.2628 69.0192 25.264 69.0207 25.2638C69.0222 25.2635 69.0222 25.2635 69.023 25.2646L69.0302 25.2657C69.0431 25.2677 69.0557 25.2709 69.068 25.2752C69.0847 25.2823 69.08 25.2756 69.0778 25.2693L69.0699 25.2474C69.0652 25.2325 69.059 25.2182 69.0515 25.2046L68.99 25.0891C68.9673 25.0443 68.9448 25.0011 68.9244 24.956C68.7512 24.608 68.6547 24.227 68.6411 23.8386C68.6317 23.4832 68.7181 23.1317 68.8913 22.8206C69.0447 22.5439 69.2872 22.3268 69.5797 22.2043C69.8128 22.1149 70.0668 22.094 70.3113 22.1441C70.4892 22.1797 70.6548 22.2603 70.7924 22.378C70.8771 22.4493 70.9429 22.5403 70.9838 22.643C71.0051 22.715 71.0049 22.7539 70.9873 22.7631C70.9697 22.7722 70.9333 22.7524 70.8854 22.7114C70.816 22.6562 70.7404 22.6092 70.6601 22.5714C70.5367 22.5156 70.4031 22.4856 70.2675 22.4835C70.0916 22.4804 69.9178 22.5225 69.7628 22.6057C69.5842 22.7133 69.4443 22.8743 69.3629 23.0657C69.2629 23.3007 69.2243 23.557 69.251 23.8107C69.2858 24.1079 69.3807 24.3949 69.5298 24.6545C69.5485 24.6905 69.5704 24.7257 69.5906 24.7623L69.666 24.8856C69.745 25.0129 69.8517 25.1684 69.9635 25.3183L70.3148 25.7853C70.3741 25.8638 70.4335 25.9425 70.493 26.0212L70.5377 26.0805L70.5714 26.1281L70.6394 26.2243L70.1019 26.1108L69.8066 26.049L69.5541 26.0116C69.4718 26.0018 69.3786 25.9803 69.3041 25.9796C69.2691 25.9809 69.2342 25.9841 69.1995 25.9893L69.1319 26.0032C69.0784 26.0131 69.0259 26.0281 68.9753 26.0481C68.868 26.0854 68.7656 26.1353 68.6701 26.1967C68.5701 26.2606 68.4769 26.3344 68.3917 26.417C68.3051 26.502 68.2265 26.5947 68.1569 26.694C68.1232 26.7446 68.0939 26.7973 68.0611 26.8492L67.9837 27.0141C67.9396 27.1257 67.9084 27.242 67.8906 27.3606C67.8735 27.483 67.8713 27.607 67.884 27.7299C67.8919 27.8186 67.9059 27.9067 67.926 27.9935C67.9478 28.0804 67.975 28.1658 68.0074 28.2494C68.0393 28.3335 68.0767 28.4154 68.1194 28.4946L68.1851 28.6127L68.2599 28.7252C68.311 28.7996 68.366 28.8713 68.4247 28.9399C68.4829 29.0084 68.5448 29.0737 68.61 29.1356C68.6411 29.1676 68.6741 29.1978 68.7088 29.226L68.7594 29.2696L68.7935 29.2988C68.8149 29.3158 68.8352 29.3287 68.8574 29.3431L69.1157 29.5121L69.1797 29.554L69.2567 29.5924L69.4108 29.6684L69.3476 29.8096L69.3147 29.8884L69.2986 29.9275C69.2957 29.9404 69.2742 29.9543 69.3218 29.9642L69.5108 30.0299L69.6043 30.0624L69.651 30.0786C69.9815 30.1237 69.201 30.0174 69.2814 30.0287L69.2812 30.0275L69.2808 30.0253L69.2793 30.0214C69.2746 30.0138 69.2718 30.0053 69.2712 29.9964C69.2721 29.9885 69.2675 29.9925 69.2643 29.993C69.2564 30.001 69.2493 30.0097 69.2431 30.0191L69.2297 30.0404C69.2246 30.0488 69.2219 30.0517 69.2145 30.0649L69.1749 30.1345C69.1355 30.2085 69.0964 30.2824 69.0574 30.3554C69.0039 30.3362 69.0099 30.3514 68.993 30.3543L68.9566 30.3693L68.8832 30.3992C68.8592 30.4066 68.8364 30.4177 68.8157 30.432L68.7825 30.4605C68.7579 30.482 68.7344 30.5048 68.7122 30.5288C68.6685 30.5789 68.6295 30.6329 68.5958 30.6902C68.5325 30.8136 68.49 30.9464 68.4701 31.0835C68.4257 31.3599 68.449 31.6427 68.538 31.908C68.6156 32.1463 68.7449 32.3646 68.9167 32.5474C69.069 32.7054 69.2497 32.8335 69.4495 32.925C69.7457 33.0611 70.0691 33.1286 70.3954 33.1225C70.5121 33.1222 70.6044 33.1161 70.6687 33.1151C70.7331 33.1142 70.7715 33.1219 70.7785 33.1405Z" fill="#A2A2A2"/>
<path d="M66.2749 19.9248C66.2569 19.9342 66.2295 19.9224 66.1923 19.8866C66.1402 19.833 66.1004 19.7687 66.0757 19.6982C66.0318 19.585 66.0107 19.4642 66.0136 19.3427C66.0158 19.1778 66.0502 19.0148 66.1149 18.8628C66.1952 18.6716 66.3145 18.4991 66.4651 18.356C66.5528 18.2728 66.6508 18.2012 66.7567 18.143C66.867 18.0811 66.9839 18.0316 67.1052 17.9955C67.3655 17.9195 67.638 17.8939 67.9079 17.9198C67.9743 17.9248 68.0556 17.9372 68.1093 17.9443C68.1207 17.9457 68.1321 17.9461 68.1435 17.9454C68.1554 17.9435 68.1668 17.9463 68.1685 17.9414L68.1576 17.9144C68.1562 17.9051 68.1507 17.911 68.1556 17.8457C68.1759 17.6107 68.2357 17.3808 68.3325 17.1656C68.3817 17.0546 68.4408 16.9483 68.5091 16.8479C68.5777 16.744 68.6564 16.647 68.7439 16.5583C68.8335 16.4663 68.9318 16.3833 69.0376 16.3104C69.0908 16.273 69.1489 16.2413 69.2053 16.2073C69.264 16.178 69.3236 16.1485 69.3843 16.1226C69.4375 16.1029 69.4904 16.0822 69.5437 16.0648L69.7056 16.0214L69.8686 15.992L70.0315 15.9763C70.1388 15.9709 70.2463 15.973 70.3533 15.9825C70.4583 15.9925 70.5624 16.0101 70.6648 16.0351C70.766 16.0592 70.8651 16.0913 70.9612 16.1311C71.0094 16.1494 71.0564 16.1706 71.102 16.1945C71.1455 16.2165 71.2061 16.2468 71.2043 16.2486C71.2147 16.255 71.2247 16.2619 71.2343 16.2693L71.2384 16.2753L71.2494 16.2923C71.2742 16.2664 71.2103 16.3773 71.4195 16.0057C71.5684 15.7663 71.7542 15.5517 71.97 15.3698C72.1563 15.2095 72.3627 15.0739 72.584 14.9664C72.7717 14.8757 72.9697 14.8076 73.1737 14.7635L73.3082 14.7357L73.4378 14.7219C73.5158 14.7115 73.5945 14.7079 73.6731 14.7109C73.7969 14.7107 73.9204 14.7243 74.0412 14.7514C74.1171 14.7676 74.1904 14.7943 74.2589 14.8307C74.3061 14.8564 74.3276 14.8801 74.3241 14.901C74.3206 14.9219 74.2917 14.9397 74.2418 14.9547C74.1919 14.9697 74.1213 14.9767 74.0317 14.9955C73.9421 15.0143 73.8341 15.0292 73.7126 15.0643C73.6467 15.0789 73.582 15.098 73.5187 15.1215L73.4148 15.1553L73.3081 15.201C73.1492 15.2676 72.9971 15.3492 72.8537 15.4445C72.6892 15.5546 72.5377 15.6827 72.402 15.8265C72.2505 15.9827 72.1224 16.1599 72.0218 16.3526C71.994 16.4017 71.9698 16.4528 71.9495 16.5054L71.9323 16.5446L71.9235 16.5648C71.9145 16.5828 71.907 16.6017 71.9013 16.621C71.8814 16.6845 71.8659 16.7553 71.8476 16.8229C71.7724 17.0962 71.7131 17.3836 71.6471 17.6635C71.5206 17.5356 71.3928 17.4066 71.2638 17.2763C71.1976 17.212 71.1311 17.1476 71.0643 17.083C71.0478 17.0676 71.0302 17.0491 71.0147 17.0363L70.9718 17.008L70.8847 16.9515C70.8483 16.9247 70.8087 16.9026 70.7669 16.8855C70.7376 16.8711 70.7073 16.8586 70.6763 16.8483C70.6142 16.8246 70.5503 16.8058 70.4852 16.7923C70.4192 16.7777 70.3522 16.7676 70.2848 16.7621C70.2172 16.7576 70.1494 16.7572 70.0817 16.7611L69.9802 16.772L69.8803 16.7907L69.7828 16.8175L69.6883 16.852L69.5837 16.901C69.5514 16.9217 69.5171 16.9388 69.4857 16.9609C69.4218 17.0044 69.3622 17.0538 69.3076 17.1083C69.2518 17.1626 69.2015 17.2223 69.1576 17.2865C69.1123 17.3496 69.0727 17.4167 69.0394 17.4868C68.9732 17.623 68.9293 17.7688 68.9094 17.9187L68.9072 17.9324C68.9065 17.938 68.9071 17.9521 68.907 17.9615L68.9074 18.0246L68.908 18.15L68.9082 18.1811L68.9155 18.2202L68.9303 18.2981L68.9593 18.453C69.0014 18.6563 69.043 18.857 69.084 19.0551C68.8408 18.954 68.5675 18.8295 68.3243 18.7311C68.2649 18.7095 68.2031 18.6829 68.1474 18.666L67.9872 18.6217C67.919 18.6052 67.8798 18.5963 67.8256 18.5875C67.6371 18.5528 67.4439 18.5514 67.2548 18.5834C67.1709 18.5982 67.0888 18.6218 67.0098 18.6535C66.938 18.6808 66.8698 18.7168 66.8069 18.7607C66.6897 18.8429 66.5883 18.9454 66.5077 19.0635C66.44 19.162 66.3881 19.2704 66.3538 19.3849C66.327 19.4723 66.3113 19.5626 66.3071 19.6539C66.3027 19.7303 66.3037 19.7944 66.3036 19.8385C66.3035 19.8827 66.2929 19.9154 66.2749 19.9248Z" fill="#A2A2A2"/>
<path d="M74.4245 28.1456C74.3871 28.1807 74.2653 28.1381 74.1042 27.9838C73.8833 27.7537 73.7276 27.4694 73.6528 27.1598C73.5964 26.9425 73.5738 26.7177 73.5856 26.4935C73.5988 26.2284 73.6609 25.9679 73.7689 25.7251C73.8929 25.4555 74.0679 25.2122 74.2845 25.0086C74.5168 24.7927 74.7889 24.6239 75.0857 24.5114C75.1675 24.48 75.2511 24.4535 75.336 24.4319C75.3563 24.4252 75.3772 24.4202 75.3983 24.417C75.406 24.4153 75.4138 24.414 75.4217 24.4132C75.4261 24.4157 75.4308 24.4176 75.4356 24.4189C75.438 24.4186 75.44 24.4182 75.4417 24.4141C75.4436 24.4152 75.44 24.4035 75.4384 24.3935L75.4351 24.3784L75.4142 24.3022C75.3488 24.078 75.3217 23.8445 75.3339 23.6113C75.3427 23.4078 75.3794 23.2065 75.4432 23.0129C75.4987 22.8484 75.5749 22.6915 75.6701 22.5461C75.7096 22.4828 75.7545 22.4229 75.8043 22.3673C75.8457 22.316 75.8917 22.2684 75.9415 22.2251C76.0177 22.1538 76.1029 22.0927 76.1948 22.0433C76.2527 22.011 76.3157 21.9888 76.3811 21.9777C76.4268 21.9704 76.4571 21.9774 76.4703 21.9971C76.4834 22.0167 76.4799 22.0484 76.4627 22.0897C76.4368 22.1426 76.4078 22.1939 76.3759 22.2435C76.3392 22.3074 76.2915 22.3789 76.2477 22.4684C76.2219 22.5142 76.1993 22.5616 76.1799 22.6103C76.1548 22.6629 76.1336 22.7172 76.1163 22.7727C76.0729 22.8976 76.0411 23.0261 76.0214 23.1567C76.0005 23.3052 75.9963 23.4555 76.0087 23.6049C76.0201 23.7663 76.0556 23.925 76.114 24.0759L76.1243 24.1054C76.1288 24.1203 76.1354 24.1345 76.144 24.1475L76.2171 24.277L76.2916 24.4088L76.3103 24.4422L76.3385 24.48L76.3965 24.5568L76.8521 25.1616L76.3861 25.1522L76.1347 25.1473L75.8913 25.1474C75.8234 25.1469 75.7557 25.154 75.6895 25.1687C75.6379 25.1751 75.5869 25.1847 75.5365 25.1973C75.4789 25.2124 75.4223 25.2308 75.3668 25.2524C75.1626 25.3299 74.9733 25.4418 74.8072 25.5833C74.6551 25.7154 74.5263 25.8719 74.426 26.0462C74.2595 26.3601 74.1836 26.7136 74.2066 27.0676C74.2233 27.3234 74.2761 27.5755 74.3633 27.8165C74.4263 27.9942 74.467 28.1067 74.4245 28.1456Z" fill="#A2A2A2"/>
<path d="M82.1683 11.7875C82.1218 11.766 82.1163 11.6375 82.2004 11.4308C82.3329 11.1408 82.54 10.8908 82.8008 10.7062C82.9826 10.573 83.1836 10.4682 83.397 10.3953C83.649 10.3087 83.9147 10.269 84.181 10.2782C84.4782 10.2922 84.7699 10.3633 85.0399 10.4876C85.3271 10.6219 85.5852 10.8105 85.8 11.043C85.8595 11.1067 85.9151 11.174 85.9665 11.2444C85.9803 11.2606 85.9927 11.278 86.0035 11.2963C86.008 11.3028 86.0121 11.3096 86.0158 11.3166C86.015 11.3218 86.0149 11.327 86.0157 11.3322C86.0161 11.3346 86.0183 11.3358 86.0225 11.3361C86.0221 11.3382 86.032 11.331 86.0405 11.3253L86.0536 11.3163L86.117 11.2686C86.3016 11.1245 86.5092 11.0123 86.731 10.9366C86.9239 10.8688 87.1251 10.8276 87.3292 10.8143C87.5031 10.8041 87.6775 10.8161 87.8483 10.85C87.922 10.8628 87.9945 10.882 88.0648 10.9074C88.1281 10.9265 88.1895 10.9512 88.2484 10.9812C88.3431 11.0249 88.4316 11.0808 88.5117 11.1474C88.5633 11.1889 88.6074 11.2388 88.642 11.2952C88.6658 11.3357 88.6705 11.3654 88.6563 11.3851C88.6421 11.4048 88.6119 11.413 88.567 11.4127C88.5081 11.4083 88.4496 11.4006 88.3916 11.3896C88.3184 11.3793 88.2342 11.3621 88.1343 11.355C88.0821 11.3483 88.0294 11.345 87.9767 11.3453C87.9184 11.3418 87.8599 11.3424 87.8017 11.3471C87.6693 11.3534 87.5378 11.372 87.4088 11.4026C87.2627 11.4386 87.121 11.4908 86.9864 11.5582C86.8403 11.629 86.7054 11.721 86.5863 11.8311L86.5629 11.8517C86.5506 11.8613 86.5399 11.8727 86.531 11.8855L86.4374 12.0015L86.342 12.1194L86.3179 12.1492L86.2931 12.1895L86.243 12.2717L85.8508 12.9185C85.7967 12.775 85.742 12.6302 85.6867 12.4839L85.5979 12.2493C85.568 12.1745 85.5379 12.0995 85.5077 12.0243C85.483 11.9615 85.4512 11.9016 85.413 11.8458C85.388 11.8006 85.3601 11.7569 85.3297 11.715C85.2942 11.6674 85.2561 11.6218 85.2155 11.5785C85.0676 11.4187 84.8931 11.2854 84.6998 11.1846C84.5202 11.0932 84.3263 11.0326 84.1264 11.0053C83.7722 10.9683 83.4144 11.03 83.093 11.1835C82.8608 11.2943 82.6454 11.4371 82.453 11.6076C82.3098 11.7328 82.2205 11.8122 82.1683 11.7875Z" fill="#A2A2A2"/>
<path d="M107.948 37.855C107.759 38.0937 107.532 38.3025 107.23 38.4516C106.965 38.6008 106.7 38.7201 106.398 38.8096C106.096 38.8991 105.793 38.9587 105.491 38.9885C105.151 39.0184 104.773 38.9885 104.432 38.9289C104.13 38.8692 103.941 38.6008 104.017 38.3323C104.017 38.3025 104.054 38.2726 104.054 38.2428C104.243 38.0042 104.47 37.7954 104.735 37.6164C104.999 37.4673 105.264 37.3181 105.529 37.2286C105.831 37.1093 106.133 37.0497 106.436 37.0198C106.776 36.99 107.116 36.99 107.456 37.0497C107.834 37.1392 108.061 37.4374 107.986 37.7357C107.986 37.7656 107.986 37.7954 107.948 37.855Z" fill="#171C22"/>
<path d="M80.5288 155.656C80.4687 155.665 80.3601 155.394 80.2301 154.852C80.1017 154.31 79.9643 153.496 79.8894 152.424C79.8674 152.156 79.8629 151.872 79.8493 151.572C79.8492 151.273 79.838 150.957 79.851 150.628C79.8614 149.967 79.9147 149.248 80.0087 148.475C80.0536 148.088 80.1179 147.689 80.1895 147.277C80.2293 147.072 80.2699 146.863 80.311 146.651C80.3347 146.546 80.3585 146.439 80.3826 146.332L80.4189 146.17L80.4362 146.084C80.481 145.876 80.5286 145.676 80.5793 145.486C80.5948 145.44 80.5802 145.383 80.5376 145.349C80.4968 145.313 80.4337 145.305 80.38 145.325C80.2744 145.358 80.1675 145.39 80.0591 145.423C79.9973 145.442 79.9363 145.46 79.877 145.482L79.7889 145.512L79.7457 145.527L79.6806 145.549C79.5423 145.592 79.4019 145.633 79.2625 145.68C79.1237 145.729 78.9837 145.778 78.8428 145.827C78.702 145.876 78.5601 145.925 78.4173 145.975C78.2762 146.029 78.1341 146.084 77.991 146.139C77.7053 146.25 77.4148 146.359 77.1274 146.487C75.9691 146.976 74.7844 147.565 73.6002 148.269C72.4162 148.974 71.2327 149.793 70.0816 150.736C69.7889 150.966 69.5139 151.222 69.2251 151.466L69.1432 151.537L69.0466 151.626L68.8532 151.809C68.7237 151.931 68.594 152.053 68.464 152.176C68.3335 152.299 68.2027 152.422 68.0716 152.546L67.8741 152.732L67.7751 152.825C67.7569 152.845 67.7449 152.848 67.7329 152.852L67.6957 152.865C67.4972 152.933 67.2978 153.002 67.0976 153.071L66.7956 153.174C66.74 153.197 66.7123 153.194 66.6466 153.181C66.5855 153.169 66.5132 153.142 66.4577 153.112C66.43 153.097 66.4055 153.081 66.3889 153.068C66.3723 153.06 66.3613 153.034 66.3484 153.008L66.273 152.859L66.1209 152.559C66.0182 152.359 65.9152 152.158 65.8117 151.956C65.7828 151.536 65.7536 151.114 65.7244 150.691C65.7149 150.584 65.6991 150.48 65.6868 150.374L65.6523 150.1L65.6093 149.769L65.5662 149.436C65.5539 149.324 65.5368 149.213 65.5137 149.102C65.4722 148.881 65.4306 148.658 65.3888 148.435C65.3452 148.212 65.3096 147.986 65.2595 147.762C65.2051 147.54 65.1505 147.316 65.0956 147.091C65.0409 146.867 64.986 146.642 64.931 146.415C64.8636 146.192 64.7959 145.968 64.7279 145.743C64.1874 143.945 63.4433 142.146 62.4866 140.404C61.5303 138.663 60.3614 136.977 58.982 135.417C58.6507 135.014 58.2707 134.653 57.9087 134.271C57.8168 134.177 57.7268 134.081 57.633 133.988L57.3419 133.72C57.1723 133.563 57.0022 133.406 56.8318 133.249C56.8055 133.228 56.7972 133.226 56.7832 133.217C56.7778 133.211 56.7659 133.22 56.7691 133.23L56.7715 133.256L56.7728 133.268C56.7731 133.27 56.7735 133.273 56.7735 133.273L56.7739 133.273C56.7738 133.277 56.7745 133.266 56.7737 133.281L56.7705 133.34C56.7522 133.657 56.739 133.976 56.7163 134.294C56.6665 134.93 56.6228 135.57 56.5517 136.211C56.4932 136.853 56.4062 137.495 56.3265 138.141C56.2793 138.463 56.2321 138.786 56.1847 139.109L56.1119 139.594L56.0283 140.079C55.5916 142.668 54.9664 145.271 54.1526 147.854C54.0605 148.14 53.9684 148.427 53.8765 148.712C53.8314 148.856 53.7792 148.996 53.731 149.138L53.5516 149.655L53.4074 150.07L53.2558 150.477L53.1798 150.679L53.1003 150.868L52.9415 151.245C52.7299 151.747 52.5186 152.249 52.3076 152.75L52.2285 152.937C52.2252 152.945 52.2219 152.954 52.2187 152.96L52.2093 152.964L52.1905 152.974L52.153 152.994L52.0029 153.073L51.7032 153.231L51.4041 153.389L51.3294 153.428C51.3024 153.446 51.2872 153.443 51.2494 153.446C51.1771 153.45 51.0594 153.446 50.9805 153.433C50.898 153.42 50.8869 153.415 50.8435 153.402L50.7329 153.369C50.6991 153.362 50.65 153.333 50.6087 153.315C50.5649 153.293 50.5251 153.28 50.4744 153.242C50.4253 153.207 50.3792 153.184 50.3278 153.139C50.2757 153.087 50.2243 153.05 50.1716 152.987L50.0923 152.885C50.0793 152.867 50.0657 152.853 50.0529 152.832L50.0155 152.763C49.9913 152.714 49.964 152.677 49.9424 152.619L49.8796 152.437C49.0505 149.171 48.236 145.964 47.4392 142.826C47.1089 141.514 46.7823 140.216 46.4596 138.934L46.3391 138.454L46.279 138.215L46.2755 138.2L46.2753 138.199L46.2749 138.196L46.2742 138.191L46.2673 138.143C46.2648 138.128 46.2653 138.099 46.2443 138.101C46.2306 138.107 46.2208 138.12 46.2072 138.13C46.1984 138.138 46.1894 138.146 46.1805 138.156L46.1736 138.163L46.1701 138.166L46.1391 138.204L45.9442 138.443C45.8107 138.599 45.6937 138.767 45.5715 138.93C45.4501 139.095 45.3289 139.258 45.208 139.422C44.9754 139.755 44.7555 140.095 44.5305 140.429C44.3253 140.775 44.1123 141.115 43.9148 141.461C43.1324 142.851 42.505 144.29 42.0277 145.74C41.5502 147.189 41.2227 148.65 41.0356 150.088C40.9967 150.448 40.9377 150.805 40.9211 151.162L40.899 151.478C40.8893 151.648 40.8733 151.813 40.8689 151.985C40.8654 152.157 40.8619 152.329 40.8585 152.5C40.8264 152.622 40.7875 152.732 40.7526 152.848C40.6815 153.076 40.6106 153.304 40.5399 153.531L40.4352 153.87L40.4092 153.954C40.3968 153.968 40.3803 153.983 40.3592 154C40.3164 154.033 40.2579 154.069 40.1992 154.094C40.1398 154.119 40.087 154.135 40.0492 154.135L39.8909 154.104L39.5758 154.042L39.2626 153.979L39.1066 153.947C39.054 153.935 39.0092 153.938 38.9316 153.878C38.631 153.684 38.3317 153.491 38.0338 153.3L37.8116 153.156L37.7008 153.085L37.6456 153.05L37.615 153.032L37.3698 152.892C37.2067 152.8 37.0443 152.707 36.8826 152.615C36.7171 152.529 36.5525 152.444 36.3885 152.359C36.064 152.183 35.7256 152.042 35.399 151.884C35.0655 151.741 34.7355 151.598 34.4031 151.47C33.0733 150.958 31.7464 150.591 30.4569 150.35C30.1345 150.29 29.8134 150.245 29.4971 150.193C29.376 150.174 29.2564 150.157 29.1382 150.139C28.8981 150.109 28.6416 150.086 28.37 150.073C28.3007 150.071 28.232 150.069 28.1637 150.067L28.0584 150.063C28.0233 150.061 27.9865 150.063 27.9555 150.078C27.8933 150.108 27.8633 150.178 27.8792 150.231C27.8962 150.287 27.9551 150.298 27.9973 150.325C28.1815 150.421 28.3718 150.534 28.5628 150.668C28.7175 150.771 28.8688 150.891 29.0263 151.014C29.1704 151.132 29.3125 151.248 29.4524 151.363C29.615 151.49 29.7645 151.628 29.9123 151.762C30.5118 152.292 31.0171 152.847 31.4653 153.377C32.3492 154.45 32.9545 155.47 33.3667 156.327C33.5803 156.753 33.7256 157.148 33.8582 157.484C33.9721 157.828 34.065 158.118 34.1248 158.355C34.2323 158.835 34.2591 159.088 34.203 159.105C34.1469 159.123 34.0096 158.905 33.8001 158.476C33.6893 158.265 33.5518 158.003 33.3884 157.692C33.2104 157.389 33.0232 157.032 32.7726 156.651C32.2866 155.881 31.6271 154.972 30.7246 154.028C30.2672 153.563 29.7616 153.078 29.1736 152.621C29.0287 152.505 28.8828 152.385 28.7247 152.277C28.647 152.221 28.5688 152.164 28.49 152.108L28.3715 152.022L28.337 151.997C28.3161 151.981 28.297 151.967 28.2826 151.958C28.2512 151.935 28.2186 151.914 28.1842 151.893C27.911 151.724 27.634 151.552 27.3531 151.378C27.2808 151.334 27.2139 151.288 27.136 151.246C27.0538 151.204 26.9713 151.161 26.8885 151.119C26.7216 151.034 26.5536 150.948 26.3844 150.862C26.2954 150.804 26.2061 150.746 26.1164 150.688L25.9834 150.601L25.9114 150.532C25.816 150.439 25.7199 150.346 25.623 150.252C25.4032 150.031 25.3059 149.946 25.1695 149.81L25.0732 149.715C25.0427 149.688 25.0163 149.638 25.0058 149.565C24.9817 149.419 25.0349 149.215 25.1267 149.096C25.1741 149.035 25.2124 149.008 25.2645 148.987L25.4138 148.915C25.5128 148.865 25.6124 148.816 25.7127 148.766L25.7875 148.728C25.8028 148.723 25.8063 148.714 25.8311 148.711L25.8971 148.7C25.9853 148.685 26.0737 148.67 26.1625 148.655C26.3406 148.625 26.52 148.594 26.7006 148.563L26.8366 148.539C26.8872 148.534 26.953 148.539 27.0108 148.538C27.1305 148.538 27.2506 148.539 27.3711 148.539C27.6139 148.54 27.8582 148.541 28.1041 148.542C28.6097 148.562 29.1488 148.612 29.6837 148.647C30.0248 148.689 30.3716 148.725 30.7204 148.776C32.115 148.984 33.5582 149.33 35.0139 149.839C35.3776 149.966 35.7397 150.11 36.1058 150.254C36.4652 150.414 36.8365 150.558 37.1948 150.739C37.3756 150.826 37.5572 150.913 37.7397 151.001C37.9185 151.097 38.0981 151.192 38.2786 151.289C38.4382 151.374 38.5994 151.46 38.762 151.547L38.8521 151.598L38.8954 151.623C38.9096 151.63 38.9227 151.645 38.9406 151.638C38.9592 151.632 38.9633 151.608 38.96 151.59L38.9572 151.533L38.9516 151.423C38.9492 151.387 38.9483 151.352 38.9486 151.319L38.9481 151.267L38.9591 151.026C38.9692 150.637 39.0225 150.25 39.0566 149.857C39.2247 148.292 39.5474 146.699 40.0368 145.113C40.526 143.528 41.1818 141.95 42.0123 140.421C42.2219 140.04 42.4482 139.665 42.6679 139.284C42.9076 138.915 43.1433 138.54 43.3932 138.172C43.5231 137.991 43.6532 137.81 43.7837 137.628C43.9152 137.447 44.0418 137.262 44.1855 137.088C44.3767 136.849 44.5684 136.609 44.7605 136.368C45.0282 136.057 45.3049 135.749 45.5823 135.434C45.7747 135.338 45.9673 135.242 46.1604 135.146L46.4507 135.001L46.5234 134.965C46.5353 134.96 46.548 134.952 46.5594 134.949L46.5913 134.946C46.6355 134.942 46.6857 134.941 46.7421 134.943C46.9659 134.946 47.2481 135.045 47.3829 135.134C47.5152 135.218 47.6564 135.329 47.7988 135.502L47.9007 135.652C47.9338 135.705 47.9619 135.772 47.9927 135.831C48.0214 135.894 48.042 135.972 48.0671 136.042L48.1275 136.273C48.2078 136.583 48.2881 136.893 48.3686 137.203C48.4701 137.592 48.5719 137.983 48.6741 138.374C49.008 139.653 49.3461 140.948 49.688 142.257C50.2355 144.363 50.7952 146.515 51.3651 148.706C51.3673 148.71 51.3695 148.704 51.3695 148.699L51.3693 148.696C51.452 148.455 51.535 148.214 51.6181 147.972C51.7062 147.698 51.7944 147.423 51.8829 147.148C52.6641 144.668 53.2695 142.17 53.6986 139.684L53.7808 139.219L53.8526 138.753C53.8996 138.443 53.9464 138.133 53.9931 137.824C54.0725 137.204 54.1597 136.588 54.2193 135.971C54.2914 135.356 54.3369 134.742 54.3892 134.131C54.4132 133.825 54.4278 133.519 54.4477 133.215L54.4715 132.817C54.4817 132.662 54.484 132.507 54.4905 132.352C54.5016 132.045 54.5127 131.737 54.5237 131.43C54.679 131.097 54.834 130.765 54.9885 130.433C55.0231 130.332 55.0712 130.312 55.1457 130.255C55.2189 130.203 55.31 130.15 55.4067 130.108C55.503 130.067 55.6054 130.036 55.6925 130.02C55.7359 130.011 55.7768 130.005 55.8104 130.002C55.8251 129.993 55.8522 130.015 55.8752 130.026L55.9461 130.065C56.3235 130.271 56.7 130.478 57.0756 130.683L57.637 130.991L57.7771 131.068C57.8241 131.095 57.8683 131.112 57.9218 131.163C58.0247 131.249 58.1296 131.335 58.2215 131.425C58.4564 131.646 58.6906 131.867 58.9243 132.087L59.2373 132.382C59.3383 132.484 59.4352 132.589 59.534 132.692C59.9236 133.11 60.3299 133.509 60.685 133.948C62.1608 135.656 63.3984 137.494 64.4003 139.388C65.4024 141.281 66.1692 143.231 66.7123 145.177C66.7802 145.42 66.8479 145.662 66.9154 145.904C66.9699 146.148 67.0241 146.392 67.0783 146.634C67.1319 146.877 67.1854 147.119 67.2386 147.359C67.2871 147.601 67.3211 147.845 67.3625 148.085C67.402 148.327 67.4413 148.567 67.4804 148.806C67.5021 148.925 67.5178 149.045 67.5287 149.166C67.5416 149.286 67.5544 149.405 67.5672 149.525C67.5799 149.644 67.5926 149.764 67.6052 149.883L67.61 149.927L67.6108 149.939L67.6112 149.952L67.6122 149.98C67.6152 150.021 67.6152 150.064 67.6148 150.109C67.6176 150.188 67.6087 150.276 67.6216 150.361C67.6345 150.381 67.6603 150.377 67.6708 150.363L67.7124 150.327L67.7994 150.253C67.871 150.196 67.9419 150.14 68.0123 150.084C68.3275 149.831 68.6288 149.567 68.9475 149.331C70.2029 148.362 71.4873 147.532 72.7668 146.829C74.0465 146.126 75.3212 145.551 76.5627 145.086C76.8708 144.964 77.1816 144.861 77.4874 144.757C77.6403 144.706 77.7922 144.655 77.9431 144.604C78.0955 144.559 78.247 144.513 78.3974 144.468C78.5477 144.423 78.697 144.379 78.8452 144.334C78.9938 144.291 79.1433 144.255 79.2907 144.216C79.3975 144.188 79.5039 144.159 79.6099 144.131C79.7232 144.1 79.8353 144.07 79.9455 144.045C80.1666 143.993 80.386 143.942 80.6037 143.891C80.8964 143.899 81.1854 143.906 81.4705 143.913C81.5089 143.911 81.5359 143.919 81.5649 143.929C81.5949 143.939 81.6256 143.952 81.6566 143.969C81.719 144.003 81.7803 144.051 81.833 144.107C81.9393 144.22 82.0019 144.361 82 144.473C81.984 144.746 81.9777 145.003 81.9489 145.273C81.8456 145.602 81.7437 145.925 81.6434 146.244C81.5773 146.473 81.5122 146.699 81.4481 146.922C81.3965 147.121 81.3457 147.316 81.2958 147.509C81.2031 147.896 81.1164 148.272 81.0481 148.637C80.9074 149.368 80.8032 150.052 80.7395 150.684C80.7 150.999 80.6839 151.302 80.6562 151.59C80.6421 151.879 80.6183 152.154 80.6118 152.414C80.5722 153.454 80.59 154.26 80.5977 154.808C80.6066 155.355 80.593 155.646 80.5288 155.656Z" fill="#222831"/>
<path d="M10.5753 120.363C10.4769 120.577 7.82117 119.595 3.607 117.833C3.08098 117.611 2.52983 117.378 1.95558 117.136C1.88388 117.106 1.81186 117.075 1.73946 117.044C1.6332 116.998 1.52641 116.951 1.41909 116.905C1.15979 116.789 0.8913 116.674 0.626625 116.553C0.491599 116.492 0.402334 116.413 0.315942 116.338C0.280728 116.301 0.243545 116.262 0.212189 116.225C0.185595 116.189 0.156168 116.151 0.131871 116.116C0.111187 116.081 0.0880804 116.049 0.0694886 116.012C0.0508148 115.973 0.0318948 115.923 0.0192541 115.867C-0.00717656 115.755 -0.00516554 115.621 0.0177766 115.523C0.023194 115.498 0.0296785 115.476 0.0363272 115.457C0.0483934 115.436 0.0796259 115.416 0.100393 115.395L0.240344 115.271C0.334164 115.188 0.428354 115.104 0.522954 115.02C0.713345 114.851 0.905336 114.679 1.09881 114.507L1.17178 114.442L1.19004 114.425L1.2154 114.41L1.26642 114.379C1.33487 114.335 1.40202 114.299 1.4697 114.262C1.55703 114.214 1.64474 114.165 1.73277 114.116C1.8925 114.027 2.05351 113.938 2.21562 113.848C2.54568 113.679 2.88599 113.517 3.22889 113.349C3.58016 113.201 3.93476 113.045 4.29867 112.9C5.76036 112.335 7.36233 111.91 9.05532 111.679C9.16105 111.664 9.26705 111.649 9.37323 111.634C9.4794 111.618 9.58689 111.612 9.69405 111.601C9.90869 111.581 10.1242 111.562 10.3407 111.542L10.5032 111.527L10.6665 111.521C10.7756 111.516 10.8848 111.512 10.9943 111.507C11.2133 111.5 11.433 111.487 11.6538 111.485C11.8747 111.488 12.0963 111.491 12.3188 111.493C12.43 111.495 12.5414 111.496 12.653 111.498C12.7645 111.505 12.8761 111.512 12.988 111.519C13.2116 111.533 13.436 111.548 13.6611 111.562C13.8859 111.581 14.1103 111.612 14.3359 111.637C14.4847 111.655 14.6331 111.673 14.7812 111.69C14.9287 111.713 15.0753 111.74 15.2219 111.764C15.3435 111.785 15.4648 111.806 15.5859 111.827C15.5763 111.826 15.5836 111.828 15.5819 111.828C15.5834 111.83 15.5907 111.834 15.5907 111.829C15.5911 111.828 15.5914 111.827 15.5916 111.825L15.5917 111.823V111.821L15.5629 111.759C15.455 111.519 15.3367 111.285 15.2102 111.058C15.1492 110.943 15.0792 110.834 15.0149 110.722C14.9455 110.613 14.8779 110.503 14.8062 110.396L14.6975 110.237C14.6255 110.128 14.5324 110.018 14.4478 109.909C14.3617 109.8 14.2758 109.691 14.19 109.583C14.0961 109.474 13.9903 109.364 13.8916 109.256C13.6867 109.038 13.5004 108.823 13.3128 108.609L13.2424 108.528L13.2073 108.488C13.1961 108.475 13.1806 108.46 13.1819 108.453L13.1503 108.341L13.0872 108.119C13.0718 108.076 13.0789 108.061 13.0776 108.036L13.0782 107.966C13.0793 107.922 13.077 107.867 13.0807 107.833L13.0947 107.743L13.1014 107.699C13.1032 107.684 13.1073 107.67 13.114 107.646C13.1299 107.595 13.1606 107.517 13.2065 107.443C13.2504 107.369 13.3106 107.298 13.3599 107.252C13.3851 107.227 13.4059 107.213 13.423 107.2C13.4484 107.191 13.4804 107.186 13.5087 107.179L13.6835 107.139C13.7999 107.113 13.916 107.088 14.0315 107.062L14.2046 107.025L14.291 107.007L14.3126 107.002C14.3195 107 14.3257 106.998 14.3407 107.003L14.417 107.019C14.9083 107.174 15.3951 107.326 15.877 107.478C16.1134 107.55 16.3616 107.635 16.5923 107.731C16.731 107.787 16.8691 107.844 17.0065 107.9C17.1348 107.954 17.2648 108.002 17.3896 108.061C17.5144 108.119 17.6385 108.177 17.7619 108.234C18.0075 108.352 18.2553 108.458 18.4879 108.587C18.7226 108.712 18.9545 108.835 19.1836 108.956C19.4065 109.088 19.6267 109.219 19.8439 109.347C19.9515 109.413 20.0611 109.474 20.1649 109.542C20.2686 109.611 20.3716 109.679 20.4738 109.747C20.6769 109.884 20.8818 110.012 21.0741 110.152C22.6232 111.26 23.8328 112.421 24.7271 113.463C25.6226 114.506 26.2089 115.422 26.5709 116.066C26.9172 116.721 27.0539 117.098 26.981 117.143C26.8091 117.253 25.9352 115.939 24.0382 114.115C23.0864 113.21 21.8595 112.2 20.3449 111.242C20.1569 111.12 19.9571 111.011 19.7599 110.891C19.6608 110.833 19.561 110.774 19.4605 110.714C19.3601 110.655 19.2541 110.603 19.1502 110.547C18.9412 110.436 18.7295 110.323 18.5151 110.21C18.296 110.105 18.0742 110 17.8496 109.893C17.6279 109.781 17.392 109.692 17.1591 109.591C17.0421 109.542 16.9245 109.492 16.8063 109.442C16.6882 109.392 16.5652 109.351 16.4441 109.305C16.3308 109.264 16.2169 109.222 16.1024 109.18C16.0807 109.174 16.0709 109.172 16.0578 109.17C16.0332 109.167 16.0123 109.164 15.9949 109.163C15.9786 109.162 15.9651 109.163 15.9544 109.164C15.949 109.165 15.9445 109.163 15.9401 109.167C15.9357 109.172 15.9355 109.185 15.9434 109.194C15.9714 109.216 15.9998 109.239 16.0287 109.262L16.0416 109.273C16.0444 109.275 16.0436 109.273 16.0489 109.279L16.1798 109.464C16.266 109.588 16.3479 109.716 16.4311 109.843C16.5093 109.973 16.5927 110.101 16.6668 110.236C16.8195 110.501 16.9625 110.775 17.0933 111.056C17.11 111.093 17.1236 111.116 17.1543 111.189L17.2352 111.385C17.2892 111.516 17.3433 111.648 17.3975 111.779C17.4889 112.04 17.5792 112.302 17.6623 112.564C17.6669 112.766 17.7197 113.021 17.6366 113.131L17.5562 113.344C17.5269 113.399 17.4343 113.509 17.3767 113.556L17.3579 113.571L17.3193 113.572L17.2421 113.575L17.0875 113.579L16.7777 113.588C16.5707 113.594 16.3633 113.599 16.1553 113.605L15.8429 113.614C15.7071 113.59 15.5665 113.547 15.4198 113.528C15.2613 113.501 15.1024 113.474 14.9432 113.447C14.8087 113.424 14.6745 113.399 14.5391 113.379C14.4031 113.363 14.2669 113.347 14.1303 113.331C13.9232 113.309 13.7174 113.279 13.511 113.261C13.3042 113.247 13.098 113.234 12.8926 113.22L12.5849 113.199L12.2774 113.194C12.0728 113.19 11.8688 113.187 11.6656 113.183C11.4624 113.183 11.26 113.194 11.0583 113.199C10.9574 113.202 10.8568 113.205 10.7563 113.208L10.6057 113.213L10.4558 113.225C10.2562 113.241 10.0573 113.257 9.85924 113.272C9.76033 113.282 9.66105 113.285 9.563 113.299C9.46487 113.311 9.36699 113.324 9.26931 113.337C7.70469 113.528 6.21686 113.889 4.84924 114.373C4.50889 114.498 4.1767 114.632 3.84623 114.758C3.52447 114.904 3.20373 115.042 2.89186 115.187C2.73861 115.265 2.58643 115.342 2.43544 115.419C2.36809 115.453 2.30099 115.487 2.23413 115.52L2.19157 115.538C2.14364 115.559 2.08618 115.582 2.02597 115.614C2.01325 115.625 2.00754 115.641 2.01029 115.655C2.01259 115.67 2.02478 115.676 2.03512 115.683C2.05835 115.698 2.08142 115.713 2.10424 115.728C2.13108 115.745 2.15767 115.762 2.18402 115.778L2.20565 115.792C2.20926 115.794 2.20532 115.792 2.21517 115.797L2.24172 115.81L2.29475 115.836C2.36534 115.871 2.43556 115.905 2.50546 115.94C3.0637 116.217 3.59949 116.483 4.11087 116.736C8.1962 118.779 10.6737 120.149 10.5753 120.363Z" fill="#222831"/>
<path d="M177.992 123.464C177.969 123.491 177.894 123.47 177.767 123.402C177.639 123.334 177.46 123.22 177.242 123.047C176.807 122.705 176.195 122.146 175.548 121.297C175.221 120.876 174.895 120.377 174.58 119.804C174.499 119.664 174.422 119.509 174.35 119.364C174.31 119.294 174.272 119.222 174.238 119.151C174.166 119.012 174.105 118.876 174.054 118.746C174.001 118.616 173.96 118.492 173.927 118.377C173.922 118.363 173.921 118.347 173.91 118.335C173.899 118.324 173.878 118.321 173.859 118.329C173.84 118.336 173.824 118.357 173.818 118.38L173.814 118.412C173.809 118.453 173.805 118.488 173.803 118.518C173.801 118.549 173.8 118.574 173.801 118.594C173.801 118.604 173.802 118.612 173.803 118.62L173.805 118.63L173.806 118.634L173.806 118.636L173.807 118.637C173.806 118.639 173.809 118.631 173.804 118.647C173.706 119.005 173.606 119.368 173.505 119.735C173.453 119.919 173.407 120.12 173.329 120.26C173.253 120.401 173.169 120.511 173.088 120.6C173.048 120.644 173.009 120.68 172.969 120.719C172.93 120.751 172.9 120.785 172.853 120.815C172.8 120.847 172.711 120.872 172.638 120.875C172.621 120.876 172.603 120.876 172.589 120.874C172.574 120.873 172.565 120.875 172.547 120.858L172.455 120.783C172.207 120.581 171.955 120.377 171.701 120.17C171.573 120.066 171.443 119.962 171.313 119.857C171.182 119.747 171.054 119.669 170.91 119.482C170.73 119.265 170.547 119.045 170.363 118.823C170.03 118.434 169.712 118.02 169.384 117.601C169.051 117.186 168.74 116.742 168.411 116.3C167.114 114.515 165.868 112.503 164.714 110.301C164.642 110.163 164.569 110.025 164.496 109.887C164.427 109.747 164.358 109.606 164.288 109.465C164.149 109.182 164.01 108.898 163.869 108.612C163.737 108.322 163.604 108.031 163.47 107.738C163.403 107.591 163.336 107.444 163.269 107.297C163.206 107.147 163.143 106.998 163.079 106.848C162.953 106.548 162.826 106.246 162.699 105.942C162.58 105.635 162.46 105.327 162.34 105.016C162.28 104.861 162.22 104.706 162.16 104.55C162.104 104.392 162.048 104.234 161.993 104.076C161.881 103.759 161.77 103.441 161.658 103.121C161.454 102.474 161.233 101.826 161.051 101.161C161.004 100.995 160.956 100.829 160.908 100.663L160.836 100.413L160.832 100.397C160.648 100.439 162.403 99.9637 161.666 100.164C161.675 100.161 161.681 100.158 161.684 100.156C161.691 100.151 161.69 100.151 161.688 100.155C161.683 100.164 161.686 100.172 161.683 100.159C161.678 100.146 161.67 100.154 161.708 100.163C163.404 100.467 162.177 100.256 162.555 100.328L162.552 100.343L162.548 100.374L162.539 100.435L162.502 100.68C162.477 100.844 162.452 101.008 162.428 101.172C162.403 101.336 162.378 101.5 162.353 101.665C162.335 101.831 162.317 101.997 162.299 102.163C162.266 102.496 162.225 102.829 162.197 103.165C162.158 103.837 162.103 104.514 162.104 105.197C162.044 108.765 162.574 112.229 163.538 115.375C163.659 115.768 163.795 116.154 163.921 116.54L164.018 116.828L164.126 117.111C164.198 117.299 164.27 117.487 164.341 117.674C164.415 117.86 164.478 118.049 164.56 118.231C164.639 118.413 164.717 118.595 164.796 118.776L164.913 119.047L165.015 119.281C165.054 119.376 165.099 119.463 165.142 119.552C165.314 119.902 165.485 120.251 165.656 120.599C165.825 120.944 165.993 121.287 166.161 121.63C166.244 121.8 166.327 121.97 166.41 122.139C166.442 122.193 166.428 122.196 166.426 122.213L166.416 122.258L166.396 122.348C166.344 122.587 166.295 122.827 166.25 123.065C166.242 123.095 166.118 123.227 166.041 123.268C166.001 123.293 165.996 123.288 165.979 123.292L165.934 123.299L165.844 123.311L165.713 123.325L165.537 123.341L165.449 123.348L165.405 123.352C165.381 123.345 165.343 123.33 165.312 123.319C165.055 123.226 164.799 123.133 164.545 123.041C164.331 122.886 164.119 122.731 163.906 122.577L163.591 122.35L163.434 122.237C163.383 122.201 163.326 122.155 163.285 122.138C163.107 122.047 162.929 121.956 162.752 121.865L162.487 121.729C162.402 121.686 162.296 121.629 162.267 121.622C162.079 121.548 161.896 121.466 161.708 121.4C161.518 121.339 161.332 121.268 161.142 121.216C160.385 120.995 159.621 120.874 158.877 120.843C158.691 120.841 158.506 120.839 158.323 120.836C158.075 120.851 158.119 120.843 158.051 120.844C157.953 120.847 157.847 120.854 157.735 120.87C157.678 120.876 157.621 120.89 157.561 120.901C157.532 120.909 157.498 120.907 157.472 120.923C157.447 120.943 157.454 120.977 157.475 120.986C157.551 121.048 157.626 121.108 157.699 121.167C157.754 121.212 157.809 121.256 157.862 121.3L157.958 121.379L158.007 121.418L158.109 121.498C158.43 121.745 158.74 121.988 159.036 122.231C159.628 122.717 160.175 123.188 160.669 123.646C161.662 124.556 162.46 125.394 163.083 126.102C164.327 127.521 164.879 128.405 164.783 128.487C164.676 128.582 163.931 127.871 162.546 126.644C161.852 126.033 160.995 125.295 159.961 124.489C159.446 124.084 158.884 123.666 158.279 123.234C157.978 123.017 157.663 122.801 157.338 122.581C157.092 122.416 156.843 122.25 156.59 122.081C156.45 121.989 156.321 121.899 156.168 121.803C156.017 121.707 155.864 121.61 155.711 121.513C155.62 121.429 155.528 121.345 155.437 121.26L155.368 121.196C155.345 121.174 155.317 121.151 155.313 121.137L155.256 121.039C155.18 120.907 155.105 120.773 155.031 120.638C155.009 120.603 155.001 120.578 155 120.519C155 120.465 155.012 120.399 155.032 120.35C155.042 120.325 155.052 120.306 155.063 120.291L155.107 120.247L155.194 120.157C155.253 120.096 155.311 120.035 155.37 119.974L155.458 119.882C155.515 119.857 155.578 119.835 155.639 119.811C155.762 119.763 155.885 119.716 156.009 119.668L156.197 119.596C156.229 119.584 156.258 119.57 156.292 119.56L156.408 119.536C156.718 119.473 157.029 119.404 157.351 119.343L157.601 119.307C157.686 119.296 157.776 119.29 157.864 119.282C157.994 119.27 158.124 119.258 158.254 119.247C158.47 119.24 158.687 119.233 158.905 119.227C159.781 119.227 160.684 119.335 161.585 119.565C161.811 119.619 162.033 119.694 162.26 119.759C162.485 119.831 162.706 119.919 162.931 120.001C163.024 120.036 163.117 120.072 163.212 120.109C163.25 120.126 163.283 120.142 163.31 120.158C163.324 120.166 163.335 120.175 163.347 120.182C163.353 120.185 163.357 120.191 163.364 120.19C163.372 120.188 163.378 120.172 163.369 120.161C163.32 120.088 163.271 120.014 163.221 119.939L163.195 119.9C163.193 119.897 163.191 119.892 163.191 119.894L163.19 119.894L163.19 119.895C163.19 119.896 163.19 119.895 163.186 119.887L163.17 119.851L163.04 119.566C162.954 119.375 162.867 119.184 162.779 118.992C162.69 118.801 162.619 118.601 162.537 118.405C162.458 118.207 162.378 118.009 162.299 117.811L162.179 117.512L162.071 117.207C161.931 116.8 161.78 116.392 161.646 115.976C160.577 112.648 159.986 108.965 160.05 105.162C160.049 104.434 160.108 103.712 160.152 102.995C160.183 102.637 160.227 102.281 160.265 101.926C160.285 101.749 160.304 101.572 160.324 101.395C160.352 101.22 160.379 101.044 160.406 100.869C160.434 100.694 160.461 100.519 160.489 100.345L160.53 100.083L160.554 99.935C160.586 99.7742 160.654 99.6009 160.776 99.4451C160.894 99.2921 161.055 99.1687 161.222 99.0974C161.558 98.954 161.923 98.9657 162.257 99.1537C162.421 99.2463 162.569 99.392 162.663 99.5494C162.687 99.5886 162.709 99.6297 162.728 99.6704C162.745 99.7085 162.76 99.7477 162.774 99.7875C162.789 99.8309 162.8 99.8729 162.797 99.8641L162.801 99.8791L162.869 100.119C162.913 100.279 162.958 100.439 163.003 100.598C163.172 101.238 163.379 101.862 163.568 102.485C163.672 102.793 163.776 103.1 163.879 103.405C163.931 103.558 163.983 103.71 164.034 103.862C164.09 104.013 164.146 104.163 164.202 104.313C164.313 104.612 164.424 104.91 164.534 105.207C164.652 105.501 164.77 105.793 164.887 106.083C164.946 106.228 165.004 106.373 165.063 106.518C165.125 106.66 165.187 106.803 165.249 106.945C165.373 107.229 165.496 107.512 165.618 107.793C165.748 108.07 165.877 108.346 166.005 108.621C166.069 108.758 166.133 108.895 166.197 109.031C166.265 109.166 166.332 109.3 166.399 109.434C167.465 111.578 168.612 113.551 169.806 115.318C170.11 115.755 170.394 116.196 170.702 116.609C171.003 117.025 171.295 117.438 171.601 117.828C171.676 117.926 171.751 118.024 171.825 118.122L171.937 118.267L171.963 118.302L171.97 118.313L171.986 118.335C172.02 118.386 172.058 118.438 172.097 118.493C172.138 118.551 172.18 118.608 172.22 118.665C172.232 118.679 172.24 118.698 172.257 118.706C172.273 118.714 172.292 118.71 172.302 118.699C172.315 118.673 172.324 118.645 172.336 118.617C172.386 118.491 172.434 118.368 172.482 118.248C172.743 117.719 172.997 117.204 173.245 116.703C173.364 116.457 173.481 116.214 173.597 115.975L173.682 115.799C173.701 115.78 173.752 115.76 173.812 115.759C173.871 115.756 173.934 115.768 173.968 115.79C174.001 115.81 174.005 115.835 174.024 115.858C174.055 115.907 174.085 115.955 174.115 116.003C174.131 116.028 174.143 116.05 174.161 116.077L174.226 116.168C174.268 116.23 174.31 116.291 174.352 116.352L174.383 116.398L174.422 116.47L174.5 116.619C174.551 116.717 174.601 116.815 174.651 116.912L174.67 116.948C174.675 116.963 174.68 116.986 174.685 117.005L174.715 117.123C174.734 117.2 174.754 117.278 174.774 117.355C174.812 117.508 174.85 117.659 174.888 117.809C174.93 117.948 174.975 118.074 175.017 118.204C175.059 118.332 175.101 118.459 175.143 118.584C175.186 118.706 175.232 118.823 175.28 118.936C175.34 119.091 175.394 119.229 175.457 119.368C175.698 119.922 175.952 120.417 176.209 120.845C176.717 121.709 177.205 122.326 177.533 122.751C177.697 122.965 177.826 123.126 177.906 123.244C177.986 123.362 178.016 123.437 177.992 123.464Z" fill="#222831"/>
</svg>
