<svg width="586" height="500" viewBox="0 0 586 500" fill="none" xmlns="http://www.w3.org/2000/svg">
<path d="M392.407 462.03C399.658 491.115 434.072 499.686 460.108 499.995C471.898 500.138 484.131 497.218 493.14 489.595C495.905 487.262 498.069 484.65 499.73 481.844C506.387 470.624 505.14 456.221 502.751 443.3C498.333 419.37 495.815 396.027 494.621 371.683C493.021 339.008 492.667 306.274 493.554 273.569C493.711 267.542 493.914 261.514 494.162 255.494C494.944 236.5 504.848 200.53 490.991 184.268C468.277 157.591 438.611 180.241 433.802 206.851C428.76 234.739 423.725 262.628 418.684 290.516V290.524C417.864 295.047 417.045 299.562 416.226 304.085C408.712 345.707 401.183 387.328 393.662 428.951C391.685 439.899 389.717 451.239 392.407 462.03Z" fill="#E24444"/>
<path d="M87.5012 340.647C91.7393 358.151 96.8639 375.789 106.835 390.78C116.806 405.763 109.11 418.34 126.236 423.831C156.75 433.613 180.119 418.39 228.322 376.865C269.612 341.294 318.115 313.759 370.864 300.184C403.91 291.681 438.077 288.219 471.176 279.903C478.796 277.992 486.4 275.779 493.884 273.198C518.913 264.581 542.522 251.856 560.188 232.389C583.136 207.097 593.784 168.507 579.146 137.639C567.401 112.852 541.786 97.0858 515.359 89.8693C501.443 86.0693 487.159 84.2708 472.762 83.202C459.8 82.2462 446.756 81.8698 433.801 81.1549C398.658 79.2138 363.657 74.6682 329.168 67.6097C267.689 55.0196 206.495 10.6879 144.557 2.53993C111.495 -1.80985 81.7083 64.7725 76.2227 103.039C64.8993 182.001 68.7539 263.114 87.5012 340.647Z" fill="#E24444"/>
<path d="M129.993 428.994C58.1999 428.994 -6.10352e-05 332.96 -6.10352e-05 214.497C-6.10352e-05 96.0335 58.1999 0 129.993 0C201.786 0 259.986 96.0335 259.986 214.497C259.986 332.96 201.786 428.994 129.993 428.994Z" fill="#9E2F2F"/>
<path d="M21.0393 214.495C21.0393 245.205 25.4423 274.719 33.7608 301.171C34.3169 302.924 34.8877 304.67 35.4739 306.401C40.9063 322.399 47.8043 337.186 56.0625 350.333C76.6511 383.12 102.905 401.18 129.993 401.18C157.081 401.18 183.335 383.119 203.924 350.333C213.301 335.41 220.921 318.366 226.631 299.853C228.938 292.381 230.929 284.668 232.605 276.751C236.775 257.02 238.947 236.055 238.947 214.495C238.947 200.535 238.037 186.825 236.257 173.542C235.295 166.318 234.078 159.222 232.613 152.276C226.797 124.741 217.088 99.6221 203.924 78.6644C183.336 45.8695 157.082 27.8164 129.994 27.8164C102.905 27.8164 76.6516 45.8695 56.0631 78.6644C33.4754 114.628 21.0393 162.865 21.0393 214.495Z" fill="#171C22"/>
<path d="M483.282 97.8712C503.652 127.295 514.337 163.303 513.511 199.086C512.924 224.385 506.973 251.13 493.884 273.202C518.913 264.585 542.522 251.86 560.188 232.392C583.136 207.1 593.784 168.51 579.146 137.642C567.401 112.855 541.786 97.0889 515.359 89.8724C501.443 86.0724 487.159 84.2739 472.762 83.2051C476.294 88.1715 479.945 93.048 483.282 97.8712Z" fill="#9E2F2F"/>
<path d="M126.514 255.785C135.509 268.924 149.5 278.624 166.369 281.777L226.631 299.853C228.938 292.38 230.929 284.667 232.605 276.75C236.775 257.02 238.947 236.054 238.947 214.494C238.947 200.535 238.037 186.824 236.257 173.542L189.174 159.417C155.436 153.111 122.983 175.393 116.686 209.182C113.537 226.076 117.52 242.646 126.514 255.785Z" fill="#E24444"/>
<path d="M148.602 254.832C148.643 255.187 149.023 255.471 149.754 255.678C150.477 255.868 151.586 256.081 152.945 255.918C155.706 255.769 159.692 254.611 163.818 251.973C172.095 246.727 180.971 236.21 185.452 222.062C186.611 218.441 187.18 214.746 187.39 211.205C187.598 207.658 187.402 204.24 186.881 201.072C186.679 199.476 186.284 197.967 185.971 196.49C185.766 195.766 185.565 195.053 185.366 194.35C185.172 193.647 184.961 192.964 184.716 192.306C184.479 191.646 184.248 190.998 184.019 190.361C183.784 189.729 183.508 189.127 183.259 188.531C183 187.938 182.761 187.352 182.492 186.796C182.214 186.244 181.943 185.705 181.678 185.178C179.507 180.995 177.243 177.957 175.448 176.051C173.623 174.161 172.304 173.367 171.713 173.747C170.431 174.559 172.609 179.717 174.891 187.874C175.031 188.383 175.173 188.904 175.319 189.437C175.461 189.969 175.572 190.52 175.708 191.075C175.833 191.632 175.989 192.193 176.105 192.772C176.218 193.35 176.333 193.939 176.45 194.538C176.583 195.133 176.683 195.742 176.769 196.362C176.865 196.978 176.963 197.604 177.062 198.239C177.175 199.515 177.389 200.814 177.43 202.151C177.63 204.819 177.596 207.604 177.305 210.434C177.01 213.263 176.509 216.156 175.59 219.002C174.678 221.918 173.526 224.764 172.296 227.444C171.016 230.109 169.652 232.625 168.227 234.942C165.353 239.561 162.256 243.341 159.369 246.175C153.62 251.933 148.454 253.248 148.602 254.832Z" fill="#9E2F2F"/>
<path d="M37.2249 311.385C42.3648 325.479 48.6688 338.558 56.0625 350.335C76.6511 383.122 102.905 401.183 129.993 401.183C152.655 401.183 174.739 388.54 193.404 365.204L37.2249 311.385Z" fill="#ECECEC"/>
<path d="M416.226 304.084C426.1 302.074 441.165 298.184 445.606 292.51C452.391 283.848 461.6 289.157 473.514 280.821C484.406 273.2 420.164 289.951 418.714 290.508C418.691 290.515 418.684 290.515 418.684 290.515V290.522C417.865 295.045 417.045 299.56 416.226 304.084Z" fill="#171C22"/>
<path fill-rule="evenodd" clip-rule="evenodd" d="M65.3798 65.3151L223.55 119.82C218.276 104.89 211.7 91.051 203.924 78.6644C183.335 45.8695 157.081 27.8164 129.993 27.8164C106.842 27.817 84.3002 41.0007 65.3798 65.3151Z" fill="#ECECEC"/>
<path fill-rule="evenodd" clip-rule="evenodd" d="M29.1922 284.757C31.4313 293.952 34.1141 302.847 37.2247 311.381L193.404 365.201C197.049 360.648 200.565 355.69 203.924 350.331C204.841 348.871 205.742 347.389 206.622 345.892L29.1922 284.757Z" fill="#62C370"/>
<path d="M130.189 94.3519C131.641 94.3519 132.818 93.1725 132.818 91.7184V42.5535C132.818 41.0994 131.641 39.9199 130.189 39.9199C128.736 39.9199 127.559 41.0994 127.559 42.5535V91.7178C127.559 93.1725 128.736 94.3519 130.189 94.3519Z" fill="#171C22"/>
<path d="M169.317 116.926C170.77 116.926 171.947 115.746 171.947 114.292V65.1277C171.947 63.6736 170.77 62.4941 169.317 62.4941C167.865 62.4941 166.687 63.6736 166.687 65.1277V114.292C166.687 115.746 167.865 116.926 169.317 116.926Z" fill="#171C22"/>
<path d="M203.13 132.733C204.583 132.733 205.76 131.553 205.76 130.099V98.2429C205.76 96.7888 204.583 95.6094 203.13 95.6094C201.677 95.6094 200.501 96.7888 200.501 98.2429V130.099C200.501 131.553 201.678 132.733 203.13 132.733Z" fill="#171C22"/>
<path d="M92.423 105.641C93.8755 105.641 95.0526 104.462 95.0526 103.008V53.8435C95.0526 52.3894 93.8755 51.21 92.423 51.21C90.9705 51.21 89.7927 52.3894 89.7927 53.8435V103.008C89.7933 104.462 90.9705 105.641 92.423 105.641Z" fill="#171C22"/>
<path d="M132.443 389.212C133.896 389.212 135.073 388.033 135.073 386.578V345.535L160.466 327.109C161.641 326.256 161.904 324.609 161.052 323.431C160.2 322.254 158.555 321.99 157.379 322.844L130.9 342.058C130.217 342.553 129.813 343.346 129.813 344.191V386.579C129.813 388.033 130.991 389.212 132.443 389.212Z" fill="#171C22"/>
<path d="M171.571 376.315C173.023 376.315 174.201 375.135 174.201 373.68V359.427L199.101 340.278C200.253 339.391 200.47 337.738 199.585 336.584C198.7 335.431 197.049 335.216 195.898 336.099L169.969 356.039C169.321 356.538 168.941 357.309 168.941 358.128V373.68C168.941 375.135 170.118 376.315 171.571 376.315Z" fill="#171C22"/>
<path d="M94.6773 375.292C96.1298 375.292 97.3069 374.112 97.3069 372.658V332.542L124.184 313.531C125.371 312.693 125.653 311.049 124.815 309.86C123.977 308.673 122.336 308.39 121.15 309.229L93.1598 329.027C92.4619 329.52 92.0471 330.323 92.0471 331.178V372.658C92.0471 374.112 93.2248 375.292 94.6773 375.292Z" fill="#171C22"/>
<path d="M60.1127 342.155C61.5652 342.155 62.7423 340.975 62.7423 339.521V320.64L89.047 302.199C90.2371 301.365 90.5261 299.722 89.6929 298.531C88.8603 297.339 87.2198 297.05 86.0303 297.883L58.6041 317.111C57.9009 317.604 57.4825 318.41 57.4825 319.269V339.521C57.4825 340.975 58.6602 342.155 60.1127 342.155Z" fill="#171C22"/>
<path d="M33.7609 301.169C34.3169 302.922 34.8878 304.668 35.474 306.399L56.0176 291.995C57.2048 291.167 57.4902 289.519 56.6641 288.33C55.8303 287.141 54.1846 286.848 52.9974 287.683L33.7609 301.169Z" fill="#171C22"/>
</svg>
