<svg width="196" height="207" viewBox="0 0 196 207" fill="none" xmlns="http://www.w3.org/2000/svg">
<path d="M196 33.7467C196 27.7543 192.524 0 169.383 0C169.383 0.921519 169.383 1.8539 169.383 2.79196L166.982 0V206.051L169.424 204.688C169.397 205.13 169.383 205.584 169.383 206.051C187.814 206.051 196 195.486 196 189.846V33.7467Z" fill="#171C22"/>
<path d="M187.047 17.542V188.509C187.047 198.197 179.138 206.051 169.382 206.051H44.7434C34.9978 206.051 27.096 198.214 27.0792 188.541V17.542C27.0792 7.854 34.9877 0.000366211 44.7434 0.000366211H169.382C179.138 0.000366211 187.047 7.85383 187.047 17.542Z" fill="#354A4C"/>
<path d="M166.237 181.107C166.132 184.695 160.708 190.161 157.226 191.124C114.154 203.04 69.0242 203.288 27.0792 188.541V183.293C29.7036 181.467 31.9309 179.072 33.5561 176.332C35.1408 173.657 35.3847 169.464 38.6821 168.356C43.4581 166.753 48.8685 166.143 53.8397 165.391C58.9606 164.617 64.1136 164.056 69.2816 163.705C79.7119 163 90.2012 163.154 100.606 164.158C110.966 165.155 121.245 166.995 131.3 169.663C141.266 172.306 147.405 172.633 156.789 176.89C159.81 178.261 166.334 177.807 166.237 181.107Z" fill="#171C22"/>
<path d="M36.3123 27.5871V147.108C36.3123 158.671 9.81006 166.12 0 164.343C4.26819 165.441 18.3688 169.16 36.3123 173.909C80.955 185.72 141.097 192.208 141.097 192.208C141.097 192.208 177.311 200.977 177.311 150.889V27.5871H36.3123Z" fill="#ECECEC"/>
<path d="M143.41 42.2353H72.6871C70.4727 42.2353 68.3018 41.4775 66.5746 40.1014C64.8474 38.7253 63.6316 36.7854 63.1513 34.6386L60.8721 24.4526C60.0686 20.8613 60.9372 17.1558 63.2552 14.2862C65.5733 11.4166 69.0276 9.77081 72.732 9.77081H143.366C147.07 9.77081 150.524 11.4167 152.843 14.2862C155.161 17.1557 156.029 20.8613 155.226 24.4526L152.946 34.6386C152.466 36.7854 151.25 38.7255 149.523 40.1014C147.796 41.4775 145.625 42.2353 143.41 42.2353ZM72.7319 17.8862C71.5193 17.8862 70.3886 18.425 69.6297 19.3642C68.8708 20.3036 68.5865 21.5167 68.8494 22.6921L71.1286 32.8781C71.2921 33.609 71.9329 34.1196 72.6868 34.1196H143.41C144.164 34.1196 144.805 33.609 144.968 32.8781L147.248 22.6921C147.511 21.5165 147.226 20.3036 146.468 19.3642C145.709 18.425 144.578 17.8862 143.365 17.8862H72.7319V17.8862Z" fill="#171C22"/>
<path d="M131.517 5.76351C115.871 5.16542 100.226 5.16542 84.5802 5.76351C82.225 5.86608 79.0762 7.89523 78.447 10.2747C77.8437 12.6438 77.8437 15.0129 78.447 17.3821C79.0762 19.761 82.225 21.7912 84.5802 21.8933C100.226 22.4914 115.871 22.4914 131.517 21.8933C133.872 21.7909 137.021 19.7614 137.65 17.3821C138.254 15.0129 138.254 12.6437 137.65 10.2747C137.021 7.8954 133.872 5.86508 131.517 5.76351Z" fill="#A2A2A2"/>
<path d="M53.5221 75.8514C57.4196 75.8514 60.5792 72.7137 60.5792 68.8433C60.5792 64.9728 57.4196 61.8351 53.5221 61.8351C49.6245 61.8351 46.4649 64.9728 46.4649 68.8433C46.4649 72.7137 49.6245 75.8514 53.5221 75.8514Z" fill="#62C370"/>
<path d="M53.5221 109.467C57.4196 109.467 60.5792 106.33 60.5792 102.459C60.5792 98.5889 57.4196 95.4512 53.5221 95.4512C49.6245 95.4512 46.4649 98.5889 46.4649 102.459C46.4649 106.33 49.6245 109.467 53.5221 109.467Z" fill="#62C370"/>
<path d="M53.5221 143.083C57.4196 143.083 60.5792 139.946 60.5792 136.075C60.5792 132.205 57.4196 129.067 53.5221 129.067C49.6245 129.067 46.4649 132.205 46.4649 136.075C46.4649 139.946 49.6245 143.083 53.5221 143.083Z" fill="#62C370"/>
<path d="M115.96 73.4461H74.1265C71.5714 73.4461 69.5002 71.3892 69.5002 68.8518C69.5002 66.3145 71.5714 64.2576 74.1265 64.2576H115.96C118.515 64.2576 120.586 66.3145 120.586 68.8518C120.586 71.3892 118.515 73.4461 115.96 73.4461Z" fill="#E24444"/>
<path d="M144.111 107.054H74.1265C71.5714 107.054 69.5002 104.997 69.5002 102.459C69.5002 99.922 71.5714 97.8651 74.1265 97.8651H144.111C146.666 97.8651 148.737 99.922 148.737 102.459C148.737 104.997 146.666 107.054 144.111 107.054Z" fill="#E24444"/>
<path d="M159.251 73.4461H131.325C128.77 73.4461 126.699 71.3892 126.699 68.8518C126.699 66.3145 128.77 64.2576 131.325 64.2576H159.251C161.807 64.2576 163.878 66.3145 163.878 68.8518C163.878 71.3892 161.806 73.4461 159.251 73.4461Z" fill="#E24444"/>
<path d="M102.053 140.67H74.1265C71.5714 140.67 69.5002 138.613 69.5002 136.075C69.5002 133.538 71.5714 131.481 74.1265 131.481H102.053C104.608 131.481 106.679 133.538 106.679 136.075C106.679 138.613 104.608 140.67 102.053 140.67Z" fill="#E24444"/>
</svg>
