<svg width="132" height="371" viewBox="0 0 132 371" fill="none" xmlns="http://www.w3.org/2000/svg">
<path d="M13.9072 330.582C11.8795 332.012 9.70286 333.304 8.09527 335.198C6.48767 337.093 5.53632 339.795 6.45062 342.109C7.17837 343.951 8.96783 345.212 10.8686 345.736C12.7693 346.261 14.784 346.146 16.7411 345.912C24.7766 344.952 32.5719 342.02 39.261 337.442C42.2888 335.369 45.1672 332.871 46.806 329.578C49.2005 324.765 48.4448 318.545 44.9687 314.454C41.4926 310.363 35.4999 308.641 30.3985 310.267C28.4616 310.885 26.3803 312.136 25.7579 314.218C25.2106 316.049 25.9404 317.646 24.9818 319.454C22.6553 323.843 17.8831 327.779 13.9072 330.582Z" fill="#171C22"/>
<path d="M102.029 256.039C101.49 257.626 100.881 259.273 101.108 260.934C101.473 263.613 104.323 265.669 106.964 265.161C107.53 265.052 108.082 264.844 108.658 264.837C109.917 264.824 110.962 265.75 112.112 266.264C113.997 267.107 116.348 266.771 117.926 265.433C118.552 264.902 119.147 264.191 119.965 264.15C120.62 264.117 121.211 264.537 121.857 264.649C123.457 264.926 124.724 263.337 125.472 261.889C127.048 258.84 128.11 255.524 128.599 252.123C128.991 249.394 129.008 246.561 128.182 243.932C126.63 238.997 121.932 235.229 116.802 234.804C112.847 234.477 106.119 236.643 104.866 241.009C104.346 242.822 104.751 245.111 104.391 247.025C103.818 250.081 103.028 253.096 102.029 256.039Z" fill="#B39370"/>
<path d="M31.3157 230.18C31.8545 231.767 32.4637 233.414 32.2368 235.075C31.8714 237.753 29.0214 239.81 26.3808 239.302C25.815 239.193 25.2625 238.984 24.6866 238.978C23.4281 238.965 22.3826 239.891 21.2326 240.405C19.3472 241.247 16.9964 240.912 15.4191 239.574C14.793 239.043 14.1977 238.332 13.3798 238.291C12.7247 238.258 12.1338 238.678 11.4874 238.79C9.8873 239.067 8.62083 237.478 7.87228 236.03C6.29679 232.981 5.23507 229.664 4.74614 226.264C4.35367 223.535 4.33638 220.702 5.16305 218.072C6.71436 213.138 11.4127 209.37 16.5423 208.945C20.4975 208.617 27.226 210.784 28.4785 215.15C28.9986 216.963 28.594 219.252 28.9534 221.166C29.5271 224.222 30.3165 227.237 31.3157 230.18Z" fill="#B39370"/>
<path d="M57.1803 354.77C55.3208 356.414 53.2986 357.939 51.9075 359.999C50.5165 362.06 49.8661 364.851 51.0278 367.05C51.9523 368.801 53.8686 369.856 55.8151 370.167C57.7616 370.479 59.7516 370.142 61.6714 369.694C69.5534 367.852 76.9814 364.077 83.1299 358.788C85.9131 356.394 88.5012 353.593 89.7704 350.138C91.6249 345.091 90.1943 338.992 86.2923 335.309C82.3904 331.627 76.2459 330.577 71.353 332.757C69.4953 333.584 67.5631 335.057 67.1719 337.196C66.8279 339.076 67.7276 340.582 66.9723 342.486C65.1393 347.105 60.8259 351.544 57.1803 354.77Z" fill="#171C22"/>
<path d="M131.561 246.437H131.537C131.102 250.085 124.645 252.981 116.741 252.981C108.837 252.981 102.38 250.085 101.946 246.437H101.921V238.202C101.663 244.749 101.217 248.045 98.1868 251.18C96.3164 253.116 95.2476 255.694 95.1963 258.392L93.6009 342.185L93.5671 342.183C93.5671 342.183 93.5671 342.183 93.5671 342.185C93.5671 345.071 87.2113 347.409 79.3709 347.409C71.5319 347.409 65.1761 345.071 65.1761 342.185C65.1761 342.045 65.1904 341.906 65.2203 341.77L65.0747 341.768V259.9C65.0747 255.968 60.5624 252.993 57.0172 252.933C54.9073 252.898 50.9605 254.299 50.9605 258.206V316.821H50.954C50.9579 316.871 50.9605 316.922 50.9605 316.973C50.9605 319.859 44.671 322.197 36.9112 322.197C29.1528 322.197 22.862 319.859 22.862 316.973C22.862 316.935 22.8646 316.897 22.8659 316.859L18.9412 225.589C17.3955 225.966 15.6404 226.18 13.7775 226.18C7.60507 226.18 2.60002 223.838 2.60002 220.949C2.60002 220.949 0 171.542 0 139.65C0 121.479 12.3332 110.311 27.4602 105.202C38.8821 101.341 51.8991 100.935 62.4006 103.575C70.787 105.683 79.3502 110.093 87.418 115.852C103.363 127.235 117.376 143.891 124.281 158.472C134.681 180.43 131.561 246.437 131.561 246.437Z" fill="#70878A"/>
<path d="M87.4179 115.852C79.129 124.544 69.4348 131.839 60.9327 140.353C55.7106 145.584 50.8563 151.5 47.3489 157.998C45.5536 161.322 44.1119 164.8 43.1538 168.414C42.6169 170.438 39.8244 170.618 39.0132 168.69C36.4314 162.559 34.2955 156.239 32.6159 149.798C30.4474 141.484 29.0408 132.968 28.4207 124.396C28.0502 119.269 26.9465 111.439 27.46 105.202C38.8819 101.341 51.8989 100.935 62.4004 103.575C70.7868 105.683 79.35 110.093 87.4179 115.852Z" fill="#ECECEC"/>
<path d="M30.0733 95.9668C24.137 94.2496 19.6124 89.1423 17.2144 83.4189C14.8164 77.6955 14.2687 71.3739 14.0731 65.1665C13.6402 51.43 15.1132 36.7683 23.4683 25.8912C31.7447 15.1165 46.468 9.79754 59.6723 12.812C65.0834 14.0473 70.4164 16.7607 73.4777 21.4137C77.009 26.7813 76.9582 33.6779 76.7399 40.1098C76.0209 61.2874 74.8286 82.4488 73.1644 103.573C72.9526 106.26 72.6206 109.198 70.6954 111.074C69.5176 112.222 67.9079 112.791 66.3344 113.257C60.0176 115.128 42.5743 118.971 37.1916 113.377C31.5627 107.526 41.063 99.1459 30.0733 95.9668Z" fill="#B39370"/>
<path d="M18.3855 219.06C17.2169 219.143 15.2393 204.639 13.9684 186.664C13.6507 182.171 13.4072 177.885 13.239 173.984C13.155 172.033 13.0894 170.18 13.0435 168.44C12.9984 166.699 12.9783 165.066 13.0012 163.571C13.0439 160.579 13.2666 158.142 13.5797 156.48C13.89 154.814 14.2548 153.923 14.5415 153.946C14.8385 153.97 15.0314 154.898 15.2304 156.533C15.4261 158.17 15.6604 160.516 15.9976 163.422C16.1674 164.88 16.3533 166.477 16.5529 168.192C16.7506 169.915 16.9474 171.763 17.1384 173.705C17.5207 177.591 17.8826 181.868 18.2004 186.362C19.4713 204.337 19.5541 218.976 18.3855 219.06Z" fill="#171C22"/>
<path d="M37.7228 169.001C37.6184 169.066 37.0796 168.425 36.1955 167.207C35.3121 165.989 34.0822 164.196 32.6135 161.943C31.148 159.689 29.4365 156.98 27.6461 153.898C25.8533 150.819 23.9753 147.369 22.2092 143.639C20.4351 139.909 18.9779 136.263 17.6909 132.949C16.4107 129.631 15.2893 126.637 14.3672 124.112C12.5253 119.062 11.5005 115.892 11.7294 115.8C11.9584 115.708 13.3976 118.71 15.5394 123.639C16.6109 126.102 17.8556 129.052 19.217 132.329C20.5845 135.602 22.0747 139.194 23.822 142.867C25.5635 146.545 27.3764 149.98 29.0771 153.08C30.7749 156.182 32.3667 158.947 33.6904 161.28C35.0175 163.611 36.083 165.505 36.785 166.837C37.4875 168.168 37.8275 168.935 37.7228 169.001Z" fill="#171C22"/>
<path d="M97.0795 127.719C97.1273 127.758 97.0223 127.979 96.7772 128.365C96.6548 128.558 96.4973 128.792 96.3065 129.065C96.2102 129.201 96.1066 129.348 95.9957 129.504C95.8823 129.659 95.7565 129.819 95.6248 129.99C95.3604 130.332 95.0632 130.71 94.7352 131.121C94.4022 131.528 94.029 131.961 93.6306 132.428C93.2364 132.9 92.7862 133.377 92.319 133.894C91.8546 134.414 91.3373 134.937 90.8011 135.494C90.6665 135.633 90.5304 135.774 90.3926 135.916C90.2518 136.055 90.1093 136.195 89.9654 136.337C89.6767 136.62 89.3816 136.91 89.0805 137.205C88.7811 137.503 88.4616 137.791 88.1431 138.092C87.8217 138.39 87.4991 138.7 87.161 139.003C86.4831 139.607 85.7889 140.242 85.0498 140.866C84.6814 141.179 84.3126 141.504 83.9288 141.82C83.5452 142.136 83.1565 142.457 82.7628 142.782C81.1775 144.066 79.4893 145.385 77.705 146.701C75.9214 148.018 74.0509 149.347 72.1168 150.677C68.2455 153.331 64.4964 155.753 61.0893 157.947C57.6801 160.14 54.6128 162.109 52.0525 163.786C46.9257 167.128 43.8188 169.301 43.6598 169.094C43.5153 168.91 46.366 166.368 51.3363 162.739C53.8166 160.92 56.8238 158.834 60.1862 156.564C63.5468 154.291 67.2608 151.832 71.109 149.193C73.0315 147.872 74.894 146.564 76.675 145.278C78.4566 143.993 80.1462 142.718 81.7408 141.484C82.137 141.173 82.5285 140.865 82.9146 140.562C83.3016 140.26 83.6735 139.95 84.046 139.651C84.7933 139.056 85.4966 138.453 86.1868 137.881C86.5309 137.594 86.8596 137.301 87.1881 137.02C87.5134 136.736 87.841 136.465 88.1481 136.184C88.4581 135.907 88.7618 135.635 89.0589 135.369C89.2078 135.236 89.3549 135.105 89.5004 134.975C89.6432 134.842 89.7843 134.711 89.9237 134.581C90.4805 134.06 91.0209 133.574 91.5101 133.092C92.0023 132.613 92.4802 132.173 92.9037 131.739C93.3342 131.311 93.7348 130.913 94.1036 130.547C94.4654 130.174 94.7984 129.834 95.1007 129.53C95.2523 129.379 95.3953 129.236 95.5296 129.102C95.6621 128.965 95.786 128.838 95.901 128.72C96.1329 128.485 96.3333 128.288 96.4998 128.134C96.8331 127.824 97.0316 127.68 97.0795 127.719Z" fill="#171C22"/>
<path d="M37.89 181.873C37.8312 181.891 37.7618 181.859 37.6812 181.77C37.6423 181.725 37.5949 181.666 37.556 181.592C37.5206 181.517 37.4845 181.427 37.4487 181.321C37.4164 181.216 37.4006 181.096 37.3796 180.961C37.3694 180.828 37.3667 180.68 37.3776 180.521C37.4052 180.206 37.4955 179.851 37.6666 179.484C37.8428 179.122 38.1058 178.752 38.4767 178.427C38.8459 178.105 39.336 177.826 39.9275 177.715C40.5142 177.6 41.1962 177.684 41.7692 177.98C42.3469 178.27 42.8348 178.724 43.1849 179.279C43.5282 179.837 43.7261 180.476 43.734 181.126C43.7486 181.775 43.5236 182.428 43.1651 182.909C42.8067 183.396 42.342 183.716 41.892 183.909C41.4389 184.101 40.9927 184.175 40.5911 184.177C40.1877 184.17 39.8301 184.093 39.5358 183.979C39.3897 183.917 39.2582 183.85 39.1442 183.78C39.0331 183.701 38.9328 183.633 38.8538 183.556C38.7759 183.477 38.7118 183.404 38.661 183.338C38.6124 183.269 38.5818 183.2 38.5596 183.145C38.5167 183.032 38.5197 182.955 38.5627 182.911C38.6057 182.867 38.6866 182.856 38.792 182.869C38.8456 182.874 38.9018 182.89 38.9687 182.903C39.038 182.913 39.1126 182.927 39.191 182.945C39.2707 182.961 39.3635 182.966 39.4545 182.983C39.5502 182.991 39.6524 182.996 39.7589 183C39.9756 182.998 40.2161 182.973 40.4698 182.912C40.7226 182.845 40.9858 182.736 41.2245 182.579C41.463 182.422 41.6714 182.215 41.8047 181.978C41.9359 181.74 42.0085 181.475 41.9846 181.169C41.9628 180.867 41.8559 180.535 41.6725 180.234C41.4837 179.936 41.2305 179.696 40.9686 179.545C40.7049 179.389 40.4364 179.336 40.1646 179.353C39.8929 179.37 39.6168 179.467 39.3721 179.614C39.1272 179.761 38.9131 179.951 38.7424 180.15C38.5766 180.353 38.446 180.559 38.3493 180.755C38.3039 180.853 38.2649 180.948 38.228 181.038C38.2022 181.128 38.166 181.214 38.1439 181.293C38.125 181.372 38.1039 181.445 38.0816 181.512C38.0626 181.578 38.0514 181.636 38.0318 181.687C37.995 181.787 37.9489 181.854 37.89 181.873Z" fill="#171C22"/>
<path d="M38.558 203.255C38.4531 203.301 38.2258 203.139 38.0942 202.682C37.9648 202.233 38.0102 201.509 38.4015 200.781C38.5938 200.417 38.8683 200.053 39.2386 199.722C39.6097 199.397 40.0846 199.095 40.7015 198.956C40.7779 198.938 40.8566 198.923 40.938 198.914C41.0134 198.902 41.1105 198.896 41.2062 198.893C41.3024 198.886 41.3934 198.902 41.4881 198.91C41.5768 198.921 41.6528 198.935 41.7357 198.95C42.0573 199.019 42.3628 199.138 42.6455 199.292C43.2116 199.602 43.6884 200.05 44.0611 200.601C44.4265 201.155 44.6759 201.805 44.6851 202.513C44.6916 202.864 44.6264 203.226 44.4954 203.554C44.4325 203.719 44.3472 203.872 44.2703 203.991C44.1918 204.118 44.1145 204.242 44.0182 204.354C43.6555 204.812 43.2093 205.148 42.7547 205.365C42.2991 205.583 41.8339 205.687 41.4078 205.697C40.9794 205.703 40.5971 205.616 40.2876 205.492C40.2111 205.457 40.1395 205.418 40.0714 205.382C40.0036 205.345 39.9383 205.313 39.8825 205.267C39.8254 205.225 39.7721 205.184 39.7227 205.144C39.6725 205.105 39.6274 205.066 39.5902 205.021C39.5132 204.936 39.4498 204.858 39.3997 204.789C39.3556 204.712 39.3246 204.644 39.3042 204.585C39.2638 204.469 39.2684 204.39 39.313 204.348C39.3575 204.305 39.4405 204.299 39.549 204.32C39.6035 204.33 39.6638 204.348 39.73 204.37C39.8018 204.385 39.879 204.405 39.9601 204.429C39.9994 204.444 40.0439 204.452 40.0905 204.459C40.1351 204.468 40.1817 204.477 40.2306 204.486C40.2766 204.5 40.3298 204.5 40.3817 204.505C40.4326 204.51 40.4856 204.515 40.5403 204.521C40.7621 204.522 41.004 204.503 41.2609 204.436C41.5171 204.364 41.7841 204.241 42.0345 204.064C42.2846 203.887 42.516 203.654 42.6908 203.375C42.7397 203.31 42.7744 203.232 42.8126 203.156C42.8559 203.075 42.8801 203.018 42.896 202.957C42.9306 202.837 42.9475 202.708 42.9356 202.562C42.9183 202.272 42.791 201.923 42.5769 201.601C42.3613 201.281 42.0764 201.002 41.7809 200.822C41.6336 200.731 41.4854 200.664 41.3443 200.62L41.2435 200.594C41.2212 200.592 41.1969 200.577 41.1765 200.58C41.1558 200.58 41.1373 200.575 41.0985 200.578C41.0651 200.577 41.0308 200.58 40.9957 200.584C40.7157 200.611 40.4083 200.735 40.142 200.903C39.8743 201.071 39.6381 201.276 39.4513 201.488C39.0709 201.912 38.882 202.338 38.7889 202.657C38.6953 202.977 38.6771 203.208 38.558 203.255Z" fill="#171C22"/>
<path d="M100.014 234.772C99.936 234.861 98.8937 234.078 97.0663 232.579C96.1525 231.83 95.0425 230.902 93.7586 229.814C93.1181 229.268 92.4327 228.684 91.7051 228.064C91.3424 227.753 90.9692 227.433 90.5858 227.105C90.3943 226.94 90.2004 226.773 90.0039 226.604C89.9385 226.552 89.8724 226.5 89.8054 226.446C89.7715 226.479 89.7373 226.512 89.703 226.546L89.6538 226.593L89.6297 226.617L89.5528 226.686C89.3303 226.884 89.1048 227.086 88.8767 227.29C88.4216 227.699 87.9493 228.112 87.4663 228.534C86.9837 228.956 86.4906 229.389 85.9801 229.822C85.4705 230.257 84.9542 230.704 84.4175 231.149C82.2816 232.938 79.9444 234.822 77.3884 236.701C74.8398 238.592 72.0668 240.453 69.2007 242.37C68.839 242.611 68.4755 242.854 68.1104 243.098C68.0055 243.167 67.8836 243.242 67.7394 243.313C67.6675 243.349 67.5881 243.384 67.5014 243.416C67.4063 243.451 67.2965 243.481 67.1917 243.501C66.9792 243.541 66.7592 243.539 66.5473 243.495C66.4413 243.473 66.3375 243.44 66.2371 243.398C66.1377 243.357 66.0333 243.301 65.9666 243.26C65.8203 243.172 65.7072 243.086 65.6156 243.017L65.3519 242.816C65.1764 242.683 65.0004 242.549 64.8241 242.415C64.4717 242.146 64.1178 241.877 63.7625 241.606C62.3428 240.523 60.9012 239.422 59.4414 238.308C56.6545 236.17 53.9334 234.083 51.3054 232.067C49.995 231.068 48.7018 230.112 47.3986 229.25C46.7475 228.818 46.0917 228.415 45.4352 228.034C44.7776 227.656 44.114 227.313 43.4502 226.995C43.1979 226.881 42.9473 226.767 42.6982 226.655L42.6343 226.627L42.6026 226.613L42.5938 226.622L42.5752 226.64L42.5653 226.65L42.5602 226.655L42.5203 226.701C42.0295 227.267 41.5357 227.817 41.0455 228.356C40.0612 229.429 39.0793 230.447 38.1082 231.408C36.1659 233.33 34.2664 235.025 32.4776 236.502C32.2521 236.687 32.0292 236.869 31.8091 237.049C31.5745 237.234 31.3057 237.441 30.9422 237.583C30.7604 237.651 30.5537 237.699 30.3412 237.701C30.1291 237.704 29.9239 237.663 29.745 237.599C29.3849 237.469 29.1238 237.27 28.9012 237.085C28.6777 236.896 28.5035 236.722 28.3129 236.546C28.1248 236.373 27.9469 236.194 27.7688 236.021C27.4155 235.673 27.0809 235.328 26.7641 234.989C25.4982 233.63 24.5139 232.369 23.7704 231.299C23.0254 230.229 22.513 229.356 22.1941 228.75C21.8748 228.143 21.7472 227.803 21.7975 227.772C21.8526 227.739 22.0832 228.016 22.4968 228.554C22.9098 229.091 23.5075 229.889 24.3228 230.874C25.1364 231.859 26.1757 233.027 27.4743 234.283C27.7993 234.597 28.1406 234.915 28.4993 235.237C28.68 235.396 28.8601 235.562 29.0501 235.722C29.2369 235.879 29.4349 236.058 29.6138 236.195C29.7933 236.335 29.9715 236.443 30.1174 236.485C30.2671 236.526 30.3546 236.519 30.5024 236.459C30.649 236.396 30.8287 236.263 31.0259 236.092C31.2344 235.908 31.4455 235.723 31.6591 235.535C33.3706 234.017 35.1916 232.294 37.0566 230.359C37.9893 229.391 38.9328 228.37 39.8796 227.297C40.3511 226.759 40.8264 226.21 41.2991 225.646C41.5153 225.389 41.7321 225.132 41.9496 224.874L42.1225 224.668C42.1959 224.685 42.2736 224.725 42.349 224.752C42.5012 224.813 42.6537 224.874 42.8065 224.935C43.5337 225.219 43.7463 225.323 44.1364 225.49C44.8493 225.819 45.5592 226.174 46.2575 226.563C46.954 226.955 47.6464 227.37 48.328 227.811C49.6924 228.693 51.0266 229.661 52.358 230.661C55.0075 232.666 57.7292 234.744 60.5228 236.879C61.9805 237.996 63.4201 239.099 64.8378 240.185C65.1919 240.457 65.5447 240.728 65.896 240.998C66.0716 241.133 66.2469 241.267 66.4217 241.402L66.6831 241.603C66.7662 241.667 66.8294 241.713 66.8715 241.738C66.8988 241.754 66.8917 241.75 66.8931 241.751L66.895 241.752C66.8965 241.752 66.8979 241.753 66.8995 241.753C66.9019 241.752 66.8976 241.754 66.9051 241.752C66.9209 241.746 66.9417 241.738 66.9675 241.725C67.0188 241.7 67.0841 241.663 67.1617 241.613C67.522 241.375 67.8808 241.139 68.238 240.904C71.1223 239.006 73.8872 237.196 76.4323 235.369C78.9854 233.553 81.3347 231.737 83.4991 230.014C84.0425 229.587 84.5673 229.156 85.0853 228.738C85.6043 228.322 86.1071 227.906 86.6 227.501C87.0931 227.096 87.576 226.701 88.043 226.31C88.2771 226.115 88.5085 225.922 88.7369 225.732C89.1026 225.424 89.4638 225.119 89.8202 224.819C90.1489 225.12 90.4736 225.418 90.7942 225.712C90.9837 225.889 91.1708 226.063 91.3556 226.236C91.7244 226.581 92.0836 226.917 92.4325 227.243C93.1284 227.899 93.784 228.516 94.3967 229.093C95.6191 230.251 96.6638 231.253 97.509 232.079C99.2 233.733 100.093 234.684 100.014 234.772Z" fill="#171C22"/>
<path d="M39.9651 178.273C40.4584 178.273 40.8582 177 40.8582 175.43C40.8582 173.86 40.4584 172.587 39.9651 172.587C39.4719 172.587 39.072 173.86 39.072 175.43C39.072 177 39.4719 178.273 39.9651 178.273Z" fill="#171C22"/>
<path d="M40.3554 199.403C40.8487 199.403 41.2486 198.193 41.2486 196.701C41.2486 195.209 40.8487 194 40.3554 194C39.8621 194 39.4622 195.209 39.4622 196.701C39.4622 198.193 39.8621 199.403 40.3554 199.403Z" fill="#171C22"/>
<path d="M42.638 219.828C42.1458 219.851 41.581 216.548 41.2795 212.449C40.9852 208.35 41.0676 205 41.558 204.95C42.0494 204.901 42.7654 208.2 43.0612 212.318C43.3641 216.436 43.1315 219.805 42.638 219.828Z" fill="#171C22"/>
<path d="M102.298 233.548C102.004 233.532 101.787 232.458 101.627 230.536C101.468 228.614 101.358 225.843 101.242 222.434C101.212 221.583 101.181 220.691 101.148 219.761C101.112 218.833 101.075 217.868 101.036 216.869C100.986 215.872 100.953 214.839 100.891 213.779C100.863 213.248 100.835 212.71 100.807 212.165C100.773 211.62 100.739 211.069 100.705 210.51C100.423 206.042 99.9764 201.155 99.2098 196.087C98.8165 193.555 98.3572 191.1 97.8424 188.748C97.7091 188.161 97.5768 187.579 97.4459 187.003C97.3018 186.431 97.1589 185.864 97.0176 185.303C96.8839 184.739 96.7209 184.191 96.5717 183.646C96.4184 183.101 96.2796 182.559 96.1111 182.034C95.9507 181.505 95.7922 180.983 95.6358 180.469C95.4667 179.958 95.2997 179.455 95.1353 178.958C95.0533 178.71 94.9717 178.463 94.8909 178.218C94.8029 177.976 94.7156 177.736 94.6291 177.498C94.4568 177.02 94.2873 176.55 94.1206 176.088C93.9411 175.631 93.7646 175.181 93.5913 174.74C93.4182 174.299 93.254 173.862 93.069 173.446C92.7082 172.608 92.3838 171.791 92.024 171.035C91.8511 170.653 91.6825 170.28 91.518 169.917C91.4387 169.733 91.3515 169.557 91.2655 169.383C91.1804 169.208 91.0964 169.036 91.0136 168.866C90.6825 168.186 90.3831 167.535 90.0684 166.945C89.9169 166.646 89.7707 166.358 89.6299 166.08C89.4882 165.802 89.3625 165.528 89.2224 165.277C88.9513 164.77 88.7084 164.301 88.4957 163.874C88.3876 163.662 88.2945 163.454 88.1956 163.267C88.0979 163.08 88.0085 162.903 87.9274 162.736C87.7653 162.403 87.6368 162.114 87.544 161.87C87.3584 161.384 87.3152 161.084 87.4312 160.994C87.5472 160.904 87.8173 161.029 88.2279 161.355C88.4333 161.517 88.6738 161.73 88.9478 161.99C89.0848 162.12 89.23 162.262 89.3835 162.416C89.5382 162.569 89.6871 162.744 89.8507 162.925C90.1747 163.289 90.5284 163.701 90.9102 164.157C91.1056 164.382 91.2865 164.633 91.4832 164.888C91.6767 165.146 91.8778 165.414 92.0861 165.692C92.5103 166.243 92.9179 166.863 93.3558 167.518C93.4649 167.683 93.5755 167.849 93.6876 168.018C93.8 168.187 93.9138 168.359 94.0194 168.538C94.2345 168.895 94.4553 169.261 94.6815 169.635C95.1444 170.381 95.569 171.194 96.0274 172.036C96.2611 172.454 96.473 172.894 96.6928 173.34C96.9112 173.788 97.1337 174.244 97.36 174.708C97.5696 175.179 97.7828 175.659 97.9995 176.146C98.1069 176.39 98.2151 176.637 98.3242 176.885C98.4252 177.136 98.527 177.389 98.6295 177.644C98.8325 178.155 99.0439 178.672 99.2459 179.2C99.4375 179.732 99.6316 180.271 99.8283 180.817C100.031 181.361 100.202 181.922 100.387 182.487C100.567 183.053 100.76 183.623 100.921 184.208C101.088 184.792 101.256 185.382 101.426 185.977C101.579 186.577 101.733 187.183 101.889 187.793C102.485 190.243 102.994 192.802 103.403 195.437C104.2 200.709 104.539 205.768 104.611 210.353C104.617 210.926 104.623 211.492 104.629 212.051C104.626 212.609 104.623 213.159 104.62 213.702C104.618 214.787 104.58 215.839 104.554 216.855C104.515 217.871 104.475 218.852 104.422 219.794C104.363 220.735 104.314 221.638 104.241 222.499C103.973 225.941 103.624 228.711 103.276 230.617C102.929 232.523 102.589 233.565 102.298 233.548Z" fill="#171C22"/>
<path d="M52.3196 249.529C52.2528 249.633 51.9574 249.57 51.4695 249.357C51.3476 249.304 51.2137 249.242 51.0686 249.17C50.9264 249.095 50.7799 249.002 50.6198 248.904C50.3043 248.702 49.933 248.481 49.5702 248.178C49.3852 248.029 49.1914 247.873 48.9895 247.711C48.7898 247.545 48.6017 247.353 48.3976 247.161C48.297 247.064 48.1945 246.965 48.0905 246.865C48.0392 246.814 47.9851 246.764 47.9351 246.711C47.8861 246.656 47.8368 246.601 47.7871 246.546C47.5897 246.322 47.3863 246.091 47.1779 245.855C46.3818 244.879 45.6023 243.719 44.9517 242.411C44.3158 241.096 43.8756 239.768 43.5898 238.539C43.5302 238.229 43.4723 237.926 43.4158 237.632C43.4023 237.559 43.3889 237.486 43.3757 237.414C43.3638 237.341 43.3577 237.268 43.3487 237.196C43.3328 237.052 43.317 236.91 43.3017 236.771C43.2752 236.491 43.2375 236.224 43.2285 235.964C43.2234 235.704 43.2185 235.455 43.2138 235.217C43.1955 234.743 43.2468 234.312 43.2801 233.937C43.3003 233.75 43.3156 233.576 43.3429 233.417C43.375 233.258 43.4074 233.113 43.4397 232.984C43.5692 232.465 43.6988 232.191 43.8218 232.201C43.9447 232.211 44.0497 232.503 44.1347 233.008C44.1559 233.134 44.1759 233.274 44.1944 233.426C44.2203 233.578 44.2485 233.742 44.2786 233.919C44.3401 234.272 44.3761 234.672 44.4723 235.107C44.5117 235.325 44.5531 235.553 44.5961 235.791C44.639 236.028 44.7077 236.271 44.7624 236.523C44.7909 236.65 44.8198 236.778 44.8494 236.908C44.8646 236.973 44.8767 237.039 44.8945 237.105C44.9134 237.17 44.9326 237.236 44.9518 237.302C45.0263 237.566 45.103 237.839 45.1816 238.118C45.529 239.224 45.9741 240.416 46.5538 241.617C47.1486 242.811 47.8175 243.891 48.479 244.841C48.6515 245.074 48.8196 245.301 48.983 245.522C49.0236 245.577 49.0637 245.633 49.1036 245.687C49.1445 245.741 49.1893 245.791 49.2313 245.843C49.3162 245.946 49.3998 246.047 49.4818 246.147C49.648 246.344 49.7977 246.547 49.9585 246.725C50.1199 246.904 50.2747 247.076 50.4225 247.24C50.7079 247.582 51.0014 247.854 51.242 248.118C51.3633 248.25 51.4762 248.372 51.58 248.486C51.6887 248.593 51.7869 248.694 51.8736 248.788C52.2204 249.164 52.3866 249.425 52.3196 249.529Z" fill="#171C22"/>
<path d="M57.6284 248.129C57.4564 248.297 56.8154 247.975 55.9859 247.214C55.8832 247.118 55.7768 247.016 55.6674 246.909C55.5583 246.801 55.4521 246.683 55.34 246.561C55.1136 246.32 54.8927 246.045 54.6617 245.754C54.2104 245.164 53.7575 244.48 53.3483 243.725C52.9434 242.967 52.6222 242.211 52.3783 241.509C52.2624 241.155 52.1546 240.819 52.078 240.496C52.0384 240.336 51.9981 240.182 51.968 240.031C51.9385 239.88 51.912 239.734 51.8886 239.596C51.7092 238.481 51.7919 237.765 52.0259 237.712C52.2726 237.656 52.6239 238.257 53.0926 239.211C53.3221 239.685 53.5955 240.249 53.8991 240.876C54.2067 241.495 54.546 242.17 54.9196 242.87C55.2978 243.568 55.6741 244.223 56.0212 244.821C56.3764 245.419 56.6963 245.958 56.965 246.411C57.5026 247.328 57.8104 247.952 57.6284 248.129Z" fill="#171C22"/>
<path d="M45.791 261.587C45.4996 261.51 45.3267 261.013 45.4176 260.253C45.4409 260.064 45.478 259.859 45.5402 259.646C45.5952 259.43 45.6798 259.209 45.7743 258.978C45.9736 258.522 46.251 258.044 46.6083 257.593C46.9692 257.145 47.3733 256.77 47.7735 256.476C47.9778 256.333 48.1736 256.203 48.3719 256.102C48.5649 255.995 48.7563 255.915 48.9346 255.851C49.6535 255.598 50.1734 255.661 50.3114 255.93C50.456 256.21 50.2237 256.636 49.8392 257.152C49.7427 257.282 49.6346 257.416 49.5225 257.561C49.4056 257.699 49.2893 257.854 49.1595 258.005C48.9103 258.311 48.6365 258.647 48.349 258.999C48.0683 259.358 47.8009 259.699 47.5577 260.01C47.439 260.169 47.314 260.317 47.2046 260.462C47.0877 260.603 46.9815 260.738 46.8761 260.86C46.4577 261.349 46.0941 261.669 45.791 261.587Z" fill="#171C22"/>
<path d="M35.2853 121.931C34.5599 120.144 34.7474 117.777 36.1934 116.56C37.5233 115.44 39.3992 115.609 41.0699 115.835C42.3378 116.007 43.6057 116.179 44.8736 116.35C46.8527 116.618 49.0556 117.02 50.2224 118.736C51.3947 120.461 50.9979 123.05 49.6396 124.641C48.2812 126.231 46.1813 126.918 44.1742 126.908C40.5245 126.891 36.8309 125.739 35.2853 121.931Z" fill="#E24444"/>
<path d="M47.349 157.998C45.5537 161.322 44.112 164.8 43.1539 168.414C42.617 170.438 39.8245 170.618 39.0133 168.69C36.4315 162.559 34.2956 156.239 32.616 149.798C32.8812 146.849 33.2777 143.914 33.8055 141C34.6622 136.263 35.931 131.662 37.3857 127.081C37.8277 125.69 37.9577 124.111 39.2499 123.322C40.8502 122.342 43.9391 123.053 45.5134 123.726C43.9287 135.127 44.5826 146.83 47.349 157.998Z" fill="#E24444"/>
<path d="M41.218 84.1768C41.3601 83.0075 37.6239 81.5865 32.8729 81.0027C28.1219 80.419 24.1553 80.8936 24.0132 82.0628C23.8711 83.2321 27.6073 84.6531 32.3583 85.2369C37.1092 85.8206 41.0759 85.346 41.218 84.1768Z" fill="#171C22"/>
<path d="M42.8423 70.283C44.613 70.283 46.0484 67.4813 46.0484 64.0253C46.0484 60.5692 44.613 57.7676 42.8423 57.7676C41.0716 57.7676 39.6362 60.5692 39.6362 64.0253C39.6362 67.4813 41.0716 70.283 42.8423 70.283Z" fill="#171C22"/>
<path d="M21.0291 67.9151C22.7998 67.9151 24.2352 65.1134 24.2352 61.6574C24.2352 58.2013 22.7998 55.3997 21.0291 55.3997C19.2584 55.3997 17.823 58.2013 17.823 61.6574C17.823 65.1134 19.2584 67.9151 21.0291 67.9151Z" fill="#171C22"/>
<path d="M111.513 258.732C112.205 256.402 112.238 254.355 111.588 254.16C110.938 253.965 109.851 255.696 109.159 258.026C108.468 260.356 108.434 262.404 109.084 262.599C109.734 262.794 110.821 261.063 111.513 258.732Z" fill="#5E3F26"/>
<path d="M121.838 259.167C122.275 257.328 122.094 255.709 121.434 255.55C120.774 255.392 119.886 256.755 119.449 258.594C119.013 260.433 119.194 262.053 119.853 262.211C120.513 262.369 121.402 261.007 121.838 259.167Z" fill="#5E3F26"/>
<path d="M14.0513 236.68C13.7903 236.89 13.2592 236.733 12.65 236.225C12.3452 235.973 12.0293 235.63 11.7261 235.215C11.4268 234.798 11.1429 234.306 10.9088 233.762C10.6776 233.216 10.5192 232.671 10.4245 232.165C10.334 231.658 10.3047 231.192 10.3327 230.796C10.3863 230.002 10.6388 229.507 10.9704 229.462C11.3104 229.415 11.6658 229.805 12.0278 230.415C12.2076 230.722 12.3965 231.084 12.5842 231.485C12.7764 231.885 12.9698 232.324 13.166 232.788C13.3653 233.251 13.5485 233.694 13.7046 234.11C13.8645 234.523 13.9953 234.91 14.0925 235.253C14.283 235.937 14.3194 236.465 14.0513 236.68Z" fill="#5E3F26"/>
<path d="M46.4233 309.859C47.0397 309.84 47.2596 300.455 46.9146 288.896C46.5696 277.337 45.7902 267.982 45.1739 268C44.5575 268.019 44.3376 277.404 44.6826 288.963C45.0276 300.522 45.807 309.878 46.4233 309.859Z" fill="#171C22"/>
<path d="M89.9668 298.176C90.1242 279.111 89.7519 263.652 89.1353 263.647C88.5187 263.642 87.8913 279.092 87.7339 298.157C87.5766 317.221 87.9488 332.68 88.5654 332.686C89.182 332.691 89.8094 317.24 89.9668 298.176Z" fill="#171C22"/>
<path d="M98.5203 249.767C98.7831 249.915 98.7268 250.621 98.2891 251.614C98.2336 251.737 98.1731 251.865 98.1078 251.998C98.0422 252.13 97.965 252.261 97.8867 252.399C97.7323 252.677 97.5425 252.956 97.3386 253.249C96.9205 253.825 96.4076 254.421 95.8085 254.984C95.206 255.543 94.5766 256.014 93.9746 256.39C93.6693 256.573 93.3783 256.743 93.0915 256.878C92.949 256.946 92.8129 257.014 92.6771 257.07C92.5409 257.126 92.4095 257.177 92.2833 257.223C91.2665 257.589 90.5618 257.594 90.4348 257.319C90.3009 257.033 90.7472 256.527 91.4782 255.858C91.5692 255.773 91.6654 255.687 91.7665 255.599C91.866 255.51 91.9693 255.417 92.0764 255.321C92.2904 255.133 92.5191 254.932 92.7597 254.721C93.2353 254.296 93.754 253.835 94.2889 253.339C94.8201 252.839 95.3161 252.353 95.7722 251.907C95.9994 251.682 96.2153 251.467 96.4173 251.266C96.5207 251.166 96.6204 251.069 96.7163 250.976C96.8107 250.881 96.9034 250.791 96.994 250.706C97.7113 250.022 98.2459 249.612 98.5203 249.767Z" fill="#171C22"/>
<path d="M82.7073 171.183C82.8241 171.143 83.156 171.785 83.6575 172.985C83.7828 173.285 83.9188 173.619 84.0647 173.987C84.2068 174.355 84.3498 174.76 84.5058 175.193C84.8123 176.063 85.171 177.051 85.5076 178.162C85.6793 178.717 85.8592 179.298 86.0467 179.904C86.231 180.511 86.3995 181.148 86.5842 181.806C86.6748 182.136 86.767 182.471 86.8606 182.811C86.9068 182.981 86.9532 183.153 87.0001 183.326C87.0433 183.5 87.0868 183.676 87.1306 183.852C87.304 184.559 87.4825 185.287 87.6654 186.033C88.3563 189.029 89.0095 192.349 89.5315 195.86C90.0393 199.374 90.3665 202.742 90.5643 205.81C90.6033 206.578 90.6413 207.326 90.6781 208.054C90.6868 208.236 90.6955 208.416 90.7041 208.595C90.7089 208.775 90.7137 208.953 90.7185 209.129C90.7266 209.482 90.7345 209.83 90.7422 210.171C90.754 210.855 90.7757 211.514 90.7734 212.149C90.7677 212.783 90.7622 213.392 90.7569 213.973C90.7535 215.134 90.6937 216.185 90.6496 217.106C90.6248 217.567 90.6039 217.995 90.5736 218.389C90.5394 218.784 90.5052 219.144 90.4713 219.467C90.3353 220.761 90.2016 221.472 90.0784 221.467C89.9552 221.463 89.8538 220.745 89.776 219.453C89.7095 218.165 89.613 216.301 89.4939 213.997C89.4626 213.422 89.4298 212.82 89.3955 212.193C89.3617 211.566 89.3061 210.915 89.2624 210.24C89.2395 209.902 89.2164 209.559 89.1928 209.211C89.1809 209.037 89.1689 208.861 89.1568 208.684C89.1414 208.507 89.1259 208.329 89.1101 208.15C89.0494 207.432 88.987 206.694 88.9231 205.937C88.6377 202.911 88.2654 199.592 87.7641 196.122C87.2485 192.655 86.6526 189.369 86.0576 186.389C85.9016 185.645 85.7495 184.92 85.6017 184.215C85.5651 184.039 85.529 183.864 85.493 183.69C85.4537 183.518 85.4149 183.346 85.3763 183.176C85.2988 182.835 85.2226 182.5 85.1476 182.17C84.9957 181.511 84.8622 180.872 84.7147 180.261C84.5674 179.651 84.4261 179.065 84.2913 178.506C83.7443 176.265 83.3017 174.453 82.9958 173.2C82.6997 171.94 82.5906 171.223 82.7073 171.183Z" fill="#171C22"/>
<path d="M64.4873 64.962C64.5325 64.5704 64.6502 64.1905 64.8346 63.8414C64.9021 63.6916 65.013 63.5651 65.1533 63.4782C65.2935 63.3912 65.4567 63.3477 65.6219 63.3532C65.9791 63.417 66.242 63.8331 66.4301 64.2496C66.7596 64.9906 66.9705 65.7782 67.055 66.5839C67.1443 67.2114 67.0979 67.8507 66.9189 68.459C66.509 69.6606 65.3947 69.8209 64.7932 68.7719C64.2533 67.8307 64.3185 66.0419 64.4873 64.962Z" fill="#171C22"/>
<path fill-rule="evenodd" clip-rule="evenodd" d="M90.3574 24.2335C91.0977 23.5013 91.6168 22.578 91.8561 21.5682C92.0955 20.5584 92.0455 19.5023 91.7119 18.5191C90.8607 16.1699 88.3254 14.6513 85.6171 14.9896C85.8135 12.0127 84.1406 9.29344 81.5539 8.26649C78.3783 7.00565 75.4976 8.96079 75.2896 9.10704C74.6806 7.94234 73.8424 6.91077 72.8246 6.07339C71.8068 5.23601 70.6301 4.60984 69.3642 4.23195C65.0954 3.01891 61.6931 5.26528 61.2377 5.57658C60.8064 4.08797 59.9332 2.76293 58.7321 1.77423C57.531 0.785537 56.0576 0.179071 54.5042 0.0339196C52.9507 -0.111232 51.3893 0.211666 50.0234 0.960507C48.6575 1.70935 47.5507 2.84938 46.8471 4.23195C46.3559 3.05187 45.5148 2.04795 44.4355 1.3534C43.3563 0.658857 42.0897 0.306512 40.804 0.343117C39.5183 0.379722 38.2743 0.803548 37.2368 1.55836C36.1994 2.31317 35.4177 3.36329 34.9954 4.56938C33.1306 1.90019 29.746 0.819389 26.8695 1.88107C25.6538 2.35265 24.5962 3.15432 23.8178 4.19443C23.0394 5.23453 22.5716 6.47109 22.4677 7.76273C19.8307 4.46423 15.4029 3.60169 12.3098 5.40962C10.0575 6.72589 8.73163 9.32881 8.75442 12.1328C8.21455 12.1258 5.22988 12.1328 3.67511 14.1497C1.81094 16.5669 2.52926 21.1883 6.38408 24.2338C6.09938 24.2577 3.2601 24.5311 2.32095 26.4187C1.29739 28.4761 2.72569 32.0585 6.55355 33.6459C4.59147 34.2173 3.53646 36.2062 4.01373 37.8478C4.5398 39.6573 6.85461 40.797 8.92453 39.8644C8.39012 40.4873 7.303 41.9502 7.57005 43.5605C7.97158 45.9822 11.334 48.1543 15.7814 47.6575C15.8289 47.323 15.8776 46.9957 15.9229 46.6717C16.076 45.997 16.1759 45.3116 16.2217 44.6216C16.2737 44.2679 16.3251 43.9213 16.3758 43.5819C16.5324 42.8019 16.8036 42.0891 17.3631 41.6481C19.0732 40.2996 22.4665 42.2854 24.7103 43.2113C34.4908 47.2436 42.2294 39.2682 48.5903 41.5178C52.9201 43.0495 57.1903 49.5254 57.5697 70.4902C58.123 73.2482 61.0095 71.8558 61.28 69.5024C61.7615 66.7188 61.0233 63.8256 61.5615 61.0519C62.2192 57.4373 65.5473 55.6868 67.8676 56.8055C75.0014 61.916 66.3269 83.9801 73.2964 85.7055C74.207 85.392 74.3495 84.4135 74.5684 83.5895C74.7822 82.7843 75.0226 82.0071 75.2806 81.2526C76.4907 81.5394 78.7622 80.4525 79.355 78.8568C79.9148 77.3494 78.8296 75.6667 78.3391 74.9912C80.6697 75.891 83.1883 74.8905 84.0954 72.9742C84.796 71.4942 84.4625 69.6209 83.249 68.2683C85.0101 68.8482 86.8663 68.4235 87.8199 67.2598C89.1317 65.66 88.7333 62.6664 86.3521 61.0815L86.3614 61.0564C87.9415 61.4461 89.5467 61.0564 90.3593 60.0329C91.5469 58.5417 91.0924 55.652 88.6666 54.1503C88.8418 54.1242 91.6246 53.6676 92.5605 51.4614C93.483 49.2867 92.2617 46.2358 89.3438 44.9068C92.4184 44.4712 94.443 42.0123 94.2546 39.6962C94.0662 37.38 91.7405 36.1023 91.546 36C94.4594 35.5221 96.6583 33.3761 96.9636 30.958C97.3593 27.7901 94.4902 24.3339 90.3574 24.2335Z" fill="#171C22"/>
<path d="M24.1643 21.3814C24.1132 21.4066 24.023 21.3639 23.9075 21.2737C23.7465 21.1528 23.5759 21.045 23.3975 20.9512C23.1261 20.8162 22.8353 20.7238 22.5354 20.6775C22.1323 20.618 21.7227 20.6173 21.3195 20.6756C21.0852 20.7077 20.8539 20.7584 20.6278 20.8273C20.3778 20.9006 20.1332 20.991 19.8957 21.0978C19.3916 21.3187 18.9335 21.631 18.5448 22.0187C18.3503 22.2162 18.1834 22.4387 18.0482 22.6801C17.9198 22.9203 17.8316 23.1795 17.787 23.4477C17.7394 23.7247 17.7382 24.0075 17.7834 24.2848C17.7992 24.352 17.8114 24.4205 17.8293 24.4865L17.8614 24.591C17.8762 24.642 17.8957 24.6916 17.9195 24.7392L18.003 24.8758L18.1699 25.1505C18.2382 25.2461 18.3689 25.3611 18.4655 25.466L19.1488 26.165L19.8148 26.8469L17.4968 26.708C17.2943 26.6924 17.1052 26.6914 16.9165 26.6895C16.7278 26.6876 16.5313 26.6799 16.3619 26.6924C16.1937 26.6968 16.0326 26.7121 15.8721 26.7242C15.3201 26.7561 14.7861 26.9307 14.3231 27.2309C14.1496 27.3624 14.0037 27.5264 13.8936 27.7136C13.794 27.8986 13.7316 28.1011 13.71 28.3098C13.6764 28.7452 13.7524 29.1821 13.9312 29.5811C14.0961 29.9454 14.3088 30.2864 14.5638 30.5953C14.7952 30.8859 15.0215 31.1313 15.2057 31.3377C15.5777 31.75 15.7716 32.0155 15.7029 32.1063C15.6342 32.1971 15.3229 32.1063 14.8116 31.8322C14.4961 31.6607 14.197 31.4611 13.918 31.2358C13.5228 30.9224 13.1831 30.5458 12.9128 30.1215C12.5587 29.5629 12.3659 28.9186 12.3552 28.2588C12.354 27.8592 12.4357 27.4636 12.5953 27.0967C12.7749 26.7063 13.0358 26.358 13.3608 26.0749C14.025 25.5493 14.827 25.2236 15.6718 25.1365C15.8724 25.1123 16.0752 25.0881 16.2762 25.0772C16.2903 25.0744 16.2832 25.0728 16.2861 25.0712C16.2862 25.0698 16.2858 25.0685 16.2851 25.0674C16.2843 25.0663 16.2832 25.0655 16.282 25.0651V25.0651C16.2836 25.0702 16.2794 25.0527 16.2855 25.0769L16.2351 24.9055C16.203 24.7863 16.1821 24.6665 16.1593 24.5473C16.0891 24.0828 16.1012 23.6096 16.195 23.1492C16.2841 22.7049 16.4499 22.2794 16.6851 21.8912C16.9053 21.5344 17.1755 21.2105 17.4875 20.9293C18.042 20.4359 18.6928 20.061 19.3995 19.8281C19.7079 19.7246 20.0241 19.6454 20.3451 19.5913C20.6451 19.5386 20.9494 19.5133 21.2541 19.5158C21.7804 19.5153 22.3025 19.6099 22.7947 19.7949C23.1738 19.9379 23.5167 20.1616 23.7993 20.4503C23.9782 20.6304 24.1113 20.8502 24.1877 21.0914C24.2249 21.261 24.215 21.3546 24.1643 21.3814Z" fill="#A2A2A2"/>
<path d="M79.6308 56.4677C79.6391 56.4272 79.7152 56.3985 79.8478 56.38C79.9803 56.3616 80.1716 56.3437 80.4117 56.3058C81.0845 56.2119 81.727 55.968 82.2913 55.5924C82.6717 55.3393 83.0011 55.0178 83.2625 54.6444C83.5559 54.2137 83.7502 53.7242 83.8316 53.2106C83.9274 52.6378 83.8825 52.0505 83.7007 51.4986C83.6148 51.2248 83.4839 50.9671 83.3133 50.7358C83.2254 50.6292 83.1276 50.531 83.0212 50.4426C82.9676 50.4009 82.9119 50.3618 82.8543 50.3257L82.7769 50.2782C82.7295 50.2558 82.679 50.2406 82.627 50.233L82.4665 50.1957L82.3863 50.1769C82.3523 50.1769 82.3581 50.145 82.2544 50.2001L81.9405 49.7859L81.8362 49.6559C81.8169 49.6314 81.8105 49.6263 81.7973 49.6107L81.7627 49.5715C81.7468 49.5544 81.7294 49.5388 81.7107 49.525C81.7036 49.525 81.693 49.5183 81.6975 49.5342C81.6988 49.5525 81.6959 49.5709 81.6892 49.588L81.6869 49.5967V49.6011V49.6033C81.8474 49.5546 80.2788 50.0274 80.9436 49.8264L81.0341 49.778L81.2161 49.6808L81.5829 49.4848C81.6773 49.4485 81.6285 49.4271 81.6182 49.4016L81.5726 49.3268L81.4792 49.1761L81.3027 48.9078L81.5945 48.7013L81.7402 48.5977L81.858 48.4907L82.3337 48.0599C82.3747 48.0232 82.4123 47.9901 82.4508 47.9487L82.5112 47.8773L82.6007 47.7715C82.6627 47.7023 82.7207 47.6297 82.7743 47.5539C82.8882 47.4059 82.9938 47.2519 83.0908 47.0925C83.189 46.9329 83.2786 46.7681 83.3592 46.5989L83.476 46.344L83.5723 46.0809C83.6341 45.9045 83.6841 45.7243 83.7222 45.5414C83.7615 45.3597 83.7893 45.1757 83.8056 44.9905C83.8185 44.8062 83.8185 44.6213 83.8056 44.437C83.7917 44.1809 83.7465 43.9274 83.6708 43.6822C83.5955 43.4449 83.4932 43.2169 83.3659 43.0025L83.1531 42.69C83.0684 42.5944 82.9907 42.4953 82.905 42.4032C82.7294 42.2226 82.5374 42.0584 82.3314 41.9128C82.1295 41.772 81.9135 41.6521 81.6869 41.555C81.4706 41.4601 81.2437 41.3912 81.011 41.3498C80.9003 41.3256 80.7875 41.312 80.6743 41.3093L80.5308 41.3026C80.4579 41.3034 80.3852 41.3082 80.3129 41.317C80.1598 41.3431 79.9752 41.4173 79.8096 41.4642L79.3024 41.6235L78.7157 41.8465L77.6482 42.2547L77.7567 42.0355L77.81 41.9271L77.8825 41.7908C77.9796 41.6092 78.0759 41.4286 78.1714 41.2491L78.7404 40.1775C78.9215 39.8337 79.089 39.481 79.2097 39.1936L79.3246 38.9164C79.3541 38.8358 79.3888 38.7571 79.4138 38.6755C79.6355 38.0949 79.7364 37.4758 79.7104 36.8555C79.682 36.3269 79.5187 35.8143 79.236 35.3655C79.0062 34.9998 78.6656 34.7158 78.2632 34.554C77.9174 34.4338 77.5462 34.4043 77.1857 34.4686C76.9077 34.517 76.6428 34.6219 76.4076 34.7767C76.255 34.8804 76.115 35.0013 75.9904 35.1371C75.9057 35.2368 75.8383 35.2894 75.7978 35.2763C75.7574 35.2633 75.7445 35.1839 75.7657 35.0291C75.8161 34.8053 75.9214 34.5973 76.0722 34.4237C76.3167 34.1381 76.6311 33.9198 76.9851 33.7896C77.4711 33.6068 77.9999 33.5665 78.5084 33.6736C79.1497 33.829 79.7194 34.1946 80.1254 34.7114C80.5836 35.2921 80.8765 35.9842 80.9734 36.7156C81.0729 37.5158 80.9994 38.3279 80.7577 39.0977C80.7304 39.1968 80.697 39.293 80.6666 39.3918L80.5777 39.6486C80.5669 39.6791 80.559 39.7104 80.5539 39.7423L80.5449 39.7898C80.5423 39.8035 80.5356 39.8191 80.5674 39.7987C80.5911 39.7859 80.6159 39.7752 80.6415 39.7668L80.656 39.7624C80.656 39.7624 80.6624 39.7624 80.6605 39.7598C80.664 39.7598 80.6486 39.7598 80.6672 39.7598H80.7343C80.913 39.7606 81.0914 39.7765 81.2674 39.8073C81.621 39.86 81.9669 39.9547 82.2977 40.0893C82.6306 40.2224 82.9485 40.3899 83.2462 40.5889C83.5471 40.7921 83.8274 41.024 84.0829 41.2813C84.2097 41.4132 84.3275 41.5559 84.4492 41.6955C84.5573 41.8465 84.6681 41.9972 84.7701 42.155C84.9702 42.4827 85.1305 42.8329 85.2474 43.1982C85.307 43.3829 85.3531 43.5716 85.3854 43.7628C85.4223 43.9495 85.4455 44.1386 85.4551 44.3287C85.4742 44.5927 85.4742 44.8577 85.4551 45.1218C85.4322 45.3803 85.3924 45.6372 85.336 45.8906C85.2822 46.1393 85.2119 46.3841 85.1254 46.6235L84.99 46.974L84.8324 47.3105C84.6176 47.7454 84.3567 48.1563 84.054 48.5362C83.983 48.6313 83.907 48.7226 83.8265 48.8099C83.76 48.8851 83.631 49.0308 83.666 48.9893L83.6413 49.0024L83.5816 49.0343C83.578 49.0343 83.563 49.0445 83.5675 49.0406C83.5684 49.0389 83.5699 49.0375 83.5716 49.0365C83.5767 49.0345 83.5823 49.0345 83.5874 49.0365C83.6017 49.0409 83.6148 49.0484 83.6259 49.0585L83.6358 49.0674L83.641 49.0719C83.6349 49.0677 83.6567 49.0833 83.6275 49.0629L83.6474 49.0766L83.6872 49.1044C83.7914 49.1767 83.8915 49.2546 83.987 49.3379C84.1689 49.5025 84.3333 49.6852 84.4777 49.8831C84.7335 50.2569 84.9219 50.672 85.0343 51.1098C85.2403 51.8802 85.2478 52.6896 85.0561 53.4636C84.8932 54.1419 84.5733 54.7733 84.1218 55.3075C83.7395 55.7516 83.2698 56.1134 82.7416 56.3708C82.0241 56.7359 81.2127 56.879 80.4124 56.7815C80.2054 56.7577 80.0031 56.704 79.8118 56.6222C79.6822 56.5585 79.6225 56.5081 79.6308 56.4677Z" fill="#A2A2A2"/>
<path d="M84.5551 27.9165C84.5147 27.9031 84.4871 27.8438 84.4697 27.7511C84.4524 27.6584 84.4376 27.5281 84.402 27.3739C84.3636 27.1882 84.3018 27.0082 84.2181 26.8379C84.11 26.6146 83.9676 26.4094 83.796 26.2296C83.5917 26.0141 83.3497 25.8371 83.0819 25.7071C82.938 25.6378 82.7861 25.5863 82.6296 25.5538C82.4568 25.5145 82.2802 25.4931 82.1029 25.4901C81.7039 25.4863 81.3073 25.5523 80.9314 25.6851C80.8223 25.7208 80.7446 25.7523 80.6104 25.8081L80.2959 25.9512C80.1871 26.0053 80.0683 26.0786 79.9534 26.1423C79.4857 26.4237 78.9648 26.7669 78.4981 27.0546C78.5176 26.6346 78.5372 26.2098 78.5569 25.7801L78.5659 25.4535L78.571 25.2887L78.5732 25.2062L78.5633 25.1425L78.5235 24.8853L78.5033 24.7556C78.5001 24.7365 78.4965 24.7072 78.4936 24.6961L78.4843 24.6687C78.3941 24.3679 78.2561 24.0834 78.0754 23.8259C77.9839 23.6932 77.8807 23.5688 77.767 23.4543C77.6556 23.3373 77.5328 23.2315 77.4004 23.1386C77.2703 23.0444 77.1314 22.9627 76.9857 22.8945C76.9138 22.8595 76.8378 22.8359 76.7646 22.8037L76.5335 22.7374L76.3281 22.6976L76.1188 22.6747L75.9073 22.6689L75.6951 22.6798C75.5547 22.6939 75.4153 22.7169 75.2779 22.7486C75.1411 22.7816 75.0068 22.8242 74.876 22.876C74.7467 22.925 74.6215 22.9843 74.5018 23.0532C74.4413 23.0843 74.3832 23.1197 74.3278 23.159C74.2472 23.2075 74.173 23.2659 74.107 23.3326L73.9484 23.477L73.8695 23.549C73.8415 23.5808 73.8114 23.6242 73.7828 23.6608L73.4339 24.1216C73.2116 24.4306 72.9913 24.7368 72.773 25.0402C72.5455 24.487 72.3295 23.917 72.0855 23.3833C72.0258 23.2507 71.9703 23.1109 71.9087 22.9876C71.8907 22.9495 71.8692 22.9133 71.8445 22.8792L71.8194 22.8407L71.7716 22.7661C71.7125 22.6649 71.6461 22.5681 71.5729 22.4765C71.3027 22.1147 70.9813 21.7935 70.6187 21.5228C70.2922 21.2728 69.9385 21.0599 69.5643 20.8881C69.2382 20.7396 68.8986 20.6223 68.5501 20.5376L68.3161 20.479L68.0914 20.4436C67.9543 20.4162 67.8154 20.3982 67.6758 20.3897C67.4129 20.3579 67.1872 20.3623 66.9969 20.3534C66.8066 20.3445 66.6602 20.3569 66.5517 20.3384C66.4432 20.32 66.3794 20.297 66.3653 20.2553C66.3511 20.2135 66.3877 20.1597 66.476 20.0896C66.6049 19.9928 66.7468 19.9142 66.8974 19.856C67.1369 19.7612 67.3862 19.693 67.6408 19.6527C67.8013 19.6209 67.9643 19.6026 68.128 19.5982L68.3989 19.5842L68.6846 19.5976C69.1183 19.621 69.5476 19.6958 69.9633 19.8207C70.4534 19.9684 70.9221 20.1788 71.3576 20.4465C71.8604 20.7485 72.3122 21.1272 72.6963 21.5687C73.2481 22.2617 73.0815 22.0552 73.1399 22.1002L73.1569 22.0619L73.1633 22.0482C73.1572 22.0508 73.2019 22.0119 73.2182 21.996C73.2144 21.9928 73.3286 21.9109 73.4108 21.8516C73.4968 21.7879 73.5865 21.7292 73.6794 21.6757C73.8638 21.5629 74.057 21.4648 74.2572 21.3826C74.4594 21.2975 74.6676 21.2273 74.8802 21.1726C75.0969 21.1182 75.3172 21.0788 75.5395 21.0547L75.8778 21.0308L76.2225 21.0378L76.5694 21.0738C76.685 21.0923 76.8005 21.1172 76.9161 21.1401C77.0493 21.172 77.1815 21.2144 77.3122 21.2551C77.4405 21.3064 77.5689 21.3526 77.6903 21.4116C77.9317 21.5264 78.1613 21.6645 78.3755 21.8239C78.5847 21.9768 78.7782 22.1498 78.9533 22.3404C79.1266 22.5237 79.2828 22.7223 79.4199 22.9337C79.6897 23.343 79.8882 23.7944 80.007 24.2691C80.0391 24.4013 80.0259 24.3911 80.0253 24.4102L80.0115 24.4695C80.0166 24.4807 80.0394 24.4714 80.0641 24.4714C80.0878 24.469 80.1112 24.4645 80.1341 24.458C80.2423 24.4262 80.4056 24.372 80.5404 24.3417C81.0866 24.2003 81.655 24.1639 82.2149 24.2347C82.476 24.2691 82.7325 24.3323 82.9795 24.423C83.2165 24.5074 83.4414 24.622 83.6487 24.7639C84.0053 25.0078 84.307 25.3224 84.5349 25.688C84.7178 25.9781 84.8419 26.3008 84.9005 26.6381C84.9461 26.886 84.9424 27.1404 84.8895 27.3869C84.8617 27.5394 84.8009 27.6841 84.7114 27.811C84.6491 27.8967 84.5952 27.9299 84.5551 27.9165Z" fill="#A2A2A2"/>
<path d="M70.4985 47.4239C70.3984 47.358 70.4453 47.1149 70.5162 46.7274C70.6162 46.2049 70.6418 45.6711 70.5923 45.1416C70.5237 44.4088 70.2517 43.7093 69.8065 43.1208C69.5433 42.7961 69.2272 42.5175 68.8712 42.2965C68.4834 42.0609 68.0575 41.8934 67.6124 41.8013C67.4913 41.7753 67.3688 41.7561 67.2455 41.744C67.1379 41.7347 67.0297 41.7318 66.9217 41.7354C66.7807 41.7269 66.6392 41.7344 66.4999 41.7577L65.9999 41.837L65.4863 41.9291L64.5311 42.1008C64.7819 41.6303 65.0286 41.1676 65.2713 40.7126L65.365 40.5367L65.4109 40.4497L65.4385 40.3751L65.5479 40.0807L65.6558 39.7914C65.6692 39.762 65.6782 39.7307 65.6824 39.6987L65.694 39.6349C65.7646 39.3066 65.7855 38.9696 65.7559 38.6351C65.7328 38.3249 65.6748 38.0183 65.5829 37.7209C65.4999 37.4597 65.3924 37.2068 65.262 36.9654C65.208 36.8573 65.1466 36.7531 65.078 36.6535C65.0221 36.56 64.96 36.4703 64.8922 36.3849C64.7725 36.2154 64.6515 36.0844 64.5545 35.9656C64.4728 35.8745 64.3965 35.7788 64.326 35.6788C64.2769 35.5998 64.2589 35.536 64.2798 35.4914C64.3007 35.4468 64.3591 35.4236 64.4567 35.4226C64.5948 35.4239 64.7317 35.4488 64.8614 35.4962C65.0666 35.5674 65.2615 35.6647 65.4414 35.7858C65.5581 35.8582 65.6681 35.9408 65.7701 36.0325C65.8908 36.13 66.0027 36.2379 66.1045 36.3549C66.3481 36.6216 66.5563 36.9183 66.724 37.2375C66.9187 37.6132 67.0604 38.0136 67.1451 38.4276C67.2464 38.9015 67.2671 39.3888 67.2064 39.8695L67.1884 40.0326L67.1865 40.0645C67.1865 40.0855 67.1829 40.111 67.1865 40.1078C67.1913 40.1151 67.1955 40.1167 67.2006 40.1161C67.2102 40.1117 67.2191 40.1062 67.2272 40.0995C67.2437 40.0985 67.2602 40.0985 67.2767 40.0995C67.3213 40.0996 67.3658 40.1031 67.4099 40.11C67.5911 40.1263 67.7712 40.1533 67.9491 40.191C68.5961 40.3243 69.2109 40.5813 69.759 40.9477C70.271 41.2941 70.7108 41.7354 71.0541 42.2474C71.3554 42.7097 71.5685 43.2231 71.6826 43.7619C71.7803 44.2177 71.8074 44.6856 71.7632 45.1495C71.7106 45.8082 71.4838 46.4415 71.1055 46.9852C70.8234 47.3564 70.5868 47.4838 70.4985 47.4239Z" fill="#A2A2A2"/>
<path d="M49.2173 16.4367C49.1185 16.5046 48.9086 16.3708 48.5725 16.1614C48.1213 15.8749 47.6318 15.6527 47.1182 15.5015C46.4073 15.292 45.6517 15.2826 44.9356 15.4741C44.5341 15.5958 44.156 15.7835 43.8171 16.0295C43.4527 16.2992 43.1378 16.6293 42.8863 17.0052C42.8168 17.107 42.7532 17.2128 42.6959 17.3219C42.6473 17.4177 42.6044 17.5164 42.5675 17.6173C42.5075 17.7441 42.4618 17.8771 42.4315 18.014L42.3198 18.5047L42.2145 19.0145C42.1486 19.3331 42.0836 19.6477 42.0197 19.9583L40.9967 18.7602L40.8683 18.6082L40.8042 18.5337L40.7448 18.4808L40.5105 18.2705L40.2797 18.063C40.2572 18.0397 40.2314 18.0198 40.203 18.0041L40.1481 17.9697C39.8674 17.7827 39.5601 17.6382 39.2366 17.5411C38.9377 17.4473 38.6293 17.3867 38.317 17.3604C38.0419 17.3399 37.7656 17.3448 37.4915 17.3751C37.3703 17.3844 37.2499 17.4023 37.1313 17.4286C37.0228 17.4452 36.9156 17.4691 36.8104 17.5C36.6075 17.5472 36.44 17.6103 36.293 17.6549C36.1774 17.6965 36.0595 17.7315 35.9399 17.7597C35.8481 17.7753 35.7817 17.768 35.7473 17.7323C35.713 17.6966 35.7133 17.6342 35.7473 17.5437C35.7998 17.4168 35.8739 17.3 35.9665 17.1983C36.1094 17.0355 36.2731 16.892 36.4534 16.7713C36.5647 16.6907 36.6828 16.62 36.8065 16.56C36.9426 16.4851 37.0852 16.4222 37.2324 16.372C37.5723 16.2467 37.927 16.1651 38.2878 16.1293C38.7115 16.0896 39.1388 16.108 39.5575 16.1841C40.0381 16.2663 40.5015 16.4278 40.9284 16.662L41.0744 16.7391L41.1043 16.7531C41.1235 16.7621 41.1463 16.7735 41.145 16.7694C41.1534 16.7675 41.1566 16.7643 41.1575 16.7595C41.1573 16.7487 41.1555 16.7379 41.1521 16.7276C41.1473 16.7362 41.164 16.6983 41.1707 16.6821C41.1871 16.6411 41.2069 16.6014 41.2298 16.5635C41.3125 16.4026 41.4048 16.2466 41.5061 16.0964C41.8714 15.5499 42.3401 15.0791 42.8863 14.7101C43.4006 14.3672 43.9768 14.1262 44.5832 14.0001C45.1276 13.8944 45.6869 13.8889 46.2333 13.9839C46.6958 14.0635 47.1433 14.2126 47.5605 14.4262C48.1571 14.7193 48.665 15.164 49.0325 15.715C49.2751 16.1124 49.3063 16.3787 49.2173 16.4367Z" fill="#A2A2A2"/>
</svg>
