<svg width="156" height="515" viewBox="0 0 156 515" fill="none" xmlns="http://www.w3.org/2000/svg">
<path d="M80.5226 31.6899C72.4986 31.314 66.0765 31.3198 65.6128 40.8745C65.4718 44.2188 66.1677 46.4601 67.4618 47.9736C65.9877 49.3263 65.0255 51.5306 64.8646 54.9903C64.7136 58.7467 65.6219 61.1414 67.2146 62.6449C65.9703 64.0356 65.1408 66.1442 65.0412 69.2585C64.9002 72.6028 65.5962 74.8449 66.8902 76.3576C65.4162 77.7103 64.4539 79.9145 64.293 83.3742C63.8293 92.929 70.2714 93.5134 78.229 93.9404C86.1866 94.3674 92.6626 94.0138 93.1379 84.7566C93.2798 81.4123 92.583 79.1702 91.1736 77.6386C92.7157 76.2372 93.7261 74.1006 93.887 70.6409C94.0371 66.8844 93.1288 64.4898 91.4208 62.9672C92.7788 61.5956 93.6066 59.4869 93.7095 56.3726C93.8513 53.0284 93.1545 50.7862 91.7452 49.2546C93.2873 47.8532 94.2976 45.7158 94.4585 42.2569C94.9305 32.9997 88.5457 32.0658 80.5226 31.6899Z" fill="#171C22"/>
<path d="M69.3564 74.4031C70.4004 72.8887 71.6482 71.5236 73.0652 70.3458C74.4497 69.1587 75.9399 68.099 77.5172 67.1796C79.0961 66.2566 80.7582 65.482 82.4819 64.8657C84.2383 64.2406 86.0639 63.8271 87.9194 63.6342C88.1586 63.6174 88.3952 63.6924 88.5804 63.8437C88.7656 63.9951 88.8853 64.2113 88.9148 64.4478C88.9125 64.608 88.8721 64.7654 88.7969 64.9071C88.7216 65.0488 88.6136 65.1708 88.4818 65.263V65.263C86.9489 66.2522 85.5038 67.0765 84.0389 68.0171C82.574 68.9576 81.1281 69.7828 79.6151 70.6549L75.2402 73.367C73.7752 74.3075 72.3302 75.1327 70.7682 75.9389C70.5092 76.063 70.2119 76.0826 69.9386 75.9937C69.6653 75.9047 69.4373 75.714 69.3025 75.4616C69.2376 75.2916 69.2091 75.11 69.2188 74.9285C69.2285 74.747 69.2762 74.5694 69.3589 74.4073L69.3564 74.4031Z" fill="#62C370"/>
<path d="M69.6708 59.6795C70.7147 58.1651 71.9626 56.7999 73.3796 55.6222C74.7641 54.4351 76.2543 53.3753 77.8316 52.4559C79.4103 51.5332 81.0721 50.7585 82.7955 50.1421C84.5519 49.5172 86.3775 49.1037 88.233 48.9105C88.4722 48.8937 88.7087 48.9687 88.8939 49.1201C89.0791 49.2715 89.1988 49.4877 89.2284 49.7241C89.2261 49.8843 89.1857 50.0417 89.1104 50.1834C89.0352 50.3251 88.9272 50.4471 88.7954 50.5394V50.5394C87.2624 51.5286 85.8174 52.3529 84.3525 53.2935C82.8875 54.234 81.4417 55.0592 79.9767 55.9997L75.6002 58.7068C74.1353 59.6474 72.6902 60.4725 71.1282 61.2795L71.0611 61.3273C70.802 61.4516 70.5045 61.4713 70.2311 61.3821C69.9578 61.2929 69.7298 61.1019 69.5953 60.8492C69.5051 60.6645 69.4646 60.4597 69.4778 60.2549C69.4911 60.05 69.5575 59.852 69.6708 59.6803V59.6795Z" fill="#62C370"/>
<path d="M70.0333 45.0313C71.0773 43.5171 72.3251 42.1522 73.7421 40.9748C75.1264 39.7874 76.6166 38.7277 78.1941 37.8085C79.7727 36.8854 81.4345 36.1108 83.158 35.4947C84.9142 34.869 86.7398 34.4555 88.5955 34.2631C88.8347 34.2461 89.0714 34.321 89.2566 34.4724C89.4419 34.6239 89.5615 34.8402 89.5909 35.0767C89.5885 35.2368 89.548 35.394 89.4727 35.5356C89.3975 35.6771 89.2896 35.799 89.1579 35.8912L89.0899 35.939C87.5577 36.9282 86.1119 37.7525 84.647 38.6939C83.182 39.6352 81.737 40.4596 80.2721 41.4001L75.8955 44.1031C74.4306 45.0428 72.9847 45.8688 71.4717 46.7409L71.4045 46.7896C71.1452 46.9137 70.8477 46.9332 70.5743 46.8441C70.3008 46.755 70.0728 46.5641 69.9379 46.3114C69.8533 46.1045 69.8179 45.881 69.8344 45.6582C69.851 45.4355 69.919 45.2195 70.0333 45.0271V45.0313Z" fill="#62C370"/>
<path d="M70.0358 89.2253C71.0795 87.7107 72.3274 86.3456 73.7446 85.168C75.1291 83.9809 76.6193 82.9212 78.1966 82.0018C79.7751 81.0785 81.4369 80.3039 83.1605 79.6879C84.9168 79.0626 86.7424 78.6492 88.598 78.4564C88.8371 78.4398 89.0736 78.5149 89.2587 78.6662C89.4439 78.8175 89.5636 79.0336 89.5934 79.27C89.591 79.4303 89.5505 79.5877 89.4751 79.7294C89.3996 79.8711 89.2915 79.9931 89.1596 80.0852L89.0924 80.133C87.5602 81.1222 86.1144 81.9466 84.6494 82.8871C83.1845 83.8277 81.7387 84.6528 80.2746 85.5934L75.8988 88.2996C74.4339 89.2402 72.988 90.0653 71.475 90.9375L71.4078 90.9853C71.1486 91.1096 70.851 91.1293 70.5775 91.0401C70.304 90.951 70.0759 90.7599 69.9412 90.5072C69.8566 90.3004 69.8212 90.077 69.8378 89.8543C69.8543 89.6317 69.9224 89.4159 70.0366 89.2237L70.0358 89.2253Z" fill="#62C370"/>
<path d="M108.455 466.359C107.888 478.318 78.1833 515.258 69.8823 514.776C61.5813 514.295 33.6812 475.847 33.9134 464.836L41.2008 107.398L115.742 108.921C115.742 108.921 109.09 454.351 108.455 466.359Z" fill="#171C22"/>
<path d="M105.417 122.348C100.215 126.454 95.2715 130.78 90.3765 135.173C86.1758 138.972 82.0232 142.84 77.8707 146.703C73.8458 142.672 69.8243 138.642 65.7099 134.774C60.9327 130.265 56.1546 125.756 51.1103 121.439C50.896 121.251 50.6179 121.149 50.3317 121.156C50.0454 121.162 49.7721 121.275 49.5664 121.473C49.3607 121.671 49.2377 121.939 49.2221 122.223C49.2064 122.507 49.2992 122.786 49.482 123.005C53.6138 128.176 57.9671 133.089 62.3885 137.952C66.1437 142.175 70.103 146.253 73.991 150.38L68.8173 155.377C66.5245 157.718 64.1155 160.038 61.8227 162.378C57.2372 167.059 52.6316 171.858 48.3555 176.822C48.1131 177.114 47.9923 177.488 48.0177 177.865C48.0432 178.243 48.213 178.597 48.4923 178.854C48.751 179.067 49.0759 179.184 49.4118 179.186C49.7476 179.187 50.0735 179.072 50.3339 178.862C55.4893 174.689 60.4316 170.362 65.3266 165.969C67.8318 163.782 70.1727 161.509 72.6264 159.254L77.7321 154.308L82.7092 159.383C85.0643 161.661 87.4002 164.055 89.7552 166.334C94.4652 170.89 99.2947 175.466 104.29 179.716C104.584 179.957 104.959 180.077 105.339 180.052C105.719 180.026 106.075 179.858 106.334 179.58C106.548 179.324 106.667 179.001 106.668 178.667C106.67 178.333 106.554 178.009 106.342 177.75C102.142 172.627 97.7891 167.715 93.3686 162.852C91.167 160.362 88.8801 158.036 86.6594 155.661L81.6309 150.52C85.6872 146.52 89.6772 142.568 93.6349 138.435C98.1723 133.688 102.71 128.94 107.054 123.927C107.154 123.812 107.23 123.679 107.276 123.534C107.323 123.39 107.34 123.237 107.327 123.086C107.313 122.935 107.269 122.788 107.197 122.654C107.125 122.521 107.027 122.403 106.908 122.307C106.681 122.17 106.419 122.101 106.154 122.11C105.889 122.119 105.632 122.204 105.415 122.357L105.417 122.348Z" fill="#A2A2A2"/>
<path d="M99.8687 409.822C94.6659 413.928 89.7228 418.254 84.8278 422.648C80.579 426.379 76.4745 430.314 72.3219 434.177C68.2971 430.147 64.2756 426.116 60.1612 422.248C55.3831 417.739 50.6059 413.23 45.5616 408.913C45.4483 408.809 45.3144 408.73 45.1684 408.681C45.0225 408.631 44.8678 408.613 44.7142 408.626C44.5607 408.64 44.4117 408.686 44.2769 408.76C44.1421 408.834 44.0245 408.936 43.9316 409.058C43.7555 409.274 43.658 409.543 43.6548 409.822C43.6517 410.1 43.743 410.371 43.9142 410.591C48.046 415.762 52.3993 420.674 56.8207 425.538C60.5751 429.761 64.5352 433.839 68.4224 437.966L63.2495 442.963C60.9558 445.304 58.5477 447.625 56.2549 449.965C51.6694 454.646 47.0639 459.445 42.7868 464.408C42.5456 464.701 42.4255 465.074 42.4509 465.451C42.4764 465.828 42.6454 466.182 42.9237 466.44C43.1826 466.653 43.5076 466.77 43.8436 466.771C44.1795 466.773 44.5055 466.658 44.7661 466.448C49.9207 462.275 54.8638 457.949 59.7588 453.555C62.264 451.368 64.6049 449.095 66.9939 446.889L72.2199 441.959L77.2493 447.1C79.6043 449.378 81.9394 451.771 84.2944 454.05C89.0044 458.607 93.8339 463.183 98.8293 467.433C99.1237 467.673 99.4989 467.793 99.8787 467.767C100.259 467.742 100.614 467.574 100.874 467.297C101.088 467.04 101.206 466.717 101.207 466.383C101.209 466.05 101.094 465.726 100.882 465.467C96.6825 460.344 92.3283 455.432 87.9078 450.569C85.7071 448.079 83.4193 445.752 81.1995 443.378L76.1701 438.237C80.2264 434.237 84.2164 430.285 88.1741 426.151C92.7116 421.404 97.3171 416.609 101.593 411.643C101.693 411.529 101.769 411.395 101.816 411.251C101.863 411.106 101.88 410.954 101.866 410.803C101.853 410.652 101.808 410.505 101.736 410.371C101.665 410.237 101.566 410.119 101.447 410.024C101.358 409.907 101.247 409.809 101.119 409.735C100.991 409.662 100.85 409.614 100.704 409.595C100.557 409.577 100.408 409.588 100.266 409.627C100.124 409.666 99.991 409.734 99.8753 409.825L99.8687 409.822Z" fill="#A2A2A2"/>
<path d="M101.386 338.016C96.1831 342.122 91.24 346.448 86.3458 350.841C82.0962 354.573 77.9917 358.508 73.8392 362.371C69.8143 358.34 65.7928 354.31 61.6784 350.442C56.9012 345.933 52.1231 341.424 47.0788 337.107C46.9655 337.003 46.8316 336.924 46.6857 336.875C46.5397 336.826 46.385 336.807 46.2314 336.821C46.0779 336.834 45.9289 336.88 45.7941 336.954C45.6593 337.029 45.5417 337.13 45.4488 337.252C45.2727 337.469 45.1752 337.738 45.1721 338.016C45.1689 338.294 45.2603 338.565 45.4314 338.786C49.5632 343.957 53.9166 348.868 58.3379 353.732C62.0931 357.955 66.0524 362.033 69.9404 366.16L64.7667 371.157C62.4739 373.497 60.065 375.818 57.7722 378.159C53.1866 382.839 48.5811 387.638 44.3049 392.603C44.0628 392.895 43.9421 393.268 43.9675 393.645C43.993 394.023 44.1626 394.376 44.4418 394.634C44.7004 394.847 45.0253 394.964 45.361 394.965C45.6968 394.967 46.0228 394.852 46.2833 394.642C51.4388 390.468 56.3811 386.142 61.2761 381.749C63.7812 379.562 66.1221 377.288 68.5111 375.082L73.7371 370.152L78.7657 375.293C81.1207 377.572 83.4566 379.966 85.8116 382.244C90.5217 386.801 95.3511 391.377 100.346 395.627C100.64 395.868 101.015 395.988 101.395 395.963C101.775 395.937 102.131 395.769 102.39 395.491C102.605 395.234 102.722 394.911 102.724 394.577C102.725 394.244 102.61 393.92 102.398 393.661C98.1989 388.538 93.8455 383.626 89.4242 378.762C87.2235 376.273 84.9357 373.946 82.7159 371.572L77.6873 366.43C81.7428 362.431 85.7337 358.479 89.6913 354.346C94.228 349.598 98.8334 344.802 103.11 339.838C103.21 339.723 103.286 339.589 103.333 339.445C103.379 339.3 103.396 339.148 103.383 338.997C103.369 338.846 103.325 338.699 103.253 338.565C103.181 338.431 103.083 338.313 102.964 338.218C102.875 338.1 102.763 338.002 102.635 337.928C102.506 337.854 102.365 337.806 102.218 337.788C102.071 337.769 101.922 337.78 101.779 337.819C101.637 337.859 101.503 337.927 101.388 338.018L101.386 338.016Z" fill="#A2A2A2"/>
<path d="M101.932 264.037C96.7281 268.144 91.7858 272.47 86.8908 276.863C82.642 280.595 78.5375 284.529 74.385 288.393C70.3601 284.363 66.3386 280.332 62.2242 276.464C57.4461 271.955 52.6689 267.446 47.6246 263.129C47.5114 263.025 47.3776 262.946 47.2317 262.896C47.0858 262.847 46.9311 262.829 46.7776 262.842C46.6242 262.856 46.4753 262.901 46.3405 262.976C46.2058 263.05 46.0883 263.152 45.9954 263.274C45.8192 263.49 45.7216 263.759 45.7183 264.037C45.715 264.316 45.8062 264.587 45.9772 264.807C50.1099 269.978 54.4632 274.89 58.8837 279.754C62.6389 283.976 66.5983 288.055 70.4862 292.181L65.3125 297.178C63.0197 299.519 60.6116 301.84 58.3188 304.18C53.7324 308.861 49.1277 313.66 44.8507 318.624C44.6086 318.916 44.4879 319.289 44.5133 319.667C44.5388 320.044 44.7084 320.398 44.9876 320.655C45.2462 320.868 45.5713 320.986 45.9073 320.987C46.2433 320.989 46.5694 320.874 46.8299 320.663C51.9846 316.49 56.9277 312.164 61.8219 307.771C64.327 305.583 66.6688 303.311 69.0578 301.104L74.2838 296.174L79.3123 301.315C81.6673 303.593 84.0033 305.987 86.3583 308.266C91.0683 312.822 95.8978 317.399 100.893 321.648C101.187 321.889 101.562 322.009 101.942 321.984C102.322 321.958 102.678 321.79 102.937 321.512C103.151 321.255 103.269 320.933 103.271 320.599C103.272 320.265 103.157 319.941 102.945 319.682C98.7455 314.56 94.3922 309.648 89.9717 304.784C87.7701 302.294 85.4831 299.968 83.2625 297.594L78.2265 292.453C82.2828 288.453 86.2728 284.501 90.2305 280.367C94.768 275.62 99.3726 270.824 103.65 265.859C103.749 265.744 103.825 265.611 103.872 265.466C103.919 265.322 103.936 265.17 103.922 265.019C103.909 264.868 103.865 264.721 103.793 264.587C103.721 264.453 103.622 264.335 103.504 264.24C103.415 264.122 103.303 264.024 103.175 263.95C103.047 263.875 102.905 263.828 102.758 263.809C102.611 263.79 102.462 263.801 102.319 263.841C102.177 263.88 102.043 263.948 101.928 264.04L101.932 264.037Z" fill="#A2A2A2"/>
<path d="M102.741 191.135C97.5377 195.242 92.5954 199.568 87.7004 203.961C83.4516 207.692 79.3471 211.627 75.1946 215.49C71.1697 211.46 67.1482 207.429 63.0338 203.562C58.2557 199.053 53.4785 194.543 48.4342 190.226C48.321 190.123 48.1871 190.043 48.0413 189.994C47.8954 189.945 47.7407 189.926 47.5872 189.94C47.4338 189.954 47.2849 189.999 47.1501 190.073C47.0154 190.148 46.8979 190.249 46.805 190.372C46.6288 190.588 46.5312 190.857 46.5279 191.135C46.5246 191.413 46.6158 191.684 46.7868 191.905C50.9195 197.076 55.2728 201.988 59.6933 206.851C63.4485 211.074 67.4078 215.152 71.2958 219.279L66.1155 224.277C63.8227 226.617 61.4146 228.938 59.1218 231.278C54.5353 235.958 49.9307 240.758 45.6537 245.722C45.4124 246.014 45.2923 246.387 45.3178 246.765C45.3432 247.142 45.5122 247.496 45.7905 247.754C46.0494 247.966 46.3745 248.083 46.7104 248.085C47.0463 248.086 47.3723 247.972 47.6329 247.761C52.7909 243.588 57.7373 239.261 62.6315 234.869C65.1366 232.682 67.4784 230.408 69.8674 228.202L75.0934 223.272L80.1219 228.413C82.4769 230.692 84.8129 233.085 87.1679 235.363C91.8779 239.92 96.7074 244.497 101.703 248.747C101.997 248.988 102.372 249.107 102.752 249.082C103.132 249.057 103.488 248.888 103.747 248.611C103.961 248.354 104.079 248.031 104.08 247.697C104.082 247.363 103.967 247.039 103.755 246.78C99.5451 241.658 95.1943 236.746 90.7738 231.883C88.5722 229.393 86.2853 227.066 84.0646 224.692L79.0361 219.551C83.0924 215.551 87.0824 211.6 91.0401 207.466C95.5776 202.718 100.182 197.923 104.459 192.957C104.559 192.843 104.635 192.709 104.682 192.565C104.728 192.421 104.745 192.268 104.732 192.117C104.718 191.966 104.674 191.819 104.602 191.686C104.53 191.552 104.432 191.434 104.313 191.338C104.224 191.221 104.112 191.122 103.984 191.048C103.856 190.974 103.715 190.926 103.568 190.908C103.421 190.889 103.272 190.9 103.129 190.939C102.986 190.979 102.853 191.047 102.737 191.138L102.741 191.135Z" fill="#A2A2A2"/>
<path d="M3.43355 101.417C4.25229 101.138 5.02374 100.792 5.77612 100.562C6.52849 100.331 7.29912 99.9846 8.05067 99.7547C9.62178 99.2452 11.1257 98.7844 12.6296 98.3228C15.6856 97.4672 18.7415 96.6115 21.8945 95.8902C28.0842 94.4282 34.3469 93.2902 40.6566 92.4808C53.2629 90.7703 65.9862 90.06 78.7059 90.3565C91.4761 90.6296 104.201 91.9547 116.751 94.3182C123.03 95.5292 129.203 97.0187 135.385 98.805C136.919 99.2345 138.455 99.664 139.967 100.206C141.479 100.749 143.015 101.182 144.462 101.773C145.977 102.317 147.423 102.91 148.986 103.522L151.205 104.478C151.929 104.775 152.698 105.138 153.472 105.502C154.533 106.014 155.348 106.919 155.742 108.023C156.137 109.127 156.078 110.341 155.58 111.402C155.191 112.177 154.586 112.823 153.838 113.266C153.09 113.708 152.229 113.927 151.359 113.898L151.127 113.86L132.878 112.745C126.812 112.397 120.746 112.048 114.661 111.814C102.559 111.298 90.4851 110.964 78.4936 110.879C66.502 110.794 54.328 111.035 42.2261 111.228L23.9634 111.647L14.8312 111.857L10.2315 111.986L7.97518 111.969C7.26179 111.969 6.43227 111.951 5.71888 111.951L5.30412 111.942C3.84877 111.885 2.47512 111.259 1.48222 110.2C0.489314 109.141 -0.0424613 107.735 0.00265301 106.288C0.084167 105.246 0.445147 104.244 1.04807 103.388C1.65098 102.531 2.47383 101.85 3.43106 101.417H3.43355Z" fill="#E24444"/>
<path d="M90.0182 487.076C86.9958 487.564 83.9464 487.871 80.8868 487.994C77.8297 488.141 74.7923 488.172 71.7745 488.089C68.7559 488.006 65.6891 487.855 62.7095 487.541C59.6485 487.274 56.6056 486.832 53.5956 486.217C53.2913 486.151 53.0258 485.968 52.8574 485.708C52.6889 485.447 52.6313 485.131 52.6972 484.828C52.7296 484.605 52.8376 484.398 53.0033 484.243C53.1691 484.088 53.3828 483.994 53.6097 483.975C56.6358 483.448 59.6912 483.103 62.7593 482.942C65.7679 482.728 68.8056 482.694 71.8915 482.732C74.9773 482.77 77.9951 482.851 81.0427 483.116C84.0904 483.382 87.119 483.763 90.1758 484.325C90.3653 484.362 90.5455 484.436 90.7057 484.544C90.866 484.651 91.0032 484.789 91.1093 484.949C91.2154 485.11 91.2883 485.289 91.3237 485.478C91.3591 485.667 91.3563 485.861 91.3155 486.048C91.1887 486.305 91.0062 486.53 90.7813 486.707C90.5564 486.885 90.2946 487.011 90.0148 487.076H90.0182Z" fill="#A2A2A2"/>
<path d="M99.2266 28.6265C98.9777 36.9159 90.8061 36.3389 80.2754 36.0224C69.7446 35.7058 60.7675 35.705 61.0205 27.4156C61.2735 19.1262 74.3277 0.00679186 81.4666 0.000197262C88.5548 -0.0731676 99.4796 20.3371 99.2266 28.6265Z" fill="#E24444"/>
</svg>
