<svg width="290" height="362" viewBox="0 0 290 362" fill="none" xmlns="http://www.w3.org/2000/svg">
<path d="M96.0074 335.157C102.171 342.594 114.344 346.321 123.266 345.978C133.564 345.581 142.669 340.538 149.39 332.952C157.354 323.964 153.206 313.914 152.26 303.155C149.091 267.105 145.924 231.059 142.755 195.009C141.718 183.204 140.531 170.867 135.077 160.403C129.626 149.939 118.466 142.207 109.702 146.353C100.065 150.913 98.3847 166.001 97.9371 178.833C96.9119 208.05 95.8947 237.268 94.8734 266.485C94.493 277.371 94.7413 288.268 94.4668 299.156C94.206 309.502 88.6258 322.501 94.0808 332.35C94.6279 333.338 95.2751 334.274 96.0074 335.157Z" fill="#5E3F26"/>
<path d="M58.8514 163.53C67.2295 199.028 85.7927 230.364 111.11 251.748C116.546 256.339 137.251 280.316 119.476 284.095C109.483 286.22 93.3953 265.355 87.8562 258.421C67.9686 233.524 56.9233 198.959 58.8514 163.53Z" fill="#5E3F26"/>
<path d="M164.869 215.378C165.737 212.989 167.845 209.956 170.207 211.058C171.648 211.731 171.894 213.553 171.909 215.088C172.084 233.537 165.239 252.079 152.917 266.53C141.475 279.949 127.206 264.712 137.861 253.64C149.545 241.499 158.994 231.561 164.869 215.378Z" fill="#5E3F26"/>
<path d="M228.344 193.789C229.744 192.574 231.026 191.245 232.161 189.795C237.588 182.863 239.204 173.761 238.506 164.973C237.382 150.848 230.023 138.892 233.533 124.803C236.762 111.838 244.686 100.003 243.327 86.0568C242.063 73.0922 234.521 59.854 221.962 53.3949C216.643 50.6595 210.722 49.234 205.195 46.9166C187.237 39.3888 185.545 14.5042 165.028 10.2847C157.85 8.80841 150.53 9.76789 143.35 10.4991C136.17 11.2304 128.665 11.6926 121.727 9.31233C117.145 7.74062 113.092 5.01911 108.745 2.90938C93.6183 -4.43143 73.1381 3.12067 63.9106 14.4084C57.0695 22.7768 54.567 33.5568 49.6322 43.0548C46.3343 49.4021 41.236 55.7716 34.221 58.8994C26.6054 62.2951 18.6008 61.6691 12.3382 67.8875C0.446448 79.6945 -4.92539 99.1438 5.71876 114.206C9.97365 120.227 16.3104 125.236 18.6903 132.009C23.5164 145.743 12.1744 158.591 18.5087 172.378C26.0301 188.75 41.8895 187.909 57.7526 190.737C82.7713 195.197 90.0493 222.717 114.223 230.864C137.176 238.599 152.467 226.497 168.512 214.575C172.843 211.356 178.249 207.124 183.698 205.593C191.726 203.337 201.409 204.751 209.761 202.738C216.638 201.08 223.271 198.188 228.344 193.789Z" fill="#62C370"/>
<path d="M169.132 145.02C169.183 144.895 169.419 144.839 169.809 144.842C169.999 144.849 170.235 144.857 170.515 144.867C170.792 144.874 171.099 144.912 171.454 144.907C172.844 144.942 174.885 144.894 177.194 144.059C179.48 143.232 182.005 141.582 183.515 138.8C183.897 138.109 184.204 137.35 184.455 136.556C184.703 135.758 184.851 134.909 184.927 134.043C185.004 133.176 184.975 132.283 184.833 131.402C184.793 130.897 184.602 130.369 184.45 129.834C184.371 129.567 184.292 129.299 184.213 129.03C184.127 128.757 184.015 128.469 183.917 128.187C183.716 127.626 183.513 127.062 183.31 126.495C183.211 126.221 183.111 125.946 183.011 125.67C182.914 125.397 182.801 125.104 182.729 124.862C184.311 125.142 186.408 125.569 188.135 125.768C188.373 125.818 188.558 125.779 188.767 125.778C188.868 125.78 188.977 125.75 189.083 125.738L189.211 125.717C189.357 125.697 189.503 125.675 189.649 125.626L190.089 125.511L190.525 125.346C191.103 125.113 191.68 124.819 192.205 124.424C192.482 124.25 192.716 124.013 192.975 123.809C193.201 123.568 193.457 123.352 193.657 123.087C193.884 122.843 194.062 122.565 194.256 122.297C194.348 122.16 194.42 122.013 194.506 121.873L194.63 121.661L194.729 121.439C194.791 121.29 194.878 121.148 194.926 120.995L195.085 120.542C195.138 120.389 195.166 120.216 195.211 120.055L195.274 119.809L195.312 119.555C195.333 119.385 195.379 119.22 195.385 119.045L195.426 118.526C195.423 118.175 195.443 117.823 195.4 117.465C195.386 117.108 195.313 116.748 195.261 116.388C195.177 116.029 195.106 115.667 194.985 115.311C194.747 114.548 194.436 113.801 194.038 113.104C193.638 112.408 193.174 111.756 192.658 111.16C191.629 110 190.325 109.019 188.908 108.302C188.201 107.935 187.464 107.626 186.706 107.378C185.952 107.125 185.182 106.92 184.404 106.776L184.113 106.718C184.084 106.709 183.968 106.697 183.881 106.686L183.606 106.652C183.233 106.609 182.887 106.557 182.498 106.521C181.593 106.496 180.739 106.439 179.774 106.478C178.842 106.495 177.916 106.513 176.997 106.53C176.561 106.538 176.126 106.546 175.692 106.555L175.05 106.567L174.506 106.554C175.393 105.558 176.271 104.572 177.14 103.595C177.576 103.099 178.01 102.606 178.442 102.115C178.561 101.989 178.634 101.879 178.711 101.767L178.946 101.431C179.102 101.209 179.257 100.986 179.412 100.765L179.643 100.434C179.713 100.324 179.761 100.215 179.821 100.106C179.882 100.001 179.926 99.8807 179.976 99.7644L180.053 99.5943L180.182 99.3099L180.288 99.0164C180.444 98.6308 180.543 98.2292 180.653 97.8349C180.842 97.037 180.924 96.2334 180.936 95.4502C180.952 94.6641 180.839 93.9081 180.691 93.186C180.535 92.4632 180.275 91.799 179.991 91.1699C179.668 90.5639 179.332 89.9726 178.906 89.4676C178.506 88.9418 178.04 88.4954 177.584 88.0724C177.34 87.8809 177.109 87.6788 176.868 87.5009C176.619 87.336 176.387 87.1499 176.139 87.005C175.164 86.3941 174.195 85.9684 173.315 85.6847C172.873 85.559 172.458 85.4206 172.067 85.3497C171.872 85.3101 171.685 85.2579 171.505 85.2283C171.324 85.1993 171.152 85.1717 170.989 85.1456C170.66 85.0765 170.368 85.0678 170.108 85.0237C169.848 84.9782 169.627 84.9608 169.445 84.9307C169.079 84.8692 168.865 84.777 168.835 84.6488C168.806 84.5209 168.961 84.3604 169.31 84.1683C169.484 84.0718 169.706 83.9623 169.98 83.8821C170.254 83.8005 170.575 83.6846 170.948 83.6325C171.135 83.6024 171.334 83.5703 171.542 83.5367C171.753 83.5079 171.974 83.503 172.208 83.4872C172.677 83.4475 173.186 83.4823 173.742 83.5159C174.847 83.6156 176.112 83.9008 177.448 84.464C177.786 84.5971 178.112 84.7776 178.458 84.9434C178.797 85.1226 179.13 85.3337 179.478 85.5412C180.144 85.9987 180.832 86.5107 181.462 87.1503C182.115 87.7666 182.689 88.5212 183.233 89.341C183.739 90.1839 184.198 91.1028 184.518 92.1028C184.829 93.1011 185.071 94.1626 185.144 95.269C185.221 96.3735 185.188 97.5191 184.998 98.6776C184.887 99.2531 184.775 99.839 184.59 100.416L184.461 100.852L184.301 101.282L184.26 101.39L184.239 101.444L184.23 101.469L184.23 101.471C184.232 101.474 184.23 101.474 184.228 101.486C184.226 101.503 184.222 101.52 184.218 101.536C184.191 101.664 184.159 101.753 184.132 101.809C184.131 101.814 184.124 101.822 184.129 101.824L184.172 101.816L184.252 101.801L184.39 101.778L184.501 101.76L184.728 101.776L184.787 101.781C184.811 101.784 184.807 101.781 184.888 101.794L185.259 101.852C186.252 102.001 187.252 102.229 188.25 102.531C189.249 102.826 190.244 103.209 191.216 103.684C192.19 104.154 193.148 104.709 194.049 105.376C194.281 105.534 194.499 105.712 194.719 105.89C194.938 106.068 195.161 106.24 195.371 106.441C195.583 106.638 195.801 106.83 196.006 107.035L196.604 107.665C197.376 108.532 198.063 109.479 198.652 110.496C199.24 111.515 199.709 112.613 200.066 113.762C200.241 114.296 200.359 114.848 200.479 115.397C200.567 115.955 200.664 116.51 200.691 117.077C200.746 117.639 200.727 118.209 200.716 118.774C200.692 119.058 200.668 119.341 200.644 119.623C200.623 119.905 200.559 120.186 200.515 120.466L200.441 120.885L200.337 121.298C200.261 121.574 200.202 121.847 200.107 122.121C200.007 122.395 199.907 122.667 199.807 122.939C199.707 123.212 199.569 123.462 199.449 123.722L199.26 124.106C199.191 124.23 199.117 124.35 199.045 124.471C198.897 124.711 198.758 124.958 198.599 125.187C198.271 125.639 197.947 126.09 197.571 126.491C197.219 126.914 196.806 127.273 196.415 127.647C195.99 127.984 195.585 128.34 195.127 128.625C194.246 129.237 193.276 129.709 192.273 130.069C192.019 130.152 191.765 130.235 191.513 130.317C191.251 130.378 190.99 130.438 190.73 130.498C190.473 130.563 190.206 130.599 189.939 130.63L189.759 130.652C189.761 130.651 189.77 130.644 189.763 130.645L189.742 130.641C189.682 130.629 189.606 130.609 189.516 130.575C189.493 130.563 189.503 130.58 189.501 130.587L189.501 130.615C189.503 130.634 189.5 130.656 189.5 130.68C189.5 130.726 189.494 130.785 189.489 130.847C189.617 132.123 189.578 133.375 189.394 134.568C189.212 135.762 188.92 136.905 188.5 137.968C188.076 139.028 187.57 140.021 186.966 140.917C185.758 142.702 184.225 144.13 182.629 145.07C181.039 146.027 179.432 146.592 177.955 146.878C176.475 147.162 175.127 147.193 173.978 147.071C173.691 147.054 173.416 146.995 173.153 146.958C173.022 146.937 172.894 146.916 172.768 146.895C172.644 146.865 172.522 146.836 172.403 146.807C172.166 146.748 171.941 146.694 171.73 146.633C171.522 146.56 171.324 146.49 171.137 146.425C170.765 146.301 170.453 146.133 170.186 145.998C169.918 145.866 169.707 145.72 169.544 145.59C169.216 145.335 169.08 145.145 169.132 145.02Z" fill="#44884E"/>
<path d="M74.0183 85.6142C73.9588 85.7352 73.7192 85.7749 73.3301 85.745C73.1409 85.7254 72.9062 85.7009 72.6275 85.6717C72.352 85.6463 72.0478 85.5874 71.694 85.568C70.3089 85.4379 68.2696 85.346 65.9086 86.0214C63.5709 86.6898 60.9387 88.163 59.24 90.8354C58.8115 91.4987 58.4532 92.2344 58.1474 93.0098C57.8453 93.7887 57.6395 94.6254 57.5042 95.4844C57.3671 96.3442 57.3351 97.2366 57.4152 98.1254C57.4203 98.6318 57.5744 99.1716 57.6896 99.7159C57.7498 99.988 57.8104 100.261 57.8708 100.534C57.9374 100.812 58.0291 101.107 58.1076 101.395C58.2698 101.969 58.433 102.545 58.5968 103.125C58.6768 103.405 58.7573 103.687 58.8379 103.969C58.9159 104.247 59.0083 104.548 59.0633 104.794C57.5048 104.406 55.4423 103.837 53.7328 103.52C53.4993 103.454 53.3112 103.48 53.1028 103.467C53.0028 103.458 52.8919 103.48 52.7854 103.486L52.6564 103.497C52.5092 103.508 52.3616 103.52 52.2126 103.558L51.7653 103.643L51.3191 103.777C50.7269 103.971 50.1304 104.225 49.5802 104.582C49.2919 104.738 49.0416 104.958 48.7687 105.144C48.527 105.369 48.2568 105.567 48.0387 105.817C47.7956 106.045 47.5988 106.31 47.3867 106.564C47.2857 106.694 47.2038 106.836 47.1087 106.97L46.9703 107.173L46.8558 107.388C46.7835 107.532 46.6874 107.668 46.629 107.817L46.4393 108.259C46.3754 108.407 46.3355 108.578 46.2796 108.735L46.2007 108.977L46.145 109.227C46.1121 109.396 46.0549 109.557 46.0367 109.731L45.9605 110.246C45.939 110.597 45.8956 110.947 45.9133 111.307C45.9025 111.664 45.9504 112.027 45.9775 112.391C46.037 112.754 46.0828 113.12 46.1783 113.483C46.364 114.261 46.6225 115.028 46.9719 115.751C47.3221 116.472 47.7408 117.155 48.2141 117.784C49.1613 119.012 50.3941 120.08 51.7588 120.892C52.4381 121.306 53.1529 121.665 53.8916 121.964C54.6268 122.269 55.3812 122.525 56.1475 122.722L56.4333 122.8C56.4615 122.811 56.5764 122.831 56.6626 122.848L56.935 122.901C57.3036 122.969 57.6449 123.045 58.0305 123.107C58.9316 123.194 59.7806 123.309 60.7457 123.337C61.6768 123.383 62.6011 123.429 63.5193 123.475C63.9554 123.496 64.39 123.518 64.823 123.539L65.464 123.571L66.0063 123.62C65.0531 124.553 64.1093 125.478 63.1748 126.392C62.7051 126.857 62.2381 127.32 61.7734 127.78C61.6459 127.897 61.566 128.002 61.4811 128.109L61.2236 128.428C61.053 128.639 60.8828 128.85 60.713 129.061L60.4598 129.375C60.3827 129.479 60.3272 129.585 60.2601 129.69C60.1923 129.791 60.1393 129.907 60.0812 130.02L59.9933 130.184L59.8445 130.459L59.7191 130.745C59.5368 131.119 59.4104 131.513 59.2733 131.898C59.0298 132.681 58.8929 133.478 58.8269 134.258C58.7567 135.041 58.8168 135.803 58.9148 136.534C59.021 137.266 59.2344 137.946 59.4744 138.593C59.7553 139.22 60.0499 139.833 60.4404 140.366C60.8032 140.918 61.237 141.395 61.6627 141.848C61.893 142.056 62.1095 142.273 62.3377 142.467C62.5748 142.649 62.7928 142.85 63.0303 143.012C63.9617 143.688 64.8986 144.179 65.757 144.522C66.1891 144.677 66.5939 144.844 66.9786 144.941C67.1703 144.994 67.3537 145.059 67.531 145.101C67.71 145.142 67.8797 145.182 68.0401 145.219C68.3637 145.31 68.6547 145.339 68.9108 145.401C69.1673 145.464 69.3858 145.496 69.5663 145.539C69.9271 145.625 70.1342 145.732 70.1548 145.862C70.1756 145.991 70.0087 146.141 69.648 146.309C69.4677 146.393 69.2391 146.487 68.9598 146.548C68.6811 146.611 68.3523 146.704 67.9772 146.731C67.788 146.748 67.5881 146.767 67.3772 146.786C67.1653 146.8 66.9444 146.79 66.7098 146.79C66.239 146.797 65.7335 146.728 65.1815 146.656C64.0856 146.481 62.8434 146.11 61.5493 145.457C61.2214 145.301 60.9085 145.098 60.5743 144.909C60.2487 144.707 59.9309 144.474 59.5981 144.243C58.9647 143.741 58.3145 143.184 57.7301 142.502C57.1206 141.843 56.6004 141.051 56.1132 140.196C55.6666 139.32 55.2718 138.372 55.022 137.352C54.7802 136.335 54.6118 135.26 54.6158 134.151C54.6154 133.044 54.7272 131.903 54.9965 130.76C55.1468 130.194 55.2989 129.617 55.523 129.054L55.6823 128.628L55.8715 128.209L55.9198 128.105L55.9439 128.052L55.9551 128.028L55.9547 128.026C55.9533 128.023 55.9556 128.023 55.9578 128.012C55.9614 127.994 55.9663 127.978 55.9714 127.963C56.007 127.836 56.0457 127.75 56.0761 127.695C56.0772 127.69 56.0853 127.683 56.0804 127.681L56.037 127.686L55.9558 127.695L55.816 127.709L55.7044 127.72L55.4792 127.687L55.421 127.679C55.3971 127.675 55.4007 127.678 55.321 127.659L54.9545 127.575C53.9739 127.359 52.9916 127.063 52.0174 126.694C51.0413 126.331 50.0751 125.881 49.1373 125.341C48.1986 124.805 47.2812 124.186 46.4277 123.458C46.2083 123.285 46.0018 123.093 45.7956 122.9C45.5892 122.707 45.3787 122.521 45.1828 122.305C44.9853 122.095 44.7813 121.888 44.5906 121.67L44.0372 121C43.3269 120.083 42.7065 119.091 42.1891 118.035C41.6729 116.979 41.2806 115.852 41.0033 114.681C40.8653 114.136 40.7857 113.577 40.7043 113.021C40.6546 112.458 40.5958 111.898 40.6081 111.331C40.5915 110.767 40.6499 110.199 40.7 109.636C40.7439 109.355 40.7875 109.074 40.8311 108.794C40.8709 108.514 40.9545 108.239 41.0169 107.962L41.1198 107.549L41.2525 107.144C41.3473 106.874 41.4247 106.606 41.5385 106.339C41.6573 106.073 41.7756 105.807 41.8939 105.543C42.0122 105.278 42.1679 105.038 42.3054 104.787L42.5201 104.416C42.5973 104.297 42.6801 104.183 42.7601 104.067C42.9241 103.837 43.0797 103.601 43.2542 103.383C43.6121 102.955 43.9666 102.526 44.3696 102.153C44.75 101.754 45.1862 101.425 45.6024 101.078C46.0493 100.771 46.4785 100.444 46.9542 100.191C47.8759 99.6405 48.8759 99.2362 49.9016 98.9456C50.1608 98.8801 50.4193 98.8148 50.6772 98.7497C50.9422 98.7074 51.2066 98.6652 51.4701 98.6231C51.7318 98.5756 51.9999 98.5576 52.2681 98.5455L52.4499 98.536C52.4477 98.5364 52.4381 98.5431 52.4448 98.5424L52.4663 98.5476C52.5251 98.564 52.5991 98.5886 52.6866 98.6293C52.7089 98.6429 52.7002 98.6251 52.7029 98.6184L52.7042 98.5908C52.704 98.5716 52.708 98.5496 52.7098 98.5259C52.7134 98.4794 52.7232 98.4212 52.7326 98.3597C52.6926 97.0784 52.8183 95.8318 53.0838 94.6535C53.3479 93.4756 53.7176 92.3548 54.2097 91.3231C54.7058 90.2943 55.2794 89.3382 55.9435 88.4859C57.272 86.7876 58.8996 85.4677 60.5565 84.6395C62.2086 83.7935 63.8512 83.3397 65.3443 83.1554C66.8402 82.9738 68.1866 83.0344 69.3248 83.235C69.6102 83.2718 69.8808 83.3495 70.1405 83.4039C70.2697 83.4342 70.3961 83.4639 70.52 83.4931C70.6419 83.5314 70.7611 83.5688 70.8779 83.6054C71.11 83.6807 71.3308 83.75 71.5374 83.8251C71.7401 83.9125 71.9324 83.9952 72.1143 84.0737C72.4775 84.2228 72.7767 84.4115 73.0337 84.5646C73.2923 84.7144 73.4927 84.8747 73.6465 85.0149C73.9552 85.2941 74.0778 85.4931 74.0183 85.6142Z" fill="#44884E"/>
<path d="M140.805 179.492C140.988 179.485 141.164 179.723 141.329 180.205C141.41 180.445 141.497 180.747 141.565 181.107C141.61 181.466 141.646 181.883 141.672 182.359C141.677 182.478 141.688 182.602 141.687 182.726C141.681 182.851 141.675 182.979 141.669 183.11C141.652 183.373 141.635 183.65 141.616 183.939C141.603 184.083 141.599 184.234 141.576 184.383C141.551 184.532 141.525 184.684 141.499 184.839C141.442 185.15 141.382 185.474 141.321 185.808C140.989 187.121 140.526 188.633 139.684 190.151C138.865 191.678 137.761 193.262 136.3 194.737C134.843 196.211 133.019 197.57 130.846 198.585C128.681 199.601 126.133 200.222 123.511 200.255C120.888 200.298 118.191 199.795 115.641 198.778C113.038 197.723 110.73 196.168 108.842 194.312C107.89 193.392 107.075 192.364 106.35 191.311C106.002 190.787 105.719 190.256 105.41 189.736C105.383 189.691 105.391 189.701 105.39 189.697L105.389 189.689L105.388 189.674L105.385 189.64C105.381 189.618 105.381 189.586 105.372 189.566L105.284 189.532L105.271 189.527L105.264 189.524C105.27 189.524 105.247 189.521 105.276 189.524L105.307 189.525L105.285 189.523L104.929 189.493C104.692 189.477 104.461 189.437 104.23 189.4C103.311 189.247 102.436 189.001 101.63 188.657C100.823 188.315 100.078 187.898 99.4001 187.427C98.7287 186.943 98.1266 186.408 97.5957 185.837C96.5507 184.679 95.8082 183.363 95.4145 182.095C95.0079 180.828 94.8755 179.622 94.9234 178.553C95.012 176.404 95.7393 174.847 96.3803 173.945C96.5328 173.713 96.7071 173.53 96.8518 173.375C96.9949 173.218 97.1401 173.103 97.2669 173.019C97.5189 172.849 97.701 172.805 97.8157 172.879C98.0566 173.034 97.9578 173.61 97.8285 174.546C97.7073 175.479 97.5646 176.815 97.8701 178.38C98.1707 179.937 98.9405 181.681 100.466 182.95C100.853 183.265 101.276 183.556 101.734 183.814C102.2 184.061 102.698 184.273 103.22 184.437C103.741 184.604 104.292 184.699 104.844 184.745C104.983 184.755 105.122 184.771 105.26 184.766L105.469 184.767L105.549 184.771C105.601 184.775 105.602 184.77 105.631 184.771L105.767 184.765C105.858 184.762 105.952 184.749 106.044 184.742C106.79 184.675 107.542 184.597 108.3 184.51C108.76 185.401 109.226 186.303 109.698 187.215C109.969 187.614 110.223 188.045 110.509 188.432C111.087 189.179 111.714 189.919 112.453 190.583C113.909 191.923 115.672 193.075 117.637 193.871C119.563 194.637 121.567 195.038 123.488 195.068C125.414 195.102 127.234 194.757 128.898 194.11C130.561 193.463 132.053 192.546 133.319 191.505C134.588 190.465 135.634 189.312 136.492 188.176C137.374 187.047 137.972 185.89 138.506 184.863C138.623 184.599 138.737 184.344 138.846 184.098C138.902 183.974 138.958 183.853 139.013 183.734C139.066 183.615 139.102 183.493 139.147 183.377C139.236 183.141 139.321 182.915 139.402 182.7C139.445 182.592 139.487 182.486 139.527 182.383C139.565 182.279 139.591 182.176 139.624 182.077C139.747 181.678 139.869 181.318 139.988 181.003C140.084 180.687 140.167 180.415 140.258 180.192C140.439 179.746 140.622 179.498 140.805 179.492Z" fill="#44884E"/>
<path d="M207.823 155.018C207.972 154.912 208.209 154.947 208.535 155.132C208.7 155.223 208.886 155.353 209.071 155.534C209.259 155.713 209.48 155.925 209.676 156.197C210.499 157.252 211.402 159.113 211.496 161.629C211.544 162.878 211.392 164.283 210.888 165.729C210.392 167.165 209.536 168.677 208.288 169.918C207.061 171.18 205.488 172.193 203.709 172.86C202.815 173.183 201.869 173.415 200.887 173.549C200.64 173.572 200.392 173.595 200.143 173.617L199.956 173.633L199.9 173.635L199.795 173.637L199.691 173.639C199.668 173.64 199.684 173.64 199.68 173.641L199.68 173.641L199.674 173.636C199.669 173.631 199.66 173.626 199.646 173.632C199.643 173.633 199.639 173.635 199.636 173.638C199.62 173.836 199.603 174.033 199.587 174.23C199.528 174.683 199.469 175.131 199.365 175.566C199.176 176.438 198.901 177.271 198.546 178.047C198.197 178.825 197.78 179.552 197.297 180.209C196.357 181.538 195.146 182.584 193.931 183.326C192.702 184.055 191.459 184.489 190.314 184.717C189.167 184.945 188.115 184.966 187.216 184.871C186.316 184.775 185.565 184.579 184.987 184.331C183.825 183.841 183.351 183.277 183.461 182.961C183.577 182.615 184.246 182.519 185.275 182.363C186.3 182.209 187.726 181.956 189.244 181.244C189.998 180.889 190.767 180.418 191.471 179.818C192.16 179.203 192.794 178.484 193.284 177.587C193.539 177.148 193.75 176.668 193.925 176.165C194.106 175.665 194.235 175.134 194.317 174.592C194.368 174.322 194.382 174.046 194.408 173.771C194.414 173.601 194.419 173.43 194.425 173.259C194.412 172.888 194.355 172.499 194.322 172.117L194.293 171.828L194.279 171.683L194.244 171.526L194.103 170.893C194.009 170.469 193.915 170.042 193.82 169.614C193.637 168.783 193.452 167.945 193.267 167.103C194.325 167.353 195.395 167.606 196.472 167.861C196.933 167.971 197.367 168.059 197.814 168.159L198.146 168.232L198.312 168.268C198.369 168.281 198.424 168.293 198.462 168.292L198.966 168.318L199.469 168.344L199.716 168.357L199.827 168.348C199.976 168.338 200.123 168.328 200.27 168.318C200.859 168.248 201.438 168.131 201.996 167.962C203.103 167.603 204.114 167.058 204.921 166.376C205.749 165.708 206.347 164.908 206.817 164.049C207.286 163.191 207.576 162.277 207.746 161.41C208.094 159.663 207.936 158.133 207.79 157.042C207.638 155.949 207.511 155.24 207.823 155.018Z" fill="#44884E"/>
<path d="M189.807 57.4634C189.43 57.434 189.154 56.8249 188.779 55.8688C188.591 55.3898 188.366 54.8239 188.086 54.1985C187.796 53.5756 187.447 52.8938 187.001 52.1967C186.111 50.8073 184.831 49.3379 183.087 48.3218C182.221 47.7967 181.221 47.3924 180.157 47.1056C179.621 46.9741 179.069 46.8689 178.505 46.8067C178.365 46.7902 178.222 46.7855 178.081 46.7726L177.867 46.7543L177.596 46.749L177.035 46.7742L176.471 46.7991C176.28 46.8129 176.107 46.7984 175.884 46.8546C175.46 46.9364 175.034 47.0186 174.607 47.1011C173.456 47.3411 172.314 47.5792 171.182 47.8152C170.184 48.0198 169.194 48.2224 168.216 48.423C169.465 46.7334 170.696 45.0678 171.906 43.4299C172.155 43.0762 172.404 42.7241 172.651 42.3733C172.706 42.2881 172.79 42.1936 172.82 42.1165L172.908 41.8876L173.081 41.4321L173.251 40.9803L173.278 40.8695L173.292 40.8143L173.295 40.8005C173.296 40.8036 173.298 40.7893 173.303 40.7458L173.308 40.7149L173.322 40.6391C173.338 40.5377 173.371 40.4387 173.378 40.3362C173.499 39.5218 173.433 38.7059 173.236 37.9862C173.023 37.2701 172.708 36.6528 172.251 36.1239C171.805 35.5914 171.264 35.1479 170.71 34.8069C169.591 34.1202 168.472 33.8472 167.653 33.6687C166.829 33.4935 166.263 33.3928 166.14 33.0658C166.082 32.9083 166.144 32.7152 166.343 32.4846C166.442 32.3671 166.576 32.2436 166.749 32.1306C166.922 32.0139 167.128 31.8821 167.377 31.781C167.869 31.5467 168.518 31.3818 169.3 31.3033C170.082 31.2309 170.998 31.2813 171.987 31.5394C172.973 31.799 174.036 32.2717 175.046 33.0487C176.062 33.81 176.986 34.9487 177.595 36.2864C178.196 37.6278 178.503 39.1688 178.414 40.7726C178.411 40.9734 178.378 41.1738 178.359 41.3761L178.341 41.5279L178.34 41.5375C178.341 41.531 178.337 41.5654 178.342 41.5255C178.347 41.4867 178.348 41.4773 178.347 41.4849L178.347 41.4851L178.349 41.4865L178.35 41.4889L178.356 41.4978C178.365 41.5087 178.372 41.5159 178.38 41.5203C178.394 41.529 178.408 41.5266 178.42 41.5208C178.44 41.5101 178.455 41.4974 178.452 41.4992C178.452 41.4992 178.451 41.5003 178.451 41.5025V41.5045L178.451 41.5056C178.447 41.5045 178.404 41.5007 178.426 41.5032L178.507 41.5108C178.723 41.533 178.938 41.5491 179.151 41.579C180.004 41.6948 180.83 41.8854 181.623 42.1286C183.202 42.6394 184.646 43.3746 185.861 44.3018C187.084 45.22 188.082 46.2974 188.822 47.3986C189.57 48.4988 190.088 49.6153 190.428 50.6631C190.769 51.7121 190.932 52.6926 190.986 53.55C191.028 54.4109 190.967 55.1473 190.844 55.7366C190.591 56.9189 190.158 57.4931 189.807 57.4634Z" fill="#44884E"/>
<path d="M149.858 69.6264C149.631 69.6054 149.443 69.2444 149.234 68.6586C149 68.0723 148.701 67.2532 148.151 66.3372C148.082 66.224 148.012 66.1078 147.939 65.9884C147.867 65.87 147.772 65.7582 147.69 65.6391C147.602 65.5224 147.523 65.3984 147.428 65.2808C147.329 65.1658 147.229 65.0483 147.126 64.9282C147.076 64.8684 147.026 64.8078 146.975 64.747C146.918 64.6906 146.86 64.6338 146.802 64.5763C146.689 64.4613 146.573 64.3442 146.456 64.225C146.191 64.0155 145.954 63.767 145.656 63.574C145.097 63.1472 144.444 62.7868 143.743 62.5263C143.656 62.4926 143.568 62.4585 143.48 62.4246C143.392 62.3916 143.298 62.3754 143.208 62.3491C143.117 62.3241 143.026 62.2992 142.935 62.274L142.793 62.2345L142.503 62.1906C142.307 62.161 142.11 62.1311 141.913 62.1012L141.613 62.0558L141.462 62.0328L141.285 62.0137C140.804 61.9619 140.317 61.9096 139.825 61.8567C139.703 61.2443 139.58 60.6231 139.455 59.9935C139.393 59.673 139.324 59.3467 139.218 59.0465C139.169 58.901 139.124 58.778 139.063 58.6449C138.846 58.1198 138.576 57.5994 138.248 57.1028C137.591 56.1115 136.715 55.2055 135.676 54.5291C134.648 53.8558 133.422 53.4027 132.101 53.2342C130.786 53.0657 129.39 53.1856 128.122 53.6396C127.329 53.9146 126.455 54.3891 125.46 54.9352C124.472 55.4723 123.356 56.0836 122.016 56.5214C121.34 56.7349 120.609 56.8938 119.85 56.9569C119.084 57.0195 118.311 56.9577 117.612 56.8291C116.204 56.5595 115.084 56.0411 114.138 55.588C113.186 55.1239 112.39 54.7007 111.671 54.4025C111.314 54.2527 110.984 54.14 110.667 54.0499C110.342 53.9695 110.015 53.8972 109.683 53.8669C108.356 53.7127 107.035 53.9708 105.95 54.4408C104.862 54.9147 103.999 55.6169 103.331 56.3769C102.668 57.1392 102.211 57.9288 101.879 58.6135C101.552 59.3006 101.341 59.8859 101.169 60.2982C100.993 60.7105 100.837 60.9543 100.65 60.9673C100.471 60.9802 100.268 60.7591 100.098 60.2853C99.9265 59.813 99.8057 59.0831 99.8688 58.1307C99.9383 57.1833 100.2 56.0105 100.843 54.7598C101.167 54.1375 101.588 53.5001 102.129 52.8852C102.669 52.2698 103.334 51.6832 104.104 51.1802C104.874 50.6754 105.755 50.2597 106.722 49.9597C107.688 49.6593 108.744 49.4801 109.858 49.4801C110.414 49.4716 110.984 49.5244 111.562 49.6105C112.143 49.7079 112.711 49.8494 113.245 50.0188C114.309 50.3569 115.267 50.7844 116.137 51.1347C117.01 51.4909 117.801 51.7623 118.46 51.8439C118.791 51.882 119.08 51.8903 119.378 51.8508C119.68 51.8073 120.004 51.7287 120.361 51.6036C121.083 51.3422 121.917 50.8891 122.886 50.335C123.849 49.7935 124.966 49.1389 126.35 48.6483C130.651 47.1401 135.305 47.998 138.583 50.4124C140.214 51.609 141.464 53.1156 142.337 54.713C142.774 55.5133 143.112 56.3417 143.362 57.1733C143.428 57.3765 143.485 57.5949 143.53 57.7913L143.526 57.8874C143.521 57.9602 143.516 58.0322 143.51 58.1031L143.63 58.1644C143.734 58.2067 143.838 58.2484 143.939 58.2899C144.039 58.3311 144.138 58.3721 144.236 58.4127C144.378 58.474 144.52 58.5348 144.661 58.5954C144.8 58.6585 144.943 58.7133 145.075 58.7838C145.205 58.8564 145.335 58.9288 145.464 59.0006C146.493 59.5747 147.348 60.2717 148.026 61.0185C148.385 61.3731 148.66 61.7783 148.947 62.1411C149.072 62.337 149.194 62.5294 149.314 62.7179C149.373 62.8122 149.431 62.9056 149.488 62.9979C149.538 63.095 149.587 63.1913 149.636 63.2867C149.73 63.477 149.823 63.6634 149.913 63.8457C149.997 64.0304 150.062 64.2205 150.132 64.4006C150.197 64.5834 150.271 64.7552 150.32 64.9337C150.366 65.1118 150.411 65.2854 150.455 65.4544C150.779 66.8128 150.7 67.9109 150.525 68.6132C150.323 69.3208 150.073 69.6475 149.858 69.6264Z" fill="#44884E"/>
<path d="M105.621 260.63C106.011 245.225 105.613 232.719 104.733 232.697C103.854 232.674 102.824 245.145 102.435 260.55C102.045 275.954 102.442 288.461 103.322 288.483C104.202 288.505 105.232 276.035 105.621 260.63Z" fill="#B39370"/>
<path d="M102.913 311.544C103.229 304.989 102.773 299.641 101.893 299.599C101.014 299.557 100.045 304.836 99.7291 311.391C99.413 317.946 99.8694 323.294 100.749 323.336C101.628 323.378 102.597 318.099 102.913 311.544Z" fill="#B39370"/>
<path d="M116.475 282.886C117.514 263.57 117.643 247.873 116.764 247.826C115.885 247.779 114.331 263.4 113.292 282.716C112.254 302.033 112.124 317.73 113.003 317.777C113.882 317.824 115.437 302.203 116.475 282.886Z" fill="#B39370"/>
<path d="M128.724 322.416C129.603 322.384 129.969 312.762 129.542 300.924C129.114 289.087 128.054 279.516 127.174 279.548C126.294 279.579 125.928 289.201 126.356 301.039C126.784 312.876 127.844 322.447 128.724 322.416Z" fill="#B39370"/>
<path d="M125.587 258.897C126.467 258.873 127.074 255.128 126.944 250.533C126.814 245.938 125.996 242.233 125.116 242.257C124.236 242.282 123.628 246.027 123.758 250.622C123.888 255.217 124.707 258.922 125.587 258.897Z" fill="#B39370"/>
<path d="M141.394 291.84C142.269 291.748 142.041 282.838 140.884 271.94C139.727 261.042 138.08 252.282 137.204 252.374C136.329 252.466 136.557 261.376 137.714 272.274C138.871 283.172 140.519 291.932 141.394 291.84Z" fill="#B39370"/>
<path d="M143.6 323.322C144.474 323.217 144.697 319.13 144.098 314.193C143.5 309.257 142.306 305.34 141.432 305.445C140.558 305.55 140.335 309.638 140.934 314.574C141.533 319.511 142.726 323.428 143.6 323.322Z" fill="#B39370"/>
<path d="M241.896 292.231C241.716 290.481 241.727 288.309 243.166 287.456C244.389 286.732 245.892 287.446 247.123 288.154C252.117 291.027 257.112 293.9 262.106 296.773C263.259 297.437 264.43 298.114 265.364 299.096C266.298 300.079 266.979 301.427 266.905 302.826C266.831 304.208 266.031 305.451 265.021 306.314C264.01 307.178 262.799 307.719 261.606 308.25C257.551 310.053 253.496 311.857 249.441 313.66C247.553 314.499 245.169 315.052 243.791 312.933C242.958 311.653 243.405 310.163 243.451 308.72C243.619 303.323 242.447 297.598 241.896 292.231Z" fill="#B39370"/>
<path d="M178.069 321.367C181.397 321.367 184.78 319.508 195.409 301.178C207.318 280.638 208.895 263.784 208.895 263.784C208.895 263.784 204.974 260.049 199.531 265.07C186.651 276.951 176.493 316.627 168.787 319.962C171.939 321.191 178.069 321.367 178.069 321.367Z" fill="#B39370"/>
<path d="M212.059 262.448C206.003 262.705 199.396 265.001 196.713 270.363C195.231 273.325 195.177 276.804 195.736 280.061C196.295 283.317 197.426 286.448 198.229 289.655C199.795 295.913 200.095 302.476 199.107 308.847C198.665 311.699 197.965 314.559 198.218 317.434C198.611 321.899 201.472 326.077 205.524 328.106C209.576 330.134 214.683 329.944 218.569 327.621C223.23 331.418 229.835 332.761 235.639 331.091C241.443 329.421 246.28 324.787 248.14 319.112C250.197 312.839 248.712 306.033 247.216 299.607C246.167 295.102 245.118 290.597 244.069 286.092C243.247 282.564 242.917 278.22 241.153 274.997C239.923 272.748 237.343 271.133 235.323 269.64C232.155 267.298 228.6 265.473 224.843 264.243C220.652 262.871 216.448 262.448 212.059 262.448Z" fill="#354A4C"/>
<path d="M288.967 284.646C288.796 284.247 288.637 283.814 288.285 283.562C287.933 283.309 287.36 283.321 287.138 283.694C287.317 282.82 286.911 281.856 286.161 281.376C285.411 280.897 284.367 280.933 283.652 281.464C283.506 280.365 282.687 279.384 281.633 279.045C280.58 278.707 279.345 279.028 278.588 279.837C278.645 278.862 277.303 278.273 276.455 278.752C275.606 279.231 275.297 280.335 275.4 281.306C275.502 282.276 275.924 283.179 276.2 284.115C276.9 286.486 276.363 288.323 275.736 290.38C275.548 290.997 275.128 291.516 274.569 291.835C274.566 291.837 274.563 291.838 274.56 291.84C271.437 293.624 268.314 295.408 265.191 297.192C259.817 300.262 254.511 303.756 248.947 306.461C247.431 307.198 245.602 307.061 244.159 307.859C242.212 308.936 241.379 311.716 241.268 313.783C241.119 316.53 241.968 319.222 242.806 321.842C243.296 323.373 244.136 325.191 245.738 325.275C246.421 325.311 247.069 324.997 247.68 324.69C258.253 319.377 282.422 305.807 283.443 305.165C285.925 303.606 288.588 301.819 289.458 299.016C289.745 298.09 290.75 288.825 288.967 284.646Z" fill="#B39370"/>
<path d="M159.848 313.771C159.366 313.158 158.894 312.425 159.021 311.654C159.218 310.458 160.653 309.973 161.851 309.804C166.658 309.128 171.636 309.715 176.156 311.489C178.197 312.29 180.257 313.436 181.307 315.366C182.273 317.143 181.967 320.089 180.137 321.279C178.398 322.408 175.031 321.836 173.11 321.513C167.958 320.646 163.093 317.899 159.848 313.771Z" fill="#B39370"/>
<path d="M228.448 288.436C227.275 285.258 226.885 281.692 227.947 278.474C229.01 275.257 231.689 272.482 235.013 271.86C238.436 271.219 240.4 273.839 242.744 276.421C245.089 279.002 248.116 283.129 249.631 286.173C253.9 294.745 252.329 303.611 253.458 313.125C254.586 322.638 256.32 332.304 261.011 340.651C261.912 342.254 262.956 344.016 262.548 345.81C262.209 347.297 260.872 348.424 259.398 348.805C257.924 349.186 256.346 348.915 254.926 348.366C251.852 347.178 249.381 344.742 247.601 341.963C245.822 339.183 244.668 336.055 243.592 332.934C240.83 324.924 238.486 316.77 236.569 308.515C235.782 305.121 235.713 300.273 233.923 297.298C232.094 294.26 229.732 291.915 228.448 288.436Z" fill="#B39370"/>
<path d="M266.781 336.687C268.617 337.383 269.762 339.181 270.776 340.867C271.075 341.364 271.386 341.936 271.232 342.496C271.027 343.242 270.136 343.531 269.372 343.637C266.307 344.059 263.105 343.411 260.443 341.83C254.945 338.565 263.856 335.58 266.781 336.687Z" fill="#B39370"/>
<path d="M274.919 354.996C274.462 355.025 273.992 354.896 273.599 354.596C269.702 351.623 264.657 349.589 259.396 348.87C258.318 348.723 257.563 347.727 257.71 346.647C257.857 345.566 258.85 344.81 259.928 344.957C265.853 345.766 271.556 348.074 275.986 351.453C276.852 352.114 277.02 353.353 276.36 354.221C276.001 354.695 275.469 354.96 274.919 354.996Z" fill="#B39370"/>
<path d="M279.502 350.977C279.144 351.033 278.766 350.99 278.41 350.833C274.185 348.972 269.367 348.066 264.478 348.211C263.39 348.243 262.482 347.385 262.45 346.295C262.418 345.205 263.277 344.295 264.361 344.262C269.832 344.1 275.238 345.122 279.995 347.217C280.991 347.655 281.444 348.82 281.006 349.819C280.725 350.46 280.145 350.877 279.502 350.977Z" fill="#B39370"/>
<path d="M281.794 347.01C281.516 347.042 281.228 347.015 280.946 346.92C275.556 345.115 269.447 344.929 263.747 346.396C262.694 346.667 261.619 346.031 261.349 344.974C261.078 343.917 261.714 342.841 262.768 342.57C269.194 340.917 276.093 341.131 282.194 343.174C283.226 343.519 283.783 344.638 283.439 345.672C283.188 346.424 282.531 346.925 281.794 347.01Z" fill="#B39370"/>
<path d="M262.313 345.298C261.526 345.403 260.72 345.022 260.32 344.28C259.802 343.321 260.158 342.122 261.115 341.603C267.302 338.247 275.107 337.147 281.992 338.661C283.055 338.895 283.727 339.948 283.494 341.013C283.261 342.079 282.21 342.753 281.147 342.519C275.159 341.202 268.371 342.159 262.99 345.077C262.773 345.195 262.544 345.268 262.313 345.298Z" fill="#B39370"/>
<path d="M268.679 339.768C269.447 339.848 270.259 339.962 270.851 340.417C271.601 340.995 271.806 342.008 271.594 342.883C271.382 343.758 270.822 344.526 270.246 345.251C269.071 346.729 267.702 348.181 265.855 348.877C263.972 349.587 261.851 349.421 259.824 349.243C258.05 349.088 256.147 348.882 254.817 347.798C253.458 346.691 253.019 344.818 253.504 343.214C253.86 342.038 254.674 340.949 255.703 340.174C256.6 339.497 257.375 339.69 258.459 339.643C261.892 339.493 265.253 339.41 268.679 339.768Z" fill="#B39370"/>
<path d="M209.83 245.366C209.325 241.723 208.228 238.175 207.839 234.517C207.45 230.86 207.858 226.919 210.057 223.974C212.366 220.882 216.39 219.369 220.241 219.507C224.091 219.646 227.769 221.265 230.944 223.453C235.493 226.586 239.28 231.113 240.594 236.486C241.909 241.859 240.388 248.071 236.097 251.549C234.813 252.59 233.336 253.363 232.009 254.347C230.681 255.33 229.462 256.596 229.024 258.191C228.667 259.491 228.862 260.868 228.906 262.215C228.951 263.562 228.8 265.022 227.908 266.031C226.772 267.319 224.851 267.456 223.137 267.5C220.353 267.573 217.556 267.645 214.797 267.265C213.066 267.026 210.066 266.778 208.808 265.385C207.646 264.098 208.437 262.223 208.798 260.773C210.049 255.753 210.543 250.508 209.83 245.366Z" fill="#B39370"/>
<path d="M237.309 233.444C237.822 232.977 237.482 231.764 236.549 230.735C235.616 229.706 234.444 229.251 233.931 229.719C233.417 230.186 233.758 231.399 234.691 232.428C235.623 233.457 236.796 233.912 237.309 233.444Z" fill="#171C22"/>
<path d="M218.093 260.964C210.103 259.16 200.443 257.788 190.04 275.449C189.283 276.735 189.333 278.346 190.149 279.596C192.777 283.62 195.117 286.745 198.229 288.546C199.056 293.651 198.627 299.365 198.23 302.716C197.974 304.877 198.794 307.029 200.439 308.448C204.989 312.374 215.991 318.341 237.502 312.388C236.126 306.084 235.308 301.122 235.308 301.122C235.308 301.122 243.48 302.541 251.031 297.294C252.444 296.312 253.078 294.541 252.578 292.892C249.959 284.258 242.645 266.505 218.093 260.964Z" fill="#E24444"/>
<path d="M201.067 305.558C200.877 305.719 200.539 305.604 200.313 305.299C200.088 304.995 200.075 304.638 200.283 304.502C200.492 304.365 200.83 304.481 201.038 304.76C201.245 305.039 201.258 305.397 201.067 305.558Z" fill="#ECECEC"/>
<path d="M204.145 308.329C204.01 308.537 203.363 308.355 202.75 307.854C202.135 307.354 201.826 306.753 202.003 306.579C202.182 306.403 202.745 306.687 203.319 307.152C203.891 307.619 204.283 308.119 204.145 308.329Z" fill="#ECECEC"/>
<path d="M207.822 310.239C207.778 310.355 207.593 310.401 207.327 310.381C207.06 310.361 206.712 310.273 206.359 310.104C205.647 309.771 205.196 309.274 205.321 309.06C205.447 308.843 206.069 308.971 206.742 309.285C207.078 309.446 207.371 309.62 207.568 309.789C207.765 309.958 207.867 310.122 207.822 310.239Z" fill="#ECECEC"/>
<path d="M211.805 311.393C211.756 311.637 211.099 311.713 210.345 311.518C209.59 311.324 209.05 310.934 209.128 310.698C209.206 310.46 209.844 310.456 210.57 310.642C211.295 310.83 211.854 311.147 211.805 311.393Z" fill="#ECECEC"/>
<path d="M215.908 312.002C215.896 312.125 215.73 312.225 215.471 312.276C215.213 312.324 214.86 312.328 214.477 312.277C213.711 312.174 213.123 311.891 213.165 311.645C213.207 311.399 213.847 311.28 214.595 311.38C214.969 311.43 215.302 311.526 215.54 311.64C215.778 311.751 215.921 311.877 215.908 312.002Z" fill="#ECECEC"/>
<path d="M220.05 312.249C220.046 312.499 219.418 312.673 218.647 312.637C217.876 312.601 217.267 312.37 217.286 312.121C217.306 311.872 217.934 311.698 218.689 311.734C219.444 311.769 220.053 312 220.05 312.249Z" fill="#ECECEC"/>
<path d="M224.198 312.168C224.214 312.417 223.601 312.64 222.83 312.665C222.059 312.691 221.433 312.509 221.433 312.259C221.432 312.009 222.045 311.786 222.801 311.761C223.556 311.737 224.182 311.919 224.198 312.168Z" fill="#ECECEC"/>
<path d="M228.327 311.76C228.362 312.007 227.769 312.278 227.002 312.364C226.236 312.45 225.598 312.317 225.578 312.068C225.558 311.819 226.151 311.549 226.902 311.465C227.654 311.38 228.291 311.513 228.327 311.76Z" fill="#ECECEC"/>
<path d="M232.411 311.027C232.465 311.271 231.896 311.587 231.138 311.733C230.38 311.88 229.734 311.798 229.694 311.552C229.655 311.305 230.225 310.989 230.967 310.845C231.71 310.702 232.356 310.783 232.411 311.027Z" fill="#ECECEC"/>
<path d="M235.028 310.378C235.095 310.618 234.861 310.889 234.507 310.982C234.152 311.075 233.817 310.953 233.757 310.711C233.698 310.468 233.931 310.198 234.278 310.107C234.626 310.016 234.961 310.137 235.028 310.378Z" fill="#ECECEC"/>
<path d="M234.149 298.385C234.517 298.319 234.477 296.353 234.06 293.993C233.643 291.633 233.007 289.772 232.638 289.838C232.27 289.903 232.31 291.869 232.727 294.23C233.144 296.59 233.781 298.45 234.149 298.385Z" fill="#ECECEC"/>
<path d="M198.518 287.43C198.889 287.382 198.931 285.338 198.612 282.865C198.293 280.391 197.734 278.425 197.363 278.473C196.992 278.521 196.95 280.565 197.269 283.039C197.588 285.512 198.148 287.478 198.518 287.43Z" fill="#ECECEC"/>
<path d="M237.615 298.725C237.608 298.975 237.301 299.158 236.93 299.133C236.558 299.108 236.278 298.886 236.304 298.638C236.331 298.389 236.638 298.207 236.99 298.23C237.342 298.254 237.622 298.476 237.615 298.725Z" fill="#ECECEC"/>
<path d="M241.565 298.473C241.608 298.718 241.044 299.021 240.298 299.092C239.553 299.165 238.941 298.975 238.936 298.727C238.931 298.476 239.504 298.261 240.212 298.192C240.92 298.124 241.523 298.226 241.565 298.473Z" fill="#ECECEC"/>
<path d="M245.399 297.478C245.486 297.71 244.988 298.113 244.269 298.324C243.551 298.535 242.915 298.465 242.863 298.222C242.811 297.977 243.333 297.657 244.016 297.455C244.699 297.256 245.311 297.243 245.399 297.478Z" fill="#ECECEC"/>
<path d="M248.977 295.778C249.107 295.99 248.694 296.481 248.027 296.823C247.361 297.166 246.723 297.216 246.627 296.987C246.529 296.756 246.982 296.344 247.615 296.018C248.248 295.693 248.846 295.565 248.977 295.778Z" fill="#ECECEC"/>
<path d="M251.144 294.281C251.3 294.476 251.183 294.815 250.884 295.036C250.584 295.258 250.227 295.27 250.087 295.064C249.947 294.857 250.063 294.519 250.347 294.309C250.631 294.099 250.988 294.086 251.144 294.281Z" fill="#ECECEC"/>
<path d="M191.321 278.272C191.107 278.4 190.791 278.234 190.616 277.9C190.441 277.566 190.483 277.211 190.71 277.107C190.936 277.003 191.252 277.169 191.415 277.479C191.577 277.789 191.535 278.144 191.321 278.272Z" fill="#ECECEC"/>
<path d="M193.994 281.598C193.83 281.784 193.201 281.492 192.659 280.88C192.115 280.269 191.899 279.609 192.102 279.467C192.307 279.322 192.827 279.711 193.333 280.278C193.837 280.848 194.162 281.411 193.994 281.598Z" fill="#ECECEC"/>
<path d="M196.171 283.259C196.042 283.472 195.685 283.473 195.374 283.26C195.064 283.047 194.936 282.713 195.088 282.515C195.239 282.317 195.596 282.316 195.884 282.514C196.172 282.711 196.3 283.045 196.171 283.259Z" fill="#ECECEC"/>
<path d="M221.653 329.304C221.607 329.386 221.408 329.366 221.077 329.254C220.995 329.226 220.904 329.192 220.805 329.152C220.709 329.11 220.61 329.055 220.501 328.997C220.288 328.877 220.035 328.747 219.791 328.557C219.666 328.464 219.535 328.367 219.399 328.266C219.264 328.162 219.139 328.038 219.002 327.917C218.722 327.677 218.466 327.381 218.191 327.073C217.667 326.435 217.163 325.669 216.763 324.8C216.373 323.926 216.129 323.042 215.995 322.227C215.944 321.816 215.891 321.428 215.895 321.059C215.894 320.875 215.884 320.699 215.894 320.529C215.908 320.36 215.921 320.197 215.933 320.042C215.952 319.733 216.02 319.456 216.07 319.216C216.099 319.097 216.122 318.985 216.154 318.885C216.189 318.784 216.223 318.694 216.256 318.613C216.39 318.289 216.506 318.126 216.598 318.145C216.797 318.187 216.778 318.923 216.891 320.046C216.906 320.186 216.921 320.333 216.938 320.486C216.954 320.638 216.989 320.795 217.013 320.958C217.054 321.284 217.143 321.625 217.219 321.984C217.403 322.697 217.652 323.465 217.995 324.239C218.35 325.007 218.763 325.7 219.178 326.309C219.398 326.602 219.596 326.894 219.814 327.139C219.92 327.264 220.015 327.394 220.119 327.507C220.223 327.62 220.322 327.728 220.418 327.832C221.188 328.656 221.753 329.126 221.653 329.304Z" fill="#4D6A6D"/>
<path d="M266.91 347.028C266.929 346.784 268.006 346.679 269.25 347.072C270.495 347.46 271.319 348.163 271.196 348.374C271.071 348.596 270.123 348.289 268.98 347.935C267.84 347.573 266.886 347.282 266.91 347.028Z" fill="#5E3F26"/>
<path d="M273.624 344.844C273.659 344.597 272.585 344.237 271.224 344.041C269.863 343.845 268.732 343.886 268.696 344.133C268.661 344.381 269.735 344.74 271.096 344.936C272.456 345.133 273.588 345.091 273.624 344.844Z" fill="#5E3F26"/>
<path d="M270.588 341.33C270.564 341.086 271.666 340.789 273.041 340.914C274.416 341.034 275.448 341.523 275.382 341.759C275.317 342.005 274.248 341.927 272.961 341.815C271.674 341.696 270.608 341.584 270.588 341.33Z" fill="#5E3F26"/>
<path d="M273.48 346.037C273.503 346.161 273.442 346.286 273.369 346.403C273.293 346.521 273.201 346.635 273.091 346.745C272.981 346.858 272.869 346.951 272.752 347.028C272.636 347.103 272.512 347.165 272.388 347.144C272.268 347.124 272.168 347.001 272.157 346.797C272.145 346.596 272.238 346.322 272.449 346.109C272.659 345.896 272.93 345.8 273.131 345.81C273.335 345.817 273.458 345.916 273.48 346.037Z" fill="#5E3F26"/>
<path d="M274.173 347.632C274.427 347.414 274.501 347.083 274.339 346.894C274.177 346.704 273.84 346.727 273.586 346.945C273.332 347.163 273.257 347.494 273.42 347.684C273.582 347.873 273.919 347.85 274.173 347.632Z" fill="#5E3F26"/>
<path d="M275.587 342.227C275.64 342.341 275.58 342.491 275.482 342.654C275.381 342.818 275.243 343 275.088 343.196C274.934 343.393 274.791 343.571 274.656 343.708C274.521 343.842 274.391 343.936 274.267 343.912C274.147 343.888 274.056 343.736 274.055 343.492C274.053 343.25 274.154 342.923 274.378 342.637C274.602 342.351 274.895 342.176 275.129 342.12C275.366 342.063 275.536 342.115 275.587 342.227Z" fill="#5E3F26"/>
<path d="M276.719 343.757C277.014 343.288 277.082 342.799 276.871 342.666C276.661 342.533 276.25 342.805 275.955 343.275C275.66 343.744 275.591 344.233 275.802 344.366C276.013 344.499 276.423 344.227 276.719 343.757Z" fill="#5E3F26"/>
<path d="M269.803 349.73C269.825 349.854 269.782 349.975 269.74 350.082C269.695 350.188 269.644 350.28 269.57 350.358C269.497 350.438 269.41 350.494 269.306 350.547C269.204 350.597 269.085 350.648 268.96 350.634C268.839 350.621 268.73 350.523 268.701 350.346C268.67 350.172 268.735 349.929 268.91 349.741C269.085 349.552 269.323 349.471 269.498 349.49C269.677 349.507 269.782 349.609 269.803 349.73Z" fill="#5E3F26"/>
<path d="M275.657 338.739C275.735 338.838 275.723 338.988 275.677 339.15C275.629 339.314 275.548 339.494 275.445 339.681C275.343 339.869 275.235 340.034 275.124 340.163C275.012 340.289 274.892 340.379 274.767 340.368C274.645 340.357 274.538 340.233 274.501 340.022C274.462 339.814 274.503 339.521 274.653 339.246C274.804 338.971 275.028 338.779 275.224 338.7C275.421 338.618 275.582 338.641 275.657 338.739Z" fill="#5E3F26"/>
<path d="M276.687 340.206C276.814 339.879 276.729 339.54 276.497 339.45C276.264 339.359 275.973 339.551 275.846 339.878C275.719 340.205 275.804 340.544 276.037 340.634C276.269 340.725 276.56 340.533 276.687 340.206Z" fill="#5E3F26"/>
<path d="M275.438 353.204C275.583 352.812 275.207 352.31 274.598 352.084C273.988 351.857 273.377 351.991 273.232 352.383C273.087 352.775 273.463 353.277 274.072 353.503C274.682 353.73 275.293 353.596 275.438 353.204Z" fill="#5E3F26"/>
<path d="M280.034 348.941C280.179 348.549 279.803 348.047 279.193 347.821C278.584 347.595 277.973 347.729 277.828 348.121C277.683 348.513 278.059 349.014 278.668 349.241C279.277 349.467 279.889 349.333 280.034 348.941Z" fill="#5E3F26"/>
<path d="M282.661 344.901C282.806 344.509 282.43 344.007 281.821 343.781C281.212 343.554 280.6 343.689 280.455 344.081C280.31 344.473 280.686 344.974 281.296 345.201C281.905 345.427 282.516 345.293 282.661 344.901Z" fill="#5E3F26"/>
<path d="M282.661 340.457C282.806 340.065 282.43 339.563 281.821 339.337C281.212 339.11 280.6 339.244 280.455 339.636C280.31 340.028 280.686 340.53 281.296 340.756C281.905 340.983 282.516 340.849 282.661 340.457Z" fill="#5E3F26"/>
<path d="M265.96 339.692C267.646 339.397 268.978 338.959 268.936 338.713C268.893 338.466 267.491 338.506 265.805 338.801C264.119 339.095 262.787 339.534 262.83 339.78C262.873 340.026 264.274 339.987 265.96 339.692Z" fill="#5E3F26"/>
<path d="M279.134 283.099C279.376 283.039 279.455 282.518 279.311 281.936C279.166 281.354 278.853 280.932 278.612 280.992C278.37 281.052 278.291 281.573 278.435 282.155C278.579 282.737 278.892 283.16 279.134 283.099Z" fill="#5E3F26"/>
<path d="M283.642 284.142C283.886 284.089 283.994 283.634 283.885 283.125C283.775 282.616 283.489 282.246 283.245 282.299C283.001 282.352 282.893 282.807 283.002 283.316C283.112 283.825 283.398 284.195 283.642 284.142Z" fill="#5E3F26"/>
<path d="M287.026 285.867C287.272 285.826 287.412 285.439 287.34 285.003C287.267 284.566 287.009 284.246 286.764 284.287C286.518 284.328 286.377 284.715 286.449 285.151C286.522 285.587 286.78 285.908 287.026 285.867Z" fill="#5E3F26"/>
<path d="M276.845 281.283C277.217 281.283 277.518 280.886 277.518 280.396C277.518 279.906 277.217 279.509 276.845 279.509C276.474 279.509 276.172 279.906 276.172 280.396C276.172 280.886 276.474 281.283 276.845 281.283Z" fill="#5E3F26"/>
<path d="M280.95 281.873C281.322 281.873 281.623 281.476 281.623 280.986C281.623 280.496 281.322 280.099 280.95 280.099C280.578 280.099 280.277 280.496 280.277 280.986C280.277 281.476 280.578 281.873 280.95 281.873Z" fill="#5E3F26"/>
<path d="M285.285 283.813C285.657 283.813 285.958 283.416 285.958 282.926C285.958 282.437 285.657 282.04 285.285 282.04C284.913 282.04 284.612 282.437 284.612 282.926C284.612 283.416 284.913 283.813 285.285 283.813Z" fill="#5E3F26"/>
<path d="M167.281 313.176C167.089 313.355 165.949 312.361 164.297 311.625C162.657 310.864 161.16 310.659 161.168 310.397C161.172 310.278 161.569 310.17 162.219 310.192C162.866 310.213 163.762 310.39 164.67 310.801C165.577 311.215 166.3 311.775 166.742 312.249C167.186 312.724 167.367 313.094 167.281 313.176Z" fill="#5E3F26"/>
<path d="M171.88 311.682C171.692 311.857 170.986 311.385 170.063 311.01C169.146 310.618 168.314 310.45 168.305 310.193C168.305 310.071 168.534 309.951 168.924 309.916C169.311 309.88 169.858 309.946 170.409 310.175C170.959 310.405 171.392 310.746 171.64 311.047C171.89 311.349 171.966 311.597 171.88 311.682Z" fill="#5E3F26"/>
<path d="M164.235 313.041C164.257 313.166 164.164 313.294 164.05 313.429C163.932 313.565 163.789 313.713 163.636 313.881C163.484 314.051 163.351 314.208 163.228 314.339C163.105 314.467 162.988 314.572 162.861 314.563C162.74 314.555 162.628 314.411 162.616 314.156C162.602 313.906 162.711 313.557 162.966 313.274C163.222 312.991 163.557 312.848 163.808 312.837C164.061 312.824 164.216 312.921 164.235 313.041Z" fill="#5E3F26"/>
<path d="M161.84 312.776C162.07 312.377 161.831 311.809 161.308 311.506C160.784 311.203 160.174 311.28 159.944 311.679C159.714 312.078 159.952 312.647 160.476 312.95C161 313.253 161.61 313.175 161.84 312.776Z" fill="#5E3F26"/>
<path d="M167.92 311.373C168.102 311.056 167.913 310.605 167.498 310.365C167.082 310.125 166.598 310.186 166.416 310.503C166.234 310.819 166.423 311.27 166.838 311.51C167.253 311.751 167.737 311.689 167.92 311.373Z" fill="#5E3F26"/>
<path d="M254.413 320.036C254.06 320.113 252.728 315.192 252.108 308.952C251.472 302.714 251.796 297.625 252.157 297.63C252.544 297.63 252.826 302.657 253.455 308.816C254.066 314.976 254.792 319.959 254.413 320.036Z" fill="#5E3F26"/>
<path d="M257.509 301.941C260.384 300.338 262.566 298.773 262.385 298.446C262.203 298.119 259.726 299.152 256.851 300.755C253.977 302.357 251.795 303.922 251.976 304.249C252.158 304.577 254.635 303.543 257.509 301.941Z" fill="#5E3F26"/>
<path d="M222.419 231.964C222.41 231.774 222.437 231.584 222.498 231.404C222.519 231.328 222.562 231.259 222.622 231.207C222.682 231.155 222.756 231.122 222.835 231.112C223.009 231.116 223.166 231.294 223.286 231.478C223.499 231.805 223.659 232.164 223.76 232.541C223.85 232.833 223.877 233.141 223.838 233.444C223.735 234.047 223.218 234.208 222.853 233.754C222.525 233.346 222.42 232.49 222.419 231.964Z" fill="#171C22"/>
<path fill-rule="evenodd" clip-rule="evenodd" d="M233.159 214.29C232.476 213.538 231.128 213.784 230.993 213.81C232.374 211.892 232.098 209.655 230.918 208.779C229.934 208.049 228.554 208.436 228.305 208.511C227.946 207.208 226.991 206.175 225.777 205.86C224.11 205.428 222.177 206.408 221.392 208.284C221.174 207.698 220.795 207.186 220.298 206.806C219.802 206.426 219.208 206.193 218.584 206.134C217.115 206.02 215.693 206.965 215.182 208.447C214.828 207.943 214.328 207.559 213.75 207.346C213.171 207.132 212.54 207.099 211.941 207.25C211.342 207.402 210.803 207.732 210.396 208.195C209.989 208.659 209.732 209.235 209.66 209.846C209.153 209.297 208.492 208.914 207.762 208.746C207.032 208.578 206.268 208.633 205.569 208.904C204.87 209.175 204.269 209.649 203.844 210.265C203.419 210.881 203.19 211.61 203.186 212.357C202.936 212.272 201.067 211.677 199.254 212.8C198.719 213.141 198.257 213.586 197.897 214.108C197.537 214.63 197.285 215.218 197.157 215.838C197.042 215.797 195.453 215.269 194.151 216.27C193.091 217.084 192.675 218.565 193.158 219.919C191.862 220.118 190.89 221.154 190.806 222.355C190.781 222.855 190.897 223.351 191.14 223.788C191.384 224.224 191.745 224.584 192.184 224.827C190.287 225.415 189.415 227.394 190.017 228.81C190.476 229.891 191.775 230.598 193.184 230.437C193.108 230.51 192.202 231.409 192.419 232.506C192.636 233.603 193.895 234.479 195.374 234.277C194.2 235.276 194.037 236.851 194.75 237.738C195.473 238.638 196.819 238.485 196.904 238.474C195.98 239.489 196.151 240.888 196.896 241.424C197.406 241.791 198.199 241.762 198.878 241.374L198.886 241.384C197.994 242.431 198.204 243.871 199.02 244.441C199.614 244.855 200.528 244.809 201.266 244.309C200.883 245.095 200.975 246.007 201.494 246.602C202.14 247.342 203.362 247.491 204.308 246.858L204.37 246.927C204.229 247.361 204.052 248.151 204.459 248.707C204.837 249.224 205.645 249.461 206.23 249.403C206.051 249.68 205.951 250.001 205.941 250.331C205.931 250.66 206.011 250.986 206.174 251.273C206.599 251.979 207.539 252.302 208.406 251.986C208.819 253.112 209.439 253.448 209.697 253.557C210.369 253.841 211.178 253.614 212.798 253.161C213.355 253.004 213.849 252.841 214.04 252.77C215.069 252.388 221.392 249.466 223.12 244.252C225.246 237.839 219.267 231.415 221.727 229.365C221.849 229.263 222.403 228.801 222.995 228.921C224.669 229.26 224.535 233.827 226.153 234.087C226.652 234.167 227.087 233.799 227.12 233.77C228.581 232.495 225.782 228.975 227.15 227.025C228.334 225.337 231.677 226.241 232.822 224.299C233.042 223.953 233.148 223.548 233.127 223.139C233.05 222.128 232.078 221.512 231.876 221.389C232.955 221.55 233.875 220.718 233.88 219.81C233.884 218.986 233.135 218.203 232.153 218.195C233.714 216.958 233.902 215.109 233.159 214.29Z" fill="#171C22"/>
<path d="M226.429 214.244C226.403 214.236 226.392 214.192 226.397 214.108C226.415 213.987 226.461 213.873 226.532 213.773C226.645 213.615 226.791 213.482 226.96 213.386C227.179 213.26 227.42 213.176 227.669 213.136C227.814 213.112 227.96 213.101 228.106 213.103C228.263 213.105 228.419 213.118 228.573 213.144C228.926 213.202 229.263 213.331 229.564 213.524C229.733 213.634 229.886 213.768 230.017 213.921C230.158 214.088 230.269 214.278 230.345 214.483C230.424 214.695 230.466 214.919 230.468 215.145C230.466 215.204 230.465 215.263 230.459 215.321L230.448 215.407C230.449 215.395 230.449 215.404 230.449 215.401C230.449 215.401 230.447 215.403 230.448 215.404C230.448 215.406 230.446 215.406 230.453 215.407C230.549 215.396 230.647 215.392 230.744 215.389C231.151 215.366 231.556 215.461 231.911 215.661C232.087 215.771 232.237 215.917 232.352 216.089C232.456 216.252 232.525 216.434 232.554 216.624C232.6 216.939 232.557 217.26 232.431 217.553C232.335 217.775 232.202 217.98 232.038 218.16C231.923 218.288 231.796 218.405 231.659 218.511C231.437 218.68 231.295 218.746 231.257 218.709C231.219 218.672 231.29 218.53 231.435 218.306C231.507 218.193 231.595 218.059 231.683 217.904C231.781 217.737 231.856 217.559 231.906 217.373C231.961 217.17 231.964 216.956 231.915 216.751C231.888 216.653 231.844 216.562 231.782 216.481C231.716 216.401 231.634 216.334 231.542 216.284C231.299 216.176 231.033 216.134 230.769 216.16C230.691 216.166 230.614 216.171 230.534 216.182C230.452 216.189 230.359 216.208 230.271 216.223C230.182 216.237 230.092 216.253 229.996 216.275L228.907 216.517L229.172 216.142L229.443 215.758C229.484 215.702 229.523 215.644 229.559 215.585L229.617 215.442L229.646 215.37C229.654 215.346 229.66 215.321 229.663 215.296L229.67 215.243C229.674 215.211 229.674 215.177 229.677 215.144C229.677 215.008 229.655 214.874 229.611 214.746C229.57 214.621 229.508 214.505 229.429 214.4C229.347 214.295 229.251 214.202 229.144 214.122C228.93 213.967 228.689 213.853 228.433 213.786C228.312 213.753 228.189 213.729 228.065 213.713C227.952 213.697 227.839 213.691 227.725 213.693C227.53 213.696 227.335 213.727 227.148 213.786C227.01 213.831 226.879 213.897 226.76 213.982C226.683 214.04 226.61 214.104 226.543 214.174C226.495 214.225 226.455 214.252 226.429 214.244Z" fill="#A2A2A2"/>
<path d="M202.778 235.141C202.786 235.159 202.761 235.188 202.705 235.227C202.62 235.28 202.528 235.321 202.432 235.348C202.059 235.455 201.664 235.448 201.296 235.329C201.025 235.246 200.775 235.109 200.56 234.927C200.305 234.707 200.105 234.431 199.977 234.12C199.827 233.766 199.769 233.38 199.808 232.998C199.828 232.78 199.886 232.568 199.979 232.37C200.032 232.265 200.097 232.165 200.17 232.073C200.209 232.026 200.251 231.982 200.295 231.939L200.312 231.923L200.32 231.915C200.308 231.927 200.317 231.918 200.314 231.92L200.316 231.918L200.32 231.913C200.325 231.907 200.331 231.903 200.337 231.9C200.338 231.899 200.339 231.899 200.341 231.899C200.342 231.899 200.343 231.899 200.345 231.899C200.345 231.899 200.345 231.899 200.346 231.9C200.346 231.9 200.347 231.9 200.347 231.901C200.349 231.902 200.342 231.899 200.34 231.899L200.309 231.888L200.296 231.884C200.316 231.901 200.243 231.842 200.206 231.811C200.162 231.775 200.119 231.737 200.078 231.698C199.905 231.54 199.75 231.364 199.616 231.173L199.515 231.025L199.424 230.868C199.365 230.761 199.313 230.65 199.269 230.535C199.223 230.419 199.184 230.3 199.154 230.178C199.125 230.054 199.104 229.928 199.093 229.801C199.083 229.71 199.08 229.618 199.083 229.527C199.084 229.433 199.091 229.34 199.106 229.247C199.133 229.065 199.183 228.886 199.253 228.715C199.289 228.631 199.33 228.552 199.37 228.472C199.417 228.396 199.462 228.319 199.512 228.247C199.614 228.105 199.73 227.974 199.857 227.854C199.983 227.737 200.121 227.633 200.269 227.544C200.416 227.455 200.573 227.384 200.736 227.332C200.818 227.304 200.901 227.283 200.986 227.269L201.018 227.264C201.026 227.263 201.019 227.264 201.021 227.264C201.022 227.264 201.022 227.264 201.023 227.265L201.03 227.266C201.043 227.268 201.056 227.271 201.068 227.275C201.085 227.282 201.08 227.276 201.078 227.269L201.07 227.247C201.065 227.233 201.059 227.218 201.052 227.205L200.99 227.089C200.967 227.044 200.945 227.001 200.924 226.956C200.751 226.608 200.655 226.227 200.641 225.839C200.632 225.483 200.718 225.132 200.891 224.821C201.045 224.544 201.287 224.327 201.58 224.204C201.813 224.115 202.067 224.094 202.311 224.144C202.489 224.18 202.655 224.26 202.792 224.378C202.877 224.449 202.943 224.54 202.984 224.643C203.005 224.715 203.005 224.754 202.987 224.763C202.97 224.772 202.933 224.752 202.885 224.711C202.816 224.656 202.74 224.609 202.66 224.571C202.537 224.516 202.403 224.486 202.268 224.484C202.092 224.48 201.918 224.522 201.763 224.606C201.584 224.713 201.444 224.874 201.363 225.066C201.263 225.301 201.224 225.557 201.251 225.811C201.286 226.108 201.381 226.395 201.53 226.654C201.549 226.691 201.57 226.726 201.591 226.762L201.666 226.886C201.745 227.013 201.852 227.168 201.963 227.318L202.315 227.785C202.374 227.864 202.433 227.942 202.493 228.021L202.538 228.08L202.571 228.128L202.639 228.224L202.102 228.111L201.807 228.049L201.554 228.012C201.472 228.002 201.379 227.98 201.304 227.98C201.269 227.981 201.234 227.984 201.2 227.989L201.132 228.003C201.078 228.013 201.026 228.028 200.975 228.048C200.868 228.085 200.766 228.135 200.67 228.197C200.57 228.261 200.477 228.334 200.392 228.417C200.305 228.502 200.227 228.595 200.157 228.694C200.123 228.745 200.094 228.797 200.061 228.849L199.984 229.014C199.94 229.126 199.908 229.242 199.891 229.361C199.874 229.483 199.871 229.607 199.884 229.73C199.892 229.819 199.906 229.907 199.926 229.993C199.948 230.08 199.975 230.166 200.007 230.249C200.039 230.333 200.077 230.415 200.119 230.495L200.185 230.613L200.26 230.725C200.311 230.8 200.366 230.871 200.425 230.94C200.483 231.008 200.545 231.074 200.61 231.136C200.641 231.168 200.674 231.198 200.709 231.226L200.759 231.27L200.793 231.299C200.815 231.316 200.835 231.329 200.857 231.343L201.116 231.512L201.18 231.554L201.257 231.592L201.411 231.668L201.348 231.81L201.315 231.888L201.299 231.927C201.296 231.94 201.274 231.954 201.322 231.964L201.511 232.03L201.604 232.062L201.651 232.079C201.982 232.124 201.201 232.017 201.281 232.029L201.281 232.027L201.281 232.025L201.279 232.021C201.275 232.014 201.272 232.005 201.271 231.996C201.272 231.988 201.267 231.992 201.264 231.993C201.256 232.001 201.249 232.01 201.243 232.019L201.23 232.04C201.225 232.049 201.222 232.052 201.215 232.065L201.175 232.134C201.135 232.209 201.096 232.282 201.057 232.355C201.004 232.336 201.01 232.351 200.993 232.354L200.957 232.369L200.883 232.399C200.859 232.407 200.836 232.418 200.816 232.432L200.782 232.46C200.758 232.482 200.734 232.505 200.712 232.529C200.668 232.579 200.63 232.633 200.596 232.69C200.533 232.814 200.49 232.946 200.47 233.083C200.426 233.36 200.449 233.643 200.538 233.908C200.616 234.146 200.745 234.365 200.917 234.547C201.069 234.705 201.25 234.833 201.449 234.925C201.746 235.061 202.069 235.129 202.395 235.123C202.512 235.122 202.604 235.116 202.669 235.115C202.733 235.114 202.771 235.122 202.778 235.141Z" fill="#A2A2A2"/>
<path d="M198.275 221.925C198.257 221.934 198.23 221.922 198.192 221.887C198.14 221.833 198.1 221.769 198.076 221.698C198.032 221.585 198.011 221.464 198.014 221.343C198.016 221.178 198.05 221.015 198.115 220.863C198.195 220.672 198.314 220.499 198.465 220.356C198.553 220.273 198.651 220.201 198.757 220.143C198.867 220.081 198.984 220.032 199.105 219.995C199.366 219.92 199.638 219.894 199.908 219.92C199.974 219.925 200.056 219.937 200.109 219.944C200.121 219.946 200.132 219.946 200.144 219.945C200.155 219.943 200.167 219.946 200.169 219.941L200.158 219.914C200.156 219.905 200.151 219.911 200.156 219.846C200.176 219.611 200.236 219.381 200.333 219.166C200.382 219.055 200.441 218.948 200.509 218.848C200.578 218.744 200.656 218.647 200.744 218.558C200.833 218.466 200.932 218.383 201.038 218.31C201.091 218.273 201.149 218.241 201.205 218.207C201.264 218.178 201.324 218.148 201.384 218.123C201.438 218.103 201.49 218.082 201.544 218.065L201.706 218.021L201.869 217.992L202.031 217.976C202.139 217.971 202.246 217.973 202.353 217.983C202.458 217.992 202.562 218.01 202.665 218.035C202.766 218.059 202.865 218.091 202.961 218.131C203.009 218.149 203.056 218.171 203.102 218.194C203.145 218.216 203.206 218.247 203.204 218.249C203.215 218.255 203.225 218.262 203.234 218.269L203.238 218.275L203.249 218.292C203.274 218.266 203.21 218.377 203.419 218.006C203.568 217.766 203.754 217.552 203.97 217.37C204.156 217.209 204.363 217.074 204.584 216.966C204.772 216.876 204.97 216.808 205.174 216.764L205.308 216.736L205.438 216.722C205.516 216.712 205.594 216.708 205.673 216.711C205.797 216.711 205.92 216.724 206.041 216.751C206.117 216.768 206.19 216.794 206.259 216.831C206.306 216.856 206.328 216.88 206.324 216.901C206.321 216.922 206.292 216.94 206.242 216.955C206.192 216.97 206.121 216.977 206.032 216.996C205.942 217.014 205.834 217.029 205.713 217.064C205.647 217.079 205.582 217.098 205.519 217.122L205.415 217.155L205.308 217.201C205.149 217.268 204.997 217.349 204.854 217.445C204.689 217.555 204.538 217.683 204.402 217.826C204.25 217.983 204.122 218.16 204.022 218.353C203.994 218.402 203.97 218.453 203.95 218.505L203.932 218.545L203.924 218.565C203.914 218.583 203.907 218.602 203.901 218.621C203.881 218.685 203.866 218.755 203.848 218.823C203.772 219.096 203.713 219.384 203.647 219.664C203.521 219.536 203.393 219.407 203.264 219.276C203.198 219.212 203.131 219.148 203.064 219.083C203.048 219.068 203.03 219.049 203.015 219.036L202.972 219.008L202.885 218.951C202.848 218.925 202.809 218.903 202.767 218.885C202.738 218.871 202.707 218.859 202.676 218.848C202.614 218.825 202.55 218.806 202.485 218.792C202.419 218.778 202.352 218.768 202.285 218.762C202.217 218.758 202.149 218.757 202.082 218.761L201.98 218.772L201.88 218.791L201.783 218.817L201.688 218.852L201.584 218.901C201.551 218.922 201.517 218.939 201.486 218.961C201.422 219.004 201.362 219.054 201.308 219.108C201.252 219.163 201.202 219.222 201.158 219.287C201.112 219.35 201.073 219.417 201.039 219.487C200.973 219.623 200.929 219.769 200.909 219.919L200.907 219.932C200.907 219.938 200.907 219.952 200.907 219.962L200.907 220.025L200.908 220.15L200.908 220.181L200.915 220.22L200.93 220.298L200.959 220.453C201.001 220.656 201.043 220.857 201.084 221.055C200.841 220.954 200.567 220.829 200.324 220.731C200.265 220.709 200.203 220.683 200.147 220.666L199.987 220.622C199.919 220.605 199.88 220.596 199.826 220.587C199.637 220.553 199.444 220.551 199.255 220.583C199.171 220.598 199.089 220.622 199.01 220.654C198.938 220.681 198.87 220.717 198.807 220.761C198.69 220.843 198.588 220.945 198.508 221.063C198.44 221.162 198.388 221.27 198.354 221.385C198.327 221.472 198.311 221.563 198.307 221.654C198.303 221.73 198.304 221.794 198.304 221.839C198.303 221.883 198.293 221.915 198.275 221.925Z" fill="#A2A2A2"/>
<path d="M206.424 230.146C206.387 230.181 206.265 230.138 206.104 229.984C205.883 229.754 205.728 229.469 205.653 229.16C205.596 228.942 205.574 228.718 205.586 228.493C205.599 228.228 205.661 227.968 205.769 227.725C205.893 227.455 206.068 227.212 206.285 227.009C206.517 226.793 206.789 226.624 207.086 226.511C207.168 226.48 207.251 226.453 207.336 226.432C207.356 226.425 207.377 226.42 207.398 226.417C207.406 226.415 207.414 226.414 207.422 226.413C207.426 226.416 207.431 226.418 207.436 226.419C207.438 226.419 207.44 226.418 207.442 226.414C207.444 226.415 207.44 226.403 207.438 226.393L207.435 226.378L207.414 226.302C207.349 226.078 207.322 225.844 207.334 225.611C207.343 225.408 207.379 225.206 207.443 225.013C207.499 224.848 207.575 224.692 207.67 224.546C207.71 224.483 207.754 224.423 207.804 224.367C207.846 224.316 207.892 224.268 207.942 224.225C208.018 224.154 208.103 224.093 208.195 224.043C208.253 224.011 208.316 223.989 208.381 223.978C208.427 223.97 208.457 223.977 208.47 223.997C208.483 224.017 208.48 224.048 208.463 224.09C208.437 224.143 208.408 224.194 208.376 224.244C208.339 224.307 208.291 224.379 208.248 224.468C208.222 224.514 208.199 224.562 208.18 224.61C208.155 224.663 208.134 224.717 208.116 224.773C208.073 224.898 208.041 225.026 208.021 225.157C208.001 225.305 207.996 225.456 208.009 225.605C208.02 225.766 208.056 225.925 208.114 226.076L208.124 226.105C208.129 226.12 208.135 226.134 208.144 226.147L208.217 226.277L208.292 226.409L208.31 226.442L208.339 226.48L208.397 226.557L208.852 227.162L208.386 227.152L208.135 227.147L207.891 227.147C207.823 227.147 207.756 227.154 207.689 227.169C207.638 227.175 207.587 227.185 207.536 227.197C207.479 227.212 207.422 227.231 207.367 227.252C207.163 227.33 206.973 227.442 206.807 227.583C206.655 227.715 206.526 227.872 206.426 228.046C206.26 228.36 206.184 228.714 206.207 229.068C206.223 229.323 206.276 229.575 206.363 229.817C206.426 229.994 206.467 230.107 206.424 230.146Z" fill="#A2A2A2"/>
<path d="M214.168 213.788C214.122 213.766 214.116 213.638 214.2 213.431C214.333 213.141 214.54 212.891 214.801 212.706C214.983 212.573 215.184 212.468 215.397 212.395C215.649 212.309 215.915 212.269 216.181 212.278C216.478 212.292 216.77 212.363 217.04 212.488C217.327 212.622 217.585 212.811 217.8 213.043C217.859 213.107 217.915 213.174 217.967 213.244C217.98 213.261 217.993 213.278 218.004 213.296C218.008 213.303 218.012 213.31 218.016 213.317C218.015 213.322 218.015 213.327 218.016 213.332C218.016 213.335 218.018 213.336 218.023 213.336C218.022 213.338 218.032 213.331 218.04 213.325L218.054 213.316L218.117 213.269C218.302 213.125 218.509 213.012 218.731 212.937C218.924 212.869 219.125 212.828 219.329 212.814C219.503 212.804 219.678 212.816 219.848 212.85C219.922 212.863 219.994 212.882 220.065 212.907C220.128 212.926 220.19 212.951 220.248 212.981C220.343 213.025 220.432 213.081 220.512 213.147C220.563 213.189 220.607 213.239 220.642 213.295C220.666 213.336 220.671 213.365 220.656 213.385C220.642 213.405 220.612 213.413 220.567 213.413C220.508 213.408 220.45 213.401 220.392 213.39C220.318 213.379 220.234 213.362 220.134 213.355C220.082 213.348 220.029 213.345 219.977 213.345C219.918 213.342 219.86 213.342 219.802 213.347C219.669 213.353 219.538 213.372 219.409 213.403C219.263 213.439 219.121 213.491 218.986 213.558C218.84 213.629 218.705 213.721 218.586 213.831L218.563 213.852C218.551 213.861 218.54 213.873 218.531 213.886L218.437 214.002L218.342 214.119L218.318 214.149L218.293 214.19L218.243 214.272L217.851 214.918C217.797 214.775 217.742 214.63 217.687 214.484L217.598 214.249C217.568 214.175 217.538 214.1 217.508 214.024C217.483 213.961 217.451 213.902 217.413 213.846C217.388 213.801 217.36 213.757 217.33 213.715C217.294 213.667 217.256 213.622 217.215 213.578C217.068 213.419 216.893 213.285 216.7 213.185C216.52 213.093 216.326 213.033 216.126 213.005C215.772 212.968 215.414 213.03 215.093 213.183C214.861 213.294 214.645 213.437 214.453 213.608C214.31 213.733 214.221 213.812 214.168 213.788Z" fill="#A2A2A2"/>
<path d="M239.948 239.855C239.759 240.094 239.532 240.302 239.23 240.452C238.965 240.601 238.7 240.72 238.398 240.81C238.096 240.899 237.793 240.959 237.491 240.989C237.151 241.018 236.773 240.989 236.432 240.929C236.13 240.869 235.941 240.601 236.017 240.332C236.017 240.302 236.054 240.273 236.054 240.243C236.243 240.004 236.47 239.795 236.735 239.616C236.999 239.467 237.264 239.318 237.529 239.229C237.831 239.109 238.133 239.05 238.436 239.02C238.776 238.99 239.116 238.99 239.456 239.05C239.834 239.139 240.061 239.437 239.986 239.736C239.986 239.766 239.986 239.795 239.948 239.855Z" fill="#171C22"/>
<path d="M212.529 357.656C212.469 357.665 212.36 357.394 212.23 356.852C212.102 356.31 211.964 355.496 211.889 354.424C211.867 354.156 211.863 353.872 211.849 353.572C211.849 353.273 211.838 352.957 211.851 352.628C211.861 351.967 211.915 351.248 212.009 350.475C212.054 350.088 212.118 349.689 212.189 349.277C212.229 349.072 212.27 348.863 212.311 348.651C212.335 348.546 212.359 348.439 212.383 348.332L212.419 348.17L212.436 348.084C212.481 347.876 212.529 347.676 212.579 347.486C212.595 347.44 212.58 347.383 212.538 347.349C212.497 347.313 212.434 347.305 212.38 347.325C212.274 347.358 212.167 347.39 212.059 347.423C211.997 347.442 211.936 347.46 211.877 347.482L211.789 347.512L211.746 347.527L211.681 347.549C211.542 347.592 211.402 347.633 211.263 347.68C211.124 347.729 210.984 347.778 210.843 347.827C210.702 347.876 210.56 347.925 210.417 347.975C210.276 348.029 210.134 348.084 209.991 348.139C209.705 348.25 209.415 348.359 209.127 348.487C207.969 348.976 206.784 349.565 205.6 350.269C204.416 350.974 203.233 351.793 202.082 352.736C201.789 352.966 201.514 353.222 201.225 353.466L201.143 353.537L201.047 353.626L200.853 353.809C200.724 353.931 200.594 354.053 200.464 354.176C200.334 354.299 200.203 354.422 200.072 354.546L199.874 354.732L199.775 354.825C199.757 354.845 199.745 354.848 199.733 354.852L199.696 354.865C199.497 354.933 199.298 355.002 199.098 355.071L198.796 355.174C198.74 355.197 198.712 355.194 198.647 355.181C198.586 355.169 198.513 355.142 198.458 355.112C198.43 355.097 198.406 355.081 198.389 355.068C198.372 355.06 198.361 355.034 198.348 355.008L198.273 354.859L198.121 354.559C198.018 354.359 197.915 354.158 197.812 353.956C197.783 353.536 197.754 353.114 197.724 352.691C197.715 352.584 197.699 352.48 197.687 352.374L197.652 352.1L197.609 351.769L197.566 351.436C197.554 351.324 197.537 351.213 197.514 351.102C197.472 350.881 197.431 350.658 197.389 350.435C197.345 350.212 197.31 349.986 197.26 349.762C197.205 349.54 197.15 349.316 197.096 349.091C197.041 348.867 196.986 348.642 196.931 348.415C196.864 348.192 196.796 347.968 196.728 347.743C196.187 345.945 195.443 344.146 194.487 342.404C193.53 340.663 192.361 338.977 190.982 337.417C190.651 337.014 190.271 336.653 189.909 336.271C189.817 336.177 189.727 336.081 189.633 335.988L189.342 335.72C189.172 335.563 189.002 335.406 188.832 335.249C188.806 335.228 188.797 335.226 188.783 335.217C188.778 335.211 188.766 335.22 188.769 335.23L188.772 335.256L188.773 335.268C188.773 335.27 188.773 335.273 188.773 335.273L188.774 335.273C188.774 335.277 188.774 335.266 188.774 335.281L188.77 335.34C188.752 335.657 188.739 335.976 188.716 336.294C188.666 336.93 188.623 337.57 188.552 338.211C188.493 338.853 188.406 339.495 188.326 340.141C188.279 340.463 188.232 340.786 188.185 341.109L188.112 341.594L188.028 342.079C187.592 344.668 186.966 347.271 186.153 349.854C186.06 350.14 185.968 350.427 185.877 350.712C185.831 350.856 185.779 350.996 185.731 351.138L185.552 351.655L185.407 352.07L185.256 352.477L185.18 352.679L185.1 352.868L184.942 353.245C184.73 353.747 184.519 354.249 184.308 354.75L184.229 354.937C184.225 354.945 184.222 354.954 184.219 354.96L184.209 354.964L184.191 354.974L184.153 354.994L184.003 355.073L183.703 355.231L183.404 355.389L183.329 355.428C183.302 355.446 183.287 355.443 183.249 355.446C183.177 355.45 183.059 355.446 182.98 355.433C182.898 355.42 182.887 355.415 182.843 355.402L182.733 355.369C182.699 355.362 182.65 355.333 182.609 355.315C182.565 355.293 182.525 355.28 182.474 355.242C182.425 355.207 182.379 355.184 182.328 355.139C182.276 355.087 182.224 355.05 182.172 354.987L182.092 354.885C182.079 354.867 182.066 354.853 182.053 354.832L182.015 354.763C181.991 354.714 181.964 354.677 181.942 354.619L181.88 354.437C181.05 351.171 180.236 347.964 179.439 344.826C179.109 343.514 178.782 342.216 178.46 340.934L178.339 340.454L178.279 340.215L178.275 340.2L178.275 340.199L178.275 340.196L178.274 340.191L178.267 340.143C178.265 340.128 178.265 340.099 178.244 340.101C178.231 340.107 178.221 340.12 178.207 340.13C178.198 340.138 178.189 340.146 178.181 340.156L178.174 340.163L178.17 340.166L178.139 340.204L177.944 340.443C177.811 340.599 177.694 340.767 177.572 340.93C177.45 341.095 177.329 341.258 177.208 341.422C176.975 341.755 176.755 342.095 176.531 342.429C176.325 342.775 176.112 343.115 175.915 343.461C175.132 344.851 174.505 346.29 174.028 347.74C173.55 349.189 173.223 350.65 173.036 352.088C172.997 352.448 172.938 352.805 172.921 353.162L172.899 353.478C172.889 353.648 172.873 353.813 172.869 353.985C172.865 354.157 172.862 354.329 172.858 354.5C172.826 354.622 172.787 354.732 172.753 354.848C172.681 355.076 172.611 355.304 172.54 355.531L172.435 355.87L172.409 355.954C172.397 355.968 172.38 355.983 172.359 356C172.316 356.033 172.258 356.069 172.199 356.094C172.14 356.119 172.087 356.135 172.049 356.135L171.891 356.104L171.576 356.042L171.263 355.979L171.107 355.947C171.054 355.935 171.009 355.938 170.932 355.878C170.631 355.684 170.332 355.491 170.034 355.3L169.812 355.156L169.701 355.085L169.646 355.05L169.615 355.032L169.37 354.892C169.207 354.8 169.044 354.707 168.883 354.615C168.717 354.529 168.552 354.444 168.389 354.359C168.064 354.183 167.726 354.042 167.399 353.884C167.065 353.741 166.735 353.598 166.403 353.47C165.073 352.958 163.746 352.591 162.457 352.35C162.135 352.29 161.813 352.245 161.497 352.193C161.376 352.174 161.256 352.157 161.138 352.139C160.898 352.109 160.642 352.086 160.37 352.073C160.301 352.071 160.232 352.069 160.164 352.067L160.058 352.063C160.023 352.061 159.986 352.063 159.955 352.078C159.893 352.108 159.863 352.178 159.879 352.231C159.896 352.287 159.955 352.298 159.997 352.325C160.181 352.421 160.372 352.534 160.563 352.668C160.717 352.771 160.869 352.891 161.026 353.014C161.17 353.132 161.312 353.248 161.452 353.363C161.615 353.49 161.764 353.628 161.912 353.762C162.512 354.292 163.017 354.847 163.465 355.377C164.349 356.45 164.955 357.47 165.367 358.327C165.58 358.753 165.726 359.148 165.858 359.484C165.972 359.828 166.065 360.118 166.125 360.355C166.232 360.835 166.259 361.088 166.203 361.105C166.147 361.123 166.01 360.905 165.8 360.476C165.689 360.265 165.552 360.003 165.388 359.692C165.21 359.389 165.023 359.032 164.773 358.651C164.287 357.881 163.627 356.972 162.725 356.028C162.267 355.563 161.762 355.078 161.174 354.621C161.029 354.505 160.883 354.385 160.725 354.277C160.647 354.221 160.569 354.164 160.49 354.108L160.372 354.022L160.337 353.997C160.316 353.981 160.297 353.967 160.283 353.958C160.251 353.935 160.219 353.914 160.184 353.893C159.911 353.724 159.634 353.552 159.353 353.378C159.281 353.334 159.214 353.288 159.136 353.246C159.054 353.204 158.971 353.161 158.889 353.119C158.722 353.034 158.554 352.948 158.384 352.862C158.295 352.804 158.206 352.746 158.116 352.688L157.983 352.601L157.911 352.532C157.816 352.439 157.72 352.346 157.623 352.252C157.403 352.031 157.306 351.946 157.17 351.81L157.073 351.715C157.043 351.688 157.016 351.638 157.006 351.565C156.982 351.419 157.035 351.215 157.127 351.096C157.174 351.035 157.212 351.008 157.264 350.987L157.414 350.915C157.513 350.865 157.612 350.816 157.713 350.766L157.788 350.728C157.803 350.723 157.806 350.714 157.831 350.711L157.897 350.7C157.985 350.685 158.074 350.67 158.162 350.655C158.341 350.625 158.52 350.594 158.701 350.563L158.837 350.539C158.887 350.534 158.953 350.539 159.011 350.538C159.13 350.538 159.251 350.539 159.371 350.539C159.614 350.54 159.858 350.541 160.104 350.542C160.61 350.562 161.149 350.612 161.684 350.647C162.025 350.689 162.372 350.725 162.72 350.776C164.115 350.984 165.558 351.33 167.014 351.839C167.378 351.966 167.74 352.11 168.106 352.254C168.465 352.414 168.837 352.558 169.195 352.739C169.376 352.826 169.557 352.913 169.74 353.001C169.919 353.097 170.098 353.192 170.279 353.289C170.438 353.374 170.599 353.46 170.762 353.547L170.852 353.598L170.895 353.623C170.91 353.63 170.923 353.645 170.941 353.638C170.959 353.632 170.963 353.608 170.96 353.59L170.957 353.533L170.952 353.423C170.949 353.387 170.948 353.352 170.949 353.319L170.948 353.267L170.959 353.026C170.969 352.637 171.022 352.25 171.057 351.857C171.225 350.292 171.547 348.699 172.037 347.113C172.526 345.528 173.182 343.95 174.012 342.421C174.222 342.04 174.448 341.665 174.668 341.284C174.908 340.915 175.143 340.54 175.393 340.172C175.523 339.991 175.653 339.81 175.784 339.628C175.915 339.447 176.042 339.262 176.185 339.088C176.377 338.849 176.568 338.609 176.761 338.368C177.028 338.057 177.305 337.749 177.582 337.434C177.775 337.338 177.967 337.242 178.16 337.146L178.451 337.001L178.523 336.965C178.535 336.96 178.548 336.952 178.559 336.949L178.591 336.946C178.635 336.942 178.686 336.941 178.742 336.943C178.966 336.946 179.248 337.045 179.383 337.134C179.515 337.218 179.656 337.329 179.799 337.502L179.901 337.652C179.934 337.705 179.962 337.772 179.993 337.831C180.021 337.894 180.042 337.972 180.067 338.042L180.127 338.273C180.208 338.583 180.288 338.893 180.369 339.203C180.47 339.592 180.572 339.983 180.674 340.374C181.008 341.653 181.346 342.948 181.688 344.257C182.236 346.363 182.795 348.515 183.365 350.706C183.367 350.71 183.369 350.704 183.369 350.699L183.369 350.696C183.452 350.455 183.535 350.214 183.618 349.972C183.706 349.698 183.794 349.423 183.883 349.148C184.664 346.668 185.27 344.17 185.699 341.684L185.781 341.219L185.853 340.753C185.9 340.443 185.946 340.133 185.993 339.824C186.072 339.204 186.16 338.588 186.219 337.971C186.291 337.356 186.337 336.742 186.389 336.131C186.413 335.825 186.428 335.519 186.448 335.215L186.471 334.817C186.482 334.662 186.484 334.507 186.491 334.352C186.502 334.045 186.513 333.737 186.524 333.43C186.679 333.097 186.834 332.765 186.989 332.433C187.023 332.332 187.071 332.312 187.146 332.255C187.219 332.203 187.31 332.15 187.407 332.108C187.503 332.067 187.605 332.036 187.693 332.02C187.736 332.011 187.777 332.005 187.81 332.002C187.825 331.993 187.852 332.015 187.875 332.026L187.946 332.065C188.323 332.271 188.7 332.478 189.076 332.683L189.637 332.991L189.777 333.068C189.824 333.095 189.868 333.112 189.922 333.163C190.025 333.249 190.13 333.335 190.222 333.425C190.456 333.646 190.691 333.867 190.924 334.087L191.237 334.382C191.338 334.484 191.435 334.589 191.534 334.692C191.924 335.11 192.33 335.509 192.685 335.948C194.161 337.656 195.398 339.494 196.4 341.388C197.402 343.281 198.169 345.231 198.712 347.177C198.78 347.42 198.848 347.662 198.915 347.904C198.97 348.148 199.024 348.392 199.078 348.634C199.132 348.877 199.185 349.119 199.239 349.359C199.287 349.601 199.321 349.845 199.363 350.085C199.402 350.327 199.441 350.567 199.48 350.806C199.502 350.925 199.518 351.045 199.529 351.166C199.542 351.286 199.554 351.405 199.567 351.525C199.58 351.644 199.593 351.764 199.605 351.883L199.61 351.927L199.611 351.939L199.611 351.952L199.612 351.98C199.615 352.021 199.615 352.064 199.615 352.109C199.618 352.188 199.609 352.276 199.622 352.361C199.634 352.381 199.66 352.377 199.671 352.363L199.712 352.327L199.799 352.253C199.871 352.196 199.942 352.14 200.012 352.084C200.327 351.831 200.629 351.567 200.948 351.331C202.203 350.362 203.487 349.532 204.767 348.829C206.046 348.126 207.321 347.551 208.563 347.086C208.871 346.964 209.182 346.861 209.487 346.757C209.64 346.706 209.792 346.655 209.943 346.604C210.096 346.559 210.247 346.513 210.397 346.468C210.548 346.423 210.697 346.379 210.845 346.334C210.994 346.291 211.143 346.255 211.291 346.216C211.397 346.188 211.504 346.159 211.61 346.131C211.723 346.1 211.835 346.07 211.946 346.045C212.167 345.993 212.386 345.942 212.604 345.891C212.896 345.899 213.185 345.906 213.471 345.913C213.509 345.911 213.536 345.919 213.565 345.929C213.595 345.939 213.626 345.952 213.657 345.969C213.719 346.003 213.78 346.051 213.833 346.107C213.939 346.22 214.002 346.361 214 346.473C213.984 346.746 213.978 347.003 213.949 347.273C213.846 347.602 213.744 347.925 213.643 348.244C213.577 348.473 213.512 348.699 213.448 348.922C213.396 349.121 213.346 349.316 213.296 349.509C213.203 349.896 213.116 350.272 213.048 350.637C212.907 351.368 212.803 352.052 212.74 352.684C212.7 352.999 212.684 353.302 212.656 353.59C212.642 353.879 212.618 354.154 212.612 354.414C212.572 355.454 212.59 356.26 212.598 356.808C212.607 357.355 212.593 357.646 212.529 357.656Z" fill="#222831"/>
</svg>
