<svg width="519" height="500" viewBox="0 0 519 500" fill="none" xmlns="http://www.w3.org/2000/svg">
<path d="M136.453 89.1748C136.453 89.1748 119.32 95.0654 107.816 110.201C85.3792 269.165 108 405.999 108 405.999C134.271 388.818 134.087 377.649 134.087 377.649C113.446 318.416 136.453 89.1748 136.453 89.1748Z" fill="#171C22"/>
<path d="M108.128 110C119.713 94.8645 136.5 89.1768 136.5 89.1768C85.9151 66.269 46.3448 0 46.3448 0C20.8893 1.06358 11.0171 8.26317 11.0171 8.26317C48 79.5 108.128 110 108.128 110Z" fill="#354A4C"/>
<path d="M108 110C108 110 40 59.5 11.2361 8.55957C-10.3032 159.506 7.23832 303.252 7.23832 303.252C35.8758 354.385 108 406.01 108 406.01C108 406.01 86.5002 270.001 108 110Z" fill="#70878A"/>
<path d="M4.52579 65.7803C22.5568 79.7704 20.1907 104.969 2.48608 94.4968C2.48608 94.5786 3.62832 75.8433 4.52579 65.7803Z" fill="#171C22"/>
<path d="M1.75141 108.076C21.7405 118.139 17.0084 143.256 0.935523 134.257C0.853935 134.257 0.853935 118.139 1.75141 108.076Z" fill="#171C22"/>
<path d="M0.446068 148.001C20.4352 158.064 16.3558 182.526 0.282891 173.527C0.282891 173.527 -0.451403 158.064 0.446068 148.001Z" fill="#171C22"/>
<path d="M92.0707 374.213C91.5009 374.222 90.9481 374.018 90.5205 373.64C90.031 373.231 38.7935 330.197 14.725 287.245C14.5677 286.965 14.4575 286.661 14.3986 286.345C14.2355 285.199 -0.205656 173.933 17.7438 48.1037C17.8429 47.4862 18.1817 46.9331 18.6861 46.5652C19.1906 46.1973 19.8198 46.0445 20.4362 46.1402C20.8003 46.188 21.147 46.325 21.4458 46.539C21.7446 46.7531 21.9863 47.0375 22.1495 47.3674C45.7285 89.4196 92.8866 125.745 93.3761 126.072C93.7113 126.324 93.9719 126.663 94.13 127.052C94.288 127.441 94.3377 127.866 94.2736 128.281C75.6714 260.165 94.1104 370.367 94.2736 371.431C94.3471 371.908 94.2777 372.395 94.0744 372.832C93.871 373.269 93.5428 373.636 93.1313 373.885C92.8323 374.126 92.4529 374.243 92.0707 374.213ZM19.1308 285.363C38.4672 319.643 75.5083 354.005 88.7256 365.786C85.1357 340.342 73.6317 242.738 89.5415 129.017C82.5249 123.536 44.3415 92.4467 21.66 55.7124C5.75029 174.015 18.1517 277.673 19.1308 285.363Z" fill="#171C22"/>
<path d="M152.283 372.663C152.707 371.94 153.229 371.28 153.833 370.699C157.165 366.597 161.616 363.555 166.642 361.945C168.148 361.462 169.713 361.186 171.293 361.127H171.864C173.396 361.138 174.924 361.275 176.433 361.536C188.263 363.5 192.832 371.845 192.914 383.462C193.168 383.072 193.469 382.715 193.811 382.399C199.5 376 206.539 372.745 211.679 372.745C213.293 372.718 214.906 372.855 216.493 373.154C228.078 375.117 232.647 383.053 232.974 394.344C233.3 393.934 233.626 393.607 233.953 393.198C239.419 386.571 246.191 383.708 251.249 383.626C253.054 383.559 254.86 383.696 256.634 384.035C267.893 385.917 272.01 394.201 272.5 405C272.663 404.755 273.36 403.998 273.523 403.752C279.234 396.471 286.088 393.607 291.391 393.607C293.141 393.537 294.894 393.674 296.613 394.016C306.974 395.734 311.706 402.279 312.849 411.688C313.041 411.396 313.259 411.122 313.501 410.87C316.846 406.347 321.574 403.043 326.963 401.461C328.76 400.904 330.631 400.628 332.511 400.643C333.935 400.658 335.354 400.795 336.754 401.052C340.367 401.551 343.778 403.021 346.626 405.307C345.321 381.826 344.342 352.946 344.342 318.748C344.342 276.941 345.705 245.326 347.5 222.5C343.257 227.409 336.575 232.564 327.845 231.827C326.703 231.745 325.642 231.664 324.5 231.5C314.22 229.7 309.908 221.809 309.5 211.5C305.665 216.572 298.025 223.9 287.5 223C286.243 222.972 284.99 222.863 283.747 222.673C272.814 220.791 268.337 211.708 268.5 200.5C264.91 205.572 257.096 213.482 246 212.5C244.851 212.472 243.706 212.363 242.573 212.173C231.885 210.291 227.5 201.963 227.5 191C223.5 196 215.77 202.9 205 202C203.743 201.972 202.938 201.755 201.5 202C189.914 199.955 185.603 189.608 186.5 177.5C182.665 182.491 174.943 188.9 164.5 188C163.243 187.972 162.243 187.69 161 187.5C148.843 185.373 144.369 175.41 145.756 162.484C146.409 156.184 147.632 151.685 149.264 148.576C147.388 147.839 145.674 147.185 143.961 146.53C141.432 168.947 138.821 205.518 138.821 260.087C138.821 334.456 143.716 375.445 146.49 392.625L147.877 393.28C147.959 390.989 148.122 388.453 148.448 385.59C149.101 380.435 150.162 375.936 152.283 372.663Z" fill="#171C22"/>
<path d="M510.944 96.1287C509.965 95.7197 502.377 92.5289 486.712 87.5383C471.047 82.5477 447.387 75.7572 414.507 68.1485C332.184 49.2496 318.151 51.5403 318.151 51.5403C318.151 51.5403 280.702 51.4585 224.406 69.3757C164.275 88.5201 125.276 111.264 125.276 111.264C125.276 111.264 114.915 150.289 114.915 259.838C114.915 369.386 125.276 408.411 125.276 408.411C127.272 409.657 129.343 410.778 131.477 411.765C136.454 414.22 144.776 418.065 157.83 423.056C165.091 425.837 173.74 428.946 184.101 432.383C195.605 436.228 209.231 440.482 225.222 445.145C271.89 458.726 315.948 466.826 344.422 471.162C358.782 473.371 369.225 474.598 373.957 475.171L376.895 475.498L376.976 475.662C376.976 475.662 383.748 471.326 395.007 463.063C417.39 446.59 438.828 428.863 459.217 409.966C461.42 407.92 463.541 405.957 465.499 404.075C475.78 394.339 483.775 385.994 490.057 378.958C495.765 372.674 501.104 366.063 506.049 359.159C510.291 353.105 511.434 350.242 511.434 350.242C511.434 350.242 518.287 304.099 518.287 216.722C518.287 129.345 510.944 96.1287 510.944 96.1287ZM346.544 405.139C347.441 420.929 348.42 434.264 349.399 445.064C349.481 445.964 349.562 446.782 349.644 447.682L347.441 447.354L343.117 446.7C335.856 445.554 327.697 444.164 318.804 442.527C315.459 441.873 311.95 441.218 308.36 440.564L307.381 440.4L303.139 439.582C295.061 437.946 286.658 436.146 277.928 434.182C274.664 433.446 271.401 432.71 268.137 431.892C267.485 431.728 266.832 431.564 266.098 431.401L262.753 430.583C254.594 428.537 246.19 426.328 237.705 423.956C235.747 423.383 233.707 422.81 231.749 422.238L227.914 421.092L225.956 420.52L222.693 419.538C213.147 416.674 204.662 414.056 196.992 411.52C193.729 410.456 190.628 409.393 187.773 408.411L186.957 408.166C185.57 407.675 184.265 407.266 182.959 406.775C171.618 402.848 162.807 399.493 156.117 396.712C152.772 395.321 149.998 394.094 147.631 393.112L146.244 392.376C143.47 375.113 138.575 334.206 138.575 259.838C138.575 205.268 141.186 168.697 143.715 146.28C145.429 146.935 147.142 147.589 149.018 148.326C158.238 151.844 169.497 155.853 183.286 160.271C185.407 160.925 187.61 161.661 189.813 162.398C198.379 165.098 207.925 167.961 218.368 171.07C220.327 171.643 222.203 172.215 224.161 172.706L230.28 174.424C242.274 177.697 254.023 180.642 265.363 183.26C267.321 183.751 269.28 184.16 271.238 184.651C283.639 187.433 295.306 189.805 306.157 191.851C308.279 192.26 310.318 192.669 312.358 192.996C325.575 195.369 337.243 197.25 346.788 198.641L349.562 199.05C348.828 205.513 348.094 213.286 347.36 222.449C345.565 245.275 344.096 276.773 344.096 318.58C344.341 352.778 345.238 381.658 346.544 405.139Z" fill="#354A4C"/>
<path d="M490.139 378.796L489.976 380.514C489.405 382.314 482.388 406.122 484.428 406.286C485.296 406.362 486.17 406.232 486.978 405.905C487.787 405.578 488.506 405.063 489.078 404.404C492.423 400.477 499.93 391.723 502.54 388.205C503.156 387.331 503.548 386.32 503.683 385.259C504.091 380.923 505.314 368.897 506.13 359.079C501.21 365.976 495.87 372.561 490.139 378.796Z" fill="#171C22"/>
<path d="M465.662 403.911C471.894 405.234 478.226 406.028 484.591 406.283C485.401 406.332 486.197 406.058 486.808 405.523C487.419 404.987 487.794 404.231 487.854 403.42C488.425 398.347 489.567 387.548 490.22 378.794C483.856 385.83 475.861 394.175 465.662 403.911Z" fill="#A2A2A2"/>
<path d="M397.292 482.455C396.802 479.101 396.149 473.537 395.252 465.52C395.231 465.326 395.172 465.139 395.079 464.968C394.986 464.797 394.859 464.646 394.708 464.525C394.556 464.403 394.382 464.313 394.195 464.259C394.009 464.205 393.813 464.189 393.62 464.211C393.356 464.217 393.101 464.302 392.886 464.456C382.932 471.738 376.976 475.583 376.976 475.583L376.895 475.419L373.957 475.092C374.773 483.355 375.589 489.655 376.079 493.827L374.121 494.236L373.713 499.963C375.519 500.123 377.333 499.754 378.934 498.9L395.089 487.446C395.893 486.911 396.527 486.158 396.917 485.273C397.308 484.389 397.438 483.411 397.292 482.455Z" fill="#171C22"/>
<path d="M344.422 471.085V471.167C345.483 482.212 346.462 489.166 346.951 492.766C347.081 493.612 347.462 494.4 348.044 495.028C348.626 495.655 349.382 496.093 350.215 496.284C357.978 497.922 365.821 499.151 373.712 499.965C374.392 500.03 375.07 499.827 375.603 499.4C376.136 498.972 376.482 498.353 376.568 497.674V497.02C375.997 493.093 375.099 485.73 374.039 475.012C369.307 474.603 358.863 473.294 344.422 471.085Z" fill="#A2A2A2"/>
<path d="M157.831 422.978C158.253 429.927 159.126 436.841 160.442 443.676L158.484 444.413L159.136 448.422C160.916 448.988 162.846 448.841 164.521 448.012C171.771 443.786 178.368 438.522 184.102 432.386C173.741 428.868 165.092 425.759 157.831 422.978Z" fill="#171C22"/>
<path d="M131.477 411.766C132.13 424.529 133.762 432.219 134.822 435.901C135.054 436.753 135.475 437.542 136.054 438.208C136.634 438.874 137.356 439.4 138.167 439.746C143.226 442.037 150.079 444.9 159.135 448.336C159.322 448.413 159.523 448.45 159.725 448.446C159.926 448.441 160.125 448.395 160.309 448.311C160.492 448.227 160.656 448.106 160.791 447.955C160.926 447.805 161.029 447.628 161.094 447.436C161.205 447.15 161.233 446.838 161.175 446.536C160.278 442.855 158.809 435.328 157.912 422.892C148.916 419.64 140.093 415.926 131.477 411.766Z" fill="#A2A2A2"/>
<path d="M500.664 101.449L493.076 105.213C490.547 106.44 488.018 107.749 485.489 109.058C480.43 111.676 475.453 114.294 470.476 117.076C465.499 119.858 460.604 122.557 455.709 125.421C450.813 128.284 445.918 131.148 441.104 134.011C431.395 139.82 421.931 145.874 412.549 152.256C407.898 155.446 403.248 158.637 398.679 161.992C396.394 163.628 394.11 165.346 391.825 167.064C389.541 168.782 387.338 170.5 385.135 172.3C385.034 172.395 384.915 172.468 384.785 172.516C384.655 172.563 384.517 172.585 384.379 172.578C384.241 172.572 384.105 172.538 383.98 172.479C383.855 172.419 383.743 172.335 383.651 172.232C383.559 172.129 383.488 172.008 383.443 171.877C383.398 171.746 383.379 171.607 383.388 171.468C383.397 171.33 383.434 171.195 383.495 171.071C383.557 170.947 383.643 170.836 383.748 170.746C392.061 162.91 400.863 155.614 410.101 148.901C414.67 145.547 419.402 142.274 424.134 139.084C428.866 135.893 433.68 132.866 438.575 129.921C443.471 126.975 448.366 124.112 453.343 121.248C458.32 118.467 463.296 115.767 468.437 113.149C478.564 107.92 488.968 103.25 499.603 99.1587C499.753 99.0924 499.914 99.0568 500.078 99.0539C500.242 99.051 500.404 99.0809 500.556 99.1419C500.708 99.2029 500.847 99.2936 500.963 99.4089C501.08 99.5242 501.172 99.6616 501.235 99.8132C501.326 99.9534 501.385 100.113 501.405 100.279C501.425 100.446 501.407 100.614 501.352 100.772C501.296 100.931 501.206 101.074 501.086 101.191C500.967 101.309 500.823 101.397 500.664 101.449Z" fill="#171C22"/>
<path d="M398.026 193.246C397.618 198.319 395.333 202.327 392.967 202.164C390.52 202 388.888 197.664 389.296 192.592C389.704 187.437 391.988 183.51 394.354 183.674C396.802 183.838 398.434 188.092 398.026 193.246Z" fill="#171C22"/>
<path d="M506.457 118.467C506.783 122.722 505.478 126.321 503.438 126.485C501.399 126.649 499.44 123.294 499.114 119.04C498.788 114.786 500.093 111.186 502.133 111.022C504.173 110.859 506.131 114.213 506.457 118.467Z" fill="#171C22"/>
<path d="M505.642 339.611C505.152 343.865 503.112 347.137 501.073 346.892C499.033 346.646 497.809 343.047 498.38 338.792C498.87 334.538 500.91 331.266 502.949 331.511C504.989 331.756 506.131 335.356 505.642 339.611Z" fill="#171C22"/>
<path d="M396.394 440.814C396.884 445.886 395.415 450.222 392.968 450.468C390.602 450.713 388.154 446.786 387.664 441.714C387.175 436.641 388.643 432.305 391.091 432.06C393.539 431.732 395.905 435.741 396.394 440.814Z" fill="#171C22"/>
<path d="M153.833 370.696C153.272 371.314 152.754 371.97 152.282 372.66C152.733 371.955 153.252 371.298 153.833 370.696Z" fill="#354A4C"/>
<path d="M346.054 213.371C343.851 224.988 338.385 232.515 327.86 232.188C336.59 232.924 343.361 227.361 347.604 222.452C348.338 213.289 349.073 205.517 349.807 199.054L347.033 198.645C347.441 202.163 347.278 206.908 346.054 213.371Z" fill="#E76969"/>
<path d="M309.258 211.817C309.584 222.044 314.234 230.062 324.515 231.861C325.62 232.051 326.738 232.161 327.86 232.189C338.385 232.598 343.851 224.989 346.054 213.372C347.278 206.908 347.522 202.163 346.951 198.645C337.405 197.254 325.738 195.373 312.521 193C311.134 196.027 310.073 200.281 309.502 206.008C309.256 207.934 309.174 209.877 309.258 211.817Z" fill="#E24444"/>
<path d="M305.178 204.373C302.975 215.827 297.591 223.353 287.392 223.19C297.917 224.09 305.423 216.972 309.258 211.818C309.176 209.851 309.258 207.881 309.502 205.927C310.155 200.2 311.216 195.946 312.521 192.919C310.482 192.592 308.442 192.183 306.321 191.773C306.475 196.005 306.091 200.239 305.178 204.373Z" fill="#E76969"/>
<path d="M268.382 200.851C268.138 212.06 272.707 220.896 283.639 222.859C284.877 223.09 286.134 223.199 287.392 223.187C297.673 223.35 303.057 215.823 305.179 204.369C306.087 200.262 306.471 196.056 306.321 191.852C295.47 189.807 283.721 187.434 271.401 184.652C269.903 188.619 268.969 192.778 268.627 197.006C268.462 198.281 268.38 199.566 268.382 200.851Z" fill="#E24444"/>
<path d="M246.109 212.797C257.205 213.779 264.793 205.925 268.382 200.852C268.383 199.54 268.464 198.228 268.627 196.925C268.978 192.699 269.911 188.541 271.401 184.572C269.443 184.162 267.485 183.672 265.527 183.181C265.447 186.783 265.037 190.371 264.303 193.898C262.1 205.598 256.634 213.124 246.109 212.797Z" fill="#E76969"/>
<path d="M227.506 191.035C227.506 201.916 232.075 210.588 242.763 212.47C243.897 212.66 245.042 212.769 246.19 212.797C256.715 213.125 262.1 205.598 264.384 193.98C265.118 190.453 265.528 186.865 265.608 183.263C254.349 180.645 242.6 177.699 230.525 174.427C229.062 178.343 227.823 182.329 227.5 186.499C227.27 187.96 227 189.499 227.506 191.035Z" fill="#E24444"/>
<path d="M205.314 202.409C216.084 203.309 223.829 196.072 227.5 191C227.502 189.497 227.509 188.032 227.669 186.537C227.992 182.367 228.899 178.264 230.362 174.347L224.243 172.629C224.207 176.288 223.278 179.925 222.5 183.5C220.46 195.036 216 200.576 205.314 202.409Z" fill="#E76969"/>
<path d="M186.467 177.942C185.651 190.132 190.057 200.031 201.561 201.995C202.799 202.226 204.056 202.335 205.314 202.322C215.594 202.486 220.979 194.959 223.1 183.505C223.843 179.926 224.226 176.28 224.243 172.624C222.285 172.051 220.408 171.56 218.45 170.988C208.007 167.961 198.542 165.097 189.894 162.315C188.262 165.424 187.12 169.842 186.467 176.142C186.508 176.741 186.508 177.343 186.467 177.942Z" fill="#E24444"/>
<path d="M164 188C175.5 189.5 182.552 182.936 186.468 178.027C186.482 177.424 186.536 176.823 186.631 176.227C187.284 170.009 188.507 165.51 190.058 162.401C187.773 161.664 185.652 161.01 183.531 160.273C183.351 163.431 182.581 166.392 182 169.5C179.716 180.954 174.28 188.164 164 188Z" fill="#E76969"/>
<path d="M160.767 188.089C162.005 188.32 163.262 188.43 164.52 188.417C174.8 188.58 180.185 181.053 182.307 169.599C182.933 166.498 183.315 163.352 183.449 160.191C169.742 155.691 158.401 151.764 149.182 148.246C147.55 151.355 146.326 155.855 145.673 162.154C144.368 175.163 148.611 185.962 160.767 188.089Z" fill="#E24444"/>
<path d="M346.544 405.138C343.7 402.78 340.25 401.277 336.59 400.802C335.191 400.54 333.771 400.403 332.348 400.393C330.465 400.337 328.587 400.614 326.8 401.211C321.425 402.823 316.869 406.001 313.5 410.5C315.662 408.381 317.74 407.059 320.5 406.5C323.225 406.009 325.775 406.009 328.5 406.5C340.412 408.545 345.075 416.837 345.075 428.7C345.075 436.963 344.341 442.609 343.117 446.617L347.442 447.272L349.563 447.599C349.481 446.781 349.4 445.881 349.318 444.981C348.421 434.264 347.442 420.928 346.544 405.138Z" fill="#E76969"/>
<path d="M328.676 406.369C325.951 405.878 323.161 405.878 320.436 406.369C317.675 406.928 315.195 408.432 313.419 410.623C313.174 410.869 313.011 411.196 312.766 411.442C312.533 411.875 312.26 412.286 311.951 412.669C310.156 415.859 309.177 420.032 308.605 424.614C307.979 429.524 307.843 434.484 308.197 439.422C308.212 439.754 308.267 440.084 308.361 440.404C311.951 441.14 315.459 441.794 318.804 442.367C327.697 444.003 335.856 445.394 343.117 446.54C344.341 442.613 345.075 436.886 345.075 428.622C345.157 416.923 340.67 408.414 328.676 406.369Z" fill="#E24444"/>
<path d="M308.687 424.693C309.176 420.111 310.155 415.938 312.032 412.748C312.275 412.32 312.548 411.91 312.848 411.521C313.05 411.236 313.268 410.963 313.5 410.702C313.263 410.959 313.045 411.232 312.848 411.521C311.706 402.112 306.973 395.567 296.612 393.849C294.888 393.55 293.139 393.413 291.39 393.44C286.087 393.44 279.233 396.303 273.522 403.585C275.296 401.446 277.784 401.063 280.5 400.5C283.225 400.009 285.775 399.509 288.5 400C300.412 402.045 304.5 409.637 304.5 421.5C304.5 429.518 304 435.5 303.302 439.419L307.545 440.237L308.524 440.401C308.442 440.073 308.442 439.746 308.36 439.419C307.939 434.513 308.048 429.575 308.687 424.693Z" fill="#E76969"/>
<path d="M288.617 399.414C285.892 398.923 283.102 398.923 280.377 399.414C277.668 399.997 275.229 401.464 273.442 403.587C273.278 403.832 273.115 403.996 272.952 404.241C272.787 404.44 272.65 404.66 272.544 404.896C270.341 408.25 269.199 412.75 268.628 417.822C268.155 421.785 267.964 425.777 268.057 429.767C268.057 430.421 268.138 431.076 268.138 431.73C271.483 432.549 274.747 433.367 277.929 434.021C286.659 436.067 295.144 437.866 303.14 439.421C304.364 435.494 305.016 429.849 305.016 421.749C305.098 409.968 300.61 401.459 288.617 399.414Z" fill="#E24444"/>
<path d="M269 418C269.571 412.928 270.5 408.5 272.5 405C272.665 404.801 272.845 404.394 272.951 404.158C273.134 403.955 273.298 403.736 273.441 403.503C273.258 403.706 273.095 403.925 272.951 404.158C272.462 393.359 267.811 385.668 256.552 383.786C254.773 383.488 252.971 383.351 251.167 383.377C246.109 383.541 239.548 386.455 234 393C235.729 391.148 238.03 390.047 240.5 389.5C243.225 389.009 245.775 389.009 248.5 389.5C260.412 391.545 264.5 400 265.037 411.603C264.5 420 264.221 426.248 262.834 430.175L266.18 430.993C266.832 431.156 267.485 431.32 268.219 431.484C268.151 430.831 268.124 430.176 268.138 429.52C267.978 425.586 268.515 421.907 269 418Z" fill="#E76969"/>
<path d="M248.556 389.434C245.831 388.943 243.04 388.943 240.315 389.434C237.833 389.947 235.576 391.235 233.87 393.115C233.527 393.46 233.253 393.583 233 393.999C232.802 394.313 232.237 394.714 232 394.999C229.879 398.353 229.138 402.933 228.567 407.842C228.09 411.558 227.899 415.305 227.996 419.05C227.996 419.786 228.077 420.441 228.077 421.095L231.912 422.241C233.87 422.814 235.91 423.386 237.868 423.959C246.353 426.332 254.675 428.54 262.915 430.586C264.302 426.577 265.118 420.768 265.118 412.014C265.037 399.988 260.549 391.479 248.556 389.434Z" fill="#E24444"/>
<path d="M228.566 407.757C229.138 402.848 230.198 398.43 232.319 395.076C232.564 394.748 232.727 394.503 232.972 394.176C233.246 393.774 232.944 394.214 232.944 394.214C232.944 394.214 233.247 393.72 232.972 394.094C232.646 382.885 228.077 374.95 216.491 372.904C214.9 372.643 213.29 372.506 211.678 372.495C206.619 372.495 198.5 376 193.5 383C195.5 381.5 198.03 379.547 200.5 379C203.225 378.509 205.775 378.509 208.5 379C220.412 381.045 224.5 388.637 224.5 400.5C224.5 409.09 224.161 415.284 222.855 419.211L226.119 420.192L228.077 420.765C228.077 420.111 227.995 419.456 227.995 418.72C227.986 415.058 228.177 411.398 228.566 407.757Z" fill="#E76969"/>
<path d="M208.497 378.633C205.772 378.142 202.981 378.142 200.256 378.633C197.774 379.146 195.517 380.435 193.811 382.314C193.492 382.68 193.192 383.063 192.913 383.46C192.587 383.869 192.505 384.033 192.261 384.36C190.139 387.714 189.079 392.132 188.507 397.041C188.071 400.486 187.88 403.959 187.936 407.431V408.413C190.874 409.395 193.974 410.458 197.156 411.522C204.825 413.976 213.31 416.676 222.856 419.54C224.162 415.531 224.977 409.722 224.977 401.132C225.059 389.105 220.49 380.678 208.497 378.633Z" fill="#E24444"/>
<path d="M188.589 396.959C189.16 392.05 190.221 387.632 192.342 384.278C192.587 383.951 192.75 383.705 192.995 383.378C193.268 382.977 193.568 382.594 193.892 382.232C193.57 382.566 193.27 382.922 192.995 383.296C192.913 371.679 188.344 363.415 176.514 361.37C175.004 361.112 173.476 360.975 171.945 360.961H171.374C169.791 360.994 168.223 361.27 166.723 361.779C161.702 363.398 157 366.5 153.914 370.533C155.5 369 158.024 367.482 160.5 367C163.225 366.509 165.775 367.009 168.5 367.5C180.5 370 184 377 185 389C185 396.854 184.428 402.604 183.286 406.531C184.591 407.022 185.897 407.431 187.284 407.922L188.1 408.167V407.186C188.02 403.769 188.184 400.352 188.589 396.959Z" fill="#E76969"/>
<path d="M168.518 367.015C165.793 366.524 163.003 366.524 160.278 367.015C157.815 367.531 155.567 368.786 153.832 370.614C153.343 371.269 152.772 371.923 152.282 372.578C150.161 375.932 149.071 380.09 148.5 384.999C148.174 387.862 148.04 390.659 147.958 392.95C150.324 394.013 153.098 395.24 156.443 396.549C163.133 399.249 171.863 402.685 183.286 406.612C184.428 402.685 185.081 397.122 185.081 389.35C184.999 377.569 180.43 369.06 168.518 367.015Z" fill="#E24444"/>
<path d="M352.337 450.465L349.318 449.974C320.844 445.638 277.194 437.702 231.26 424.366C182.062 410.049 156.443 399.577 145.592 394.586L144.45 394.014L144.287 392.786C141.431 374.951 136.536 333.881 136.536 259.839C136.536 203.961 139.31 167.063 141.676 146.037L142.002 142.928L144.939 144.073C164.602 151.845 189.568 160.109 219.348 168.781C270.993 183.835 319.049 192.261 350.216 196.761L352.5 197.088L352.255 199.379C349.808 221.06 346.87 259.348 346.87 318.663C346.87 378.06 349.808 421.503 352.174 447.52L352.337 450.465ZM148.693 390.741C160.115 395.895 185.326 406.04 232.565 419.785C276.705 432.63 318.641 440.402 347.034 444.82C344.668 418.476 341.975 375.851 341.975 318.581C341.975 261.312 344.749 223.269 347.197 201.097C315.867 196.516 268.709 188.089 217.961 173.281C189.568 165.017 165.418 157.081 146.082 149.555C143.797 170.908 141.268 206.742 141.268 259.758C141.186 331.835 145.755 372.333 148.693 390.741Z" fill="#171C22"/>
<path d="M375.671 193.732C374.447 204.777 373.55 215.904 372.978 227.03C372.326 238.157 371.836 249.284 371.428 260.41C370.776 282.664 370.449 304.999 370.612 327.334C370.612 332.897 370.694 338.542 370.694 344.106L371.02 360.877C371.183 372.086 371.591 383.213 371.999 394.339C372.407 405.466 372.978 416.593 373.631 427.801C374.365 438.928 375.1 450.054 376.079 461.181C376.109 461.451 376.032 461.722 375.863 461.936C375.695 462.149 375.45 462.287 375.18 462.319C374.911 462.351 374.64 462.276 374.426 462.108C374.212 461.941 374.073 461.696 374.039 461.426C372.407 450.382 371.347 439.173 370.286 428.046C369.225 416.92 368.491 405.711 367.838 394.585C366.533 372.25 365.88 349.833 365.799 327.498C365.717 316.289 365.799 305.162 365.962 293.954C366.043 288.391 366.207 282.745 366.37 277.182C366.533 271.619 366.778 265.974 367.022 260.41C367.594 249.202 368.246 238.075 369.225 226.867C369.715 221.304 370.286 215.74 370.939 210.177L371.918 201.832C372.244 199.05 372.734 196.269 373.142 193.487C373.193 193.165 373.365 192.875 373.623 192.677C373.881 192.479 374.205 192.388 374.529 192.423C374.697 192.409 374.866 192.434 375.023 192.498C375.179 192.561 375.319 192.66 375.43 192.788C375.541 192.915 375.621 193.067 375.663 193.231C375.705 193.395 375.707 193.567 375.671 193.732Z" fill="#171C22"/>
<path d="M135.23 115.114C144.287 119.041 153.425 122.559 162.726 125.75C171.945 129.104 181.328 132.131 190.71 135.076C200.093 138.022 209.557 140.885 219.021 143.667C228.486 146.367 237.95 149.066 247.414 151.603C266.424 156.593 285.679 161.011 304.934 165.02C314.561 166.984 324.27 168.865 333.979 170.583C343.688 172.383 353.397 174.02 363.106 175.574C363.241 175.589 363.371 175.631 363.49 175.697C363.608 175.763 363.713 175.852 363.797 175.958C363.881 176.065 363.943 176.187 363.98 176.318C364.017 176.449 364.027 176.585 364.011 176.72C363.995 176.855 363.952 176.986 363.886 177.104C363.819 177.222 363.73 177.326 363.623 177.41C363.516 177.493 363.394 177.555 363.263 177.591C363.133 177.627 362.996 177.637 362.862 177.619C353.071 176.638 343.28 175.247 333.49 173.856C323.699 172.465 313.99 170.747 304.281 168.947C284.863 165.429 265.527 161.093 246.354 156.184C227.18 151.112 208.225 145.439 189.487 139.167C180.104 135.976 170.803 132.704 161.583 129.104C156.933 127.304 152.364 125.422 147.795 123.459C143.226 121.495 138.739 119.45 134.251 117.241C134.103 117.176 133.969 117.081 133.858 116.962C133.748 116.842 133.663 116.701 133.61 116.548C133.556 116.394 133.535 116.231 133.547 116.069C133.559 115.907 133.604 115.749 133.68 115.605C133.739 115.461 133.829 115.332 133.943 115.227C134.058 115.122 134.193 115.043 134.341 114.997C134.489 114.95 134.645 114.936 134.799 114.956C134.952 114.977 135.1 115.03 135.23 115.114Z" fill="#171C22"/>
<path d="M493.648 255.911C492.681 258.67 491.998 261.521 491.608 264.42C492.505 264.583 493.403 264.665 494.3 264.829C496.83 265.156 499.44 265.319 502.133 265.401C499.659 267.182 497.07 268.794 494.382 270.228C493.403 270.801 492.342 271.292 491.2 271.865C491.275 276.341 492.018 280.781 493.403 285.037C495.769 292.072 499.767 297.799 504.744 301.154C507.237 294.252 508.775 287.04 509.313 279.719C510.536 264.092 507.926 251.493 503.193 241.512C499.114 244.866 495.769 249.938 493.648 255.911Z" fill="#171C22"/>
<path d="M493.484 285.04C492.105 280.783 491.363 276.344 491.281 271.868C486.092 274.469 480.615 276.447 474.963 277.759C476.269 289.949 480.838 300.83 487.528 309.012C490.034 312.085 492.911 314.833 496.095 317.193C499.804 312.356 502.748 306.975 504.824 301.239C499.766 297.885 495.768 292.158 493.484 285.04Z" fill="#62C370"/>
<path d="M487.121 232.512C486.468 233.33 485.815 234.23 485.163 235.13C486.794 236.767 488.589 238.648 490.221 240.53C491.236 241.715 492.164 242.973 492.995 244.293C492.995 244.293 492.424 244.13 491.2 243.802C487.763 243.094 484.266 242.71 480.757 242.657C478.057 248.266 476.214 254.251 475.291 260.411C480.624 262.245 486.113 263.587 491.69 264.42C492.089 261.523 492.772 258.673 493.729 255.911C495.55 250.332 498.849 245.354 503.275 241.512C500.693 235.963 497.22 230.878 492.995 226.458C490.875 228.311 488.91 230.336 487.121 232.512Z" fill="#62C370"/>
<path d="M487.447 309.01C480.757 300.829 476.188 289.948 474.882 277.758C480.538 276.459 486.016 274.481 491.2 271.867C492.342 271.294 493.403 270.722 494.382 270.231C497.076 268.808 499.666 267.195 502.133 265.404C499.44 265.322 496.829 265.158 494.3 264.831C493.396 264.741 492.498 264.604 491.608 264.422C486.042 263.532 480.558 262.191 475.209 260.413C476.148 254.247 478.019 248.261 480.757 242.66C484.266 242.713 487.762 243.096 491.2 243.805C491.808 243.928 492.408 244.092 492.995 244.296C492.17 242.97 491.243 241.712 490.221 240.532C488.589 238.651 486.794 236.769 485.162 235.133C485.815 234.233 486.468 233.415 487.12 232.515C488.853 230.341 490.764 228.316 492.832 226.461C487.326 220.631 480.615 216.079 473.169 213.125C469.88 211.793 466.418 210.938 462.889 210.589C444.939 208.871 427.724 236.115 424.379 271.54C421.034 306.965 432.946 336.909 450.895 338.627C456.371 339.011 461.871 338.401 467.131 336.827C478.582 333.547 488.679 326.664 495.932 317.192C492.793 314.809 489.945 312.062 487.447 309.01Z" fill="#ECECEC"/>
<path d="M450.977 338.625C433.027 336.907 421.116 306.882 424.461 271.538C427.806 236.195 445.021 208.869 462.97 210.587C466.493 210.976 469.95 211.829 473.25 213.123C465.663 206.251 457.504 202.733 451.14 202.16C434.088 200.524 417.199 231.695 413.528 271.62C409.856 311.545 420.544 345.252 437.596 346.888C445.266 347.625 456.688 344.925 467.213 336.744C461.958 338.344 456.458 338.981 450.977 338.625Z" fill="#171C22"/>
</svg>
