<svg width="572" height="188" viewBox="0 0 572 188" fill="none" xmlns="http://www.w3.org/2000/svg">
<path d="M41 177.52C3.50003 141.52 0 0.520386 0 0.520386L479 10L571.5 141.02C571.5 141.02 78.5 213.52 41 177.52Z" fill="#171C22"/>
<path d="M64.8403 89.9222L57.7155 90.5455L55.515 65.3936L62.6398 64.7703L64.8403 89.9222ZM62.6734 57.4435C62.7877 58.7505 62.448 59.8242 61.6542 60.6645C60.8895 61.4703 59.9334 61.9233 58.7858 62.0237C57.6382 62.1241 56.6019 61.8454 55.6771 61.1875C54.7813 60.4949 54.2762 59.4951 54.1619 58.1881C54.0475 56.8811 54.3727 55.8248 55.1374 55.019C55.9312 54.1787 56.9019 53.7083 58.0495 53.6079C59.1971 53.5075 60.2188 53.8035 61.1146 54.4961C62.0394 55.154 62.559 56.1365 62.6734 57.4435ZM92.2013 82.5173C92.9026 82.456 93.5707 82.3815 94.2055 82.2938C94.8402 82.2062 95.3461 82.1137 95.7231 82.0165L95.2503 76.6131C94.9579 76.5745 94.5219 76.5484 93.9425 76.5348C93.3631 76.5213 92.8344 76.5354 92.3562 76.5772C91.6868 76.6358 91.0534 76.7394 90.456 76.888C89.8878 77.002 89.3903 77.1901 88.9635 77.4523C88.5368 77.7145 88.2126 78.048 87.9911 78.4528C87.7695 78.8577 87.6838 79.347 87.734 79.9208C87.8316 81.0366 88.2666 81.7855 89.0388 82.1676C89.8401 82.5151 90.8943 82.6317 92.2013 82.5173ZM89.8035 61.7192C91.9075 61.5351 93.6817 61.6208 95.1262 61.9763C96.5707 62.3317 97.7464 62.9195 98.6533 63.7396C99.5921 64.5569 100.293 65.5877 100.755 66.8322C101.217 68.0766 101.516 69.4799 101.653 71.0419L102.95 85.8653C101.949 86.1777 100.553 86.5568 98.7612 87.0027C96.972 87.4804 94.7864 87.8323 92.2042 88.0582C90.5785 88.2004 89.0836 88.1866 87.7196 88.0169C86.3875 87.8443 85.2154 87.4811 84.2032 86.9272C83.1883 86.3414 82.3798 85.5449 81.7777 84.5375C81.1756 83.5302 80.8077 82.2614 80.6738 80.7312C80.5455 79.2648 80.7236 77.9965 81.2082 76.9262C81.7246 75.8531 82.4505 74.9705 83.3857 74.2783C84.3209 73.5862 85.415 73.0568 86.6678 72.6902C87.9178 72.2918 89.2282 72.0326 90.599 71.9126C91.5234 71.8318 92.3405 71.8085 93.0502 71.8427C93.789 71.8424 94.3871 71.8864 94.8445 71.9749L94.786 71.3054C94.68 70.094 94.2283 69.1538 93.431 68.4848C92.6336 67.8157 91.3264 67.5607 89.5094 67.7197C88.298 67.8256 87.1109 68.0259 85.9482 68.3203C84.7826 68.5829 83.7834 68.9112 82.9506 69.3053L81.5401 63.6467C81.9433 63.483 82.4422 63.3108 83.0368 63.1303C83.6604 62.9151 84.3346 62.7277 85.0594 62.5679C85.7815 62.3762 86.5382 62.2137 87.3296 62.0802C88.15 61.912 88.9747 61.7917 89.8035 61.7192ZM122.107 71.4688C121.907 69.1736 121.462 67.5743 120.772 66.6709C120.115 65.7648 119.069 65.3745 117.634 65.5C117.188 65.539 116.728 65.6113 116.256 65.7169C115.78 65.7906 115.322 65.8789 114.882 65.9817L116.58 85.3955L109.455 86.0189L107.33 61.7277C107.922 61.5153 108.609 61.2945 109.392 61.0654C110.204 60.8016 111.051 60.5669 111.933 60.3613C112.843 60.1211 113.774 59.9272 114.725 59.7798C115.673 59.6005 116.609 59.4704 117.533 59.3895C119.35 59.2305 120.838 59.3413 121.995 59.7219C123.182 60.0678 124.17 60.5274 124.959 61.1009C125.915 60.2784 127.028 59.6028 128.299 59.074C129.601 58.5425 130.811 58.2279 131.926 58.1303C133.935 57.9546 135.601 58.0979 136.927 58.5601C138.281 58.9877 139.386 59.6781 140.24 60.6312C141.094 61.5844 141.726 62.7497 142.136 64.1273C142.545 65.5048 142.826 67.0543 142.976 68.7757L144.219 82.9775L137.094 83.6008L135.927 70.2598C135.726 67.9646 135.281 66.3653 134.591 65.4619C133.934 64.5558 132.888 64.1654 131.453 64.2909C131.071 64.3244 130.537 64.4675 129.853 64.7201C129.2 64.9699 128.663 65.2578 128.242 65.5838C128.529 66.2974 128.741 67.0659 128.877 67.8892C129.011 68.6805 129.118 69.5385 129.199 70.4629L130.399 84.1865L123.275 84.8099L122.107 71.4688ZM171.194 74.8837C172.246 74.7916 173.099 74.6366 173.755 74.4187C174.44 74.166 174.976 73.8781 175.366 73.555C175.752 73.1999 176.007 72.8082 176.13 72.3799C176.253 71.9515 176.293 71.4823 176.248 70.9723C176.153 69.8884 175.565 69.0404 174.484 68.4284C173.399 67.7844 171.578 67.1568 169.019 66.5455C167.901 66.2578 166.78 65.9222 165.654 65.5389C164.526 65.1237 163.499 64.5871 162.574 63.9292C161.647 63.2394 160.866 62.3923 160.232 61.3877C159.595 60.3513 159.21 59.068 159.076 57.5378C158.942 56.0076 159.109 54.6118 159.577 53.3502C160.042 52.0567 160.763 50.9336 161.739 49.9809C162.716 49.0282 163.934 48.2631 165.393 47.6857C166.85 47.0765 168.518 46.6896 170.399 46.525C172.631 46.3298 174.58 46.4001 176.248 46.7361C177.915 47.072 179.3 47.4808 180.402 47.9626L178.765 54.0324C177.799 53.6351 176.727 53.3113 175.548 53.0611C174.399 52.7762 173.028 52.7034 171.434 52.8429C169.648 52.9991 168.38 53.367 167.627 53.9468C166.904 54.4919 166.587 55.2745 166.676 56.2946C166.729 56.9003 166.917 57.3978 167.241 57.7871C167.564 58.1765 167.996 58.5241 168.536 58.8302C169.106 59.1015 169.738 59.3514 170.433 59.5797C171.157 59.7734 171.945 59.9774 172.799 60.1918C174.577 60.6788 176.131 61.1853 177.462 61.7113C178.79 62.2054 179.904 62.8306 180.806 63.5869C181.739 64.3405 182.462 65.257 182.974 66.3364C183.486 67.4159 183.811 68.7526 183.951 70.3465C184.221 73.4387 183.348 75.9404 181.331 77.8514C179.311 79.7306 176.117 80.8613 171.75 81.2434C170.284 81.3717 168.952 81.3918 167.756 81.3037C166.563 81.2475 165.493 81.1323 164.546 80.9582C163.631 80.7812 162.826 80.5786 162.132 80.3503C161.469 80.1191 160.903 79.8956 160.435 79.6796L162.02 73.5662C163.056 74.0217 164.31 74.4098 165.784 74.7306C167.286 75.0167 169.09 75.0677 171.194 74.8837ZM187.019 47.5764L194.044 45.8055L194.692 53.2172L203.252 52.4683L203.77 58.3977L195.211 59.1465L195.985 67.9927C196.116 69.491 196.476 70.6641 197.064 71.5121C197.684 72.3573 198.791 72.7101 200.385 72.5707C201.15 72.5038 201.925 72.3717 202.711 72.1744C203.526 71.9425 204.257 71.6698 204.904 71.3562L206.393 76.8151C205.563 77.2411 204.634 77.6276 203.604 77.9747C202.574 78.3217 201.294 78.5622 199.764 78.6961C197.82 78.8662 196.187 78.752 194.868 78.3535C193.545 77.9232 192.461 77.2792 191.615 76.4217C190.766 75.5323 190.124 74.4321 189.688 73.1211C189.284 71.8073 189.011 70.3375 188.869 68.7117L187.019 47.5764ZM208.041 64.9143C207.846 62.6828 208.011 60.7089 208.535 58.9927C209.088 57.2418 209.874 55.7597 210.892 54.5463C211.911 53.3329 213.112 52.3766 214.496 51.6773C215.912 50.9752 217.385 50.5572 218.916 50.4233C222.486 50.111 225.403 50.964 227.668 52.9823C229.93 54.9687 231.246 58.0818 231.617 62.3216C231.653 62.736 231.678 63.1997 231.69 63.7125C231.7 64.1935 231.706 64.6266 231.708 65.0119L215.545 66.426C215.833 67.8784 216.62 68.982 217.907 69.7367C219.194 70.4915 220.857 70.7796 222.897 70.6011C224.204 70.4867 225.47 70.2636 226.693 69.9317C227.946 69.5651 228.956 69.1716 229.722 68.7512L231.185 74.4535C230.819 74.6782 230.326 74.9141 229.705 75.1611C229.084 75.4082 228.381 75.6303 227.595 75.8276C226.844 76.0539 226.026 76.2539 225.142 76.4277C224.257 76.6014 223.369 76.7273 222.476 76.8054C220.213 77.0034 218.207 76.8416 216.459 76.32C214.743 75.7956 213.277 75.0083 212.061 73.9583C210.874 72.8737 209.939 71.5581 209.258 70.0116C208.609 68.4623 208.203 66.7632 208.041 64.9143ZM224.539 60.7244C224.454 60.1216 224.291 59.5416 224.049 58.9845C223.84 58.4246 223.524 57.9383 223.102 57.5255C222.713 57.1098 222.218 56.7837 221.62 56.547C221.053 56.3075 220.355 56.224 219.526 56.2965C218.729 56.3662 218.056 56.5696 217.507 56.9068C216.956 57.212 216.508 57.6045 216.165 58.0842C215.821 58.564 215.564 59.1165 215.394 59.7417C215.253 60.3322 215.161 60.9345 215.119 61.5486L224.539 60.7244ZM253.276 60.9568C253.083 58.7572 252.436 57.0471 251.333 55.8265C250.228 54.5741 248.703 54.033 246.758 54.2031C246.121 54.2589 245.534 54.3423 244.997 54.4535C244.458 54.5328 244.016 54.6197 243.671 54.7141L244.796 67.577C245.268 67.8248 245.862 68.0137 246.581 68.1436C247.33 68.2707 248.072 68.3022 248.805 68.2381C252.184 67.9424 253.674 65.5153 253.276 60.9568ZM260.527 60.1296C260.697 62.0742 260.613 63.8643 260.274 65.5001C259.936 67.1358 259.354 68.5679 258.53 69.7964C257.706 71.0249 256.636 72.0179 255.321 72.7754C254.006 73.5329 252.456 73.9897 250.671 74.1459C249.683 74.2324 248.75 74.2176 247.873 74.1017C246.995 73.9857 246.143 73.7872 245.315 73.5063L246.143 82.9741L239.019 83.5975L236.119 50.4601C236.74 50.213 237.458 49.9735 238.273 49.7416C239.085 49.4778 239.932 49.2432 240.813 49.0375C241.727 48.8292 242.643 48.6526 243.562 48.508C244.51 48.3287 245.414 48.2014 246.275 48.1261C248.347 47.9448 250.224 48.1018 251.905 48.5972C253.584 49.0606 255.031 49.8173 256.248 50.8673C257.461 51.8855 258.426 53.1823 259.142 54.7579C259.89 56.3307 260.351 58.1213 260.527 60.1296ZM267.103 72.2265L263.957 36.2678L270.982 34.4969L272.036 46.5469C272.5 46.3456 273.093 46.1492 273.815 45.9575C274.566 45.7312 275.293 45.5874 275.994 45.526C278.034 45.3475 279.749 45.4866 281.138 45.9433C282.556 46.3653 283.708 47.0515 284.594 48.0018C285.513 48.9494 286.192 50.1106 286.634 51.4854C287.107 52.8573 287.419 54.404 287.57 56.1254L288.812 70.3272L281.687 70.9505L280.52 57.6095C280.32 55.3142 279.874 53.715 279.185 52.8116C278.528 51.9055 277.402 51.5221 275.808 51.6616C275.17 51.7173 274.57 51.8341 274.008 52.0118C273.474 52.1548 272.99 52.3096 272.555 52.4762L274.228 71.6031L267.103 72.2265ZM304.437 63.9491C305.139 63.8877 305.807 63.8132 306.442 63.7256C307.076 63.6379 307.582 63.5455 307.959 63.4482L307.486 58.0449C307.194 58.0062 306.758 57.9801 306.179 57.9666C305.599 57.953 305.071 57.9672 304.592 58.009C303.923 58.0676 303.29 58.1712 302.692 58.3198C302.124 58.4337 301.626 58.6218 301.2 58.884C300.773 59.1462 300.449 59.4797 300.227 59.8846C300.006 60.2894 299.92 60.7787 299.97 61.3526C300.068 62.4683 300.503 63.2172 301.275 63.5994C302.076 63.9469 303.13 64.0634 304.437 63.9491ZM302.04 43.1509C304.144 42.9669 305.918 43.0525 307.362 43.408C308.807 43.7635 309.983 44.3512 310.889 45.1713C311.828 45.9886 312.529 47.0195 312.991 48.2639C313.453 49.5084 313.753 50.9116 313.889 52.4736L315.186 67.297C314.186 67.6094 312.789 67.9885 310.997 68.4344C309.208 68.9122 307.023 69.264 304.44 69.4899C302.815 69.6322 301.32 69.6184 299.956 69.4486C298.624 69.2761 297.452 68.9128 296.439 68.3589C295.424 67.7732 294.616 66.9766 294.014 65.9693C293.412 64.9619 293.044 63.6931 292.91 62.163C292.782 60.6966 292.96 59.4282 293.444 58.3579C293.961 57.2848 294.687 56.4022 295.622 55.7101C296.557 55.0179 297.651 54.4886 298.904 54.122C300.154 53.7235 301.464 53.4643 302.835 53.3444C303.76 53.2635 304.577 53.2402 305.286 53.2745C306.025 53.2741 306.623 53.3181 307.081 53.4066L307.022 52.7372C306.916 51.5258 306.464 50.5856 305.667 49.9165C304.87 49.2475 303.563 48.9924 301.746 49.1514C300.534 49.2574 299.347 49.4576 298.184 49.7521C297.019 50.0146 296.02 50.343 295.187 50.7371L293.776 45.0785C294.179 44.9147 294.678 44.7426 295.273 44.5621C295.897 44.3469 296.571 44.1594 297.296 43.9996C298.018 43.808 298.774 43.6454 299.566 43.5119C300.386 43.3438 301.211 43.2234 302.04 43.1509ZM319.566 43.1594C320.747 42.7028 322.281 42.2473 324.169 41.7931C326.054 41.307 328.048 40.9719 330.152 40.7878C332.288 40.6009 334.082 40.733 335.535 41.1841C337.017 41.6006 338.217 42.2826 339.135 43.2302C340.053 44.1777 340.749 45.3375 341.222 46.7095C341.696 48.0815 342.008 49.6281 342.158 51.3496L343.401 65.5513L336.276 66.1747L335.109 52.8336C334.908 50.5384 334.463 48.9391 333.773 48.0357C333.084 47.1324 331.911 46.7532 330.253 46.8982C329.743 46.9429 329.204 47.0222 328.635 47.1361C328.064 47.2182 327.559 47.3106 327.118 47.4134L328.816 66.8273L321.692 67.4506L319.566 43.1594ZM356.5 60.5987C356.626 62.0333 356.26 63.1735 355.402 64.0195C354.574 64.8308 353.586 65.2866 352.438 65.387C351.291 65.4874 350.223 65.2115 349.234 64.5591C348.274 63.8721 347.732 62.8114 347.606 61.3769C347.481 59.9424 347.832 58.8195 348.661 58.0082C349.518 57.1622 350.521 56.689 351.669 56.5886C352.816 56.4882 353.87 56.7815 354.829 57.4685C355.818 58.1208 356.375 59.1642 356.5 60.5987ZM368.268 59.5692C368.394 61.0037 368.028 62.144 367.17 62.9899C366.342 63.8012 365.353 64.2571 364.206 64.3575C363.058 64.4579 361.99 64.1819 361.002 63.5296C360.042 62.8426 359.499 61.7819 359.374 60.3473C359.248 58.9128 359.6 57.7899 360.428 56.9786C361.286 56.1327 362.289 55.6595 363.436 55.5591C364.584 55.4587 365.637 55.752 366.597 56.439C367.585 57.0913 368.143 58.1347 368.268 59.5692ZM380.036 58.5397C380.161 59.9742 379.795 61.1145 378.938 61.9604C378.109 62.7717 377.121 63.2276 375.973 63.328C374.826 63.4284 373.758 63.1524 372.769 62.5001C371.81 61.8131 371.267 60.7523 371.142 59.3178C371.016 57.8833 371.368 56.7604 372.196 55.9491C373.053 55.1031 374.056 54.63 375.204 54.5296C376.351 54.4292 377.405 54.7225 378.364 55.4094C379.353 56.0618 379.91 57.1052 380.036 58.5397ZM71.5269 138.813C72.5789 138.721 73.4326 138.566 74.0881 138.348C74.7727 138.096 75.3097 137.808 75.699 137.485C76.0855 137.13 76.3404 136.738 76.4635 136.31C76.5866 135.881 76.6259 135.412 76.5813 134.902C76.4864 133.818 75.8983 132.97 74.8168 132.358C73.7326 131.714 71.9109 131.087 69.3519 130.475C68.2346 130.188 67.1131 129.852 65.9874 129.469C64.8589 129.053 63.8322 128.517 62.9074 127.859C61.9797 127.169 61.1989 126.322 60.565 125.318C59.9282 124.281 59.5429 122.998 59.409 121.468C59.2752 119.937 59.4421 118.542 59.91 117.28C60.375 115.987 61.0959 114.863 62.0725 113.911C63.0492 112.958 64.2672 112.193 65.7264 111.616C67.1828 111.006 68.8515 110.619 70.7323 110.455C72.9638 110.26 74.9133 110.33 76.5809 110.666C78.2486 111.002 79.6335 111.411 80.7356 111.892L79.0984 117.962C78.1321 117.565 77.0598 117.241 75.8815 116.991C74.7323 116.706 73.3608 116.633 71.7669 116.773C69.9817 116.929 68.7129 117.297 67.9606 117.877C67.2373 118.422 66.9203 119.204 67.0096 120.224C67.0626 120.83 67.2507 121.328 67.5738 121.717C67.897 122.106 68.3289 122.454 68.8697 122.76C69.4395 123.031 70.0717 123.281 70.7662 123.51C71.4898 123.703 72.2786 123.907 73.1326 124.122C74.9098 124.609 76.4638 125.115 77.7947 125.641C79.1228 126.135 80.2376 126.76 81.1389 127.517C82.0722 128.27 82.7948 129.187 83.3068 130.266C83.8188 131.346 84.1446 132.682 84.284 134.276C84.5546 137.369 83.6813 139.87 81.6642 141.781C79.6443 143.66 76.4506 144.791 72.0833 145.173C70.6169 145.301 69.2856 145.322 68.0894 145.233C66.8959 145.177 65.8258 145.062 64.8791 144.888C63.9642 144.711 63.1594 144.508 62.4649 144.28C61.8022 144.049 61.2366 143.825 60.768 143.609L62.3532 137.496C63.3888 137.951 64.6434 138.34 66.117 138.66C67.6197 138.947 69.423 138.998 71.5269 138.813ZM112.762 128.219C112.935 130.196 112.807 132.038 112.378 133.746C111.947 135.422 111.241 136.897 110.26 138.171C109.276 139.414 108.047 140.421 106.573 141.192C105.131 141.961 103.469 142.427 101.588 142.592C99.7392 142.754 98.0218 142.583 96.4358 142.079C94.8818 141.572 93.5126 140.793 92.3283 139.74C91.1413 138.655 90.1738 137.327 89.4259 135.754C88.6752 134.149 88.2133 132.359 88.0404 130.382C87.8675 128.406 88.0128 126.578 88.4762 124.899C88.9715 123.218 89.7109 121.756 90.6944 120.513C91.7097 119.268 92.9386 118.261 94.3811 117.492C95.8555 116.721 97.4853 116.257 99.2705 116.101C101.088 115.942 102.773 116.116 104.327 116.622C105.913 117.126 107.298 117.904 108.482 118.957C109.667 120.01 110.633 121.323 111.381 122.895C112.129 124.468 112.589 126.243 112.762 128.219ZM105.494 128.855C105.301 126.656 104.704 124.973 103.703 123.808C102.731 122.608 101.432 122.079 99.806 122.222C98.1802 122.364 96.9768 123.112 96.1957 124.465C95.4119 125.786 95.1162 127.547 95.3087 129.746C95.5011 131.946 96.1008 133.66 97.1077 134.889C98.1119 136.086 99.4268 136.613 101.053 136.471C102.678 136.329 103.866 135.583 104.615 134.232C105.393 132.847 105.686 131.055 105.494 128.855ZM127.042 102.3C128.38 102.183 129.62 102.219 130.761 102.408C131.899 102.566 132.782 102.745 133.41 102.947L132.521 108.759C131.859 108.528 131.139 108.382 130.363 108.322C129.616 108.226 128.924 108.207 128.286 108.262C127.425 108.338 126.703 108.529 126.12 108.837C125.566 109.111 125.131 109.47 124.817 109.915C124.534 110.357 124.338 110.872 124.229 111.46C124.152 112.045 124.143 112.672 124.201 113.342L124.31 114.585L133.108 113.815L133.627 119.745L124.829 120.514L126.51 139.737L119.386 140.36L117.068 113.869C116.783 110.618 117.466 107.956 119.116 105.885C120.797 103.81 123.439 102.615 127.042 102.3ZM136.571 107.2L143.595 105.429L144.244 112.841L152.803 112.092L153.322 118.021L144.762 118.77L145.536 127.616C145.668 129.115 146.027 130.288 146.615 131.136C147.235 131.981 148.342 132.334 149.936 132.194C150.701 132.128 151.477 131.995 152.262 131.798C153.077 131.566 153.808 131.294 154.456 130.98L155.945 136.439C155.115 136.865 154.185 137.251 153.155 137.598C152.126 137.946 150.846 138.186 149.316 138.32C147.371 138.49 145.739 138.376 144.419 137.977C143.097 137.547 142.012 136.903 141.166 136.045C140.318 135.156 139.675 134.056 139.239 132.745C138.835 131.431 138.562 129.961 138.42 128.335L136.571 107.2ZM175.311 120.916C174.885 123.395 174.41 125.861 173.886 128.316C173.394 130.769 172.855 133.241 172.27 135.733L166.724 136.219C166.033 134.93 165.272 133.39 164.44 131.6C163.609 129.81 162.732 127.863 161.809 125.759C160.916 123.621 159.98 121.374 159.003 119.018C158.055 116.628 157.122 114.22 156.203 111.795L163.71 111.138C164.066 112.263 164.447 113.499 164.854 114.844C165.29 116.155 165.73 117.514 166.174 118.921C166.65 120.325 167.128 121.744 167.607 123.18C168.115 124.581 168.619 125.934 169.118 127.24C169.41 125.801 169.683 124.331 169.937 122.832C170.223 121.329 170.48 119.861 170.708 118.428C170.965 116.96 171.196 115.558 171.4 114.223C171.634 112.854 171.828 111.584 171.983 110.414L177.147 109.962C177.502 111.088 177.898 112.306 178.334 113.617C178.767 114.896 179.222 116.237 179.698 117.641C180.171 119.013 180.663 120.416 181.174 121.849C181.685 123.281 182.209 124.681 182.746 126.047C183.012 124.675 183.273 123.255 183.53 121.787C183.784 120.287 184.008 118.806 184.201 117.344C184.426 115.878 184.624 114.464 184.793 113.1C184.992 111.701 185.169 110.417 185.324 109.247L192.735 108.598C192.252 111.146 191.735 113.681 191.184 116.203C190.663 118.689 190.132 121.065 189.591 123.329C189.08 125.558 188.554 127.627 188.014 129.538C187.507 131.445 187.025 133.093 186.568 134.483L181.021 134.968C180.012 132.615 179.021 130.276 178.046 127.952C177.072 125.628 176.16 123.283 175.311 120.916ZM207.479 127.642C208.18 127.581 208.848 127.506 209.483 127.418C210.118 127.331 210.624 127.238 211.001 127.141L210.528 121.738C210.236 121.699 209.8 121.673 209.22 121.659C208.641 121.646 208.112 121.66 207.634 121.702C206.965 121.76 206.331 121.864 205.734 122.013C205.166 122.127 204.668 122.315 204.241 122.577C203.815 122.839 203.49 123.173 203.269 123.577C203.047 123.982 202.962 124.472 203.012 125.045C203.109 126.161 203.544 126.91 204.317 127.292C205.118 127.64 206.172 127.756 207.479 127.642ZM205.081 106.844C207.185 106.66 208.959 106.745 210.404 107.101C211.848 107.456 213.024 108.044 213.931 108.864C214.87 109.681 215.57 110.712 216.033 111.957C216.495 113.201 216.794 114.604 216.931 116.166L218.228 130.99C217.227 131.302 215.831 131.681 214.039 132.127C212.25 132.605 210.064 132.957 207.482 133.183C205.856 133.325 204.361 133.311 202.997 133.141C201.665 132.969 200.493 132.606 199.481 132.052C198.466 131.466 197.658 130.669 197.056 129.662C196.453 128.655 196.085 127.386 195.952 125.856C195.823 124.389 196.001 123.121 196.486 122.051C197.002 120.978 197.728 120.095 198.663 119.403C199.599 118.711 200.693 118.181 201.946 117.815C203.196 117.416 204.506 117.157 205.877 117.037C206.801 116.956 207.618 116.933 208.328 116.967C209.067 116.967 209.665 117.011 210.122 117.099L210.064 116.43C209.958 115.219 209.506 114.278 208.709 113.609C207.911 112.94 206.604 112.685 204.787 112.844C203.576 112.95 202.389 113.15 201.226 113.445C200.06 113.707 199.061 114.036 198.228 114.43L196.818 108.771C197.221 108.608 197.72 108.435 198.315 108.255C198.938 108.04 199.612 107.852 200.337 107.692C201.059 107.501 201.816 107.338 202.607 107.205C203.428 107.037 204.252 106.916 205.081 106.844ZM238.243 110.977C237.591 110.874 236.828 110.78 235.954 110.696C235.076 110.58 234.143 110.565 233.155 110.651C232.709 110.691 232.171 110.786 231.542 110.937C230.942 111.054 230.487 111.174 230.176 111.298L231.858 130.52L224.733 131.143L222.65 107.33C223.886 106.773 225.348 106.227 227.036 105.694C228.753 105.126 230.679 104.749 232.815 104.562C233.198 104.528 233.663 104.52 234.21 104.536C234.755 104.521 235.302 104.537 235.853 104.585C236.4 104.602 236.951 104.65 237.504 104.73C238.054 104.778 238.527 104.865 238.924 104.991L238.243 110.977ZM242.16 117.139C241.965 114.908 242.13 112.934 242.654 111.218C243.207 109.467 243.993 107.985 245.011 106.771C246.03 105.558 247.231 104.602 248.615 103.902C250.031 103.2 251.504 102.782 253.035 102.648C256.605 102.336 259.522 103.189 261.787 105.207C264.049 107.194 265.365 110.307 265.736 114.547C265.772 114.961 265.797 115.425 265.809 115.938C265.819 116.419 265.825 116.852 265.827 117.237L249.665 118.651C249.952 120.103 250.739 121.207 252.026 121.962C253.313 122.717 254.976 123.005 257.016 122.826C258.323 122.712 259.589 122.489 260.812 122.157C262.065 121.79 263.075 121.397 263.841 120.976L265.304 126.679C264.938 126.903 264.445 127.139 263.824 127.386C263.203 127.633 262.5 127.855 261.714 128.053C260.963 128.279 260.145 128.479 259.261 128.653C258.377 128.826 257.488 128.952 256.596 129.03C254.332 129.228 252.326 129.067 250.578 128.545C248.862 128.021 247.396 127.233 246.18 126.183C244.993 125.099 244.058 123.783 243.377 122.237C242.728 120.687 242.322 118.988 242.16 117.139ZM258.658 112.95C258.573 112.347 258.41 111.767 258.168 111.21C257.959 110.65 257.643 110.163 257.222 109.751C256.832 109.335 256.338 109.009 255.739 108.772C255.172 108.533 254.474 108.449 253.645 108.522C252.848 108.591 252.175 108.795 251.626 109.132C251.075 109.437 250.627 109.83 250.284 110.309C249.94 110.789 249.684 111.342 249.513 111.967C249.372 112.557 249.28 113.16 249.238 113.774L258.658 112.95ZM291.257 119.204C291.611 119.205 292.012 119.202 292.461 119.195C292.939 119.153 293.497 119.104 294.135 119.049C297.865 118.722 300.54 117.541 302.16 115.504C303.813 113.464 304.494 110.786 304.204 107.471C303.9 103.996 302.809 101.442 300.932 99.8071C299.054 98.1725 296.25 97.5184 292.521 97.8447C292.011 97.8893 291.486 97.9513 290.947 98.0306C290.405 98.078 289.898 98.1545 289.425 98.2601L291.257 119.204ZM311.903 106.797C312.154 109.667 311.926 112.208 311.221 114.422C310.515 116.636 309.395 118.517 307.86 120.064C306.357 121.609 304.456 122.836 302.159 123.743C299.861 124.651 297.246 125.233 294.313 125.49C292.974 125.607 291.406 125.68 289.61 125.708C287.817 125.769 286.044 125.699 284.292 125.499L281.468 93.2224C283.161 92.753 284.928 92.3896 286.769 92.1322C288.639 91.8402 290.243 91.6356 291.582 91.5184C294.419 91.2702 297.013 91.3645 299.364 91.8013C301.747 92.2352 303.827 93.0651 305.605 94.2908C307.382 95.5165 308.811 97.1583 309.89 99.216C310.97 101.274 311.641 103.801 311.903 106.797ZM316.828 110.607C316.633 108.375 316.797 106.401 317.322 104.685C317.875 102.934 318.661 101.452 319.679 100.239C320.697 99.0254 321.899 98.0691 323.283 97.3698C324.699 96.6677 326.172 96.2497 327.703 96.1158C331.273 95.8034 334.19 96.6564 336.455 98.6747C338.717 100.661 340.033 103.774 340.404 108.014C340.44 108.429 340.465 108.892 340.477 109.405C340.487 109.886 340.493 110.319 340.495 110.704L324.332 112.118C324.62 113.571 325.407 114.674 326.694 115.429C327.981 116.184 329.644 116.472 331.684 116.294C332.991 116.179 334.257 115.956 335.48 115.624C336.733 115.258 337.743 114.864 338.509 114.444L339.972 120.146C339.606 120.371 339.112 120.607 338.492 120.854C337.871 121.101 337.167 121.323 336.382 121.52C335.631 121.746 334.813 121.946 333.929 122.12C333.044 122.294 332.156 122.42 331.263 122.498C329 122.696 326.994 122.534 325.246 122.012C323.53 121.488 322.064 120.701 320.848 119.651C319.661 118.566 318.726 117.251 318.045 115.704C317.395 114.155 316.99 112.456 316.828 110.607ZM333.326 106.417C333.241 105.814 333.078 105.234 332.836 104.677C332.627 104.117 332.311 103.631 331.889 103.218C331.5 102.802 331.005 102.476 330.407 102.239C329.839 102 329.142 101.916 328.313 101.989C327.516 102.059 326.843 102.262 326.294 102.599C325.743 102.904 325.295 103.297 324.952 103.777C324.608 104.256 324.351 104.809 324.181 105.434C324.04 106.025 323.948 106.627 323.906 107.241L333.326 106.417ZM353.87 119.846C351.965 116.8 349.981 113.215 347.918 109.091C345.886 104.965 343.901 100.449 341.962 95.5428L349.517 94.8818C349.945 96.0972 350.43 97.4199 350.973 98.8501C351.544 100.246 352.119 101.673 352.696 103.132C353.303 104.557 353.891 105.951 354.46 107.314C355.06 108.675 355.634 109.91 356.181 111.018C356.495 109.835 356.83 108.52 357.185 107.076C357.541 105.631 357.877 104.156 358.195 102.651C358.542 101.111 358.86 99.6055 359.149 98.1347C359.467 96.6293 359.731 95.241 359.941 93.9698L367.305 93.3256C366.248 98.4934 365.061 103.287 363.745 107.707C362.461 112.123 361.146 115.997 359.799 119.327L353.87 119.846ZM370.389 105.921C370.194 103.689 370.359 101.715 370.883 99.9992C371.436 98.2483 372.222 96.7661 373.24 95.5528C374.258 94.3394 375.46 93.3831 376.844 92.6838C378.26 91.9817 379.733 91.5637 381.264 91.4298C384.834 91.1175 387.751 91.9704 390.016 93.9887C392.278 95.9752 393.594 99.0883 393.965 103.328C394.001 103.743 394.026 104.206 394.038 104.719C394.048 105.2 394.054 105.633 394.056 106.018L377.893 107.432C378.181 108.885 378.968 109.988 380.255 110.743C381.542 111.498 383.205 111.786 385.245 111.608C386.552 111.493 387.818 111.27 389.041 110.938C390.294 110.572 391.304 110.178 392.07 109.758L393.533 115.46C393.167 115.685 392.673 115.921 392.053 116.168C391.432 116.415 390.729 116.637 389.943 116.834C389.192 117.06 388.374 117.26 387.49 117.434C386.605 117.608 385.717 117.734 384.824 117.812C382.561 118.01 380.555 117.848 378.807 117.326C377.091 116.802 375.625 116.015 374.409 114.965C373.222 113.88 372.287 112.565 371.606 111.018C370.957 109.469 370.551 107.77 370.389 105.921ZM386.887 101.731C386.802 101.128 386.639 100.548 386.397 99.991C386.188 99.4311 385.872 98.9448 385.45 98.5319C385.061 98.1163 384.566 97.7902 383.968 97.5535C383.401 97.314 382.703 97.2305 381.874 97.303C381.077 97.3727 380.404 97.5761 379.855 97.9132C379.304 98.2185 378.856 98.611 378.513 99.0907C378.169 99.5705 377.912 100.123 377.742 100.748C377.601 101.339 377.509 101.941 377.467 102.555L386.887 101.731ZM410.676 115.357C408.601 115.507 406.892 115.431 405.549 115.131C404.238 114.829 403.167 114.344 402.338 113.678C401.538 112.977 400.948 112.113 400.569 111.086C400.22 110.024 399.986 108.824 399.869 107.485L397.447 79.7991L404.471 78.0282L406.868 105.427C406.924 106.065 407.022 106.635 407.162 107.136C407.303 107.638 407.516 108.053 407.801 108.381C408.119 108.707 408.542 108.959 409.072 109.138C409.602 109.316 410.299 109.4 411.166 109.388L410.676 115.357ZM438.144 99.752C438.317 101.728 438.189 103.571 437.76 105.279C437.329 106.954 436.623 108.43 435.642 109.704C434.658 110.946 433.43 111.953 431.955 112.725C430.513 113.493 428.851 113.96 426.97 114.125C425.121 114.286 423.404 114.115 421.818 113.612C420.264 113.105 418.895 112.326 417.71 111.273C416.523 110.188 415.556 108.859 414.808 107.287C414.057 105.682 413.595 103.891 413.423 101.915C413.25 99.9384 413.395 98.1108 413.858 96.432C414.354 94.7505 415.093 93.2885 416.076 92.046C417.092 90.8008 418.321 89.7939 419.763 89.0252C421.238 88.2538 422.867 87.79 424.653 87.6338C426.47 87.4748 428.155 87.6486 429.709 88.155C431.295 88.6587 432.68 89.437 433.865 90.4898C435.049 91.5426 436.015 92.8554 436.763 94.4282C437.511 96.001 437.971 97.7756 438.144 99.752ZM430.876 100.388C430.683 98.1883 430.086 96.5059 429.085 95.3408C428.113 94.141 426.814 93.6122 425.188 93.7544C423.562 93.8966 422.359 94.6444 421.578 95.9976C420.794 97.3189 420.498 99.0794 420.691 101.279C420.883 103.479 421.483 105.193 422.49 106.422C423.494 107.619 424.809 108.146 426.435 108.004C428.061 107.862 429.248 107.115 429.997 105.765C430.775 104.38 431.068 102.588 430.876 100.388ZM459.799 98.0984C459.606 95.8988 458.959 94.1887 457.856 92.9682C456.751 91.7158 455.226 91.1746 453.281 91.3447C452.644 91.4005 452.057 91.484 451.52 91.5952C450.981 91.6745 450.539 91.7613 450.194 91.8558L451.319 104.719C451.791 104.966 452.385 105.155 453.104 105.285C453.853 105.412 454.595 105.444 455.328 105.38C458.707 105.084 460.197 102.657 459.799 98.0984ZM467.05 97.2713C467.22 99.2158 467.136 101.006 466.797 102.642C466.458 104.277 465.877 105.71 465.053 106.938C464.229 108.167 463.159 109.16 461.844 109.917C460.529 110.675 458.979 111.131 457.194 111.288C456.206 111.374 455.273 111.359 454.396 111.243C453.518 111.127 452.666 110.929 451.838 110.648L452.666 120.116L445.542 120.739L442.642 87.6017C443.263 87.3547 443.981 87.1152 444.796 86.8833C445.608 86.6195 446.455 86.3848 447.336 86.1792C448.25 85.9708 449.166 85.7943 450.085 85.6497C451.033 85.4704 451.937 85.3431 452.798 85.2678C454.87 85.0865 456.747 85.2435 458.428 85.7388C460.107 86.2023 461.554 86.959 462.771 88.009C463.984 89.0271 464.949 90.324 465.665 91.8996C466.413 93.4724 466.874 95.2629 467.05 97.2713ZM471.347 97.088C471.152 94.8566 471.317 92.8827 471.841 91.1665C472.395 89.4156 473.18 87.9334 474.198 86.7201C475.217 85.5067 476.418 84.5504 477.802 83.8511C479.218 83.149 480.691 82.731 482.222 82.5971C485.792 82.2848 488.709 83.1377 490.974 85.1561C493.236 87.1425 494.552 90.2556 494.923 94.4954C494.959 94.9098 494.984 95.3735 494.996 95.8863C495.006 96.3673 495.012 96.8004 495.014 97.1857L478.852 98.5998C479.139 100.052 479.926 101.156 481.213 101.911C482.5 102.665 484.163 102.953 486.203 102.775C487.51 102.661 488.776 102.437 490 102.105C491.252 101.739 492.262 101.345 493.028 100.925L494.491 106.627C494.125 106.852 493.632 107.088 493.011 107.335C492.39 107.582 491.687 107.804 490.901 108.001C490.15 108.228 489.332 108.428 488.448 108.601C487.564 108.775 486.675 108.901 485.783 108.979C483.519 109.177 481.513 109.015 479.765 108.494C478.049 107.969 476.583 107.182 475.367 106.132C474.18 105.047 473.246 103.732 472.564 102.185C471.915 100.636 471.509 98.937 471.347 97.088ZM487.845 92.8982C487.76 92.2953 487.597 91.7154 487.355 91.1583C487.146 90.5984 486.83 90.1121 486.409 89.6992C486.019 89.2836 485.525 88.9575 484.926 88.7208C484.359 88.4813 483.661 88.3978 482.832 88.4703C482.035 88.54 481.362 88.7434 480.813 89.0805C480.262 89.3858 479.814 89.7783 479.471 90.258C479.127 90.7378 478.871 91.2903 478.7 91.9155C478.559 92.506 478.467 93.1083 478.425 93.7224L487.845 92.8982ZM515.061 86.7589C514.409 86.6553 513.646 86.5614 512.771 86.4773C511.894 86.3614 510.961 86.3466 509.973 86.4331C509.527 86.4721 508.989 86.5673 508.36 86.7187C507.759 86.8355 507.304 86.9556 506.994 87.0792L508.676 106.302L501.551 106.925L499.467 83.112C500.703 82.5542 502.166 82.0087 503.853 81.4755C505.571 80.9077 507.497 80.5304 509.633 80.3435C510.015 80.3101 510.48 80.3015 511.028 80.3178C511.573 80.3023 512.12 80.3186 512.67 80.3669C513.218 80.3832 513.768 80.4314 514.321 80.5115C514.872 80.5598 515.345 80.6468 515.741 80.7727L515.061 86.7589Z" fill="#ECECEC"/>
</svg>
