<svg width="504" height="180" viewBox="0 0 504 180" fill="none" xmlns="http://www.w3.org/2000/svg">
<path d="M40.4998 179L0 22L504 0.5C504 0.5 458 155.907 413 169C368 182.093 40.4998 179 40.4998 179Z" fill="#171C22"/>
<path d="M59.2599 60.9623L66.7194 60.3096L69.6186 93.4471L62.1591 94.0997L59.2599 60.9623Z" fill="#FAFAFA"/>
<path d="M73.823 61.4228L80.8474 59.6518L81.4958 67.0635L90.0551 66.3147L90.5739 72.244L82.0145 72.9929L82.7885 81.8391C82.9196 83.3373 83.2792 84.5105 83.8673 85.3584C84.4873 86.2036 85.5943 86.5565 87.1882 86.417C87.9533 86.3501 88.7287 86.218 89.5145 86.0208C90.3294 85.7889 91.0604 85.5161 91.7076 85.2025L93.197 90.6615C92.367 91.0874 91.4371 91.4739 90.4075 91.821C89.3778 92.1681 88.0979 92.4085 86.5677 92.5424C84.6232 92.7125 82.991 92.5984 81.6712 92.1999C80.3487 91.7695 79.2644 91.1255 78.4185 90.268C77.5697 89.3786 76.9274 88.2784 76.4915 86.9674C76.0874 85.6536 75.8143 84.1838 75.6721 82.558L73.823 61.4228Z" fill="#FAFAFA"/>
<path d="M118.721 84.1401C119.422 84.0787 120.091 84.0042 120.725 83.9166C121.36 83.8289 121.866 83.7365 122.243 83.6392L121.77 78.2359C121.478 78.1972 121.042 78.1711 120.462 78.1576C119.883 78.144 119.354 78.1581 118.876 78.2C118.207 78.2585 117.573 78.3621 116.976 78.5108C116.408 78.6247 115.91 78.8128 115.483 79.075C115.057 79.3372 114.732 79.6707 114.511 80.0756C114.289 80.4804 114.204 80.9697 114.254 81.5436C114.351 82.6593 114.786 83.4082 115.559 83.7904C116.36 84.1379 117.414 84.2544 118.721 84.1401ZM116.323 63.3419C118.427 63.1578 120.202 63.2435 121.646 63.599C123.09 63.9545 124.266 64.5422 125.173 65.3623C126.112 66.1796 126.812 67.2105 127.275 68.4549C127.737 69.6994 128.036 71.1026 128.173 72.6646L129.47 87.488C128.469 87.8004 127.073 88.1795 125.281 88.6254C123.492 89.1032 121.306 89.455 118.724 89.6809C117.098 89.8231 115.603 89.8094 114.239 89.6396C112.907 89.4671 111.735 89.1038 110.723 88.5499C109.708 87.9642 108.9 87.1676 108.298 86.1602C107.695 85.1529 107.327 83.8841 107.194 82.354C107.065 80.8876 107.243 79.6192 107.728 78.5489C108.244 77.4758 108.97 76.5932 109.906 75.9011C110.841 75.2089 111.935 74.6796 113.188 74.313C114.438 73.9145 115.748 73.6553 117.119 73.5354C118.043 73.4545 118.86 73.4312 119.57 73.4655C120.309 73.4651 120.907 73.5091 121.364 73.5976L121.306 72.9281C121.2 71.7168 120.748 70.7766 119.951 70.1075C119.153 69.4385 117.846 69.1834 116.029 69.3424C114.818 69.4484 113.631 69.6486 112.468 69.9431C111.302 70.2056 110.303 70.534 109.47 70.9281L108.06 65.2695C108.463 65.1057 108.962 64.9336 109.557 64.7531C110.18 64.5379 110.854 64.3504 111.579 64.1906C112.301 63.999 113.058 63.8364 113.849 63.7029C114.67 63.5348 115.495 63.4144 116.323 63.3419Z" fill="#FAFAFA"/>
<path d="M146.059 87.2413C143.984 87.3907 142.275 87.3153 140.932 87.0153C139.62 86.7124 138.55 86.2278 137.721 85.5616C136.92 84.8606 136.331 83.9967 135.952 82.9699C135.602 81.9083 135.369 80.7081 135.251 79.3692L132.829 51.683L139.854 49.912L142.251 77.3114C142.307 77.9489 142.405 78.5185 142.545 79.0202C142.685 79.5219 142.898 79.9369 143.184 80.2653C143.501 80.5908 143.925 80.8429 144.455 81.0214C144.984 81.1999 145.682 81.2834 146.548 81.2719L146.059 87.2413Z" fill="#FAFAFA"/>
<path d="M161.188 85.9176C159.114 86.067 157.404 85.9917 156.061 85.6916C154.75 85.3887 153.68 84.9042 152.85 84.2379C152.05 83.537 151.461 82.6731 151.082 81.6462C150.732 80.5846 150.498 79.3844 150.381 78.0455L147.959 50.3593L154.983 48.5883L157.38 75.9877C157.436 76.6252 157.534 77.1949 157.675 77.6965C157.815 78.1982 158.028 78.6133 158.313 78.9416C158.631 79.2672 159.055 79.5192 159.584 79.6977C160.114 79.8762 160.812 79.9597 161.678 79.9482L161.188 85.9176Z" fill="#FAFAFA"/>
<path d="M184.495 78.2411C185.802 78.1267 186.715 77.9183 187.235 77.6159C187.754 77.3135 187.982 76.7956 187.918 76.0624C187.868 75.4886 187.474 75.0252 186.736 74.6721C185.996 74.2872 184.885 73.8865 183.403 73.4701C182.251 73.1533 181.193 72.8122 180.23 72.4468C179.298 72.0786 178.487 71.6195 177.796 71.0696C177.103 70.4878 176.543 69.7819 176.117 68.9519C175.691 68.1218 175.425 67.1011 175.319 65.8898C175.113 63.5308 175.827 61.5892 177.46 60.065C179.093 58.5409 181.44 57.6449 184.5 57.3772C186.031 57.2433 187.51 57.2585 188.937 57.4227C190.362 57.555 191.503 57.7443 192.36 57.9905L191.602 63.6461C190.748 63.4317 189.817 63.2562 188.809 63.1195C187.833 62.98 186.74 62.9633 185.528 63.0693C183.297 63.2645 182.236 63.9837 182.344 65.227C182.369 65.5139 182.44 65.7647 182.555 65.9795C182.67 66.1943 182.881 66.4007 183.187 66.5987C183.491 66.7649 183.893 66.9546 184.393 67.1678C184.923 67.3463 185.583 67.5456 186.373 67.7655C187.985 68.2027 189.326 68.6635 190.397 69.1481C191.464 69.6008 192.314 70.1367 192.947 70.756C193.608 71.3405 194.085 72.0216 194.378 72.799C194.703 73.5736 194.911 74.4869 195.003 75.5389C195.221 78.0254 194.445 79.9885 192.676 81.4282C190.938 82.8651 188.364 83.7327 184.953 84.0312C182.722 84.2264 180.84 84.1983 179.308 83.9468C177.808 83.6926 176.761 83.463 176.164 83.2582L176.854 77.3677C178.107 77.7399 179.384 78.0137 180.684 78.189C181.981 78.3325 183.252 78.3498 184.495 78.2411Z" fill="#FAFAFA"/>
<path d="M197.943 50.5637L204.967 48.7927L205.615 56.2044L214.175 55.4556L214.693 61.3849L206.134 62.1338L206.908 70.98C207.039 72.4783 207.399 73.6514 207.987 74.4994C208.607 75.3445 209.714 75.6974 211.308 75.558C212.073 75.491 212.848 75.3589 213.634 75.1617C214.449 74.9298 215.18 74.657 215.827 74.3435L217.317 79.8024C216.487 80.2284 215.557 80.6149 214.527 80.9619C213.497 81.309 212.218 81.5495 210.687 81.6833C208.743 81.8535 207.111 81.7393 205.791 81.3408C204.468 80.9104 203.384 80.2665 202.538 79.4089C201.689 78.5195 201.047 77.4193 200.611 76.1083C200.207 74.7945 199.934 73.3248 199.792 71.699L197.943 50.5637Z" fill="#FAFAFA"/>
<path d="M230.419 74.3677C231.121 74.3064 231.789 74.2319 232.424 74.1442C233.058 74.0566 233.564 73.9641 233.941 73.8669L233.468 68.4635C233.176 68.4249 232.74 68.3988 232.161 68.3852C231.581 68.3717 231.053 68.3858 230.574 68.4276C229.905 68.4862 229.272 68.5898 228.674 68.7384C228.106 68.8524 227.608 69.0405 227.182 69.3027C226.755 69.5649 226.431 69.8984 226.209 70.3032C225.988 70.7081 225.902 71.1974 225.952 71.7712C226.05 72.887 226.485 73.6359 227.257 74.018C228.058 74.3655 229.112 74.4821 230.419 74.3677ZM228.022 53.5696C230.126 53.3855 231.9 53.4712 233.344 53.8267C234.789 54.1821 235.965 54.7699 236.871 55.59C237.81 56.4072 238.511 57.4381 238.973 58.6826C239.435 59.927 239.735 61.3303 239.871 62.8923L241.168 77.7157C240.168 78.0281 238.771 78.4072 236.979 78.8531C235.19 79.3308 233.005 79.6827 230.422 79.9086C228.797 80.0508 227.302 80.037 225.938 79.8673C224.606 79.6947 223.434 79.3315 222.421 78.7776C221.406 78.1918 220.598 77.3953 219.996 76.3879C219.394 75.3805 219.026 74.1118 218.892 72.5816C218.764 71.1152 218.942 69.8469 219.426 68.7766C219.943 67.7035 220.669 66.8209 221.604 66.1287C222.539 65.4366 223.633 64.9072 224.886 64.5406C226.136 64.1422 227.446 63.883 228.817 63.763C229.742 63.6822 230.559 63.6589 231.268 63.6931C232.007 63.6927 232.605 63.7368 233.063 63.8253L233.004 63.1558C232.898 61.9444 232.446 61.0042 231.649 60.3352C230.852 59.6661 229.545 59.4111 227.728 59.5701C226.516 59.676 225.329 59.8763 224.166 60.1707C223.001 60.4333 222.002 60.7616 221.169 61.1557L219.758 55.4971C220.161 55.3334 220.66 55.1612 221.255 54.9807C221.879 54.7655 222.553 54.5781 223.278 54.4183C224 54.2266 224.756 54.0641 225.548 53.9306C226.368 53.7624 227.193 53.6421 228.022 53.5696Z" fill="#FAFAFA"/>
<path d="M261.183 57.7031C260.532 57.5995 259.769 57.5056 258.894 57.4215C258.017 57.3056 257.084 57.2908 256.096 57.3773C255.649 57.4163 255.112 57.5115 254.482 57.663C253.882 57.7797 253.427 57.8998 253.117 58.0234L254.798 77.2459L247.674 77.8693L245.59 54.0562C246.826 53.4984 248.288 52.9529 249.976 52.4197C251.693 51.8519 253.62 51.4746 255.756 51.2877C256.138 51.2543 256.603 51.2457 257.151 51.262C257.695 51.2465 258.243 51.2629 258.793 51.3111C259.341 51.3274 259.891 51.3756 260.444 51.4557C260.994 51.504 261.468 51.591 261.864 51.717L261.183 57.7031Z" fill="#FAFAFA"/>
<path d="M264.859 44.7093L271.883 42.9383L272.532 50.35L281.091 49.6012L281.61 55.5305L273.05 56.2794L273.824 65.1256C273.955 66.6239 274.315 67.797 274.903 68.645C275.523 69.4901 276.63 69.843 278.224 69.7035C278.989 69.6366 279.765 69.5045 280.55 69.3073C281.365 69.0754 282.096 68.8026 282.743 68.489L284.233 73.948C283.403 74.374 282.473 74.7605 281.443 75.1075C280.414 75.4546 279.134 75.6951 277.604 75.8289C275.659 75.9991 274.027 75.8849 272.707 75.4864C271.385 75.056 270.3 74.4121 269.454 73.5545C268.606 72.6651 267.963 71.5649 267.527 70.2539C267.123 68.9401 266.85 67.4703 266.708 65.8446L264.859 44.7093Z" fill="#FAFAFA"/>
<path d="M285.881 62.0471C285.685 59.8156 285.85 57.8418 286.374 56.1255C286.928 54.3746 287.714 52.8925 288.732 51.6792C289.75 50.4658 290.951 49.5095 292.335 48.8102C293.752 48.1081 295.225 47.6901 296.755 47.5562C300.325 47.2438 303.243 48.0968 305.507 50.1151C307.769 52.1016 309.085 55.2147 309.456 59.4545C309.493 59.8689 309.517 60.3325 309.53 60.8454C309.54 61.3263 309.546 61.7595 309.547 62.1448L293.385 63.5588C293.673 65.0113 294.46 66.1149 295.746 66.8696C297.033 67.6243 298.697 67.9124 300.737 67.7339C302.044 67.6196 303.309 67.3965 304.533 67.0645C305.786 66.698 306.795 66.3045 307.562 65.8841L309.024 71.5863C308.658 71.8111 308.165 72.047 307.544 72.294C306.923 72.541 306.22 72.7632 305.434 72.9604C304.683 73.1868 303.865 73.3868 302.981 73.5605C302.097 73.7342 301.208 73.8601 300.316 73.9382C298.053 74.1363 296.047 73.9744 294.299 73.4528C292.582 72.9284 291.116 72.1412 289.9 71.0912C288.713 70.0065 287.779 68.6909 287.097 67.1444C286.448 65.5952 286.042 63.896 285.881 62.0471ZM302.378 57.8573C302.293 57.2544 302.13 56.6744 301.889 56.1173C301.679 55.5575 301.364 55.0711 300.942 54.6583C300.552 54.2427 300.058 53.9165 299.459 53.6798C298.892 53.4403 298.194 53.3568 297.365 53.4294C296.568 53.4991 295.895 53.7025 295.347 54.0396C294.795 54.3448 294.348 54.7373 294.004 55.2171C293.661 55.6969 293.404 56.2493 293.234 56.8746C293.093 57.4651 293.001 58.0674 292.958 58.6814L302.378 57.8573Z" fill="#FAFAFA"/>
<path d="M321.04 58.5856C321.232 60.7852 321.881 62.5112 322.987 63.7636C324.092 65.0161 325.617 65.5572 327.562 65.3871C328.199 65.3313 328.787 65.2638 329.327 65.1845C329.863 65.0733 330.304 64.9705 330.649 64.8761L329.515 51.9176C329.044 51.6697 328.433 51.4822 327.683 51.3551C326.965 51.2252 326.239 51.1923 325.506 51.2564C322.127 51.5521 320.638 53.9951 321.04 58.5856ZM338.2 69.1301C337.579 69.3771 336.863 69.6326 336.051 69.8963C335.236 70.1282 334.372 70.3484 333.459 70.5568C332.577 70.7624 331.661 70.9389 330.71 71.0863C329.794 71.2629 328.906 71.3888 328.045 71.4641C325.973 71.6454 324.098 71.5043 322.419 71.0408C320.74 70.5774 319.294 69.8366 318.081 68.8185C316.864 67.7685 315.884 66.473 315.139 64.9321C314.423 63.3565 313.977 61.5645 313.801 59.5562C313.622 57.516 313.717 55.6607 314.085 53.9903C314.45 52.288 315.06 50.8212 315.916 49.5899C316.772 48.3586 317.859 47.3802 319.177 46.6546C320.527 45.9262 322.094 45.4839 323.879 45.3277C324.867 45.2412 325.752 45.2602 326.534 45.3845C327.348 45.506 328.169 45.7073 328.996 45.9882L328.001 34.6077L335.025 32.8367L338.2 69.1301Z" fill="#FAFAFA"/>
<path d="M370.468 52.5748C370.043 55.0533 369.568 57.5201 369.044 59.9751C368.552 62.4273 368.013 64.8996 367.428 67.3921L361.881 67.8774C361.19 66.5887 360.429 65.0492 359.598 63.2588C358.767 61.4685 357.89 59.5215 356.967 57.4179C356.073 55.2797 355.138 53.0326 354.161 50.6768C353.213 48.2864 352.279 45.8785 351.36 43.4534L358.868 42.7966C359.223 43.9219 359.604 45.1574 360.011 46.503C360.447 47.814 360.887 49.1729 361.331 50.5795C361.808 51.9833 362.285 53.4031 362.764 54.8388C363.272 56.2399 363.776 57.5931 364.276 58.8985C364.567 57.4596 364.84 55.9903 365.095 54.4904C365.381 52.9877 365.638 51.5197 365.866 50.0864C366.123 48.6184 366.354 47.217 366.558 45.8821C366.791 44.5125 366.986 43.2428 367.14 42.0729L372.304 41.621C372.66 42.7463 373.056 43.9645 373.491 45.2755C373.925 46.5546 374.379 47.8961 374.855 49.2999C375.329 50.6719 375.821 52.0743 376.332 53.5073C376.843 54.9402 377.367 56.3399 377.904 57.7062C378.169 56.3339 378.43 54.9137 378.687 53.4457C378.942 51.9459 379.165 50.4647 379.359 49.0023C379.584 47.5371 379.781 46.1225 379.951 44.7585C380.15 43.3599 380.327 42.0756 380.481 40.9057L387.893 40.2572C387.409 42.8051 386.892 45.3398 386.342 47.8614C385.821 50.3482 385.29 52.7236 384.749 54.9873C384.237 57.2164 383.711 59.2861 383.172 61.1964C382.664 63.1039 382.182 64.7522 381.725 66.1413L376.179 66.6265C375.17 64.2735 374.178 61.935 373.204 59.6111C372.23 57.2872 371.318 54.9417 370.468 52.5748Z" fill="#FAFAFA"/>
<path d="M401.052 64.4504L393.927 65.0737L391.727 39.9218L398.852 39.2985L401.052 64.4504ZM398.885 31.9717C399 33.2787 398.66 34.3524 397.866 35.1927C397.101 35.9984 396.145 36.4515 394.998 36.5519C393.85 36.6523 392.814 36.3736 391.889 35.7157C390.993 35.0231 390.488 34.0233 390.374 32.7163C390.259 31.4093 390.585 30.3529 391.349 29.5472C392.143 28.7069 393.114 28.2365 394.261 28.1361C395.409 28.0357 396.431 28.3317 397.326 29.0243C398.251 29.6822 398.771 30.6646 398.885 31.9717Z" fill="#FAFAFA"/>
<path d="M404.762 32.4694L411.786 30.6984L412.435 38.1101L420.994 37.3612L421.513 43.2906L412.954 44.0394L413.727 52.8857C413.859 54.3839 414.218 55.5571 414.806 56.405C415.426 57.2502 416.533 57.6031 418.127 57.4636C418.892 57.3967 419.668 57.2646 420.454 57.0674C421.268 56.8354 421.999 56.5627 422.647 56.2491L424.136 61.7081C423.306 62.134 422.376 62.5205 421.346 62.8676C420.317 63.2147 419.037 63.4551 417.507 63.589C415.562 63.7591 413.93 63.6449 412.61 63.2465C411.288 62.8161 410.203 62.1721 409.357 61.3146C408.509 60.4252 407.866 59.325 407.43 58.014C407.026 56.7002 406.753 55.2304 406.611 53.6046L404.762 32.4694Z" fill="#FAFAFA"/>
<path d="M428.997 62.0056L425.851 26.0469L432.875 24.276L433.929 36.3259C434.393 36.1247 434.987 35.9283 435.709 35.7366C436.46 35.5103 437.186 35.3664 437.887 35.3051C439.928 35.1266 441.642 35.2657 443.031 35.7223C444.449 36.1444 445.602 36.8305 446.488 37.7809C447.406 38.7285 448.086 39.8897 448.527 41.2644C449.001 42.6364 449.313 44.1831 449.463 45.9045L450.706 60.1063L443.581 60.7296L442.414 47.3886C442.213 45.0933 441.768 43.494 441.078 42.5907C440.421 41.6845 439.295 41.3012 437.701 41.4406C437.064 41.4964 436.464 41.6132 435.901 41.7909C435.367 41.9339 434.883 42.0887 434.448 42.2553L436.121 61.3822L428.997 62.0056Z" fill="#FAFAFA"/>
<path d="M63.1604 125.371C63.0576 124.931 62.9693 124.473 62.8956 123.997C62.8219 123.522 62.7753 123.173 62.7558 122.949C62.5689 120.814 62.7743 118.756 63.3721 116.776C63.967 114.765 64.7638 113.041 65.7624 111.604L70.6882 112.282C70.2024 113.705 69.845 115.311 69.6158 117.097C69.4158 118.849 69.3841 120.506 69.5207 122.069C69.5263 122.132 69.5389 122.276 69.5584 122.499C69.5751 122.69 69.596 122.929 69.6211 123.216C69.6753 123.468 69.715 123.738 69.7401 124.025C69.797 124.309 69.8512 124.561 69.9026 124.782L63.1604 125.371ZM73.4411 124.472C73.3383 124.031 73.2501 123.573 73.1763 123.098C73.1026 122.622 73.056 122.273 73.0365 122.05C72.8496 119.914 73.0551 117.856 73.6528 115.877C74.2478 113.865 75.0445 112.141 76.0431 110.705L80.9689 111.382C80.4831 112.806 80.1257 114.411 79.8966 116.198C79.6965 117.95 79.6648 119.607 79.8015 121.169C79.807 121.233 79.8196 121.376 79.8391 121.599C79.8558 121.791 79.8768 122.03 79.9019 122.317C79.9561 122.569 79.9957 122.838 80.0208 123.125C80.0778 123.41 80.132 123.662 80.1834 123.882L73.4411 124.472Z" fill="#FAFAFA"/>
<path d="M105.755 112.105L113.215 111.452L116.114 144.589L108.654 145.242L107.424 131.184L94.8961 132.28L96.1261 146.338L88.6666 146.991L85.7674 113.853L93.2269 113.201L94.3355 125.872L106.864 124.776L105.755 112.105Z" fill="#FAFAFA"/>
<path d="M121.025 131.68C120.83 129.449 120.995 127.475 121.519 125.759C122.073 124.008 122.858 122.526 123.877 121.312C124.895 120.099 126.096 119.143 127.48 118.443C128.896 117.741 130.37 117.323 131.9 117.189C135.47 116.877 138.388 117.73 140.652 119.748C142.914 121.735 144.23 124.848 144.601 129.088C144.637 129.502 144.662 129.966 144.675 130.478C144.685 130.959 144.69 131.393 144.692 131.778L128.53 133.192C128.817 134.644 129.604 135.748 130.891 136.503C132.178 137.257 133.841 137.545 135.881 137.367C137.188 137.253 138.454 137.03 139.678 136.698C140.93 136.331 141.94 135.938 142.706 135.517L144.169 141.219C143.803 141.444 143.31 141.68 142.689 141.927C142.068 142.174 141.365 142.396 140.579 142.593C139.828 142.82 139.01 143.02 138.126 143.194C137.242 143.367 136.353 143.493 135.461 143.571C133.197 143.769 131.192 143.608 129.443 143.086C127.727 142.561 126.261 141.774 125.045 140.724C123.858 139.64 122.924 138.324 122.242 136.778C121.593 135.228 121.187 133.529 121.025 131.68ZM137.523 127.49C137.438 126.887 137.275 126.307 137.033 125.75C136.824 125.191 136.508 124.704 136.087 124.291C135.697 123.876 135.203 123.55 134.604 123.313C134.037 123.073 133.339 122.99 132.51 123.062C131.713 123.132 131.04 123.336 130.491 123.673C129.94 123.978 129.492 124.37 129.149 124.85C128.805 125.33 128.549 125.882 128.378 126.508C128.237 127.098 128.146 127.7 128.103 128.315L137.523 127.49Z" fill="#FAFAFA"/>
<path d="M171.359 114.412C170.348 119.383 169.248 124.056 168.056 128.433C166.865 132.809 165.52 137.071 164.019 141.217C163.475 142.71 162.912 143.98 162.329 145.027C161.749 146.106 161.088 146.999 160.347 147.706C159.609 148.445 158.742 149.003 157.747 149.379C156.787 149.784 155.637 150.045 154.298 150.163C153.182 150.26 152.136 150.239 151.161 150.1C150.219 149.989 149.435 149.833 148.807 149.631L149.552 143.832C150.308 144.023 150.977 144.141 151.559 144.187C152.141 144.232 152.751 144.227 153.388 144.171C154.663 144.06 155.605 143.624 156.213 142.864C156.856 142.133 157.363 141.141 157.736 139.888C155.831 136.842 153.893 133.414 151.921 129.604C149.947 125.761 148.026 121.432 146.159 116.616L153.714 115.955C154.142 117.171 154.627 118.493 155.17 119.924C155.742 121.319 156.332 122.745 156.941 124.201C157.548 125.626 158.152 127.019 158.752 128.379C159.385 129.737 159.975 130.971 160.522 132.079C160.836 130.895 161.154 129.583 161.478 128.141C161.802 126.699 162.106 125.227 162.393 123.724C162.708 122.187 162.994 120.685 163.251 119.217C163.537 117.714 163.785 116.327 163.995 115.056L171.359 114.412Z" fill="#FAFAFA"/>
<path d="M180.824 131.604C180.954 132.364 181.034 132.903 181.061 133.222C181.121 133.538 181.161 133.807 181.18 134.03C181.264 134.987 181.258 136.015 181.161 137.116C181.094 138.182 180.948 139.27 180.724 140.382C180.5 141.494 180.197 142.613 179.813 143.738C179.43 144.864 178.979 145.947 178.459 146.989L172.744 146.091C173.293 143.923 173.63 141.902 173.755 140.028C173.88 138.154 173.89 136.612 173.784 135.4C173.767 135.209 173.73 134.971 173.673 134.687C173.645 134.368 173.601 134.051 173.542 133.735C173.514 133.416 173.471 133.115 173.414 132.831C173.389 132.544 173.372 132.352 173.364 132.257L180.824 131.604Z" fill="#FAFAFA"/>
<path d="M194.985 106.033L202.009 104.262L202.657 111.673L211.217 110.924L211.735 116.854L203.176 117.603L203.95 126.449C204.081 127.947 204.441 129.12 205.029 129.968C205.649 130.813 206.756 131.166 208.35 131.027C209.115 130.96 209.89 130.828 210.676 130.631C211.491 130.399 212.222 130.126 212.869 129.812L214.359 135.271C213.529 135.697 212.599 136.084 211.569 136.431C210.539 136.778 209.259 137.018 207.729 137.152C205.785 137.322 204.153 137.208 202.833 136.81C201.51 136.379 200.426 135.735 199.58 134.878C198.731 133.988 198.089 132.888 197.653 131.577C197.249 130.263 196.976 128.794 196.834 127.168L194.985 106.033Z" fill="#FAFAFA"/>
<path d="M219.219 135.569L216.073 99.6102L223.098 97.8392L224.152 109.889C224.616 109.688 225.209 109.492 225.931 109.3C226.682 109.074 227.409 108.93 228.11 108.868C230.15 108.69 231.865 108.829 233.254 109.286C234.672 109.708 235.824 110.394 236.71 111.344C237.628 112.292 238.308 113.453 238.75 114.828C239.223 116.2 239.535 117.746 239.686 119.468L240.928 133.67L233.803 134.293L232.636 120.952C232.435 118.657 231.99 117.057 231.301 116.154C230.644 115.248 229.518 114.864 227.924 115.004C227.286 115.06 226.686 115.176 226.124 115.354C225.59 115.497 225.106 115.652 224.671 115.819L226.344 134.945L219.219 135.569Z" fill="#FAFAFA"/>
<path d="M245.098 120.825C244.903 118.594 245.068 116.62 245.592 114.904C246.146 113.153 246.931 111.671 247.949 110.457C248.968 109.244 250.169 108.288 251.553 107.588C252.969 106.886 254.443 106.468 255.973 106.334C259.543 106.022 262.46 106.875 264.725 108.893C266.987 110.88 268.303 113.993 268.674 118.233C268.71 118.647 268.735 119.111 268.748 119.623C268.757 120.104 268.763 120.538 268.765 120.923L252.603 122.337C252.89 123.789 253.677 124.893 254.964 125.648C256.251 126.402 257.914 126.691 259.954 126.512C261.261 126.398 262.527 126.175 263.751 125.843C265.003 125.476 266.013 125.083 266.779 124.662L268.242 130.364C267.876 130.589 267.383 130.825 266.762 131.072C266.141 131.319 265.438 131.541 264.652 131.739C263.901 131.965 263.083 132.165 262.199 132.339C261.315 132.512 260.426 132.638 259.534 132.716C257.27 132.914 255.264 132.753 253.516 132.231C251.8 131.706 250.334 130.919 249.118 129.869C247.931 128.785 246.997 127.469 246.315 125.923C245.666 124.373 245.26 122.674 245.098 120.825ZM261.596 116.635C261.511 116.032 261.348 115.453 261.106 114.895C260.897 114.336 260.581 113.849 260.16 113.436C259.77 113.021 259.276 112.695 258.677 112.458C258.11 112.218 257.412 112.135 256.583 112.207C255.786 112.277 255.113 112.481 254.564 112.818C254.013 113.123 253.565 113.515 253.222 113.995C252.878 114.475 252.622 115.027 252.451 115.653C252.31 116.243 252.218 116.845 252.176 117.46L261.596 116.635Z" fill="#FAFAFA"/>
<path d="M288.812 110.496C288.16 110.392 287.397 110.299 286.522 110.214C285.645 110.098 284.712 110.084 283.724 110.17C283.278 110.209 282.74 110.304 282.111 110.456C281.51 110.573 281.055 110.693 280.745 110.816L282.427 130.039L275.302 130.662L273.218 106.849C274.454 106.291 275.917 105.746 277.604 105.213C279.322 104.645 281.248 104.268 283.384 104.081C283.766 104.047 284.231 104.039 284.779 104.055C285.324 104.039 285.871 104.056 286.421 104.104C286.969 104.12 287.519 104.169 288.072 104.249C288.623 104.297 289.096 104.384 289.492 104.51L288.812 110.496Z" fill="#FAFAFA"/>
<path d="M292.729 116.658C292.534 114.427 292.698 112.453 293.223 110.736C293.776 108.986 294.562 107.503 295.58 106.29C296.598 105.077 297.799 104.12 299.184 103.421C300.6 102.719 302.073 102.301 303.603 102.167C307.174 101.855 310.091 102.708 312.356 104.726C314.617 106.713 315.934 109.826 316.305 114.065C316.341 114.48 316.365 114.943 316.378 115.456C316.388 115.937 316.394 116.37 316.395 116.756L300.233 118.17C300.521 119.622 301.308 120.726 302.595 121.481C303.881 122.235 305.545 122.523 307.585 122.345C308.892 122.231 310.157 122.007 311.381 121.675C312.634 121.309 313.643 120.915 314.41 120.495L315.872 126.197C315.506 126.422 315.013 126.658 314.392 126.905C313.771 127.152 313.068 127.374 312.282 127.571C311.531 127.798 310.714 127.998 309.829 128.171C308.945 128.345 308.057 128.471 307.164 128.549C304.901 128.747 302.895 128.585 301.147 128.064C299.431 127.539 297.964 126.752 296.748 125.702C295.561 124.617 294.627 123.302 293.946 121.755C293.296 120.206 292.891 118.507 292.729 116.658ZM309.226 112.468C309.142 111.865 308.978 111.285 308.737 110.728C308.527 110.168 308.212 109.682 307.79 109.269C307.4 108.854 306.906 108.527 306.307 108.291C305.74 108.051 305.042 107.968 304.213 108.04C303.416 108.11 302.744 108.313 302.195 108.651C301.643 108.956 301.196 109.348 300.852 109.828C300.509 110.308 300.252 110.86 300.082 111.486C299.941 112.076 299.849 112.678 299.806 113.292L309.226 112.468Z" fill="#FAFAFA"/>
<path d="M335.982 88.3968C336.084 88.8375 336.173 89.2956 336.246 89.7709C336.32 90.2463 336.367 90.5956 336.386 90.8187C336.573 92.9546 336.369 95.0283 335.774 97.0398C335.176 99.0194 334.378 100.727 333.379 102.164L328.454 101.487C328.939 100.063 329.282 98.475 329.482 96.7229C329.712 94.9361 329.758 93.2617 329.621 91.6997C329.616 91.6359 329.604 91.5084 329.588 91.3172C329.568 91.094 329.531 90.8563 329.477 90.6041C329.452 90.3172 329.411 90.0317 329.354 89.7475C329.329 89.4606 329.291 89.207 329.239 88.9867L335.982 88.3968ZM325.701 89.2962C325.804 89.737 325.892 90.195 325.966 90.6704C326.039 91.1458 326.086 91.495 326.105 91.7182C326.292 93.854 326.088 95.9277 325.493 97.9392C324.896 99.9188 324.097 101.627 323.099 103.063L318.173 102.386C318.659 100.962 319.002 99.3745 319.202 97.6224C319.431 95.8356 319.477 94.1612 319.34 92.5991C319.335 92.5354 319.324 92.4079 319.307 92.2166C319.287 91.9935 319.251 91.7558 319.196 91.5035C319.171 91.2166 319.13 90.9311 319.073 90.647C319.048 90.3601 319.01 90.1065 318.959 89.8861L325.701 89.2962Z" fill="#FAFAFA"/>
<path d="M351.297 120.207C351.423 121.642 351.057 122.782 350.199 123.628C349.371 124.439 348.383 124.895 347.235 124.995C346.087 125.096 345.019 124.82 344.031 124.167C343.071 123.48 342.529 122.42 342.403 120.985C342.278 119.551 342.629 118.428 343.458 117.616C344.315 116.77 345.318 116.297 346.465 116.197C347.613 116.096 348.666 116.39 349.626 117.077C350.615 117.729 351.172 118.772 351.297 120.207Z" fill="#FAFAFA"/>
<path d="M363.065 119.177C363.19 120.612 362.824 121.752 361.967 122.598C361.138 123.409 360.15 123.865 359.003 123.966C357.855 124.066 356.787 123.79 355.798 123.138C354.839 122.451 354.296 121.39 354.171 119.956C354.045 118.521 354.397 117.398 355.225 116.587C356.083 115.741 357.085 115.268 358.233 115.167C359.38 115.067 360.434 115.36 361.393 116.047C362.382 116.7 362.939 117.743 363.065 119.177Z" fill="#FAFAFA"/>
<path d="M374.832 118.148C374.958 119.582 374.592 120.723 373.734 121.569C372.906 122.38 371.918 122.836 370.77 122.936C369.622 123.037 368.554 122.761 367.566 122.108C366.606 121.421 366.064 120.361 365.938 118.926C365.813 117.492 366.164 116.369 366.993 115.557C367.85 114.711 368.853 114.238 370 114.138C371.148 114.037 372.202 114.331 373.161 115.018C374.15 115.67 374.707 116.713 374.832 118.148Z" fill="#FAFAFA"/>
</svg>
