<svg width="1117" height="389" viewBox="0 0 1117 389" fill="none" xmlns="http://www.w3.org/2000/svg">
<path d="M334.5 389C334.5 389 -49.1439 345.608 5.49987 161C60.1436 -23.6082 985 1.99998 985 1.99998L1116.5 209.5L334.5 389Z" fill="#171C22"/>
<path d="M248.14 234.866L250.136 257.678L171.299 264.575L160.978 146.602L187.541 144.278L195.866 239.44L248.14 234.866Z" fill="#ECECEC"/>
<path d="M257.428 212.612C256.733 204.667 257.319 197.64 259.186 191.53C261.158 185.296 263.956 180.02 267.581 175.7C271.207 171.38 275.485 167.975 280.414 165.486C285.457 162.986 290.703 161.498 296.152 161.021C308.866 159.909 319.254 162.945 327.318 170.131C335.372 177.202 340.059 188.286 341.379 203.38C341.508 204.855 341.596 206.506 341.641 208.331C341.676 210.044 341.697 211.586 341.703 212.958L284.15 217.993C285.174 223.164 287.977 227.093 292.559 229.78C297.141 232.466 303.064 233.492 310.329 232.856C314.983 232.449 319.489 231.655 323.847 230.473C328.308 229.168 331.903 227.767 334.632 226.27L339.839 246.571C338.537 247.371 336.78 248.211 334.569 249.09C332.358 249.97 329.854 250.761 327.056 251.463C324.381 252.269 321.469 252.981 318.321 253.6C315.172 254.218 312.008 254.666 308.83 254.944C300.77 255.65 293.628 255.074 287.403 253.217C281.292 251.35 276.071 248.547 271.74 244.809C267.513 240.948 264.187 236.264 261.761 230.759C259.448 225.243 258.004 219.194 257.428 212.612ZM316.175 197.694C315.873 195.548 315.292 193.483 314.432 191.5C313.685 189.506 312.562 187.775 311.061 186.305C309.673 184.826 307.913 183.665 305.78 182.822C303.761 181.969 301.276 181.672 298.324 181.93C295.486 182.179 293.09 182.903 291.136 184.103C289.173 185.19 287.579 186.587 286.356 188.295C285.133 190.003 284.218 191.97 283.612 194.196C283.11 196.298 282.783 198.443 282.631 200.629L316.175 197.694Z" fill="#ECECEC"/>
<path d="M354.343 135.86L379.356 129.555L381.665 155.941L412.144 153.275L413.991 174.384L383.512 177.051L386.267 208.544C386.734 213.878 388.014 218.055 390.109 221.073C392.316 224.082 396.258 225.339 401.934 224.842C404.658 224.604 407.42 224.133 410.218 223.431C413.12 222.605 415.723 221.634 418.027 220.518L423.331 239.952C420.375 241.469 417.064 242.845 413.397 244.081C409.73 245.316 405.173 246.173 399.724 246.649C392.8 247.255 386.988 246.849 382.288 245.43C377.579 243.898 373.718 241.605 370.705 238.553C367.683 235.386 365.396 231.469 363.844 226.802C362.405 222.125 361.432 216.892 360.926 211.104L354.343 135.86Z" fill="#ECECEC"/>
<path d="M451.181 108.519C451.547 110.088 451.861 111.718 452.123 113.411C452.386 115.103 452.552 116.347 452.621 117.141C453.286 124.745 452.56 132.127 450.441 139.289C448.312 146.337 445.47 152.418 441.914 157.532L423.678 155.01C425.408 149.941 426.629 144.288 427.341 138.05C428.167 131.803 428.337 125.898 427.85 120.337C427.831 120.11 427.791 119.656 427.731 118.976C427.662 118.181 427.531 117.335 427.338 116.437C427.248 115.415 427.102 114.399 426.899 113.388C426.81 112.366 426.674 111.463 426.491 110.679L451.181 108.519Z" fill="#ECECEC"/>
<path d="M493.025 218.073C497.679 217.666 500.931 216.924 502.781 215.847C504.632 214.771 505.443 212.927 505.214 210.317C505.036 208.274 503.633 206.624 501.007 205.367C498.37 203.997 494.413 202.571 489.136 201.088C485.034 199.96 481.268 198.746 477.837 197.445C474.519 196.134 471.631 194.5 469.172 192.542C466.703 190.471 464.71 187.958 463.194 185.003C461.677 182.048 460.73 178.414 460.353 174.102C459.618 165.703 462.159 158.791 467.975 153.365C473.791 147.938 482.148 144.749 493.046 143.795C498.495 143.318 503.761 143.372 508.845 143.957C513.919 144.428 517.982 145.102 521.033 145.978L518.333 166.113C515.292 165.35 511.978 164.725 508.389 164.238C504.914 163.742 501.02 163.682 496.706 164.06C488.76 164.755 484.981 167.315 485.368 171.742C485.457 172.763 485.707 173.656 486.117 174.421C486.527 175.185 487.278 175.92 488.369 176.625C489.45 177.217 490.882 177.892 492.664 178.651C494.55 179.287 496.899 179.996 499.713 180.779C505.454 182.335 510.23 183.976 514.042 185.701C517.843 187.312 520.869 189.22 523.121 191.425C525.477 193.506 527.176 195.93 528.219 198.698C529.375 201.456 530.117 204.707 530.445 208.453C531.219 217.305 528.456 224.294 522.156 229.419C515.969 234.535 506.803 237.624 494.656 238.687C486.71 239.382 480.01 239.282 474.556 238.387C469.215 237.482 465.483 236.665 463.36 235.936L465.815 214.965C470.277 216.29 474.824 217.264 479.454 217.888C484.074 218.399 488.597 218.461 493.025 218.073Z" fill="#ECECEC"/>
<path d="M581.819 115.959L606.832 109.653L609.141 136.04L639.62 133.373L641.467 154.482L610.988 157.149L613.743 188.643C614.21 193.977 615.49 198.153 617.584 201.172C619.792 204.181 623.734 205.437 629.41 204.94C632.134 204.702 634.896 204.232 637.694 203.53C640.595 202.704 643.199 201.733 645.503 200.616L650.806 220.051C647.851 221.567 644.54 222.943 640.873 224.179C637.206 225.415 632.649 226.271 627.2 226.748C620.275 227.353 614.463 226.947 609.764 225.529C605.054 223.996 601.194 221.704 598.181 218.651C595.159 215.485 592.872 211.568 591.319 206.901C589.881 202.223 588.908 196.991 588.402 191.203L581.819 115.959Z" fill="#ECECEC"/>
<path d="M697.465 200.702C699.962 200.483 702.341 200.218 704.602 199.906C706.862 199.594 708.663 199.265 710.006 198.918L708.323 179.682C707.281 179.544 705.729 179.451 703.666 179.403C701.603 179.355 699.72 179.405 698.017 179.554C695.633 179.763 693.378 180.132 691.251 180.661C689.227 181.067 687.456 181.736 685.936 182.67C684.416 183.603 683.262 184.79 682.473 186.232C681.684 187.673 681.379 189.415 681.557 191.458C681.905 195.43 683.454 198.097 686.204 199.457C689.057 200.694 692.811 201.109 697.465 200.702ZM688.928 126.658C696.42 126.002 702.738 126.307 707.882 127.573C713.025 128.838 717.212 130.93 720.441 133.85C723.784 136.76 726.279 140.429 727.924 144.86C729.57 149.29 730.636 154.286 731.123 159.847L735.74 212.62C732.177 213.732 727.205 215.082 720.824 216.67C714.453 218.371 706.67 219.623 697.475 220.428C691.686 220.934 686.362 220.885 681.505 220.281C676.762 219.667 672.588 218.374 668.984 216.402C665.37 214.317 662.491 211.481 660.347 207.895C658.203 204.308 656.893 199.791 656.416 194.344C655.96 189.123 656.594 184.608 658.32 180.797C660.159 176.977 662.743 173.835 666.074 171.37C669.404 168.906 673.3 167.021 677.761 165.716C682.212 164.298 686.879 163.375 691.76 162.948C695.052 162.66 697.961 162.577 700.488 162.699C703.119 162.697 705.249 162.854 706.878 163.169L706.669 160.786C706.292 156.473 704.684 153.126 701.845 150.744C699.005 148.362 694.351 147.454 687.88 148.02C683.567 148.398 679.339 149.11 675.199 150.159C671.049 151.094 667.49 152.263 664.525 153.666L659.502 133.521C660.938 132.938 662.715 132.325 664.832 131.682C667.053 130.916 669.454 130.248 672.035 129.68C674.606 128.997 677.3 128.418 680.118 127.943C683.04 127.344 685.977 126.916 688.928 126.658Z" fill="#ECECEC"/>
<path d="M794.812 211.74C787.423 212.272 781.337 212.004 776.554 210.936C771.884 209.858 768.073 208.133 765.12 205.761C762.271 203.266 760.172 200.19 758.823 196.534C757.577 192.755 756.746 188.482 756.329 183.716L747.705 85.1491L772.719 78.8438L781.253 176.389C781.451 178.659 781.8 180.687 782.3 182.473C782.799 184.259 783.557 185.736 784.575 186.905C785.706 188.064 787.214 188.962 789.1 189.597C790.986 190.233 793.471 190.53 796.556 190.489L794.812 211.74Z" fill="#ECECEC"/>
<path d="M833.148 149.034C835.407 146.092 837.713 143.031 840.065 139.852C842.532 136.663 844.889 133.54 847.138 130.485C849.378 127.315 851.461 124.331 853.39 121.532C855.432 118.723 857.163 116.285 858.583 114.216L888.722 111.58C883.311 119.029 877.989 126.184 872.756 133.046C867.626 139.785 861.949 146.8 855.724 154.092C859.397 156.858 863.239 160.239 867.249 164.234C871.249 168.115 875.15 172.177 878.953 176.418C882.755 180.66 886.274 184.926 889.509 189.218C892.744 193.509 895.491 197.443 897.748 201.019L868.631 203.567C866.557 200.775 864.174 197.724 861.482 194.414C858.894 190.981 856.14 187.62 853.222 184.33C850.293 180.927 847.209 177.709 843.97 174.676C840.844 171.633 837.763 169.101 834.726 167.079L838.152 206.233L812.781 208.453L801.581 80.4356L826.594 74.1303L833.148 149.034Z" fill="#ECECEC"/>
<path d="M937.066 184.028C937.513 189.135 936.209 193.194 933.156 196.206C930.206 199.094 926.687 200.717 922.601 201.075C918.514 201.433 914.711 200.45 911.19 198.128C907.774 195.682 905.842 191.906 905.395 186.799C904.948 181.692 906.2 177.694 909.15 174.806C912.204 171.794 915.774 170.109 919.86 169.752C923.947 169.394 927.699 170.438 931.115 172.884C934.636 175.206 936.619 178.921 937.066 184.028Z" fill="#ECECEC"/>
<path d="M978.969 180.362C979.416 185.469 978.113 189.528 975.059 192.54C972.109 195.428 968.591 197.051 964.504 197.409C960.418 197.766 956.614 196.784 953.094 194.462C949.677 192.016 947.745 188.24 947.298 183.133C946.852 178.026 948.103 174.028 951.053 171.139C954.107 168.128 957.677 166.443 961.764 166.086C965.85 165.728 969.602 166.772 973.019 169.218C976.539 171.54 978.523 175.255 978.969 180.362Z" fill="#ECECEC"/>
<path d="M1020.87 176.696C1021.32 181.803 1020.02 185.862 1016.96 188.874C1014.01 191.762 1010.49 193.385 1006.41 193.743C1002.32 194.1 998.518 193.118 994.997 190.796C991.58 188.35 989.649 184.574 989.202 179.467C988.755 174.359 990.007 170.362 992.957 167.473C996.01 164.462 999.581 162.777 1003.67 162.419C1007.75 162.062 1011.51 163.106 1014.92 165.552C1018.44 167.874 1020.43 171.589 1020.87 176.696Z" fill="#ECECEC"/>
</svg>
