<svg width="1480" height="820" viewBox="0 0 1480 820" fill="none" xmlns="http://www.w3.org/2000/svg">
<path d="M25.3082 122.286H32.1138C38.494 121.861 41.6842 124.2 41.6842 129.304L40.6208 274.773L38.9194 286.47L40.6208 307.1V308.801L41.4715 334.96C41.6133 341.482 46.7174 344.034 56.784 342.616L58.2727 340.49L69.7572 342.404L114.419 342.829C116.829 344.389 118.034 347.792 118.034 353.038L116.545 353.676L118.247 363.033C116.12 369.413 113.993 372.816 111.867 373.242L82.943 373.029L78.2641 375.368L70.1825 373.242H68.4811L15.7379 371.966C10.4919 370.122 9.9248 359.134 14.0365 339.001C14.6036 321.278 14.7454 264.707 14.4618 169.287C14.6036 137.386 16.2341 121.435 19.3534 121.435L25.3082 122.286ZM0 356.866L9.14499 366.861L10.8464 367.287V366.011C9.28678 364.451 7.16003 362.962 4.46616 361.544C4.46616 358.851 3.89903 357.433 2.76477 357.291L0 356.866ZM90.5992 392.382C91.5917 392.524 92.1588 396.069 92.3006 403.016L92.9387 403.229L92.726 397.486L92.3006 394.084L92.726 392.595L117.822 392.808L118.46 412.161L8.08162 411.736L7.23092 392.17L90.5992 392.382Z" fill="#171C22"/>
<path d="M193.108 114.63L192.896 116.544L200.339 117.394L200.552 115.48L193.108 114.63ZM193.746 109.1L203.104 110.164L202.891 111.865L193.534 111.014L193.746 109.1ZM311.78 126.114L309.866 127.603L311.78 129.092V126.114ZM311.568 156.527L307.74 156.314V158.015L311.568 158.228V156.527ZM311.568 159.504H307.74L309.654 161.205L310.079 167.798L308.165 166.097L307.952 169.287H306.251L304.337 167.798L285.622 169.5H279.667L277.753 167.798L275.626 169.5L211.398 169.712H191.832L189.918 167.798L186.09 168.011V169.712L189.705 169.5V171.201H186.09L185.877 197.998H183.751L183.963 199.699L185.665 200.975L304.55 199.912C308.661 199.912 310.646 201.472 310.504 204.591L311.142 205.229L311.568 159.504ZM310.93 240.32H310.292C310.15 245.85 308.803 248.544 306.251 248.402L300.296 248.614L298.382 246.913L298.169 250.316L296.043 248.827C226.002 248.827 189.564 249.323 186.728 250.316L188.855 248.827H186.941L185.027 250.529L184.176 285.832H186.09L187.791 287.321L189.918 285.62L189.705 289.235L191.832 289.023L192.045 285.62H194.172L193.959 289.023L232.666 286.896L232.453 288.81L272.436 288.597L309.228 288.81H310.504L310.93 240.32ZM310.079 337.087L274.137 337.938L272.01 339.639L269.884 337.725L234.154 339.426L224.371 338.15L208.421 337.938L206.507 339.426H204.38V337.938L202.253 339.639L200.339 339.426L198.425 337.938L196.298 338.15V339.639L194.384 338.15L172.479 337.938L170.352 339.426L164.61 337.938L131.858 338.15L133.772 336.449L131.645 334.96L131.858 333.259L132.921 308.376L131.007 306.675L135.048 303.272H133.134L131.22 304.973L131.433 253.506L133.559 251.592V250.103L131.433 250.316L133.772 248.614L133.559 246.913L131.645 242.022H133.559L131.645 240.32C131.22 162.765 132.071 123.987 134.197 123.987L140.152 125.476L138.026 123.987V122.286L307.952 122.499L311.78 122.711V124.413L307.74 124.2V125.901H311.78L312.418 48.7007C312.56 46.4322 313.127 45.3688 314.12 45.5106H315.183L313.907 206.505H314.333V244.999H313.482L313.057 294.552L313.269 333.684L312.631 334.11L312.418 364.097H313.482V373.667H312.418L311.568 471.284L268.395 471.072L268.608 468.732L269.033 466.18L307.527 465.968V466.818C308.519 466.109 309.016 465.471 309.016 464.904L309.866 373.667L225.222 374.092V373.667L223.946 374.092L217.353 373.667H214.376L209.271 374.092L203.742 373.667H198.212L192.896 374.092L188.642 373.667L187.366 374.092V373.667L186.09 374.092H182.049V373.667L172.692 374.092H123.989V364.097H130.582L131.858 364.947L133.134 364.097L149.51 364.947H157.592L158.868 364.097H160.356V364.947L161.632 364.097H163.121L187.366 364.947L203.742 364.097L215.864 364.947L253.933 364.097H256.698L257.974 364.947L259.25 364.097H309.866L310.079 337.087ZM205.018 110.164L212.462 111.014L212.249 112.928L204.805 112.078L205.018 110.164Z" fill="#171C22"/>
<path d="M345.383 167.798C348.786 167.373 350.487 166.38 350.487 164.821L348.36 165.884L346.021 164.821H345.383V167.798ZM320.075 373.242V382.812H318.161L315.609 301.783C315.467 296.112 315.112 292.567 314.545 291.149L313.695 263.714C314.12 263.714 314.262 262.58 314.12 260.312L315.396 93.1496H317.31L317.523 121.648L318.799 120.585H360.908C361.617 120.159 362.397 119.947 363.248 119.947L402.167 120.372L402.38 120.585H441.724L442.575 124.2V159.079L441.724 162.907L431.729 163.545L418.118 162.907H415.566L404.932 163.545V336.449L400.466 337.938H362.397L357.931 336.236L357.08 319.435L357.931 299.656V284.344L357.08 262.651L357.931 252.017L357.08 239.682L357.931 224.157L357.08 202.89L357.931 192.681L357.08 174.604L357.505 163.545L350.7 163.119L344.32 163.545L327.518 162.907L324.116 163.119L319.649 163.757C318.941 163.332 318.373 162.907 317.948 162.481L319.862 353.676L425.136 353.888C426.412 354.03 427.192 357.575 427.475 364.522L428.326 364.735L427.901 358.992L427.475 355.59L427.901 354.101L460.227 354.314L461.078 373.667L320.075 373.242Z" fill="#171C22"/>
<path d="M474.902 130.793H485.323V132.282H489.151C489.151 133.274 490.002 133.77 491.703 133.77L493.192 135.472C493.192 136.322 494.042 136.748 495.744 136.748C495.744 138.307 496.594 140.08 498.296 142.065C499.714 146.46 500.99 148.658 502.124 148.658V151.848L503.4 157.803V170.563L502.124 176.518V180.346C500.99 180.346 500.139 182.615 499.572 187.152C497.87 188.569 497.02 190.767 497.02 193.745C495.602 193.745 494.326 195.729 493.192 199.699C492.057 199.699 490.285 201.755 487.875 205.867L482.133 211.822C481.14 211.822 479.793 212.743 478.092 214.587C476.532 214.587 475.043 215.366 473.626 216.926L472.35 218.415L462.141 224.582V226.071H458.738L456.186 219.265V217.139L457.462 214.161L458.1 215.012C465.331 210.191 470.506 206.08 473.626 202.677C478.021 199.699 480.218 196.722 480.218 193.745H481.495C481.495 192.752 482.133 192.256 483.409 192.256C484.401 187.293 485.464 184.812 486.599 184.812V182.473L487.875 176.518V172.902C487.024 172.902 486.599 171.91 486.599 169.925H477.454C472.775 169.925 468.451 168.153 464.481 164.608L460.652 155.676V146.531C462.779 141.285 465.331 137.315 468.309 134.621L469.159 133.77C470.294 133.77 470.861 133.274 470.861 132.282H474.902V130.793Z" fill="#171C22"/>
<path d="M623.774 286.683H625.05C628.027 285.265 630.083 282.997 631.217 279.878H621.434L623.774 286.683ZM634.62 351.549V352.825L640.788 353.888H641.851L644.403 351.549L639.299 348.359C636.18 348.642 634.62 349.706 634.62 351.549ZM543.17 335.598L547.211 339.001H550.401V335.598L548.274 333.471H545.722L543.17 335.598ZM666.308 345.169V348.359L671.2 349.422L674.603 348.359V345.169C674.603 344.034 673.043 342.971 669.924 341.978L666.308 345.169ZM561.885 329.856L565.501 331.983H568.053L570.18 329.856L566.99 326.453H563.161L561.885 329.856ZM627.389 319.86H628.452V322.2H635.896V318.584L632.281 315.607H631.217L627.389 319.86ZM534.876 307.951L542.107 311.566L545.722 306.887L539.555 303.484C537.286 303.484 535.726 304.973 534.876 307.951ZM657.801 313.267V314.543C657.801 315.678 659.361 316.883 662.48 318.159L666.308 314.543V312.417L663.756 310.29H661.417L657.801 313.267ZM554.654 300.294V301.358C555.363 303.768 557.774 304.973 561.885 304.973H563.161L564.437 301.358L559.333 296.892L554.654 300.294ZM461.929 253.506H472.775V254.569L470.435 260.95L471.712 270.307V271.583L469.372 273.497C468.947 266.408 466.466 260.453 461.929 255.633V253.506ZM451.082 348.784H454.91C459.589 349.209 461.929 350.273 461.929 351.974L455.974 354.952L449.806 351.974L451.082 348.784ZM442.788 321.349C443.497 318.372 444.985 316.883 447.254 316.883L452.358 320.286V321.349L447.254 325.603C444.985 325.177 443.497 323.759 442.788 321.349ZM374.732 304.548C377.993 305.54 379.624 306.533 379.624 307.525V310.715L376.221 311.779L371.117 310.715V307.525L374.732 304.548ZM440.236 290.511C443.497 291.504 445.127 292.567 445.127 293.701V294.765L441.299 298.168H438.96L436.408 295.828V293.701L440.236 290.511ZM503.613 330.494V333.897L511.056 344.318V326.241C506.094 327.8 503.613 329.218 503.613 330.494ZM366.438 273.497H368.777L371.117 275.837V277.964L367.501 280.941C364.382 279.948 362.822 278.956 362.822 277.964V276.9L366.438 273.497ZM474.689 287.534C474.689 289.377 472.633 290.511 468.521 290.937V287.534H474.689ZM487.024 344.743H489.151L491.49 346.87V350.273H488.087L484.472 346.87L487.024 344.743ZM513.608 340.915L517.011 343.467H519.563L521.69 340.915L518.287 337.725H514.672L513.608 340.915ZM505.952 311.566V312.842C506.803 315.111 509.355 316.245 513.608 316.245H514.672L515.735 312.842L511.056 307.951L505.952 311.566ZM533.6 276.475H527.645V279.452C531.615 279.027 533.6 278.034 533.6 276.475ZM597.189 319.648V320.711L599.316 322.838H603.144L604.42 321.774L600.592 317.308H599.316L597.189 319.648ZM592.51 296.892H593.574L597.189 294.339L594.637 290.086C593.787 290.228 593.007 290.724 592.298 291.575C592.44 292.567 592.51 293.772 592.51 295.19H591.022L592.51 296.679V296.892ZM415.991 322.412C418.401 322.838 419.961 324.256 420.67 326.666L417.267 329.856V330.919L413.651 329.856V324.752L415.991 322.412ZM406.208 300.932C407.484 298.238 408.689 296.892 409.823 296.892L412.375 299.018L410.887 304.548H408.76C407.059 304.548 406.208 303.343 406.208 300.932ZM403.868 266.266L406.208 268.393V269.457L405.144 274.561H402.805L398.977 271.583V270.307L403.868 266.266ZM433.005 260.95H435.344L437.896 263.076L435.344 268.393H433.005L429.389 264.778V264.352L433.005 260.95ZM628.665 407.907C634.762 408.758 637.81 410.105 637.81 411.948L631.643 414.075L625.688 411.948V410.885L628.665 407.907ZM368.564 341.978H370.904L374.945 341.128V340.277L370.904 339.426H366.225L368.564 341.978ZM498.508 322.2H503.187L507.015 323.476V324.965H503.187C500.493 324.965 498.934 324.043 498.508 322.2ZM443.213 306.249L444.915 307.525H451.082V306.249L444.915 304.548L443.213 306.249ZM412.375 302.634L417.692 303.484H420.67C420.67 302.208 419.252 301.358 416.416 300.932H412.375V302.634ZM519.351 236.705L516.586 250.954L507.441 256.271L505.952 256.696L499.997 257.547L492.554 233.089L510.418 227.772L518.075 235.216L518.5 236.917L519.351 236.705ZM784.343 313.905L784.768 314.756L782.854 319.01L780.94 319.435L777.324 314.756L778.813 311.991L780.515 311.353L784.343 313.905ZM810.076 313.055L810.502 314.118L808.588 318.159L806.673 318.584L804.334 313.693L804.121 312.629L805.185 310.077L810.076 313.055ZM787.958 345.381L788.596 347.508L787.107 350.273L785.406 350.911L781.365 348.571L780.94 347.508C780.656 346.374 781.649 344.885 783.917 343.042L787.958 345.381ZM813.904 345.594C814.613 347.721 814.259 348.997 812.841 349.422L811.14 350.06L808.375 344.956L809.651 342.191C810.643 341.908 812.061 343.042 813.904 345.594ZM791.148 374.73C791.29 377.141 790.581 378.913 789.022 380.047L783.917 376.857L783.492 375.794L786.469 371.328C788.171 370.902 789.73 372.036 791.148 374.73ZM815.18 370.902L816.669 376.219L814.117 378.133L813.904 377.07L810.076 374.73C810.076 372.178 810.927 370.406 812.628 369.413L815.18 370.902ZM794.976 407.269L790.936 411.736L785.406 410.247C784.839 408.404 786.399 406.702 790.085 405.143L793.062 404.292L794.976 407.269ZM818.371 405.993L815.606 410.46L811.778 407.907L813.054 405.143L815.818 404.292L818.371 405.993ZM704.164 346.657L704.377 347.721L702.463 351.761L700.762 352.399L697.146 347.721L698.422 344.743L700.336 344.318L704.164 346.657ZM729.898 345.807L730.111 347.083L728.197 350.911L726.495 351.549L723.943 346.445L723.731 345.381L725.007 342.829L729.898 345.807ZM733.726 378.346C734.293 380.614 733.939 381.89 732.663 382.174L730.749 382.812L728.197 377.92L729.26 374.943C730.394 374.659 731.883 375.794 733.726 378.346ZM714.586 440.021L710.757 444.487L705.015 442.999C704.59 441.156 706.149 439.454 709.694 437.895L712.671 437.044L714.586 440.021ZM737.98 438.745L735.428 443.211L731.599 440.659L732.663 437.895L735.428 437.044L737.98 438.745ZM721.816 261.375L720.753 261.588C718.059 261.02 715.862 259.39 714.16 256.696L721.816 254.569V261.375ZM778.813 257.121L777.962 257.334L776.899 258.823L776.261 259.036L772.646 257.547L773.284 253.081C774.701 252.939 776.545 254.286 778.813 257.121ZM807.737 253.081L807.95 254.144C808.091 256.413 806.532 258.043 803.271 259.036L802.207 259.461L800.506 256.483L802.845 250.954L807.737 253.081ZM700.336 286.47L700.549 287.534C700.833 288.668 699.84 290.157 697.572 292L693.743 289.448L693.318 287.534L694.594 284.556L696.296 284.131L700.336 286.47ZM726.07 285.62L725.007 286.045L725.645 288.172L719.902 289.873L719.052 286.683L720.753 282.43L721.816 282.217L726.07 285.62ZM779.664 281.366L780.089 282.217L778.813 284.769L775.836 285.832L774.56 284.982L776.261 279.878L777.324 279.665L779.664 281.366ZM810.289 282.43L808.162 285.407L806.035 286.045L803.696 284.556L805.397 280.516L808.375 279.452L810.289 282.43ZM702.888 319.435L703.739 322.625L700.336 324.965L697.146 324.539L696.296 321.349C696.012 320.357 696.934 318.939 699.06 317.096L702.888 319.435ZM729.685 318.372L729.898 319.435L725.432 321.987L724.581 322.2L722.029 320.498L724.794 316.245C727.488 315.82 729.118 316.528 729.685 318.372ZM592.51 296.892L590.596 318.797C590.313 332.125 594.708 338.788 603.782 338.788C608.461 338.788 612.006 337.016 614.416 333.471L610.162 319.435C614.558 319.719 616.968 320.498 617.393 321.774L617.819 323.05V322.838L618.031 312.417C618.315 301.499 617.464 293.701 615.479 289.023C613.353 294.836 613.282 301.287 615.267 308.376L612.927 306.887L612.502 305.824L610.588 295.828L606.76 290.086L606.547 289.235L614.416 286.683C612.998 284.415 611.226 283.28 609.099 283.28L546.148 240.108C535.514 226.355 530.481 208.774 531.048 187.364L531.26 174.391C531.686 148.445 544.801 130.864 570.605 121.648L599.103 116.331H600.592C645.395 118.174 670.491 130.438 675.879 153.124L679.069 192.681C675.666 195.233 672.405 196.509 669.286 196.509H623.136L617.819 191.405L618.457 174.391C618.599 163.899 615.054 158.653 607.823 158.653C598.749 158.653 594.07 163.899 593.787 174.391L593.574 185.025C593.29 196.651 599.033 205.867 610.8 212.673C612.077 214.657 619.662 219.407 633.557 226.922C660.495 242.943 675.028 257.405 677.155 270.307C679.849 274.986 681.054 285.478 680.77 301.783L680.132 324.327C679.991 333.542 678.289 341.482 675.028 348.146L676.091 351.974L673.539 353.888L673.327 352.825L672.689 352.399C668.719 358.354 663.26 363.033 656.313 366.436C646.672 374.518 629.799 378.842 605.696 379.409L609.737 385.577L611.226 390.894V390.256L706.717 395.998L762.225 391.744C761.516 385.931 760.878 380.189 760.31 374.518L759.247 375.368L756.057 374.943L755.206 371.966C754.923 370.831 755.844 369.343 757.971 367.499L759.247 368.35C754.568 329.927 750.386 301.429 746.699 282.855L744.573 280.09L746.487 272.434C744.643 266.621 743.297 256.2 742.446 241.171L749.039 239.257L752.654 250.741C751.804 259.815 752.725 268.889 755.419 277.964C753.859 286.187 753.647 297.104 754.781 310.715L757.546 313.267L767.541 396.423L734.364 400.039L735.002 402.378L732.45 404.292L732.237 403.229L728.409 400.889L707.993 398.975C707.709 400.251 707.071 401.244 706.079 401.953L702.25 399.826L611.226 398.337L595.275 414.5L586.981 415.564L576.56 380.898L578.049 378.133L579.963 377.495C559.971 373.383 545.226 362.608 535.726 345.169C531.615 332.408 529.275 313.551 528.708 288.597C532.111 286.045 535.301 284.769 538.279 284.769H584.429C588.966 284.769 591.589 287.038 592.298 291.575C591.447 292.425 590.596 293.772 589.746 295.615H591.022L592.298 296.892H592.51ZM801.782 419.605L802.845 423.007L796.04 424.921L795.827 423.858L797.103 421.093L801.782 419.605ZM779.877 436.831L779.026 437.044C779.026 434.066 781.436 431.798 786.257 430.238L791.999 428.537C792.566 430.664 788.525 433.428 779.877 436.831ZM764.777 448.741L758.184 451.931L754.568 452.994C754.001 451.293 755.561 449.663 759.247 448.103L764.139 446.614L764.777 448.741ZM748.826 458.311L747.55 460.863L739.894 463.203L739.256 461.076L746.274 456.61L748.826 458.311ZM525.305 280.09L526.369 280.728L527.22 283.28L525.943 285.407L523.604 283.28L525.305 280.09ZM514.884 260.312L515.948 260.737L516.16 261.588L515.735 262.651L512.332 263.714L511.907 262.013L514.884 260.312Z" fill="#171C22"/>
<path d="M880.117 713.426L881.606 714.064L883.307 713.426L900.959 714.064H910.104L911.593 713.426H913.081V714.064L914.57 713.426H916.059L942.856 714.064L960.72 713.426L974.119 714.064L1015.8 713.426H1018.78L1020.27 714.064L1021.76 713.426H1081.52V725.123H1080.03L984.54 725.761V725.123L983.051 725.761L975.608 725.123H972.63L966.675 725.761L960.72 725.123H954.766L948.811 725.761L944.345 725.123L942.856 725.761V725.123L941.367 725.761H936.901V725.123L926.267 725.761H872.886V713.426H880.117ZM981.775 440.14C1015.94 442.692 1037.5 448.008 1046.43 456.09C1073.37 471.261 1084.07 483.809 1078.54 493.733L1065.14 507.77C1057.91 519.538 1049.76 525.422 1040.69 525.422L1006.45 503.729C1000.77 501.035 992.551 499.688 981.775 499.688H976.246C969.157 499.688 959.657 506.281 947.747 519.467C940.091 531.66 936.263 545.626 936.263 561.364V585.183C943.352 618.219 958.523 634.736 981.775 634.736H989.431C1008.86 641.4 1023.1 631.83 1032.18 606.025C1023.96 603.899 1013.46 602.835 1000.7 602.835V604.962L998.789 602.835H977.947C975.111 602.835 972.63 596.951 970.503 585.183C970.503 562.498 974.261 551.155 981.775 551.155L983.689 553.282L1034.94 551.155H1040.69L1061.53 553.282L1067.06 551.155C1077.27 551.155 1082.37 557.819 1082.37 571.147V609.003L1080.46 610.917L1082.37 613.044V636.863C1082.37 646.504 1073.51 657.705 1055.79 670.466C1048.7 678.973 1036.72 685.636 1019.84 690.457L989.431 696.199V694.285L987.517 696.199H981.775L979.861 694.285H977.947V696.199C948.74 691.52 928.536 684.29 917.335 674.507C900.037 661.321 889.333 648.064 885.221 634.736C875.013 614.745 869.909 592.911 869.909 569.233V557.323L871.823 555.196L869.909 553.282C871.185 540.096 875.651 524.217 883.307 505.643C886.143 505.643 887.986 501.035 888.837 491.819C895.926 479.626 908.615 467.078 926.905 454.176C936.547 447.37 954.836 442.692 981.775 440.14Z" fill="#171C22"/>
<path d="M1208.91 557.536L1208.49 555.834L1201.89 548.391L1183.18 553.708L1187.86 578.165L1193.81 577.314L1195.51 576.889L1205.08 571.572L1209.76 557.323L1208.91 557.536ZM1199.13 582.631L1199.55 584.333L1202.96 583.269L1203.59 582.206L1203.38 581.355L1202.53 580.93L1199.13 582.631ZM1208.49 603.899L1210.61 606.025L1212.1 603.899L1211.46 601.347L1210.61 600.709L1208.49 603.899ZM1169.99 542.861L1171.06 555.409L1169.99 558.812C1169.99 586.318 1171.91 603.828 1175.73 611.342C1175.73 618.006 1180.55 625.308 1190.2 633.248L1203.59 639.841H1210.19L1218.06 641.117C1228.12 641.117 1235.35 639.203 1239.75 635.374C1243.01 635.374 1247.83 631.192 1254.21 622.827C1259.32 614.178 1261.87 606.096 1261.87 598.582L1263.99 552.006V548.603C1263.99 520.53 1256.27 502.524 1240.81 494.584C1240.81 492.741 1230.96 490.472 1211.25 487.779C1199.2 491.748 1191.19 495.151 1187.22 497.987C1175.73 512.165 1169.99 527.123 1169.99 542.861ZM1290.79 640.053L1294.19 658.131L1298.23 645.796L1297.81 642.393C1297.53 641.117 1295.19 640.337 1290.79 640.053ZM1299.51 607.089L1290.58 609.854L1290.79 610.704L1293.77 616.446L1294.83 626.442L1295.04 627.506L1297.17 628.994C1296.04 621.763 1296.89 615.17 1299.72 609.216L1299.51 607.089ZM1344.81 577.74L1346.72 579.866L1347.15 575.826H1345.02L1344.81 577.74ZM1349.7 665.574C1347.86 666.708 1346.8 668.481 1346.51 670.891L1350.13 673.443V674.507L1352.89 672.592L1352.04 667.276L1349.7 665.574ZM1379.9 637.714C1377.63 639.557 1376.57 640.975 1376.71 641.967L1377.35 645.157L1380.33 645.583L1383.94 643.243L1383.52 640.053L1379.9 637.714ZM1349.91 638.565L1348.43 641.329L1350.34 646.221L1352.25 645.796C1353.67 645.37 1354.17 644.023 1353.74 641.755C1352.32 639.203 1351.05 638.139 1349.91 638.565ZM1380.96 604.749L1379.26 605.175L1377.56 608.152L1377.99 610.066L1381.39 612.618C1383.94 610.775 1385.08 609.286 1384.79 608.152V607.089L1380.96 604.749ZM1349.28 606.238L1347.79 608.79L1348 609.854L1349.7 614.958L1351.62 614.32L1353.96 610.492L1353.74 609.216L1349.28 606.238ZM1379.48 757.662L1376.5 758.513C1372.67 760.072 1370.9 761.774 1371.18 763.617L1376.71 765.106L1381.18 760.64L1379.48 757.662ZM1377.99 664.936L1376.07 665.362L1374.37 668.339L1377.56 673.018L1379.48 672.38L1381.82 668.339L1381.6 667.276L1377.99 664.936ZM1295.68 731.503L1295.47 732.567L1301.21 734.693L1307.59 732.567C1307.88 730.723 1305.04 729.377 1299.09 728.526L1295.68 731.503ZM1335.45 571.785L1329.71 623.89C1328.29 623.89 1326.73 628.498 1325.03 637.714C1312.84 656.996 1301.07 670.324 1289.73 677.697C1283.49 682.517 1272.64 687.196 1257.19 691.733L1230.39 696.199H1205.51C1182.97 692.938 1168.57 689.536 1162.34 685.991C1153.4 683.722 1142.2 676.421 1128.73 664.086C1116.68 649.765 1110.66 640.195 1110.66 635.374C1103.71 622.756 1100.23 608.578 1100.23 592.84L1099.17 560.088V548.603C1099.17 517.695 1106.54 493.592 1121.29 476.294C1130.51 461.549 1143.62 450.773 1160.63 443.968C1174.1 437.162 1191.54 433.759 1212.95 433.759C1243.15 433.759 1265.2 438.013 1279.09 446.52C1282.92 446.52 1291.22 452.191 1303.98 463.534C1314.19 472.891 1320.92 482.887 1324.18 493.521C1325.74 493.521 1327.02 497.349 1328.01 505.005C1330.42 505.005 1332.33 512.661 1333.75 527.974C1334.46 527.974 1335.03 531.022 1335.45 537.119V463.534C1335.45 461.549 1335.59 459.422 1335.88 457.153V461.407L1336.52 460.344V447.37L1335.88 456.09V437.8H1339.28V714.277L1378.41 716.616L1434.56 712.363C1434.42 706.549 1434.35 700.807 1434.35 695.136L1433.28 695.987L1430.31 695.561L1429.67 692.584C1429.53 691.45 1430.59 689.961 1432.86 688.118L1434.13 688.968C1433.85 650.545 1433 622.047 1431.58 603.473L1429.67 600.709L1432.43 593.052C1431.44 587.239 1431.37 576.818 1432.22 561.789L1439.02 559.875L1441.15 571.36C1439.31 580.434 1439.24 589.508 1440.94 598.582C1438.39 606.805 1436.9 617.723 1436.47 631.334L1439.02 633.886V717.041L1405.63 720.657L1406.06 722.996L1403.3 724.91L1403.08 723.847L1399.47 721.508L1379.48 719.593C1378.91 720.87 1378.13 721.862 1377.14 722.571L1373.52 720.444L1339.28 719.806V810.618C1339.28 806.223 1339.14 804.025 1338.86 804.025V807.215L1339.28 813.808V819.125H1338.43C1338.43 815.864 1338.22 813.737 1337.79 812.745V819.125H1337.37C1337.37 816.289 1337.22 814.163 1336.94 812.745V819.125H1335.88V814.872L1335.45 812.745V770.848C1335.74 741.499 1335.74 726.824 1335.45 726.824V720.444H1281.01L1264.84 735.119L1256.34 736.182L1253.57 720.657L1116.19 720.87L1115.76 705.557L1250.6 705.344L1249.96 701.516L1251.87 698.751L1256.55 697.263C1267.75 694.002 1275.19 694.569 1278.88 698.964L1282.07 705.344H1335.45V571.785Z" fill="#171C22"/>
<path d="M974.216 386.878C975.316 385.324 976.262 383.667 977.041 381.931C979.216 375.566 984.857 373.119 990.272 371.589C994.04 370.526 998.036 369.257 1002.37 369.561C1012.2 370.255 1019.1 374.869 1024.02 383.202C1026.46 386.953 1028.29 391.067 1029.44 395.391C1030.09 398.35 1030.89 401.785 1030.02 404.484C1026.64 414.971 1020.87 423.781 1009.96 427.942C1006.96 429.084 1003.83 429.931 1000.75 430.86C1000.23 431.038 999.675 431.035 999.163 430.853C991.254 427.01 983.604 422.632 979.012 414.838C977.04 411.493 975.213 407.624 975.701 403.42C976.288 398.318 974.109 392.952 977.155 388.091L974.216 386.878ZM989.952 411.409C993.979 411.409 997.518 412.024 1000.74 411.276C1006.7 409.893 1014.72 397.742 1014.27 391.574C1014.2 390.629 1013.89 389.254 1013.24 388.878C1010.25 387.158 1007.1 385.723 1004 384.186C1002.17 387.348 996.482 383.803 995.707 389.039C995.387 391.198 990.454 389.816 991.77 393.647C988.579 399.307 990.914 405.338 989.952 411.409V411.409Z" fill="#171C22"/>
<path d="M738.993 481.393C736.435 480.811 734.945 479.743 735.864 476.711C736.437 476.518 736.988 476.261 737.505 475.946C742.717 472.178 749.127 471.614 754.998 469.748C756.487 469.387 758.034 469.338 759.543 469.606C761.052 469.874 762.488 470.452 763.762 471.304C770.426 476.408 777.818 480.845 780.968 489.607C783.572 496.843 782.523 506.131 777.925 512.049C775.253 515.486 771.515 517.644 768.769 521.136C764.263 520.407 759.52 522.237 755.034 519.525C752.941 518.26 743.83 513.442 742.049 512.11C737.894 509.007 736.274 504.468 734.72 499.864C734.4 498.917 733.889 497.706 734.209 496.921C736.27 491.881 734.804 485.826 738.993 481.393Z" fill="#171C22"/>
<path d="M1152.6 320.808L1156.07 322.011L1153.77 329.265L1149.46 329.765L1150.99 331.821C1148.27 335.178 1145.13 337.758 1140.29 337.542C1139.04 337.601 1137.8 337.88 1136.64 338.366C1133.48 339.59 1129.97 339.53 1126.86 338.199C1125.74 337.694 1123.62 337.119 1123.26 337.585C1120.24 341.483 1117.75 336.469 1114.8 337.144C1113.56 337.427 1112.38 334.175 1109.72 334.09C1108.3 334.04 1107.04 331.949 1105.53 331.097C1103.77 330.103 1103.08 327.443 1100.46 327.83C1099.23 323.86 1095.26 322.026 1093.26 318.732C1088.83 311.401 1088.82 300.86 1092.46 293.768C1095.7 287.482 1101.78 285.643 1107.37 289.87C1110.08 291.925 1112.14 293.555 1115.22 291.079C1116.29 292.763 1117.28 292.084 1118.05 290.878C1119.28 288.957 1121.16 288.842 1122.98 289.226C1129.35 290.563 1135.81 292.367 1140.93 296.204C1145.44 299.58 1148.66 304.661 1152.46 308.992C1152.15 312.828 1157.03 316.456 1152.6 320.808ZM1102.64 315.547C1109.03 321.65 1119.72 325.054 1128.51 324.722C1130.42 324.701 1132.31 324.29 1134.06 323.513C1135.81 322.736 1137.39 321.609 1138.68 320.203C1140.3 318.536 1141.96 316.912 1143.64 315.228C1142.81 314.345 1142.11 313.355 1141.56 312.284C1140.31 308.142 1138.04 305.547 1133.36 305.188C1131.23 305.027 1129.22 303.64 1127.1 303.004C1125.71 302.588 1123.27 301.887 1122.93 302.398C1120.99 305.306 1119.93 300.745 1117.39 302.957L1111.02 308.945L1106.07 305.055C1101.03 307.572 1103.58 311.825 1102.64 315.544V315.547Z" fill="#171C22"/>
<path d="M1211.25 503.969C1213.67 502.706 1216.39 500.617 1220.36 502.233L1218.85 504.299C1220.42 504.703 1222.96 504.789 1223.15 505.5C1224.47 510.441 1230.05 511.84 1231.71 516.417C1234.53 524.162 1237 531.885 1232.86 539.907C1232.41 540.799 1231.93 541.002 1232.59 542.263C1234.42 545.743 1232.72 548.247 1229.53 550.052C1227.31 551.308 1228.54 552.564 1229.83 553.813L1221.54 564.463H1212.69C1211.05 562.706 1209.04 560.581 1207.07 558.423C1205.3 556.481 1202.98 555.27 1201.38 552.942C1199.71 550.505 1198.57 547.743 1198.03 544.836C1197.5 541.929 1197.58 538.942 1198.28 536.07C1199.23 531.503 1201.47 527.211 1202.6 522.662C1203.33 519.693 1204.06 517.304 1207.03 515.681C1208.22 515.03 1209.04 512.64 1209 511.065C1208.95 508.759 1210.56 507.893 1211.56 506.434C1211.89 505.957 1211.39 504.916 1211.25 503.969Z" fill="#171C22"/>
<path d="M1277.94 279.52L1274.55 284.465C1273.83 283.792 1273.19 282.752 1272.72 282.825C1266.98 283.684 1265.09 278.169 1261.23 275.963C1260.79 275.714 1260.49 274.144 1260.75 273.919C1264.77 270.493 1260.49 267.964 1259.96 265.002C1259.32 265.573 1258.75 266.081 1258.19 266.586C1258 266.394 1257.63 266.197 1257.64 266.015C1257.83 262.505 1255.92 258.683 1259.45 255.644C1260.25 254.952 1260.1 253.26 1260.69 252.2C1262.22 249.483 1262.63 245.897 1265.42 244.193C1268.29 242.441 1267.17 238.872 1270.03 236.813C1274.88 233.319 1282.46 231.548 1288.14 233.672C1296.39 236.755 1301.64 243.035 1304.72 250.628C1307.36 256.853 1308.22 263.685 1307.21 270.37C1306.54 274.274 1303.1 276.957 1300.06 279.305C1299.15 280.008 1296.87 278.926 1294.72 278.585C1294.8 279.493 1295.04 280.379 1295.44 281.2C1296.29 282.516 1296.63 283.75 1294.99 284.283C1293.31 284.822 1292.7 283.667 1292.8 282.019C1292.82 281.749 1292.07 281.431 1291.23 280.807L1286.97 284.363L1285.99 280.956L1279.18 287.263C1278.66 283.975 1278.32 281.86 1277.94 279.52ZM1292.8 251.284C1292.42 250.907 1291.88 250.599 1291.7 250.143C1290.38 246.802 1286.85 247.358 1284.4 246.459C1283.08 245.978 1280.76 248.162 1278.93 249.21C1278.12 249.675 1276.49 252.343 1275.41 254.277C1274.57 255.78 1273.65 258.231 1272.52 258.379C1269.98 258.71 1270.5 260.126 1270.27 261.642C1269.98 262.656 1269.56 263.627 1269.01 264.527C1274.65 270.258 1279.95 267.857 1285.76 265.159C1292.1 262.213 1293.2 257.295 1292.8 251.284V251.284Z" fill="#171C22"/>
<path d="M872.4 362.558L875.041 364.79C875.554 363.762 875.934 361.967 876.609 361.85C878.321 361.549 880.624 361.368 881.89 362.266C885.687 364.967 889.685 367.747 892.499 371.363C895.121 374.983 897.037 379.066 898.146 383.396C898.797 386.182 898.394 389.111 897.014 391.617C894.076 397.68 891.128 403.117 884.994 406.682C882.28 408.259 879.235 408.329 876.659 409.921C875.558 410.477 874.409 410.933 873.227 411.283L871.653 408.492C870.74 409.79 870.132 409.634 868.741 408.677C866.244 406.952 861.389 402.534 859.281 400.813C852.509 395.281 856.412 388.4 856.704 382.093C856.777 380.508 859.307 379.039 860.798 377.412C866.333 380.387 869.195 385.141 871.131 390.392C876.557 389.716 877.439 384.65 880.42 381.828C881.079 381.205 880.631 379.411 880.757 376.844L874.977 382.618C870.895 382.329 871.386 377.408 867.948 377.11C867.891 373.921 867.344 370.633 867.966 367.582C868.325 365.851 870.593 364.509 872.4 362.558Z" fill="#171C22"/>
<path d="M1179.99 153.287L1186 147.28H1195.98C1197.02 142.926 1193.8 144.689 1191.72 144.113C1191.95 143.552 1192.01 142.881 1192.38 142.566C1194.92 140.381 1191.15 139.531 1191.51 137.313C1193.21 133.265 1197.96 132.528 1201.53 130.323C1202.54 129.698 1204.51 130.041 1205.8 130.551C1212.33 133.133 1214.69 138.993 1217.33 144.904C1219.02 148.703 1217.44 153.191 1220.41 156.513C1219.23 160.852 1218.78 165.592 1216.69 169.434C1214.46 173.517 1209.71 175.74 1205.23 176.187C1202.76 176.433 1200.6 179.343 1198.17 177.456C1196.1 175.858 1193.2 176.756 1191.32 174.227C1189.98 172.422 1187.01 172.3 1186.2 169.148C1185.81 167.592 1182.83 167.345 1181.49 164.873C1179.33 160.886 1180.93 157.08 1179.99 153.287Z" fill="#171C22"/>
<path d="M1144.34 410.643L1141.52 405.156C1142.43 400.345 1147.9 401.676 1149.69 397.938C1151.44 394.271 1156.77 395.834 1159.63 392.133L1156.28 389.884C1156.45 389.679 1156.67 389.109 1156.98 389.052C1162.4 388.066 1166.36 390.965 1170.04 394.257C1173.12 396.997 1174.88 400.745 1177.19 404.057C1178.49 405.923 1176.22 407.636 1178.18 408.824C1178.98 409.305 1179.6 410.03 1179.96 410.892C1180.31 411.753 1180.38 412.706 1180.15 413.608C1179.79 415.789 1181.85 418.139 1181.48 419.273C1180.61 421.94 1180.54 424.734 1179.64 427.323C1178.1 432.17 1175.38 436.56 1171.74 440.103C1169.57 442.137 1166.51 442.822 1162.68 442.152C1153.44 440.535 1153.33 440.633 1149.16 436.054C1145.88 432.525 1143.7 428.11 1142.9 423.356C1142.4 420.511 1140.72 418 1142.72 415.183C1140.03 412.603 1144.1 412.666 1144.34 410.643ZM1151.7 405.476C1152.71 409.473 1153.58 412.822 1154.37 416.199C1154.54 416.957 1154.74 418.163 1154.34 418.532C1150.8 421.814 1154.09 424.514 1154.95 427.412C1161.15 427.512 1160.98 427.124 1164.15 422.597C1167.94 417.21 1167.29 411.349 1167.18 405.486C1166.94 404.24 1166.25 403.127 1165.23 402.366C1163.42 400.831 1160.43 403.203 1158.78 400.653C1158.21 401.512 1157.65 402.371 1157.09 403.23C1153.96 401.134 1153.17 404.486 1151.7 405.476Z" fill="#171C22"/>
<path d="M928.499 192.285C935.828 196.413 937.512 199.853 933.49 206.141C931.413 209.386 933.981 213.041 931.05 215.704C930.616 216.098 931.755 218.246 932.192 219.574C933.394 223.227 934.579 223.552 938.553 222.506C946.139 220.508 949.733 215.143 951.559 207.868C948.733 207.068 945.884 206.299 943.061 205.449C939.617 204.412 940.873 200.539 939.458 198.765L944.65 193.575C949.56 190.835 952.603 196.192 957.076 197.407C960.359 202.707 964.94 207.304 964.465 214.401C963.866 223.366 960.004 230.833 950.214 234.423C942.043 237.419 935.578 236.162 928.567 229.932C924.294 226.136 920.813 222.223 920.658 215.481C920.455 206.58 922.157 198.757 928.499 192.285Z" fill="#171C22"/>
<path d="M917.263 522.306C910.28 524.361 906.202 519.649 901.506 516.843C897.198 514.268 896.637 509.193 895.363 505.018C894.186 501.159 896.563 497.14 897.96 493.408C899.33 490.312 900.906 487.31 902.676 484.423L899.897 483.415C901.082 482.168 902.128 481.066 903.428 479.697L897.879 478.694C899.438 477.533 900.54 476.034 901.532 476.102C904.322 476.29 907.049 475.326 909.982 476.927C917.44 480.997 921.259 487.814 924.008 495.123C927.87 505.385 925.805 514.715 917.263 522.306Z" fill="#171C22"/>
<path d="M1006.67 560.501C1005.9 562.041 1005.24 563.362 1004.48 564.893C1007.03 567.422 1008.96 570.51 1010.11 573.913C1011.26 577.315 1011.61 580.94 1011.12 584.498C1010.92 586.299 1010.96 587.852 1009.62 589.541C1007.06 592.745 1006.71 597.419 1001.75 599.116C999.603 599.849 997.256 600.455 995.813 599.713C991.786 597.644 987.156 596.047 984.66 591.907C983.244 589.833 982.331 587.459 981.991 584.972C981.121 576.032 984.752 568.614 989.299 561.501C990.515 559.834 992.187 558.553 994.113 557.812C996.484 556.74 997.953 555.871 1000.33 557.644C1002.05 558.938 1004.33 559.49 1006.67 560.501Z" fill="#171C22"/>
<path d="M1296.93 376.072C1293.75 373.625 1291.89 369.208 1286.93 369.391C1285.69 367.241 1283.72 365.209 1283.35 362.917C1282.44 357.357 1283.75 352.395 1289.49 349.672C1290.18 349.35 1290.63 348.575 1291.37 347.837L1289.39 347.162L1294.23 342.32L1293.12 341.002C1293.84 340.809 1294.58 340.721 1295.32 340.741C1298.55 341.298 1302.27 339.098 1305.02 342.399C1308.68 346.545 1311.18 351.583 1312.27 357.004C1313.65 364.496 1306.42 372.781 1300.92 375.451C1299.52 376.132 1297.78 373.385 1296.93 376.072Z" fill="#171C22"/>
<path d="M1083.54 474.081C1083.47 475.534 1083.47 476.99 1083.57 478.442C1084.41 483.905 1079.85 485.839 1076.68 488.245C1073.53 490.635 1070.51 487.121 1067.56 486.251C1064.81 485.44 1062.54 482.794 1060.22 480.771C1056.31 477.37 1054.85 469.288 1057.32 464.443C1057.89 463.342 1057.29 461.466 1059.9 461.221C1061.46 461.076 1062.93 458.586 1064.19 456.954C1067.48 452.697 1070.36 452.208 1073.88 455.927C1076.18 458.359 1078.85 460.347 1080.49 463.606C1082.39 467.384 1084.53 470.809 1083.54 474.081Z" fill="#171C22"/>
<path d="M995.816 290.797C999.296 294.537 1003.18 297.77 1005 303.032C1007.27 309.549 1006.03 313.107 1000.49 316.907C994.174 321.237 989.946 320.487 984.432 314.865C983.683 314.101 982.92 313.351 982.316 312.747C981.403 309.927 983.498 306.672 980.489 304.465C978.824 297.033 983.85 290.943 991.776 290.801C993.118 290.778 994.455 290.797 995.816 290.797Z" fill="#171C22"/>
<path d="M1070.66 208.047L1073.88 205.535C1072.85 204.664 1071.81 203.791 1070.8 202.941C1071.21 202.484 1071.71 201.925 1072.41 201.145L1067.01 199.965C1069.3 193.84 1074.9 193.395 1079.3 191.395C1080.15 191.004 1082 192.135 1083.06 192.978C1087.29 196.374 1090.6 200.774 1092.69 205.776C1092.98 206.437 1093.36 207.64 1093.09 207.873C1089.28 211.117 1094.3 217.397 1089.32 219.569C1088.34 219.994 1086.15 217.489 1083.52 217.306L1086.86 220.971C1084.91 222.268 1083.06 223.613 1081.09 224.728C1080.31 224.955 1079.5 224.965 1078.72 224.756C1078.25 224.704 1077.39 224.346 1077.41 224.23C1078.06 219.831 1072.81 223.101 1072.23 220.213C1071.94 218.785 1070.86 217.473 1070.73 216.061C1070.49 213.415 1070.66 210.729 1070.66 208.047Z" fill="#171C22"/>
<path d="M1082.09 90.0942V86.5546H1089.26C1092.9 92.0136 1097.87 97.1907 1096.11 105.418L1091.5 105.705V99.0655C1090.21 99.311 1089.21 99.206 1088.85 99.6364C1088.24 100.347 1088.18 101.499 1087.64 102.289C1086.63 103.747 1086.09 103.417 1084.74 101.256C1083.69 99.767 1082.55 98.3429 1081.33 96.9908L1085.23 95.1913C1081.84 93.5186 1081.91 93.5768 1084.7 90.6766C1085.18 90.1741 1084.9 88.9421 1085.04 87.3755L1082.09 90.0942Z" fill="#171C22"/>
</svg>
