<svg width="205" height="822" viewBox="0 0 205 822" fill="none" xmlns="http://www.w3.org/2000/svg">
<path d="M0.416049 762.968C6.75205 759.512 14.624 755.576 24.0321 751.16C33.248 746.552 43.328 741.848 54.272 737.048C65.024 732.056 76.064 727.16 87.392 722.36C98.72 717.56 109.376 713.048 119.36 708.824C109.376 704.6 98.72 700.088 87.392 695.288C76.064 690.488 65.024 685.688 54.272 680.888C43.328 675.896 33.248 671.192 24.032 666.776C14.624 662.168 6.75204 658.136 0.416044 654.68L0.416042 613.784C13.664 611.864 28.544 610.136 45.056 608.6C61.376 606.872 78.464 605.432 96.32 604.28C113.984 602.936 131.744 601.784 149.6 600.824C167.456 599.672 184.256 598.712 200 597.944V641.72C180.608 642.296 159.488 643.064 136.64 644.024C113.792 644.984 90.752 646.424 67.5201 648.344C75.584 651.8 84.512 655.64 94.304 659.864C104.096 664.088 113.888 668.312 123.68 672.536C133.472 676.568 142.88 680.504 151.904 684.344C160.736 688.184 168.32 691.448 174.656 694.136V725.528C168.32 728.216 160.736 731.48 151.904 735.32C142.88 739.16 133.472 743.192 123.68 747.416C113.888 751.448 104.096 755.576 94.304 759.8C84.512 764.024 75.584 767.864 67.5201 771.32C90.752 773.24 113.792 774.68 136.64 775.64C159.488 776.6 180.608 777.368 200 777.944V821.72C184.256 820.952 167.456 820.088 149.6 819.128C131.744 817.976 113.984 816.824 96.3201 815.672C78.4641 814.328 61.376 812.888 45.056 811.352C28.544 809.624 13.6641 807.8 0.416051 805.88L0.416049 762.968Z" fill="#171C22"/>
<path d="M200 556.051H0.41604L0.416034 421.267H38.144L38.144 511.123H77.312V431.347H114.176V511.123H162.272V414.643H200V556.051Z" fill="#171C22"/>
<path d="M200 246.035C177.152 258.899 154.592 272.819 132.32 287.795C110.048 302.771 89.024 318.707 69.248 335.603H200V379.955H0.416032L0.416031 343.379C6.75203 337.043 14.528 330.035 23.744 322.355C32.96 314.675 42.848 306.899 53.408 299.027C63.776 290.963 74.624 282.995 85.952 275.123C97.088 267.251 107.84 259.859 118.208 252.947H0.416027L0.416025 208.307H200V246.035Z" fill="#171C22"/>
<path d="M204.032 82.7795C204.032 96.7955 202.112 108.891 198.272 119.067C194.24 129.243 188.768 137.691 181.856 144.411C174.752 150.939 166.4 155.836 156.8 159.1C147.008 162.172 136.256 163.708 124.544 163.708H0.416023L0.416021 118.78L120.8 118.78C128.864 118.78 135.776 117.916 141.536 116.188C147.104 114.268 151.712 111.772 155.36 108.7C158.816 105.435 161.312 101.595 162.848 97.1795C164.384 92.5715 165.152 87.5795 165.152 82.2035C165.152 71.2595 161.792 62.4275 155.072 55.7075C148.352 48.7955 136.928 45.3395 120.8 45.3395L0.416018 45.3395L0.416016 0.411504L124.544 0.411499C136.256 0.411499 147.008 2.0435 156.8 5.3075C166.592 8.5715 175.04 13.5635 182.144 20.2835C189.056 27.0035 194.432 35.5475 198.272 45.9155C202.112 56.2835 204.032 68.5715 204.032 82.7795Z" fill="#171C22"/>
</svg>
