<svg width="742" height="319" viewBox="0 0 742 319" fill="none" xmlns="http://www.w3.org/2000/svg">
<path d="M7.23792 91.1314L4.18442 95.0934H0V82.302C4.82528 82.302 7.23792 85.2451 7.23792 91.1314ZM20.2436 167.88L21.1483 168.559L22.053 167.88L33.2492 168.559H38.7907L39.6955 167.88H40.7133V168.559L41.618 167.88H42.6359L59.2605 168.559L70.4566 167.88L78.8255 168.559L104.837 167.88H106.759L107.664 168.559L108.569 167.88H145.776V174.559H144.872L85.2718 174.898V174.559L84.367 174.898L79.7302 174.559H77.8077L74.1887 174.898L70.4566 174.559H66.7246L62.9925 174.898L60.1652 174.559L59.2605 174.898V174.559L58.3557 174.898H55.5284V174.559L49.0822 174.898H15.7199V167.88H20.2436ZM19.7912 79.9248C20.0174 78.4155 20.5074 76.7175 21.2614 74.8309C21.186 69.3219 24.2018 61.8885 30.3088 52.5308C35.5864 46.4935 40.9395 42.5693 46.3679 40.7581V40.3053L48.5167 39.7393V40.1921L49.3083 39.9657C54.6614 38.8337 60.0144 38.7205 65.3675 39.6261C65.7445 39.6261 66.0837 39.7016 66.3853 39.8525C67.8932 40.2299 69.7781 40.6072 72.0399 40.9845C72.0399 41.7392 73.8871 42.758 77.5815 44.0409C86.0257 49.7008 91.0772 56.6436 92.7359 64.8694L93.5275 69.2841H93.3013V69.3973L88.4383 69.9633L80.8612 70.1897V69.6237C80.635 64.1147 77.5815 58.7944 71.7007 53.6627C69.288 52.7572 68.0817 51.9648 68.0817 51.2856C66.5738 51.0592 65.3298 50.7573 64.3496 50.38C64.1235 50.38 63.8973 50.3423 63.6711 50.2668C60.2029 49.5876 56.697 49.7008 53.1535 50.6064L52.4749 50.7196V50.38L51.2309 50.8328V51.1724C47.6873 52.5308 43.8045 56.2286 39.5824 62.2658C35.5864 69.4351 33.6639 75.1327 33.8147 79.3588C32.9853 81.3209 32.6083 82.9811 32.6837 84.3395L32.7968 99.9609H32.5706C32.7214 100.867 33.023 101.848 33.4754 102.904C33.4 107.206 35.3603 112.903 39.3562 119.997C42.8244 126.034 46.3302 129.77 49.8738 131.204V131.43L51.2309 131.883V131.543L51.7964 131.657C55.3399 132.562 58.8081 132.675 62.2009 131.996C62.5025 131.921 62.7286 131.883 62.8794 131.883C63.8596 131.506 65.1413 131.204 66.7246 130.977C66.7246 130.298 67.9309 129.543 70.3435 128.713C76.149 123.506 79.1648 117.884 79.3909 111.847L79.504 111.168L87.986 112.3L92.9621 112.866V112.979L93.3013 113.092L92.3966 117.393C90.8133 125.619 85.7995 132.562 77.3553 138.222C73.6609 139.505 71.8138 140.524 71.8138 141.278C69.4765 141.656 67.5916 142.033 66.1591 142.41C65.7822 142.561 65.4052 142.674 65.0282 142.75C59.7505 143.58 54.3975 143.429 48.9691 142.297L48.1774 142.071V142.524L46.0287 141.958V141.618C40.5248 139.731 35.1718 135.807 29.9695 129.845C23.8625 120.488 20.8467 113.016 20.9221 107.432C19.7912 104.64 19.2634 102.338 19.3388 100.527L19.565 79.8116L19.7912 79.9248Z" fill="#171C22"/>
<path d="M110.039 37.7018L109.134 37.5886H110.265L117.842 39.9657L127.908 37.5886L132.431 39.0601L135.485 38.3809L151.657 40.7581L156.633 39.0601L166.133 40.7581L170.657 39.9657C178.422 39.9657 184.303 45.1351 188.299 55.4739C189.128 59.8509 189.543 64.5298 189.543 69.5105C189.543 80.6795 185.623 88.4901 177.781 92.9426C175.52 92.9426 173.899 94.4519 172.918 97.4706C172.918 99.5836 174.049 102.451 176.311 106.074C177.593 110.602 178.762 118.148 179.817 128.713L186.603 151.353L176.764 150.561C174.351 150.032 171.561 142.75 168.395 128.713C168.395 116.111 166.321 106.866 162.175 100.98C158.933 96.5272 152.637 95.433 143.288 97.697L141.592 96.1122L138.425 97.0178L125.42 96.1122H121.801C118.936 98.3007 117.503 103.734 117.503 112.413L116.938 120.789V128.713C118.069 131.807 118.069 138.863 116.938 149.881L114.902 150.561L112.188 149.881H111.396V150.561L108.23 149.881C106.797 145.806 106.495 136.637 107.325 122.374V121.695L106.759 117.846L108.23 87.3959L107.325 70.9821L108.23 62.4922L105.289 46.3048C105.968 40.5695 107.551 37.7018 110.039 37.7018ZM117.842 61.1338V63.511L117.503 72.2273C117.051 80.604 118.144 84.7923 120.783 84.7923H128.812L138.425 85.8111L143.741 84.7923L164.889 84.5659C171.976 83.8113 175.52 81.6228 175.52 78.0004C177.178 78.0004 178.196 75.0195 178.573 69.0577C178.573 59.5491 174.162 53.8891 165.341 52.078H163.645L159.574 52.8704L153.919 50.4932L148.49 51.2856L142.61 49.5876L138.425 52.078C135.711 50.4177 132.658 49.3989 129.265 49.0216C122.253 49.7008 118.747 50.9837 118.747 52.8704L117.842 61.1338Z" fill="#171C22"/>
<path d="M231.84 36.7962L231.727 37.815L235.685 38.2677L235.798 37.249L231.84 36.7962ZM232.179 33.853L237.155 34.419L237.042 35.3246L232.066 34.8718L232.179 33.853ZM294.945 42.9089L293.927 43.7013L294.945 44.4937V42.9089ZM294.832 59.0963L292.797 58.9831V59.8887L294.832 60.0019V59.0963ZM294.832 60.681H292.797L293.814 61.5866L294.041 65.0958L293.023 64.1902L292.91 65.8882H292.005L290.987 65.0958L281.035 66.0014H277.868L276.85 65.0958L275.72 66.0014L241.566 66.1146H231.161L230.143 65.0958L228.108 65.209V66.1146L230.03 66.0014V66.907H228.108L227.995 81.17H226.864L226.977 82.0756L227.881 82.7548L291.1 82.1888C293.287 82.1888 294.342 83.0189 294.267 84.6791L294.606 85.0187L294.832 60.681ZM294.493 103.696H294.154C294.078 106.64 293.362 108.073 292.005 107.998L288.838 108.111L287.82 107.206L287.707 109.017L286.576 108.224C249.331 108.224 229.955 108.489 228.447 109.017L229.578 108.224H228.56L227.542 109.13L227.09 127.921H228.108L229.012 128.713L230.143 127.808L230.03 129.732L231.161 129.619L231.274 127.808H232.405L232.292 129.619L252.875 128.487L252.762 129.506L274.023 129.393L293.588 129.506H294.267L294.493 103.696ZM294.041 155.202L274.928 155.655L273.797 156.56L272.666 155.541L253.667 156.447L248.464 155.768L239.982 155.655L238.964 156.447H237.834V155.655L236.703 156.56L235.685 156.447L234.667 155.655L233.536 155.768V156.56L232.518 155.768L220.87 155.655L219.739 156.447L216.685 155.655L199.269 155.768L200.287 154.862L199.156 154.07L199.269 153.164L199.834 139.92L198.817 139.014L200.965 137.203H199.948L198.93 138.109L199.043 110.715L200.174 109.696V108.904L199.043 109.017L200.287 108.111L200.174 107.206L199.156 104.602H200.174L199.156 103.696C198.93 62.4168 199.382 41.7769 200.513 41.7769L203.68 42.5693L202.549 41.7769V40.8713L292.91 40.9845L294.945 41.0977V42.0033L292.797 41.8901V42.7957H294.945L295.285 1.70464C295.36 0.497186 295.662 -0.0688069 296.189 0.00665874H296.755L296.076 85.6979H296.302V106.187H295.85L295.624 132.562L295.737 153.391L295.398 153.617L295.285 169.578H295.85V174.672H295.285L294.832 226.63L271.874 226.517L271.988 225.272L272.214 223.913L292.683 223.8V224.253C293.211 223.876 293.475 223.536 293.475 223.234L293.927 174.672L248.917 174.898V174.672L248.238 174.898L244.732 174.672H243.149L240.435 174.898L237.494 174.672H234.554L231.727 174.898L229.465 174.672L228.786 174.898V174.672L228.108 174.898H225.959V174.672L220.983 174.898H195.085V169.578H198.59L199.269 170.031L199.948 169.578L208.656 170.031H212.953L213.632 169.578H214.423V170.031L215.102 169.578H215.894L228.786 170.031L237.494 169.578L243.941 170.031L264.184 169.578H265.654L266.333 170.031L267.011 169.578H293.927L294.041 155.202ZM238.173 34.419L242.131 34.8718L242.018 35.8906L238.06 35.4378L238.173 34.419Z" fill="#171C22"/>
<path d="M383.157 159.164L382.818 175.691L296.529 174.219L296.642 157.579L383.157 159.164ZM326.385 39.3997L348.551 39.7393C349.682 39.7393 350.662 43.173 351.492 50.0404C352.698 51.7761 353.942 55.2098 355.224 60.3415C356.279 60.4169 357.41 64.5298 358.616 72.6801C359.596 72.6801 360.727 76.1515 362.009 83.0944C363.366 83.0944 364.12 85.8488 364.271 91.3578C365.854 93.7727 367.701 99.0553 369.813 107.206C370.34 107.206 371.283 110.677 372.64 117.62C373.62 117.62 374.939 121.733 376.598 129.959C377.578 129.959 378.257 132.713 378.634 138.222C380.669 138.222 381.989 142.599 382.592 151.353L380.104 151.919L367.211 151.806C364.045 151.73 361.557 149.429 359.747 144.901L360.2 144.108L360.087 138.109L354.658 129.845L320.504 129.279C317.488 134.185 316.018 138.75 316.094 142.976C315.415 142.976 314.774 144.788 314.171 148.41C312.814 150.146 311.118 151.013 309.082 151.013H301.278C298.79 150.938 297.433 150.221 297.207 148.863C297.132 144.712 298.225 140.184 300.487 135.279C300.411 133.392 301.542 129.959 303.88 124.978C303.804 120.45 304.747 116.79 306.707 113.998L309.534 101.659C309.534 99.4704 310.665 95.5839 312.927 89.9995C312.776 85.0942 313.719 81.6982 315.754 79.8116C315.679 76.5666 316.697 73.3593 318.808 70.1897C318.582 65.5863 319.675 60.3415 322.087 54.4551C321.937 52.5685 322.879 49.6253 324.915 45.6256C324.839 41.475 325.329 39.3997 326.385 39.3997ZM326.611 108.677V110.149L328.194 112.3L336.563 112.413L338.599 111.62L340.748 112.3L349.456 112.526L351.039 110.375L350.926 108.338C350.926 106.451 349.607 101.848 346.968 94.5274C346.968 91.9616 346.101 89.6976 344.367 87.7355C344.216 82.0756 342.859 77.2835 340.295 73.3593C339.918 69.6615 339.202 67.7748 338.147 67.6994H337.242C333.849 74.0385 332.228 80.1889 332.379 86.1507C330.645 86.1507 329.665 90.0372 329.439 97.8102C327.629 97.8102 326.687 101.433 326.611 108.677Z" fill="#171C22"/>
<path d="M397.633 65.0958C399.443 64.8694 400.348 64.3411 400.348 63.511L399.217 64.077L397.973 63.511H397.633V65.0958ZM384.175 174.446V179.539H383.157L381.8 136.411C381.725 133.392 381.536 131.506 381.235 130.751L380.783 116.148C381.009 116.148 381.084 115.545 381.009 114.337L381.687 25.3631H382.705L382.818 40.5317L383.497 39.9657H405.889C406.266 39.7393 406.681 39.6261 407.133 39.6261L427.829 39.8525L427.942 39.9657H448.864L449.317 41.8901V60.4547L448.864 62.4922L443.549 62.8318L436.311 62.4922H434.954L429.299 62.8318V154.862L426.924 155.655H406.681L404.306 154.749L403.853 145.806L404.306 135.279V127.129L403.853 115.582L404.306 109.922L403.853 103.357L404.306 95.0934L403.853 83.7735L404.306 78.34L403.853 68.7181L404.08 62.8318L400.461 62.6054L397.068 62.8318L388.134 62.4922L386.324 62.6054L383.949 62.945C383.572 62.7186 383.271 62.4922 383.044 62.2658L384.062 164.031L440.043 164.144C440.722 164.22 441.136 166.107 441.287 169.804L441.739 169.918L441.513 166.861L441.287 165.05L441.513 164.258L458.703 164.371L459.156 174.672L384.175 174.446Z" fill="#171C22"/>
<path d="M461.757 42.4561C462.661 40.2676 463.792 39.1733 465.15 39.1733L480.756 39.2865L482.34 41.6637V154.183L479.852 154.862H464.697L462.209 154.07L461.757 145.127L462.209 134.486V126.336L461.757 114.903L462.209 109.243L461.757 102.791L462.209 94.5274L461.757 83.2076L462.209 76.642L461.757 66.907L462.209 49.7008V46.5312L461.757 42.4561Z" fill="#171C22"/>
<path d="M496.476 165.956H502.809V174.785H496.815L496.476 165.956ZM504.506 165.956H510.952V174.785H504.958L504.506 165.956ZM517.738 165.956H523.279V168.786L522.487 174.785H518.19L517.738 165.956ZM532.666 168.786V165.956H540.356V168.786L539.451 174.785H533.57L532.666 168.786ZM542.052 165.956H543.296V168.786L542.505 174.785L542.052 171.955V165.956ZM547.142 165.956H548.838L548.386 174.785H547.594L547.142 165.956ZM552.683 165.956H555.284V168.786L554.38 174.785H553.135L552.683 165.956ZM558.225 168.786V165.956H563.314V168.786L562.522 174.785H559.129L558.225 168.786ZM565.915 168.786V165.956H567.611L567.159 174.785H566.707L565.915 168.786ZM572.701 168.786V165.956H574.058V174.785H573.605L572.701 168.786ZM576.546 165.956H580.391V174.785H576.998L576.546 165.956ZM582.087 168.786V165.956H583.331V174.785H582.992L582.087 168.786ZM585.932 165.956H591.474V168.786L590.682 174.785H586.385L585.932 165.956ZM595.771 168.786V165.956H599.164V174.785H596.563L595.771 168.786ZM600.861 168.786V165.956H602.105V174.785H601.765L600.861 168.786ZM609.003 168.786V165.956H615.336V168.786L614.545 174.785H609.795L609.003 168.786ZM618.39 165.956H619.634V168.786L618.729 174.785H618.39V165.956ZM622.122 168.786V165.956H627.324V174.785H623.027L622.122 168.786ZM630.265 168.786V165.956H635.354V168.786L634.562 174.785H631.169L630.265 168.786ZM637.05 165.956H638.407V168.786L637.503 174.785H637.05V165.956ZM642.252 168.786V165.956H643.949L643.496 174.785H643.044L642.252 168.786ZM524.184 153.843L523.053 153.391L514.345 120.903C505.524 81.2832 500.811 61.4734 500.208 61.4734L499.643 61.5866C496.099 47.1727 494.29 39.9657 494.214 39.9657L506.768 39.1733C508.652 39.1733 511.367 48.8707 514.91 68.2654L522.827 100.074L530.065 131.317L530.969 131.77L532.326 130.977L539.451 100.301L547.368 68.4917C550.911 49.0971 553.588 39.3997 555.397 39.3997L568.064 40.3053C567.988 40.3053 566.179 47.4746 562.635 61.813L562.07 61.6998C561.467 61.6998 556.754 81.5096 547.933 121.129L539.225 153.73L536.172 154.749H529.16L528.821 154.523H528.368L528.029 154.862L526.672 154.749C525.692 154.749 524.862 154.447 524.184 153.843Z" fill="#171C22"/>
<path d="M577.563 42.4561C578.468 40.2676 579.599 39.1733 580.956 39.1733L596.563 39.2865L598.146 41.6637V154.183L595.658 154.862H580.504L578.016 154.07L577.563 145.127L578.016 134.486V126.336L577.563 114.903L578.016 109.243L577.563 102.791L578.016 94.5274L577.563 83.2076L578.016 76.642L577.563 66.907L578.016 49.7008V46.5312L577.563 42.4561Z" fill="#171C22"/>
<path d="M626.985 65.0958C628.794 64.8694 629.699 64.3411 629.699 63.511L628.568 64.077L627.324 63.511H626.985V65.0958ZM613.527 174.446V179.539H612.509L611.152 136.411C611.077 133.392 610.888 131.506 610.586 130.751L610.134 116.148C610.36 116.148 610.436 115.545 610.36 114.337L611.039 25.3631H612.057L612.17 40.5317L612.848 39.9657H635.241C635.618 39.7393 636.032 39.6261 636.485 39.6261L657.181 39.8525L657.294 39.9657H678.216L678.668 41.8901V60.4547L678.216 62.4922L672.901 62.8318L665.663 62.4922H664.305L658.651 62.8318V154.862L656.276 155.655H636.032L633.657 154.749L633.205 145.806L633.657 135.279V127.129L633.205 115.582L633.657 109.922L633.205 103.357L633.657 95.0934L633.205 83.7735L633.657 78.34L633.205 68.7181L633.431 62.8318L629.812 62.6054L626.419 62.8318L617.485 62.4922L615.676 62.6054L613.301 62.945C612.924 62.7186 612.622 62.4922 612.396 62.2658L613.414 164.031L669.395 164.144C670.073 164.22 670.488 166.107 670.639 169.804L671.091 169.918L670.865 166.861L670.639 165.05L670.865 164.258L688.055 164.371L688.507 174.672L613.527 174.446Z" fill="#171C22"/>
<path d="M692.692 38.4941L693.144 37.815C695.18 37.815 700.684 50.7196 709.656 76.5288H710.108L723 40.0789L723.566 39.6261H723.905L733.066 38.9469L742 39.6261L719.268 100.867V142.637C719.268 143.467 712.596 143.693 699.251 143.316L698.799 100.527L675.841 39.5129C676.519 38.8337 682.136 38.4941 692.692 38.4941ZM740.869 159.164L740.643 175.691L686.811 174.219L686.924 157.579L740.869 159.164Z" fill="#171C22"/>
<path d="M59.8008 241.371L59.4992 242.729H59.2479C59.0804 242.729 57.4552 250.578 54.3724 266.275L51.3063 279.104L50.301 279.506L47.8884 279.456L47.7879 279.355H47.5868L47.4863 279.456H47.0339C46.6653 279.456 46.3637 279.305 46.1292 279.003L45.7271 278.852L42.7113 265.822C40.4327 254.183 38.9583 246.805 38.2881 243.685C37.5844 246.872 36.11 254.217 33.8649 265.721L30.8491 278.701L29.8439 279.154L27.3307 279.204L27.2302 279.104H27.0291L26.9286 279.305L26.4762 279.204C26.1076 279.204 25.8395 279.104 25.672 278.903L25.2196 278.701L22.2038 265.922C19.121 250.226 17.4958 242.377 17.3283 242.377L17.1272 242.428C15.8874 236.726 15.2507 233.875 15.2172 233.875L19.5399 233.774C20.2436 233.774 21.1986 237.48 22.4049 244.893L25.1694 257.521L27.6323 269.847L27.9841 270.098L28.4365 269.746L30.8994 257.47L33.7141 244.792C34.6189 239.292 35.3561 235.803 35.9257 234.328L35.6744 233.523H36.4786L40.9018 233.372L40.6505 234.378C41.2201 235.82 41.9573 239.325 42.8621 244.893L45.6768 257.672L48.1397 270.098L48.4413 270.299L48.9942 269.947V269.998L51.4068 257.873L54.1713 245.295C55.4447 237.883 56.3997 234.177 57.0363 234.177L59.8008 234.227H61.359L60.0019 240.415L59.8511 241.119L59.8008 241.371ZM67.5414 292.386H67.9937L67.6922 291.883H67.5414V292.386Z" fill="#171C22"/>
<path d="M70.3621 235.233C70.7643 234.26 71.2669 233.774 71.87 233.774L78.8064 233.824L79.5101 234.881V284.89L78.4043 285.191H71.669L70.5632 284.839L70.3621 280.865L70.5632 276.135V272.513L70.3621 267.432L70.5632 264.916L70.3621 262.049L70.5632 258.376L70.3621 253.345L70.5632 250.427L70.3621 246.1L70.5632 238.453V237.044L70.3621 235.233Z" fill="#171C22"/>
<path d="M99.0183 245.295C99.8225 245.195 100.225 244.96 100.225 244.591L99.722 244.842L99.1691 244.591H99.0183V245.295ZM93.0369 293.895V296.159H92.5846L91.9814 276.991C91.9479 275.649 91.8641 274.811 91.7301 274.475L91.529 267.985C91.6296 267.985 91.6631 267.717 91.6296 267.18L91.9311 227.636H92.3835L92.4338 234.378L92.7354 234.126H102.688C102.855 234.026 103.039 233.975 103.24 233.975L112.439 234.076L112.489 234.126H121.788L121.989 234.982V243.232L121.788 244.138L119.425 244.289L116.208 244.138H115.605L113.092 244.289V285.191L112.036 285.544H103.039L101.984 285.141L101.783 281.167L101.984 276.488V272.865L101.783 267.734L101.984 265.218L101.783 262.3L101.984 258.627L101.783 253.596L101.984 251.182L101.783 246.905L101.883 244.289L100.275 244.188L98.767 244.289L94.7962 244.138L93.9919 244.188L92.9364 244.339C92.7689 244.239 92.6348 244.138 92.5343 244.037L92.9867 289.267L117.867 289.317C118.169 289.35 118.353 290.189 118.42 291.832L118.621 291.883L118.52 290.524L118.42 289.719L118.52 289.367L126.16 289.417L126.362 293.996L93.0369 293.895Z" fill="#171C22"/>
<path d="M151.399 238.101V238.403L152.354 239.51L153.007 239.711L153.359 238.352L153.409 238.051L152.756 237.346L151.399 238.101ZM141.497 237.296V237.598C141.463 237.866 141.882 238.269 142.753 238.805L143.759 238.201L143.809 237.648L143.156 236.843L142.552 236.642L141.497 237.296ZM154.666 253.999L154.565 255.408L155.571 255.961V255.659L156.576 255.055C156.408 254.351 155.989 253.865 155.319 253.596L154.666 253.999ZM152.957 247.006C152.923 247.643 153.141 248.029 153.61 248.163L154.213 248.314L154.666 246.905L154.012 246.1C153.677 246.033 153.325 246.335 152.957 247.006ZM156.023 272.614L157.631 273.872L159.34 273.469C159.34 272.999 158.704 272.53 157.43 272.06L156.375 271.809L156.023 272.614ZM154.515 263.709C154.683 264.413 155.068 264.916 155.671 265.218L157.078 264.413V264.111L155.822 262.854C155.185 262.686 154.75 262.971 154.515 263.709ZM157.028 284.789L157.28 285.242V284.839L157.028 284.789ZM145.568 247.811H145.618L145.669 246.955C145.669 246.855 145.635 246.754 145.568 246.654V247.811ZM160.798 240.013L161.301 240.113L162.055 238.855L161.401 238.051L160.898 237.95L160.748 238.101H161.049L160.798 238.352V240.013ZM163.311 264.614L164.115 265.017L163.361 265.721L161.351 264.262C161.485 263.96 161.636 263.726 161.803 263.558L162.557 263.759V263.508L162.205 263.306C162.373 263.239 162.557 263.239 162.758 263.306L163.814 264.262L163.311 264.614ZM156.928 289.317C157.196 289.35 157.347 290.189 157.38 291.832L157.581 291.883L157.481 290.524L157.38 289.719L157.481 289.367L164.417 289.417L164.618 293.996L134.108 293.895L133.857 289.267L156.928 289.317ZM123.704 282.273C123.704 282.944 123.938 283.28 124.407 283.28H124.709L126.116 282.273H126.77V282.978L126.116 283.632L125.764 283.28L125.061 285.694H124.055L123.704 284.688H124.407V284.336C123.469 284.336 123 284.101 123 283.632V282.273H123.704ZM126.77 253.596H127.473V254.301L127.122 256.313L127.473 257.672H126.418V257.018L126.77 253.596ZM157.028 284.789H156.576L154.465 284.839L151.7 285.443L151.399 284.89L151.097 285.191L150.192 284.085V281.67L150.444 281.418L150.192 281.116L150.142 274.324L150.192 265.419L149.338 264.816L146.573 264.866L145.618 265.822V280.261L145.87 280.563L145.618 280.915V282.324L145.92 284.437C138.213 284.839 134.343 284.806 134.309 284.336L134.209 235.032L135.767 234.428L137.275 234.68L144.261 234.277L145.769 235.434L145.518 236.893L145.568 246.654C145.367 246.419 144.965 246.117 144.362 245.748L143.407 246.352L143.357 247.207L144.663 247.861L145.568 247.811V249.32L145.216 254.1L146.121 254.653L148.534 254.603C149.539 254.603 150.042 254.401 150.042 253.999L149.79 251.936V249.823L150.092 249.773L149.79 246.855V234.529L151.901 234.076L154.063 234.328L155.872 233.824L160.094 234.277C160.731 234.982 161.049 236.139 161.049 237.749L160.898 237.95L160.748 237.9L159.692 238.604V238.755L160.647 239.962L160.798 240.013V243.685L161.1 246.301L160.798 246.654V246.905L161.1 251.634V251.936L160.798 254.049L161.1 253.999L160.798 254.301L160.547 278.148L160.195 278.399L160.547 278.701H160.245L160.547 279.003L161.049 282.827C161.083 283.498 160.781 284.202 160.145 284.94L157.28 284.839L157.481 280.362C156.14 280.395 155.47 280.596 155.47 280.965L155.42 281.871L157.028 284.789ZM171.404 256.062L172.208 256.464L171.454 257.168L169.443 255.709C169.577 255.408 169.728 255.173 169.896 255.005L170.65 255.206V254.955L170.298 254.754C170.465 254.686 170.65 254.686 170.851 254.754L171.906 255.709L171.404 256.062ZM168.689 237.95L171.605 238.705V239.006L170.901 240.566L171.102 243.283V243.585L170.398 243.937C170.398 241.958 169.812 240.164 168.639 238.554L168.689 237.95ZM163.914 254.301L165.171 255.559V255.86L163.763 256.665C163.16 256.363 162.775 255.86 162.607 255.156C162.842 254.418 163.278 254.133 163.914 254.301ZM163.914 245.748C164.786 246.251 165.221 246.654 165.221 246.955L165.171 247.257L164.115 247.962L163.512 247.76L162.859 246.955V246.352L163.914 245.748ZM170.298 248.062L170.348 247.157L171.956 247.609C171.956 248.113 171.404 248.264 170.298 248.062ZM179.446 264.313H179.245L179.546 263.608L180.551 263.86L181.456 265.017L180.803 265.52L180.149 265.319L179.446 264.665V264.313ZM178.943 255.206L180.149 256.816L179.848 257.722L179.546 257.621C178.407 257.319 177.737 256.833 177.536 256.162V255.86L178.943 255.206ZM183.819 248.565L183.869 247.71L185.477 248.163C185.444 248.599 184.891 248.733 183.819 248.565ZM212.217 272.815L213.524 274.022L212.821 274.526L212.519 274.425L210.86 273.721V273.368C210.894 272.865 211.346 272.681 212.217 272.815ZM186.885 263.558L187.538 263.709L188.141 264.413L188.091 265.369L187.186 265.118L186.181 263.91L186.885 263.558ZM218.299 271.909C219.137 272.413 219.556 272.832 219.556 273.167L219.506 274.022L218.551 274.073L217.244 273.419L217.294 272.563L218.299 271.909ZM194.324 263.96L195.379 264.212L196.234 265.369L195.58 265.822L194.927 265.621L193.972 264.765L194.324 263.96ZM202.768 264.011L203.12 264.111L204.075 265.57L203.723 265.772L202.718 265.52L202.165 264.765V264.514L202.768 264.011ZM210.408 263.306L210.709 263.357L211.664 264.464L211.614 265.419L209.604 264.866L209.654 264.262L209.352 264.212L210.408 263.306ZM186.734 256.011L188.393 257.37L187.337 258.426L185.427 256.867C185.695 256.129 186.131 255.844 186.734 256.011ZM218.651 263.96L219.304 264.111L219.958 264.916V265.52L218.852 266.174C218.014 265.604 217.596 265.168 217.596 264.866L217.646 264.514L218.651 263.96ZM193.72 255.559L194.977 257.168L194.625 258.024L194.324 257.973C193.184 257.672 192.531 257.168 192.363 256.464V256.162L193.72 255.559ZM202.366 256.213L202.969 257.571L201.964 257.973L201.612 257.873L201.26 257.47L200.908 257.42C201.411 256.582 201.897 256.179 202.366 256.213ZM208.247 255.307L210.86 256.011C210.525 256.783 209.956 257.269 209.151 257.47L208.799 257.37L208.247 255.307ZM173.263 280.16H173.062L173.364 279.456L174.369 279.708L175.274 280.865L174.62 281.368L173.967 281.167L173.263 280.513V280.16ZM172.761 271.054L173.967 272.664L173.665 273.57L173.364 273.469C172.224 273.167 171.554 272.681 171.353 272.01V271.708L172.761 271.054ZM206.035 288.663L207.342 289.87L206.638 290.373L206.337 290.273L204.678 289.568V289.216C204.711 288.713 205.164 288.529 206.035 288.663ZM180.702 279.406L181.356 279.557L181.959 280.261L181.909 281.217L181.004 280.965L179.999 279.758L180.702 279.406ZM212.117 287.757C212.955 288.26 213.373 288.68 213.373 289.015L213.323 289.87L212.368 289.921L211.061 289.267L211.112 288.411L212.117 287.757ZM188.141 279.808L189.197 280.06L190.051 281.217L189.398 281.67L188.744 281.468L187.789 280.613L188.141 279.808ZM196.585 279.858L196.937 279.959L197.892 281.418L197.54 281.619L196.535 281.368L195.982 280.613V280.362L196.585 279.858ZM204.225 279.154L204.527 279.204L205.482 280.311L205.432 281.267L203.421 280.714L203.472 280.11L203.17 280.06L204.225 279.154ZM180.551 271.859L182.21 273.217L181.155 274.274L179.245 272.714C179.513 271.977 179.948 271.691 180.551 271.859ZM212.469 279.808L213.122 279.959L213.776 280.764V281.368L212.67 282.022C211.832 281.452 211.413 281.016 211.413 280.714L211.463 280.362L212.469 279.808ZM187.538 271.406L188.795 273.016L188.443 273.872L188.141 273.821C187.002 273.519 186.348 273.016 186.181 272.312V272.01L187.538 271.406ZM196.183 272.06L196.786 273.419L195.781 273.821L195.429 273.721L195.078 273.318L194.726 273.268C195.228 272.429 195.714 272.027 196.183 272.06ZM202.064 271.155L204.678 271.859C204.343 272.631 203.773 273.117 202.969 273.318L202.617 273.217L202.064 271.155Z" fill="#171C22"/>
<path d="M176.285 235.233C176.687 234.26 177.19 233.774 177.793 233.774L184.729 233.824L185.433 234.881V284.89L184.327 285.191H177.592L176.486 284.839L176.285 280.865L176.486 276.135V272.513L176.285 267.432L176.486 264.916L176.285 262.049L176.486 258.376L176.285 253.345L176.486 250.427L176.285 246.1L176.486 238.453V237.044L176.285 235.233Z" fill="#171C22"/>
<path d="M237.009 234.478L225.801 234.529L226.102 234.227H208.61L212.833 239.409C224.594 255.877 231.145 264.698 232.486 265.872C234.295 268.991 235.451 270.551 235.954 270.551L236.909 270.299L236.557 268.69L236.959 267.029L236.657 265.47L236.959 264.061L236.657 262.954L236.909 261.093L236.657 258.929L236.959 258.124L236.657 256.766L236.959 255.709L236.657 251.383L236.708 240.516L237.06 239.208L236.708 238.956L237.06 236.239L236.758 234.629L237.009 234.478ZM201.775 233.673H201.121V233.774H201.674L201.775 233.673ZM201.574 233.824H201.121V234.026H201.373L201.574 233.824ZM201.121 294.247V316.988C201.121 315.948 201.088 315.428 201.021 315.428V316.183L201.121 317.742V319H200.92C200.92 318.229 200.853 317.725 200.719 317.491V319H200.669C200.669 318.329 200.635 317.826 200.568 317.491V319H200.267V317.994L200.166 317.491V307.58L200.267 306.02V305.014L200.166 305.265V303.756C200.233 303.253 200.267 302.398 200.267 301.19V300.687C200.267 299.681 200.233 299.178 200.166 299.178V234.881C200.166 234.411 200.2 233.908 200.267 233.372V234.378L200.317 234.277L200.267 233.321H201.121V233.372H201.724L202.227 233.271H212.129L213.687 233.372H214.692L214.441 233.271H215.949C216.452 233.338 217.306 233.372 218.512 233.372H219.015C220.02 233.372 220.523 233.338 220.523 233.271H284.759C285.229 233.271 285.731 233.305 286.267 233.372H285.262L285.513 233.523H288.579L286.519 233.372H290.841V234.227L243.041 234.428L242.84 279.305L242.237 279.858L234.999 279.758C234.999 279.288 234.06 277.913 232.184 275.632L211.274 247.509C209.532 244.792 208.376 243.434 207.806 243.434V243.685L207.555 243.937L207.354 278.802L206.7 279.305H201.423L201.121 279.003V289.267L258.22 289.719L258.019 294.7L201.121 294.247Z" fill="#171C22"/>
<path d="M359.205 293.744V293.09L267.827 293.191V293.794H262.147L264.811 293.644H260.89L260.488 293.794H261.745C261.075 293.828 260.455 293.845 259.885 293.845L359.205 293.744Z" fill="#171C22"/>
<path d="M383.288 293.744V293.09L291.909 293.191V293.794H286.229L288.893 293.644H284.973L284.57 293.794H285.827C285.157 293.828 284.537 293.845 283.967 293.845L383.288 293.744Z" fill="#171C22"/>
<path d="M296.891 256.867L295.534 258.627H293.674V252.942C295.819 252.942 296.891 254.25 296.891 256.867ZM302.671 290.977L303.073 291.279L303.475 290.977L308.452 291.279H310.914L311.317 290.977H311.769V291.279L312.171 290.977H312.623L320.012 291.279L324.988 290.977L328.708 291.279L340.268 290.977H341.123L341.525 291.279L341.927 290.977H358.464V293.945H358.061L331.573 294.096V293.945L331.171 294.096L329.11 293.945H328.255L326.647 294.096L324.988 293.945H323.329L321.671 294.096L320.414 293.945L320.012 294.096V293.945L319.61 294.096H318.353V293.945L315.488 294.096H300.661V290.977H302.671ZM302.47 251.886C302.571 251.215 302.789 250.46 303.124 249.622C303.09 247.173 304.43 243.87 307.145 239.711C309.49 237.028 311.869 235.283 314.282 234.478V234.277L315.237 234.026V234.227L315.589 234.126C317.968 233.623 320.347 233.573 322.726 233.975C322.894 233.975 323.045 234.009 323.179 234.076C323.849 234.244 324.687 234.411 325.692 234.579C325.692 234.914 326.513 235.367 328.155 235.937C331.908 238.453 334.153 241.539 334.89 245.195L335.242 247.157H335.141V247.207L332.98 247.459L329.612 247.559V247.308C329.512 244.859 328.155 242.495 325.541 240.214C324.469 239.811 323.933 239.459 323.933 239.157C323.262 239.057 322.71 238.923 322.274 238.755C322.173 238.755 322.073 238.738 321.972 238.705C320.431 238.403 318.873 238.453 317.298 238.855L316.996 238.906V238.755L316.443 238.956V239.107C314.868 239.711 313.143 241.354 311.266 244.037C309.49 247.224 308.636 249.756 308.703 251.634C308.334 252.506 308.167 253.244 308.2 253.848L308.25 260.791H308.15C308.217 261.193 308.351 261.629 308.552 262.099C308.519 264.011 309.39 266.543 311.166 269.696C312.707 272.379 314.265 274.039 315.84 274.677V274.777L316.443 274.978V274.827L316.695 274.878C318.27 275.28 319.811 275.331 321.319 275.029C321.453 274.995 321.554 274.978 321.621 274.978C322.056 274.811 322.626 274.677 323.329 274.576C323.329 274.274 323.866 273.939 324.938 273.57C327.518 271.255 328.858 268.757 328.959 266.073L329.009 265.772L332.779 266.275L334.991 266.526V266.577L335.141 266.627L334.739 268.539C334.036 272.195 331.807 275.28 328.054 277.796C326.412 278.366 325.591 278.819 325.591 279.154C324.553 279.322 323.715 279.49 323.078 279.657C322.911 279.724 322.743 279.775 322.576 279.808C320.23 280.177 317.851 280.11 315.438 279.607L315.086 279.506V279.708L314.131 279.456V279.305C311.685 278.467 309.306 276.722 306.994 274.073C304.28 269.914 302.939 266.593 302.973 264.111C302.47 262.87 302.236 261.847 302.269 261.042L302.37 251.836L302.47 251.886Z" fill="#171C22"/>
<path d="M360.48 241.673V241.472L359.877 241.723V241.874C358.202 242.545 356.56 243.97 354.951 246.15C353.041 249.672 352.12 252.456 352.187 254.502C351.818 255.508 351.634 256.347 351.634 257.018L351.684 264.665L352.438 268.74C353.376 272.731 355.102 275.985 357.615 278.5C358.754 278.903 359.324 279.272 359.324 279.607C361.201 280.613 363.496 280.731 366.21 279.959L366.562 279.909V280.009L367.215 279.808V279.758C368.891 279.087 370.516 277.628 372.091 275.381C374.001 271.893 374.939 269.126 374.906 267.08C375.274 266.073 375.442 265.235 375.408 264.564L375.358 256.917L374.654 252.842C373.716 248.817 371.99 245.547 369.477 243.031C368.304 242.595 367.718 242.243 367.718 241.975C367.014 241.841 366.445 241.673 366.009 241.472C365.909 241.438 365.808 241.405 365.708 241.371C364.066 241.103 362.424 241.17 360.782 241.572L360.48 241.673ZM359.224 233.774C361.837 233.17 364.451 233.07 367.065 233.472C367.266 233.539 367.45 233.606 367.618 233.673C368.355 233.841 369.276 234.042 370.382 234.277C370.382 234.68 371.304 235.2 373.147 235.837C377.168 239.292 379.932 243.786 381.44 249.32L382.646 254.955L382.697 265.621C382.73 266.526 382.445 267.683 381.842 269.092C381.943 271.943 380.468 275.767 377.419 280.563C374.872 283.682 372.242 285.728 369.528 286.701V286.801L368.472 287.103V286.902L367.919 287.003C363.563 288.042 359.894 287.858 356.911 286.449C356.911 286.013 355.99 285.493 354.147 284.89C350.126 281.435 347.361 276.94 345.854 271.406L344.697 265.772L344.597 255.156C344.563 254.217 344.848 253.06 345.451 251.685C345.351 248.8 346.825 244.943 349.875 240.113C352.421 237.028 355.052 235.015 357.766 234.076V233.925L358.821 233.623V233.824L359.224 233.774ZM385.31 294.499L348.065 294.348L347.965 290.072L378.877 290.222C379.245 290.222 379.429 290.96 379.429 292.436L379.63 292.486L379.58 291.279L379.429 290.524L379.58 290.172L385.21 290.273V290.222H386.416V226.58C386.416 226.244 386.45 225.875 386.517 225.473V226.228L386.667 226.026V223.712L386.517 225.272V222.001H387.321V290.222L403.455 290.373L403.305 294.298L387.321 294.499V309.039C387.321 308.267 387.287 307.881 387.22 307.881V308.435L387.321 309.592V310.548H387.12C387.12 309.978 387.069 309.592 386.969 309.391V310.548H386.868C386.868 310.045 386.835 309.659 386.768 309.391V310.548H386.517V309.793L386.416 309.391V301.945L386.517 300.788V300.033L386.416 300.184V299.077C386.483 298.708 386.517 298.054 386.517 297.115V296.763C386.517 295.991 386.483 295.606 386.416 295.606V294.499H385.31Z" fill="#171C22"/>
<path d="M429.9 234.478L418.691 234.529L418.993 234.227H401.501L405.723 239.409C417.485 255.877 424.036 264.698 425.376 265.872C427.186 268.991 428.342 270.551 428.844 270.551L429.799 270.299L429.447 268.69L429.85 267.029L429.548 265.47L429.85 264.061L429.548 262.954L429.799 261.093L429.548 258.929L429.85 258.124L429.548 256.766L429.85 255.709L429.548 251.383L429.598 240.516L429.95 239.208L429.598 238.956L429.95 236.239L429.649 234.629L429.9 234.478ZM394.665 233.673H394.012V233.774H394.565L394.665 233.673ZM394.464 233.824H394.012V234.026H394.263L394.464 233.824ZM394.012 294.247V316.988C394.012 315.948 393.978 315.428 393.911 315.428V316.183L394.012 317.742V319H393.811C393.811 318.229 393.744 317.725 393.61 317.491V319H393.559C393.559 318.329 393.526 317.826 393.459 317.491V319H393.157V317.994L393.057 317.491V307.58L393.157 306.02V305.014L393.057 305.265V303.756C393.124 303.253 393.157 302.398 393.157 301.19V300.687C393.157 299.681 393.124 299.178 393.057 299.178V234.881C393.057 234.411 393.09 233.908 393.157 233.372V234.378L393.208 234.277L393.157 233.321H394.012V233.372H394.615L395.118 233.271H405.02L406.578 233.372H407.583L407.332 233.271H408.84C409.342 233.338 410.197 233.372 411.403 233.372H411.906C412.911 233.372 413.413 233.338 413.413 233.271H477.65C478.119 233.271 478.622 233.305 479.158 233.372H478.153L478.404 233.523H481.47L479.409 233.372H483.732V234.227L435.931 234.428L435.73 279.305L435.127 279.858L427.889 279.758C427.889 279.288 426.951 277.913 425.075 275.632L404.165 247.509C402.423 244.792 401.267 243.434 400.697 243.434V243.685L400.446 243.937L400.244 278.802L399.591 279.305H394.313L394.012 279.003V289.267L451.111 289.719L450.91 294.7L394.012 294.247Z" fill="#171C22"/>
<path d="M462.426 234.378H462.728C471.641 234.747 476.634 237.145 477.706 241.572L478.309 249.27C477.639 249.773 477.003 250.024 476.399 250.024H467.201L466.146 249.018L466.246 245.698C466.28 243.652 465.576 242.629 464.135 242.629C462.326 242.629 461.404 243.652 461.371 245.698L461.32 247.76C461.253 250.041 462.393 251.836 464.738 253.144C465.006 253.546 466.514 254.485 469.262 255.961C474.624 259.08 477.522 261.898 477.958 264.413C478.494 265.319 478.728 267.365 478.661 270.551L478.561 274.928C478.46 278.953 476.869 281.686 473.786 283.129C471.742 284.839 468.022 285.694 462.627 285.694C456.562 285.694 452.29 283.464 449.81 279.003C448.972 276.521 448.503 272.849 448.403 267.985C449.073 267.482 449.71 267.231 450.313 267.231H459.511C460.617 267.231 461.153 267.901 461.119 269.243H460.818L461.119 269.545L460.717 273.872C460.65 276.454 461.522 277.745 463.331 277.745C464.973 277.745 465.911 276.706 466.146 274.626L466.196 272.614C466.263 268.824 465.66 266.929 464.387 266.929L451.871 258.527C449.76 255.844 448.755 252.406 448.855 248.213L448.905 245.698C449.006 240.633 451.62 237.212 456.747 235.434L462.426 234.378ZM473.937 261.445H474.339V262.25L473.937 261.847V261.445ZM468.307 291.229C469.513 291.396 470.117 291.665 470.117 292.034L468.91 292.436L467.704 292.034V291.832L468.307 291.229Z" fill="#171C22"/>
<path d="M494.148 245.295C494.953 245.195 495.355 244.96 495.355 244.591L494.852 244.842L494.299 244.591H494.148V245.295ZM488.167 293.895V296.159H487.715L487.112 276.991C487.078 275.649 486.994 274.811 486.86 274.475L486.659 267.985C486.76 267.985 486.793 267.717 486.76 267.18L487.061 227.636H487.514L487.564 234.378L487.866 234.126H497.818C497.985 234.026 498.169 233.975 498.371 233.975L507.569 234.076L507.619 234.126H516.918L517.119 234.982V243.232L516.918 244.138L514.555 244.289L511.339 244.138H510.735L508.222 244.289V285.191L507.167 285.544H498.169L497.114 285.141L496.913 281.167L497.114 276.488V272.865L496.913 267.734L497.114 265.218L496.913 262.3L497.114 258.627L496.913 253.596L497.114 251.182L496.913 246.905L497.013 244.289L495.405 244.188L493.897 244.289L489.926 244.138L489.122 244.188L488.067 244.339C487.899 244.239 487.765 244.138 487.664 244.037L488.117 289.267L512.997 289.317C513.299 289.35 513.483 290.189 513.55 291.832L513.751 291.883L513.651 290.524L513.55 289.719L513.651 289.367L521.291 289.417L521.492 293.996L488.167 293.895Z" fill="#171C22"/>
<path d="M530.445 233.12L530.042 233.07H530.545L533.913 234.126L538.386 233.07L540.397 233.724L541.754 233.422L548.942 234.478L551.153 233.724L555.375 234.478L557.386 234.126C560.837 234.126 563.451 236.424 565.227 241.019C565.595 242.964 565.78 245.044 565.78 247.257C565.78 252.221 564.037 255.693 560.552 257.672C559.547 257.672 558.827 258.342 558.391 259.684C558.391 260.623 558.894 261.898 559.899 263.508C560.469 265.52 560.988 268.874 561.457 273.57L564.473 283.632L560.1 283.28C559.028 283.045 557.788 279.808 556.38 273.57C556.38 267.968 555.459 263.86 553.616 261.244C552.175 259.265 549.377 258.778 545.222 259.785L544.468 259.08L543.061 259.483L537.28 259.08H535.672C534.399 260.053 533.762 262.468 533.762 266.325L533.511 270.048V273.57C534.013 274.945 534.013 278.081 533.511 282.978L532.606 283.28L531.4 282.978H531.048V283.28L529.64 282.978C529.004 281.167 528.87 277.091 529.238 270.752V270.45L528.987 268.74L529.64 255.206L529.238 247.911L529.64 244.138L528.334 236.944C528.635 234.395 529.339 233.12 530.445 233.12ZM533.913 243.534V244.591L533.762 248.465C533.561 252.188 534.047 254.049 535.22 254.049H538.788L543.061 254.502L545.423 254.049L554.822 253.949C557.972 253.613 559.547 252.641 559.547 251.031C560.284 251.031 560.737 249.706 560.904 247.056C560.904 242.83 558.944 240.314 555.023 239.51H554.269L552.46 239.862L549.947 238.805L547.534 239.157L544.92 238.403L543.061 239.51C541.854 238.772 540.497 238.319 538.989 238.151C535.873 238.453 534.315 239.023 534.315 239.862L533.913 243.534Z" fill="#171C22"/>
<path d="M613.084 287.103L612.933 294.449L574.582 293.794L574.632 286.399L613.084 287.103ZM587.851 233.875L597.703 234.026C598.206 234.026 598.641 235.552 599.01 238.604C599.546 239.375 600.099 240.901 600.669 243.182C601.138 243.216 601.64 245.044 602.176 248.666C602.612 248.666 603.115 250.209 603.684 253.295C604.287 253.295 604.623 254.519 604.69 256.967C605.393 258.041 606.214 260.388 607.153 264.011C607.387 264.011 607.806 265.554 608.409 268.639C608.845 268.639 609.431 270.467 610.168 274.123C610.604 274.123 610.906 275.347 611.073 277.796C611.978 277.796 612.564 279.741 612.832 283.632L611.726 283.883L605.996 283.833C604.589 283.799 603.483 282.776 602.679 280.764L602.88 280.412L602.83 277.745L600.417 274.073L585.238 273.821C583.897 276.001 583.244 278.031 583.277 279.909C582.976 279.909 582.691 280.714 582.423 282.324C581.82 283.095 581.066 283.481 580.161 283.481H576.693C575.587 283.447 574.984 283.129 574.883 282.525C574.85 280.68 575.336 278.668 576.341 276.488C576.308 275.649 576.81 274.123 577.849 271.909C577.815 269.897 578.234 268.27 579.106 267.029L580.362 261.545C580.362 260.573 580.865 258.845 581.87 256.363C581.803 254.183 582.222 252.674 583.127 251.836C583.093 250.393 583.545 248.968 584.484 247.559C584.383 245.513 584.869 243.182 585.941 240.566C585.874 239.728 586.293 238.419 587.198 236.642C587.164 234.797 587.382 233.875 587.851 233.875ZM587.952 264.665V265.319L588.656 266.275L592.375 266.325L593.28 265.973L594.235 266.275L598.105 266.375L598.809 265.419L598.759 264.514C598.759 263.675 598.172 261.629 596.999 258.376C596.999 257.236 596.614 256.229 595.843 255.357C595.776 252.842 595.173 250.712 594.034 248.968C593.866 247.324 593.548 246.486 593.079 246.452H592.677C591.169 249.27 590.448 252.003 590.515 254.653C589.745 254.653 589.309 256.38 589.208 259.835C588.404 259.835 587.985 261.445 587.952 264.665Z" fill="#171C22"/>
<path d="M623.645 235.233C624.047 234.26 624.55 233.774 625.153 233.774L632.089 233.824L632.793 234.881V284.89L631.687 285.191H624.952L623.846 284.839L623.645 280.865L623.846 276.135V272.513L623.645 267.432L623.846 264.916L623.645 262.049L623.846 258.376L623.645 253.345L623.846 250.427L623.645 246.1L623.846 238.453V237.044L623.645 235.233Z" fill="#171C22"/>
<path d="M684.369 234.478L673.16 234.529L673.462 234.227H655.97L660.192 239.409C671.954 255.877 678.505 264.698 679.845 265.872C681.655 268.991 682.811 270.551 683.314 270.551L684.269 270.299L683.917 268.69L684.319 267.029L684.017 265.47L684.319 264.061L684.017 262.954L684.269 261.093L684.017 258.929L684.319 258.124L684.017 256.766L684.319 255.709L684.017 251.383L684.068 240.516L684.419 239.208L684.068 238.956L684.419 236.239L684.118 234.629L684.369 234.478ZM649.134 233.673H648.481V233.774H649.034L649.134 233.673ZM648.933 233.824H648.481V234.026H648.732L648.933 233.824ZM648.481 294.247V316.988C648.481 315.948 648.448 315.428 648.38 315.428V316.183L648.481 317.742V319H648.28C648.28 318.229 648.213 317.725 648.079 317.491V319H648.029C648.029 318.329 647.995 317.826 647.928 317.491V319H647.627V317.994L647.526 317.491V307.58L647.627 306.02V305.014L647.526 305.265V303.756C647.593 303.253 647.627 302.398 647.627 301.19V300.687C647.627 299.681 647.593 299.178 647.526 299.178V234.881C647.526 234.411 647.56 233.908 647.627 233.372V234.378L647.677 234.277L647.627 233.321H648.481V233.372H649.084L649.587 233.271H659.489L661.047 233.372H662.052L661.801 233.271H663.309C663.811 233.338 664.666 233.372 665.872 233.372H666.375C667.38 233.372 667.883 233.338 667.883 233.271H732.119C732.588 233.271 733.091 233.305 733.627 233.372H732.622L732.873 233.523H735.939L733.878 233.372H738.201V234.227L690.401 234.428L690.2 279.305L689.596 279.858L682.359 279.758C682.359 279.288 681.42 277.913 679.544 275.632L658.634 247.509C656.892 244.792 655.736 243.434 655.166 243.434V243.685L654.915 243.937L654.714 278.802L654.06 279.305H648.783L648.481 279.003V289.267L705.58 289.719L705.379 294.7L648.481 294.247Z" fill="#171C22"/>
<path d="M707.044 245.295C707.848 245.195 708.25 244.96 708.25 244.591L707.748 244.842L707.195 244.591H707.044V245.295ZM701.063 293.895V296.159H700.61L700.007 276.991C699.974 275.649 699.89 274.811 699.756 274.475L699.555 267.985C699.655 267.985 699.689 267.717 699.655 267.18L699.957 227.636H700.409L700.459 234.378L700.761 234.126H710.713C710.881 234.026 711.065 233.975 711.266 233.975L720.464 234.076L720.514 234.126H729.813L730.014 234.982V243.232L729.813 244.138L727.451 244.289L724.234 244.138H723.631L721.118 244.289V285.191L720.062 285.544H711.065L710.009 285.141L709.808 281.167L710.009 276.488V272.865L709.808 267.734L710.009 265.218L709.808 262.3L710.009 258.627L709.808 253.596L710.009 251.182L709.808 246.905L709.909 244.289L708.3 244.188L706.793 244.289L702.822 244.138L702.018 244.188L700.962 244.339C700.794 244.239 700.66 244.138 700.56 244.037L701.012 289.267L725.893 289.317C726.194 289.35 726.378 290.189 726.445 291.832L726.647 291.883L726.546 290.524L726.445 289.719L726.546 289.367L734.186 289.417L734.387 293.996L701.063 293.895Z" fill="#171C22"/>
</svg>
