<svg width="689" height="241" viewBox="0 0 689 241" fill="none" xmlns="http://www.w3.org/2000/svg">
<path d="M86.6094 74.0312H87.0312C88.0156 73.5625 88.6953 72.8125 89.0703 71.7812H85.8359L86.6094 74.0312ZM90.1953 95.4766V95.8984L92.2344 96.25H92.5859L93.4297 95.4766L91.7422 94.4219C90.7109 94.5156 90.1953 94.8672 90.1953 95.4766ZM59.9609 90.2031L61.2969 91.3281H62.3516V90.2031L61.6484 89.5H60.8047L59.9609 90.2031ZM100.672 93.3672V94.4219L102.289 94.7734L103.414 94.4219V93.3672C103.414 92.9922 102.898 92.6406 101.867 92.3125L100.672 93.3672ZM66.1484 88.3047L67.3438 89.0078H68.1875L68.8906 88.3047L67.8359 87.1797H66.5703L66.1484 88.3047ZM87.8047 85H88.1562V85.7734H90.6172V84.5781L89.4219 83.5938H89.0703L87.8047 85ZM57.2188 81.0625L59.6094 82.2578L60.8047 80.7109L58.7656 79.5859C58.0156 79.5859 57.5 80.0781 57.2188 81.0625ZM97.8594 82.8203V83.2422C97.8594 83.6172 98.375 84.0156 99.4062 84.4375L100.672 83.2422V82.5391L99.8281 81.8359H99.0547L97.8594 82.8203ZM63.7578 78.5312V78.8828C63.9922 79.6797 64.7891 80.0781 66.1484 80.0781H66.5703L66.9922 78.8828L65.3047 77.4062L63.7578 78.5312ZM33.1016 63.0625H36.6875V63.4141L35.9141 65.5234L36.3359 68.6172V69.0391L35.5625 69.6719C35.4219 67.3281 34.6016 65.3594 33.1016 63.7656V63.0625ZM29.5156 94.5625H30.7812C32.3281 94.7031 33.1016 95.0547 33.1016 95.6172L31.1328 96.6016L29.0938 95.6172L29.5156 94.5625ZM26.7734 85.4922C27.0078 84.5078 27.5 84.0156 28.25 84.0156L29.9375 85.1406V85.4922L28.25 86.8984C27.5 86.7578 27.0078 86.2891 26.7734 85.4922ZM4.27344 79.9375C5.35156 80.2656 5.89062 80.5938 5.89062 80.9219V81.9766L4.76562 82.3281L3.07812 81.9766V80.9219L4.27344 79.9375ZM25.9297 75.2969C27.0078 75.625 27.5469 75.9766 27.5469 76.3516V76.7031L26.2812 77.8281H25.5078L24.6641 77.0547V76.3516L25.9297 75.2969ZM46.8828 88.5156V89.6406L49.3438 93.0859V87.1094C47.7031 87.625 46.8828 88.0938 46.8828 88.5156ZM1.53125 69.6719H2.30469L3.07812 70.4453V71.1484L1.88281 72.1328C0.851562 71.8047 0.335938 71.4766 0.335938 71.1484V70.7969L1.53125 69.6719ZM37.3203 74.3125C37.3203 74.9219 36.6406 75.2969 35.2812 75.4375V74.3125H37.3203ZM41.3984 93.2266H42.1016L42.875 93.9297V95.0547H41.75L40.5547 93.9297L41.3984 93.2266ZM50.1875 91.9609L51.3125 92.8047H52.1562L52.8594 91.9609L51.7344 90.9062H50.5391L50.1875 91.9609ZM47.6562 82.2578V82.6797C47.9375 83.4297 48.7812 83.8047 50.1875 83.8047H50.5391L50.8906 82.6797L49.3438 81.0625L47.6562 82.2578ZM56.7969 70.6562H54.8281V71.6406C56.1406 71.5 56.7969 71.1719 56.7969 70.6562ZM77.8203 84.9297V85.2812L78.5234 85.9844H79.7891L80.2109 85.6328L78.9453 84.1562H78.5234L77.8203 84.9297ZM76.2734 77.4062H76.625L77.8203 76.5625L76.9766 75.1562C76.6953 75.2031 76.4375 75.3672 76.2031 75.6484C76.25 75.9766 76.2734 76.375 76.2734 76.8438H75.7812L76.2734 77.3359V77.4062ZM17.9141 85.8438C18.7109 85.9844 19.2266 86.4531 19.4609 87.25L18.3359 88.3047V88.6562L17.1406 88.3047V86.6172L17.9141 85.8438ZM14.6797 78.7422C15.1016 77.8516 15.5 77.4062 15.875 77.4062L16.7188 78.1094L16.2266 79.9375H15.5234C14.9609 79.9375 14.6797 79.5391 14.6797 78.7422ZM13.9062 67.2812L14.6797 67.9844V68.3359L14.3281 70.0234H13.5547L12.2891 69.0391V68.6172L13.9062 67.2812ZM23.5391 65.5234H24.3125L25.1562 66.2266L24.3125 67.9844H23.5391L22.3438 66.7891V66.6484L23.5391 65.5234ZM88.2266 114.109C90.2422 114.391 91.25 114.836 91.25 115.445L89.2109 116.148L87.2422 115.445V115.094L88.2266 114.109ZM2.23438 92.3125H3.00781L4.34375 92.0312V91.75L3.00781 91.4688H1.46094L2.23438 92.3125ZM45.1953 85.7734H46.7422L48.0078 86.1953V86.6875H46.7422C45.8516 86.6875 45.3359 86.3828 45.1953 85.7734ZM26.9141 80.5L27.4766 80.9219H29.5156V80.5L27.4766 79.9375L26.9141 80.5ZM16.7188 79.3047L18.4766 79.5859H19.4609C19.4609 79.1641 18.9922 78.8828 18.0547 78.7422H16.7188V79.3047ZM52.0859 57.5078L51.1719 62.2188L48.1484 63.9766L47.6562 64.1172L45.6875 64.3984L43.2266 56.3125L49.1328 54.5547L51.6641 57.0156L51.8047 57.5781L52.0859 57.5078ZM139.695 83.0312L139.836 83.3125L139.203 84.7188L138.57 84.8594L137.375 83.3125L137.867 82.3984L138.43 82.1875L139.695 83.0312ZM148.203 82.75L148.344 83.1016L147.711 84.4375L147.078 84.5781L146.305 82.9609L146.234 82.6094L146.586 81.7656L148.203 82.75ZM140.891 93.4375L141.102 94.1406L140.609 95.0547L140.047 95.2656L138.711 94.4922L138.57 94.1406C138.477 93.7656 138.805 93.2734 139.555 92.6641L140.891 93.4375ZM149.469 93.5078C149.703 94.2109 149.586 94.6328 149.117 94.7734L148.555 94.9844L147.641 93.2969L148.062 92.3828C148.391 92.2891 148.859 92.6641 149.469 93.5078ZM141.945 103.141C141.992 103.938 141.758 104.523 141.242 104.898L139.555 103.844L139.414 103.492L140.398 102.016C140.961 101.875 141.477 102.25 141.945 103.141ZM149.891 101.875L150.383 103.633L149.539 104.266L149.469 103.914L148.203 103.141C148.203 102.297 148.484 101.711 149.047 101.383L149.891 101.875ZM143.211 113.898L141.875 115.375L140.047 114.883C139.859 114.273 140.375 113.711 141.594 113.195L142.578 112.914L143.211 113.898ZM150.945 113.477L150.031 114.953L148.766 114.109L149.188 113.195L150.102 112.914L150.945 113.477ZM113.188 93.8594L113.258 94.2109L112.625 95.5469L112.062 95.7578L110.867 94.2109L111.289 93.2266L111.922 93.0859L113.188 93.8594ZM121.695 93.5781L121.766 94L121.133 95.2656L120.57 95.4766L119.727 93.7891L119.656 93.4375L120.078 92.5938L121.695 93.5781ZM122.961 104.336C123.148 105.086 123.031 105.508 122.609 105.602L121.977 105.812L121.133 104.195L121.484 103.211C121.859 103.117 122.352 103.492 122.961 104.336ZM116.633 124.727L115.367 126.203L113.469 125.711C113.328 125.102 113.844 124.539 115.016 124.023L116 123.742L116.633 124.727ZM124.367 124.305L123.523 125.781L122.258 124.938L122.609 124.023L123.523 123.742L124.367 124.305ZM119.023 65.6641L118.672 65.7344C117.781 65.5469 117.055 65.0078 116.492 64.1172L119.023 63.4141V65.6641ZM137.867 64.2578L137.586 64.3281L137.234 64.8203L137.023 64.8906L135.828 64.3984L136.039 62.9219C136.508 62.875 137.117 63.3203 137.867 64.2578ZM147.43 62.9219L147.5 63.2734C147.547 64.0234 147.031 64.5625 145.953 64.8906L145.602 65.0312L145.039 64.0469L145.812 62.2188L147.43 62.9219ZM111.922 73.9609L111.992 74.3125C112.086 74.6875 111.758 75.1797 111.008 75.7891L109.742 74.9453L109.602 74.3125L110.023 73.3281L110.586 73.1875L111.922 73.9609ZM120.43 73.6797L120.078 73.8203L120.289 74.5234L118.391 75.0859L118.109 74.0312L118.672 72.625L119.023 72.5547L120.43 73.6797ZM138.148 72.2734L138.289 72.5547L137.867 73.3984L136.883 73.75L136.461 73.4688L137.023 71.7812L137.375 71.7109L138.148 72.2734ZM148.273 72.625L147.57 73.6094L146.867 73.8203L146.094 73.3281L146.656 71.9922L147.641 71.6406L148.273 72.625ZM112.766 84.8594L113.047 85.9141L111.922 86.6875L110.867 86.5469L110.586 85.4922C110.492 85.1641 110.797 84.6953 111.5 84.0859L112.766 84.8594ZM121.625 84.5078L121.695 84.8594L120.219 85.7031L119.938 85.7734L119.094 85.2109L120.008 83.8047C120.898 83.6641 121.438 83.8984 121.625 84.5078ZM76.2734 77.4062L75.6406 84.6484C75.5469 89.0547 77 91.2578 80 91.2578C81.5469 91.2578 82.7188 90.6719 83.5156 89.5L82.1094 84.8594C83.5625 84.9531 84.3594 85.2109 84.5 85.6328L84.6406 86.0547V85.9844L84.7109 82.5391C84.8047 78.9297 84.5234 76.3516 83.8672 74.8047C83.1641 76.7266 83.1406 78.8594 83.7969 81.2031L83.0234 80.7109L82.8828 80.3594L82.25 77.0547L80.9844 75.1562L80.9141 74.875L83.5156 74.0312C83.0469 73.2812 82.4609 72.9062 81.7578 72.9062L60.9453 58.6328C57.4297 54.0859 55.7656 48.2734 55.9531 41.1953L56.0234 36.9062C56.1641 28.3281 60.5 22.5156 69.0312 19.4687L78.4531 17.7109H78.9453C93.7578 18.3203 102.055 22.375 103.836 29.875L104.891 42.9531C103.766 43.7969 102.688 44.2188 101.656 44.2188H86.3984L84.6406 42.5312L84.8516 36.9062C84.8984 33.4375 83.7266 31.7031 81.3359 31.7031C78.3359 31.7031 76.7891 33.4375 76.6953 36.9062L76.625 40.4219C76.5312 44.2656 78.4297 47.3125 82.3203 49.5625C82.7422 50.2188 85.25 51.7891 89.8438 54.2734C98.75 59.5703 103.555 64.3516 104.258 68.6172C105.148 70.1641 105.547 73.6328 105.453 79.0234L105.242 86.4766C105.195 89.5234 104.633 92.1484 103.555 94.3516L103.906 95.6172L103.062 96.25L102.992 95.8984L102.781 95.7578C101.469 97.7266 99.6641 99.2734 97.3672 100.398C94.1797 103.07 88.6016 104.5 80.6328 104.688L81.9688 106.727L82.4609 108.484V108.273L114.031 110.172L132.383 108.766C132.148 106.844 131.938 104.945 131.75 103.07L131.398 103.352L130.344 103.211L130.062 102.227C129.969 101.852 130.273 101.359 130.977 100.75L131.398 101.031C129.852 88.3281 128.469 78.9062 127.25 72.7656L126.547 71.8516L127.18 69.3203C126.57 67.3984 126.125 63.9531 125.844 58.9844L128.023 58.3516L129.219 62.1484C128.938 65.1484 129.242 68.1484 130.133 71.1484C129.617 73.8672 129.547 77.4766 129.922 81.9766L130.836 82.8203L134.141 110.312L123.172 111.508L123.383 112.281L122.539 112.914L122.469 112.562L121.203 111.789L114.453 111.156C114.359 111.578 114.148 111.906 113.82 112.141L112.555 111.438L82.4609 110.945L77.1875 116.289L74.4453 116.641L71 105.18L71.4922 104.266L72.125 104.055C65.5156 102.695 60.6406 99.1328 57.5 93.3672C56.1406 89.1484 55.3672 82.9141 55.1797 74.6641C56.3047 73.8203 57.3594 73.3984 58.3438 73.3984H73.6016C75.1016 73.3984 75.9688 74.1484 76.2031 75.6484C75.9219 75.9297 75.6406 76.375 75.3594 76.9844H75.7812L76.2031 77.4062H76.2734ZM145.461 117.977L145.812 119.102L143.562 119.734L143.492 119.383L143.914 118.469L145.461 117.977ZM138.219 123.672L137.938 123.742C137.938 122.758 138.734 122.008 140.328 121.492L142.227 120.93C142.414 121.633 141.078 122.547 138.219 123.672ZM133.227 127.609L131.047 128.664L129.852 129.016C129.664 128.453 130.18 127.914 131.398 127.398L133.016 126.906L133.227 127.609ZM127.953 130.773L127.531 131.617L125 132.391L124.789 131.687L127.109 130.211L127.953 130.773ZM54.0547 71.8516L54.4062 72.0625L54.6875 72.9062L54.2656 73.6094L53.4922 72.9062L54.0547 71.8516ZM50.6094 65.3125L50.9609 65.4531L51.0312 65.7344L50.8906 66.0859L49.7656 66.4375L49.625 65.875L50.6094 65.3125Z" fill="#171C22"/>
<path d="M125.256 34.7266C126.381 34.5859 126.943 34.2578 126.943 33.7422L126.24 34.0938L125.467 33.7422H125.256V34.7266ZM116.889 102.648V105.812H116.256L115.412 79.0234C115.365 77.1484 115.248 75.9766 115.061 75.5078L114.779 66.4375C114.92 66.4375 114.967 66.0625 114.92 65.3125L115.342 10.0469H115.975L116.045 19.4687L116.467 19.1172H130.389C130.623 18.9766 130.881 18.9062 131.162 18.9062L144.029 19.0469L144.1 19.1172H157.107L157.389 20.3125V31.8437L157.107 33.1094L153.803 33.3203L149.303 33.1094H148.459L144.943 33.3203V90.4844L143.467 90.9766H130.881L129.404 90.4141L129.123 84.8594L129.404 78.3203V73.2578L129.123 66.0859L129.404 62.5703L129.123 58.4922L129.404 53.3594L129.123 46.3281L129.404 42.9531L129.123 36.9766L129.264 33.3203L127.014 33.1797L124.904 33.3203L119.35 33.1094L118.225 33.1797L116.748 33.3906C116.514 33.25 116.326 33.1094 116.186 32.9688L116.818 96.1797L151.623 96.25C152.045 96.2969 152.303 97.4688 152.397 99.7656L152.678 99.8359L152.537 97.9375L152.397 96.8125L152.537 96.3203L163.225 96.3906L163.506 102.789L116.889 102.648Z" fill="#171C22"/>
<path d="M220.363 93.1562L220.152 103.422L166.504 102.508L166.574 92.1719L220.363 93.1562ZM185.067 18.7656L198.848 18.9766C199.551 18.9766 200.16 21.1094 200.676 25.375C201.426 26.4531 202.199 28.5859 202.996 31.7734C203.652 31.8203 204.356 34.375 205.106 39.4375C205.715 39.4375 206.418 41.5938 207.215 45.9062C208.059 45.9062 208.527 47.6172 208.621 51.0391C209.606 52.5391 210.754 55.8203 212.067 60.8828C212.395 60.8828 212.981 63.0391 213.824 67.3516C214.434 67.3516 215.254 69.9062 216.285 75.0156C216.895 75.0156 217.317 76.7266 217.551 80.1484C218.817 80.1484 219.637 82.8672 220.012 88.3047L218.465 88.6562L210.449 88.5859C208.481 88.5391 206.934 87.1094 205.809 84.2969L206.09 83.8047L206.02 80.0781L202.645 74.9453L181.41 74.5938C179.535 77.6406 178.621 80.4766 178.668 83.1016C178.246 83.1016 177.848 84.2266 177.473 86.4766C176.629 87.5547 175.574 88.0938 174.309 88.0938H169.457C167.91 88.0469 167.067 87.6016 166.926 86.7578C166.879 84.1797 167.559 81.3672 168.965 78.3203C168.918 77.1484 169.621 75.0156 171.074 71.9219C171.027 69.1094 171.613 66.8359 172.832 65.1016L174.59 57.4375C174.59 56.0781 175.293 53.6641 176.699 50.1953C176.606 47.1484 177.192 45.0391 178.457 43.8672C178.41 41.8516 179.043 39.8594 180.356 37.8906C180.215 35.0312 180.895 31.7734 182.395 28.1172C182.301 26.9453 182.887 25.1172 184.152 22.6328C184.106 20.0547 184.41 18.7656 185.067 18.7656ZM185.207 61.7969V62.7109L186.192 64.0469L191.395 64.1172L192.66 63.625L193.996 64.0469L199.41 64.1875L200.395 62.8516L200.324 61.5859C200.324 60.4141 199.504 57.5547 197.863 53.0078C197.863 51.4141 197.324 50.0078 196.246 48.7891C196.152 45.2734 195.309 42.2969 193.715 39.8594C193.481 37.5625 193.035 36.3906 192.379 36.3438H191.817C189.707 40.2812 188.699 44.1016 188.793 47.8047C187.715 47.8047 187.106 50.2188 186.965 55.0469C185.84 55.0469 185.254 57.2969 185.207 61.7969Z" fill="#171C22"/>
<path d="M282.143 19.6094L266.463 19.6797L266.885 19.2578H242.416L248.322 26.5C264.776 49.5156 273.94 61.8438 275.815 63.4844C278.346 67.8438 279.963 70.0234 280.666 70.0234L282.002 69.6719L281.51 67.4219L282.073 65.1016L281.651 62.9219L282.073 60.9531L281.651 59.4062L282.002 56.8047L281.651 53.7812L282.073 52.6562L281.651 50.7578L282.073 49.2812L281.651 43.2344L281.721 28.0469L282.213 26.2187L281.721 25.8672L282.213 22.0703L281.791 19.8203L282.143 19.6094ZM232.854 18.4844H231.94V18.625H232.713L232.854 18.4844ZM232.572 18.6953H231.94V18.9766H232.291L232.572 18.6953ZM231.94 103.141V134.922C231.94 133.469 231.893 132.742 231.799 132.742V133.797L231.94 135.977V137.734H231.658C231.658 136.656 231.565 135.953 231.377 135.625V137.734H231.307C231.307 136.797 231.26 136.094 231.166 135.625V137.734H230.744V136.328L230.604 135.625V121.773L230.744 119.594V118.188L230.604 118.539V116.43C230.697 115.727 230.744 114.531 230.744 112.844V112.141C230.744 110.734 230.697 110.031 230.604 110.031V20.1719C230.604 19.5156 230.651 18.8125 230.744 18.0625V19.4687L230.815 19.3281L230.744 17.9922H231.94V18.0625H232.783L233.487 17.9219H247.338L249.518 18.0625H250.924L250.572 17.9219H252.682C253.385 18.0156 254.58 18.0625 256.268 18.0625H256.971C258.377 18.0625 259.08 18.0156 259.08 17.9219H348.94C349.596 17.9219 350.299 17.9687 351.049 18.0625H349.643L349.994 18.2734H354.283L351.401 18.0625H357.448V19.2578L290.58 19.5391L290.299 82.2578L289.455 83.0312L279.33 82.8906C279.33 82.2344 278.018 80.3125 275.393 77.125L246.143 37.8203C243.705 34.0234 242.088 32.125 241.291 32.125V32.4766L240.94 32.8281L240.658 81.5547L239.744 82.2578H232.362L231.94 81.8359V96.1797L311.815 96.8125L311.533 103.773L231.94 103.141Z" fill="#171C22"/>
<path d="M307.149 20.6641C307.149 19.4922 307.664 18.7656 308.696 18.4844L311.86 19.1172L315.446 18.3437L318.188 18.625L322.125 18.2031C322.875 18.625 328.102 18.8594 337.805 18.9062L339.422 18.5547V18.9062C346.735 18.7187 352.758 19.7734 357.492 22.0703C363.586 24.0859 368.953 30.2969 373.594 40.7031V44.3594C373.594 46.0469 373.852 47.3594 374.367 48.2969L373.946 52.1641V54.6953L374.367 56.875C373.758 63.3438 373.102 66.9531 372.399 67.7031C371.508 71.9219 369.797 75.3203 367.266 77.8984C365.063 81.5078 363.61 83.3125 362.907 83.3125C357.282 88.4688 348 91.1875 335.063 91.4688L328.453 91.2578L318.61 91.4688C315.047 91.5625 312.164 91.375 309.961 90.9062L307.992 91.3281L306.446 91.3984L306.024 89.9219L306.797 69.8828L306.446 64.5391L306.797 62.3594L306.446 62.0078L306.797 61.5859V45.8359L307.219 28.1875L306.797 26.0781L307.641 23.5469L307.149 22.1406V20.6641ZM327.047 33.5312C325.078 33.5781 324.094 35.3594 324.094 38.875V47.5938L323.813 47.8047H324.094L323.813 48.7188L324.164 54.6953V57.2266C324.164 64.3516 323.789 70.0234 323.039 74.2422C324.024 75.2266 324.867 75.7188 325.571 75.7188L332.532 75.2969L340.196 75.1562L342.094 74.8047L342.446 75.0859L344.625 74.3828C346.688 74.3359 349.242 73.2578 352.289 71.1484L354.821 67C355.805 67 356.789 63.5781 357.774 56.7344L357.422 56.4531L357.774 54.5547V54.2031L357.422 53.9219H357.774L357.422 53.5703L357.774 52.6562C357.774 48.7188 356.672 44.7344 354.469 40.7031C352.688 37.5156 349.524 35.3828 344.977 34.3047V34.6562L335.836 33.8828L334.008 34.3047L327.047 33.5312ZM304.828 98.5703L305.391 98.9922L305.883 98.5703L312 98.9922H315.094L315.586 98.5703H316.149V98.9922L316.641 98.5703H317.203L326.344 98.9922L332.532 98.5703L337.172 98.9922L351.516 98.5703H352.571L353.063 98.9922L353.555 98.5703H374.086V102.719H373.594L340.688 102.93V102.719L340.196 102.93L337.664 102.719H336.61L334.641 102.93L332.532 102.719H330.492L328.453 102.93L326.907 102.719L326.344 102.93V102.719L325.852 102.93H324.305V102.719L320.789 102.93H302.367V98.5703H304.828Z" fill="#171C22"/>
<path d="M437.061 93.1562L436.85 103.422L383.202 102.508L383.272 92.1719L437.061 93.1562ZM401.764 18.7656L415.545 18.9766C416.248 18.9766 416.858 21.1094 417.373 25.375C418.123 26.4531 418.897 28.5859 419.694 31.7734C420.35 31.8203 421.053 34.375 421.803 39.4375C422.413 39.4375 423.116 41.5938 423.913 45.9062C424.756 45.9062 425.225 47.6172 425.319 51.0391C426.303 52.5391 427.452 55.8203 428.764 60.8828C429.092 60.8828 429.678 63.0391 430.522 67.3516C431.131 67.3516 431.952 69.9062 432.983 75.0156C433.592 75.0156 434.014 76.7266 434.248 80.1484C435.514 80.1484 436.334 82.8672 436.709 88.3047L435.163 88.6562L427.147 88.5859C425.178 88.5391 423.631 87.1094 422.506 84.2969L422.788 83.8047L422.717 80.0781L419.342 74.9453L398.108 74.5938C396.233 77.6406 395.319 80.4766 395.366 83.1016C394.944 83.1016 394.545 84.2266 394.17 86.4766C393.327 87.5547 392.272 88.0938 391.006 88.0938H386.155C384.608 88.0469 383.764 87.6016 383.623 86.7578C383.577 84.1797 384.256 81.3672 385.663 78.3203C385.616 77.1484 386.319 75.0156 387.772 71.9219C387.725 69.1094 388.311 66.8359 389.53 65.1016L391.288 57.4375C391.288 56.0781 391.991 53.6641 393.397 50.1953C393.303 47.1484 393.889 45.0391 395.155 43.8672C395.108 41.8516 395.741 39.8594 397.053 37.8906C396.913 35.0312 397.592 31.7734 399.092 28.1172C398.998 26.9453 399.584 25.1172 400.85 22.6328C400.803 20.0547 401.108 18.7656 401.764 18.7656ZM401.905 61.7969V62.7109L402.889 64.0469L408.092 64.1172L409.358 63.625L410.694 64.0469L416.108 64.1875L417.092 62.8516L417.022 61.5859C417.022 60.4141 416.202 57.5547 414.561 53.0078C414.561 51.4141 414.022 50.0078 412.944 48.7891C412.85 45.2734 412.006 42.2969 410.413 39.8594C410.178 37.5625 409.733 36.3906 409.077 36.3438H408.514C406.405 40.2812 405.397 44.1016 405.491 47.8047C404.413 47.8047 403.803 50.2188 403.663 55.0469C402.538 55.0469 401.952 57.2969 401.905 61.7969Z" fill="#171C22"/>
<path d="M451.942 17.7109L451.379 17.6406H452.082L456.793 19.1172L463.051 17.6406L465.864 18.5547L467.762 18.1328L477.817 19.6094L480.911 18.5547L486.817 19.6094L489.629 19.1172C494.457 19.1172 498.114 22.3281 500.598 28.75C501.114 31.4687 501.372 34.375 501.372 37.4688C501.372 44.4062 498.934 49.2578 494.059 52.0234C492.653 52.0234 491.645 52.9609 491.036 54.8359C491.036 56.1484 491.739 57.9297 493.145 60.1797C493.942 62.9922 494.668 67.6797 495.325 74.2422L499.543 88.3047L493.426 87.8125C491.926 87.4844 490.192 82.9609 488.223 74.2422C488.223 66.4141 486.934 60.6719 484.356 57.0156C482.34 54.25 478.426 53.5703 472.614 54.9766L471.559 53.9922L469.59 54.5547L461.504 53.9922H459.254C457.473 55.3516 456.582 58.7266 456.582 64.1172L456.231 69.3203V74.2422C456.934 76.1641 456.934 80.5469 456.231 87.3906L454.965 87.8125L453.278 87.3906H452.786V87.8125L450.817 87.3906C449.926 84.8594 449.739 79.1641 450.254 70.3047V69.8828L449.903 67.4922L450.817 48.5781L450.254 38.3828L450.817 33.1094L448.989 23.0547C449.411 19.4922 450.395 17.7109 451.942 17.7109ZM456.793 32.2656V33.7422L456.582 39.1562C456.301 44.3594 456.981 46.9609 458.622 46.9609H463.614L469.59 47.5938L472.895 46.9609L486.043 46.8203C490.45 46.3516 492.653 44.9922 492.653 42.7422C493.684 42.7422 494.317 40.8906 494.551 37.1875C494.551 31.2812 491.809 27.7656 486.325 26.6406H485.27L482.739 27.1328L479.223 25.6562L475.848 26.1484L472.192 25.0937L469.59 26.6406C467.903 25.6094 466.004 24.9766 463.895 24.7422C459.536 25.1641 457.356 25.9609 457.356 27.1328L456.793 32.2656Z" fill="#171C22"/>
<path d="M524.549 30.5078L525.112 94.7734L536.503 95.0547L550.565 94.7031C552.909 94.4688 556.354 93.4375 560.901 91.6094C565.448 89.7812 568.799 85.2109 570.956 77.8984C572.174 76.4453 572.854 70.4219 572.995 59.8281C573.651 55.75 573.487 53.3828 572.503 52.7266C572.268 47.2891 571.776 43.8906 571.026 42.5312C570.323 42.5312 569.971 41.9453 569.971 40.7734C565.987 34.7734 562.682 31.7734 560.057 31.7734C558.088 31.7734 555.768 30.7656 553.096 28.75H550.565L547.26 28.1875L545.432 28.8203L541.354 28.1875L538.823 28.8203L536.292 28.1875L533.338 28.8203H530.807L525.323 28.75L524.549 30.5078ZM580.237 50.2656L581.221 10.9609L581.01 3.85937C581.432 1.79687 581.831 0.789061 582.206 0.835936L583.401 0.976561L580.096 136.469C579.159 136.375 578.409 135.508 577.846 133.867L578.479 124.516L578.69 116.711L578.549 104.125L579.323 89.2891L579.674 74.875C579.206 78.7656 578.573 81.1797 577.776 82.1172C574.917 91.4922 570.487 97.3516 564.487 99.6953C558.487 102.039 553.94 103.375 550.846 103.703L532.213 104.125L517.167 103.703L516.393 21.3672L517.378 19.1172L524.69 19.1875H527.995L531.932 18.4141L535.307 19.1875L538.682 18.4141L544.026 19.1875L546.417 18.4141L550.776 19.1875H554.151C557.713 21.7187 560.784 22.9844 563.362 22.9844C566.831 22.9844 571.19 26.8281 576.44 34.5156C576.487 36.0156 576.979 36.7891 577.917 36.8359C578.901 38.5234 579.557 42.8828 579.885 49.9141C580.026 50.0078 580.143 50.125 580.237 50.2656Z" fill="#171C22"/>
<path d="M624.157 74.0312H624.579C625.563 73.5625 626.243 72.8125 626.618 71.7812H623.383L624.157 74.0312ZM627.743 95.4766V95.8984L629.782 96.25H630.133L630.977 95.4766L629.29 94.4219C628.258 94.5156 627.743 94.8672 627.743 95.4766ZM597.508 90.2031L598.844 91.3281H599.899V90.2031L599.196 89.5H598.352L597.508 90.2031ZM638.219 93.3672V94.4219L639.837 94.7734L640.962 94.4219V93.3672C640.962 92.9922 640.446 92.6406 639.415 92.3125L638.219 93.3672ZM603.696 88.3047L604.891 89.0078H605.735L606.438 88.3047L605.383 87.1797H604.118L603.696 88.3047ZM625.352 85H625.704V85.7734H628.165V84.5781L626.969 83.5938H626.618L625.352 85ZM594.766 81.0625L597.157 82.2578L598.352 80.7109L596.313 79.5859C595.563 79.5859 595.047 80.0781 594.766 81.0625ZM635.407 82.8203V83.2422C635.407 83.6172 635.922 84.0156 636.954 84.4375L638.219 83.2422V82.5391L637.376 81.8359H636.602L635.407 82.8203ZM601.305 78.5312V78.8828C601.54 79.6797 602.337 80.0781 603.696 80.0781H604.118L604.54 78.8828L602.852 77.4062L601.305 78.5312ZM570.649 63.0625H574.235V63.4141L573.462 65.5234L573.883 68.6172V69.0391L573.11 69.6719C572.969 67.3281 572.149 65.3594 570.649 63.7656V63.0625ZM567.063 94.5625H568.329C569.876 94.7031 570.649 95.0547 570.649 95.6172L568.68 96.6016L566.641 95.6172L567.063 94.5625ZM564.321 85.4922C564.555 84.5078 565.047 84.0156 565.797 84.0156L567.485 85.1406V85.4922L565.797 86.8984C565.047 86.7578 564.555 86.2891 564.321 85.4922ZM541.821 79.9375C542.899 80.2656 543.438 80.5938 543.438 80.9219V81.9766L542.313 82.3281L540.626 81.9766V80.9219L541.821 79.9375ZM563.477 75.2969C564.555 75.625 565.094 75.9766 565.094 76.3516V76.7031L563.829 77.8281H563.055L562.212 77.0547V76.3516L563.477 75.2969ZM584.43 88.5156V89.6406L586.891 93.0859V87.1094C585.251 87.625 584.43 88.0938 584.43 88.5156ZM539.079 69.6719H539.852L540.626 70.4453V71.1484L539.43 72.1328C538.399 71.8047 537.883 71.4766 537.883 71.1484V70.7969L539.079 69.6719ZM574.868 74.3125C574.868 74.9219 574.188 75.2969 572.829 75.4375V74.3125H574.868ZM578.946 93.2266H579.649L580.422 93.9297V95.0547H579.297L578.102 93.9297L578.946 93.2266ZM587.735 91.9609L588.86 92.8047H589.704L590.407 91.9609L589.282 90.9062H588.087L587.735 91.9609ZM585.204 82.2578V82.6797C585.485 83.4297 586.329 83.8047 587.735 83.8047H588.087L588.438 82.6797L586.891 81.0625L585.204 82.2578ZM594.344 70.6562H592.376V71.6406C593.688 71.5 594.344 71.1719 594.344 70.6562ZM615.368 84.9297V85.2812L616.071 85.9844H617.337L617.758 85.6328L616.493 84.1562H616.071L615.368 84.9297ZM613.821 77.4062H614.172L615.368 76.5625L614.524 75.1562C614.243 75.2031 613.985 75.3672 613.751 75.6484C613.797 75.9766 613.821 76.375 613.821 76.8438H613.329L613.821 77.3359V77.4062ZM555.462 85.8438C556.258 85.9844 556.774 86.4531 557.008 87.25L555.883 88.3047V88.6562L554.688 88.3047V86.6172L555.462 85.8438ZM552.227 78.7422C552.649 77.8516 553.047 77.4062 553.422 77.4062L554.266 78.1094L553.774 79.9375H553.071C552.508 79.9375 552.227 79.5391 552.227 78.7422ZM551.454 67.2812L552.227 67.9844V68.3359L551.876 70.0234H551.102L549.837 69.0391V68.6172L551.454 67.2812ZM561.087 65.5234H561.86L562.704 66.2266L561.86 67.9844H561.087L559.891 66.7891V66.6484L561.087 65.5234ZM625.774 114.109C627.79 114.391 628.797 114.836 628.797 115.445L626.758 116.148L624.79 115.445V115.094L625.774 114.109ZM539.782 92.3125H540.555L541.891 92.0312V91.75L540.555 91.4688H539.008L539.782 92.3125ZM582.743 85.7734H584.29L585.555 86.1953V86.6875H584.29C583.399 86.6875 582.883 86.3828 582.743 85.7734ZM564.462 80.5L565.024 80.9219H567.063V80.5L565.024 79.9375L564.462 80.5ZM554.266 79.3047L556.024 79.5859H557.008C557.008 79.1641 556.54 78.8828 555.602 78.7422H554.266V79.3047ZM589.633 57.5078L588.719 62.2188L585.696 63.9766L585.204 64.1172L583.235 64.3984L580.774 56.3125L586.68 54.5547L589.212 57.0156L589.352 57.5781L589.633 57.5078ZM677.243 83.0312L677.383 83.3125L676.751 84.7188L676.118 84.8594L674.922 83.3125L675.415 82.3984L675.977 82.1875L677.243 83.0312ZM685.751 82.75L685.891 83.1016L685.258 84.4375L684.626 84.5781L683.852 82.9609L683.782 82.6094L684.133 81.7656L685.751 82.75ZM678.438 93.4375L678.649 94.1406L678.157 95.0547L677.594 95.2656L676.258 94.4922L676.118 94.1406C676.024 93.7656 676.352 93.2734 677.102 92.6641L678.438 93.4375ZM687.016 93.5078C687.251 94.2109 687.133 94.6328 686.665 94.7734L686.102 94.9844L685.188 93.2969L685.61 92.3828C685.938 92.2891 686.407 92.6641 687.016 93.5078ZM679.493 103.141C679.54 103.938 679.305 104.523 678.79 104.898L677.102 103.844L676.962 103.492L677.946 102.016C678.508 101.875 679.024 102.25 679.493 103.141ZM687.438 101.875L687.93 103.633L687.087 104.266L687.016 103.914L685.751 103.141C685.751 102.297 686.032 101.711 686.594 101.383L687.438 101.875ZM680.758 113.898L679.422 115.375L677.594 114.883C677.407 114.273 677.922 113.711 679.141 113.195L680.126 112.914L680.758 113.898ZM688.493 113.477L687.579 114.953L686.313 114.109L686.735 113.195L687.649 112.914L688.493 113.477ZM650.735 93.8594L650.805 94.2109L650.172 95.5469L649.61 95.7578L648.415 94.2109L648.837 93.2266L649.469 93.0859L650.735 93.8594ZM659.243 93.5781L659.313 94L658.68 95.2656L658.118 95.4766L657.274 93.7891L657.204 93.4375L657.626 92.5938L659.243 93.5781ZM660.508 104.336C660.696 105.086 660.579 105.508 660.157 105.602L659.524 105.812L658.68 104.195L659.032 103.211C659.407 103.117 659.899 103.492 660.508 104.336ZM654.18 124.727L652.915 126.203L651.016 125.711C650.876 125.102 651.391 124.539 652.563 124.023L653.547 123.742L654.18 124.727ZM661.915 124.305L661.071 125.781L659.805 124.938L660.157 124.023L661.071 123.742L661.915 124.305ZM656.571 65.6641L656.219 65.7344C655.329 65.5469 654.602 65.0078 654.04 64.1172L656.571 63.4141V65.6641ZM675.415 64.2578L675.133 64.3281L674.782 64.8203L674.571 64.8906L673.376 64.3984L673.587 62.9219C674.055 62.875 674.665 63.3203 675.415 64.2578ZM684.977 62.9219L685.047 63.2734C685.094 64.0234 684.579 64.5625 683.501 64.8906L683.149 65.0312L682.587 64.0469L683.36 62.2188L684.977 62.9219ZM649.469 73.9609L649.54 74.3125C649.633 74.6875 649.305 75.1797 648.555 75.7891L647.29 74.9453L647.149 74.3125L647.571 73.3281L648.133 73.1875L649.469 73.9609ZM657.977 73.6797L657.626 73.8203L657.837 74.5234L655.938 75.0859L655.657 74.0312L656.219 72.625L656.571 72.5547L657.977 73.6797ZM675.696 72.2734L675.837 72.5547L675.415 73.3984L674.43 73.75L674.008 73.4688L674.571 71.7812L674.922 71.7109L675.696 72.2734ZM685.821 72.625L685.118 73.6094L684.415 73.8203L683.641 73.3281L684.204 71.9922L685.188 71.6406L685.821 72.625ZM650.313 84.8594L650.594 85.9141L649.469 86.6875L648.415 86.5469L648.133 85.4922C648.04 85.1641 648.344 84.6953 649.047 84.0859L650.313 84.8594ZM659.172 84.5078L659.243 84.8594L657.766 85.7031L657.485 85.7734L656.641 85.2109L657.555 83.8047C658.446 83.6641 658.985 83.8984 659.172 84.5078ZM613.821 77.4062L613.188 84.6484C613.094 89.0547 614.547 91.2578 617.547 91.2578C619.094 91.2578 620.266 90.6719 621.063 89.5L619.657 84.8594C621.11 84.9531 621.907 85.2109 622.047 85.6328L622.188 86.0547V85.9844L622.258 82.5391C622.352 78.9297 622.071 76.3516 621.415 74.8047C620.712 76.7266 620.688 78.8594 621.344 81.2031L620.571 80.7109L620.43 80.3594L619.797 77.0547L618.532 75.1562L618.462 74.875L621.063 74.0312C620.594 73.2812 620.008 72.9062 619.305 72.9062L598.493 58.6328C594.977 54.0859 593.313 48.2734 593.501 41.1953L593.571 36.9062C593.712 28.3281 598.047 22.5156 606.579 19.4687L616.001 17.7109H616.493C631.305 18.3203 639.602 22.375 641.383 29.875L642.438 42.9531C641.313 43.7969 640.235 44.2188 639.204 44.2188H623.946L622.188 42.5312L622.399 36.9062C622.446 33.4375 621.274 31.7031 618.883 31.7031C615.883 31.7031 614.337 33.4375 614.243 36.9062L614.172 40.4219C614.079 44.2656 615.977 47.3125 619.868 49.5625C620.29 50.2188 622.797 51.7891 627.391 54.2734C636.297 59.5703 641.102 64.3516 641.805 68.6172C642.696 70.1641 643.094 73.6328 643.001 79.0234L642.79 86.4766C642.743 89.5234 642.18 92.1484 641.102 94.3516L641.454 95.6172L640.61 96.25L640.54 95.8984L640.329 95.7578C639.016 97.7266 637.212 99.2734 634.915 100.398C631.727 103.07 626.149 104.5 618.18 104.688L619.516 106.727L620.008 108.484V108.273L651.579 110.172L669.93 108.766C669.696 106.844 669.485 104.945 669.297 103.07L668.946 103.352L667.891 103.211L667.61 102.227C667.516 101.852 667.821 101.359 668.524 100.75L668.946 101.031C667.399 88.3281 666.016 78.9062 664.797 72.7656L664.094 71.8516L664.727 69.3203C664.118 67.3984 663.672 63.9531 663.391 58.9844L665.571 58.3516L666.766 62.1484C666.485 65.1484 666.79 68.1484 667.68 71.1484C667.165 73.8672 667.094 77.4766 667.469 81.9766L668.383 82.8203L671.688 110.312L660.719 111.508L660.93 112.281L660.087 112.914L660.016 112.562L658.751 111.789L652.001 111.156C651.907 111.578 651.696 111.906 651.368 112.141L650.102 111.438L620.008 110.945L614.735 116.289L611.993 116.641L608.547 105.18L609.04 104.266L609.672 104.055C603.063 102.695 598.188 99.1328 595.047 93.3672C593.688 89.1484 592.915 82.9141 592.727 74.6641C593.852 73.8203 594.907 73.3984 595.891 73.3984H611.149C612.649 73.3984 613.516 74.1484 613.751 75.6484C613.469 75.9297 613.188 76.375 612.907 76.9844H613.329L613.751 77.4062H613.821ZM683.008 117.977L683.36 119.102L681.11 119.734L681.04 119.383L681.462 118.469L683.008 117.977ZM675.766 123.672L675.485 123.742C675.485 122.758 676.282 122.008 677.876 121.492L679.774 120.93C679.962 121.633 678.626 122.547 675.766 123.672ZM670.774 127.609L668.594 128.664L667.399 129.016C667.212 128.453 667.727 127.914 668.946 127.398L670.563 126.906L670.774 127.609ZM665.501 130.773L665.079 131.617L662.547 132.391L662.337 131.687L664.657 130.211L665.501 130.773ZM591.602 71.8516L591.954 72.0625L592.235 72.9062L591.813 73.6094L591.04 72.9062L591.602 71.8516ZM588.157 65.3125L588.508 65.4531L588.579 65.7344L588.438 66.0859L587.313 66.4375L587.172 65.875L588.157 65.3125Z" fill="#171C22"/>
<path d="M77.2812 157.687V158.016L75.7344 157.969V158.297L77.4688 158.672L78.2188 157.969V159H79.0156V158.672L78.7344 158.297L79.2031 158.391C79.2031 158.797 79.5469 159.016 80.2344 159.047V159.328H79.7188V159.656H81.6875L81.7344 160.312H81.9688V159.703H82.25C82.2188 160.109 82.4375 160.312 82.9062 160.312L83 160.594L82.25 160.687V160.969L82.7656 161.625H83V161.016L83.1875 160.969L83.2812 161.953C83.9062 162.016 84.2344 162.312 84.2656 162.844L84.5 162.891V162.234L84.7344 162.281C84.7344 163.125 84.8906 163.547 85.2031 163.547L84.9219 163.875L85.2031 164.812L85.4375 164.531L86.2344 164.859V165.141H85.7188V165.469H86.4688L86.5156 165.844L86.2344 166.125L86.75 166.172L86.7969 168.328H87.0312V167.719H87.2188V171.562L87.5 171.609V170.578H87.7344V171.891H87.2188L87.3125 172.5H87.5L87.7344 172.219L87.7812 173.156L87.5938 174.75L87.7812 174.422L88.2969 175.078H87.5938L87.5 175.406L87.7812 175.734L87.3125 175.687V176.016H88.0156L87.7812 177.609H87.5L87.5938 176.344L87.3125 176.297V178.266H86.8438L86.7969 178.547L87.3594 178.594L86.5625 180.469H86.7969V180.75L86.5625 180.797L86.2812 180.469C86.3125 181.437 85.8438 182.156 84.875 182.625L84.8281 182.953H85.3906L85.3438 183.328L84.3594 183.234V183.656L84.8281 183.609L84.875 183.937H83.8906L83.7969 184.266H84.3594V185.812H83.8906V186.094C84.2031 186.156 84.3594 186.484 84.3594 187.078L84.875 187.734H86.3281V188.156L85.625 188.062V188.391C86.125 188.453 86.375 188.687 86.375 189.094H86.8906L87.4062 189.703V189.984L86.8906 190.031L86.8438 190.359H87.4062V192.281H87.6875L87.6406 191.672H87.9219C87.8906 192.484 88.0625 192.906 88.4375 192.937L88.3438 193.219L88.1562 193.594H88.8594V193.922H88.4375V195.141H88.9062L88.8594 195.469H88.4375V195.75L88.9062 195.797V199.641H88.7188L88.2031 201.516L88.4844 201.844C87.9844 201.812 87.7188 202 87.6875 202.406L88.4844 202.5V203.109H87.4531V203.437H87.9688V203.766L87.4531 203.719L87.5 205.641L87.2188 205.687L87.0312 205.359L86.5156 207.937L86.2344 207.844V207.187L86 207.234C85.7812 208.703 85.2031 209.437 84.2656 209.437V209.719L84.5 210.047C83.5312 210.047 83.0469 210.453 83.0469 211.266H82.8125L82.7656 210.656H82.5312L82.5781 211.969H82.2969V211.359L82.0625 211.266L81.5 211.922L81.5938 212.531L81.3125 212.578V211.922L81.0781 211.969V212.578C80.3906 212.547 80.0469 212.734 80.0469 213.141L79.8594 213.187L79.7656 212.531H78.5938L78.5469 213.141L66.1719 212.953L66.4062 213.281L66.4531 213.562L65.9375 212.953L65.6562 213.234L65.375 213.281L65.1406 212.953L60.6875 212.859V213.187L61.6719 213.234V213.516L60.4531 213.469V212.859H60.2188L60.1719 213.516H59.6562V213.187L59.9375 212.906L58.7188 212.859L58.2031 213.469H57.9688V213.187L58.2031 212.812C57.5156 212.812 57.1719 212.609 57.1719 212.203H56.9844V212.812H56.7031C56.7031 212.406 56.4531 212.203 55.9531 212.203V211.781L56.1875 211.5V211.172H55.6719L56.1875 210.281L55.7188 210.234L55.6719 209.25L55.9531 209.344L56.1875 209.625L55.8594 160.172L55.3438 160.219V159.891C55.7188 159.891 55.8906 159.562 55.8594 158.906H56.1406V159.891H56.375V158.297H55.8594V157.969H58.3906V157.687L56.8438 157.641V157.359L77.2812 157.687ZM63.3594 158.109L66.7812 158.156V157.828L63.3125 157.734L63.3594 158.109ZM67.7656 158.203H68.7969V157.875H67.7656V158.203ZM73.0156 158.25L74.75 158.297V157.969H73.0156V158.25ZM66.5469 169.734L66.3125 169.781L66.0312 169.359L65.8438 171L66.125 171.375V172.594L65.6094 173.766L66.125 173.859V174.234H65.6562V174.562L66.125 174.609L66.1719 179.484L66.6875 179.578V179.953H66.1719L66.2188 180.281L73.3906 180.516V181.359H73.625C73.625 180.828 73.9531 180.547 74.6094 180.516L74.4219 180.187L74.5625 178.922H74.8906L74.8438 179.719L75.5938 179.766L75.6406 179.344H75.0781L75.125 178.875C75.8125 178.906 76.125 178.125 76.0625 176.531H76.3438V177.328H76.5781L76.5312 173.297H76.0156V172.828L76.5781 172.875V172.453L76.0625 172.5L76.0156 170.016L74.7969 169.969L75.0312 169.641V168.422L74.7969 168.281V169.172L74.2812 169.125V168.797L74.5625 168.328L70.2969 168.609H68.5625L68.2812 168.187L68.0469 168.562H67.7656L67.5781 168.141L66.8281 168.984V168.187H66.5469V169.734ZM74.0469 170.016V170.344H73.1094V170.062L74.0469 170.016ZM67.6719 179.859L68.8906 179.906L68.9844 179.578L67.6719 179.484V179.859ZM67.7188 191.391C67.0938 191.391 66.7812 191.844 66.7812 192.75H66.5469L66.5 192.047H66.2656L66.0312 195.516L66.2656 195.891L66.3125 201.094L66.8281 201.141V201.469H66.4062V201.844L67.3438 203.25H67.5781L67.625 202.547H68.1406V202.922L67.8594 203.203L68.8438 203.25V202.594L71.3281 202.641L71.375 203.344H71.6094V202.594L71.8438 202.969H72.0312L72.3125 202.641H73.1094L73.0625 203.391H73.2969L73.3438 202.312H73.5781V203.391L74.0469 203.344V203.062L73.8594 202.641H74.2812C74.625 202.672 74.7969 202.203 74.7969 201.234L75.0781 201.328L75.0312 202.687H75.3125C75.3125 201.781 75.4688 201.328 75.7812 201.328C76.0938 201.359 76.25 200.891 76.25 199.922H76.5312V200.625H76.7656V198.562C77.1094 198.562 77.2812 198.203 77.2812 197.484H77.75V197.203L76.7656 197.156V196.781C77.2344 196.812 77.4688 196.609 77.4688 196.172L76.7656 196.078L76.7188 195.75H77.1875L77.2812 195.094L77 195.047L76.7188 195.422V193.312L76.4844 193.687L76.2031 193.641V193.359L76.4844 192.937L73.9531 192.234V191.812L74.7031 191.906L74.75 191.484H73.4375L73.4844 192.234L73.2031 192.187V191.484L69.9688 191.437V192.187H69.7344V191.391C69.0781 191.391 68.75 191.172 68.75 190.734H68.5156L68.4688 191.391H68L67.9531 190.734L67.7188 190.641V191.391ZM71.1875 191.672L71.2812 192.047L70.25 192V191.672H71.1875ZM88.4844 198.656H88.7188L88.625 196.078H88.4375L88.4844 198.656ZM73.3906 213.422L73.3438 213.75L71.8906 213.703V213.422H73.3906ZM74.8438 213.422V213.75H73.625V213.422H74.8438Z" fill="#171C22"/>
<path d="M104.013 155.766L103.966 156.187L105.607 156.375L105.654 155.953L104.013 155.766ZM104.154 154.547L106.216 154.781L106.169 155.156L104.107 154.969L104.154 154.547ZM130.169 158.297L129.747 158.625L130.169 158.953V158.297ZM130.122 165L129.279 164.953V165.328L130.122 165.375V165ZM130.122 165.656H129.279L129.701 166.031L129.794 167.484L129.372 167.109L129.326 167.812H128.951L128.529 167.484L124.404 167.859H123.091L122.669 167.484L122.201 167.859L108.044 167.906H103.732L103.31 167.484L102.466 167.531V167.906L103.263 167.859V168.234H102.466L102.419 174.141H101.951L101.997 174.516L102.372 174.797L128.576 174.562C129.482 174.562 129.919 174.906 129.888 175.594L130.029 175.734L130.122 165.656ZM129.982 183.469H129.841C129.81 184.687 129.513 185.281 128.951 185.25L127.638 185.297L127.216 184.922L127.169 185.672L126.701 185.344C111.263 185.344 103.232 185.453 102.607 185.672L103.076 185.344H102.654L102.232 185.719L102.044 193.5H102.466L102.841 193.828L103.31 193.453L103.263 194.25L103.732 194.203L103.779 193.453H104.247L104.201 194.203L112.732 193.734L112.685 194.156L121.497 194.109L129.607 194.156H129.888L129.982 183.469ZM129.794 204.797L121.872 204.984L121.404 205.359L120.935 204.937L113.06 205.312L110.904 205.031L107.388 204.984L106.966 205.312H106.497V204.984L106.029 205.359L105.607 205.312L105.185 204.984L104.716 205.031V205.359L104.294 205.031L99.4662 204.984L98.9975 205.312L97.7319 204.984L90.5131 205.031L90.935 204.656L90.4662 204.328L90.5131 203.953L90.7475 198.469L90.3256 198.094L91.2162 197.344H90.7944L90.3725 197.719L90.4194 186.375L90.8881 185.953V185.625L90.4194 185.672L90.935 185.297L90.8881 184.922L90.4662 183.844H90.8881L90.4662 183.469C90.3725 166.375 90.56 157.828 91.0287 157.828L92.3412 158.156L91.8725 157.828V157.453L129.326 157.5L130.169 157.547V157.922L129.279 157.875V158.25H130.169L130.31 141.234C130.341 140.734 130.466 140.5 130.685 140.531H130.919L130.638 176.016H130.732V184.5H130.544L130.451 195.422L130.497 204.047L130.357 204.141L130.31 210.75H130.544V212.859H130.31L130.122 234.375L120.607 234.328L120.654 233.812L120.747 233.25L129.232 233.203V233.391C129.451 233.234 129.56 233.094 129.56 232.969L129.747 212.859L111.091 212.953V212.859L110.81 212.953L109.357 212.859H108.701L107.576 212.953L106.357 212.859H105.138L103.966 212.953L103.029 212.859L102.747 212.953V212.859L102.466 212.953H101.576V212.859L99.5131 212.953H88.7787V210.75H90.2319L90.5131 210.937L90.7944 210.75L94.4037 210.937H96.185L96.4662 210.75H96.7944V210.937L97.0756 210.75H97.4037L102.747 210.937L106.357 210.75L109.029 210.937L117.419 210.75H118.029L118.31 210.937L118.591 210.75H129.747L129.794 204.797ZM106.638 154.781L108.279 154.969L108.232 155.391L106.591 155.203L106.638 154.781Z" fill="#171C22"/>
<path d="M134.401 156.469L134.589 156.187C135.432 156.187 137.714 161.531 141.432 172.219H141.62L146.964 157.125L147.198 156.937H147.339L151.136 156.656L154.839 156.937L145.417 182.297V199.594C145.417 199.937 142.651 200.031 137.12 199.875L136.932 182.156L127.417 156.891C127.698 156.609 130.026 156.469 134.401 156.469ZM154.37 206.437L154.276 213.281L131.964 212.672L132.011 205.781L154.37 206.437Z" fill="#171C22"/>
<path d="M167.414 164.109V163.922L166.852 164.156V164.297C165.289 164.922 163.758 166.25 162.258 168.281C160.477 171.562 159.617 174.156 159.68 176.062C159.336 177 159.164 177.781 159.164 178.406L159.211 185.531L159.914 189.328C160.789 193.047 162.399 196.078 164.742 198.422C165.805 198.797 166.336 199.141 166.336 199.453C168.086 200.391 170.227 200.5 172.758 199.781L173.086 199.734V199.828L173.696 199.641V199.594C175.258 198.969 176.774 197.609 178.242 195.516C180.024 192.266 180.899 189.687 180.867 187.781C181.211 186.844 181.367 186.062 181.336 185.437L181.289 178.312L180.633 174.516C179.758 170.766 178.149 167.719 175.805 165.375C174.711 164.969 174.164 164.641 174.164 164.391C173.508 164.266 172.977 164.109 172.571 163.922C172.477 163.891 172.383 163.859 172.289 163.828C170.758 163.578 169.227 163.641 167.696 164.016L167.414 164.109ZM166.242 156.75C168.68 156.187 171.117 156.094 173.555 156.469C173.742 156.531 173.914 156.594 174.071 156.656C174.758 156.812 175.617 157 176.649 157.219C176.649 157.594 177.508 158.078 179.227 158.672C182.977 161.891 185.555 166.078 186.961 171.234L188.086 176.484L188.133 186.422C188.164 187.266 187.899 188.344 187.336 189.656C187.43 192.312 186.055 195.875 183.211 200.344C180.836 203.25 178.383 205.156 175.852 206.062V206.156L174.867 206.437V206.25L174.352 206.344C170.289 207.312 166.867 207.141 164.086 205.828C164.086 205.422 163.227 204.937 161.508 204.375C157.758 201.156 155.18 196.969 153.774 191.812L152.696 186.562L152.602 176.672C152.571 175.797 152.836 174.719 153.399 173.437C153.305 170.75 154.68 167.156 157.524 162.656C159.899 159.781 162.352 157.906 164.883 157.031V156.891L165.867 156.609V156.797L166.242 156.75ZM190.571 213.328L155.836 213.187L155.742 209.203L184.571 209.344C184.914 209.344 185.086 210.031 185.086 211.406L185.274 211.453L185.227 210.328L185.086 209.625L185.227 209.297L190.477 209.391V209.344H191.602V150.047C191.602 149.734 191.633 149.391 191.696 149.016V149.719L191.836 149.531V147.375L191.696 148.828V145.781H192.446V209.344L207.492 209.484L207.352 213.141L192.446 213.328V226.875C192.446 226.156 192.414 225.797 192.352 225.797V226.312L192.446 227.391V228.281H192.258C192.258 227.75 192.211 227.391 192.117 227.203V228.281H192.024C192.024 227.812 191.992 227.453 191.93 227.203V228.281H191.696V227.578L191.602 227.203V220.266L191.696 219.187V218.484L191.602 218.625V217.594C191.664 217.25 191.696 216.641 191.696 215.766V215.437C191.696 214.719 191.664 214.359 191.602 214.359V213.328H190.571Z" fill="#171C22"/>
<path d="M224.474 157.406L214.021 157.453L214.303 157.172H197.99L201.928 162C212.896 177.344 219.006 185.562 220.256 186.656C221.943 189.562 223.021 191.016 223.49 191.016L224.381 190.781L224.053 189.281L224.428 187.734L224.146 186.281L224.428 184.969L224.146 183.937L224.381 182.203L224.146 180.187L224.428 179.437L224.146 178.172L224.428 177.187L224.146 173.156L224.193 163.031L224.521 161.812L224.193 161.578L224.521 159.047L224.24 157.547L224.474 157.406ZM191.615 156.656H191.006V156.75H191.521L191.615 156.656ZM191.428 156.797H191.006V156.984H191.24L191.428 156.797ZM191.006 213.094V234.281C191.006 233.312 190.974 232.828 190.912 232.828V233.531L191.006 234.984V236.156H190.818C190.818 235.437 190.756 234.969 190.631 234.75V236.156H190.584C190.584 235.531 190.553 235.062 190.49 234.75V236.156H190.209V235.219L190.115 234.75V225.516L190.209 224.062V223.125L190.115 223.359V221.953C190.178 221.484 190.209 220.687 190.209 219.562V219.094C190.209 218.156 190.178 217.687 190.115 217.687V157.781C190.115 157.344 190.146 156.875 190.209 156.375V157.312L190.256 157.219L190.209 156.328H191.006V156.375H191.568L192.037 156.281H201.271L202.724 156.375H203.662L203.428 156.281H204.834C205.303 156.344 206.099 156.375 207.224 156.375H207.693C208.631 156.375 209.099 156.344 209.099 156.281H269.006C269.443 156.281 269.912 156.312 270.412 156.375H269.474L269.709 156.516H272.568L270.646 156.375H274.677V157.172L230.099 157.359L229.912 199.172L229.349 199.687L222.599 199.594C222.599 199.156 221.724 197.875 219.974 195.75L200.474 169.547C198.849 167.016 197.771 165.75 197.24 165.75V165.984L197.006 166.219L196.818 198.703L196.209 199.172H191.287L191.006 198.891V208.453L244.256 208.875L244.068 213.516L191.006 213.094Z" fill="#171C22"/>
<path d="M234.425 158.109C234.425 157.328 234.769 156.844 235.456 156.656L237.566 157.078L239.956 156.562L241.784 156.75L244.409 156.469C244.909 156.75 248.394 156.906 254.863 156.937L255.941 156.703V156.937C260.816 156.812 264.831 157.516 267.987 159.047C272.05 160.391 275.628 164.531 278.722 171.469V173.906C278.722 175.031 278.894 175.906 279.237 176.531L278.956 179.109V180.797L279.237 182.25C278.831 186.562 278.394 188.969 277.925 189.469C277.331 192.281 276.191 194.547 274.503 196.266C273.034 198.672 272.066 199.875 271.597 199.875C267.847 203.312 261.659 205.125 253.034 205.312L248.628 205.172L242.066 205.312C239.691 205.375 237.769 205.25 236.3 204.937L234.988 205.219L233.956 205.266L233.675 204.281L234.191 190.922L233.956 187.359L234.191 185.906L233.956 185.672L234.191 185.391V174.891L234.472 163.125L234.191 161.719L234.753 160.031L234.425 159.094V158.109ZM247.691 166.687C246.378 166.719 245.722 167.906 245.722 170.25V176.062L245.534 176.203H245.722L245.534 176.812L245.769 180.797V182.484C245.769 187.234 245.519 191.016 245.019 193.828C245.675 194.484 246.238 194.812 246.706 194.812L251.347 194.531L256.456 194.437L257.722 194.203L257.956 194.391L259.409 193.922C260.784 193.891 262.487 193.172 264.519 191.766L266.206 189C266.862 189 267.519 186.719 268.175 182.156L267.941 181.969L268.175 180.703V180.469L267.941 180.281H268.175L267.941 180.047L268.175 179.437C268.175 176.812 267.441 174.156 265.972 171.469C264.784 169.344 262.675 167.922 259.644 167.203V167.437L253.55 166.922L252.331 167.203L247.691 166.687ZM232.878 210.047L233.253 210.328L233.581 210.047L237.659 210.328H239.722L240.05 210.047H240.425V210.328L240.753 210.047H241.128L247.222 210.328L251.347 210.047L254.441 210.328L264.003 210.047H264.706L265.034 210.328L265.362 210.047H279.05V212.812H278.722L256.784 212.953V212.812L256.456 212.953L254.769 212.812H254.066L252.753 212.953L251.347 212.812H249.988L248.628 212.953L247.597 212.812L247.222 212.953V212.812L246.894 212.953H245.863V212.812L243.519 212.953H231.238V210.047H232.878Z" fill="#171C22"/>
<path d="M377.969 212.625V212.016L292.751 212.109V212.672H287.454L289.938 212.531H286.282L285.907 212.672H287.079C286.454 212.703 285.876 212.719 285.344 212.719L377.969 212.625Z" fill="#171C22"/>
<path d="M392.748 212.625V212.016L307.529 212.109V212.672H302.232L304.717 212.531H301.061L300.686 212.672H301.857C301.232 212.703 300.654 212.719 300.123 212.719L392.748 212.625Z" fill="#171C22"/>
<path d="M314.386 157.453H315.886C317.292 157.359 317.996 157.875 317.996 159L317.761 191.062L317.386 193.641L317.761 198.187V198.562L317.949 204.328C317.98 205.766 319.105 206.328 321.324 206.016L321.652 205.547L324.183 205.969L334.027 206.062C334.558 206.406 334.824 207.156 334.824 208.312L334.496 208.453L334.871 210.516C334.402 211.922 333.933 212.672 333.464 212.766L327.089 212.719L326.058 213.234L324.277 212.766H323.902L312.277 212.484C311.121 212.078 310.996 209.656 311.902 205.219C312.027 201.312 312.058 188.844 311.996 167.812C312.027 160.781 312.386 157.266 313.074 157.266L314.386 157.453ZM308.808 209.156L310.824 211.359L311.199 211.453V211.172C310.855 210.828 310.386 210.5 309.792 210.187C309.792 209.594 309.667 209.281 309.417 209.25L308.808 209.156ZM328.777 216.984C328.996 217.016 329.121 217.797 329.152 219.328L329.292 219.375L329.246 218.109L329.152 217.359L329.246 217.031L334.777 217.078L334.917 221.344L310.589 221.25L310.402 216.937L328.777 216.984Z" fill="#171C22"/>
<path d="M338.728 158.109C339.103 157.203 339.571 156.75 340.134 156.75L346.603 156.797L347.259 157.781V204.375L346.228 204.656H339.946L338.915 204.328L338.728 200.625L338.915 196.219V192.844L338.728 188.109L338.915 185.766L338.728 183.094L338.915 179.672L338.728 174.984L338.915 172.266L338.728 168.234L338.915 161.109V159.797L338.728 158.109Z" fill="#171C22"/>
<path d="M371.928 207.328C371.741 206.734 371.491 205.922 371.178 204.891L365.366 178.594C365.366 178.187 365.116 176.922 364.616 174.797L364.475 174.281H364.241L364.288 181.125L364.85 199.125L364.616 200.625C364.897 201.25 365.038 202.297 365.038 203.766L364.944 211.781C365.006 212.656 364.194 213.109 362.506 213.141L355.616 212.906C354.647 212.906 354.178 212.297 354.209 211.078L354.069 161.625L354.209 160.125L353.975 156.703L354.022 157.078C354.022 156.828 356.725 156.766 362.131 156.891C367.569 156.984 370.397 156.937 370.616 156.75C371.084 157.156 371.381 158.344 371.506 160.312C371.881 160.375 372.194 161.437 372.444 163.5L375.35 183.562C375.631 183.875 375.834 184.828 375.959 186.422C376.147 187.078 376.303 187.734 376.428 188.391C376.584 187.734 376.741 187.078 376.897 186.422C376.959 184.828 377.163 183.875 377.506 183.562L380.131 163.5C380.413 161.437 380.725 160.375 381.069 160.312C381.163 158.344 381.459 157.156 381.959 156.75C382.209 156.937 385.038 156.984 390.444 156.891C395.881 156.766 398.584 156.828 398.553 157.078L398.647 156.703L398.366 160.125L398.553 161.625L398.366 211.078C398.459 212.297 397.991 212.906 396.959 212.906L390.069 213.141C388.413 213.109 387.584 212.656 387.584 211.781V203.766C387.584 202.297 387.725 201.25 388.006 200.625L387.772 199.125L388.334 181.125V174.281H388.147L388.006 174.797C387.506 176.922 387.256 178.187 387.256 178.594L381.444 204.891C381.131 205.859 380.881 206.641 380.694 207.234L380.741 207.375L380.694 207.422C380.569 207.797 380.506 208.078 380.506 208.266C380.163 210.484 379.959 211.75 379.897 212.062C379.678 212.062 379.413 212.25 379.1 212.625L377.647 212.672C377.584 212.672 377.522 212.672 377.459 212.672H375.116C374.491 212.672 374.163 212.672 374.131 212.672L373.1 212.625C372.756 212.25 372.475 212.062 372.256 212.062C372.256 211.75 372.194 210.484 372.069 208.266C372.069 208.078 372.022 207.781 371.928 207.375H371.881L371.928 207.328Z" fill="#171C22"/>
<path d="M405.879 187.453V187.687L406.535 188.437H406.957L407.426 187.219L406.957 186.703H406.535L405.879 187.453ZM409.113 199.453C408.707 199.453 408.441 199.781 408.316 200.437C408.441 200.969 408.707 201.297 409.113 201.422L410.004 200.437V200.203L409.113 199.453ZM407.144 194.203V194.672L407.613 195.141H408.035L408.738 194.437V194.203C408.738 193.953 408.441 193.703 407.848 193.453L407.144 194.203ZM404.894 158.484C405.269 157.453 405.723 156.937 406.254 156.937L412.301 157.312L412.863 158.531L412.816 212.531L411.879 212.859L405.973 212.531L405.082 212.109L404.848 207.797L405.082 202.734V198.797L404.894 193.266L405.082 190.547L404.894 187.453L405.082 183.516L404.894 178.031L405.082 174.891L404.894 170.203L405.129 161.953V160.359L404.894 158.484ZM420.035 195.281H420.457L420.926 195.797L420.457 197.016H420.035L419.379 196.266V196.031L420.035 195.281ZM368.238 177.797V177.094H369.316C369.316 177.469 368.957 177.703 368.238 177.797ZM404.566 208.594L405.41 209.344L406.066 208.594L405.644 208.078H404.988L404.566 208.594ZM403.441 200.672C403.879 200.797 404.176 201.109 404.332 201.609L403.676 202.359V202.594L403.019 202.359V201.187L403.441 200.672ZM390.504 198.328L391.348 199.078L390.926 199.594H390.738L389.613 199.312V199.078C389.613 198.672 389.91 198.422 390.504 198.328ZM395.988 196.594C396.551 196.844 396.832 197.078 396.832 197.297V198L396.223 198.281L395.332 198V197.297L395.988 196.594ZM376.582 187.875H377.238L377.894 188.625L377.473 189.094H377.004L376.348 188.625L376.582 187.875ZM402.363 194.906L402.785 195.375L402.551 196.594H402.129C401.816 196.594 401.66 196.344 401.66 195.844C401.879 195.219 402.113 194.906 402.363 194.906ZM383.144 185.906H383.379L384.035 186.891L383.848 187.125H383.144L382.723 186.656V186.422L383.144 185.906ZM388.957 190.969H389.191L389.848 191.719V192.469H388.535V191.953H388.301L388.957 190.969ZM394.488 189.609H394.863L395.332 190.125V190.594L394.676 191.297C394.082 191.047 393.785 190.812 393.785 190.594V190.359L394.488 189.609ZM401.238 187.969L401.66 188.437V188.625L401.473 189.844H401.051L400.394 189.141V188.859L401.238 187.969ZM382.301 180.047L382.723 180.984L382.066 181.5H381.879L381.598 181.266H381.41C381.691 180.516 381.988 180.109 382.301 180.047ZM387.223 185.109H388.957C388.769 185.766 388.41 186.25 387.879 186.562H387.644L387.223 185.109ZM393.269 211.031L393.691 211.547L393.457 212.766H393.035C392.723 212.766 392.566 212.516 392.566 212.016C392.785 211.359 393.019 211.031 393.269 211.031ZM398.754 209.016C399.348 209.266 399.644 209.516 399.644 209.766V210L398.941 210.703H398.519L398.051 210.187V209.766L398.754 209.016ZM392.144 203.953L392.566 204.422V204.656L392.379 205.875H391.957L391.301 205.172V204.891L392.144 203.953ZM397.441 202.266H397.863L398.332 202.781L397.863 203.953H397.441L396.785 203.25V203.016L397.441 202.266ZM373.91 202.922C374.473 203.172 374.754 203.422 374.754 203.672V204.375L374.144 204.656L373.254 204.375V203.672L373.91 202.922ZM380.285 201.187L380.707 201.703L380.473 202.922H380.051C379.738 202.922 379.582 202.672 379.582 202.172C379.801 201.516 380.035 201.187 380.285 201.187ZM385.769 199.734C386.363 199.984 386.66 200.234 386.66 200.484V200.719L385.957 201.469H385.535L385.066 200.953V200.484L385.769 199.734ZM379.16 194.109L379.582 194.578V194.812L379.394 196.031H378.973L378.316 195.328V195.047L379.16 194.109ZM384.457 192.844H384.879L385.348 193.359L384.879 194.578H384.457L383.801 193.828V193.594L384.457 192.844ZM403.816 180.234V179.531H404.894C404.894 179.906 404.535 180.141 403.816 180.234ZM446.613 202.5H447.269L447.691 203.016L447.035 203.766L446.191 203.016L446.613 202.5ZM445.066 195.094C445.504 195.219 445.801 195.531 445.957 196.031L445.301 196.781V197.016L444.644 196.781V195.609L445.066 195.094ZM450.738 193.875L451.629 194.625V194.859L450.738 195.844C450.332 195.719 450.066 195.391 449.941 194.859C450.066 194.203 450.332 193.875 450.738 193.875ZM432.129 192.75L432.973 193.5L432.551 194.016H432.363L431.238 193.734V193.5C431.238 193.094 431.535 192.844 432.129 192.75ZM437.613 191.016C438.176 191.266 438.457 191.5 438.457 191.719V192.422L437.848 192.703L436.957 192.422V191.719L437.613 191.016ZM411.926 191.062L412.582 191.531H413.051L413.473 191.062L412.816 190.312H412.16L411.926 191.062ZM443.988 189.328L444.41 189.797L444.176 191.016H443.754C443.441 191.016 443.285 190.766 443.285 190.266C443.504 189.641 443.738 189.328 443.988 189.328ZM418.723 188.344H418.957L419.613 189.328L419.426 189.562H418.723L418.301 189.094V188.859L418.723 188.344ZM449.473 187.875C450.066 188.125 450.363 188.375 450.363 188.625V188.859L449.66 189.562H449.238L448.769 189.094V188.625L449.473 187.875ZM430.582 185.391H430.816L431.473 186.141V186.891H430.16V186.375H429.926L430.582 185.391ZM436.113 184.031H436.488L436.957 184.547V185.016L436.301 185.719C435.707 185.469 435.41 185.234 435.41 185.016V184.781L436.113 184.031ZM442.863 182.391L443.285 182.859V183.047L443.098 184.266H442.676L442.019 183.562V183.281L442.863 182.391ZM417.879 182.484L418.301 183.422L417.644 183.937H417.457L417.176 183.703H416.988C417.269 182.953 417.566 182.547 417.879 182.484ZM448.16 181.125H448.582L449.051 181.641L448.582 182.859H448.16L447.504 182.109V181.875L448.16 181.125ZM428.848 179.531H430.582C430.394 180.187 430.035 180.672 429.504 180.984H429.269L428.848 179.531ZM434.894 205.453L435.316 205.969L435.082 207.187H434.66C434.348 207.187 434.191 206.937 434.191 206.437C434.41 205.781 434.644 205.453 434.894 205.453ZM440.379 203.437C440.973 203.687 441.269 203.937 441.269 204.187V204.422L440.566 205.125H440.144L439.676 204.609V204.187L440.379 203.437ZM433.769 198.375L434.191 198.844V199.078L434.004 200.297H433.582L432.926 199.594V199.312L433.769 198.375ZM439.066 196.687H439.488L439.957 197.203L439.488 198.375H439.066L438.41 197.672V197.437L439.066 196.687ZM408.832 206.109V206.812L409.723 207.094L410.332 206.812V206.109C410.332 205.859 410.051 205.609 409.488 205.359L408.832 206.109ZM415.863 203.625L416.285 204.141L416.051 205.359H415.629C415.316 205.359 415.16 205.109 415.16 204.609C415.379 203.953 415.613 203.625 415.863 203.625ZM421.348 202.172C421.941 202.422 422.238 202.672 422.238 202.922V203.156L421.535 203.906H421.113L420.644 203.391V202.922L421.348 202.172ZM413.894 197.484V197.766L414.551 198.469H414.973L415.16 197.25V197.016L414.738 196.547L413.894 197.484Z" fill="#171C22"/>
<path d="M422.017 167.484C422.767 167.391 423.142 167.172 423.142 166.828L422.673 167.062L422.158 166.828H422.017V167.484ZM416.439 212.766V214.875H416.017L415.454 197.016C415.423 195.766 415.345 194.984 415.22 194.672L415.033 188.625C415.126 188.625 415.158 188.375 415.126 187.875L415.408 151.031H415.829L415.876 157.312L416.158 157.078H425.439C425.595 156.984 425.767 156.937 425.954 156.937L434.533 157.031L434.579 157.078H443.251L443.439 157.875V165.562L443.251 166.406L441.048 166.547L438.048 166.406H437.486L435.142 166.547V204.656L434.158 204.984H425.767L424.783 204.609L424.595 200.906L424.783 196.547V193.172L424.595 188.391L424.783 186.047L424.595 183.328L424.783 179.906L424.595 175.219L424.783 172.969L424.595 168.984L424.689 166.547L423.189 166.453L421.783 166.547L418.079 166.406L417.329 166.453L416.345 166.594C416.189 166.5 416.064 166.406 415.97 166.312L416.392 208.453L439.595 208.5C439.876 208.531 440.048 209.312 440.111 210.844L440.298 210.891L440.204 209.625L440.111 208.875L440.204 208.547L447.329 208.594L447.517 212.859L416.439 212.766Z" fill="#171C22"/>
<path d="M455.78 157.125L465.905 156.984C466.374 156.984 466.796 158.656 467.171 162C467.702 162.875 468.264 164.547 468.858 167.016C469.358 167.047 469.874 169.047 470.405 173.016C470.874 173.016 471.389 174.672 471.952 177.984C472.577 177.953 472.921 179.297 472.983 182.016C473.671 183.172 474.499 185.719 475.467 189.656C475.749 189.687 476.186 191.375 476.78 194.719C477.249 194.687 477.827 196.687 478.514 200.719C478.983 200.687 479.327 202.031 479.546 204.75C480.452 204.719 481.03 206.828 481.28 211.078L480.155 211.406L474.296 211.453C472.858 211.484 471.733 210.391 470.921 208.172L471.202 207.844L471.108 204.844L468.671 200.859L453.155 201.094C451.78 203.5 451.124 205.734 451.186 207.797C450.842 207.828 450.53 208.734 450.249 210.516C449.624 211.422 448.842 211.891 447.905 211.922L444.436 211.969C443.28 211.937 442.655 211.594 442.561 210.937C442.53 208.906 443.014 206.672 444.014 204.234C444.014 203.297 444.546 201.609 445.608 199.172C445.546 196.984 445.967 195.172 446.874 193.734L448.139 187.781C448.139 186.687 448.655 184.766 449.686 182.016C449.655 179.609 450.092 177.937 450.999 177C450.967 175.406 451.421 173.828 452.358 172.266C452.264 170.047 452.749 167.469 453.811 164.531C453.78 163.656 454.233 162.203 455.171 160.172C455.077 158.172 455.28 157.156 455.78 157.125ZM455.921 191.016V191.672L456.624 192.703L460.421 192.656L461.311 192.234L462.342 192.562H466.28L466.983 191.484L466.936 190.453C466.936 189.578 466.342 187.375 465.155 183.844C465.155 182.562 464.764 181.437 463.983 180.469C463.921 177.687 463.296 175.359 462.108 173.484C461.921 171.703 461.592 170.828 461.124 170.859L460.702 170.812C459.171 173.969 458.436 176.984 458.499 179.859C457.717 179.891 457.296 181.797 457.233 185.578C456.389 185.641 455.952 187.453 455.921 191.016ZM472.092 214.828C472.499 214.828 472.717 215.578 472.749 217.078L472.936 217.125L472.889 215.906L472.749 215.203L472.889 214.828L481.842 214.922L481.936 219.141L442.608 219L442.467 214.734L472.092 214.828ZM470.967 209.437L470.921 209.812H471.155L471.202 209.437H470.967Z" fill="#171C22"/>
<path d="M507.402 167.484L504.637 167.344L503.559 167.391L501.027 167.531L501.121 212.672L500.043 213.094L491.184 213.141L490.152 212.672L489.918 208.359L490.152 203.25L490.106 199.266L489.918 193.687L490.106 190.969L489.871 187.781L490.059 183.844L489.871 178.359L490.059 175.172L489.824 172.594L489.918 167.672L488.231 167.437L485.652 167.672L482.277 167.531H481.387L480.309 167.719C479.746 167.375 479.449 166.922 479.418 166.359L479.465 157.875L480.121 157.266L491.84 157.125C492.027 157.031 492.215 156.984 492.402 156.984H499.246L499.293 157.078L507.59 157.031L507.402 167.484ZM508.199 156.703H510.121L510.262 157.734V166.641L509.981 167.672L507.965 167.812L508.199 156.703ZM508.152 157.312L508.34 147.937L508.293 146.953L508.621 146.906L508.434 157.312H508.152ZM508.668 166.828L507.309 231.328H506.981L506.934 230.578L507.027 230.156V229.594L507.496 208.453L507.449 207.75C507.481 206.125 507.481 205.062 507.449 204.562L507.59 196.641C507.684 196.641 507.746 196.312 507.777 195.656L507.731 194.391L507.824 190.969L507.965 187.078L507.918 186.328L508.106 180.797L508.059 179.812L508.387 166.875L508.668 166.828Z" fill="#171C22"/>
<path d="M513.275 187.453V187.687L513.931 188.437H514.353L514.822 187.219L514.353 186.703H513.931L513.275 187.453ZM516.509 199.453C516.103 199.453 515.838 199.781 515.713 200.437C515.838 200.969 516.103 201.297 516.509 201.422L517.4 200.437V200.203L516.509 199.453ZM514.541 194.203V194.672L515.009 195.141H515.431L516.134 194.437V194.203C516.134 193.953 515.838 193.703 515.244 193.453L514.541 194.203ZM512.291 158.484C512.666 157.453 513.119 156.937 513.65 156.937L519.697 157.312L520.259 158.531L520.213 212.531L519.275 212.859L513.369 212.531L512.478 212.109L512.244 207.797L512.478 202.734V198.797L512.291 193.266L512.478 190.547L512.291 187.453L512.478 183.516L512.291 178.031L512.478 174.891L512.291 170.203L512.525 161.953V160.359L512.291 158.484ZM527.431 195.281H527.853L528.322 195.797L527.853 197.016H527.431L526.775 196.266V196.031L527.431 195.281ZM475.634 177.797V177.094H476.712C476.712 177.469 476.353 177.703 475.634 177.797ZM511.962 208.594L512.806 209.344L513.463 208.594L513.041 208.078H512.384L511.962 208.594ZM510.837 200.672C511.275 200.797 511.572 201.109 511.728 201.609L511.072 202.359V202.594L510.416 202.359V201.187L510.837 200.672ZM497.9 198.328L498.744 199.078L498.322 199.594H498.134L497.009 199.312V199.078C497.009 198.672 497.306 198.422 497.9 198.328ZM503.384 196.594C503.947 196.844 504.228 197.078 504.228 197.297V198L503.619 198.281L502.728 198V197.297L503.384 196.594ZM483.978 187.875H484.634L485.291 188.625L484.869 189.094H484.4L483.744 188.625L483.978 187.875ZM509.759 194.906L510.181 195.375L509.947 196.594H509.525C509.212 196.594 509.056 196.344 509.056 195.844C509.275 195.219 509.509 194.906 509.759 194.906ZM490.541 185.906H490.775L491.431 186.891L491.244 187.125H490.541L490.119 186.656V186.422L490.541 185.906ZM496.353 190.969H496.587L497.244 191.719V192.469H495.931V191.953H495.697L496.353 190.969ZM501.884 189.609H502.259L502.728 190.125V190.594L502.072 191.297C501.478 191.047 501.181 190.812 501.181 190.594V190.359L501.884 189.609ZM508.634 187.969L509.056 188.437V188.625L508.869 189.844H508.447L507.791 189.141V188.859L508.634 187.969ZM489.697 180.047L490.119 180.984L489.462 181.5H489.275L488.994 181.266H488.806C489.087 180.516 489.384 180.109 489.697 180.047ZM494.619 185.109H496.353C496.166 185.766 495.806 186.25 495.275 186.562H495.041L494.619 185.109ZM500.666 211.031L501.087 211.547L500.853 212.766H500.431C500.119 212.766 499.962 212.516 499.962 212.016C500.181 211.359 500.416 211.031 500.666 211.031ZM506.15 209.016C506.744 209.266 507.041 209.516 507.041 209.766V210L506.337 210.703H505.916L505.447 210.187V209.766L506.15 209.016ZM499.541 203.953L499.962 204.422V204.656L499.775 205.875H499.353L498.697 205.172V204.891L499.541 203.953ZM504.837 202.266H505.259L505.728 202.781L505.259 203.953H504.837L504.181 203.25V203.016L504.837 202.266ZM481.306 202.922C481.869 203.172 482.15 203.422 482.15 203.672V204.375L481.541 204.656L480.65 204.375V203.672L481.306 202.922ZM487.681 201.187L488.103 201.703L487.869 202.922H487.447C487.134 202.922 486.978 202.672 486.978 202.172C487.197 201.516 487.431 201.187 487.681 201.187ZM493.166 199.734C493.759 199.984 494.056 200.234 494.056 200.484V200.719L493.353 201.469H492.931L492.462 200.953V200.484L493.166 199.734ZM486.556 194.109L486.978 194.578V194.812L486.791 196.031H486.369L485.712 195.328V195.047L486.556 194.109ZM491.853 192.844H492.275L492.744 193.359L492.275 194.578H491.853L491.197 193.828V193.594L491.853 192.844ZM511.212 180.234V179.531H512.291C512.291 179.906 511.931 180.141 511.212 180.234ZM554.009 202.5H554.666L555.088 203.016L554.431 203.766L553.588 203.016L554.009 202.5ZM552.463 195.094C552.9 195.219 553.197 195.531 553.353 196.031L552.697 196.781V197.016L552.041 196.781V195.609L552.463 195.094ZM558.134 193.875L559.025 194.625V194.859L558.134 195.844C557.728 195.719 557.463 195.391 557.338 194.859C557.463 194.203 557.728 193.875 558.134 193.875ZM539.525 192.75L540.369 193.5L539.947 194.016H539.759L538.634 193.734V193.5C538.634 193.094 538.931 192.844 539.525 192.75ZM545.009 191.016C545.572 191.266 545.853 191.5 545.853 191.719V192.422L545.244 192.703L544.353 192.422V191.719L545.009 191.016ZM519.322 191.062L519.978 191.531H520.447L520.869 191.062L520.213 190.312H519.556L519.322 191.062ZM551.384 189.328L551.806 189.797L551.572 191.016H551.15C550.838 191.016 550.681 190.766 550.681 190.266C550.9 189.641 551.134 189.328 551.384 189.328ZM526.119 188.344H526.353L527.009 189.328L526.822 189.562H526.119L525.697 189.094V188.859L526.119 188.344ZM556.869 187.875C557.463 188.125 557.759 188.375 557.759 188.625V188.859L557.056 189.562H556.634L556.166 189.094V188.625L556.869 187.875ZM537.978 185.391H538.213L538.869 186.141V186.891H537.556V186.375H537.322L537.978 185.391ZM543.509 184.031H543.884L544.353 184.547V185.016L543.697 185.719C543.103 185.469 542.806 185.234 542.806 185.016V184.781L543.509 184.031ZM550.259 182.391L550.681 182.859V183.047L550.494 184.266H550.072L549.416 183.562V183.281L550.259 182.391ZM525.275 182.484L525.697 183.422L525.041 183.937H524.853L524.572 183.703H524.384C524.666 182.953 524.963 182.547 525.275 182.484ZM555.556 181.125H555.978L556.447 181.641L555.978 182.859H555.556L554.9 182.109V181.875L555.556 181.125ZM536.244 179.531H537.978C537.791 180.187 537.431 180.672 536.9 180.984H536.666L536.244 179.531ZM542.291 205.453L542.713 205.969L542.478 207.187H542.056C541.744 207.187 541.588 206.937 541.588 206.437C541.806 205.781 542.041 205.453 542.291 205.453ZM547.775 203.437C548.369 203.687 548.666 203.937 548.666 204.187V204.422L547.963 205.125H547.541L547.072 204.609V204.187L547.775 203.437ZM541.166 198.375L541.588 198.844V199.078L541.4 200.297H540.978L540.322 199.594V199.312L541.166 198.375ZM546.463 196.687H546.884L547.353 197.203L546.884 198.375H546.463L545.806 197.672V197.437L546.463 196.687ZM516.228 206.109V206.812L517.119 207.094L517.728 206.812V206.109C517.728 205.859 517.447 205.609 516.884 205.359L516.228 206.109ZM523.259 203.625L523.681 204.141L523.447 205.359H523.025C522.713 205.359 522.556 205.109 522.556 204.609C522.775 203.953 523.009 203.625 523.259 203.625ZM528.744 202.172C529.338 202.422 529.634 202.672 529.634 202.922V203.156L528.931 203.906H528.509L528.041 203.391V202.922L528.744 202.172ZM521.291 197.484V197.766L521.947 198.469H522.369L522.556 197.25V197.016L522.134 196.547L521.291 197.484Z" fill="#171C22"/>
<path d="M548.491 182.719L548.397 182.344L546.944 180.703L542.819 181.875L543.851 187.266L545.163 187.078L545.538 186.984L547.647 185.812L548.679 182.672L548.491 182.719ZM546.335 188.25L546.429 188.625L547.179 188.391L547.319 188.156L547.272 187.969L547.085 187.875L546.335 188.25ZM548.397 192.937L548.866 193.406L549.194 192.937L549.054 192.375L548.866 192.234L548.397 192.937ZM539.913 179.484L540.147 182.25L539.913 183C539.913 189.062 540.335 192.922 541.179 194.578C541.179 196.047 542.241 197.656 544.366 199.406L547.319 200.859H548.772L550.507 201.141C552.726 201.141 554.319 200.719 555.288 199.875C556.007 199.875 557.069 198.953 558.476 197.109C559.601 195.203 560.163 193.422 560.163 191.766L560.632 181.5V180.75C560.632 174.562 558.929 170.594 555.522 168.844C555.522 168.437 553.351 167.937 549.007 167.344C546.351 168.219 544.585 168.969 543.71 169.594C541.179 172.719 539.913 176.016 539.913 179.484ZM566.538 200.906L567.288 204.891L568.179 202.172L568.085 201.422C568.022 201.141 567.507 200.969 566.538 200.906ZM568.46 193.641L566.491 194.25L566.538 194.437L567.194 195.703L567.429 197.906L567.476 198.141L567.944 198.469C567.694 196.875 567.882 195.422 568.507 194.109L568.46 193.641ZM578.444 187.172L578.866 187.641L578.96 186.75H578.491L578.444 187.172ZM579.522 206.531C579.116 206.781 578.882 207.172 578.819 207.703L579.616 208.266V208.5L580.226 208.078L580.038 206.906L579.522 206.531ZM586.179 200.391C585.679 200.797 585.444 201.109 585.476 201.328L585.616 202.031L586.272 202.125L587.069 201.609L586.976 200.906L586.179 200.391ZM579.569 200.578L579.241 201.187L579.663 202.266L580.085 202.172C580.397 202.078 580.507 201.781 580.413 201.281C580.101 200.719 579.819 200.484 579.569 200.578ZM586.413 193.125L586.038 193.219L585.663 193.875L585.757 194.297L586.507 194.859C587.069 194.453 587.319 194.125 587.257 193.875V193.641L586.413 193.125ZM579.429 193.453L579.101 194.016L579.147 194.25L579.522 195.375L579.944 195.234L580.46 194.391L580.413 194.109L579.429 193.453ZM586.085 226.828L585.429 227.016C584.585 227.359 584.194 227.734 584.257 228.141L585.476 228.469L586.46 227.484L586.085 226.828ZM585.757 206.391L585.335 206.484L584.96 207.141L585.663 208.172L586.085 208.031L586.601 207.141L586.554 206.906L585.757 206.391ZM567.616 221.062L567.569 221.297L568.835 221.766L570.241 221.297C570.304 220.891 569.679 220.594 568.366 220.406L567.616 221.062ZM576.382 185.859L575.116 197.344C574.804 197.344 574.46 198.359 574.085 200.391C571.397 204.641 568.804 207.578 566.304 209.203C564.929 210.266 562.538 211.297 559.132 212.297L553.226 213.281H547.741C542.772 212.562 539.601 211.812 538.226 211.031C536.257 210.531 533.788 208.922 530.819 206.203C528.163 203.047 526.835 200.937 526.835 199.875C525.304 197.094 524.538 193.969 524.538 190.5L524.304 183.281V180.75C524.304 173.937 525.929 168.625 529.179 164.812C531.21 161.562 534.101 159.187 537.851 157.687C540.819 156.187 544.663 155.437 549.382 155.437C556.038 155.437 560.897 156.375 563.96 158.25C564.804 158.25 566.632 159.5 569.444 162C571.694 164.062 573.179 166.266 573.897 168.609C574.241 168.609 574.522 169.453 574.741 171.141C575.272 171.141 575.694 172.828 576.007 176.203C576.163 176.203 576.288 176.875 576.382 178.219V162C576.382 161.562 576.413 161.094 576.476 160.594V161.531L576.616 161.297V158.437L576.476 160.359V156.328H577.226V217.266L585.851 217.781L598.226 216.844C598.194 215.562 598.179 214.297 598.179 213.047L597.944 213.234L597.288 213.141L597.147 212.484C597.116 212.234 597.351 211.906 597.851 211.5L598.132 211.687C598.069 203.219 597.882 196.937 597.569 192.844L597.147 192.234L597.757 190.547C597.538 189.266 597.522 186.969 597.71 183.656L599.21 183.234L599.679 185.766C599.272 187.766 599.257 189.766 599.632 191.766C599.069 193.578 598.741 195.984 598.647 198.984L599.21 199.547V217.875L591.851 218.672L591.944 219.187L591.335 219.609L591.288 219.375L590.491 218.859L586.085 218.437C585.96 218.719 585.788 218.937 585.569 219.094L584.772 218.625L577.226 218.484V238.5C577.226 237.531 577.194 237.047 577.132 237.047V237.75L577.226 239.203V240.375H577.038C577.038 239.656 576.991 239.187 576.897 238.969V240.375H576.804C576.804 239.75 576.772 239.281 576.71 238.969V240.375H576.476V239.437L576.382 238.969V229.734C576.444 223.266 576.444 220.031 576.382 220.031V218.625H564.382L560.819 221.859L558.944 222.094L558.335 218.672L528.054 218.719L527.96 215.344L557.679 215.297L557.538 214.453L557.96 213.844L558.991 213.516C561.46 212.797 563.101 212.922 563.913 213.891L564.616 215.297H576.382V185.859Z" fill="#171C22"/>
<path d="M635.879 142.734V142.641L576.817 142.359V143.062L633.254 143.484V142.734H635.879ZM635.879 142.734V228.047C635.879 226.828 635.786 226.219 635.598 226.219V227.109L635.879 228.937V230.391H635.27C635.27 229.484 635.129 228.891 634.848 228.609V230.391H634.567C634.567 229.609 634.473 229.016 634.286 228.609V230.391H633.536V229.219L633.254 228.609V224.437L633.536 222.609V221.437L633.254 221.719V219.937C633.442 219.344 633.536 218.344 633.536 216.937V216.328C633.536 215.141 633.442 214.547 633.254 214.547V199.078L633.208 212.906L632.411 213.609L623.176 213.422C623.176 212.859 621.989 211.203 619.614 208.453L592.942 173.672C590.661 170.359 589.161 168.703 588.442 168.703L588.489 168.984L588.114 169.359L587.833 212.297L587.036 212.906L580.333 212.859L579.489 212.203L579.723 157.547L580.942 156.562L588.911 156.656L594.864 163.734C609.895 184.016 618.27 194.906 619.989 196.406C622.301 200.25 623.77 202.172 624.395 202.172L625.614 201.891L625.192 199.781L625.661 197.766L625.286 195.844L625.708 194.109L625.286 192.797L625.614 190.5L625.286 187.828L625.661 186.844L625.286 185.109L625.661 183.797L625.333 178.547L625.379 165.141L625.801 163.453L625.379 163.125L625.801 159.797L625.426 157.828L626.645 157.172L631.379 157.312L633.254 157.547V143.25C633.254 143.031 633.348 143.047 633.536 143.297L635.833 142.875L635.879 142.734ZM595.145 213.281H595.708L595.426 213.469H595.145V213.281ZM589.051 213.281H589.473V213.375L589.333 213.469L589.051 213.281ZM603.301 213.281H603.676V213.375L603.583 213.469L603.301 213.281Z" fill="#171C22"/>
<path d="M651.127 157.312H651.408C659.721 157.656 664.377 159.891 665.377 164.016L665.939 171.187C665.314 171.656 664.721 171.891 664.158 171.891H655.58L654.596 170.953L654.689 167.859C654.721 165.953 654.064 165 652.721 165C651.033 165 650.174 165.953 650.143 167.859L650.096 169.781C650.033 171.906 651.096 173.578 653.283 174.797C653.533 175.172 654.939 176.047 657.502 177.422C662.502 180.328 665.205 182.953 665.611 185.297C666.111 186.141 666.33 188.047 666.268 191.016L666.174 195.094C666.08 198.844 664.596 201.391 661.721 202.734C659.814 204.328 656.346 205.125 651.314 205.125C645.658 205.125 641.674 203.047 639.361 198.891C638.58 196.578 638.143 193.156 638.049 188.625C638.674 188.156 639.268 187.922 639.83 187.922H648.408C649.439 187.922 649.939 188.547 649.908 189.797H649.627L649.908 190.078L649.533 194.109C649.471 196.516 650.283 197.719 651.971 197.719C653.502 197.719 654.377 196.75 654.596 194.812L654.643 192.937C654.705 189.406 654.143 187.641 652.955 187.641L641.283 179.812C639.314 177.312 638.377 174.109 638.471 170.203L638.518 167.859C638.611 163.141 641.049 159.953 645.83 158.297L651.127 157.312ZM661.861 182.531H662.236V183.281L661.861 182.906V182.531ZM656.611 210.281C657.736 210.437 658.299 210.687 658.299 211.031L657.174 211.406L656.049 211.031V210.844L656.611 210.281Z" fill="#171C22"/>
</svg>
